  0
SECTION
  2
HEADER
  9
$ANGBASE
  50
0.0
  9
$ANGDIR
  70
1
  9
$MEASUREMENT
  70
0
  0
ENDSEC
  0
SECTION
  2
TABLES
  0
TABLE
  2
LTYPE
  70
4
  0
LTYPE
  5
40F
  2
CONTINUOUS
  70
0
  3
Solid line
  72
65
  73
0
  40
0.0
  0
LTYPE
  5
410
  2
DASHDOT
 70
0
  3
Dash Dot ____ _ ____ _
 72
65
 73
4
 40
2.0
 49
1.25
 49
-0.25
 49
0.25
 49
-0.25
  0
LTYPE
  5
411
  2
DASHED
 70
0
  3
Dashed __ __ __ __ __
 72
65
 73
2
 40
0.75
 49
0.5
 49
-0.25
  0
LTYPE
  5
43B
  2
DOTTED
 70
0
  3
Dotted .  .  .  .
 72
65
 73
2
 40
0.2
 49
0.0
 49
-0.2
  0
ENDTAB
  0
TABLE
  2
STYLE
  70
4
  0
STYLE
  2
KICAD
  70
0
  40
0
  41
1
  42
1
  50
0
  71
0
  3
isocp.shx
  0
STYLE
  2
KICADB
  70
0
  40
0
  41
1
  42
1
  50
0
  71
0
  3
isocp.shx
  0
STYLE
  2
KICADI
  70
0
  40
0
  41
1
  42
1
  50
15
  71
0
  3
isocp.shx
  0
STYLE
  2
KICADBI
  70
0
  40
0
  41
1
  42
1
  50
15
  71
0
  3
isocp.shx
  0
ENDTAB
  0
TABLE
  2
LAYER
  70
1
  0
LAYER
  2
BLACK
  70
0
  62
7
  6
CONTINUOUS
  0
ENDTAB
  0
ENDSEC
  0
SECTION
  2
ENTITIES
0
LINE
8
BLACK
6
CONTINUOUS
10
0.0471476377952756
20
0.6291413779527559
11
0.0784491338582677
21
0.6260091732283465
0
LINE
8
BLACK
6
CONTINUOUS
10
0.0784491338582677
20
0.6260091732283465
11
0.1095555905511811
21
0.6213206299212598
0
LINE
8
BLACK
6
CONTINUOUS
10
0.1095555905511811
20
0.6213206299212598
11
0.1403896850393701
21
0.6150874015748031
0
LINE
8
BLACK
6
CONTINUOUS
10
0.1403896850393701
20
0.6150874015748031
11
0.1708747637795276
21
0.6073249606299213
0
LINE
8
BLACK
6
CONTINUOUS
10
0.1708747637795276
20
0.6073249606299213
11
0.200935
21
0.5980525984251969
0
LINE
8
BLACK
6
CONTINUOUS
10
0.200935
20
0.5980525984251969
11
0.2304956692913386
21
0.5872933858267716
0
LINE
8
BLACK
6
CONTINUOUS
10
0.2304956692913386
20
0.5872933858267716
11
0.2594833070866142
21
0.5750740551181103
0
LINE
8
BLACK
6
CONTINUOUS
10
0.2594833070866142
20
0.5750740551181103
11
0.2878258267716535
21
0.5614250393700787
0
LINE
8
BLACK
6
CONTINUOUS
10
0.2878258267716535
20
0.5614250393700787
11
0.3154527559055118
21
0.5463801968503937
0
LINE
8
BLACK
6
CONTINUOUS
10
0.3154527559055118
20
0.5463801968503937
11
0.3422954330708661
21
0.5299769685039369
0
LINE
8
BLACK
6
CONTINUOUS
10
0.3422954330708661
20
0.5299769685039369
11
0.3682870866141732
21
0.5122561811023622
0
LINE
8
BLACK
6
CONTINUOUS
10
0.3682870866141732
20
0.5122561811023622
11
0.3933631496062992
21
0.493261811023622
0
LINE
8
BLACK
6
CONTINUOUS
10
0.3933631496062992
20
0.493261811023622
11
0.4174612598425197
21
0.4730411023622047
0
LINE
8
BLACK
6
CONTINUOUS
10
0.4174612598425197
20
0.4730411023622047
11
0.4405214566929134
21
0.4516443307086614
0
LINE
8
BLACK
6
CONTINUOUS
10
0.4405214566929134
20
0.4516443307086614
11
0.4624864566929134
21
0.4291247244094488
0
LINE
8
BLACK
6
CONTINUOUS
10
0.4624864566929134
20
0.4291247244094488
11
0.4833016535433071
21
0.4055382283464567
0
LINE
8
BLACK
6
CONTINUOUS
10
0.4833016535433071
20
0.4055382283464567
11
0.5029152755905512
21
0.3809435433070866
0
LINE
8
BLACK
6
CONTINUOUS
10
0.5029152755905512
20
0.3809435433070866
11
0.5212785826771653
21
0.3554017322834646
0
LINE
8
BLACK
6
CONTINUOUS
10
0.5212785826771653
20
0.3554017322834646
11
0.5383459055118111
21
0.3289763385826772
0
LINE
8
BLACK
6
CONTINUOUS
10
0.5383459055118111
20
0.3289763385826772
11
0.554074842519685
21
0.3017330708661417
0
LINE
8
BLACK
6
CONTINUOUS
10
0.554074842519685
20
0.3017330708661417
11
0.568426220472441
21
0.2737396456692913
0
LINE
8
BLACK
6
CONTINUOUS
10
0.568426220472441
20
0.2737396456692913
11
0.5813644094488188
21
0.2450656692913386
0
LINE
8
BLACK
6
CONTINUOUS
10
0.5813644094488188
20
0.2450656692913386
11
0.5928572440944881
21
0.2157824015748031
0
LINE
8
BLACK
6
CONTINUOUS
10
0.5928572440944881
20
0.2157824015748031
11
0.6028761417322834
21
0.1859626771653543
0
LINE
8
BLACK
6
CONTINUOUS
10
0.6028761417322834
20
0.1859626771653543
11
0.6113962204724409
21
0.1556805905511811
0
LINE
8
BLACK
6
CONTINUOUS
10
0.6113962204724409
20
0.1556805905511811
11
0.6183962204724409
21
0.1250114960629921
0
LINE
8
BLACK
6
CONTINUOUS
10
0.6183962204724409
20
0.1250114960629921
11
0.6238588188976378
21
0.0940315748031496
0
LINE
8
BLACK
6
CONTINUOUS
10
0.6238588188976378
20
0.0940315748031496
11
0.6277703937007874
21
0.0628179133858268
0
LINE
8
BLACK
6
CONTINUOUS
10
0.6277703937007874
20
0.0628179133858268
11
0.6301212598425197
21
0.031448031496063
0
LINE
8
BLACK
6
CONTINUOUS
10
0.6301212598425197
20
0.031448031496063
11
0.6309055118110236
21
0.
0
LINE
8
BLACK
6
CONTINUOUS
10
0.6309055118110236
20
0.
11
0.6301212598425197
21
-0.031448031496063
0
LINE
8
BLACK
6
CONTINUOUS
10
0.6301212598425197
20
-0.031448031496063
11
0.6277703937007874
21
-0.0628179133858268
0
LINE
8
BLACK
6
CONTINUOUS
10
0.6277703937007874
20
-0.0628179133858268
11
0.6238588188976378
21
-0.0940315748031496
0
LINE
8
BLACK
6
CONTINUOUS
10
0.6238588188976378
20
-0.0940315748031496
11
0.6183962204724409
21
-0.1250114960629921
0
LINE
8
BLACK
6
CONTINUOUS
10
0.6183962204724409
20
-0.1250114960629921
11
0.6113962204724409
21
-0.1556805905511811
0
LINE
8
BLACK
6
CONTINUOUS
10
0.6113962204724409
20
-0.1556805905511811
11
0.6028761417322834
21
-0.1859626771653543
0
LINE
8
BLACK
6
CONTINUOUS
10
0.6028761417322834
20
-0.1859626771653543
11
0.5928572440944881
21
-0.2157824015748031
0
LINE
8
BLACK
6
CONTINUOUS
10
0.5928572440944881
20
-0.2157824015748031
11
0.5813644094488188
21
-0.2450656692913386
0
LINE
8
BLACK
6
CONTINUOUS
10
0.5813644094488188
20
-0.2450656692913386
11
0.568426220472441
21
-0.2737396456692913
0
LINE
8
BLACK
6
CONTINUOUS
10
0.568426220472441
20
-0.2737396456692913
11
0.554074842519685
21
-0.3017330708661417
0
LINE
8
BLACK
6
CONTINUOUS
10
0.554074842519685
20
-0.3017330708661417
11
0.5383459055118111
21
-0.3289763385826772
0
LINE
8
BLACK
6
CONTINUOUS
10
0.5383459055118111
20
-0.3289763385826772
11
0.5212785826771653
21
-0.3554017322834646
0
LINE
8
BLACK
6
CONTINUOUS
10
0.5212785826771653
20
-0.3554017322834646
11
0.5029152755905512
21
-0.3809435433070866
0
LINE
8
BLACK
6
CONTINUOUS
10
0.5029152755905512
20
-0.3809435433070866
11
0.4833016535433071
21
-0.4055382283464567
0
LINE
8
BLACK
6
CONTINUOUS
10
0.4833016535433071
20
-0.4055382283464567
11
0.4624864566929134
21
-0.4291247244094488
0
LINE
8
BLACK
6
CONTINUOUS
10
0.4624864566929134
20
-0.4291247244094488
11
0.4405214566929134
21
-0.4516443307086614
0
LINE
8
BLACK
6
CONTINUOUS
10
0.4405214566929134
20
-0.4516443307086614
11
0.4174612598425197
21
-0.4730411023622047
0
LINE
8
BLACK
6
CONTINUOUS
10
0.4174612598425197
20
-0.4730411023622047
11
0.3933631496062992
21
-0.493261811023622
0
LINE
8
BLACK
6
CONTINUOUS
10
0.3933631496062992
20
-0.493261811023622
11
0.3682870866141732
21
-0.5122561811023622
0
LINE
8
BLACK
6
CONTINUOUS
10
0.3682870866141732
20
-0.5122561811023622
11
0.3422954330708661
21
-0.5299769685039369
0
LINE
8
BLACK
6
CONTINUOUS
10
0.3422954330708661
20
-0.5299769685039369
11
0.3154527559055118
21
-0.5463801968503937
0
LINE
8
BLACK
6
CONTINUOUS
10
0.3154527559055118
20
-0.5463801968503937
11
0.2878258267716535
21
-0.5614250393700787
0
LINE
8
BLACK
6
CONTINUOUS
10
0.2878258267716535
20
-0.5614250393700787
11
0.2594833070866142
21
-0.5750740551181103
0
LINE
8
BLACK
6
CONTINUOUS
10
0.2594833070866142
20
-0.5750740551181103
11
0.2304956692913386
21
-0.5872933858267716
0
LINE
8
BLACK
6
CONTINUOUS
10
0.2304956692913386
20
-0.5872933858267716
11
0.200935
21
-0.5980525984251969
0
LINE
8
BLACK
6
CONTINUOUS
10
0.200935
20
-0.5980525984251969
11
0.1708747637795276
21
-0.6073249606299213
0
LINE
8
BLACK
6
CONTINUOUS
10
0.1708747637795276
20
-0.6073249606299213
11
0.1403896850393701
21
-0.6150874015748031
0
LINE
8
BLACK
6
CONTINUOUS
10
0.1403896850393701
20
-0.6150874015748031
11
0.1095555905511811
21
-0.6213206299212598
0
LINE
8
BLACK
6
CONTINUOUS
10
0.1095555905511811
20
-0.6213206299212598
11
0.0784491338582677
21
-0.6260091732283465
0
LINE
8
BLACK
6
CONTINUOUS
10
0.0784491338582677
20
-0.6260091732283465
11
0.0471476377952756
21
-0.6291413779527559
0
LINE
8
BLACK
6
CONTINUOUS
10
0.0471476377952756
20
-0.6291413779527559
11
0.0157288976377953
21
-0.6307094094488189
0
LINE
8
BLACK
6
CONTINUOUS
10
0.0157288976377953
20
-0.6307094094488189
11
-0.0157288976377953
21
-0.6307094094488189
0
LINE
8
BLACK
6
CONTINUOUS
10
-0.0157288976377953
20
-0.6307094094488189
11
-0.0471476377952756
21
-0.6291413779527559
0
LINE
8
BLACK
6
CONTINUOUS
10
-0.0471476377952756
20
-0.6291413779527559
11
-0.0784491338582677
21
-0.6260091732283465
0
LINE
8
BLACK
6
CONTINUOUS
10
-0.0784491338582677
20
-0.6260091732283465
11
-0.1095555905511811
21
-0.6213206299212598
0
LINE
8
BLACK
6
CONTINUOUS
10
-0.1095555905511811
20
-0.6213206299212598
11
-0.1403896850393701
21
-0.6150874015748031
0
LINE
8
BLACK
6
CONTINUOUS
10
-0.1403896850393701
20
-0.6150874015748031
11
-0.1708747637795276
21
-0.6073249606299213
0
LINE
8
BLACK
6
CONTINUOUS
10
-0.1708747637795276
20
-0.6073249606299213
11
-0.200935
21
-0.5980525984251969
0
LINE
8
BLACK
6
CONTINUOUS
10
-0.200935
20
-0.5980525984251969
11
-0.2304956692913386
21
-0.5872933858267716
0
LINE
8
BLACK
6
CONTINUOUS
10
-0.2304956692913386
20
-0.5872933858267716
11
-0.2594833070866142
21
-0.5750740551181103
0
LINE
8
BLACK
6
CONTINUOUS
10
-0.2594833070866142
20
-0.5750740551181103
11
-0.2878258267716535
21
-0.5614250393700787
0
LINE
8
BLACK
6
CONTINUOUS
10
-0.2878258267716535
20
-0.5614250393700787
11
-0.3154527559055118
21
-0.5463801968503937
0
LINE
8
BLACK
6
CONTINUOUS
10
-0.3154527559055118
20
-0.5463801968503937
11
-0.3422954330708661
21
-0.5299769685039369
0
LINE
8
BLACK
6
CONTINUOUS
10
-0.3422954330708661
20
-0.5299769685039369
11
-0.3682870866141732
21
-0.5122561811023622
0
LINE
8
BLACK
6
CONTINUOUS
10
-0.3682870866141732
20
-0.5122561811023622
11
-0.3933631496062992
21
-0.493261811023622
0
LINE
8
BLACK
6
CONTINUOUS
10
-0.3933631496062992
20
-0.493261811023622
11
-0.4174612598425197
21
-0.4730411023622047
0
LINE
8
BLACK
6
CONTINUOUS
10
-0.4174612598425197
20
-0.4730411023622047
11
-0.4405214566929134
21
-0.4516443307086614
0
LINE
8
BLACK
6
CONTINUOUS
10
-0.4405214566929134
20
-0.4516443307086614
11
-0.4624864566929134
21
-0.4291247244094488
0
LINE
8
BLACK
6
CONTINUOUS
10
-0.4624864566929134
20
-0.4291247244094488
11
-0.4833016535433071
21
-0.4055382283464567
0
LINE
8
BLACK
6
CONTINUOUS
10
-0.4833016535433071
20
-0.4055382283464567
11
-0.5029152755905512
21
-0.3809435433070866
0
LINE
8
BLACK
6
CONTINUOUS
10
-0.5029152755905512
20
-0.3809435433070866
11
-0.5212785826771653
21
-0.3554017322834646
0
LINE
8
BLACK
6
CONTINUOUS
10
-0.5212785826771653
20
-0.3554017322834646
11
-0.5383459055118111
21
-0.3289763385826772
0
LINE
8
BLACK
6
CONTINUOUS
10
-0.5383459055118111
20
-0.3289763385826772
11
-0.554074842519685
21
-0.3017330708661417
0
LINE
8
BLACK
6
CONTINUOUS
10
-0.554074842519685
20
-0.3017330708661417
11
-0.568426220472441
21
-0.2737396456692913
0
LINE
8
BLACK
6
CONTINUOUS
10
-0.568426220472441
20
-0.2737396456692913
11
-0.5813644094488188
21
-0.2450656692913386
0
LINE
8
BLACK
6
CONTINUOUS
10
-0.5813644094488188
20
-0.2450656692913386
11
-0.5928572440944881
21
-0.2157824015748031
0
LINE
8
BLACK
6
CONTINUOUS
10
-0.5928572440944881
20
-0.2157824015748031
11
-0.6028761417322834
21
-0.1859626771653543
0
LINE
8
BLACK
6
CONTINUOUS
10
-0.6028761417322834
20
-0.1859626771653543
11
-0.6113962204724409
21
-0.1556805905511811
0
LINE
8
BLACK
6
CONTINUOUS
10
-0.6113962204724409
20
-0.1556805905511811
11
-0.6183962204724409
21
-0.1250114960629921
0
LINE
8
BLACK
6
CONTINUOUS
10
-0.6183962204724409
20
-0.1250114960629921
11
-0.6238588188976378
21
-0.0940315748031496
0
LINE
8
BLACK
6
CONTINUOUS
10
-0.6238588188976378
20
-0.0940315748031496
11
-0.6277703937007874
21
-0.0628179133858268
0
LINE
8
BLACK
6
CONTINUOUS
10
-0.6277703937007874
20
-0.0628179133858268
11
-0.6301212598425197
21
-0.031448031496063
0
LINE
8
BLACK
6
CONTINUOUS
10
-0.6301212598425197
20
-0.031448031496063
11
-0.6309055118110236
21
0.
0
LINE
8
BLACK
6
CONTINUOUS
10
-0.6309055118110236
20
0.
11
-0.6301212598425197
21
0.031448031496063
0
LINE
8
BLACK
6
CONTINUOUS
10
-0.6301212598425197
20
0.031448031496063
11
-0.6277703937007874
21
0.0628179133858268
0
LINE
8
BLACK
6
CONTINUOUS
10
-0.6277703937007874
20
0.0628179133858268
11
-0.6238588188976378
21
0.0940315748031496
0
LINE
8
BLACK
6
CONTINUOUS
10
-0.6238588188976378
20
0.0940315748031496
11
-0.6183962204724409
21
0.1250114960629921
0
LINE
8
BLACK
6
CONTINUOUS
10
-0.6183962204724409
20
0.1250114960629921
11
-0.6113962204724409
21
0.1556805905511811
0
LINE
8
BLACK
6
CONTINUOUS
10
-0.6113962204724409
20
0.1556805905511811
11
-0.6028761417322834
21
0.1859626771653543
0
LINE
8
BLACK
6
CONTINUOUS
10
-0.6028761417322834
20
0.1859626771653543
11
-0.5928572440944881
21
0.2157824015748031
0
LINE
8
BLACK
6
CONTINUOUS
10
-0.5928572440944881
20
0.2157824015748031
11
-0.5813644094488188
21
0.2450656692913386
0
LINE
8
BLACK
6
CONTINUOUS
10
-0.5813644094488188
20
0.2450656692913386
11
-0.568426220472441
21
0.2737396456692913
0
LINE
8
BLACK
6
CONTINUOUS
10
-0.568426220472441
20
0.2737396456692913
11
-0.554074842519685
21
0.3017330708661417
0
LINE
8
BLACK
6
CONTINUOUS
10
-0.554074842519685
20
0.3017330708661417
11
-0.5383459055118111
21
0.3289763385826772
0
LINE
8
BLACK
6
CONTINUOUS
10
-0.5383459055118111
20
0.3289763385826772
11
-0.5212785826771653
21
0.3554017322834646
0
LINE
8
BLACK
6
CONTINUOUS
10
-0.5212785826771653
20
0.3554017322834646
11
-0.5029152755905512
21
0.3809435433070866
0
LINE
8
BLACK
6
CONTINUOUS
10
-0.5029152755905512
20
0.3809435433070866
11
-0.4833016535433071
21
0.4055382283464567
0
LINE
8
BLACK
6
CONTINUOUS
10
-0.4833016535433071
20
0.4055382283464567
11
-0.4624864566929134
21
0.4291247244094488
0
LINE
8
BLACK
6
CONTINUOUS
10
-0.4624864566929134
20
0.4291247244094488
11
-0.4405214566929134
21
0.4516443307086614
0
LINE
8
BLACK
6
CONTINUOUS
10
-0.4405214566929134
20
0.4516443307086614
11
-0.4174612598425197
21
0.4730411023622047
0
LINE
8
BLACK
6
CONTINUOUS
10
-0.4174612598425197
20
0.4730411023622047
11
-0.3933631496062992
21
0.493261811023622
0
LINE
8
BLACK
6
CONTINUOUS
10
-0.3933631496062992
20
0.493261811023622
11
-0.3682870866141732
21
0.5122561811023622
0
LINE
8
BLACK
6
CONTINUOUS
10
-0.3682870866141732
20
0.5122561811023622
11
-0.3422954330708661
21
0.5299769685039369
0
LINE
8
BLACK
6
CONTINUOUS
10
-0.3422954330708661
20
0.5299769685039369
11
-0.3154527559055118
21
0.5463801968503937
0
LINE
8
BLACK
6
CONTINUOUS
10
-0.3154527559055118
20
0.5463801968503937
11
-0.2878258267716535
21
0.5614250393700787
0
LINE
8
BLACK
6
CONTINUOUS
10
-0.2878258267716535
20
0.5614250393700787
11
-0.2594833070866142
21
0.5750740551181103
0
LINE
8
BLACK
6
CONTINUOUS
10
-0.2594833070866142
20
0.5750740551181103
11
-0.2304956692913386
21
0.5872933858267716
0
LINE
8
BLACK
6
CONTINUOUS
10
-0.2304956692913386
20
0.5872933858267716
11
-0.200935
21
0.5980525984251969
0
LINE
8
BLACK
6
CONTINUOUS
10
-0.200935
20
0.5980525984251969
11
-0.1708747637795276
21
0.6073249606299213
0
LINE
8
BLACK
6
CONTINUOUS
10
-0.1708747637795276
20
0.6073249606299213
11
-0.1403896850393701
21
0.6150874015748031
0
LINE
8
BLACK
6
CONTINUOUS
10
-0.1403896850393701
20
0.6150874015748031
11
-0.1095555905511811
21
0.6213206299212598
0
LINE
8
BLACK
6
CONTINUOUS
10
-0.1095555905511811
20
0.6213206299212598
11
-0.0784491338582677
21
0.6260091732283465
0
LINE
8
BLACK
6
CONTINUOUS
10
-0.0784491338582677
20
0.6260091732283465
11
-0.0471476377952756
21
0.6291413779527559
0
LINE
8
BLACK
6
CONTINUOUS
10
-0.0471476377952756
20
0.6291413779527559
11
-0.0157288976377953
21
0.6307094094488189
0
LINE
8
BLACK
6
CONTINUOUS
10
-0.0157288976377953
20
0.6307094094488189
11
0.0157288976377953
21
0.6307094094488189
0
LINE
8
BLACK
6
CONTINUOUS
10
0.0157288976377953
20
0.6307094094488189
11
0.0471476377952756
21
0.6291413779527559
0
LINE
8
BLACK
6
CONTINUOUS
10
-0.6283505118110236
20
-0.0313596850393701
11
-0.6260062598425197
21
-0.0626413779527559
0
LINE
8
BLACK
6
CONTINUOUS
10
-0.6260062598425197
20
-0.0626413779527559
11
-0.6221056692913386
21
-0.0937673228346457
0
LINE
8
BLACK
6
CONTINUOUS
10
-0.6221056692913386
20
-0.0937673228346457
11
-0.6166584251968504
21
-0.1246601968503937
0
LINE
8
BLACK
6
CONTINUOUS
10
-0.6166584251968504
20
-0.1246601968503937
11
-0.6096780708661417
21
-0.1552431102362205
0
LINE
8
BLACK
6
CONTINUOUS
10
-0.6096780708661417
20
-0.1552431102362205
11
-0.601181968503937
21
-0.1854400787401575
0
LINE
8
BLACK
6
CONTINUOUS
10
-0.601181968503937
20
-0.1854400787401575
11
-0.5911912204724409
21
-0.2151760236220472
0
LINE
8
BLACK
6
CONTINUOUS
10
-0.5911912204724409
20
-0.2151760236220472
11
-0.5797306692913385
21
-0.244376968503937
0
LINE
8
BLACK
6
CONTINUOUS
10
-0.5797306692913385
20
-0.244376968503937
11
-0.5668288582677166
21
-0.2729703937007874
0
LINE
8
BLACK
6
CONTINUOUS
10
-0.5668288582677166
20
-0.2729703937007874
11
-0.5525177952755905
21
-0.300885157480315
0
LINE
8
BLACK
6
CONTINUOUS
10
-0.5525177952755905
20
-0.300885157480315
11
-0.5368330708661417
21
-0.3280518503937008
0
LINE
8
BLACK
6
CONTINUOUS
10
-0.5368330708661417
20
-0.3280518503937008
11
-0.5198137007874015
21
-0.3544029921259843
0
LINE
8
BLACK
6
CONTINUOUS
10
-0.5198137007874015
20
-0.3544029921259843
11
-0.5015020078740158
21
-0.379873031496063
0
LINE
8
BLACK
6
CONTINUOUS
10
-0.5015020078740158
20
-0.379873031496063
11
-0.4819435039370079
21
-0.4043986220472441
0
LINE
8
BLACK
6
CONTINUOUS
10
-0.4819435039370079
20
-0.4043986220472441
11
-0.461186811023622
21
-0.4279188188976378
0
LINE
8
BLACK
6
CONTINUOUS
10
-0.461186811023622
20
-0.4279188188976378
11
-0.4392835039370079
21
-0.4503751574803149
0
LINE
8
BLACK
6
CONTINUOUS
10
-0.4392835039370079
20
-0.4503751574803149
11
-0.4162881102362205
21
-0.4717117716535433
0
LINE
8
BLACK
6
CONTINUOUS
10
-0.4162881102362205
20
-0.4717117716535433
11
-0.3922577165354331
21
-0.4918756299212598
0
LINE
8
BLACK
6
CONTINUOUS
10
-0.3922577165354331
20
-0.4918756299212598
11
-0.3672521653543307
21
-0.5108166535433071
0
LINE
8
BLACK
6
CONTINUOUS
10
-0.3672521653543307
20
-0.5108166535433071
11
-0.3413335039370078
21
-0.5284876771653543
0
LINE
8
BLACK
6
CONTINUOUS
10
-0.3413335039370078
20
-0.5284876771653543
11
-0.3145662598425197
21
-0.5448447637795275
0
LINE
8
BLACK
6
CONTINUOUS
10
-0.3145662598425197
20
-0.5448447637795275
11
-0.287016968503937
21
-0.5598473228346457
0
LINE
8
BLACK
6
CONTINUOUS
10
-0.287016968503937
20
-0.5598473228346457
11
-0.258754094488189
21
-0.5734579921259843
0
LINE
8
BLACK
6
CONTINUOUS
10
-0.258754094488189
20
-0.5734579921259843
11
-0.2298479527559055
21
-0.5856429921259843
0
LINE
8
BLACK
6
CONTINUOUS
10
-0.2298479527559055
20
-0.5856429921259843
11
-0.2003703149606299
21
-0.596371968503937
0
LINE
8
BLACK
6
CONTINUOUS
10
-0.2003703149606299
20
-0.596371968503937
11
-0.1703945669291339
21
-0.6056182677165354
0
LINE
8
BLACK
6
CONTINUOUS
10
-0.1703945669291339
20
-0.6056182677165354
11
-0.139995157480315
21
-0.6133588976377953
0
LINE
8
BLACK
6
CONTINUOUS
10
-0.139995157480315
20
-0.6133588976377953
11
-0.1092477165354331
21
-0.6195746062992126
0
LINE
8
BLACK
6
CONTINUOUS
10
-0.1092477165354331
20
-0.6195746062992126
11
-0.0782286614173228
21
-0.62425
0
LINE
8
BLACK
6
CONTINUOUS
10
-0.0782286614173228
20
-0.62425
11
-0.0470151181102362
21
-0.6273733858267716
0
LINE
8
BLACK
6
CONTINUOUS
10
-0.0470151181102362
20
-0.6273733858267716
11
-0.0156847244094488
21
-0.6289370078740157
0
LINE
8
BLACK
6
CONTINUOUS
10
-0.0156847244094488
20
-0.6289370078740157
11
0.0156847244094488
21
-0.6289370078740157
0
LINE
8
BLACK
6
CONTINUOUS
10
0.0156847244094488
20
-0.6289370078740157
11
0.0470151181102362
21
-0.6273733858267716
0
LINE
8
BLACK
6
CONTINUOUS
10
0.0470151181102362
20
-0.6273733858267716
11
0.0782286614173228
21
-0.62425
0
LINE
8
BLACK
6
CONTINUOUS
10
0.0782286614173228
20
-0.62425
11
0.1092477165354331
21
-0.6195746062992126
0
LINE
8
BLACK
6
CONTINUOUS
10
0.1092477165354331
20
-0.6195746062992126
11
0.139995157480315
21
-0.6133588976377953
0
LINE
8
BLACK
6
CONTINUOUS
10
0.139995157480315
20
-0.6133588976377953
11
0.1703945669291339
21
-0.6056182677165354
0
LINE
8
BLACK
6
CONTINUOUS
10
0.1703945669291339
20
-0.6056182677165354
11
0.2003703149606299
21
-0.596371968503937
0
LINE
8
BLACK
6
CONTINUOUS
10
0.2003703149606299
20
-0.596371968503937
11
0.2298479527559055
21
-0.5856429921259843
0
LINE
8
BLACK
6
CONTINUOUS
10
0.2298479527559055
20
-0.5856429921259843
11
0.258754094488189
21
-0.5734579921259843
0
LINE
8
BLACK
6
CONTINUOUS
10
0.258754094488189
20
-0.5734579921259843
11
0.287016968503937
21
-0.5598473228346457
0
LINE
8
BLACK
6
CONTINUOUS
10
0.287016968503937
20
-0.5598473228346457
11
0.3145662598425197
21
-0.5448447637795275
0
LINE
8
BLACK
6
CONTINUOUS
10
0.3145662598425197
20
-0.5448447637795275
11
0.3413335039370078
21
-0.5284876771653543
0
LINE
8
BLACK
6
CONTINUOUS
10
0.3413335039370078
20
-0.5284876771653543
11
0.3672521653543307
21
-0.5108166535433071
0
LINE
8
BLACK
6
CONTINUOUS
10
0.3672521653543307
20
-0.5108166535433071
11
0.3922577165354331
21
-0.4918756299212598
0
LINE
8
BLACK
6
CONTINUOUS
10
0.3922577165354331
20
-0.4918756299212598
11
0.4162881102362205
21
-0.4717117716535433
0
LINE
8
BLACK
6
CONTINUOUS
10
0.4162881102362205
20
-0.4717117716535433
11
0.4392835039370079
21
-0.4503751574803149
0
LINE
8
BLACK
6
CONTINUOUS
10
0.4392835039370079
20
-0.4503751574803149
11
0.461186811023622
21
-0.4279188188976378
0
LINE
8
BLACK
6
CONTINUOUS
10
0.461186811023622
20
-0.4279188188976378
11
0.4819435039370079
21
-0.4043986220472441
0
LINE
8
BLACK
6
CONTINUOUS
10
0.4819435039370079
20
-0.4043986220472441
11
0.5015020078740158
21
-0.379873031496063
0
LINE
8
BLACK
6
CONTINUOUS
10
0.5015020078740158
20
-0.379873031496063
11
0.5198137007874015
21
-0.3544029921259843
0
LINE
8
BLACK
6
CONTINUOUS
10
0.5198137007874015
20
-0.3544029921259843
11
0.5368330708661417
21
-0.3280518503937008
0
LINE
8
BLACK
6
CONTINUOUS
10
0.5368330708661417
20
-0.3280518503937008
11
0.5525177952755905
21
-0.300885157480315
0
LINE
8
BLACK
6
CONTINUOUS
10
0.5525177952755905
20
-0.300885157480315
11
0.5668288582677166
21
-0.2729703937007874
0
LINE
8
BLACK
6
CONTINUOUS
10
0.5668288582677166
20
-0.2729703937007874
11
0.5797306692913385
21
-0.244376968503937
0
LINE
8
BLACK
6
CONTINUOUS
10
0.5797306692913385
20
-0.244376968503937
11
0.5911912204724409
21
-0.2151760236220472
0
LINE
8
BLACK
6
CONTINUOUS
10
0.5911912204724409
20
-0.2151760236220472
11
0.601181968503937
21
-0.1854400787401575
0
LINE
8
BLACK
6
CONTINUOUS
10
0.601181968503937
20
-0.1854400787401575
11
0.6096780708661417
21
-0.1552431102362205
0
LINE
8
BLACK
6
CONTINUOUS
10
0.6096780708661417
20
-0.1552431102362205
11
0.6166584251968504
21
-0.1246601968503937
0
LINE
8
BLACK
6
CONTINUOUS
10
0.6166584251968504
20
-0.1246601968503937
11
0.6221056692913386
21
-0.0937673228346457
0
LINE
8
BLACK
6
CONTINUOUS
10
0.6221056692913386
20
-0.0937673228346457
11
0.6260062598425197
21
-0.0626413779527559
0
LINE
8
BLACK
6
CONTINUOUS
10
0.6260062598425197
20
-0.0626413779527559
11
0.6283505118110236
21
-0.0313596850393701
0
LINE
8
BLACK
6
CONTINUOUS
10
0.6283505118110236
20
-0.0313596850393701
11
0.6291325590551181
21
0.
0
LINE
8
BLACK
6
CONTINUOUS
10
0.6291325590551181
20
0.
11
0.6283505118110236
21
0.0313596850393701
0
LINE
8
BLACK
6
CONTINUOUS
10
0.6283505118110236
20
0.0313596850393701
11
0.6260062598425197
21
0.0626413779527559
0
LINE
8
BLACK
6
CONTINUOUS
10
0.6260062598425197
20
0.0626413779527559
11
0.6221056692913386
21
0.0937673228346457
0
LINE
8
BLACK
6
CONTINUOUS
10
0.6221056692913386
20
0.0937673228346457
11
0.6166584251968504
21
0.1246601968503937
0
LINE
8
BLACK
6
CONTINUOUS
10
0.6166584251968504
20
0.1246601968503937
11
0.6096780708661417
21
0.1552431102362205
0
LINE
8
BLACK
6
CONTINUOUS
10
0.6096780708661417
20
0.1552431102362205
11
0.601181968503937
21
0.1854400787401575
0
LINE
8
BLACK
6
CONTINUOUS
10
0.601181968503937
20
0.1854400787401575
11
0.5911912204724409
21
0.2151760236220472
0
LINE
8
BLACK
6
CONTINUOUS
10
0.5911912204724409
20
0.2151760236220472
11
0.5797306692913385
21
0.244376968503937
0
LINE
8
BLACK
6
CONTINUOUS
10
0.5797306692913385
20
0.244376968503937
11
0.5668288582677166
21
0.2729703937007874
0
LINE
8
BLACK
6
CONTINUOUS
10
0.5668288582677166
20
0.2729703937007874
11
0.5525177952755905
21
0.300885157480315
0
LINE
8
BLACK
6
CONTINUOUS
10
0.5525177952755905
20
0.300885157480315
11
0.5368330708661417
21
0.3280518503937008
0
LINE
8
BLACK
6
CONTINUOUS
10
0.5368330708661417
20
0.3280518503937008
11
0.5198137007874015
21
0.3544029921259843
0
LINE
8
BLACK
6
CONTINUOUS
10
0.5198137007874015
20
0.3544029921259843
11
0.5015020078740158
21
0.379873031496063
0
LINE
8
BLACK
6
CONTINUOUS
10
0.5015020078740158
20
0.379873031496063
11
0.4819435039370079
21
0.4043986220472441
0
LINE
8
BLACK
6
CONTINUOUS
10
0.4819435039370079
20
0.4043986220472441
11
0.461186811023622
21
0.4279188188976378
0
LINE
8
BLACK
6
CONTINUOUS
10
0.461186811023622
20
0.4279188188976378
11
0.4392835039370079
21
0.4503751574803149
0
LINE
8
BLACK
6
CONTINUOUS
10
0.4392835039370079
20
0.4503751574803149
11
0.4162881102362205
21
0.4717117716535433
0
LINE
8
BLACK
6
CONTINUOUS
10
0.4162881102362205
20
0.4717117716535433
11
0.3922577165354331
21
0.4918756299212598
0
LINE
8
BLACK
6
CONTINUOUS
10
0.3922577165354331
20
0.4918756299212598
11
0.3672521653543307
21
0.5108166535433071
0
LINE
8
BLACK
6
CONTINUOUS
10
0.3672521653543307
20
0.5108166535433071
11
0.3413335039370078
21
0.5284876771653543
0
LINE
8
BLACK
6
CONTINUOUS
10
0.3413335039370078
20
0.5284876771653543
11
0.3145662992125984
21
0.5448447637795275
0
LINE
8
BLACK
6
CONTINUOUS
10
0.3145662992125984
20
0.5448447637795275
11
0.287016968503937
21
0.5598473228346457
0
LINE
8
BLACK
6
CONTINUOUS
10
0.287016968503937
20
0.5598473228346457
11
0.258754094488189
21
0.5734579921259843
0
LINE
8
BLACK
6
CONTINUOUS
10
0.258754094488189
20
0.5734579921259843
11
0.2298479527559055
21
0.5856429921259843
0
LINE
8
BLACK
6
CONTINUOUS
10
0.2298479527559055
20
0.5856429921259843
11
0.2003703149606299
21
0.596371968503937
0
LINE
8
BLACK
6
CONTINUOUS
10
0.2003703149606299
20
0.596371968503937
11
0.1703945669291339
21
0.6056182677165354
0
LINE
8
BLACK
6
CONTINUOUS
10
0.1703945669291339
20
0.6056182677165354
11
0.139995157480315
21
0.6133588976377953
0
LINE
8
BLACK
6
CONTINUOUS
10
0.139995157480315
20
0.6133588976377953
11
0.1092477165354331
21
0.6195746062992126
0
LINE
8
BLACK
6
CONTINUOUS
10
0.1092477165354331
20
0.6195746062992126
11
0.0782286614173228
21
0.62425
0
LINE
8
BLACK
6
CONTINUOUS
10
0.0782286614173228
20
0.62425
11
0.0470151181102362
21
0.6273733858267716
0
LINE
8
BLACK
6
CONTINUOUS
10
0.0470151181102362
20
0.6273733858267716
11
0.0156847244094488
21
0.6289370078740157
0
LINE
8
BLACK
6
CONTINUOUS
10
0.0156847244094488
20
0.6289370078740157
11
-0.0156847244094488
21
0.6289370078740157
0
LINE
8
BLACK
6
CONTINUOUS
10
-0.0156847244094488
20
0.6289370078740157
11
-0.0470151181102362
21
0.6273733858267716
0
LINE
8
BLACK
6
CONTINUOUS
10
-0.0470151181102362
20
0.6273733858267716
11
-0.0782286614173228
21
0.62425
0
LINE
8
BLACK
6
CONTINUOUS
10
-0.0782286614173228
20
0.62425
11
-0.1092477165354331
21
0.6195746062992126
0
LINE
8
BLACK
6
CONTINUOUS
10
-0.1092477165354331
20
0.6195746062992126
11
-0.139995157480315
21
0.6133588976377953
0
LINE
8
BLACK
6
CONTINUOUS
10
-0.139995157480315
20
0.6133588976377953
11
-0.1703945669291339
21
0.6056182677165354
0
LINE
8
BLACK
6
CONTINUOUS
10
-0.1703945669291339
20
0.6056182677165354
11
-0.2003703149606299
21
0.596371968503937
0
LINE
8
BLACK
6
CONTINUOUS
10
-0.2003703149606299
20
0.596371968503937
11
-0.2298479527559055
21
0.5856429921259843
0
LINE
8
BLACK
6
CONTINUOUS
10
-0.2298479527559055
20
0.5856429921259843
11
-0.258754094488189
21
0.5734579921259843
0
LINE
8
BLACK
6
CONTINUOUS
10
-0.258754094488189
20
0.5734579921259843
11
-0.287016968503937
21
0.5598473228346457
0
LINE
8
BLACK
6
CONTINUOUS
10
-0.287016968503937
20
0.5598473228346457
11
-0.3145662992125984
21
0.5448447637795275
0
LINE
8
BLACK
6
CONTINUOUS
10
-0.3145662992125984
20
0.5448447637795275
11
-0.3413335039370078
21
0.5284876771653543
0
LINE
8
BLACK
6
CONTINUOUS
10
-0.3413335039370078
20
0.5284876771653543
11
-0.3672521653543307
21
0.5108166535433071
0
LINE
8
BLACK
6
CONTINUOUS
10
-0.3672521653543307
20
0.5108166535433071
11
-0.3922577165354331
21
0.4918756299212598
0
LINE
8
BLACK
6
CONTINUOUS
10
-0.3922577165354331
20
0.4918756299212598
11
-0.4162881102362205
21
0.4717117716535433
0
LINE
8
BLACK
6
CONTINUOUS
10
-0.4162881102362205
20
0.4717117716535433
11
-0.4392835039370079
21
0.4503751574803149
0
LINE
8
BLACK
6
CONTINUOUS
10
-0.4392835039370079
20
0.4503751574803149
11
-0.461186811023622
21
0.4279188188976378
0
LINE
8
BLACK
6
CONTINUOUS
10
-0.461186811023622
20
0.4279188188976378
11
-0.4819435039370079
21
0.4043986220472441
0
LINE
8
BLACK
6
CONTINUOUS
10
-0.4819435039370079
20
0.4043986220472441
11
-0.5015020078740158
21
0.379873031496063
0
LINE
8
BLACK
6
CONTINUOUS
10
-0.5015020078740158
20
0.379873031496063
11
-0.5198137007874015
21
0.3544029921259843
0
LINE
8
BLACK
6
CONTINUOUS
10
-0.5198137007874015
20
0.3544029921259843
11
-0.5368330708661417
21
0.3280518503937008
0
LINE
8
BLACK
6
CONTINUOUS
10
-0.5368330708661417
20
0.3280518503937008
11
-0.5525177952755905
21
0.300885157480315
0
LINE
8
BLACK
6
CONTINUOUS
10
-0.5525177952755905
20
0.300885157480315
11
-0.5668288582677166
21
0.2729703937007874
0
LINE
8
BLACK
6
CONTINUOUS
10
-0.5668288582677166
20
0.2729703937007874
11
-0.5797306692913385
21
0.244376968503937
0
LINE
8
BLACK
6
CONTINUOUS
10
-0.5797306692913385
20
0.244376968503937
11
-0.5911912204724409
21
0.2151760236220472
0
LINE
8
BLACK
6
CONTINUOUS
10
-0.5911912204724409
20
0.2151760236220472
11
-0.601181968503937
21
0.1854400787401575
0
LINE
8
BLACK
6
CONTINUOUS
10
-0.601181968503937
20
0.1854400787401575
11
-0.6096780708661417
21
0.1552431102362205
0
LINE
8
BLACK
6
CONTINUOUS
10
-0.6096780708661417
20
0.1552431102362205
11
-0.6166584251968504
21
0.1246601968503937
0
LINE
8
BLACK
6
CONTINUOUS
10
-0.6166584251968504
20
0.1246601968503937
11
-0.6221056692913386
21
0.0937673228346457
0
LINE
8
BLACK
6
CONTINUOUS
10
-0.6221056692913386
20
0.0937673228346457
11
-0.6260062598425197
21
0.0626413779527559
0
LINE
8
BLACK
6
CONTINUOUS
10
-0.6260062598425197
20
0.0626413779527559
11
-0.6283505118110236
21
0.0313596850393701
0
LINE
8
BLACK
6
CONTINUOUS
10
-0.6283505118110236
20
0.0313596850393701
11
-0.6291325590551181
21
0.
0
LINE
8
BLACK
6
CONTINUOUS
10
-0.6291325590551181
20
0.
11
-0.6283505118110236
21
-0.0313596850393701
0
CIRCLE
8
BLACK
10
-0.4724409448818898
20
0.
40
0.0068897637795276
0
CIRCLE
8
BLACK
10
0.
20
-0.4724409448818898
40
0.0068897637795276
0
CIRCLE
8
BLACK
10
0.4251968503937008
20
0.0039370078740157
40
0.0068897637795276
0
CIRCLE
8
BLACK
10
0.3251968503937008
20
0.1039370078740157
40
0.0068897637795276
0
CIRCLE
8
BLACK
10
0.3251968503937008
20
-0.0960629921259843
40
0.0068897637795276
0
CIRCLE
8
BLACK
10
0.5251968503937008
20
0.1039370078740157
40
0.0068897637795276
0
CIRCLE
8
BLACK
10
0.5251968503937008
20
-0.0960629921259843
40
0.0068897637795276
0
CIRCLE
8
BLACK
10
-0.1771653543307087
20
0.2204724409448819
40
0.0068897637795276
0
CIRCLE
8
BLACK
10
0.
20
0.4724409448818898
40
0.0068897637795276
0
CIRCLE
8
BLACK
10
0.1771653543307087
20
-0.2125984251968504
40
0.0068897637795276
0
CIRCLE
8
BLACK
10
-0.1771653543307087
20
-0.2125984251968504
40
0.0068897637795276
0
CIRCLE
8
BLACK
10
0.1771653543307087
20
0.2204724409448819
40
0.0068897637795276
  0
ENDSEC
  0
EOF
