  0
SECTION
  2
HEADER
  9
$ANGBASE
  50
0.0
  9
$ANGDIR
  70
1
  9
$MEASUREMENT
  70
0
  0
ENDSEC
  0
SECTION
  2
TABLES
  0
TABLE
  2
LTYPE
  70
4
  0
LTYPE
  5
40F
  2
CONTINUOUS
  70
0
  3
Solid line
  72
65
  73
0
  40
0.0
  0
LTYPE
  5
410
  2
DASHDOT
 70
0
  3
Dash Dot ____ _ ____ _
 72
65
 73
4
 40
2.0
 49
1.25
 49
-0.25
 49
0.25
 49
-0.25
  0
LTYPE
  5
411
  2
DASHED
 70
0
  3
Dashed __ __ __ __ __
 72
65
 73
2
 40
0.75
 49
0.5
 49
-0.25
  0
LTYPE
  5
43B
  2
DOTTED
 70
0
  3
Dotted .  .  .  .
 72
65
 73
2
 40
0.2
 49
0.0
 49
-0.2
  0
ENDTAB
  0
TABLE
  2
STYLE
  70
4
  0
STYLE
  2
KICAD
  70
0
  40
0
  41
1
  42
1
  50
0
  71
0
  3
isocp.shx
  0
STYLE
  2
KICADB
  70
0
  40
0
  41
1
  42
1
  50
0
  71
0
  3
isocp.shx
  0
STYLE
  2
KICADI
  70
0
  40
0
  41
1
  42
1
  50
15
  71
0
  3
isocp.shx
  0
STYLE
  2
KICADBI
  70
0
  40
0
  41
1
  42
1
  50
15
  71
0
  3
isocp.shx
  0
ENDTAB
  0
TABLE
  2
LAYER
  70
1
  0
LAYER
  2
BLACK
  70
0
  62
7
  6
CONTINUOUS
  0
ENDTAB
  0
ENDSEC
  0
SECTION
  2
ENTITIES
0
LINE
8
BLACK
6
CONTINUOUS
10
-0.1797764173228346
20
-0.1882385826771653
11
-0.1796784251968504
21
-0.1882791732283464
0
LINE
8
BLACK
6
CONTINUOUS
10
-0.1796784251968504
20
-0.1882791732283464
11
-0.1795725984251968
21
-0.1882866929133858
0
LINE
8
BLACK
6
CONTINUOUS
10
-0.1795725984251968
20
-0.1882866929133858
11
-0.179031968503937
21
-0.1884935826771653
0
LINE
8
BLACK
6
CONTINUOUS
10
-0.179031968503937
20
-0.1884935826771653
11
-0.1752824409448819
21
-0.1903683464566929
0
LINE
8
BLACK
6
CONTINUOUS
10
-0.1752824409448819
20
-0.1903683464566929
11
-0.1750344488188976
21
-0.1905244094488189
0
LINE
8
BLACK
6
CONTINUOUS
10
-0.1750344488188976
20
-0.1905244094488189
11
-0.1749624803149606
21
-0.1905542519685039
0
LINE
8
BLACK
6
CONTINUOUS
10
-0.1749624803149606
20
-0.1905542519685039
11
-0.1748815354330709
21
-0.1906207086614173
0
LINE
8
BLACK
6
CONTINUOUS
10
-0.1748815354330709
20
-0.1906207086614173
11
-0.1747925590551181
21
-0.1906766929133858
0
LINE
8
BLACK
6
CONTINUOUS
10
-0.1747925590551181
20
-0.1906766929133858
11
-0.1747414173228346
21
-0.1907356692913386
0
LINE
8
BLACK
6
CONTINUOUS
10
-0.1747414173228346
20
-0.1907356692913386
11
-0.1745150393700787
21
-0.1909214566929134
0
LINE
8
BLACK
6
CONTINUOUS
10
-0.1745150393700787
20
-0.1909214566929134
11
-0.1726402755905512
21
-0.1927962204724409
0
LINE
8
BLACK
6
CONTINUOUS
10
-0.1726402755905512
20
-0.1927962204724409
11
-0.1722730708661417
21
-0.1932436614173228
0
LINE
8
BLACK
6
CONTINUOUS
10
-0.1722730708661417
20
-0.1932436614173228
11
-0.1718321653543307
21
-0.1943080708661417
0
LINE
8
BLACK
6
CONTINUOUS
10
-0.1718321653543307
20
-0.1943080708661417
11
-0.1718321653543307
21
-0.1954601574803149
0
LINE
8
BLACK
6
CONTINUOUS
10
-0.1718321653543307
20
-0.1954601574803149
11
-0.1722730708661417
21
-0.1965245669291339
0
LINE
8
BLACK
6
CONTINUOUS
10
-0.1722730708661417
20
-0.1965245669291339
11
-0.1730877559055118
21
-0.1973392519685039
0
LINE
8
BLACK
6
CONTINUOUS
10
-0.1730877559055118
20
-0.1973392519685039
11
-0.1741521653543307
21
-0.197780157480315
0
LINE
8
BLACK
6
CONTINUOUS
10
-0.1741521653543307
20
-0.197780157480315
11
-0.1753042519685039
21
-0.197780157480315
0
LINE
8
BLACK
6
CONTINUOUS
10
-0.1753042519685039
20
-0.197780157480315
11
-0.1763686614173228
21
-0.1973392519685039
0
LINE
8
BLACK
6
CONTINUOUS
10
-0.1763686614173228
20
-0.1973392519685039
11
-0.1768161023622047
21
-0.1969720472440945
0
LINE
8
BLACK
6
CONTINUOUS
10
-0.1768161023622047
20
-0.1969720472440945
11
-0.1783520472440945
21
-0.1954361023622047
0
LINE
8
BLACK
6
CONTINUOUS
10
-0.1783520472440945
20
-0.1954361023622047
11
-0.1810495275590551
21
-0.1940873622047244
0
LINE
8
BLACK
6
CONTINUOUS
10
-0.1810495275590551
20
-0.1940873622047244
11
-0.1890292519685039
21
-0.1940873622047244
0
LINE
8
BLACK
6
CONTINUOUS
10
-0.1890292519685039
20
-0.1940873622047244
11
-0.1917267322834646
21
-0.1954361023622047
0
LINE
8
BLACK
6
CONTINUOUS
10
-0.1917267322834646
20
-0.1954361023622047
11
-0.1929238582677165
21
-0.1966332283464567
0
LINE
8
BLACK
6
CONTINUOUS
10
-0.1929238582677165
20
-0.1966332283464567
11
-0.1942725984251968
21
-0.1993307086614173
0
LINE
8
BLACK
6
CONTINUOUS
10
-0.1942725984251968
20
-0.1993307086614173
11
-0.1942725984251968
21
-0.2019040157480315
0
LINE
8
BLACK
6
CONTINUOUS
10
-0.1942725984251968
20
-0.2019040157480315
11
-0.1927698031496063
21
-0.2064124409448819
0
LINE
8
BLACK
6
CONTINUOUS
10
-0.1927698031496063
20
-0.2064124409448819
11
-0.1707655118110236
21
-0.2284167716535433
0
LINE
8
BLACK
6
CONTINUOUS
10
-0.1707655118110236
20
-0.2284167716535433
11
-0.1703982677165354
21
-0.2288642125984252
0
LINE
8
BLACK
6
CONTINUOUS
10
-0.1703982677165354
20
-0.2288642125984252
11
-0.1699574015748032
21
-0.2299286614173228
0
LINE
8
BLACK
6
CONTINUOUS
10
-0.1699574015748032
20
-0.2299286614173228
11
-0.1699574015748032
21
-0.2310807480314961
0
LINE
8
BLACK
6
CONTINUOUS
10
-0.1699574015748032
20
-0.2310807480314961
11
-0.1703983070866142
21
-0.2321451574803149
0
LINE
8
BLACK
6
CONTINUOUS
10
-0.1703983070866142
20
-0.2321451574803149
11
-0.1712129527559055
21
-0.232959842519685
0
LINE
8
BLACK
6
CONTINUOUS
10
-0.1712129527559055
20
-0.232959842519685
11
-0.1719656299212598
21
-0.2332715748031496
0
LINE
8
BLACK
6
CONTINUOUS
10
-0.1719656299212598
20
-0.2332715748031496
11
-0.1722773622047244
21
-0.2334007086614173
0
LINE
8
BLACK
6
CONTINUOUS
10
-0.1722773622047244
20
-0.2334007086614173
11
-0.1728534251968504
21
-0.2334574409448819
0
LINE
8
BLACK
6
CONTINUOUS
10
-0.1728534251968504
20
-0.2334574409448819
11
-0.1972253543307086
21
-0.2334574409448819
0
LINE
8
BLACK
6
CONTINUOUS
10
-0.1972253543307086
20
-0.2334574409448819
11
-0.1978014173228346
21
-0.2334007086614173
0
LINE
8
BLACK
6
CONTINUOUS
10
-0.1978014173228346
20
-0.2334007086614173
11
-0.1988658267716535
21
-0.2329598031496063
0
LINE
8
BLACK
6
CONTINUOUS
10
-0.1988658267716535
20
-0.2329598031496063
11
-0.1996804724409449
21
-0.2321451574803149
0
LINE
8
BLACK
6
CONTINUOUS
10
-0.1996804724409449
20
-0.2321451574803149
11
-0.2001213779527559
21
-0.2310807480314961
0
LINE
8
BLACK
6
CONTINUOUS
10
-0.2001213779527559
20
-0.2310807480314961
11
-0.2001213779527559
21
-0.2299286220472441
0
LINE
8
BLACK
6
CONTINUOUS
10
-0.2001213779527559
20
-0.2299286220472441
11
-0.1996804724409449
21
-0.2288642125984252
0
LINE
8
BLACK
6
CONTINUOUS
10
-0.1996804724409449
20
-0.2288642125984252
11
-0.1988658267716535
21
-0.2280495669291339
0
LINE
8
BLACK
6
CONTINUOUS
10
-0.1988658267716535
20
-0.2280495669291339
11
-0.1978014173228346
21
-0.2276086614173228
0
LINE
8
BLACK
6
CONTINUOUS
10
-0.1978014173228346
20
-0.2276086614173228
11
-0.1972253543307086
21
-0.2275519291338583
0
LINE
8
BLACK
6
CONTINUOUS
10
-0.1972253543307086
20
-0.2275519291338583
11
-0.1799820078740157
21
-0.2275519291338583
0
LINE
8
BLACK
6
CONTINUOUS
10
-0.1799820078740157
20
-0.2275519291338583
11
-0.1974385039370079
21
-0.2100953937007874
0
LINE
8
BLACK
6
CONTINUOUS
10
-0.1974385039370079
20
-0.2100953937007874
11
-0.1978057086614173
21
-0.2096479527559055
0
LINE
8
BLACK
6
CONTINUOUS
10
-0.1978057086614173
20
-0.2096479527559055
11
-0.1978463385826772
21
-0.2095498818897638
0
LINE
8
BLACK
6
CONTINUOUS
10
-0.1978463385826772
20
-0.2095498818897638
11
-0.1979158267716535
21
-0.2094697637795276
0
LINE
8
BLACK
6
CONTINUOUS
10
-0.1979158267716535
20
-0.2094697637795276
11
-0.198151811023622
21
-0.2089412204724409
0
LINE
8
BLACK
6
CONTINUOUS
10
-0.198151811023622
20
-0.2089412204724409
11
-0.2000265748031496
21
-0.2033169291338583
0
LINE
8
BLACK
6
CONTINUOUS
10
-0.2000265748031496
20
-0.2033169291338583
11
-0.2000915354330709
21
-0.2030313385826772
0
LINE
8
BLACK
6
CONTINUOUS
10
-0.2000915354330709
20
-0.2030313385826772
11
-0.2001213779527559
21
-0.2029592519685039
0
LINE
8
BLACK
6
CONTINUOUS
10
-0.2001213779527559
20
-0.2029592519685039
11
-0.2001316929133858
21
-0.2028547244094488
0
LINE
8
BLACK
6
CONTINUOUS
10
-0.2001316929133858
20
-0.2028547244094488
11
-0.2001549212598425
21
-0.2027524803149606
0
LINE
8
BLACK
6
CONTINUOUS
10
-0.2001549212598425
20
-0.2027524803149606
11
-0.2001494094488189
21
-0.2026747244094488
0
LINE
8
BLACK
6
CONTINUOUS
10
-0.2001494094488189
20
-0.2026747244094488
11
-0.2001781102362205
21
-0.2023831889763779
0
LINE
8
BLACK
6
CONTINUOUS
10
-0.2001781102362205
20
-0.2023831889763779
11
-0.2001781102362205
21
-0.1986336614173228
0
LINE
8
BLACK
6
CONTINUOUS
10
-0.2001781102362205
20
-0.1986336614173228
11
-0.2001213779527559
21
-0.1980575984251969
0
LINE
8
BLACK
6
CONTINUOUS
10
-0.2001213779527559
20
-0.1980575984251969
11
-0.2000807874015748
21
-0.1979595669291339
0
LINE
8
BLACK
6
CONTINUOUS
10
-0.2000807874015748
20
-0.1979595669291339
11
-0.2000732677165354
21
-0.1978537795275591
0
LINE
8
BLACK
6
CONTINUOUS
10
-0.2000732677165354
20
-0.1978537795275591
11
-0.1998663779527559
21
-0.1973131496062992
0
LINE
8
BLACK
6
CONTINUOUS
10
-0.1998663779527559
20
-0.1973131496062992
11
-0.1979916141732283
21
-0.1935636220472441
0
LINE
8
BLACK
6
CONTINUOUS
10
-0.1979916141732283
20
-0.1935636220472441
11
-0.1978355511811024
21
-0.1933155905511811
0
LINE
8
BLACK
6
CONTINUOUS
10
-0.1978355511811024
20
-0.1933155905511811
11
-0.1978057086614173
21
-0.1932436614173228
0
LINE
8
BLACK
6
CONTINUOUS
10
-0.1978057086614173
20
-0.1932436614173228
11
-0.1977392519685039
21
-0.1931626771653543
0
LINE
8
BLACK
6
CONTINUOUS
10
-0.1977392519685039
20
-0.1931626771653543
11
-0.1976832677165354
21
-0.1930737401574803
0
LINE
8
BLACK
6
CONTINUOUS
10
-0.1976832677165354
20
-0.1930737401574803
11
-0.1976242913385827
21
-0.1930225590551181
0
LINE
8
BLACK
6
CONTINUOUS
10
-0.1976242913385827
20
-0.1930225590551181
11
-0.1974385039370079
21
-0.1927962204724409
0
LINE
8
BLACK
6
CONTINUOUS
10
-0.1974385039370079
20
-0.1927962204724409
11
-0.1955637401574803
21
-0.1909214566929134
0
LINE
8
BLACK
6
CONTINUOUS
10
-0.1955637401574803
20
-0.1909214566929134
11
-0.1953374015748031
21
-0.1907356692913386
0
LINE
8
BLACK
6
CONTINUOUS
10
-0.1953374015748031
20
-0.1907356692913386
11
-0.1952862204724409
21
-0.1906766929133858
0
LINE
8
BLACK
6
CONTINUOUS
10
-0.1952862204724409
20
-0.1906766929133858
11
-0.1951972834645669
21
-0.1906207086614173
0
LINE
8
BLACK
6
CONTINUOUS
10
-0.1951972834645669
20
-0.1906207086614173
11
-0.1951162992125984
21
-0.1905542519685039
0
LINE
8
BLACK
6
CONTINUOUS
10
-0.1951162992125984
20
-0.1905542519685039
11
-0.1950443700787401
21
-0.1905244094488189
0
LINE
8
BLACK
6
CONTINUOUS
10
-0.1950443700787401
20
-0.1905244094488189
11
-0.1947963385826772
21
-0.1903683464566929
0
LINE
8
BLACK
6
CONTINUOUS
10
-0.1947963385826772
20
-0.1903683464566929
11
-0.191046811023622
21
-0.1884935826771653
0
LINE
8
BLACK
6
CONTINUOUS
10
-0.191046811023622
20
-0.1884935826771653
11
-0.190506220472441
21
-0.1882866929133858
0
LINE
8
BLACK
6
CONTINUOUS
10
-0.190506220472441
20
-0.1882866929133858
11
-0.1904003543307086
21
-0.1882791338582677
0
LINE
8
BLACK
6
CONTINUOUS
10
-0.1904003543307086
20
-0.1882791338582677
11
-0.1903023622047244
21
-0.1882385826771653
0
LINE
8
BLACK
6
CONTINUOUS
10
-0.1903023622047244
20
-0.1882385826771653
11
-0.1897262992125984
21
-0.1881818503937008
0
LINE
8
BLACK
6
CONTINUOUS
10
-0.1897262992125984
20
-0.1881818503937008
11
-0.1803524803149606
21
-0.1881818503937008
0
LINE
8
BLACK
6
CONTINUOUS
10
-0.1803524803149606
20
-0.1881818503937008
11
-0.1797764173228346
21
-0.1882385826771653
0
LINE
8
BLACK
6
CONTINUOUS
10
-0.1562148031496063
20
-0.1886794881889764
11
-0.155400157480315
21
-0.1894941338582677
0
LINE
8
BLACK
6
CONTINUOUS
10
-0.155400157480315
20
-0.1894941338582677
11
-0.1549592519685039
21
-0.1905585433070866
0
LINE
8
BLACK
6
CONTINUOUS
10
-0.1549592519685039
20
-0.1905585433070866
11
-0.1549025196850394
21
-0.1911346062992126
0
LINE
8
BLACK
6
CONTINUOUS
10
-0.1549025196850394
20
-0.1911346062992126
11
-0.1549025196850394
21
-0.2069294881889764
0
LINE
8
BLACK
6
CONTINUOUS
10
-0.1549025196850394
20
-0.2069294881889764
11
-0.1383108661417323
21
-0.2069294881889764
0
LINE
8
BLACK
6
CONTINUOUS
10
-0.1383108661417323
20
-0.2069294881889764
11
-0.1383108661417323
21
-0.1911346062992126
0
LINE
8
BLACK
6
CONTINUOUS
10
-0.1383108661417323
20
-0.1911346062992126
11
-0.1382541338582677
21
-0.1905585433070866
0
LINE
8
BLACK
6
CONTINUOUS
10
-0.1382541338582677
20
-0.1905585433070866
11
-0.1378132283464567
21
-0.1894941338582677
0
LINE
8
BLACK
6
CONTINUOUS
10
-0.1378132283464567
20
-0.1894941338582677
11
-0.1369985826771654
21
-0.1886794881889764
0
LINE
8
BLACK
6
CONTINUOUS
10
-0.1369985826771654
20
-0.1886794881889764
11
-0.1359341732283464
21
-0.1882385826771653
0
LINE
8
BLACK
6
CONTINUOUS
10
-0.1359341732283464
20
-0.1882385826771653
11
-0.1347820472440945
21
-0.1882385826771653
0
LINE
8
BLACK
6
CONTINUOUS
10
-0.1347820472440945
20
-0.1882385826771653
11
-0.1337176377952756
21
-0.1886794881889764
0
LINE
8
BLACK
6
CONTINUOUS
10
-0.1337176377952756
20
-0.1886794881889764
11
-0.1329029921259842
21
-0.1894941338582677
0
LINE
8
BLACK
6
CONTINUOUS
10
-0.1329029921259842
20
-0.1894941338582677
11
-0.1324620866141732
21
-0.1905585433070866
0
LINE
8
BLACK
6
CONTINUOUS
10
-0.1324620866141732
20
-0.1905585433070866
11
-0.1324053543307087
21
-0.1911346062992126
0
LINE
8
BLACK
6
CONTINUOUS
10
-0.1324053543307087
20
-0.1911346062992126
11
-0.1324053543307087
21
-0.2305046850393701
0
LINE
8
BLACK
6
CONTINUOUS
10
-0.1324053543307087
20
-0.2305046850393701
11
-0.1324620866141732
21
-0.2310807480314961
0
LINE
8
BLACK
6
CONTINUOUS
10
-0.1324620866141732
20
-0.2310807480314961
11
-0.1329029921259842
21
-0.2321451574803149
0
LINE
8
BLACK
6
CONTINUOUS
10
-0.1329029921259842
20
-0.2321451574803149
11
-0.1337176377952756
21
-0.2329598031496063
0
LINE
8
BLACK
6
CONTINUOUS
10
-0.1337176377952756
20
-0.2329598031496063
11
-0.1347820472440945
21
-0.2334007086614173
0
LINE
8
BLACK
6
CONTINUOUS
10
-0.1347820472440945
20
-0.2334007086614173
11
-0.1359341732283464
21
-0.2334007086614173
0
LINE
8
BLACK
6
CONTINUOUS
10
-0.1359341732283464
20
-0.2334007086614173
11
-0.1369985826771654
21
-0.2329598031496063
0
LINE
8
BLACK
6
CONTINUOUS
10
-0.1369985826771654
20
-0.2329598031496063
11
-0.1378132283464567
21
-0.2321451574803149
0
LINE
8
BLACK
6
CONTINUOUS
10
-0.1378132283464567
20
-0.2321451574803149
11
-0.1382541338582677
21
-0.2310807480314961
0
LINE
8
BLACK
6
CONTINUOUS
10
-0.1382541338582677
20
-0.2310807480314961
11
-0.1383108661417323
21
-0.2305046850393701
0
LINE
8
BLACK
6
CONTINUOUS
10
-0.1383108661417323
20
-0.2305046850393701
11
-0.1383108661417323
21
-0.212835
0
LINE
8
BLACK
6
CONTINUOUS
10
-0.1383108661417323
20
-0.212835
11
-0.1549025196850394
21
-0.212835
0
LINE
8
BLACK
6
CONTINUOUS
10
-0.1549025196850394
20
-0.212835
11
-0.1549025196850394
21
-0.2305046850393701
0
LINE
8
BLACK
6
CONTINUOUS
10
-0.1549025196850394
20
-0.2305046850393701
11
-0.1549592519685039
21
-0.2310807480314961
0
LINE
8
BLACK
6
CONTINUOUS
10
-0.1549592519685039
20
-0.2310807480314961
11
-0.155400157480315
21
-0.2321451574803149
0
LINE
8
BLACK
6
CONTINUOUS
10
-0.155400157480315
20
-0.2321451574803149
11
-0.1562148031496063
21
-0.2329598031496063
0
LINE
8
BLACK
6
CONTINUOUS
10
-0.1562148031496063
20
-0.2329598031496063
11
-0.1572792125984252
21
-0.2334007086614173
0
LINE
8
BLACK
6
CONTINUOUS
10
-0.1572792125984252
20
-0.2334007086614173
11
-0.1584313385826772
21
-0.2334007086614173
0
LINE
8
BLACK
6
CONTINUOUS
10
-0.1584313385826772
20
-0.2334007086614173
11
-0.159495748031496
21
-0.2329598031496063
0
LINE
8
BLACK
6
CONTINUOUS
10
-0.159495748031496
20
-0.2329598031496063
11
-0.1603103937007874
21
-0.2321451574803149
0
LINE
8
BLACK
6
CONTINUOUS
10
-0.1603103937007874
20
-0.2321451574803149
11
-0.1607512992125984
21
-0.2310807480314961
0
LINE
8
BLACK
6
CONTINUOUS
10
-0.1607512992125984
20
-0.2310807480314961
11
-0.160808031496063
21
-0.2305046850393701
0
LINE
8
BLACK
6
CONTINUOUS
10
-0.160808031496063
20
-0.2305046850393701
11
-0.160808031496063
21
-0.1911346062992126
0
LINE
8
BLACK
6
CONTINUOUS
10
-0.160808031496063
20
-0.1911346062992126
11
-0.1607512992125984
21
-0.1905585433070866
0
LINE
8
BLACK
6
CONTINUOUS
10
-0.1607512992125984
20
-0.1905585433070866
11
-0.1603103937007874
21
-0.1894941338582677
0
LINE
8
BLACK
6
CONTINUOUS
10
-0.1603103937007874
20
-0.1894941338582677
11
-0.159495748031496
21
-0.1886794881889764
0
LINE
8
BLACK
6
CONTINUOUS
10
-0.159495748031496
20
-0.1886794881889764
11
-0.1584313385826772
21
-0.1882385826771653
0
LINE
8
BLACK
6
CONTINUOUS
10
-0.1584313385826772
20
-0.1882385826771653
11
-0.1572792125984252
21
-0.1882385826771653
0
LINE
8
BLACK
6
CONTINUOUS
10
-0.1572792125984252
20
-0.1882385826771653
11
-0.1562148031496063
21
-0.1886794881889764
0
LINE
8
BLACK
6
CONTINUOUS
10
0.168916811023622
20
-0.137964842519685
11
0.1697314566929134
21
-0.1387794881889764
0
LINE
8
BLACK
6
CONTINUOUS
10
0.1697314566929134
20
-0.1387794881889764
11
0.1701723622047244
21
-0.1398438976377953
0
LINE
8
BLACK
6
CONTINUOUS
10
0.1701723622047244
20
-0.1398438976377953
11
0.170229094488189
21
-0.1404199606299213
0
LINE
8
BLACK
6
CONTINUOUS
10
0.170229094488189
20
-0.1404199606299213
11
0.170229094488189
21
-0.1582846850393701
0
LINE
8
BLACK
6
CONTINUOUS
10
0.170229094488189
20
-0.1582846850393701
11
0.1803300393700787
21
-0.1494463779527559
0
LINE
8
BLACK
6
CONTINUOUS
10
0.1803300393700787
20
-0.1494463779527559
11
0.1805790157480315
21
-0.1492683464566929
0
LINE
8
BLACK
6
CONTINUOUS
10
0.1805790157480315
20
-0.1492683464566929
11
0.1806339763779528
21
-0.1492134251968504
0
LINE
8
BLACK
6
CONTINUOUS
10
0.1806339763779528
20
-0.1492134251968504
11
0.180686062992126
21
-0.1491918110236221
0
LINE
8
BLACK
6
CONTINUOUS
10
0.180686062992126
20
-0.1491918110236221
11
0.1808009448818897
21
-0.1491097244094488
0
LINE
8
BLACK
6
CONTINUOUS
10
0.1808009448818897
20
-0.1491097244094488
11
0.181255157480315
21
-0.1489561023622047
0
LINE
8
BLACK
6
CONTINUOUS
10
0.181255157480315
20
-0.1489561023622047
11
0.1816983858267716
21
-0.1487725196850394
0
LINE
8
BLACK
6
CONTINUOUS
10
0.1816983858267716
20
-0.1487725196850394
11
0.181798031496063
21
-0.1487725196850394
0
LINE
8
BLACK
6
CONTINUOUS
10
0.181798031496063
20
-0.1487725196850394
11
0.1818923228346457
21
-0.1487406299212598
0
LINE
8
BLACK
6
CONTINUOUS
10
0.1818923228346457
20
-0.1487406299212598
11
0.1823707874015748
21
-0.1487725196850394
0
LINE
8
BLACK
6
CONTINUOUS
10
0.1823707874015748
20
-0.1487725196850394
11
0.1828505118110236
21
-0.1487725196850394
0
LINE
8
BLACK
6
CONTINUOUS
10
0.1828505118110236
20
-0.1487725196850394
11
0.1829424803149606
21
-0.1488105905511811
0
LINE
8
BLACK
6
CONTINUOUS
10
0.1829424803149606
20
-0.1488105905511811
11
0.1830418503937008
21
-0.1488172440944882
0
LINE
8
BLACK
6
CONTINUOUS
10
0.1830418503937008
20
-0.1488172440944882
11
0.183471968503937
21
-0.1490299212598425
0
LINE
8
BLACK
6
CONTINUOUS
10
0.183471968503937
20
-0.1490299212598425
11
0.1839149212598425
21
-0.1492134251968504
0
LINE
8
BLACK
6
CONTINUOUS
10
0.1839149212598425
20
-0.1492134251968504
11
0.1839852362204724
21
-0.1492837401574803
0
LINE
8
BLACK
6
CONTINUOUS
10
0.1839852362204724
20
-0.1492837401574803
11
0.1840746062992126
21
-0.1493279527559055
0
LINE
8
BLACK
6
CONTINUOUS
10
0.1840746062992126
20
-0.1493279527559055
11
0.1843905511811024
21
-0.1496890551181102
0
LINE
8
BLACK
6
CONTINUOUS
10
0.1843905511811024
20
-0.1496890551181102
11
0.1847295669291339
21
-0.1500280708661417
0
LINE
8
BLACK
6
CONTINUOUS
10
0.1847295669291339
20
-0.1500280708661417
11
0.1847676771653543
21
-0.1501200393700787
0
LINE
8
BLACK
6
CONTINUOUS
10
0.1847676771653543
20
-0.1501200393700787
11
0.1848332677165354
21
-0.1501950393700787
0
LINE
8
BLACK
6
CONTINUOUS
10
0.1848332677165354
20
-0.1501950393700787
11
0.1849868503937008
21
-0.1506492519685039
0
LINE
8
BLACK
6
CONTINUOUS
10
0.1849868503937008
20
-0.1506492519685039
11
0.1851704724409449
21
-0.1510924803149606
0
LINE
8
BLACK
6
CONTINUOUS
10
0.1851704724409449
20
-0.1510924803149606
11
0.1851842913385827
21
-0.151233031496063
0
LINE
8
BLACK
6
CONTINUOUS
10
0.1851842913385827
20
-0.151233031496063
11
0.1852023622047244
21
-0.1512864173228347
0
LINE
8
BLACK
6
CONTINUOUS
10
0.1852023622047244
20
-0.1512864173228347
11
0.1851971653543307
21
-0.1513638582677165
0
LINE
8
BLACK
6
CONTINUOUS
10
0.1851971653543307
20
-0.1513638582677165
11
0.1852272047244095
21
-0.1516685433070866
0
LINE
8
BLACK
6
CONTINUOUS
10
0.1852272047244095
20
-0.1516685433070866
11
0.1852272047244095
21
-0.1565957874015748
0
LINE
8
BLACK
6
CONTINUOUS
10
0.1852272047244095
20
-0.1565957874015748
11
0.1865759448818897
21
-0.1592932677165354
0
LINE
8
BLACK
6
CONTINUOUS
10
0.1865759448818897
20
-0.1592932677165354
11
0.1877730708661417
21
-0.1604903937007874
0
LINE
8
BLACK
6
CONTINUOUS
10
0.1877730708661417
20
-0.1604903937007874
11
0.1904705511811024
21
-0.1618391338582677
0
LINE
8
BLACK
6
CONTINUOUS
10
0.1904705511811024
20
-0.1618391338582677
11
0.1984502755905512
21
-0.1618391338582677
0
LINE
8
BLACK
6
CONTINUOUS
10
0.1984502755905512
20
-0.1618391338582677
11
0.2011477559055118
21
-0.1604903543307087
0
LINE
8
BLACK
6
CONTINUOUS
10
0.2011477559055118
20
-0.1604903543307087
11
0.2023449212598425
21
-0.1592932283464567
0
LINE
8
BLACK
6
CONTINUOUS
10
0.2023449212598425
20
-0.1592932283464567
11
0.2036936614173228
21
-0.1565957874015748
0
LINE
8
BLACK
6
CONTINUOUS
10
0.2036936614173228
20
-0.1565957874015748
11
0.2036936614173228
21
-0.1467412992125984
0
LINE
8
BLACK
6
CONTINUOUS
10
0.2036936614173228
20
-0.1467412992125984
11
0.2023449212598425
21
-0.1440438188976378
0
LINE
8
BLACK
6
CONTINUOUS
10
0.2023449212598425
20
-0.1440438188976378
11
0.2008089763779528
21
-0.1425079133858268
0
LINE
8
BLACK
6
CONTINUOUS
10
0.2008089763779528
20
-0.1425079133858268
11
0.2004417322834646
21
-0.1420604330708661
0
LINE
8
BLACK
6
CONTINUOUS
10
0.2004417322834646
20
-0.1420604330708661
11
0.2000008267716535
21
-0.1409960236220472
0
LINE
8
BLACK
6
CONTINUOUS
10
0.2000008267716535
20
-0.1409960236220472
11
0.2000008267716535
21
-0.139843937007874
0
LINE
8
BLACK
6
CONTINUOUS
10
0.2000008267716535
20
-0.139843937007874
11
0.2004416929133858
21
-0.1387795275590551
0
LINE
8
BLACK
6
CONTINUOUS
10
0.2004416929133858
20
-0.1387795275590551
11
0.2012563779527559
21
-0.137964842519685
0
LINE
8
BLACK
6
CONTINUOUS
10
0.2012563779527559
20
-0.137964842519685
11
0.2023207874015748
21
-0.137523937007874
0
LINE
8
BLACK
6
CONTINUOUS
10
0.2023207874015748
20
-0.137523937007874
11
0.203472874015748
21
-0.137523937007874
0
LINE
8
BLACK
6
CONTINUOUS
10
0.203472874015748
20
-0.137523937007874
11
0.2045372834645669
21
-0.1379648031496063
0
LINE
8
BLACK
6
CONTINUOUS
10
0.2045372834645669
20
-0.1379648031496063
11
0.2049847244094488
21
-0.1383320078740158
0
LINE
8
BLACK
6
CONTINUOUS
10
0.2049847244094488
20
-0.1383320078740158
11
0.2068595275590551
21
-0.1402067716535433
0
LINE
8
BLACK
6
CONTINUOUS
10
0.2068595275590551
20
-0.1402067716535433
11
0.2070452755905512
21
-0.1404331102362205
0
LINE
8
BLACK
6
CONTINUOUS
10
0.2070452755905512
20
-0.1404331102362205
11
0.2071043307086614
21
-0.1404843307086614
0
LINE
8
BLACK
6
CONTINUOUS
10
0.2071043307086614
20
-0.1404843307086614
11
0.2071603149606299
21
-0.1405732677165354
0
LINE
8
BLACK
6
CONTINUOUS
10
0.2071603149606299
20
-0.1405732677165354
11
0.2072267716535433
21
-0.1406542519685039
0
LINE
8
BLACK
6
CONTINUOUS
10
0.2072267716535433
20
-0.1406542519685039
11
0.2072565748031496
21
-0.1407261811023622
0
LINE
8
BLACK
6
CONTINUOUS
10
0.2072565748031496
20
-0.1407261811023622
11
0.2074126771653543
21
-0.1409742125984252
0
LINE
8
BLACK
6
CONTINUOUS
10
0.2074126771653543
20
-0.1409742125984252
11
0.2092874409448819
21
-0.1447237401574803
0
LINE
8
BLACK
6
CONTINUOUS
10
0.2092874409448819
20
-0.1447237401574803
11
0.2094943307086614
21
-0.1452643307086614
0
LINE
8
BLACK
6
CONTINUOUS
10
0.2094943307086614
20
-0.1452643307086614
11
0.2095018503937008
21
-0.1453701968503937
0
LINE
8
BLACK
6
CONTINUOUS
10
0.2095018503937008
20
-0.1453701968503937
11
0.2095424409448819
21
-0.1454681889763779
0
LINE
8
BLACK
6
CONTINUOUS
10
0.2095424409448819
20
-0.1454681889763779
11
0.2095991732283465
21
-0.1460442519685039
0
LINE
8
BLACK
6
CONTINUOUS
10
0.2095991732283465
20
-0.1460442519685039
11
0.2095991732283465
21
-0.1572928346456693
0
LINE
8
BLACK
6
CONTINUOUS
10
0.2095991732283465
20
-0.1572928346456693
11
0.2095424409448819
21
-0.1578688976377953
0
LINE
8
BLACK
6
CONTINUOUS
10
0.2095424409448819
20
-0.1578688976377953
11
0.2095018503937008
21
-0.1579668503937008
0
LINE
8
BLACK
6
CONTINUOUS
10
0.2095018503937008
20
-0.1579668503937008
11
0.2094943307086614
21
-0.1580727559055118
0
LINE
8
BLACK
6
CONTINUOUS
10
0.2094943307086614
20
-0.1580727559055118
11
0.2092874409448819
21
-0.1586133464566929
0
LINE
8
BLACK
6
CONTINUOUS
10
0.2092874409448819
20
-0.1586133464566929
11
0.2074126771653543
21
-0.162362874015748
0
LINE
8
BLACK
6
CONTINUOUS
10
0.2074126771653543
20
-0.162362874015748
11
0.2072565748031496
21
-0.1626108661417323
0
LINE
8
BLACK
6
CONTINUOUS
10
0.2072565748031496
20
-0.1626108661417323
11
0.2072267716535433
21
-0.1626828346456693
0
LINE
8
BLACK
6
CONTINUOUS
10
0.2072267716535433
20
-0.1626828346456693
11
0.2071603149606299
21
-0.162763779527559
0
LINE
8
BLACK
6
CONTINUOUS
10
0.2071603149606299
20
-0.162763779527559
11
0.2071043307086614
21
-0.1628527559055118
0
LINE
8
BLACK
6
CONTINUOUS
10
0.2071043307086614
20
-0.1628527559055118
11
0.2070452755905512
21
-0.162903937007874
0
LINE
8
BLACK
6
CONTINUOUS
10
0.2070452755905512
20
-0.162903937007874
11
0.2068595275590551
21
-0.1631303149606299
0
LINE
8
BLACK
6
CONTINUOUS
10
0.2068595275590551
20
-0.1631303149606299
11
0.2049847244094488
21
-0.1650050787401575
0
LINE
8
BLACK
6
CONTINUOUS
10
0.2049847244094488
20
-0.1650050787401575
11
0.2047583858267716
21
-0.1651907874015748
0
LINE
8
BLACK
6
CONTINUOUS
10
0.2047583858267716
20
-0.1651907874015748
11
0.2047072440944882
21
-0.1652498031496063
0
LINE
8
BLACK
6
CONTINUOUS
10
0.2047072440944882
20
-0.1652498031496063
11
0.2046183070866142
21
-0.1653057480314961
0
LINE
8
BLACK
6
CONTINUOUS
10
0.2046183070866142
20
-0.1653057480314961
11
0.2045372834645669
21
-0.1653722834645669
0
LINE
8
BLACK
6
CONTINUOUS
10
0.2045372834645669
20
-0.1653722834645669
11
0.2044652362204724
21
-0.1654020866141732
0
LINE
8
BLACK
6
CONTINUOUS
10
0.2044652362204724
20
-0.1654020866141732
11
0.2042173622047244
21
-0.1655581496062992
0
LINE
8
BLACK
6
CONTINUOUS
10
0.2042173622047244
20
-0.1655581496062992
11
0.2004678346456693
21
-0.1674329133858268
0
LINE
8
BLACK
6
CONTINUOUS
10
0.2004678346456693
20
-0.1674329133858268
11
0.1999272047244094
21
-0.1676398031496063
0
LINE
8
BLACK
6
CONTINUOUS
10
0.1999272047244094
20
-0.1676398031496063
11
0.1998213779527559
21
-0.1676472834645669
0
LINE
8
BLACK
6
CONTINUOUS
10
0.1998213779527559
20
-0.1676472834645669
11
0.1997233858267717
21
-0.1676879133858268
0
LINE
8
BLACK
6
CONTINUOUS
10
0.1997233858267717
20
-0.1676879133858268
11
0.1991473228346457
21
-0.1677446456692913
0
LINE
8
BLACK
6
CONTINUOUS
10
0.1991473228346457
20
-0.1677446456692913
11
0.1897735039370079
21
-0.1677446456692913
0
LINE
8
BLACK
6
CONTINUOUS
10
0.1897735039370079
20
-0.1677446456692913
11
0.1891974409448819
21
-0.1676879133858268
0
LINE
8
BLACK
6
CONTINUOUS
10
0.1891974409448819
20
-0.1676879133858268
11
0.1890994488188976
21
-0.1676473228346457
0
LINE
8
BLACK
6
CONTINUOUS
10
0.1890994488188976
20
-0.1676473228346457
11
0.1889935826771653
21
-0.1676398031496063
0
LINE
8
BLACK
6
CONTINUOUS
10
0.1889935826771653
20
-0.1676398031496063
11
0.1884529921259842
21
-0.1674329133858268
0
LINE
8
BLACK
6
CONTINUOUS
10
0.1884529921259842
20
-0.1674329133858268
11
0.1847034645669291
21
-0.1655581496062992
0
LINE
8
BLACK
6
CONTINUOUS
10
0.1847034645669291
20
-0.1655581496062992
11
0.1844554330708661
21
-0.1654020472440945
0
LINE
8
BLACK
6
CONTINUOUS
10
0.1844554330708661
20
-0.1654020472440945
11
0.1843835039370079
21
-0.1653722440944882
0
LINE
8
BLACK
6
CONTINUOUS
10
0.1843835039370079
20
-0.1653722440944882
11
0.1843025196850394
21
-0.1653057480314961
0
LINE
8
BLACK
6
CONTINUOUS
10
0.1843025196850394
20
-0.1653057480314961
11
0.1842135826771653
21
-0.1652498031496063
0
LINE
8
BLACK
6
CONTINUOUS
10
0.1842135826771653
20
-0.1652498031496063
11
0.1841624015748032
21
-0.1651907874015748
0
LINE
8
BLACK
6
CONTINUOUS
10
0.1841624015748032
20
-0.1651907874015748
11
0.183936062992126
21
-0.1650050393700787
0
LINE
8
BLACK
6
CONTINUOUS
10
0.183936062992126
20
-0.1650050393700787
11
0.1820612992125984
21
-0.1631302755905512
0
LINE
8
BLACK
6
CONTINUOUS
10
0.1820612992125984
20
-0.1631302755905512
11
0.1818755118110236
21
-0.1629038976377953
0
LINE
8
BLACK
6
CONTINUOUS
10
0.1818755118110236
20
-0.1629038976377953
11
0.1818165354330709
21
-0.1628527559055118
0
LINE
8
BLACK
6
CONTINUOUS
10
0.1818165354330709
20
-0.1628527559055118
11
0.1817605511811023
21
-0.162763779527559
0
LINE
8
BLACK
6
CONTINUOUS
10
0.1817605511811023
20
-0.162763779527559
11
0.181694094488189
21
-0.1626828346456693
0
LINE
8
BLACK
6
CONTINUOUS
10
0.181694094488189
20
-0.1626828346456693
11
0.1816642519685039
21
-0.1626108661417323
0
LINE
8
BLACK
6
CONTINUOUS
10
0.1816642519685039
20
-0.1626108661417323
11
0.1815081889763779
21
-0.162362874015748
0
LINE
8
BLACK
6
CONTINUOUS
10
0.1815081889763779
20
-0.162362874015748
11
0.1796334251968504
21
-0.1586133464566929
0
LINE
8
BLACK
6
CONTINUOUS
10
0.1796334251968504
20
-0.1586133464566929
11
0.1794297637795275
21
-0.1580811417322835
0
LINE
8
BLACK
6
CONTINUOUS
10
0.1794297637795275
20
-0.1580811417322835
11
0.1692207480314961
21
-0.1670140551181102
0
LINE
8
BLACK
6
CONTINUOUS
10
0.1692207480314961
20
-0.1670140551181102
11
0.1689717322834646
21
-0.1671920472440945
0
LINE
8
BLACK
6
CONTINUOUS
10
0.1689717322834646
20
-0.1671920472440945
11
0.168916811023622
21
-0.1672470078740158
0
LINE
8
BLACK
6
CONTINUOUS
10
0.168916811023622
20
-0.1672470078740158
11
0.1688646850393701
21
-0.1672685826771654
0
LINE
8
BLACK
6
CONTINUOUS
10
0.1688646850393701
20
-0.1672685826771654
11
0.168749842519685
21
-0.1673507086614173
0
LINE
8
BLACK
6
CONTINUOUS
10
0.168749842519685
20
-0.1673507086614173
11
0.1682955905511811
21
-0.1675042913385827
0
LINE
8
BLACK
6
CONTINUOUS
10
0.1682955905511811
20
-0.1675042913385827
11
0.1678524015748031
21
-0.1676879133858268
0
LINE
8
BLACK
6
CONTINUOUS
10
0.1678524015748031
20
-0.1676879133858268
11
0.1677527559055118
21
-0.1676879133858268
0
LINE
8
BLACK
6
CONTINUOUS
10
0.1677527559055118
20
-0.1676879133858268
11
0.1676584645669291
21
-0.1677198031496063
0
LINE
8
BLACK
6
CONTINUOUS
10
0.1676584645669291
20
-0.1677198031496063
11
0.16718
21
-0.1676879133858268
0
LINE
8
BLACK
6
CONTINUOUS
10
0.16718
20
-0.1676879133858268
11
0.1667002755905512
21
-0.1676879133858268
0
LINE
8
BLACK
6
CONTINUOUS
10
0.1667002755905512
20
-0.1676879133858268
11
0.1666082677165354
21
-0.1676498031496063
0
LINE
8
BLACK
6
CONTINUOUS
10
0.1666082677165354
20
-0.1676498031496063
11
0.166508937007874
21
-0.1676431889763779
0
LINE
8
BLACK
6
CONTINUOUS
10
0.166508937007874
20
-0.1676431889763779
11
0.1660787795275591
21
-0.1674304724409449
0
LINE
8
BLACK
6
CONTINUOUS
10
0.1660787795275591
20
-0.1674304724409449
11
0.1656358661417323
21
-0.1672470078740158
0
LINE
8
BLACK
6
CONTINUOUS
10
0.1656358661417323
20
-0.1672470078740158
11
0.1655655118110236
21
-0.1671766535433071
0
LINE
8
BLACK
6
CONTINUOUS
10
0.1655655118110236
20
-0.1671766535433071
11
0.1654761811023622
21
-0.1671324803149606
0
LINE
8
BLACK
6
CONTINUOUS
10
0.1654761811023622
20
-0.1671324803149606
11
0.1651601968503937
21
-0.1667713385826771
0
LINE
8
BLACK
6
CONTINUOUS
10
0.1651601968503937
20
-0.1667713385826771
11
0.1648212204724409
21
-0.1664323622047244
0
LINE
8
BLACK
6
CONTINUOUS
10
0.1648212204724409
20
-0.1664323622047244
11
0.1647830708661417
21
-0.1663403543307087
0
LINE
8
BLACK
6
CONTINUOUS
10
0.1647830708661417
20
-0.1663403543307087
11
0.1647175196850394
21
-0.1662653937007874
0
LINE
8
BLACK
6
CONTINUOUS
10
0.1647175196850394
20
-0.1662653937007874
11
0.1645638976377953
21
-0.1658111417322835
0
LINE
8
BLACK
6
CONTINUOUS
10
0.1645638976377953
20
-0.1658111417322835
11
0.1643803149606299
21
-0.1653679527559055
0
LINE
8
BLACK
6
CONTINUOUS
10
0.1643803149606299
20
-0.1653679527559055
11
0.1643664566929134
21
-0.1652273622047244
0
LINE
8
BLACK
6
CONTINUOUS
10
0.1643664566929134
20
-0.1652273622047244
11
0.1643484251968504
21
-0.1651740157480315
0
LINE
8
BLACK
6
CONTINUOUS
10
0.1643484251968504
20
-0.1651740157480315
11
0.1643535826771653
21
-0.1650965354330709
0
LINE
8
BLACK
6
CONTINUOUS
10
0.1643535826771653
20
-0.1650965354330709
11
0.1643235826771653
21
-0.1647918897637795
0
LINE
8
BLACK
6
CONTINUOUS
10
0.1643235826771653
20
-0.1647918897637795
11
0.1643235826771653
21
-0.1404199606299213
0
LINE
8
BLACK
6
CONTINUOUS
10
0.1643235826771653
20
-0.1404199606299213
11
0.1643803149606299
21
-0.1398438976377953
0
LINE
8
BLACK
6
CONTINUOUS
10
0.1643803149606299
20
-0.1398438976377953
11
0.1648212204724409
21
-0.1387794881889764
0
LINE
8
BLACK
6
CONTINUOUS
10
0.1648212204724409
20
-0.1387794881889764
11
0.1656358661417323
21
-0.137964842519685
0
LINE
8
BLACK
6
CONTINUOUS
10
0.1656358661417323
20
-0.137964842519685
11
0.1667002755905512
21
-0.137523937007874
0
LINE
8
BLACK
6
CONTINUOUS
10
0.1667002755905512
20
-0.137523937007874
11
0.1678524015748031
21
-0.137523937007874
0
LINE
8
BLACK
6
CONTINUOUS
10
0.1678524015748031
20
-0.137523937007874
11
0.168916811023622
21
-0.137964842519685
0
LINE
8
BLACK
6
CONTINUOUS
10
0.1793048031496063
20
-0.1019514960629921
11
0.1803353149606299
21
-0.1024667716535433
0
LINE
8
BLACK
6
CONTINUOUS
10
0.1803353149606299
20
-0.1024667716535433
11
0.181090157480315
21
-0.103337125984252
0
LINE
8
BLACK
6
CONTINUOUS
10
0.181090157480315
20
-0.103337125984252
11
0.1814544881889764
21
-0.1044301181102362
0
LINE
8
BLACK
6
CONTINUOUS
10
0.1814544881889764
20
-0.1044301181102362
11
0.1813728346456693
21
-0.1055793307086614
0
LINE
8
BLACK
6
CONTINUOUS
10
0.1813728346456693
20
-0.1055793307086614
11
0.1811659448818898
21
-0.1061199212598425
0
LINE
8
BLACK
6
CONTINUOUS
10
0.1811659448818898
20
-0.1061199212598425
11
0.1792911811023622
21
-0.1098694488188976
0
LINE
8
BLACK
6
CONTINUOUS
10
0.1792911811023622
20
-0.1098694488188976
11
0.1791351574803149
21
-0.1101172440944882
0
LINE
8
BLACK
6
CONTINUOUS
10
0.1791351574803149
20
-0.1101172440944882
11
0.1791053149606299
21
-0.1101894094488189
0
LINE
8
BLACK
6
CONTINUOUS
10
0.1791053149606299
20
-0.1101894094488189
11
0.1790387007874016
21
-0.1102705511811024
0
LINE
8
BLACK
6
CONTINUOUS
10
0.1790387007874016
20
-0.1102705511811024
11
0.1789828346456693
21
-0.1103593307086614
0
LINE
8
BLACK
6
CONTINUOUS
10
0.1789828346456693
20
-0.1103593307086614
11
0.1789238976377953
21
-0.1104104330708661
0
LINE
8
BLACK
6
CONTINUOUS
10
0.1789238976377953
20
-0.1104104330708661
11
0.1787380708661417
21
-0.1106368503937008
0
LINE
8
BLACK
6
CONTINUOUS
10
0.1787380708661417
20
-0.1106368503937008
11
0.1762796850393701
21
-0.1130952362204724
0
LINE
8
BLACK
6
CONTINUOUS
10
0.1762796850393701
20
-0.1130952362204724
11
0.2036936614173228
21
-0.1130952362204724
0
LINE
8
BLACK
6
CONTINUOUS
10
0.2036936614173228
20
-0.1130952362204724
11
0.2036936614173228
21
-0.1047994094488189
0
LINE
8
BLACK
6
CONTINUOUS
10
0.2036936614173228
20
-0.1047994094488189
11
0.2037503937007874
21
-0.1042233464566929
0
LINE
8
BLACK
6
CONTINUOUS
10
0.2037503937007874
20
-0.1042233464566929
11
0.2041912992125984
21
-0.103158937007874
0
LINE
8
BLACK
6
CONTINUOUS
10
0.2041912992125984
20
-0.103158937007874
11
0.2050059448818898
21
-0.1023442913385827
0
LINE
8
BLACK
6
CONTINUOUS
10
0.2050059448818898
20
-0.1023442913385827
11
0.2060703543307087
21
-0.1019033858267717
0
LINE
8
BLACK
6
CONTINUOUS
10
0.2060703543307087
20
-0.1019033858267717
11
0.2072224803149606
21
-0.1019033858267717
0
LINE
8
BLACK
6
CONTINUOUS
10
0.2072224803149606
20
-0.1019033858267717
11
0.2082868897637795
21
-0.1023442913385827
0
LINE
8
BLACK
6
CONTINUOUS
10
0.2082868897637795
20
-0.1023442913385827
11
0.2091015354330709
21
-0.103158937007874
0
LINE
8
BLACK
6
CONTINUOUS
10
0.2091015354330709
20
-0.103158937007874
11
0.2095424409448819
21
-0.1042233464566929
0
LINE
8
BLACK
6
CONTINUOUS
10
0.2095424409448819
20
-0.1042233464566929
11
0.2095991732283465
21
-0.1047994094488189
0
LINE
8
BLACK
6
CONTINUOUS
10
0.2095991732283465
20
-0.1047994094488189
11
0.2095991732283465
21
-0.1272965748031496
0
LINE
8
BLACK
6
CONTINUOUS
10
0.2095991732283465
20
-0.1272965748031496
11
0.2095424409448819
21
-0.1278726377952756
0
LINE
8
BLACK
6
CONTINUOUS
10
0.2095424409448819
20
-0.1278726377952756
11
0.2091015354330709
21
-0.1289370472440945
0
LINE
8
BLACK
6
CONTINUOUS
10
0.2091015354330709
20
-0.1289370472440945
11
0.2082868897637795
21
-0.1297516929133858
0
LINE
8
BLACK
6
CONTINUOUS
10
0.2082868897637795
20
-0.1297516929133858
11
0.2072224803149606
21
-0.1301925984251968
0
LINE
8
BLACK
6
CONTINUOUS
10
0.2072224803149606
20
-0.1301925984251968
11
0.2060703543307087
21
-0.1301925984251968
0
LINE
8
BLACK
6
CONTINUOUS
10
0.2060703543307087
20
-0.1301925984251968
11
0.2050059448818898
21
-0.1297516929133858
0
LINE
8
BLACK
6
CONTINUOUS
10
0.2050059448818898
20
-0.1297516929133858
11
0.2041912992125984
21
-0.1289370472440945
0
LINE
8
BLACK
6
CONTINUOUS
10
0.2041912992125984
20
-0.1289370472440945
11
0.2037503937007874
21
-0.1278726377952756
0
LINE
8
BLACK
6
CONTINUOUS
10
0.2037503937007874
20
-0.1278726377952756
11
0.2036936614173228
21
-0.1272965748031496
0
LINE
8
BLACK
6
CONTINUOUS
10
0.2036936614173228
20
-0.1272965748031496
11
0.2036936614173228
21
-0.1190007480314961
0
LINE
8
BLACK
6
CONTINUOUS
10
0.2036936614173228
20
-0.1190007480314961
11
0.1672763385826772
21
-0.1190007480314961
0
LINE
8
BLACK
6
CONTINUOUS
10
0.1672763385826772
20
-0.1190007480314961
11
0.1672742519685039
21
-0.1190005118110236
0
LINE
8
BLACK
6
CONTINUOUS
10
0.1672742519685039
20
-0.1190005118110236
11
0.1672732283464567
21
-0.1190007480314961
0
LINE
8
BLACK
6
CONTINUOUS
10
0.1672732283464567
20
-0.1190007480314961
11
0.1672701968503937
21
-0.1190001181102362
0
LINE
8
BLACK
6
CONTINUOUS
10
0.1672701968503937
20
-0.1190001181102362
11
0.1667002755905512
21
-0.1189440157480315
0
LINE
8
BLACK
6
CONTINUOUS
10
0.1667002755905512
20
-0.1189440157480315
11
0.1664301574803149
21
-0.118832125984252
0
LINE
8
BLACK
6
CONTINUOUS
10
0.1664301574803149
20
-0.118832125984252
11
0.1661435433070866
21
-0.1187748031496063
0
LINE
8
BLACK
6
CONTINUOUS
10
0.1661435433070866
20
-0.1187748031496063
11
0.1659031496062992
21
-0.1186138188976378
0
LINE
8
BLACK
6
CONTINUOUS
10
0.1659031496062992
20
-0.1186138188976378
11
0.1656358661417323
21
-0.1185031102362205
0
LINE
8
BLACK
6
CONTINUOUS
10
0.1656358661417323
20
-0.1185031102362205
11
0.1654291338582677
21
-0.1182963779527559
0
LINE
8
BLACK
6
CONTINUOUS
10
0.1654291338582677
20
-0.1182963779527559
11
0.1651862598425197
21
-0.1181337401574803
0
LINE
8
BLACK
6
CONTINUOUS
10
0.1651862598425197
20
-0.1181337401574803
11
0.1650257480314961
21
-0.1178929921259843
0
LINE
8
BLACK
6
CONTINUOUS
10
0.1650257480314961
20
-0.1178929921259843
11
0.1648212204724409
21
-0.1176884645669291
0
LINE
8
BLACK
6
CONTINUOUS
10
0.1648212204724409
20
-0.1176884645669291
11
0.1647093307086614
21
-0.1174183464566929
0
LINE
8
BLACK
6
CONTINUOUS
10
0.1647093307086614
20
-0.1174183464566929
11
0.1645471653543307
21
-0.1171751181102362
0
LINE
8
BLACK
6
CONTINUOUS
10
0.1645471653543307
20
-0.1171751181102362
11
0.1644910236220472
21
-0.1168912992125984
0
LINE
8
BLACK
6
CONTINUOUS
10
0.1644910236220472
20
-0.1168912992125984
11
0.1643803149606299
21
-0.1166240551181102
0
LINE
8
BLACK
6
CONTINUOUS
10
0.1643803149606299
20
-0.1166240551181102
11
0.1643803149606299
21
-0.1163316535433071
0
LINE
8
BLACK
6
CONTINUOUS
10
0.1643803149606299
20
-0.1163316535433071
11
0.1643235826771653
21
-0.1160448818897638
0
LINE
8
BLACK
6
CONTINUOUS
10
0.1643235826771653
20
-0.1160448818897638
11
0.1643803149606299
21
-0.1157612204724409
0
LINE
8
BLACK
6
CONTINUOUS
10
0.1643803149606299
20
-0.1157612204724409
11
0.1643803149606299
21
-0.1154719291338583
0
LINE
8
BLACK
6
CONTINUOUS
10
0.1643803149606299
20
-0.1154719291338583
11
0.1644921653543307
21
-0.115201811023622
0
LINE
8
BLACK
6
CONTINUOUS
10
0.1644921653543307
20
-0.115201811023622
11
0.1645495275590551
21
-0.1149151968503937
0
LINE
8
BLACK
6
CONTINUOUS
10
0.1645495275590551
20
-0.1149151968503937
11
0.1647104724409449
21
-0.1146748031496063
0
LINE
8
BLACK
6
CONTINUOUS
10
0.1647104724409449
20
-0.1146748031496063
11
0.1648212204724409
21
-0.1144075196850394
0
LINE
8
BLACK
6
CONTINUOUS
10
0.1648212204724409
20
-0.1144075196850394
11
0.1650279133858268
21
-0.1142007874015748
0
LINE
8
BLACK
6
CONTINUOUS
10
0.1650279133858268
20
-0.1142007874015748
11
0.1651905905511811
21
-0.1139579133858268
0
LINE
8
BLACK
6
CONTINUOUS
10
0.1651905905511811
20
-0.1139579133858268
11
0.1656338188976378
21
-0.1135948818897638
0
LINE
8
BLACK
6
CONTINUOUS
10
0.1656338188976378
20
-0.1135948818897638
11
0.1656358661417323
21
-0.113592874015748
0
LINE
8
BLACK
6
CONTINUOUS
10
0.1656358661417323
20
-0.113592874015748
11
0.1656367322834646
21
-0.1135924803149606
0
LINE
8
BLACK
6
CONTINUOUS
10
0.1656367322834646
20
-0.1135924803149606
11
0.1656384251968504
21
-0.1135911417322835
0
LINE
8
BLACK
6
CONTINUOUS
10
0.1656384251968504
20
-0.1135911417322835
11
0.1710194488188976
21
-0.110003779527559
0
LINE
8
BLACK
6
CONTINUOUS
10
0.1710194488188976
20
-0.110003779527559
11
0.1742234251968504
21
-0.106799842519685
0
LINE
8
BLACK
6
CONTINUOUS
10
0.1742234251968504
20
-0.106799842519685
11
0.1758838976377953
21
-0.1034788976377953
0
LINE
8
BLACK
6
CONTINUOUS
10
0.1758838976377953
20
-0.1034788976377953
11
0.1761922440944882
21
-0.1029890157480315
0
LINE
8
BLACK
6
CONTINUOUS
10
0.1761922440944882
20
-0.1029890157480315
11
0.1770626377952756
21
-0.1022341732283465
0
LINE
8
BLACK
6
CONTINUOUS
10
0.1770626377952756
20
-0.1022341732283465
11
0.1781555905511811
21
-0.101869842519685
0
LINE
8
BLACK
6
CONTINUOUS
10
0.1781555905511811
20
-0.101869842519685
11
0.1793048031496063
21
-0.1019514960629921
0
LINE
8
BLACK
6
CONTINUOUS
10
-0.2214566535433071
20
-0.0626952362204724
11
-0.2206420078740157
21
-0.0635098818897638
0
LINE
8
BLACK
6
CONTINUOUS
10
-0.2206420078740157
20
-0.0635098818897638
11
-0.2202011023622047
21
-0.0645742913385827
0
LINE
8
BLACK
6
CONTINUOUS
10
-0.2202011023622047
20
-0.0645742913385827
11
-0.2201443700787402
21
-0.0651503543307087
0
LINE
8
BLACK
6
CONTINUOUS
10
-0.2201443700787402
20
-0.0651503543307087
11
-0.2201443700787402
21
-0.0754322047244095
0
LINE
8
BLACK
6
CONTINUOUS
10
-0.2201443700787402
20
-0.0754322047244095
11
-0.2201275196850394
21
-0.0754257874015748
0
LINE
8
BLACK
6
CONTINUOUS
10
-0.2201275196850394
20
-0.0754257874015748
11
-0.2200216535433071
21
-0.0754182283464567
0
LINE
8
BLACK
6
CONTINUOUS
10
-0.2200216535433071
20
-0.0754182283464567
11
-0.2199236614173228
21
-0.0753776771653543
0
LINE
8
BLACK
6
CONTINUOUS
10
-0.2199236614173228
20
-0.0753776771653543
11
-0.2193475984251969
21
-0.0753209448818898
0
LINE
8
BLACK
6
CONTINUOUS
10
-0.2193475984251969
20
-0.0753209448818898
11
-0.2118485433070866
21
-0.0753209448818898
0
LINE
8
BLACK
6
CONTINUOUS
10
-0.2118485433070866
20
-0.0753209448818898
11
-0.2112724803149606
21
-0.0753776771653543
0
LINE
8
BLACK
6
CONTINUOUS
10
-0.2112724803149606
20
-0.0753776771653543
11
-0.2111744881889764
21
-0.0754182677165354
0
LINE
8
BLACK
6
CONTINUOUS
10
-0.2111744881889764
20
-0.0754182677165354
11
-0.2110686614173228
21
-0.0754257874015748
0
LINE
8
BLACK
6
CONTINUOUS
10
-0.2110686614173228
20
-0.0754257874015748
11
-0.210528031496063
21
-0.0756326771653543
0
LINE
8
BLACK
6
CONTINUOUS
10
-0.210528031496063
20
-0.0756326771653543
11
-0.2067785039370079
21
-0.0775074409448819
0
LINE
8
BLACK
6
CONTINUOUS
10
-0.2067785039370079
20
-0.0775074409448819
11
-0.2065305118110236
21
-0.0776635039370079
0
LINE
8
BLACK
6
CONTINUOUS
10
-0.2065305118110236
20
-0.0776635039370079
11
-0.2064585433070866
21
-0.0776933464566929
0
LINE
8
BLACK
6
CONTINUOUS
10
-0.2064585433070866
20
-0.0776933464566929
11
-0.2063775984251968
21
-0.0777598031496063
0
LINE
8
BLACK
6
CONTINUOUS
10
-0.2063775984251968
20
-0.0777598031496063
11
-0.2062886220472441
21
-0.0778157874015748
0
LINE
8
BLACK
6
CONTINUOUS
10
-0.2062886220472441
20
-0.0778157874015748
11
-0.2062374803149606
21
-0.0778747637795276
0
LINE
8
BLACK
6
CONTINUOUS
10
-0.2062374803149606
20
-0.0778747637795276
11
-0.2060111023622047
21
-0.0780605511811024
0
LINE
8
BLACK
6
CONTINUOUS
10
-0.2060111023622047
20
-0.0780605511811024
11
-0.2041363385826772
21
-0.0799353149606299
0
LINE
8
BLACK
6
CONTINUOUS
10
-0.2041363385826772
20
-0.0799353149606299
11
-0.2039505905511811
21
-0.0801616535433071
0
LINE
8
BLACK
6
CONTINUOUS
10
-0.2039505905511811
20
-0.0801616535433071
11
-0.2038915748031496
21
-0.0802128346456693
0
LINE
8
BLACK
6
CONTINUOUS
10
-0.2038915748031496
20
-0.0802128346456693
11
-0.2038356299212598
21
-0.0803017716535433
0
LINE
8
BLACK
6
CONTINUOUS
10
-0.2038356299212598
20
-0.0803017716535433
11
-0.2037691338582677
21
-0.0803827559055118
0
LINE
8
BLACK
6
CONTINUOUS
10
-0.2037691338582677
20
-0.0803827559055118
11
-0.2037393307086614
21
-0.0804546850393701
0
LINE
8
BLACK
6
CONTINUOUS
10
-0.2037393307086614
20
-0.0804546850393701
11
-0.2035832283464567
21
-0.0807027165354331
0
LINE
8
BLACK
6
CONTINUOUS
10
-0.2035832283464567
20
-0.0807027165354331
11
-0.2017084645669291
21
-0.0844522440944882
0
LINE
8
BLACK
6
CONTINUOUS
10
-0.2017084645669291
20
-0.0844522440944882
11
-0.2015015748031496
21
-0.0849928346456693
0
LINE
8
BLACK
6
CONTINUOUS
10
-0.2015015748031496
20
-0.0849928346456693
11
-0.2014940551181102
21
-0.0850987007874016
0
LINE
8
BLACK
6
CONTINUOUS
10
-0.2014940551181102
20
-0.0850987007874016
11
-0.2014534645669291
21
-0.0851966929133858
0
LINE
8
BLACK
6
CONTINUOUS
10
-0.2014534645669291
20
-0.0851966929133858
11
-0.2013967322834646
21
-0.0857727559055118
0
LINE
8
BLACK
6
CONTINUOUS
10
-0.2013967322834646
20
-0.0857727559055118
11
-0.2013967322834646
21
-0.0970213385826772
0
LINE
8
BLACK
6
CONTINUOUS
10
-0.2013967322834646
20
-0.0970213385826772
11
-0.2014534645669291
21
-0.0975974015748031
0
LINE
8
BLACK
6
CONTINUOUS
10
-0.2014534645669291
20
-0.0975974015748031
11
-0.2014940551181102
21
-0.0976953543307087
0
LINE
8
BLACK
6
CONTINUOUS
10
-0.2014940551181102
20
-0.0976953543307087
11
-0.2015015748031496
21
-0.0978012598425197
0
LINE
8
BLACK
6
CONTINUOUS
10
-0.2015015748031496
20
-0.0978012598425197
11
-0.2017084645669291
21
-0.0983418503937008
0
LINE
8
BLACK
6
CONTINUOUS
10
-0.2017084645669291
20
-0.0983418503937008
11
-0.2035832283464567
21
-0.1020913779527559
0
LINE
8
BLACK
6
CONTINUOUS
10
-0.2035832283464567
20
-0.1020913779527559
11
-0.2037392913385827
21
-0.1023392519685039
0
LINE
8
BLACK
6
CONTINUOUS
10
-0.2037392913385827
20
-0.1023392519685039
11
-0.203769094488189
21
-0.1024112992125984
0
LINE
8
BLACK
6
CONTINUOUS
10
-0.203769094488189
20
-0.1024112992125984
11
-0.2038356299212598
21
-0.1024923228346457
0
LINE
8
BLACK
6
CONTINUOUS
10
-0.2038356299212598
20
-0.1024923228346457
11
-0.2038915748031496
21
-0.1025812598425197
0
LINE
8
BLACK
6
CONTINUOUS
10
-0.2038915748031496
20
-0.1025812598425197
11
-0.2039505905511811
21
-0.1026324015748031
0
LINE
8
BLACK
6
CONTINUOUS
10
-0.2039505905511811
20
-0.1026324015748031
11
-0.2041363385826772
21
-0.102858779527559
0
LINE
8
BLACK
6
CONTINUOUS
10
-0.2041363385826772
20
-0.102858779527559
11
-0.206011062992126
21
-0.1047335433070866
0
LINE
8
BLACK
6
CONTINUOUS
10
-0.206011062992126
20
-0.1047335433070866
11
-0.2062374409448819
21
-0.1049192913385827
0
LINE
8
BLACK
6
CONTINUOUS
10
-0.2062374409448819
20
-0.1049192913385827
11
-0.2062886220472441
21
-0.1049783464566929
0
LINE
8
BLACK
6
CONTINUOUS
10
-0.2062886220472441
20
-0.1049783464566929
11
-0.2063775984251968
21
-0.1050343307086614
0
LINE
8
BLACK
6
CONTINUOUS
10
-0.2063775984251968
20
-0.1050343307086614
11
-0.2064585433070866
21
-0.1051007874015748
0
LINE
8
BLACK
6
CONTINUOUS
10
-0.2064585433070866
20
-0.1051007874015748
11
-0.2065305118110236
21
-0.1051305905511811
0
LINE
8
BLACK
6
CONTINUOUS
10
-0.2065305118110236
20
-0.1051305905511811
11
-0.2067785039370079
21
-0.1052866929133858
0
LINE
8
BLACK
6
CONTINUOUS
10
-0.2067785039370079
20
-0.1052866929133858
11
-0.210528031496063
21
-0.1071614566929134
0
LINE
8
BLACK
6
CONTINUOUS
10
-0.210528031496063
20
-0.1071614566929134
11
-0.2110686614173228
21
-0.1073683464566929
0
LINE
8
BLACK
6
CONTINUOUS
10
-0.2110686614173228
20
-0.1073683464566929
11
-0.2111744881889764
21
-0.1073758267716535
0
LINE
8
BLACK
6
CONTINUOUS
10
-0.2111744881889764
20
-0.1073758267716535
11
-0.2112724803149606
21
-0.1074164566929134
0
LINE
8
BLACK
6
CONTINUOUS
10
-0.2112724803149606
20
-0.1074164566929134
11
-0.2118485433070866
21
-0.1074731889763779
0
LINE
8
BLACK
6
CONTINUOUS
10
-0.2118485433070866
20
-0.1074731889763779
11
-0.2193475984251969
21
-0.1074731889763779
0
LINE
8
BLACK
6
CONTINUOUS
10
-0.2193475984251969
20
-0.1074731889763779
11
-0.2199236614173228
21
-0.1074164566929134
0
LINE
8
BLACK
6
CONTINUOUS
10
-0.2199236614173228
20
-0.1074164566929134
11
-0.2200216535433071
21
-0.1073758661417323
0
LINE
8
BLACK
6
CONTINUOUS
10
-0.2200216535433071
20
-0.1073758661417323
11
-0.2201275196850394
21
-0.1073683464566929
0
LINE
8
BLACK
6
CONTINUOUS
10
-0.2201275196850394
20
-0.1073683464566929
11
-0.2206681102362205
21
-0.1071614566929134
0
LINE
8
BLACK
6
CONTINUOUS
10
-0.2206681102362205
20
-0.1071614566929134
11
-0.2213177559055118
21
-0.1068366141732283
0
LINE
8
BLACK
6
CONTINUOUS
10
-0.2213177559055118
20
-0.1068366141732283
11
-0.2214566535433071
21
-0.1069755511811024
0
LINE
8
BLACK
6
CONTINUOUS
10
-0.2214566535433071
20
-0.1069755511811024
11
-0.222521062992126
21
-0.1074164566929134
0
LINE
8
BLACK
6
CONTINUOUS
10
-0.222521062992126
20
-0.1074164566929134
11
-0.2236731889763779
21
-0.1074164566929134
0
LINE
8
BLACK
6
CONTINUOUS
10
-0.2236731889763779
20
-0.1074164566929134
11
-0.2247375984251968
21
-0.1069755511811024
0
LINE
8
BLACK
6
CONTINUOUS
10
-0.2247375984251968
20
-0.1069755511811024
11
-0.2255522440944882
21
-0.106160905511811
0
LINE
8
BLACK
6
CONTINUOUS
10
-0.2255522440944882
20
-0.106160905511811
11
-0.2259931496062992
21
-0.1050964960629921
0
LINE
8
BLACK
6
CONTINUOUS
10
-0.2259931496062992
20
-0.1050964960629921
11
-0.2260498818897638
21
-0.1045204330708661
0
LINE
8
BLACK
6
CONTINUOUS
10
-0.2260498818897638
20
-0.1045204330708661
11
-0.2260498818897638
21
-0.0651503543307087
0
LINE
8
BLACK
6
CONTINUOUS
10
-0.2260498818897638
20
-0.0651503543307087
11
-0.2259931496062992
21
-0.0645742913385827
0
LINE
8
BLACK
6
CONTINUOUS
10
-0.2259931496062992
20
-0.0645742913385827
11
-0.2255522440944882
21
-0.0635098818897638
0
LINE
8
BLACK
6
CONTINUOUS
10
-0.2255522440944882
20
-0.0635098818897638
11
-0.2247375984251968
21
-0.0626952362204724
0
LINE
8
BLACK
6
CONTINUOUS
10
-0.2247375984251968
20
-0.0626952362204724
11
-0.2236731889763779
21
-0.0622543307086614
0
LINE
8
BLACK
6
CONTINUOUS
10
-0.2236731889763779
20
-0.0622543307086614
11
-0.222521062992126
21
-0.0622543307086614
0
LINE
8
BLACK
6
CONTINUOUS
10
-0.222521062992126
20
-0.0622543307086614
11
-0.2214566535433071
21
-0.0626952362204724
0
LINE
8
BLACK
6
CONTINUOUS
10
-0.2201443700787402
20
-0.0819733464566929
11
-0.2201443700787402
21
-0.1008207480314961
0
LINE
8
BLACK
6
CONTINUOUS
10
-0.2201443700787402
20
-0.1008207480314961
11
-0.2186505511811024
21
-0.1015676771653543
0
LINE
8
BLACK
6
CONTINUOUS
10
-0.2186505511811024
20
-0.1015676771653543
11
-0.2125455905511811
21
-0.1015676771653543
0
LINE
8
BLACK
6
CONTINUOUS
10
-0.2125455905511811
20
-0.1015676771653543
11
-0.2098481496062992
21
-0.100218937007874
0
LINE
8
BLACK
6
CONTINUOUS
10
-0.2098481496062992
20
-0.100218937007874
11
-0.2086510236220472
21
-0.0990217716535433
0
LINE
8
BLACK
6
CONTINUOUS
10
-0.2086510236220472
20
-0.0990217716535433
11
-0.2073022440944882
21
-0.0963242913385827
0
LINE
8
BLACK
6
CONTINUOUS
10
-0.2073022440944882
20
-0.0963242913385827
11
-0.2073022440944882
21
-0.0864698031496063
0
LINE
8
BLACK
6
CONTINUOUS
10
-0.2073022440944882
20
-0.0864698031496063
11
-0.2086509842519685
21
-0.0837723228346457
0
LINE
8
BLACK
6
CONTINUOUS
10
-0.2086509842519685
20
-0.0837723228346457
11
-0.2098481102362205
21
-0.0825751968503937
0
LINE
8
BLACK
6
CONTINUOUS
10
-0.2098481102362205
20
-0.0825751968503937
11
-0.2125455905511811
21
-0.0812264566929134
0
LINE
8
BLACK
6
CONTINUOUS
10
-0.2125455905511811
20
-0.0812264566929134
11
-0.2186505511811024
21
-0.0812264566929134
0
LINE
8
BLACK
6
CONTINUOUS
10
-0.2186505511811024
20
-0.0812264566929134
11
-0.2201443700787402
21
-0.0819733464566929
0
LINE
8
BLACK
6
CONTINUOUS
10
-0.1737771653543307
20
-0.0753776771653543
11
-0.1736791732283464
21
-0.0754182677165354
0
LINE
8
BLACK
6
CONTINUOUS
10
-0.1736791732283464
20
-0.0754182677165354
11
-0.1735733464566929
21
-0.0754257874015748
0
LINE
8
BLACK
6
CONTINUOUS
10
-0.1735733464566929
20
-0.0754257874015748
11
-0.1730327165354331
21
-0.0756326771653543
0
LINE
8
BLACK
6
CONTINUOUS
10
-0.1730327165354331
20
-0.0756326771653543
11
-0.169283188976378
21
-0.0775074409448819
0
LINE
8
BLACK
6
CONTINUOUS
10
-0.169283188976378
20
-0.0775074409448819
11
-0.1687933070866142
21
-0.0778157874015748
0
LINE
8
BLACK
6
CONTINUOUS
10
-0.1687933070866142
20
-0.0778157874015748
11
-0.1680384645669291
21
-0.0786861811023622
0
LINE
8
BLACK
6
CONTINUOUS
10
-0.1680384645669291
20
-0.0786861811023622
11
-0.1676741338582677
21
-0.0797791338582677
0
LINE
8
BLACK
6
CONTINUOUS
10
-0.1676741338582677
20
-0.0797791338582677
11
-0.1677557874015748
21
-0.0809283464566929
0
LINE
8
BLACK
6
CONTINUOUS
10
-0.1677557874015748
20
-0.0809283464566929
11
-0.168271062992126
21
-0.0819588582677165
0
LINE
8
BLACK
6
CONTINUOUS
10
-0.168271062992126
20
-0.0819588582677165
11
-0.1691414173228346
21
-0.0827137007874016
0
LINE
8
BLACK
6
CONTINUOUS
10
-0.1691414173228346
20
-0.0827137007874016
11
-0.1702344094488189
21
-0.083078031496063
0
LINE
8
BLACK
6
CONTINUOUS
10
-0.1702344094488189
20
-0.083078031496063
11
-0.1713836220472441
21
-0.0829963779527559
0
LINE
8
BLACK
6
CONTINUOUS
10
-0.1713836220472441
20
-0.0829963779527559
11
-0.1719242125984252
21
-0.0827894881889764
0
LINE
8
BLACK
6
CONTINUOUS
10
-0.1719242125984252
20
-0.0827894881889764
11
-0.1750502755905512
21
-0.0812264566929134
0
LINE
8
BLACK
6
CONTINUOUS
10
-0.1750502755905512
20
-0.0812264566929134
11
-0.1811552362204724
21
-0.0812264566929134
0
LINE
8
BLACK
6
CONTINUOUS
10
-0.1811552362204724
20
-0.0812264566929134
11
-0.1834009842519685
21
-0.0823492913385827
0
LINE
8
BLACK
6
CONTINUOUS
10
-0.1834009842519685
20
-0.0823492913385827
11
-0.1845238188976378
21
-0.0845950393700787
0
LINE
8
BLACK
6
CONTINUOUS
10
-0.1845238188976378
20
-0.0845950393700787
11
-0.1845238188976378
21
-0.0858225984251968
0
LINE
8
BLACK
6
CONTINUOUS
10
-0.1845238188976378
20
-0.0858225984251968
11
-0.18303
21
-0.0865695275590551
0
LINE
8
BLACK
6
CONTINUOUS
10
-0.18303
20
-0.0865695275590551
11
-0.1743532283464567
21
-0.0865695275590551
0
LINE
8
BLACK
6
CONTINUOUS
10
-0.1743532283464567
20
-0.0865695275590551
11
-0.1737771653543307
21
-0.0866262598425197
0
LINE
8
BLACK
6
CONTINUOUS
10
-0.1737771653543307
20
-0.0866262598425197
11
-0.1736791732283464
21
-0.0866668503937008
0
LINE
8
BLACK
6
CONTINUOUS
10
-0.1736791732283464
20
-0.0866668503937008
11
-0.1735733464566929
21
-0.0866743700787402
0
LINE
8
BLACK
6
CONTINUOUS
10
-0.1735733464566929
20
-0.0866743700787402
11
-0.1730327165354331
21
-0.0868812598425197
0
LINE
8
BLACK
6
CONTINUOUS
10
-0.1730327165354331
20
-0.0868812598425197
11
-0.169283188976378
21
-0.0887560236220472
0
LINE
8
BLACK
6
CONTINUOUS
10
-0.169283188976378
20
-0.0887560236220472
11
-0.1691868503937008
21
-0.0888166535433071
0
LINE
8
BLACK
6
CONTINUOUS
10
-0.1691868503937008
20
-0.0888166535433071
11
-0.1691414173228346
21
-0.088831811023622
0
LINE
8
BLACK
6
CONTINUOUS
10
-0.1691414173228346
20
-0.088831811023622
11
-0.1690848818897638
21
-0.0888808267716535
0
LINE
8
BLACK
6
CONTINUOUS
10
-0.1690848818897638
20
-0.0888808267716535
11
-0.1687933070866142
21
-0.0890643700787402
0
LINE
8
BLACK
6
CONTINUOUS
10
-0.1687933070866142
20
-0.0890643700787402
11
-0.1685507480314961
21
-0.0893440551181102
0
LINE
8
BLACK
6
CONTINUOUS
10
-0.1685507480314961
20
-0.0893440551181102
11
-0.1682710236220472
21
-0.0895866535433071
0
LINE
8
BLACK
6
CONTINUOUS
10
-0.1682710236220472
20
-0.0895866535433071
11
-0.1680875196850394
21
-0.0898781889763779
0
LINE
8
BLACK
6
CONTINUOUS
10
-0.1680875196850394
20
-0.0898781889763779
11
-0.1680384645669291
21
-0.0899347637795276
0
LINE
8
BLACK
6
CONTINUOUS
10
-0.1680384645669291
20
-0.0899347637795276
11
-0.1680233464566929
21
-0.089980157480315
0
LINE
8
BLACK
6
CONTINUOUS
10
-0.1680233464566929
20
-0.089980157480315
11
-0.1679626771653543
21
-0.0900765354330709
0
LINE
8
BLACK
6
CONTINUOUS
10
-0.1679626771653543
20
-0.0900765354330709
11
-0.1660879133858268
21
-0.093826062992126
0
LINE
8
BLACK
6
CONTINUOUS
10
-0.1660879133858268
20
-0.093826062992126
11
-0.1658810236220472
21
-0.0943666535433071
0
LINE
8
BLACK
6
CONTINUOUS
10
-0.1658810236220472
20
-0.0943666535433071
11
-0.1658735039370079
21
-0.0944725196850394
0
LINE
8
BLACK
6
CONTINUOUS
10
-0.1658735039370079
20
-0.0944725196850394
11
-0.1658329133858268
21
-0.0945705118110236
0
LINE
8
BLACK
6
CONTINUOUS
10
-0.1658329133858268
20
-0.0945705118110236
11
-0.1657761811023622
21
-0.0951465748031496
0
LINE
8
BLACK
6
CONTINUOUS
10
-0.1657761811023622
20
-0.0951465748031496
11
-0.1657761811023622
21
-0.0988961023622047
0
LINE
8
BLACK
6
CONTINUOUS
10
-0.1657761811023622
20
-0.0988961023622047
11
-0.1658329133858268
21
-0.0994721653543307
0
LINE
8
BLACK
6
CONTINUOUS
10
-0.1658329133858268
20
-0.0994721653543307
11
-0.1658735433070866
21
-0.099570157480315
0
LINE
8
BLACK
6
CONTINUOUS
10
-0.1658735433070866
20
-0.099570157480315
11
-0.1658810236220472
21
-0.0996759842519685
0
LINE
8
BLACK
6
CONTINUOUS
10
-0.1658810236220472
20
-0.0996759842519685
11
-0.1660879133858268
21
-0.1002166141732283
0
LINE
8
BLACK
6
CONTINUOUS
10
-0.1660879133858268
20
-0.1002166141732283
11
-0.1679626771653543
21
-0.1039661811023622
0
LINE
8
BLACK
6
CONTINUOUS
10
-0.1679626771653543
20
-0.1039661811023622
11
-0.1680233464566929
21
-0.1040625196850394
0
LINE
8
BLACK
6
CONTINUOUS
10
-0.1680233464566929
20
-0.1040625196850394
11
-0.1680384645669291
21
-0.1041079527559055
0
LINE
8
BLACK
6
CONTINUOUS
10
-0.1680384645669291
20
-0.1041079527559055
11
-0.1680875196850394
21
-0.1041644881889764
0
LINE
8
BLACK
6
CONTINUOUS
10
-0.1680875196850394
20
-0.1041644881889764
11
-0.1682710236220472
21
-0.104456062992126
0
LINE
8
BLACK
6
CONTINUOUS
10
-0.1682710236220472
20
-0.104456062992126
11
-0.1685507480314961
21
-0.1046986220472441
0
LINE
8
BLACK
6
CONTINUOUS
10
-0.1685507480314961
20
-0.1046986220472441
11
-0.1687933070866142
21
-0.1049783464566929
0
LINE
8
BLACK
6
CONTINUOUS
10
-0.1687933070866142
20
-0.1049783464566929
11
-0.1690848818897638
21
-0.1051618503937008
0
LINE
8
BLACK
6
CONTINUOUS
10
-0.1690848818897638
20
-0.1051618503937008
11
-0.1691414173228346
21
-0.105210905511811
0
LINE
8
BLACK
6
CONTINUOUS
10
-0.1691414173228346
20
-0.105210905511811
11
-0.1691868503937008
21
-0.1052260236220472
0
LINE
8
BLACK
6
CONTINUOUS
10
-0.1691868503937008
20
-0.1052260236220472
11
-0.169283188976378
21
-0.1052866929133858
0
LINE
8
BLACK
6
CONTINUOUS
10
-0.169283188976378
20
-0.1052866929133858
11
-0.1730327165354331
21
-0.1071614566929134
0
LINE
8
BLACK
6
CONTINUOUS
10
-0.1730327165354331
20
-0.1071614566929134
11
-0.1735733464566929
21
-0.1073683464566929
0
LINE
8
BLACK
6
CONTINUOUS
10
-0.1735733464566929
20
-0.1073683464566929
11
-0.1736791732283464
21
-0.1073758267716535
0
LINE
8
BLACK
6
CONTINUOUS
10
-0.1736791732283464
20
-0.1073758267716535
11
-0.1737771653543307
21
-0.1074164566929134
0
LINE
8
BLACK
6
CONTINUOUS
10
-0.1737771653543307
20
-0.1074164566929134
11
-0.1743532283464567
21
-0.1074731889763779
0
LINE
8
BLACK
6
CONTINUOUS
10
-0.1743532283464567
20
-0.1074731889763779
11
-0.1837270472440945
21
-0.1074731889763779
0
LINE
8
BLACK
6
CONTINUOUS
10
-0.1837270472440945
20
-0.1074731889763779
11
-0.1843031102362205
21
-0.1074164566929134
0
LINE
8
BLACK
6
CONTINUOUS
10
-0.1843031102362205
20
-0.1074164566929134
11
-0.1844011023622047
21
-0.1073758661417323
0
LINE
8
BLACK
6
CONTINUOUS
10
-0.1844011023622047
20
-0.1073758661417323
11
-0.184506968503937
21
-0.1073683464566929
0
LINE
8
BLACK
6
CONTINUOUS
10
-0.184506968503937
20
-0.1073683464566929
11
-0.1850475590551181
21
-0.1071614566929134
0
LINE
8
BLACK
6
CONTINUOUS
10
-0.1850475590551181
20
-0.1071614566929134
11
-0.1856972047244095
21
-0.1068366141732283
0
LINE
8
BLACK
6
CONTINUOUS
10
-0.1856972047244095
20
-0.1068366141732283
11
-0.1858361023622047
21
-0.1069755511811024
0
LINE
8
BLACK
6
CONTINUOUS
10
-0.1858361023622047
20
-0.1069755511811024
11
-0.1869005118110236
21
-0.1074164566929134
0
LINE
8
BLACK
6
CONTINUOUS
10
-0.1869005118110236
20
-0.1074164566929134
11
-0.1880526377952756
21
-0.1074164566929134
0
LINE
8
BLACK
6
CONTINUOUS
10
-0.1880526377952756
20
-0.1074164566929134
11
-0.1891170472440945
21
-0.1069755511811024
0
LINE
8
BLACK
6
CONTINUOUS
10
-0.1891170472440945
20
-0.1069755511811024
11
-0.1899316929133858
21
-0.106160905511811
0
LINE
8
BLACK
6
CONTINUOUS
10
-0.1899316929133858
20
-0.106160905511811
11
-0.1903725984251969
21
-0.1050964960629921
0
LINE
8
BLACK
6
CONTINUOUS
10
-0.1903725984251969
20
-0.1050964960629921
11
-0.1904293307086614
21
-0.1045204330708661
0
LINE
8
BLACK
6
CONTINUOUS
10
-0.1904293307086614
20
-0.1045204330708661
11
-0.1904293307086614
21
-0.0838979921259843
0
LINE
8
BLACK
6
CONTINUOUS
10
-0.1904293307086614
20
-0.0838979921259843
11
-0.1903725984251969
21
-0.0833219291338583
0
LINE
8
BLACK
6
CONTINUOUS
10
-0.1903725984251969
20
-0.0833219291338583
11
-0.1903320078740157
21
-0.0832238976377953
0
LINE
8
BLACK
6
CONTINUOUS
10
-0.1903320078740157
20
-0.0832238976377953
11
-0.1903244881889764
21
-0.0831181102362205
0
LINE
8
BLACK
6
CONTINUOUS
10
-0.1903244881889764
20
-0.0831181102362205
11
-0.1901175984251968
21
-0.0825774803149606
0
LINE
8
BLACK
6
CONTINUOUS
10
-0.1901175984251968
20
-0.0825774803149606
11
-0.1882428346456693
21
-0.0788279527559055
0
LINE
8
BLACK
6
CONTINUOUS
10
-0.1882428346456693
20
-0.0788279527559055
11
-0.1881822047244094
21
-0.0787315748031496
0
LINE
8
BLACK
6
CONTINUOUS
10
-0.1881822047244094
20
-0.0787315748031496
11
-0.1881670472440945
21
-0.0786861811023622
0
LINE
8
BLACK
6
CONTINUOUS
10
-0.1881670472440945
20
-0.0786861811023622
11
-0.188118031496063
21
-0.0786296062992126
0
LINE
8
BLACK
6
CONTINUOUS
10
-0.188118031496063
20
-0.0786296062992126
11
-0.1879344881889764
21
-0.0783380708661417
0
LINE
8
BLACK
6
CONTINUOUS
10
-0.1879344881889764
20
-0.0783380708661417
11
-0.1876548031496063
21
-0.0780954724409449
0
LINE
8
BLACK
6
CONTINUOUS
10
-0.1876548031496063
20
-0.0780954724409449
11
-0.1874122047244094
21
-0.0778157874015748
0
LINE
8
BLACK
6
CONTINUOUS
10
-0.1874122047244094
20
-0.0778157874015748
11
-0.1871206692913386
21
-0.0776322440944882
0
LINE
8
BLACK
6
CONTINUOUS
10
-0.1871206692913386
20
-0.0776322440944882
11
-0.187064094488189
21
-0.0775832283464567
0
LINE
8
BLACK
6
CONTINUOUS
10
-0.187064094488189
20
-0.0775832283464567
11
-0.1870187007874016
21
-0.0775680708661417
0
LINE
8
BLACK
6
CONTINUOUS
10
-0.1870187007874016
20
-0.0775680708661417
11
-0.1869223228346457
21
-0.0775074409448819
0
LINE
8
BLACK
6
CONTINUOUS
10
-0.1869223228346457
20
-0.0775074409448819
11
-0.1831727952755905
21
-0.0756326771653543
0
LINE
8
BLACK
6
CONTINUOUS
10
-0.1831727952755905
20
-0.0756326771653543
11
-0.1826322047244094
21
-0.0754257874015748
0
LINE
8
BLACK
6
CONTINUOUS
10
-0.1826322047244094
20
-0.0754257874015748
11
-0.1825263385826772
21
-0.0754182283464567
0
LINE
8
BLACK
6
CONTINUOUS
10
-0.1825263385826772
20
-0.0754182283464567
11
-0.1824283464566929
21
-0.0753776771653543
0
LINE
8
BLACK
6
CONTINUOUS
10
-0.1824283464566929
20
-0.0753776771653543
11
-0.1818522834645669
21
-0.0753209448818898
0
LINE
8
BLACK
6
CONTINUOUS
10
-0.1818522834645669
20
-0.0753209448818898
11
-0.1743532283464567
21
-0.0753209448818898
0
LINE
8
BLACK
6
CONTINUOUS
10
-0.1743532283464567
20
-0.0753209448818898
11
-0.1737771653543307
21
-0.0753776771653543
0
LINE
8
BLACK
6
CONTINUOUS
10
-0.1845238188976378
20
-0.1008207480314961
11
-0.18303
21
-0.1015676771653543
0
LINE
8
BLACK
6
CONTINUOUS
10
-0.18303
20
-0.1015676771653543
11
-0.1750502755905512
21
-0.1015676771653543
0
LINE
8
BLACK
6
CONTINUOUS
10
-0.1750502755905512
20
-0.1015676771653543
11
-0.1728045669291338
21
-0.1004448031496063
0
LINE
8
BLACK
6
CONTINUOUS
10
-0.1728045669291338
20
-0.1004448031496063
11
-0.1716816929133858
21
-0.0981990551181102
0
LINE
8
BLACK
6
CONTINUOUS
10
-0.1716816929133858
20
-0.0981990551181102
11
-0.1716816929133858
21
-0.0958436220472441
0
LINE
8
BLACK
6
CONTINUOUS
10
-0.1716816929133858
20
-0.0958436220472441
11
-0.1728045669291338
21
-0.093597874015748
0
LINE
8
BLACK
6
CONTINUOUS
10
-0.1728045669291338
20
-0.093597874015748
11
-0.1750502755905512
21
-0.0924750393700787
0
LINE
8
BLACK
6
CONTINUOUS
10
-0.1750502755905512
20
-0.0924750393700787
11
-0.1837270472440945
21
-0.0924750393700787
0
LINE
8
BLACK
6
CONTINUOUS
10
-0.1837270472440945
20
-0.0924750393700787
11
-0.1843031102362205
21
-0.0924183070866142
0
LINE
8
BLACK
6
CONTINUOUS
10
-0.1843031102362205
20
-0.0924183070866142
11
-0.1844011023622047
21
-0.0923777165354331
0
LINE
8
BLACK
6
CONTINUOUS
10
-0.1844011023622047
20
-0.0923777165354331
11
-0.184506968503937
21
-0.0923701968503937
0
LINE
8
BLACK
6
CONTINUOUS
10
-0.184506968503937
20
-0.0923701968503937
11
-0.1845238188976378
21
-0.0923637401574803
0
LINE
8
BLACK
6
CONTINUOUS
10
-0.1845238188976378
20
-0.0923637401574803
11
-0.1845238188976378
21
-0.1008207480314961
0
LINE
8
BLACK
6
CONTINUOUS
10
-0.1306575590551181
20
-0.0622543307086614
11
-0.1295931496062992
21
-0.0626952362204724
0
LINE
8
BLACK
6
CONTINUOUS
10
-0.1295931496062992
20
-0.0626952362204724
11
-0.1287785039370079
21
-0.0635098818897638
0
LINE
8
BLACK
6
CONTINUOUS
10
-0.1287785039370079
20
-0.0635098818897638
11
-0.1283375984251968
21
-0.0645742913385827
0
LINE
8
BLACK
6
CONTINUOUS
10
-0.1283375984251968
20
-0.0645742913385827
11
-0.1282808661417323
21
-0.0651503543307087
0
LINE
8
BLACK
6
CONTINUOUS
10
-0.1282808661417323
20
-0.0651503543307087
11
-0.1282808661417323
21
-0.1045204330708661
0
LINE
8
BLACK
6
CONTINUOUS
10
-0.1282808661417323
20
-0.1045204330708661
11
-0.1283375984251968
21
-0.1050964960629921
0
LINE
8
BLACK
6
CONTINUOUS
10
-0.1283375984251968
20
-0.1050964960629921
11
-0.1287785039370079
21
-0.106160905511811
0
LINE
8
BLACK
6
CONTINUOUS
10
-0.1287785039370079
20
-0.106160905511811
11
-0.1295931496062992
21
-0.1069755511811024
0
LINE
8
BLACK
6
CONTINUOUS
10
-0.1295931496062992
20
-0.1069755511811024
11
-0.1306575590551181
21
-0.1074164566929134
0
LINE
8
BLACK
6
CONTINUOUS
10
-0.1306575590551181
20
-0.1074164566929134
11
-0.1318096850393701
21
-0.1074164566929134
0
LINE
8
BLACK
6
CONTINUOUS
10
-0.1318096850393701
20
-0.1074164566929134
11
-0.132874094488189
21
-0.1069755511811024
0
LINE
8
BLACK
6
CONTINUOUS
10
-0.132874094488189
20
-0.1069755511811024
11
-0.1336887401574803
21
-0.106160905511811
0
LINE
8
BLACK
6
CONTINUOUS
10
-0.1336887401574803
20
-0.106160905511811
11
-0.1341296456692913
21
-0.1050964960629921
0
LINE
8
BLACK
6
CONTINUOUS
10
-0.1341296456692913
20
-0.1050964960629921
11
-0.1341863779527559
21
-0.1045204330708661
0
LINE
8
BLACK
6
CONTINUOUS
10
-0.1341863779527559
20
-0.1045204330708661
11
-0.1341863779527559
21
-0.0887255118110236
0
LINE
8
BLACK
6
CONTINUOUS
10
-0.1341863779527559
20
-0.0887255118110236
11
-0.1462317322834646
21
-0.0887255118110236
0
LINE
8
BLACK
6
CONTINUOUS
10
-0.1462317322834646
20
-0.0887255118110236
11
-0.1468077952755905
21
-0.0886687795275591
0
LINE
8
BLACK
6
CONTINUOUS
10
-0.1468077952755905
20
-0.0886687795275591
11
-0.1469057874015748
21
-0.0886281889763779
0
LINE
8
BLACK
6
CONTINUOUS
10
-0.1469057874015748
20
-0.0886281889763779
11
-0.1470116535433071
21
-0.0886206692913386
0
LINE
8
BLACK
6
CONTINUOUS
10
-0.1470116535433071
20
-0.0886206692913386
11
-0.1475522440944882
21
-0.088413779527559
0
LINE
8
BLACK
6
CONTINUOUS
10
-0.1475522440944882
20
-0.088413779527559
11
-0.1513017716535433
21
-0.0865390157480315
0
LINE
8
BLACK
6
CONTINUOUS
10
-0.1513017716535433
20
-0.0865390157480315
11
-0.1515498031496063
21
-0.0863829133858268
0
LINE
8
BLACK
6
CONTINUOUS
10
-0.1515498031496063
20
-0.0863829133858268
11
-0.1516217322834646
21
-0.0863531102362205
0
LINE
8
BLACK
6
CONTINUOUS
10
-0.1516217322834646
20
-0.0863531102362205
11
-0.1517027165354331
21
-0.0862866141732283
0
LINE
8
BLACK
6
CONTINUOUS
10
-0.1517027165354331
20
-0.0862866141732283
11
-0.1517916535433071
21
-0.0862306692913386
0
LINE
8
BLACK
6
CONTINUOUS
10
-0.1517916535433071
20
-0.0862306692913386
11
-0.1518428346456693
21
-0.0861716535433071
0
LINE
8
BLACK
6
CONTINUOUS
10
-0.1518428346456693
20
-0.0861716535433071
11
-0.1520691732283465
21
-0.085985905511811
0
LINE
8
BLACK
6
CONTINUOUS
10
-0.1520691732283465
20
-0.085985905511811
11
-0.153943937007874
21
-0.0841111417322835
0
LINE
8
BLACK
6
CONTINUOUS
10
-0.153943937007874
20
-0.0841111417322835
11
-0.1541297244094488
21
-0.0838847637795276
0
LINE
8
BLACK
6
CONTINUOUS
10
-0.1541297244094488
20
-0.0838847637795276
11
-0.1541887007874016
21
-0.0838336220472441
0
LINE
8
BLACK
6
CONTINUOUS
10
-0.1541887007874016
20
-0.0838336220472441
11
-0.1542446850393701
21
-0.0837446456692913
0
LINE
8
BLACK
6
CONTINUOUS
10
-0.1542446850393701
20
-0.0837446456692913
11
-0.1543111417322835
21
-0.0836637007874016
0
LINE
8
BLACK
6
CONTINUOUS
10
-0.1543111417322835
20
-0.0836637007874016
11
-0.1543409842519685
21
-0.0835917322834646
0
LINE
8
BLACK
6
CONTINUOUS
10
-0.1543409842519685
20
-0.0835917322834646
11
-0.1544970472440945
21
-0.0833437401574803
0
LINE
8
BLACK
6
CONTINUOUS
10
-0.1544970472440945
20
-0.0833437401574803
11
-0.156371811023622
21
-0.0795942125984252
0
LINE
8
BLACK
6
CONTINUOUS
10
-0.156371811023622
20
-0.0795942125984252
11
-0.1565787007874016
21
-0.0790535826771653
0
LINE
8
BLACK
6
CONTINUOUS
10
-0.1565787007874016
20
-0.0790535826771653
11
-0.1565862204724409
21
-0.0789477559055118
0
LINE
8
BLACK
6
CONTINUOUS
10
-0.1565862204724409
20
-0.0789477559055118
11
-0.1566268110236221
21
-0.0788497637795276
0
LINE
8
BLACK
6
CONTINUOUS
10
-0.1566268110236221
20
-0.0788497637795276
11
-0.1566835433070866
21
-0.0782737007874016
0
LINE
8
BLACK
6
CONTINUOUS
10
-0.1566835433070866
20
-0.0782737007874016
11
-0.1566835433070866
21
-0.0726494094488189
0
LINE
8
BLACK
6
CONTINUOUS
10
-0.1566835433070866
20
-0.0726494094488189
11
-0.1566268110236221
21
-0.0720733464566929
0
LINE
8
BLACK
6
CONTINUOUS
10
-0.1566268110236221
20
-0.0720733464566929
11
-0.1565862204724409
21
-0.0719753149606299
0
LINE
8
BLACK
6
CONTINUOUS
10
-0.1565862204724409
20
-0.0719753149606299
11
-0.1565787007874016
21
-0.0718695275590551
0
LINE
8
BLACK
6
CONTINUOUS
10
-0.1565787007874016
20
-0.0718695275590551
11
-0.156371811023622
21
-0.0713288976377953
0
LINE
8
BLACK
6
CONTINUOUS
10
-0.156371811023622
20
-0.0713288976377953
11
-0.1544970472440945
21
-0.0675793700787402
0
LINE
8
BLACK
6
CONTINUOUS
10
-0.1544970472440945
20
-0.0675793700787402
11
-0.1543409842519685
21
-0.0673313385826772
0
LINE
8
BLACK
6
CONTINUOUS
10
-0.1543409842519685
20
-0.0673313385826772
11
-0.1543111417322835
21
-0.0672594094488189
0
LINE
8
BLACK
6
CONTINUOUS
10
-0.1543111417322835
20
-0.0672594094488189
11
-0.1542446850393701
21
-0.0671784251968504
0
LINE
8
BLACK
6
CONTINUOUS
10
-0.1542446850393701
20
-0.0671784251968504
11
-0.1541887007874016
21
-0.0670894881889764
0
LINE
8
BLACK
6
CONTINUOUS
10
-0.1541887007874016
20
-0.0670894881889764
11
-0.1541297244094488
21
-0.0670383070866142
0
LINE
8
BLACK
6
CONTINUOUS
10
-0.1541297244094488
20
-0.0670383070866142
11
-0.153943937007874
21
-0.066811968503937
0
LINE
8
BLACK
6
CONTINUOUS
10
-0.153943937007874
20
-0.066811968503937
11
-0.1520691732283465
21
-0.0649372047244094
0
LINE
8
BLACK
6
CONTINUOUS
10
-0.1520691732283465
20
-0.0649372047244094
11
-0.1518428346456693
21
-0.0647514173228346
0
LINE
8
BLACK
6
CONTINUOUS
10
-0.1518428346456693
20
-0.0647514173228346
11
-0.1517916535433071
21
-0.0646924409448819
0
LINE
8
BLACK
6
CONTINUOUS
10
-0.1517916535433071
20
-0.0646924409448819
11
-0.1517027165354331
21
-0.0646364566929134
0
LINE
8
BLACK
6
CONTINUOUS
10
-0.1517027165354331
20
-0.0646364566929134
11
-0.1516217322834646
21
-0.06457
0
LINE
8
BLACK
6
CONTINUOUS
10
-0.1516217322834646
20
-0.06457
11
-0.1515498031496063
21
-0.064540157480315
0
LINE
8
BLACK
6
CONTINUOUS
10
-0.1515498031496063
20
-0.064540157480315
11
-0.1513017716535433
21
-0.064384094488189
0
LINE
8
BLACK
6
CONTINUOUS
10
-0.1513017716535433
20
-0.064384094488189
11
-0.1475522440944882
21
-0.0625093307086614
0
LINE
8
BLACK
6
CONTINUOUS
10
-0.1475522440944882
20
-0.0625093307086614
11
-0.1470116535433071
21
-0.0623024409448819
0
LINE
8
BLACK
6
CONTINUOUS
10
-0.1470116535433071
20
-0.0623024409448819
11
-0.1469057874015748
21
-0.0622948818897638
0
LINE
8
BLACK
6
CONTINUOUS
10
-0.1469057874015748
20
-0.0622948818897638
11
-0.1468077952755905
21
-0.0622543307086614
0
LINE
8
BLACK
6
CONTINUOUS
10
-0.1468077952755905
20
-0.0622543307086614
11
-0.1462317322834646
21
-0.0621975984251968
0
LINE
8
BLACK
6
CONTINUOUS
10
-0.1462317322834646
20
-0.0621975984251968
11
-0.1312336220472441
21
-0.0621975984251968
0
LINE
8
BLACK
6
CONTINUOUS
10
-0.1312336220472441
20
-0.0621975984251968
11
-0.1306575590551181
21
-0.0622543307086614
0
LINE
8
BLACK
6
CONTINUOUS
10
-0.1482321653543307
20
-0.0694518503937008
11
-0.1494292913385827
21
-0.0706489763779528
0
LINE
8
BLACK
6
CONTINUOUS
10
-0.1494292913385827
20
-0.0706489763779528
11
-0.150778031496063
21
-0.0733464566929134
0
LINE
8
BLACK
6
CONTINUOUS
10
-0.150778031496063
20
-0.0733464566929134
11
-0.150778031496063
21
-0.0775766535433071
0
LINE
8
BLACK
6
CONTINUOUS
10
-0.150778031496063
20
-0.0775766535433071
11
-0.1494292913385827
21
-0.0802741338582677
0
LINE
8
BLACK
6
CONTINUOUS
10
-0.1494292913385827
20
-0.0802741338582677
11
-0.1482321653543307
21
-0.0814712598425197
0
LINE
8
BLACK
6
CONTINUOUS
10
-0.1482321653543307
20
-0.0814712598425197
11
-0.1455346850393701
21
-0.08282
0
LINE
8
BLACK
6
CONTINUOUS
10
-0.1455346850393701
20
-0.08282
11
-0.1341863779527559
21
-0.08282
0
LINE
8
BLACK
6
CONTINUOUS
10
-0.1341863779527559
20
-0.08282
11
-0.1341863779527559
21
-0.0681031102362205
0
LINE
8
BLACK
6
CONTINUOUS
10
-0.1341863779527559
20
-0.0681031102362205
11
-0.1455346850393701
21
-0.0681031102362205
0
LINE
8
BLACK
6
CONTINUOUS
10
-0.1455346850393701
20
-0.0681031102362205
11
-0.1482321653543307
21
-0.0694518503937008
0
LINE
8
BLACK
6
CONTINUOUS
10
0.1932887401574803
20
-0.055475157480315
11
0.1941033858267716
21
-0.0562898031496063
0
LINE
8
BLACK
6
CONTINUOUS
10
0.1941033858267716
20
-0.0562898031496063
11
0.1945442913385827
21
-0.0573542125984252
0
LINE
8
BLACK
6
CONTINUOUS
10
0.1945442913385827
20
-0.0573542125984252
11
0.1946010236220472
21
-0.0579302755905512
0
LINE
8
BLACK
6
CONTINUOUS
10
0.1946010236220472
20
-0.0579302755905512
11
0.1946010236220472
21
-0.0879265354330709
0
LINE
8
BLACK
6
CONTINUOUS
10
0.1946010236220472
20
-0.0879265354330709
11
0.1945442913385827
21
-0.0885025984251969
0
LINE
8
BLACK
6
CONTINUOUS
10
0.1945442913385827
20
-0.0885025984251969
11
0.1941033858267716
21
-0.0895670078740158
0
LINE
8
BLACK
6
CONTINUOUS
10
0.1941033858267716
20
-0.0895670078740158
11
0.1932887401574803
21
-0.0903816535433071
0
LINE
8
BLACK
6
CONTINUOUS
10
0.1932887401574803
20
-0.0903816535433071
11
0.1922243307086614
21
-0.0908225590551181
0
LINE
8
BLACK
6
CONTINUOUS
10
0.1922243307086614
20
-0.0908225590551181
11
0.1910722047244094
21
-0.0908225590551181
0
LINE
8
BLACK
6
CONTINUOUS
10
0.1910722047244094
20
-0.0908225590551181
11
0.1900077952755906
21
-0.0903816535433071
0
LINE
8
BLACK
6
CONTINUOUS
10
0.1900077952755906
20
-0.0903816535433071
11
0.1891931496062992
21
-0.0895670078740158
0
LINE
8
BLACK
6
CONTINUOUS
10
0.1891931496062992
20
-0.0895670078740158
11
0.1887522440944882
21
-0.0885025984251969
0
LINE
8
BLACK
6
CONTINUOUS
10
0.1887522440944882
20
-0.0885025984251969
11
0.1886955118110236
21
-0.0879265354330709
0
LINE
8
BLACK
6
CONTINUOUS
10
0.1886955118110236
20
-0.0879265354330709
11
0.1886955118110236
21
-0.0579302755905512
0
LINE
8
BLACK
6
CONTINUOUS
10
0.1886955118110236
20
-0.0579302755905512
11
0.1887522440944882
21
-0.0573542125984252
0
LINE
8
BLACK
6
CONTINUOUS
10
0.1887522440944882
20
-0.0573542125984252
11
0.1891931496062992
21
-0.0562898031496063
0
LINE
8
BLACK
6
CONTINUOUS
10
0.1891931496062992
20
-0.0562898031496063
11
0.1900077952755906
21
-0.055475157480315
0
LINE
8
BLACK
6
CONTINUOUS
10
0.1900077952755906
20
-0.055475157480315
11
0.1910722047244094
21
-0.0550342519685039
0
LINE
8
BLACK
6
CONTINUOUS
10
0.1910722047244094
20
-0.0550342519685039
11
0.1922243307086614
21
-0.0550342519685039
0
LINE
8
BLACK
6
CONTINUOUS
10
0.1922243307086614
20
-0.0550342519685039
11
0.1932887401574803
21
-0.055475157480315
0
LINE
8
BLACK
6
CONTINUOUS
10
0.0911207086614173
20
0.003490157480315
11
0.0912555511811024
21
0.0028121653543307
0
LINE
8
BLACK
6
CONTINUOUS
10
0.0912555511811024
20
0.0028121653543307
11
0.0912555511811024
21
-0.0118109842519685
0
LINE
8
BLACK
6
CONTINUOUS
10
0.0912555511811024
20
-0.0118109842519685
11
0.0911207086614173
21
-0.0124889763779528
0
LINE
8
BLACK
6
CONTINUOUS
10
0.0911207086614173
20
-0.0124889763779528
11
0.0901618897637795
21
-0.0134477952755906
0
LINE
8
BLACK
6
CONTINUOUS
10
0.0901618897637795
20
-0.0134477952755906
11
0.088805905511811
21
-0.0134477952755906
0
LINE
8
BLACK
6
CONTINUOUS
10
0.088805905511811
20
-0.0134477952755906
11
0.0878470866141732
21
-0.0124889763779528
0
LINE
8
BLACK
6
CONTINUOUS
10
0.0878470866141732
20
-0.0124889763779528
11
0.0877122440944882
21
-0.0118109842519685
0
LINE
8
BLACK
6
CONTINUOUS
10
0.0877122440944882
20
-0.0118109842519685
11
0.0877122440944882
21
-0.001465
0
LINE
8
BLACK
6
CONTINUOUS
10
0.0877122440944882
20
-0.001465
11
0.0772383464566929
21
-0.0119388976377953
0
LINE
8
BLACK
6
CONTINUOUS
10
0.0772383464566929
20
-0.0119388976377953
11
0.0771645275590551
21
-0.011988188976378
0
LINE
8
BLACK
6
CONTINUOUS
10
0.0771645275590551
20
-0.011988188976378
11
0.0771463779527559
21
-0.0120245669291339
0
LINE
8
BLACK
6
CONTINUOUS
10
0.0771463779527559
20
-0.0120245669291339
11
0.0768997244094488
21
-0.012165157480315
0
LINE
8
BLACK
6
CONTINUOUS
10
0.0768997244094488
20
-0.012165157480315
11
0.0766635826771654
21
-0.0123229527559055
0
LINE
8
BLACK
6
CONTINUOUS
10
0.0766635826771654
20
-0.0123229527559055
11
0.0766229133858268
21
-0.0123229527559055
0
LINE
8
BLACK
6
CONTINUOUS
10
0.0766229133858268
20
-0.0123229527559055
11
0.0765458267716535
21
-0.0123668897637795
0
LINE
8
BLACK
6
CONTINUOUS
10
0.0765458267716535
20
-0.0123668897637795
11
0.0731712598425197
21
-0.0134917322834646
0
LINE
8
BLACK
6
CONTINUOUS
10
0.0731712598425197
20
-0.0134917322834646
11
0.0728894881889764
21
-0.0135272440944882
0
LINE
8
BLACK
6
CONTINUOUS
10
0.0728894881889764
20
-0.0135272440944882
11
0.0726110236220472
21
-0.0135826377952756
0
LINE
8
BLACK
6
CONTINUOUS
10
0.0726110236220472
20
-0.0135826377952756
11
0.0703612992125984
21
-0.0135826377952756
0
LINE
8
BLACK
6
CONTINUOUS
10
0.0703612992125984
20
-0.0135826377952756
11
0.0702742913385827
21
-0.0135653149606299
0
LINE
8
BLACK
6
CONTINUOUS
10
0.0702742913385827
20
-0.0135653149606299
11
0.0702357480314961
21
-0.013578188976378
0
LINE
8
BLACK
6
CONTINUOUS
10
0.0702357480314961
20
-0.013578188976378
11
0.0699618503937008
21
-0.013503188976378
0
LINE
8
BLACK
6
CONTINUOUS
10
0.0699618503937008
20
-0.013503188976378
11
0.0696833070866142
21
-0.0134477952755906
0
LINE
8
BLACK
6
CONTINUOUS
10
0.0696833070866142
20
-0.0134477952755906
11
0.0696545275590551
21
-0.0134190157480315
0
LINE
8
BLACK
6
CONTINUOUS
10
0.0696545275590551
20
-0.0134190157480315
11
0.0695690157480315
21
-0.0133956299212598
0
LINE
8
BLACK
6
CONTINUOUS
10
0.0695690157480315
20
-0.0133956299212598
11
0.0673192913385827
21
-0.0122707480314961
0
LINE
8
BLACK
6
CONTINUOUS
10
0.0673192913385827
20
-0.0122707480314961
11
0.0670947637795276
21
-0.0120965354330709
0
LINE
8
BLACK
6
CONTINUOUS
10
0.0670947637795276
20
-0.0120965354330709
11
0.0668588582677165
21
-0.0119388976377953
0
LINE
8
BLACK
6
CONTINUOUS
10
0.0668588582677165
20
-0.0119388976377953
11
0.0657339763779528
21
-0.0108140551181102
0
LINE
8
BLACK
6
CONTINUOUS
10
0.0657339763779528
20
-0.0108140551181102
11
0.0655761811023622
21
-0.0105779527559055
0
LINE
8
BLACK
6
CONTINUOUS
10
0.0655761811023622
20
-0.0105779527559055
11
0.0654020866141732
21
-0.0103536220472441
0
LINE
8
BLACK
6
CONTINUOUS
10
0.0654020866141732
20
-0.0103536220472441
11
0.0642772440944882
21
-0.0081038582677165
0
LINE
8
BLACK
6
CONTINUOUS
10
0.0642772440944882
20
-0.0081038582677165
11
0.0642538188976378
21
-0.0080183464566929
0
LINE
8
BLACK
6
CONTINUOUS
10
0.0642538188976378
20
-0.0080183464566929
11
0.0642250393700787
21
-0.0079895669291339
0
LINE
8
BLACK
6
CONTINUOUS
10
0.0642250393700787
20
-0.0079895669291339
11
0.0641696062992126
21
-0.0077108661417323
0
LINE
8
BLACK
6
CONTINUOUS
10
0.0641696062992126
20
-0.0077108661417323
11
0.0640946456692913
21
-0.0074371653543307
0
LINE
8
BLACK
6
CONTINUOUS
10
0.0640946456692913
20
-0.0074371653543307
11
0.0641074803149606
21
-0.0073985826771654
0
LINE
8
BLACK
6
CONTINUOUS
10
0.0641074803149606
20
-0.0073985826771654
11
0.0640901968503937
21
-0.0073115748031496
0
LINE
8
BLACK
6
CONTINUOUS
10
0.0640901968503937
20
-0.0073115748031496
11
0.0640901968503937
21
-0.0016872834645669
0
LINE
8
BLACK
6
CONTINUOUS
10
0.0640901968503937
20
-0.0016872834645669
11
0.0641074803149606
21
-0.0016002362204724
0
LINE
8
BLACK
6
CONTINUOUS
10
0.0641074803149606
20
-0.0016002362204724
11
0.0640946456692913
21
-0.0015616929133858
0
LINE
8
BLACK
6
CONTINUOUS
10
0.0640946456692913
20
-0.0015616929133858
11
0.0641696062992126
21
-0.0012879527559055
0
LINE
8
BLACK
6
CONTINUOUS
10
0.0641696062992126
20
-0.0012879527559055
11
0.0642250393700787
21
-0.0010092913385827
0
LINE
8
BLACK
6
CONTINUOUS
10
0.0642250393700787
20
-0.0010092913385827
11
0.0642538188976378
21
-0.0009804724409449
0
LINE
8
BLACK
6
CONTINUOUS
10
0.0642538188976378
20
-0.0009804724409449
11
0.0642772440944882
21
-0.000895
0
LINE
8
BLACK
6
CONTINUOUS
10
0.0642772440944882
20
-0.000895
11
0.0654020866141732
21
0.0013547637795276
0
LINE
8
BLACK
6
CONTINUOUS
10
0.0654020866141732
20
0.0013547637795276
11
0.0655761023622047
21
0.0015790157480315
0
LINE
8
BLACK
6
CONTINUOUS
10
0.0655761023622047
20
0.0015790157480315
11
0.065733937007874
21
0.0018151968503937
0
LINE
8
BLACK
6
CONTINUOUS
10
0.065733937007874
20
0.0018151968503937
11
0.0668588188976378
21
0.0029400787401575
0
LINE
8
BLACK
6
CONTINUOUS
10
0.0668588188976378
20
0.0029400787401575
11
0.0674335826771654
21
0.0033241338582677
0
LINE
8
BLACK
6
CONTINUOUS
10
0.0674335826771654
20
0.0033241338582677
11
0.0687895669291339
21
0.0033241338582677
0
LINE
8
BLACK
6
CONTINUOUS
10
0.0687895669291339
20
0.0033241338582677
11
0.0697483858267716
21
0.0023653149606299
0
LINE
8
BLACK
6
CONTINUOUS
10
0.0697483858267716
20
0.0023653149606299
11
0.0697483858267716
21
0.0010093307086614
0
LINE
8
BLACK
6
CONTINUOUS
10
0.0697483858267716
20
0.0010093307086614
11
0.0693643307086614
21
0.0004345669291339
0
LINE
8
BLACK
6
CONTINUOUS
10
0.0693643307086614
20
0.0004345669291339
11
0.0684427165354331
21
-0.0004870078740157
0
LINE
8
BLACK
6
CONTINUOUS
10
0.0684427165354331
20
-0.0004870078740157
11
0.0676335039370079
21
-0.0021054724409449
0
LINE
8
BLACK
6
CONTINUOUS
10
0.0676335039370079
20
-0.0021054724409449
11
0.0676335039370079
21
-0.0068933464566929
0
LINE
8
BLACK
6
CONTINUOUS
10
0.0676335039370079
20
-0.0068933464566929
11
0.0684427559055118
21
-0.0085118897637795
0
LINE
8
BLACK
6
CONTINUOUS
10
0.0684427559055118
20
-0.0085118897637795
11
0.069161062992126
21
-0.0092301181102362
0
LINE
8
BLACK
6
CONTINUOUS
10
0.069161062992126
20
-0.0092301181102362
11
0.0707795275590551
21
-0.0100393307086614
0
LINE
8
BLACK
6
CONTINUOUS
10
0.0707795275590551
20
-0.0100393307086614
11
0.0723235039370079
21
-0.0100393307086614
0
LINE
8
BLACK
6
CONTINUOUS
10
0.0723235039370079
20
-0.0100393307086614
11
0.0750285433070866
21
-0.0091376377952756
0
LINE
8
BLACK
6
CONTINUOUS
10
0.0750285433070866
20
-0.0091376377952756
11
0.0882311417322835
21
0.0040649212598425
0
LINE
8
BLACK
6
CONTINUOUS
10
0.0882311417322835
20
0.0040649212598425
11
0.088805905511811
21
0.0044489763779528
0
LINE
8
BLACK
6
CONTINUOUS
10
0.088805905511811
20
0.0044489763779528
11
0.0901618897637795
21
0.0044489763779528
0
LINE
8
BLACK
6
CONTINUOUS
10
0.0901618897637795
20
0.0044489763779528
11
0.0911207086614173
21
0.003490157480315
0
LINE
8
BLACK
6
CONTINUOUS
10
0.0674986614173228
20
0.0226127952755906
11
0.0676335039370079
21
0.0219348031496063
0
LINE
8
BLACK
6
CONTINUOUS
10
0.0676335039370079
20
0.0219348031496063
11
0.0676335039370079
21
0.0169572834645669
0
LINE
8
BLACK
6
CONTINUOUS
10
0.0676335039370079
20
0.0169572834645669
11
0.0894838976377953
21
0.0169572834645669
0
LINE
8
BLACK
6
CONTINUOUS
10
0.0894838976377953
20
0.0169572834645669
11
0.0901618897637795
21
0.0168224409448819
0
LINE
8
BLACK
6
CONTINUOUS
10
0.0901618897637795
20
0.0168224409448819
11
0.0911207086614173
21
0.0158636220472441
0
LINE
8
BLACK
6
CONTINUOUS
10
0.0911207086614173
20
0.0158636220472441
11
0.0911207086614173
21
0.0145076377952756
0
LINE
8
BLACK
6
CONTINUOUS
10
0.0911207086614173
20
0.0145076377952756
11
0.0901618897637795
21
0.0135488188976378
0
LINE
8
BLACK
6
CONTINUOUS
10
0.0901618897637795
20
0.0135488188976378
11
0.0894838976377953
21
0.0134139763779528
0
LINE
8
BLACK
6
CONTINUOUS
10
0.0894838976377953
20
0.0134139763779528
11
0.0676335039370079
21
0.0134139763779528
0
LINE
8
BLACK
6
CONTINUOUS
10
0.0676335039370079
20
0.0134139763779528
11
0.0676335039370079
21
0.0084364566929134
0
LINE
8
BLACK
6
CONTINUOUS
10
0.0676335039370079
20
0.0084364566929134
11
0.0674986614173228
21
0.0077584645669291
0
LINE
8
BLACK
6
CONTINUOUS
10
0.0674986614173228
20
0.0077584645669291
11
0.066539842519685
21
0.0067996456692913
0
LINE
8
BLACK
6
CONTINUOUS
10
0.066539842519685
20
0.0067996456692913
11
0.0651838582677165
21
0.0067996456692913
0
LINE
8
BLACK
6
CONTINUOUS
10
0.0651838582677165
20
0.0067996456692913
11
0.0642250393700787
21
0.0077584645669291
0
LINE
8
BLACK
6
CONTINUOUS
10
0.0642250393700787
20
0.0077584645669291
11
0.0640901968503937
21
0.0084364566929134
0
LINE
8
BLACK
6
CONTINUOUS
10
0.0640901968503937
20
0.0084364566929134
11
0.0640901968503937
21
0.0219348031496063
0
LINE
8
BLACK
6
CONTINUOUS
10
0.0640901968503937
20
0.0219348031496063
11
0.0642250393700787
21
0.0226127952755906
0
LINE
8
BLACK
6
CONTINUOUS
10
0.0642250393700787
20
0.0226127952755906
11
0.0651838582677165
21
0.0235716141732283
0
LINE
8
BLACK
6
CONTINUOUS
10
0.0651838582677165
20
0.0235716141732283
11
0.066539842519685
21
0.0235716141732283
0
LINE
8
BLACK
6
CONTINUOUS
10
0.066539842519685
20
0.0235716141732283
11
0.0674986614173228
21
0.0226127952755906
0
LINE
8
BLACK
6
CONTINUOUS
10
0.1548871653543307
20
0.0606769291338583
11
0.1559525196850394
21
0.0596115748031496
0
LINE
8
BLACK
6
CONTINUOUS
10
0.1559525196850394
20
0.0596115748031496
11
0.1561023622047244
21
0.0588582677165354
0
LINE
8
BLACK
6
CONTINUOUS
10
0.1561023622047244
20
0.0588582677165354
11
0.1561023622047244
21
-0.0509842519685039
0
LINE
8
BLACK
6
CONTINUOUS
10
0.1561023622047244
20
-0.0509842519685039
11
0.1559525196850394
21
-0.0517375590551181
0
LINE
8
BLACK
6
CONTINUOUS
10
0.1559525196850394
20
-0.0517375590551181
11
0.1548871653543307
21
-0.0528029133858268
0
LINE
8
BLACK
6
CONTINUOUS
10
0.1548871653543307
20
-0.0528029133858268
11
0.1541338582677165
21
-0.0529527559055118
0
LINE
8
BLACK
6
CONTINUOUS
10
0.1541338582677165
20
-0.0529527559055118
11
0.0033464566929134
21
-0.0529527559055118
0
LINE
8
BLACK
6
CONTINUOUS
10
0.0033464566929134
20
-0.0529527559055118
11
0.0025931496062992
21
-0.0528029133858268
0
LINE
8
BLACK
6
CONTINUOUS
10
0.0025931496062992
20
-0.0528029133858268
11
0.0015277952755906
21
-0.0517375590551181
0
LINE
8
BLACK
6
CONTINUOUS
10
0.0015277952755906
20
-0.0517375590551181
11
0.0013779527559055
21
-0.0509842519685039
0
LINE
8
BLACK
6
CONTINUOUS
10
0.0013779527559055
20
-0.0509842519685039
11
0.0013779527559055
21
0.0313976377952756
0
LINE
8
BLACK
6
CONTINUOUS
10
0.0013779527559055
20
0.0313976377952756
11
0.0015277952755906
21
0.0321509448818898
0
LINE
8
BLACK
6
CONTINUOUS
10
0.0015277952755906
20
0.0321509448818898
11
0.0019545275590551
21
0.0327895669291339
0
LINE
8
BLACK
6
CONTINUOUS
10
0.0019545275590551
20
0.0327895669291339
11
0.029415157480315
21
0.0602501968503937
0
LINE
8
BLACK
6
CONTINUOUS
10
0.029415157480315
20
0.0602501968503937
11
0.0300537795275591
21
0.0606769291338583
0
LINE
8
BLACK
6
CONTINUOUS
10
0.0300537795275591
20
0.0606769291338583
11
0.0308070866141732
21
0.0608267716535433
0
LINE
8
BLACK
6
CONTINUOUS
10
0.0308070866141732
20
0.0608267716535433
11
0.1541338582677165
21
0.0608267716535433
0
LINE
8
BLACK
6
CONTINUOUS
10
0.1541338582677165
20
0.0608267716535433
11
0.1548871653543307
21
0.0606769291338583
0
LINE
8
BLACK
6
CONTINUOUS
10
0.0316224409448819
20
0.0568897637795276
11
0.0053149606299213
21
0.0305822834645669
0
LINE
8
BLACK
6
CONTINUOUS
10
0.0053149606299213
20
0.0305822834645669
11
0.0053149606299213
21
-0.0490157480314961
0
LINE
8
BLACK
6
CONTINUOUS
10
0.0053149606299213
20
-0.0490157480314961
11
0.1521653543307087
21
-0.0490157480314961
0
LINE
8
BLACK
6
CONTINUOUS
10
0.1521653543307087
20
-0.0490157480314961
11
0.1521653543307087
21
0.0568897637795276
0
LINE
8
BLACK
6
CONTINUOUS
10
0.1521653543307087
20
0.0568897637795276
11
0.0316224409448819
21
0.0568897637795276
0
LINE
8
BLACK
6
CONTINUOUS
10
0.1793048031496063
20
-0.0157122834645669
11
0.1803353149606299
21
-0.0162275590551181
0
LINE
8
BLACK
6
CONTINUOUS
10
0.1803353149606299
20
-0.0162275590551181
11
0.181090157480315
21
-0.0170979133858268
0
LINE
8
BLACK
6
CONTINUOUS
10
0.181090157480315
20
-0.0170979133858268
11
0.1814544881889764
21
-0.018190905511811
0
LINE
8
BLACK
6
CONTINUOUS
10
0.1814544881889764
20
-0.018190905511811
11
0.1813728346456693
21
-0.0193401181102362
0
LINE
8
BLACK
6
CONTINUOUS
10
0.1813728346456693
20
-0.0193401181102362
11
0.1811659448818898
21
-0.0198807086614173
0
LINE
8
BLACK
6
CONTINUOUS
10
0.1811659448818898
20
-0.0198807086614173
11
0.1792911811023622
21
-0.0236302362204724
0
LINE
8
BLACK
6
CONTINUOUS
10
0.1792911811023622
20
-0.0236302362204724
11
0.1791351574803149
21
-0.023878031496063
0
LINE
8
BLACK
6
CONTINUOUS
10
0.1791351574803149
20
-0.023878031496063
11
0.1791053149606299
21
-0.0239501968503937
0
LINE
8
BLACK
6
CONTINUOUS
10
0.1791053149606299
20
-0.0239501968503937
11
0.1790387007874016
21
-0.0240313385826772
0
LINE
8
BLACK
6
CONTINUOUS
10
0.1790387007874016
20
-0.0240313385826772
11
0.1789828346456693
21
-0.0241201181102362
0
LINE
8
BLACK
6
CONTINUOUS
10
0.1789828346456693
20
-0.0241201181102362
11
0.1789238976377953
21
-0.0241712204724409
0
LINE
8
BLACK
6
CONTINUOUS
10
0.1789238976377953
20
-0.0241712204724409
11
0.1787380708661417
21
-0.0243976377952756
0
LINE
8
BLACK
6
CONTINUOUS
10
0.1787380708661417
20
-0.0243976377952756
11
0.1762796850393701
21
-0.0268560236220472
0
LINE
8
BLACK
6
CONTINUOUS
10
0.1762796850393701
20
-0.0268560236220472
11
0.2036936614173228
21
-0.0268560236220472
0
LINE
8
BLACK
6
CONTINUOUS
10
0.2036936614173228
20
-0.0268560236220472
11
0.2036936614173228
21
-0.0185601968503937
0
LINE
8
BLACK
6
CONTINUOUS
10
0.2036936614173228
20
-0.0185601968503937
11
0.2037503937007874
21
-0.0179841338582677
0
LINE
8
BLACK
6
CONTINUOUS
10
0.2037503937007874
20
-0.0179841338582677
11
0.2041912992125984
21
-0.0169197244094488
0
LINE
8
BLACK
6
CONTINUOUS
10
0.2041912992125984
20
-0.0169197244094488
11
0.2050059448818898
21
-0.0161050787401575
0
LINE
8
BLACK
6
CONTINUOUS
10
0.2050059448818898
20
-0.0161050787401575
11
0.2060703543307087
21
-0.0156641732283465
0
LINE
8
BLACK
6
CONTINUOUS
10
0.2060703543307087
20
-0.0156641732283465
11
0.2072224803149606
21
-0.0156641732283465
0
LINE
8
BLACK
6
CONTINUOUS
10
0.2072224803149606
20
-0.0156641732283465
11
0.2082868897637795
21
-0.0161050787401575
0
LINE
8
BLACK
6
CONTINUOUS
10
0.2082868897637795
20
-0.0161050787401575
11
0.2091015354330709
21
-0.0169197244094488
0
LINE
8
BLACK
6
CONTINUOUS
10
0.2091015354330709
20
-0.0169197244094488
11
0.2095424409448819
21
-0.0179841338582677
0
LINE
8
BLACK
6
CONTINUOUS
10
0.2095424409448819
20
-0.0179841338582677
11
0.2095991732283465
21
-0.0185601968503937
0
LINE
8
BLACK
6
CONTINUOUS
10
0.2095991732283465
20
-0.0185601968503937
11
0.2095991732283465
21
-0.0410573622047244
0
LINE
8
BLACK
6
CONTINUOUS
10
0.2095991732283465
20
-0.0410573622047244
11
0.2095424409448819
21
-0.0416334251968504
0
LINE
8
BLACK
6
CONTINUOUS
10
0.2095424409448819
20
-0.0416334251968504
11
0.2091015354330709
21
-0.0426978346456693
0
LINE
8
BLACK
6
CONTINUOUS
10
0.2091015354330709
20
-0.0426978346456693
11
0.2082868897637795
21
-0.0435124803149606
0
LINE
8
BLACK
6
CONTINUOUS
10
0.2082868897637795
20
-0.0435124803149606
11
0.2072224803149606
21
-0.0439533858267717
0
LINE
8
BLACK
6
CONTINUOUS
10
0.2072224803149606
20
-0.0439533858267717
11
0.2060703543307087
21
-0.0439533858267717
0
LINE
8
BLACK
6
CONTINUOUS
10
0.2060703543307087
20
-0.0439533858267717
11
0.2050059448818898
21
-0.0435124803149606
0
LINE
8
BLACK
6
CONTINUOUS
10
0.2050059448818898
20
-0.0435124803149606
11
0.2041912992125984
21
-0.0426978346456693
0
LINE
8
BLACK
6
CONTINUOUS
10
0.2041912992125984
20
-0.0426978346456693
11
0.2037503937007874
21
-0.0416334251968504
0
LINE
8
BLACK
6
CONTINUOUS
10
0.2037503937007874
20
-0.0416334251968504
11
0.2036936614173228
21
-0.0410573622047244
0
LINE
8
BLACK
6
CONTINUOUS
10
0.2036936614173228
20
-0.0410573622047244
11
0.2036936614173228
21
-0.0327615354330709
0
LINE
8
BLACK
6
CONTINUOUS
10
0.2036936614173228
20
-0.0327615354330709
11
0.1672763385826772
21
-0.0327615354330709
0
LINE
8
BLACK
6
CONTINUOUS
10
0.1672763385826772
20
-0.0327615354330709
11
0.1672742519685039
21
-0.0327612992125984
0
LINE
8
BLACK
6
CONTINUOUS
10
0.1672742519685039
20
-0.0327612992125984
11
0.1672732283464567
21
-0.0327615354330709
0
LINE
8
BLACK
6
CONTINUOUS
10
0.1672732283464567
20
-0.0327615354330709
11
0.1672701968503937
21
-0.032760905511811
0
LINE
8
BLACK
6
CONTINUOUS
10
0.1672701968503937
20
-0.032760905511811
11
0.1667002755905512
21
-0.0327048031496063
0
LINE
8
BLACK
6
CONTINUOUS
10
0.1667002755905512
20
-0.0327048031496063
11
0.1664301574803149
21
-0.0325929133858268
0
LINE
8
BLACK
6
CONTINUOUS
10
0.1664301574803149
20
-0.0325929133858268
11
0.1661435433070866
21
-0.0325355905511811
0
LINE
8
BLACK
6
CONTINUOUS
10
0.1661435433070866
20
-0.0325355905511811
11
0.1659031496062992
21
-0.0323746062992126
0
LINE
8
BLACK
6
CONTINUOUS
10
0.1659031496062992
20
-0.0323746062992126
11
0.1656358661417323
21
-0.0322638976377953
0
LINE
8
BLACK
6
CONTINUOUS
10
0.1656358661417323
20
-0.0322638976377953
11
0.1654291338582677
21
-0.0320571653543307
0
LINE
8
BLACK
6
CONTINUOUS
10
0.1654291338582677
20
-0.0320571653543307
11
0.1651862598425197
21
-0.0318945275590551
0
LINE
8
BLACK
6
CONTINUOUS
10
0.1651862598425197
20
-0.0318945275590551
11
0.1650257480314961
21
-0.0316537795275591
0
LINE
8
BLACK
6
CONTINUOUS
10
0.1650257480314961
20
-0.0316537795275591
11
0.1648212204724409
21
-0.0314492519685039
0
LINE
8
BLACK
6
CONTINUOUS
10
0.1648212204724409
20
-0.0314492519685039
11
0.1647093307086614
21
-0.0311791338582677
0
LINE
8
BLACK
6
CONTINUOUS
10
0.1647093307086614
20
-0.0311791338582677
11
0.1645471653543307
21
-0.030935905511811
0
LINE
8
BLACK
6
CONTINUOUS
10
0.1645471653543307
20
-0.030935905511811
11
0.1644910236220472
21
-0.0306520866141732
0
LINE
8
BLACK
6
CONTINUOUS
10
0.1644910236220472
20
-0.0306520866141732
11
0.1643803149606299
21
-0.030384842519685
0
LINE
8
BLACK
6
CONTINUOUS
10
0.1643803149606299
20
-0.030384842519685
11
0.1643803149606299
21
-0.0300924409448819
0
LINE
8
BLACK
6
CONTINUOUS
10
0.1643803149606299
20
-0.0300924409448819
11
0.1643235826771653
21
-0.0298056692913386
0
LINE
8
BLACK
6
CONTINUOUS
10
0.1643235826771653
20
-0.0298056692913386
11
0.1643803149606299
21
-0.0295220078740157
0
LINE
8
BLACK
6
CONTINUOUS
10
0.1643803149606299
20
-0.0295220078740157
11
0.1643803149606299
21
-0.0292327165354331
0
LINE
8
BLACK
6
CONTINUOUS
10
0.1643803149606299
20
-0.0292327165354331
11
0.1644921653543307
21
-0.0289625984251968
0
LINE
8
BLACK
6
CONTINUOUS
10
0.1644921653543307
20
-0.0289625984251968
11
0.1645495275590551
21
-0.0286759842519685
0
LINE
8
BLACK
6
CONTINUOUS
10
0.1645495275590551
20
-0.0286759842519685
11
0.1647104724409449
21
-0.0284355905511811
0
LINE
8
BLACK
6
CONTINUOUS
10
0.1647104724409449
20
-0.0284355905511811
11
0.1648212204724409
21
-0.0281683070866142
0
LINE
8
BLACK
6
CONTINUOUS
10
0.1648212204724409
20
-0.0281683070866142
11
0.1650279133858268
21
-0.0279615748031496
0
LINE
8
BLACK
6
CONTINUOUS
10
0.1650279133858268
20
-0.0279615748031496
11
0.1651905905511811
21
-0.0277187007874016
0
LINE
8
BLACK
6
CONTINUOUS
10
0.1651905905511811
20
-0.0277187007874016
11
0.1656338188976378
21
-0.0273556692913386
0
LINE
8
BLACK
6
CONTINUOUS
10
0.1656338188976378
20
-0.0273556692913386
11
0.1656358661417323
21
-0.0273536614173228
0
LINE
8
BLACK
6
CONTINUOUS
10
0.1656358661417323
20
-0.0273536614173228
11
0.1656367322834646
21
-0.0273532677165354
0
LINE
8
BLACK
6
CONTINUOUS
10
0.1656367322834646
20
-0.0273532677165354
11
0.1656384251968504
21
-0.0273519291338583
0
LINE
8
BLACK
6
CONTINUOUS
10
0.1656384251968504
20
-0.0273519291338583
11
0.1710194488188976
21
-0.0237645669291339
0
LINE
8
BLACK
6
CONTINUOUS
10
0.1710194488188976
20
-0.0237645669291339
11
0.1742234251968504
21
-0.0205606299212598
0
LINE
8
BLACK
6
CONTINUOUS
10
0.1742234251968504
20
-0.0205606299212598
11
0.1758838976377953
21
-0.0172396850393701
0
LINE
8
BLACK
6
CONTINUOUS
10
0.1758838976377953
20
-0.0172396850393701
11
0.1761922440944882
21
-0.0167498031496063
0
LINE
8
BLACK
6
CONTINUOUS
10
0.1761922440944882
20
-0.0167498031496063
11
0.1770626377952756
21
-0.0159949606299213
0
LINE
8
BLACK
6
CONTINUOUS
10
0.1770626377952756
20
-0.0159949606299213
11
0.1781555905511811
21
-0.0156306299212598
0
LINE
8
BLACK
6
CONTINUOUS
10
0.1781555905511811
20
-0.0156306299212598
11
0.1793048031496063
21
-0.0157122834645669
0
LINE
8
BLACK
6
CONTINUOUS
10
0.1932887401574803
20
0.0307640551181102
11
0.1941033858267716
21
0.0299494094488189
0
LINE
8
BLACK
6
CONTINUOUS
10
0.1941033858267716
20
0.0299494094488189
11
0.1945442913385827
21
0.028885
0
LINE
8
BLACK
6
CONTINUOUS
10
0.1945442913385827
20
0.028885
11
0.1946010236220472
21
0.028308937007874
0
LINE
8
BLACK
6
CONTINUOUS
10
0.1946010236220472
20
0.028308937007874
11
0.1946010236220472
21
-0.0016873228346457
0
LINE
8
BLACK
6
CONTINUOUS
10
0.1946010236220472
20
-0.0016873228346457
11
0.1945442913385827
21
-0.0022633858267717
0
LINE
8
BLACK
6
CONTINUOUS
10
0.1945442913385827
20
-0.0022633858267717
11
0.1941033858267716
21
-0.0033277952755906
0
LINE
8
BLACK
6
CONTINUOUS
10
0.1941033858267716
20
-0.0033277952755906
11
0.1932887401574803
21
-0.0041424409448819
0
LINE
8
BLACK
6
CONTINUOUS
10
0.1932887401574803
20
-0.0041424409448819
11
0.1922243307086614
21
-0.0045833464566929
0
LINE
8
BLACK
6
CONTINUOUS
10
0.1922243307086614
20
-0.0045833464566929
11
0.1910722047244094
21
-0.0045833464566929
0
LINE
8
BLACK
6
CONTINUOUS
10
0.1910722047244094
20
-0.0045833464566929
11
0.1900077952755906
21
-0.0041424409448819
0
LINE
8
BLACK
6
CONTINUOUS
10
0.1900077952755906
20
-0.0041424409448819
11
0.1891931496062992
21
-0.0033277952755906
0
LINE
8
BLACK
6
CONTINUOUS
10
0.1891931496062992
20
-0.0033277952755906
11
0.1887522440944882
21
-0.0022633858267717
0
LINE
8
BLACK
6
CONTINUOUS
10
0.1887522440944882
20
-0.0022633858267717
11
0.1886955118110236
21
-0.0016873228346457
0
LINE
8
BLACK
6
CONTINUOUS
10
0.1886955118110236
20
-0.0016873228346457
11
0.1886955118110236
21
0.028308937007874
0
LINE
8
BLACK
6
CONTINUOUS
10
0.1886955118110236
20
0.028308937007874
11
0.1887522440944882
21
0.028885
0
LINE
8
BLACK
6
CONTINUOUS
10
0.1887522440944882
20
0.028885
11
0.1891931496062992
21
0.0299494094488189
0
LINE
8
BLACK
6
CONTINUOUS
10
0.1891931496062992
20
0.0299494094488189
11
0.1900077952755906
21
0.0307640551181102
0
LINE
8
BLACK
6
CONTINUOUS
10
0.1900077952755906
20
0.0307640551181102
11
0.1910722047244094
21
0.0312049606299213
0
LINE
8
BLACK
6
CONTINUOUS
10
0.1910722047244094
20
0.0312049606299213
11
0.1922243307086614
21
0.0312049606299213
0
LINE
8
BLACK
6
CONTINUOUS
10
0.1922243307086614
20
0.0312049606299213
11
0.1932887401574803
21
0.0307640551181102
0
LINE
8
BLACK
6
CONTINUOUS
10
0.1793048031496063
20
0.0705269291338583
11
0.1803353149606299
21
0.0700116535433071
0
LINE
8
BLACK
6
CONTINUOUS
10
0.1803353149606299
20
0.0700116535433071
11
0.181090157480315
21
0.0691412992125984
0
LINE
8
BLACK
6
CONTINUOUS
10
0.181090157480315
20
0.0691412992125984
11
0.1814544881889764
21
0.0680483070866142
0
LINE
8
BLACK
6
CONTINUOUS
10
0.1814544881889764
20
0.0680483070866142
11
0.1813728346456693
21
0.066899094488189
0
LINE
8
BLACK
6
CONTINUOUS
10
0.1813728346456693
20
0.066899094488189
11
0.1811659448818898
21
0.0663585039370079
0
LINE
8
BLACK
6
CONTINUOUS
10
0.1811659448818898
20
0.0663585039370079
11
0.1792911811023622
21
0.0626089763779527
0
LINE
8
BLACK
6
CONTINUOUS
10
0.1792911811023622
20
0.0626089763779527
11
0.1791351574803149
21
0.0623611811023622
0
LINE
8
BLACK
6
CONTINUOUS
10
0.1791351574803149
20
0.0623611811023622
11
0.1791053149606299
21
0.0622890157480315
0
LINE
8
BLACK
6
CONTINUOUS
10
0.1791053149606299
20
0.0622890157480315
11
0.1790387007874016
21
0.062207874015748
0
LINE
8
BLACK
6
CONTINUOUS
10
0.1790387007874016
20
0.062207874015748
11
0.1789828346456693
21
0.062119094488189
0
LINE
8
BLACK
6
CONTINUOUS
10
0.1789828346456693
20
0.062119094488189
11
0.1789238976377953
21
0.0620679921259843
0
LINE
8
BLACK
6
CONTINUOUS
10
0.1789238976377953
20
0.0620679921259843
11
0.1787380708661417
21
0.0618415748031496
0
LINE
8
BLACK
6
CONTINUOUS
10
0.1787380708661417
20
0.0618415748031496
11
0.1762796850393701
21
0.059383188976378
0
LINE
8
BLACK
6
CONTINUOUS
10
0.1762796850393701
20
0.059383188976378
11
0.2036936614173228
21
0.059383188976378
0
LINE
8
BLACK
6
CONTINUOUS
10
0.2036936614173228
20
0.059383188976378
11
0.2036936614173228
21
0.0676790157480315
0
LINE
8
BLACK
6
CONTINUOUS
10
0.2036936614173228
20
0.0676790157480315
11
0.2037503937007874
21
0.0682550787401575
0
LINE
8
BLACK
6
CONTINUOUS
10
0.2037503937007874
20
0.0682550787401575
11
0.2041912992125984
21
0.0693194881889764
0
LINE
8
BLACK
6
CONTINUOUS
10
0.2041912992125984
20
0.0693194881889764
11
0.2050059448818898
21
0.0701341338582677
0
LINE
8
BLACK
6
CONTINUOUS
10
0.2050059448818898
20
0.0701341338582677
11
0.2060703543307087
21
0.0705750393700787
0
LINE
8
BLACK
6
CONTINUOUS
10
0.2060703543307087
20
0.0705750393700787
11
0.2072224803149606
21
0.0705750393700787
0
LINE
8
BLACK
6
CONTINUOUS
10
0.2072224803149606
20
0.0705750393700787
11
0.2082868897637795
21
0.0701341338582677
0
LINE
8
BLACK
6
CONTINUOUS
10
0.2082868897637795
20
0.0701341338582677
11
0.2091015354330709
21
0.0693194881889764
0
LINE
8
BLACK
6
CONTINUOUS
10
0.2091015354330709
20
0.0693194881889764
11
0.2095424409448819
21
0.0682550787401575
0
LINE
8
BLACK
6
CONTINUOUS
10
0.2095424409448819
20
0.0682550787401575
11
0.2095991732283465
21
0.0676790157480315
0
LINE
8
BLACK
6
CONTINUOUS
10
0.2095991732283465
20
0.0676790157480315
11
0.2095991732283465
21
0.0451818503937008
0
LINE
8
BLACK
6
CONTINUOUS
10
0.2095991732283465
20
0.0451818503937008
11
0.2095424409448819
21
0.0446057874015748
0
LINE
8
BLACK
6
CONTINUOUS
10
0.2095424409448819
20
0.0446057874015748
11
0.2091015354330709
21
0.0435413779527559
0
LINE
8
BLACK
6
CONTINUOUS
10
0.2091015354330709
20
0.0435413779527559
11
0.2082868897637795
21
0.0427267322834646
0
LINE
8
BLACK
6
CONTINUOUS
10
0.2082868897637795
20
0.0427267322834646
11
0.2072224803149606
21
0.0422858267716535
0
LINE
8
BLACK
6
CONTINUOUS
10
0.2072224803149606
20
0.0422858267716535
11
0.2060703543307087
21
0.0422858267716535
0
LINE
8
BLACK
6
CONTINUOUS
10
0.2060703543307087
20
0.0422858267716535
11
0.2050059448818898
21
0.0427267322834646
0
LINE
8
BLACK
6
CONTINUOUS
10
0.2050059448818898
20
0.0427267322834646
11
0.2041912992125984
21
0.0435413779527559
0
LINE
8
BLACK
6
CONTINUOUS
10
0.2041912992125984
20
0.0435413779527559
11
0.2037503937007874
21
0.0446057874015748
0
LINE
8
BLACK
6
CONTINUOUS
10
0.2037503937007874
20
0.0446057874015748
11
0.2036936614173228
21
0.0451818503937008
0
LINE
8
BLACK
6
CONTINUOUS
10
0.2036936614173228
20
0.0451818503937008
11
0.2036936614173228
21
0.0534776771653543
0
LINE
8
BLACK
6
CONTINUOUS
10
0.2036936614173228
20
0.0534776771653543
11
0.1672763385826772
21
0.0534776771653543
0
LINE
8
BLACK
6
CONTINUOUS
10
0.1672763385826772
20
0.0534776771653543
11
0.1672742519685039
21
0.0534779133858268
0
LINE
8
BLACK
6
CONTINUOUS
10
0.1672742519685039
20
0.0534779133858268
11
0.1672732283464567
21
0.0534776771653543
0
LINE
8
BLACK
6
CONTINUOUS
10
0.1672732283464567
20
0.0534776771653543
11
0.1672701968503937
21
0.0534783070866142
0
LINE
8
BLACK
6
CONTINUOUS
10
0.1672701968503937
20
0.0534783070866142
11
0.1667002755905512
21
0.0535344094488189
0
LINE
8
BLACK
6
CONTINUOUS
10
0.1667002755905512
20
0.0535344094488189
11
0.1664301574803149
21
0.0536462992125984
0
LINE
8
BLACK
6
CONTINUOUS
10
0.1664301574803149
20
0.0536462992125984
11
0.1661435433070866
21
0.0537036220472441
0
LINE
8
BLACK
6
CONTINUOUS
10
0.1661435433070866
20
0.0537036220472441
11
0.1659031496062992
21
0.0538646062992126
0
LINE
8
BLACK
6
CONTINUOUS
10
0.1659031496062992
20
0.0538646062992126
11
0.1656358661417323
21
0.0539753149606299
0
LINE
8
BLACK
6
CONTINUOUS
10
0.1656358661417323
20
0.0539753149606299
11
0.1654291338582677
21
0.0541820472440945
0
LINE
8
BLACK
6
CONTINUOUS
10
0.1654291338582677
20
0.0541820472440945
11
0.1651862598425197
21
0.0543446850393701
0
LINE
8
BLACK
6
CONTINUOUS
10
0.1651862598425197
20
0.0543446850393701
11
0.1650257480314961
21
0.0545854330708661
0
LINE
8
BLACK
6
CONTINUOUS
10
0.1650257480314961
20
0.0545854330708661
11
0.1648212204724409
21
0.0547899606299213
0
LINE
8
BLACK
6
CONTINUOUS
10
0.1648212204724409
20
0.0547899606299213
11
0.1647093307086614
21
0.0550600787401575
0
LINE
8
BLACK
6
CONTINUOUS
10
0.1647093307086614
20
0.0550600787401575
11
0.1645471653543307
21
0.0553033070866142
0
LINE
8
BLACK
6
CONTINUOUS
10
0.1645471653543307
20
0.0553033070866142
11
0.1644910236220472
21
0.055587125984252
0
LINE
8
BLACK
6
CONTINUOUS
10
0.1644910236220472
20
0.055587125984252
11
0.1643803149606299
21
0.0558543700787402
0
LINE
8
BLACK
6
CONTINUOUS
10
0.1643803149606299
20
0.0558543700787402
11
0.1643803149606299
21
0.0561467716535433
0
LINE
8
BLACK
6
CONTINUOUS
10
0.1643803149606299
20
0.0561467716535433
11
0.1643235826771653
21
0.0564335433070866
0
LINE
8
BLACK
6
CONTINUOUS
10
0.1643235826771653
20
0.0564335433070866
11
0.1643803149606299
21
0.0567172047244094
0
LINE
8
BLACK
6
CONTINUOUS
10
0.1643803149606299
20
0.0567172047244094
11
0.1643803149606299
21
0.0570064960629921
0
LINE
8
BLACK
6
CONTINUOUS
10
0.1643803149606299
20
0.0570064960629921
11
0.1644921653543307
21
0.0572766141732283
0
LINE
8
BLACK
6
CONTINUOUS
10
0.1644921653543307
20
0.0572766141732283
11
0.1645495275590551
21
0.0575632283464567
0
LINE
8
BLACK
6
CONTINUOUS
10
0.1645495275590551
20
0.0575632283464567
11
0.1647104724409449
21
0.0578036220472441
0
LINE
8
BLACK
6
CONTINUOUS
10
0.1647104724409449
20
0.0578036220472441
11
0.1648212204724409
21
0.058070905511811
0
LINE
8
BLACK
6
CONTINUOUS
10
0.1648212204724409
20
0.058070905511811
11
0.1650279133858268
21
0.0582776377952756
0
LINE
8
BLACK
6
CONTINUOUS
10
0.1650279133858268
20
0.0582776377952756
11
0.1651905905511811
21
0.0585205118110236
0
LINE
8
BLACK
6
CONTINUOUS
10
0.1651905905511811
20
0.0585205118110236
11
0.1656338188976378
21
0.0588835433070866
0
LINE
8
BLACK
6
CONTINUOUS
10
0.1656338188976378
20
0.0588835433070866
11
0.1656358661417323
21
0.0588855511811024
0
LINE
8
BLACK
6
CONTINUOUS
10
0.1656358661417323
20
0.0588855511811024
11
0.1656367322834646
21
0.0588859448818898
0
LINE
8
BLACK
6
CONTINUOUS
10
0.1656367322834646
20
0.0588859448818898
11
0.1656384251968504
21
0.0588872834645669
0
LINE
8
BLACK
6
CONTINUOUS
10
0.1656384251968504
20
0.0588872834645669
11
0.1710194488188976
21
0.0624746456692913
0
LINE
8
BLACK
6
CONTINUOUS
10
0.1710194488188976
20
0.0624746456692913
11
0.1742234251968504
21
0.0656785826771654
0
LINE
8
BLACK
6
CONTINUOUS
10
0.1742234251968504
20
0.0656785826771654
11
0.1758838976377953
21
0.0689995275590551
0
LINE
8
BLACK
6
CONTINUOUS
10
0.1758838976377953
20
0.0689995275590551
11
0.1761922440944882
21
0.0694894094488189
0
LINE
8
BLACK
6
CONTINUOUS
10
0.1761922440944882
20
0.0694894094488189
11
0.1770626377952756
21
0.0702442519685039
0
LINE
8
BLACK
6
CONTINUOUS
10
0.1770626377952756
20
0.0702442519685039
11
0.1781555905511811
21
0.0706085826771654
0
LINE
8
BLACK
6
CONTINUOUS
10
0.1781555905511811
20
0.0706085826771654
11
0.1793048031496063
21
0.0705269291338583
0
LINE
8
BLACK
6
CONTINUOUS
10
0.1328740551181102
20
0.118407125984252
11
0.1336887007874016
21
0.1175924803149606
0
LINE
8
BLACK
6
CONTINUOUS
10
0.1336887007874016
20
0.1175924803149606
11
0.1341296062992126
21
0.1165280708661417
0
LINE
8
BLACK
6
CONTINUOUS
10
0.1341296062992126
20
0.1165280708661417
11
0.1341863385826772
21
0.1159520078740157
0
LINE
8
BLACK
6
CONTINUOUS
10
0.1341863385826772
20
0.1159520078740157
11
0.1341863385826772
21
0.105670157480315
0
LINE
8
BLACK
6
CONTINUOUS
10
0.1341863385826772
20
0.105670157480315
11
0.134203188976378
21
0.1056765748031496
0
LINE
8
BLACK
6
CONTINUOUS
10
0.134203188976378
20
0.1056765748031496
11
0.1343090551181102
21
0.1056841338582677
0
LINE
8
BLACK
6
CONTINUOUS
10
0.1343090551181102
20
0.1056841338582677
11
0.1344070472440945
21
0.1057246850393701
0
LINE
8
BLACK
6
CONTINUOUS
10
0.1344070472440945
20
0.1057246850393701
11
0.1349831102362205
21
0.1057814173228346
0
LINE
8
BLACK
6
CONTINUOUS
10
0.1349831102362205
20
0.1057814173228346
11
0.1424821653543307
21
0.1057814173228346
0
LINE
8
BLACK
6
CONTINUOUS
10
0.1424821653543307
20
0.1057814173228346
11
0.1430582283464567
21
0.1057246850393701
0
LINE
8
BLACK
6
CONTINUOUS
10
0.1430582283464567
20
0.1057246850393701
11
0.1431562204724409
21
0.105684094488189
0
LINE
8
BLACK
6
CONTINUOUS
10
0.1431562204724409
20
0.105684094488189
11
0.1432620472440945
21
0.1056765748031496
0
LINE
8
BLACK
6
CONTINUOUS
10
0.1432620472440945
20
0.1056765748031496
11
0.1438026771653543
21
0.1054696850393701
0
LINE
8
BLACK
6
CONTINUOUS
10
0.1438026771653543
20
0.1054696850393701
11
0.1475522047244094
21
0.1035949212598425
0
LINE
8
BLACK
6
CONTINUOUS
10
0.1475522047244094
20
0.1035949212598425
11
0.1478001968503937
21
0.1034388582677165
0
LINE
8
BLACK
6
CONTINUOUS
10
0.1478001968503937
20
0.1034388582677165
11
0.1478721653543307
21
0.1034090157480315
0
LINE
8
BLACK
6
CONTINUOUS
10
0.1478721653543307
20
0.1034090157480315
11
0.1479531102362205
21
0.1033425590551181
0
LINE
8
BLACK
6
CONTINUOUS
10
0.1479531102362205
20
0.1033425590551181
11
0.1480420866141732
21
0.1032865748031496
0
LINE
8
BLACK
6
CONTINUOUS
10
0.1480420866141732
20
0.1032865748031496
11
0.1480932283464567
21
0.1032275984251969
0
LINE
8
BLACK
6
CONTINUOUS
10
0.1480932283464567
20
0.1032275984251969
11
0.1483196062992126
21
0.103041811023622
0
LINE
8
BLACK
6
CONTINUOUS
10
0.1483196062992126
20
0.103041811023622
11
0.1501943700787401
21
0.1011670472440945
0
LINE
8
BLACK
6
CONTINUOUS
10
0.1501943700787401
20
0.1011670472440945
11
0.1503801181102362
21
0.1009407086614173
0
LINE
8
BLACK
6
CONTINUOUS
10
0.1503801181102362
20
0.1009407086614173
11
0.1504391338582677
21
0.1008895275590551
0
LINE
8
BLACK
6
CONTINUOUS
10
0.1504391338582677
20
0.1008895275590551
11
0.1504950787401575
21
0.1008005905511811
0
LINE
8
BLACK
6
CONTINUOUS
10
0.1504950787401575
20
0.1008005905511811
11
0.1505615748031496
21
0.1007196062992126
0
LINE
8
BLACK
6
CONTINUOUS
10
0.1505615748031496
20
0.1007196062992126
11
0.1505913779527559
21
0.1006476771653543
0
LINE
8
BLACK
6
CONTINUOUS
10
0.1505913779527559
20
0.1006476771653543
11
0.1507474803149606
21
0.1003996456692913
0
LINE
8
BLACK
6
CONTINUOUS
10
0.1507474803149606
20
0.1003996456692913
11
0.1526222440944882
21
0.0966501181102362
0
LINE
8
BLACK
6
CONTINUOUS
10
0.1526222440944882
20
0.0966501181102362
11
0.1528291338582677
21
0.0961095275590551
0
LINE
8
BLACK
6
CONTINUOUS
10
0.1528291338582677
20
0.0961095275590551
11
0.1528366535433071
21
0.0960036614173228
0
LINE
8
BLACK
6
CONTINUOUS
10
0.1528366535433071
20
0.0960036614173228
11
0.1528772440944882
21
0.0959056692913386
0
LINE
8
BLACK
6
CONTINUOUS
10
0.1528772440944882
20
0.0959056692913386
11
0.1529339763779528
21
0.0953296062992126
0
LINE
8
BLACK
6
CONTINUOUS
10
0.1529339763779528
20
0.0953296062992126
11
0.1529339763779528
21
0.0840810236220472
0
LINE
8
BLACK
6
CONTINUOUS
10
0.1529339763779528
20
0.0840810236220472
11
0.1528772440944882
21
0.0835049606299213
0
LINE
8
BLACK
6
CONTINUOUS
10
0.1528772440944882
20
0.0835049606299213
11
0.1528366535433071
21
0.0834070078740157
0
LINE
8
BLACK
6
CONTINUOUS
10
0.1528366535433071
20
0.0834070078740157
11
0.1528291338582677
21
0.0833011023622047
0
LINE
8
BLACK
6
CONTINUOUS
10
0.1528291338582677
20
0.0833011023622047
11
0.1526222440944882
21
0.0827605118110236
0
LINE
8
BLACK
6
CONTINUOUS
10
0.1526222440944882
20
0.0827605118110236
11
0.1507474803149606
21
0.0790109842519685
0
LINE
8
BLACK
6
CONTINUOUS
10
0.1507474803149606
20
0.0790109842519685
11
0.1505914173228347
21
0.0787631102362205
0
LINE
8
BLACK
6
CONTINUOUS
10
0.1505914173228347
20
0.0787631102362205
11
0.1505616141732283
21
0.078691062992126
0
LINE
8
BLACK
6
CONTINUOUS
10
0.1505616141732283
20
0.078691062992126
11
0.1504950787401575
21
0.0786100393700787
0
LINE
8
BLACK
6
CONTINUOUS
10
0.1504950787401575
20
0.0786100393700787
11
0.1504391338582677
21
0.0785211023622047
0
LINE
8
BLACK
6
CONTINUOUS
10
0.1504391338582677
20
0.0785211023622047
11
0.1503801181102362
21
0.0784699606299213
0
LINE
8
BLACK
6
CONTINUOUS
10
0.1503801181102362
20
0.0784699606299213
11
0.1501943700787401
21
0.0782435826771654
0
LINE
8
BLACK
6
CONTINUOUS
10
0.1501943700787401
20
0.0782435826771654
11
0.1483196456692913
21
0.0763688188976378
0
LINE
8
BLACK
6
CONTINUOUS
10
0.1483196456692913
20
0.0763688188976378
11
0.1480932677165354
21
0.0761830708661417
0
LINE
8
BLACK
6
CONTINUOUS
10
0.1480932677165354
20
0.0761830708661417
11
0.1480420866141732
21
0.0761240157480315
0
LINE
8
BLACK
6
CONTINUOUS
10
0.1480420866141732
20
0.0761240157480315
11
0.1479531102362205
21
0.076068031496063
0
LINE
8
BLACK
6
CONTINUOUS
10
0.1479531102362205
20
0.076068031496063
11
0.1478721653543307
21
0.0760015748031496
0
LINE
8
BLACK
6
CONTINUOUS
10
0.1478721653543307
20
0.0760015748031496
11
0.1478001968503937
21
0.0759717716535433
0
LINE
8
BLACK
6
CONTINUOUS
10
0.1478001968503937
20
0.0759717716535433
11
0.1475522047244094
21
0.0758156692913386
0
LINE
8
BLACK
6
CONTINUOUS
10
0.1475522047244094
20
0.0758156692913386
11
0.1438026771653543
21
0.073940905511811
0
LINE
8
BLACK
6
CONTINUOUS
10
0.1438026771653543
20
0.073940905511811
11
0.1432620472440945
21
0.0737340157480315
0
LINE
8
BLACK
6
CONTINUOUS
10
0.1432620472440945
20
0.0737340157480315
11
0.1431562204724409
21
0.0737265354330709
0
LINE
8
BLACK
6
CONTINUOUS
10
0.1431562204724409
20
0.0737265354330709
11
0.1430582283464567
21
0.073685905511811
0
LINE
8
BLACK
6
CONTINUOUS
10
0.1430582283464567
20
0.073685905511811
11
0.1424821653543307
21
0.0736291732283465
0
LINE
8
BLACK
6
CONTINUOUS
10
0.1424821653543307
20
0.0736291732283465
11
0.1349831102362205
21
0.0736291732283465
0
LINE
8
BLACK
6
CONTINUOUS
10
0.1349831102362205
20
0.0736291732283465
11
0.1344070472440945
21
0.073685905511811
0
LINE
8
BLACK
6
CONTINUOUS
10
0.1344070472440945
20
0.073685905511811
11
0.1343090551181102
21
0.0737264960629921
0
LINE
8
BLACK
6
CONTINUOUS
10
0.1343090551181102
20
0.0737264960629921
11
0.134203188976378
21
0.0737340157480315
0
LINE
8
BLACK
6
CONTINUOUS
10
0.134203188976378
20
0.0737340157480315
11
0.1336625984251968
21
0.073940905511811
0
LINE
8
BLACK
6
CONTINUOUS
10
0.1336625984251968
20
0.073940905511811
11
0.1330129527559055
21
0.0742657480314961
0
LINE
8
BLACK
6
CONTINUOUS
10
0.1330129527559055
20
0.0742657480314961
11
0.1328740551181102
21
0.074126811023622
0
LINE
8
BLACK
6
CONTINUOUS
10
0.1328740551181102
20
0.074126811023622
11
0.1318096456692913
21
0.073685905511811
0
LINE
8
BLACK
6
CONTINUOUS
10
0.1318096456692913
20
0.073685905511811
11
0.1306575196850394
21
0.073685905511811
0
LINE
8
BLACK
6
CONTINUOUS
10
0.1306575196850394
20
0.073685905511811
11
0.1295931102362205
21
0.074126811023622
0
LINE
8
BLACK
6
CONTINUOUS
10
0.1295931102362205
20
0.074126811023622
11
0.1287784645669291
21
0.0749414566929134
0
LINE
8
BLACK
6
CONTINUOUS
10
0.1287784645669291
20
0.0749414566929134
11
0.1283375590551181
21
0.0760058661417323
0
LINE
8
BLACK
6
CONTINUOUS
10
0.1283375590551181
20
0.0760058661417323
11
0.1282808267716535
21
0.0765819291338583
0
LINE
8
BLACK
6
CONTINUOUS
10
0.1282808267716535
20
0.0765819291338583
11
0.1282808267716535
21
0.1159520078740157
0
LINE
8
BLACK
6
CONTINUOUS
10
0.1282808267716535
20
0.1159520078740157
11
0.1283375590551181
21
0.1165280708661417
0
LINE
8
BLACK
6
CONTINUOUS
10
0.1283375590551181
20
0.1165280708661417
11
0.1287784645669291
21
0.1175924803149606
0
LINE
8
BLACK
6
CONTINUOUS
10
0.1287784645669291
20
0.1175924803149606
11
0.1295931102362205
21
0.118407125984252
0
LINE
8
BLACK
6
CONTINUOUS
10
0.1295931102362205
20
0.118407125984252
11
0.1306575196850394
21
0.118848031496063
0
LINE
8
BLACK
6
CONTINUOUS
10
0.1306575196850394
20
0.118848031496063
11
0.1318096456692913
21
0.118848031496063
0
LINE
8
BLACK
6
CONTINUOUS
10
0.1318096456692913
20
0.118848031496063
11
0.1328740551181102
21
0.118407125984252
0
LINE
8
BLACK
6
CONTINUOUS
10
0.1341863385826772
20
0.0991290157480315
11
0.1341863385826772
21
0.0802816141732283
0
LINE
8
BLACK
6
CONTINUOUS
10
0.1341863385826772
20
0.0802816141732283
11
0.135680157480315
21
0.0795346850393701
0
LINE
8
BLACK
6
CONTINUOUS
10
0.135680157480315
20
0.0795346850393701
11
0.1417851181102362
21
0.0795346850393701
0
LINE
8
BLACK
6
CONTINUOUS
10
0.1417851181102362
20
0.0795346850393701
11
0.1444825590551181
21
0.0808834251968504
0
LINE
8
BLACK
6
CONTINUOUS
10
0.1444825590551181
20
0.0808834251968504
11
0.1456796850393701
21
0.0820805905511811
0
LINE
8
BLACK
6
CONTINUOUS
10
0.1456796850393701
20
0.0820805905511811
11
0.1470284645669291
21
0.0847780708661417
0
LINE
8
BLACK
6
CONTINUOUS
10
0.1470284645669291
20
0.0847780708661417
11
0.1470284645669291
21
0.0946325590551181
0
LINE
8
BLACK
6
CONTINUOUS
10
0.1470284645669291
20
0.0946325590551181
11
0.1456797244094488
21
0.0973300393700787
0
LINE
8
BLACK
6
CONTINUOUS
10
0.1456797244094488
20
0.0973300393700787
11
0.1444825984251968
21
0.0985271653543307
0
LINE
8
BLACK
6
CONTINUOUS
10
0.1444825984251968
20
0.0985271653543307
11
0.1417851181102362
21
0.099875905511811
0
LINE
8
BLACK
6
CONTINUOUS
10
0.1417851181102362
20
0.099875905511811
11
0.135680157480315
21
0.099875905511811
0
LINE
8
BLACK
6
CONTINUOUS
10
0.135680157480315
20
0.099875905511811
11
0.1341863385826772
21
0.0991290157480315
0
LINE
8
BLACK
6
CONTINUOUS
10
0.2236731496062992
20
0.118848031496063
11
0.2247375590551181
21
0.118407125984252
0
LINE
8
BLACK
6
CONTINUOUS
10
0.2247375590551181
20
0.118407125984252
11
0.2255522047244095
21
0.1175924803149606
0
LINE
8
BLACK
6
CONTINUOUS
10
0.2255522047244095
20
0.1175924803149606
11
0.2259931102362205
21
0.1165280708661417
0
LINE
8
BLACK
6
CONTINUOUS
10
0.2259931102362205
20
0.1165280708661417
11
0.226049842519685
21
0.1159520078740157
0
LINE
8
BLACK
6
CONTINUOUS
10
0.226049842519685
20
0.1159520078740157
11
0.226049842519685
21
0.0765819291338583
0
LINE
8
BLACK
6
CONTINUOUS
10
0.226049842519685
20
0.0765819291338583
11
0.2259931102362205
21
0.0760058661417323
0
LINE
8
BLACK
6
CONTINUOUS
10
0.2259931102362205
20
0.0760058661417323
11
0.2255522047244095
21
0.0749414566929134
0
LINE
8
BLACK
6
CONTINUOUS
10
0.2255522047244095
20
0.0749414566929134
11
0.2247375590551181
21
0.074126811023622
0
LINE
8
BLACK
6
CONTINUOUS
10
0.2247375590551181
20
0.074126811023622
11
0.2236731496062992
21
0.073685905511811
0
LINE
8
BLACK
6
CONTINUOUS
10
0.2236731496062992
20
0.073685905511811
11
0.2225210236220472
21
0.073685905511811
0
LINE
8
BLACK
6
CONTINUOUS
10
0.2225210236220472
20
0.073685905511811
11
0.2214566141732283
21
0.074126811023622
0
LINE
8
BLACK
6
CONTINUOUS
10
0.2214566141732283
20
0.074126811023622
11
0.220641968503937
21
0.0749414566929134
0
LINE
8
BLACK
6
CONTINUOUS
10
0.220641968503937
20
0.0749414566929134
11
0.220201062992126
21
0.0760058661417323
0
LINE
8
BLACK
6
CONTINUOUS
10
0.220201062992126
20
0.0760058661417323
11
0.2201443307086614
21
0.0765819291338583
0
LINE
8
BLACK
6
CONTINUOUS
10
0.2201443307086614
20
0.0765819291338583
11
0.2201443307086614
21
0.0923768503937008
0
LINE
8
BLACK
6
CONTINUOUS
10
0.2201443307086614
20
0.0923768503937008
11
0.2095991732283465
21
0.0923768503937008
0
LINE
8
BLACK
6
CONTINUOUS
10
0.2095991732283465
20
0.0923768503937008
11
0.2095991732283465
21
0.0901762204724409
0
LINE
8
BLACK
6
CONTINUOUS
10
0.2095991732283465
20
0.0901762204724409
11
0.2095704330708661
21
0.0898846456692913
0
LINE
8
BLACK
6
CONTINUOUS
10
0.2095704330708661
20
0.0898846456692913
11
0.2095759842519685
21
0.0898068897637795
0
LINE
8
BLACK
6
CONTINUOUS
10
0.2095759842519685
20
0.0898068897637795
11
0.2095527165354331
21
0.0897046456692913
0
LINE
8
BLACK
6
CONTINUOUS
10
0.2095527165354331
20
0.0897046456692913
11
0.2095424409448819
21
0.089600157480315
0
LINE
8
BLACK
6
CONTINUOUS
10
0.2095424409448819
20
0.089600157480315
11
0.2095125590551181
21
0.0895281102362205
0
LINE
8
BLACK
6
CONTINUOUS
10
0.2095125590551181
20
0.0895281102362205
11
0.2094476377952756
21
0.0892424409448819
0
LINE
8
BLACK
6
CONTINUOUS
10
0.2094476377952756
20
0.0892424409448819
11
0.207572874015748
21
0.0836181889763779
0
LINE
8
BLACK
6
CONTINUOUS
10
0.207572874015748
20
0.0836181889763779
11
0.2073368897637795
21
0.0830896062992126
0
LINE
8
BLACK
6
CONTINUOUS
10
0.2073368897637795
20
0.0830896062992126
11
0.2072673228346457
21
0.0830094488188976
0
LINE
8
BLACK
6
CONTINUOUS
10
0.2072673228346457
20
0.0830094488188976
11
0.2072267716535433
21
0.0829114566929134
0
LINE
8
BLACK
6
CONTINUOUS
10
0.2072267716535433
20
0.0829114566929134
11
0.2068595275590551
21
0.0824639763779528
0
LINE
8
BLACK
6
CONTINUOUS
10
0.2068595275590551
20
0.0824639763779528
11
0.2049847244094488
21
0.0805892125984252
0
LINE
8
BLACK
6
CONTINUOUS
10
0.2049847244094488
20
0.0805892125984252
11
0.2045372834645669
21
0.0802220078740157
0
LINE
8
BLACK
6
CONTINUOUS
10
0.2045372834645669
20
0.0802220078740157
11
0.203472874015748
21
0.0797811417322835
0
LINE
8
BLACK
6
CONTINUOUS
10
0.203472874015748
20
0.0797811417322835
11
0.2023207874015748
21
0.0797811417322835
0
LINE
8
BLACK
6
CONTINUOUS
10
0.2023207874015748
20
0.0797811417322835
11
0.2012563779527559
21
0.0802220472440945
0
LINE
8
BLACK
6
CONTINUOUS
10
0.2012563779527559
20
0.0802220472440945
11
0.2004416929133858
21
0.0810367322834646
0
LINE
8
BLACK
6
CONTINUOUS
10
0.2004416929133858
20
0.0810367322834646
11
0.2000008267716535
21
0.0821011417322835
0
LINE
8
BLACK
6
CONTINUOUS
10
0.2000008267716535
20
0.0821011417322835
11
0.2000008267716535
21
0.0832532283464567
0
LINE
8
BLACK
6
CONTINUOUS
10
0.2000008267716535
20
0.0832532283464567
11
0.2004417322834646
21
0.0843176377952756
0
LINE
8
BLACK
6
CONTINUOUS
10
0.2004417322834646
20
0.0843176377952756
11
0.2008089763779528
21
0.0847651181102362
0
LINE
8
BLACK
6
CONTINUOUS
10
0.2008089763779528
20
0.0847651181102362
11
0.2021908661417323
21
0.0861470078740157
0
LINE
8
BLACK
6
CONTINUOUS
10
0.2021908661417323
20
0.0861470078740157
11
0.2036936614173228
21
0.0906553543307087
0
LINE
8
BLACK
6
CONTINUOUS
10
0.2036936614173228
20
0.0906553543307087
11
0.2036936614173228
21
0.0934466141732283
0
LINE
8
BLACK
6
CONTINUOUS
10
0.2036936614173228
20
0.0934466141732283
11
0.2033798818897638
21
0.094387874015748
0
LINE
8
BLACK
6
CONTINUOUS
10
0.2033798818897638
20
0.094387874015748
11
0.203028937007874
21
0.0945633464566929
0
LINE
8
BLACK
6
CONTINUOUS
10
0.203028937007874
20
0.0945633464566929
11
0.202780905511811
21
0.0947194488188976
0
LINE
8
BLACK
6
CONTINUOUS
10
0.202780905511811
20
0.0947194488188976
11
0.2027089763779527
21
0.0947492519685039
0
LINE
8
BLACK
6
CONTINUOUS
10
0.2027089763779527
20
0.0947492519685039
11
0.2026279921259843
21
0.0948157480314961
0
LINE
8
BLACK
6
CONTINUOUS
10
0.2026279921259843
20
0.0948157480314961
11
0.2025390551181102
21
0.0948716929133858
0
LINE
8
BLACK
6
CONTINUOUS
10
0.2025390551181102
20
0.0948716929133858
11
0.202487874015748
21
0.0949307086614173
0
LINE
8
BLACK
6
CONTINUOUS
10
0.202487874015748
20
0.0949307086614173
11
0.2022615354330708
21
0.0951164566929134
0
LINE
8
BLACK
6
CONTINUOUS
10
0.2022615354330708
20
0.0951164566929134
11
0.2003867716535433
21
0.0969912204724409
0
LINE
8
BLACK
6
CONTINUOUS
10
0.2003867716535433
20
0.0969912204724409
11
0.2002009842519685
21
0.0972175984251969
0
LINE
8
BLACK
6
CONTINUOUS
10
0.2002009842519685
20
0.0972175984251969
11
0.2001420078740157
21
0.0972687401574803
0
LINE
8
BLACK
6
CONTINUOUS
10
0.2001420078740157
20
0.0972687401574803
11
0.2000860236220472
21
0.0973577165354331
0
LINE
8
BLACK
6
CONTINUOUS
10
0.2000860236220472
20
0.0973577165354331
11
0.2000195669291339
21
0.0974386614173228
0
LINE
8
BLACK
6
CONTINUOUS
10
0.2000195669291339
20
0.0974386614173228
11
0.1999897244094488
21
0.0975106299212598
0
LINE
8
BLACK
6
CONTINUOUS
10
0.1999897244094488
20
0.0975106299212598
11
0.1998336614173228
21
0.0977586220472441
0
LINE
8
BLACK
6
CONTINUOUS
10
0.1998336614173228
20
0.0977586220472441
11
0.1979588976377953
21
0.1015081496062992
0
LINE
8
BLACK
6
CONTINUOUS
10
0.1979588976377953
20
0.1015081496062992
11
0.1979485826771654
21
0.1015350393700787
0
LINE
8
BLACK
6
CONTINUOUS
10
0.1979485826771654
20
0.1015350393700787
11
0.1962420078740157
21
0.1023883464566929
0
LINE
8
BLACK
6
CONTINUOUS
10
0.1962420078740157
20
0.1023883464566929
11
0.1894099606299212
21
0.1040963385826772
0
LINE
8
BLACK
6
CONTINUOUS
10
0.1894099606299212
20
0.1040963385826772
11
0.1845127559055118
21
0.1040963385826772
0
LINE
8
BLACK
6
CONTINUOUS
10
0.1845127559055118
20
0.1040963385826772
11
0.1842006692913386
21
0.1040183464566929
0
LINE
8
BLACK
6
CONTINUOUS
10
0.1842006692913386
20
0.1040183464566929
11
0.1850475196850394
21
0.1035949212598425
0
LINE
8
BLACK
6
CONTINUOUS
10
0.1850475196850394
20
0.1035949212598425
11
0.1855374015748031
21
0.1032865748031496
0
LINE
8
BLACK
6
CONTINUOUS
10
0.1855374015748031
20
0.1032865748031496
11
0.1862922440944882
21
0.1024161811023622
0
LINE
8
BLACK
6
CONTINUOUS
10
0.1862922440944882
20
0.1024161811023622
11
0.1866565748031496
21
0.1013232283464567
0
LINE
8
BLACK
6
CONTINUOUS
10
0.1866565748031496
20
0.1013232283464567
11
0.1865749212598425
21
0.1001740157480315
0
LINE
8
BLACK
6
CONTINUOUS
10
0.1865749212598425
20
0.1001740157480315
11
0.1860596456692913
21
0.0991435039370079
0
LINE
8
BLACK
6
CONTINUOUS
10
0.1860596456692913
20
0.0991435039370079
11
0.1851892913385827
21
0.0983886614173228
0
LINE
8
BLACK
6
CONTINUOUS
10
0.1851892913385827
20
0.0983886614173228
11
0.1840962992125984
21
0.0980243307086614
0
LINE
8
BLACK
6
CONTINUOUS
10
0.1840962992125984
20
0.0980243307086614
11
0.1829470866141732
21
0.0981059842519685
0
LINE
8
BLACK
6
CONTINUOUS
10
0.1829470866141732
20
0.0981059842519685
11
0.1824064960629921
21
0.098312874015748
0
LINE
8
BLACK
6
CONTINUOUS
10
0.1824064960629921
20
0.098312874015748
11
0.1792804330708661
21
0.099875905511811
0
LINE
8
BLACK
6
CONTINUOUS
10
0.1792804330708661
20
0.099875905511811
11
0.1736527952755905
21
0.099875905511811
0
LINE
8
BLACK
6
CONTINUOUS
10
0.1736527952755905
20
0.099875905511811
11
0.1717318897637795
21
0.0979550393700787
0
LINE
8
BLACK
6
CONTINUOUS
10
0.1717318897637795
20
0.0979550393700787
11
0.1706925196850394
21
0.094836968503937
0
LINE
8
BLACK
6
CONTINUOUS
10
0.1706925196850394
20
0.094836968503937
11
0.1713007086614173
21
0.0945328346456693
0
LINE
8
BLACK
6
CONTINUOUS
10
0.1713007086614173
20
0.0945328346456693
11
0.1799774803149606
21
0.0945328346456693
0
LINE
8
BLACK
6
CONTINUOUS
10
0.1799774803149606
20
0.0945328346456693
11
0.1805535433070866
21
0.0944761023622047
0
LINE
8
BLACK
6
CONTINUOUS
10
0.1805535433070866
20
0.0944761023622047
11
0.1806515354330709
21
0.0944355118110236
0
LINE
8
BLACK
6
CONTINUOUS
10
0.1806515354330709
20
0.0944355118110236
11
0.1807573622047244
21
0.0944279921259843
0
LINE
8
BLACK
6
CONTINUOUS
10
0.1807573622047244
20
0.0944279921259843
11
0.1812979921259842
21
0.0942211023622047
0
LINE
8
BLACK
6
CONTINUOUS
10
0.1812979921259842
20
0.0942211023622047
11
0.1850475196850394
21
0.0923463385826772
0
LINE
8
BLACK
6
CONTINUOUS
10
0.1850475196850394
20
0.0923463385826772
11
0.1851438582677165
21
0.0922857086614173
0
LINE
8
BLACK
6
CONTINUOUS
10
0.1851438582677165
20
0.0922857086614173
11
0.1851892913385827
21
0.0922705511811024
0
LINE
8
BLACK
6
CONTINUOUS
10
0.1851892913385827
20
0.0922705511811024
11
0.1852458267716535
21
0.0922215354330709
0
LINE
8
BLACK
6
CONTINUOUS
10
0.1852458267716535
20
0.0922215354330709
11
0.1855374015748031
21
0.0920379921259842
0
LINE
8
BLACK
6
CONTINUOUS
10
0.1855374015748031
20
0.0920379921259842
11
0.1857799606299212
21
0.0917583070866142
0
LINE
8
BLACK
6
CONTINUOUS
10
0.1857799606299212
20
0.0917583070866142
11
0.1860596850393701
21
0.0915157086614173
0
LINE
8
BLACK
6
CONTINUOUS
10
0.1860596850393701
20
0.0915157086614173
11
0.186243188976378
21
0.0912241732283465
0
LINE
8
BLACK
6
CONTINUOUS
10
0.186243188976378
20
0.0912241732283465
11
0.1862922440944882
21
0.0911675984251969
0
LINE
8
BLACK
6
CONTINUOUS
10
0.1862922440944882
20
0.0911675984251969
11
0.1863073622047244
21
0.0911222047244094
0
LINE
8
BLACK
6
CONTINUOUS
10
0.1863073622047244
20
0.0911222047244094
11
0.186368031496063
21
0.0910258267716535
0
LINE
8
BLACK
6
CONTINUOUS
10
0.186368031496063
20
0.0910258267716535
11
0.1882427952755905
21
0.0872762992125984
0
LINE
8
BLACK
6
CONTINUOUS
10
0.1882427952755905
20
0.0872762992125984
11
0.1884496850393701
21
0.0867357086614173
0
LINE
8
BLACK
6
CONTINUOUS
10
0.1884496850393701
20
0.0867357086614173
11
0.1884572047244094
21
0.086629842519685
0
LINE
8
BLACK
6
CONTINUOUS
10
0.1884572047244094
20
0.086629842519685
11
0.1884977952755905
21
0.0865318503937008
0
LINE
8
BLACK
6
CONTINUOUS
10
0.1884977952755905
20
0.0865318503937008
11
0.1885545275590551
21
0.0859557874015748
0
LINE
8
BLACK
6
CONTINUOUS
10
0.1885545275590551
20
0.0859557874015748
11
0.1885545275590551
21
0.0822062598425197
0
LINE
8
BLACK
6
CONTINUOUS
10
0.1885545275590551
20
0.0822062598425197
11
0.1884977952755905
21
0.0816301968503937
0
LINE
8
BLACK
6
CONTINUOUS
10
0.1884977952755905
20
0.0816301968503937
11
0.1884571653543307
21
0.0815322047244094
0
LINE
8
BLACK
6
CONTINUOUS
10
0.1884571653543307
20
0.0815322047244094
11
0.1884496850393701
21
0.0814263779527559
0
LINE
8
BLACK
6
CONTINUOUS
10
0.1884496850393701
20
0.0814263779527559
11
0.1882427952755905
21
0.0808857480314961
0
LINE
8
BLACK
6
CONTINUOUS
10
0.1882427952755905
20
0.0808857480314961
11
0.186368031496063
21
0.0771361811023622
0
LINE
8
BLACK
6
CONTINUOUS
10
0.186368031496063
20
0.0771361811023622
11
0.1863073622047244
21
0.077039842519685
0
LINE
8
BLACK
6
CONTINUOUS
10
0.1863073622047244
20
0.077039842519685
11
0.1862922440944882
21
0.0769944094488189
0
LINE
8
BLACK
6
CONTINUOUS
10
0.1862922440944882
20
0.0769944094488189
11
0.186243188976378
21
0.076937874015748
0
LINE
8
BLACK
6
CONTINUOUS
10
0.186243188976378
20
0.076937874015748
11
0.1860596850393701
21
0.0766462992125984
0
LINE
8
BLACK
6
CONTINUOUS
10
0.1860596850393701
20
0.0766462992125984
11
0.1857799606299212
21
0.0764037401574803
0
LINE
8
BLACK
6
CONTINUOUS
10
0.1857799606299212
20
0.0764037401574803
11
0.1855374015748031
21
0.0761240157480315
0
LINE
8
BLACK
6
CONTINUOUS
10
0.1855374015748031
20
0.0761240157480315
11
0.1852458267716535
21
0.0759405118110236
0
LINE
8
BLACK
6
CONTINUOUS
10
0.1852458267716535
20
0.0759405118110236
11
0.1851892913385827
21
0.0758914566929134
0
LINE
8
BLACK
6
CONTINUOUS
10
0.1851892913385827
20
0.0758914566929134
11
0.1851438582677165
21
0.0758763385826772
0
LINE
8
BLACK
6
CONTINUOUS
10
0.1851438582677165
20
0.0758763385826772
11
0.1850475196850394
21
0.0758156692913386
0
LINE
8
BLACK
6
CONTINUOUS
10
0.1850475196850394
20
0.0758156692913386
11
0.1812979921259842
21
0.073940905511811
0
LINE
8
BLACK
6
CONTINUOUS
10
0.1812979921259842
20
0.073940905511811
11
0.1807573622047244
21
0.0737340157480315
0
LINE
8
BLACK
6
CONTINUOUS
10
0.1807573622047244
20
0.0737340157480315
11
0.1806515354330709
21
0.0737265354330709
0
LINE
8
BLACK
6
CONTINUOUS
10
0.1806515354330709
20
0.0737265354330709
11
0.1805535433070866
21
0.073685905511811
0
LINE
8
BLACK
6
CONTINUOUS
10
0.1805535433070866
20
0.073685905511811
11
0.1799774803149606
21
0.0736291732283465
0
LINE
8
BLACK
6
CONTINUOUS
10
0.1799774803149606
20
0.0736291732283465
11
0.1706036614173228
21
0.0736291732283465
0
LINE
8
BLACK
6
CONTINUOUS
10
0.1706036614173228
20
0.0736291732283465
11
0.1700275984251969
21
0.073685905511811
0
LINE
8
BLACK
6
CONTINUOUS
10
0.1700275984251969
20
0.073685905511811
11
0.1699296062992126
21
0.0737264960629921
0
LINE
8
BLACK
6
CONTINUOUS
10
0.1699296062992126
20
0.0737264960629921
11
0.1698237401574803
21
0.0737340157480315
0
LINE
8
BLACK
6
CONTINUOUS
10
0.1698237401574803
20
0.0737340157480315
11
0.1692831496062992
21
0.073940905511811
0
LINE
8
BLACK
6
CONTINUOUS
10
0.1692831496062992
20
0.073940905511811
11
0.1686335039370079
21
0.0742657480314961
0
LINE
8
BLACK
6
CONTINUOUS
10
0.1686335039370079
20
0.0742657480314961
11
0.1684946062992126
21
0.074126811023622
0
LINE
8
BLACK
6
CONTINUOUS
10
0.1684946062992126
20
0.074126811023622
11
0.1674301968503937
21
0.073685905511811
0
LINE
8
BLACK
6
CONTINUOUS
10
0.1674301968503937
20
0.073685905511811
11
0.1662780708661417
21
0.073685905511811
0
LINE
8
BLACK
6
CONTINUOUS
10
0.1662780708661417
20
0.073685905511811
11
0.1652136614173228
21
0.074126811023622
0
LINE
8
BLACK
6
CONTINUOUS
10
0.1652136614173228
20
0.074126811023622
11
0.1643990157480315
21
0.0749414566929134
0
LINE
8
BLACK
6
CONTINUOUS
10
0.1643990157480315
20
0.0749414566929134
11
0.1639581102362205
21
0.0760058661417323
0
LINE
8
BLACK
6
CONTINUOUS
10
0.1639581102362205
20
0.0760058661417323
11
0.1639013779527559
21
0.0765819291338583
0
LINE
8
BLACK
6
CONTINUOUS
10
0.1639013779527559
20
0.0765819291338583
11
0.1639013779527559
21
0.0972043700787402
0
LINE
8
BLACK
6
CONTINUOUS
10
0.1639013779527559
20
0.0972043700787402
11
0.1639581102362205
21
0.0977804330708661
0
LINE
8
BLACK
6
CONTINUOUS
10
0.1639581102362205
20
0.0977804330708661
11
0.1639987007874016
21
0.0978784645669291
0
LINE
8
BLACK
6
CONTINUOUS
10
0.1639987007874016
20
0.0978784645669291
11
0.1640062204724409
21
0.0979842519685039
0
LINE
8
BLACK
6
CONTINUOUS
10
0.1640062204724409
20
0.0979842519685039
11
0.1642131102362205
21
0.0985248818897638
0
LINE
8
BLACK
6
CONTINUOUS
10
0.1642131102362205
20
0.0985248818897638
11
0.166087874015748
21
0.1022744094488189
0
LINE
8
BLACK
6
CONTINUOUS
10
0.166087874015748
20
0.1022744094488189
11
0.1661485039370079
21
0.1023707874015748
0
LINE
8
BLACK
6
CONTINUOUS
10
0.1661485039370079
20
0.1023707874015748
11
0.1661636614173228
21
0.1024161811023622
0
LINE
8
BLACK
6
CONTINUOUS
10
0.1661636614173228
20
0.1024161811023622
11
0.1662126771653543
21
0.1024727559055118
0
LINE
8
BLACK
6
CONTINUOUS
10
0.1662126771653543
20
0.1024727559055118
11
0.1663962204724409
21
0.1027642913385827
0
LINE
8
BLACK
6
CONTINUOUS
10
0.1663962204724409
20
0.1027642913385827
11
0.166675905511811
21
0.1030068897637795
0
LINE
8
BLACK
6
CONTINUOUS
10
0.166675905511811
20
0.1030068897637795
11
0.1669185039370079
21
0.1032865748031496
0
LINE
8
BLACK
6
CONTINUOUS
10
0.1669185039370079
20
0.1032865748031496
11
0.1672100393700788
21
0.1034701181102362
0
LINE
8
BLACK
6
CONTINUOUS
10
0.1672100393700788
20
0.1034701181102362
11
0.1672666141732284
21
0.1035191338582677
0
LINE
8
BLACK
6
CONTINUOUS
10
0.1672666141732284
20
0.1035191338582677
11
0.1673120078740157
21
0.1035342913385827
0
LINE
8
BLACK
6
CONTINUOUS
10
0.1673120078740157
20
0.1035342913385827
11
0.1674083858267716
21
0.1035949212598425
0
LINE
8
BLACK
6
CONTINUOUS
10
0.1674083858267716
20
0.1035949212598425
11
0.1706319291338583
21
0.1052066929133858
0
LINE
8
BLACK
6
CONTINUOUS
10
0.1706319291338583
20
0.1052066929133858
11
0.1708127165354331
21
0.1053874803149606
0
LINE
8
BLACK
6
CONTINUOUS
10
0.1708127165354331
20
0.1053874803149606
11
0.171039094488189
21
0.1055733464566929
0
LINE
8
BLACK
6
CONTINUOUS
10
0.171039094488189
20
0.1055733464566929
11
0.1710902362204724
21
0.1056322440944882
0
LINE
8
BLACK
6
CONTINUOUS
10
0.1710902362204724
20
0.1056322440944882
11
0.1711789763779528
21
0.1056881496062992
0
LINE
8
BLACK
6
CONTINUOUS
10
0.1711789763779528
20
0.1056881496062992
11
0.171260157480315
21
0.1057547244094488
0
LINE
8
BLACK
6
CONTINUOUS
10
0.171260157480315
20
0.1057547244094488
11
0.1713322834645669
21
0.1057846062992126
0
LINE
8
BLACK
6
CONTINUOUS
10
0.1713322834645669
20
0.1057846062992126
11
0.1715801181102362
21
0.1059405905511811
0
LINE
8
BLACK
6
CONTINUOUS
10
0.1715801181102362
20
0.1059405905511811
11
0.1753296456692913
21
0.1078153543307087
0
LINE
8
BLACK
6
CONTINUOUS
10
0.1753296456692913
20
0.1078153543307087
11
0.1753717322834646
21
0.1078314960629921
0
LINE
8
BLACK
6
CONTINUOUS
10
0.1753717322834646
20
0.1078314960629921
11
0.1753888976377953
21
0.1078441732283465
0
LINE
8
BLACK
6
CONTINUOUS
10
0.1753888976377953
20
0.1078441732283465
11
0.1756304724409449
21
0.1079305118110236
0
LINE
8
BLACK
6
CONTINUOUS
10
0.1756304724409449
20
0.1079305118110236
11
0.1758702362204724
21
0.1080222440944882
0
LINE
8
BLACK
6
CONTINUOUS
10
0.1758702362204724
20
0.1080222440944882
11
0.1758914960629921
21
0.1080237795275591
0
LINE
8
BLACK
6
CONTINUOUS
10
0.1758914960629921
20
0.1080237795275591
11
0.1759340157480315
21
0.108038937007874
0
LINE
8
BLACK
6
CONTINUOUS
10
0.1759340157480315
20
0.108038937007874
11
0.1834330708661417
21
0.1099137007874016
0
LINE
8
BLACK
6
CONTINUOUS
10
0.1834330708661417
20
0.1099137007874016
11
0.1835329133858268
21
0.1099285039370079
0
LINE
8
BLACK
6
CONTINUOUS
10
0.1835329133858268
20
0.1099285039370079
11
0.1835731496062992
21
0.1099451181102362
0
LINE
8
BLACK
6
CONTINUOUS
10
0.1835731496062992
20
0.1099451181102362
11
0.183790157480315
21
0.1099664960629921
0
LINE
8
BLACK
6
CONTINUOUS
10
0.183790157480315
20
0.1099664960629921
11
0.1840056692913386
21
0.1099983464566929
0
LINE
8
BLACK
6
CONTINUOUS
10
0.1840056692913386
20
0.1099983464566929
11
0.1840486614173228
21
0.109991968503937
0
LINE
8
BLACK
6
CONTINUOUS
10
0.1840486614173228
20
0.109991968503937
11
0.1841492125984252
21
0.1100018503937008
0
LINE
8
BLACK
6
CONTINUOUS
10
0.1841492125984252
20
0.1100018503937008
11
0.1897735039370079
21
0.1100018503937008
0
LINE
8
BLACK
6
CONTINUOUS
10
0.1897735039370079
20
0.1100018503937008
11
0.1898740157480315
21
0.109991968503937
0
LINE
8
BLACK
6
CONTINUOUS
10
0.1898740157480315
20
0.109991968503937
11
0.1899170472440945
21
0.1099983464566929
0
LINE
8
BLACK
6
CONTINUOUS
10
0.1899170472440945
20
0.1099983464566929
11
0.1901325196850394
21
0.1099664960629921
0
LINE
8
BLACK
6
CONTINUOUS
10
0.1901325196850394
20
0.1099664960629921
11
0.1903495669291339
21
0.1099451181102362
0
LINE
8
BLACK
6
CONTINUOUS
10
0.1903495669291339
20
0.1099451181102362
11
0.1903897637795275
21
0.1099285039370079
0
LINE
8
BLACK
6
CONTINUOUS
10
0.1903897637795275
20
0.1099285039370079
11
0.1904896456692913
21
0.1099137007874016
0
LINE
8
BLACK
6
CONTINUOUS
10
0.1904896456692913
20
0.1099137007874016
11
0.1976471653543307
21
0.1081243307086614
0
LINE
8
BLACK
6
CONTINUOUS
10
0.1976471653543307
20
0.1081243307086614
11
0.1976471653543307
21
0.1084529527559055
0
LINE
8
BLACK
6
CONTINUOUS
10
0.1976471653543307
20
0.1084529527559055
11
0.1977038976377953
21
0.1090290157480315
0
LINE
8
BLACK
6
CONTINUOUS
10
0.1977038976377953
20
0.1090290157480315
11
0.1977444881889764
21
0.1091270472440945
0
LINE
8
BLACK
6
CONTINUOUS
10
0.1977444881889764
20
0.1091270472440945
11
0.1977520078740158
21
0.1092328346456693
0
LINE
8
BLACK
6
CONTINUOUS
10
0.1977520078740158
20
0.1092328346456693
11
0.1979588976377953
21
0.1097734645669291
0
LINE
8
BLACK
6
CONTINUOUS
10
0.1979588976377953
20
0.1097734645669291
11
0.1998336614173228
21
0.1135229921259843
0
LINE
8
BLACK
6
CONTINUOUS
10
0.1998336614173228
20
0.1135229921259843
11
0.1999897244094488
21
0.1137710236220472
0
LINE
8
BLACK
6
CONTINUOUS
10
0.1999897244094488
20
0.1137710236220472
11
0.2000195669291339
21
0.1138429527559055
0
LINE
8
BLACK
6
CONTINUOUS
10
0.2000195669291339
20
0.1138429527559055
11
0.2000860236220472
21
0.113923937007874
0
LINE
8
BLACK
6
CONTINUOUS
10
0.2000860236220472
20
0.113923937007874
11
0.2001420078740157
21
0.114012874015748
0
LINE
8
BLACK
6
CONTINUOUS
10
0.2001420078740157
20
0.114012874015748
11
0.2002009842519685
21
0.1140640551181102
0
LINE
8
BLACK
6
CONTINUOUS
10
0.2002009842519685
20
0.1140640551181102
11
0.2003867716535433
21
0.1142903937007874
0
LINE
8
BLACK
6
CONTINUOUS
10
0.2003867716535433
20
0.1142903937007874
11
0.2022615354330708
21
0.116165157480315
0
LINE
8
BLACK
6
CONTINUOUS
10
0.2022615354330708
20
0.116165157480315
11
0.202487874015748
21
0.1163509448818898
0
LINE
8
BLACK
6
CONTINUOUS
10
0.202487874015748
20
0.1163509448818898
11
0.2025390551181102
21
0.1164099212598425
0
LINE
8
BLACK
6
CONTINUOUS
10
0.2025390551181102
20
0.1164099212598425
11
0.2026279921259843
21
0.116465905511811
0
LINE
8
BLACK
6
CONTINUOUS
10
0.2026279921259843
20
0.116465905511811
11
0.2027089763779527
21
0.1165323622047244
0
LINE
8
BLACK
6
CONTINUOUS
10
0.2027089763779527
20
0.1165323622047244
11
0.202780905511811
21
0.1165622047244095
0
LINE
8
BLACK
6
CONTINUOUS
10
0.202780905511811
20
0.1165622047244095
11
0.203028937007874
21
0.1167182677165354
0
LINE
8
BLACK
6
CONTINUOUS
10
0.203028937007874
20
0.1167182677165354
11
0.2067784645669291
21
0.118593031496063
0
LINE
8
BLACK
6
CONTINUOUS
10
0.2067784645669291
20
0.118593031496063
11
0.2073190551181102
21
0.1187999212598425
0
LINE
8
BLACK
6
CONTINUOUS
10
0.2073190551181102
20
0.1187999212598425
11
0.2074249212598425
21
0.1188074803149606
0
LINE
8
BLACK
6
CONTINUOUS
10
0.2074249212598425
20
0.1188074803149606
11
0.2075229133858268
21
0.118848031496063
0
LINE
8
BLACK
6
CONTINUOUS
10
0.2075229133858268
20
0.118848031496063
11
0.2080989763779527
21
0.1189047637795276
0
LINE
8
BLACK
6
CONTINUOUS
10
0.2080989763779527
20
0.1189047637795276
11
0.2230970866141732
21
0.1189047637795276
0
LINE
8
BLACK
6
CONTINUOUS
10
0.2230970866141732
20
0.1189047637795276
11
0.2236731496062992
21
0.118848031496063
0
LINE
8
BLACK
6
CONTINUOUS
10
0.1717318897637795
20
0.086146968503937
11
0.173113779527559
21
0.0847650787401575
0
LINE
8
BLACK
6
CONTINUOUS
10
0.173113779527559
20
0.0847650787401575
11
0.1734809842519685
21
0.0843176377952756
0
LINE
8
BLACK
6
CONTINUOUS
10
0.1734809842519685
20
0.0843176377952756
11
0.1739218897637795
21
0.0832532283464567
0
LINE
8
BLACK
6
CONTINUOUS
10
0.1739218897637795
20
0.0832532283464567
11
0.1739218897637795
21
0.0821011417322835
0
LINE
8
BLACK
6
CONTINUOUS
10
0.1739218897637795
20
0.0821011417322835
11
0.1734809842519685
21
0.0810367322834646
0
LINE
8
BLACK
6
CONTINUOUS
10
0.1734809842519685
20
0.0810367322834646
11
0.1726662992125984
21
0.0802220472440945
0
LINE
8
BLACK
6
CONTINUOUS
10
0.1726662992125984
20
0.0802220472440945
11
0.1716018897637795
21
0.0797811417322835
0
LINE
8
BLACK
6
CONTINUOUS
10
0.1716018897637795
20
0.0797811417322835
11
0.1708077952755905
21
0.0797811417322835
0
LINE
8
BLACK
6
CONTINUOUS
10
0.1708077952755905
20
0.0797811417322835
11
0.1713007086614173
21
0.0795346850393701
0
LINE
8
BLACK
6
CONTINUOUS
10
0.1713007086614173
20
0.0795346850393701
11
0.1792804330708661
21
0.0795346850393701
0
LINE
8
BLACK
6
CONTINUOUS
10
0.1792804330708661
20
0.0795346850393701
11
0.1815261417322835
21
0.0806575590551181
0
LINE
8
BLACK
6
CONTINUOUS
10
0.1815261417322835
20
0.0806575590551181
11
0.1826490157480315
21
0.0829033070866142
0
LINE
8
BLACK
6
CONTINUOUS
10
0.1826490157480315
20
0.0829033070866142
11
0.1826490157480315
21
0.0852587401574803
0
LINE
8
BLACK
6
CONTINUOUS
10
0.1826490157480315
20
0.0852587401574803
11
0.1815261417322835
21
0.0875044881889764
0
LINE
8
BLACK
6
CONTINUOUS
10
0.1815261417322835
20
0.0875044881889764
11
0.1792804330708661
21
0.0886273228346457
0
LINE
8
BLACK
6
CONTINUOUS
10
0.1792804330708661
20
0.0886273228346457
11
0.1709051181102362
21
0.0886273228346457
0
LINE
8
BLACK
6
CONTINUOUS
10
0.1709051181102362
20
0.0886273228346457
11
0.1717318897637795
21
0.086146968503937
0
LINE
8
BLACK
6
CONTINUOUS
10
0.2060985433070866
20
0.1116505118110236
11
0.2049014173228347
21
0.1104533858267717
0
LINE
8
BLACK
6
CONTINUOUS
10
0.2049014173228347
20
0.1104533858267717
11
0.2035526771653543
21
0.107755905511811
0
LINE
8
BLACK
6
CONTINUOUS
10
0.2035526771653543
20
0.107755905511811
11
0.2035526771653543
21
0.104944842519685
0
LINE
8
BLACK
6
CONTINUOUS
10
0.2035526771653543
20
0.104944842519685
11
0.2068595669291338
21
0.1016379527559055
0
LINE
8
BLACK
6
CONTINUOUS
10
0.2068595669291338
20
0.1016379527559055
11
0.207226811023622
21
0.1011905118110236
0
LINE
8
BLACK
6
CONTINUOUS
10
0.207226811023622
20
0.1011905118110236
11
0.2072674015748031
21
0.1010924803149606
0
LINE
8
BLACK
6
CONTINUOUS
10
0.2072674015748031
20
0.1010924803149606
11
0.2073368897637795
21
0.1010123622047244
0
LINE
8
BLACK
6
CONTINUOUS
10
0.2073368897637795
20
0.1010123622047244
11
0.207572874015748
21
0.100483779527559
0
LINE
8
BLACK
6
CONTINUOUS
10
0.207572874015748
20
0.100483779527559
11
0.2082087795275591
21
0.0985759842519685
0
LINE
8
BLACK
6
CONTINUOUS
10
0.2082087795275591
20
0.0985759842519685
11
0.2087960236220472
21
0.0982823622047244
0
LINE
8
BLACK
6
CONTINUOUS
10
0.2087960236220472
20
0.0982823622047244
11
0.2201443307086614
21
0.0982823622047244
0
LINE
8
BLACK
6
CONTINUOUS
10
0.2201443307086614
20
0.0982823622047244
11
0.2201443307086614
21
0.1129992519685039
0
LINE
8
BLACK
6
CONTINUOUS
10
0.2201443307086614
20
0.1129992519685039
11
0.2087960236220472
21
0.1129992519685039
0
LINE
8
BLACK
6
CONTINUOUS
10
0.2087960236220472
20
0.1129992519685039
11
0.2060985433070866
21
0.1116505118110236
0
LINE
8
BLACK
6
CONTINUOUS
10
0.168916811023622
20
0.14325
11
0.1697314566929134
21
0.1424353543307087
0
LINE
8
BLACK
6
CONTINUOUS
10
0.1697314566929134
20
0.1424353543307087
11
0.1701723622047244
21
0.1413709448818898
0
LINE
8
BLACK
6
CONTINUOUS
10
0.1701723622047244
20
0.1413709448818898
11
0.170229094488189
21
0.1407948818897638
0
LINE
8
BLACK
6
CONTINUOUS
10
0.170229094488189
20
0.1407948818897638
11
0.170229094488189
21
0.1324990551181102
0
LINE
8
BLACK
6
CONTINUOUS
10
0.170229094488189
20
0.1324990551181102
11
0.2066464173228346
21
0.1324990551181102
0
LINE
8
BLACK
6
CONTINUOUS
10
0.2066464173228346
20
0.1324990551181102
11
0.2072224803149606
21
0.1324423228346457
0
LINE
8
BLACK
6
CONTINUOUS
10
0.2072224803149606
20
0.1324423228346457
11
0.2082868897637795
21
0.1320014173228346
0
LINE
8
BLACK
6
CONTINUOUS
10
0.2082868897637795
20
0.1320014173228346
11
0.2091015354330709
21
0.1311867716535433
0
LINE
8
BLACK
6
CONTINUOUS
10
0.2091015354330709
20
0.1311867716535433
11
0.2095424409448819
21
0.1301223622047244
0
LINE
8
BLACK
6
CONTINUOUS
10
0.2095424409448819
20
0.1301223622047244
11
0.2095424409448819
21
0.1289702362204724
0
LINE
8
BLACK
6
CONTINUOUS
10
0.2095424409448819
20
0.1289702362204724
11
0.2091015354330709
21
0.1279058267716535
0
LINE
8
BLACK
6
CONTINUOUS
10
0.2091015354330709
20
0.1279058267716535
11
0.2082868897637795
21
0.1270911811023622
0
LINE
8
BLACK
6
CONTINUOUS
10
0.2082868897637795
20
0.1270911811023622
11
0.2072224803149606
21
0.1266502755905512
0
LINE
8
BLACK
6
CONTINUOUS
10
0.2072224803149606
20
0.1266502755905512
11
0.2066464173228346
21
0.1265935433070866
0
LINE
8
BLACK
6
CONTINUOUS
10
0.2066464173228346
20
0.1265935433070866
11
0.170229094488189
21
0.1265935433070866
0
LINE
8
BLACK
6
CONTINUOUS
10
0.170229094488189
20
0.1265935433070866
11
0.170229094488189
21
0.1182977165354331
0
LINE
8
BLACK
6
CONTINUOUS
10
0.170229094488189
20
0.1182977165354331
11
0.1701723622047244
21
0.1177216535433071
0
LINE
8
BLACK
6
CONTINUOUS
10
0.1701723622047244
20
0.1177216535433071
11
0.1697314566929134
21
0.1166572440944882
0
LINE
8
BLACK
6
CONTINUOUS
10
0.1697314566929134
20
0.1166572440944882
11
0.168916811023622
21
0.1158425984251968
0
LINE
8
BLACK
6
CONTINUOUS
10
0.168916811023622
20
0.1158425984251968
11
0.1678524015748031
21
0.1154016929133858
0
LINE
8
BLACK
6
CONTINUOUS
10
0.1678524015748031
20
0.1154016929133858
11
0.1667002755905512
21
0.1154016929133858
0
LINE
8
BLACK
6
CONTINUOUS
10
0.1667002755905512
20
0.1154016929133858
11
0.1656358661417323
21
0.1158425984251968
0
LINE
8
BLACK
6
CONTINUOUS
10
0.1656358661417323
20
0.1158425984251968
11
0.1648212204724409
21
0.1166572440944882
0
LINE
8
BLACK
6
CONTINUOUS
10
0.1648212204724409
20
0.1166572440944882
11
0.1643803149606299
21
0.1177216535433071
0
LINE
8
BLACK
6
CONTINUOUS
10
0.1643803149606299
20
0.1177216535433071
11
0.1643235826771653
21
0.1182977165354331
0
LINE
8
BLACK
6
CONTINUOUS
10
0.1643235826771653
20
0.1182977165354331
11
0.1643235826771653
21
0.1407948818897638
0
LINE
8
BLACK
6
CONTINUOUS
10
0.1643235826771653
20
0.1407948818897638
11
0.1643803149606299
21
0.1413709448818898
0
LINE
8
BLACK
6
CONTINUOUS
10
0.1643803149606299
20
0.1413709448818898
11
0.1648212204724409
21
0.1424353543307087
0
LINE
8
BLACK
6
CONTINUOUS
10
0.1648212204724409
20
0.1424353543307087
11
0.1656358661417323
21
0.14325
0
LINE
8
BLACK
6
CONTINUOUS
10
0.1656358661417323
20
0.14325
11
0.1667002755905512
21
0.143690905511811
0
LINE
8
BLACK
6
CONTINUOUS
10
0.1667002755905512
20
0.143690905511811
11
0.1678524015748031
21
0.143690905511811
0
LINE
8
BLACK
6
CONTINUOUS
10
0.1678524015748031
20
0.143690905511811
11
0.168916811023622
21
0.14325
0
LINE
8
BLACK
6
CONTINUOUS
10
0.2072224803149606
20
0.1736871653543307
11
0.2082868897637795
21
0.1732462598425197
0
LINE
8
BLACK
6
CONTINUOUS
10
0.2082868897637795
20
0.1732462598425197
11
0.2091015354330709
21
0.1724316141732283
0
LINE
8
BLACK
6
CONTINUOUS
10
0.2091015354330709
20
0.1724316141732283
11
0.2095424409448819
21
0.1713672047244094
0
LINE
8
BLACK
6
CONTINUOUS
10
0.2095424409448819
20
0.1713672047244094
11
0.2095991732283465
21
0.1707911417322835
0
LINE
8
BLACK
6
CONTINUOUS
10
0.2095991732283465
20
0.1707911417322835
11
0.2095991732283465
21
0.1520435039370079
0
LINE
8
BLACK
6
CONTINUOUS
10
0.2095991732283465
20
0.1520435039370079
11
0.2095424409448819
21
0.1514674409448819
0
LINE
8
BLACK
6
CONTINUOUS
10
0.2095424409448819
20
0.1514674409448819
11
0.2091015354330709
21
0.150403031496063
0
LINE
8
BLACK
6
CONTINUOUS
10
0.2091015354330709
20
0.150403031496063
11
0.2082868897637795
21
0.1495883858267716
0
LINE
8
BLACK
6
CONTINUOUS
10
0.2082868897637795
20
0.1495883858267716
11
0.2072224803149606
21
0.1491474803149606
0
LINE
8
BLACK
6
CONTINUOUS
10
0.2072224803149606
20
0.1491474803149606
11
0.2060703543307087
21
0.1491474803149606
0
LINE
8
BLACK
6
CONTINUOUS
10
0.2060703543307087
20
0.1491474803149606
11
0.2050059448818898
21
0.1495883858267716
0
LINE
8
BLACK
6
CONTINUOUS
10
0.2050059448818898
20
0.1495883858267716
11
0.2041912992125984
21
0.150403031496063
0
LINE
8
BLACK
6
CONTINUOUS
10
0.2041912992125984
20
0.150403031496063
11
0.2037503937007874
21
0.1514674409448819
0
LINE
8
BLACK
6
CONTINUOUS
10
0.2037503937007874
20
0.1514674409448819
11
0.2036936614173228
21
0.1520435039370079
0
LINE
8
BLACK
6
CONTINUOUS
10
0.2036936614173228
20
0.1520435039370079
11
0.2036936614173228
21
0.1678383858267717
0
LINE
8
BLACK
6
CONTINUOUS
10
0.2036936614173228
20
0.1678383858267717
11
0.1889767322834646
21
0.1678383858267717
0
LINE
8
BLACK
6
CONTINUOUS
10
0.1889767322834646
20
0.1678383858267717
11
0.1889767322834646
21
0.1576677952755905
0
LINE
8
BLACK
6
CONTINUOUS
10
0.1889767322834646
20
0.1576677952755905
11
0.18892
21
0.1570917322834646
0
LINE
8
BLACK
6
CONTINUOUS
10
0.18892
20
0.1570917322834646
11
0.188479094488189
21
0.1560273228346457
0
LINE
8
BLACK
6
CONTINUOUS
10
0.188479094488189
20
0.1560273228346457
11
0.1876644488188976
21
0.1552126771653543
0
LINE
8
BLACK
6
CONTINUOUS
10
0.1876644488188976
20
0.1552126771653543
11
0.1866000393700787
21
0.1547717716535433
0
LINE
8
BLACK
6
CONTINUOUS
10
0.1866000393700787
20
0.1547717716535433
11
0.1854479133858268
21
0.1547717716535433
0
LINE
8
BLACK
6
CONTINUOUS
10
0.1854479133858268
20
0.1547717716535433
11
0.1843835039370079
21
0.1552126771653543
0
LINE
8
BLACK
6
CONTINUOUS
10
0.1843835039370079
20
0.1552126771653543
11
0.1835688582677165
21
0.1560273228346457
0
LINE
8
BLACK
6
CONTINUOUS
10
0.1835688582677165
20
0.1560273228346457
11
0.1831279527559055
21
0.1570917322834646
0
LINE
8
BLACK
6
CONTINUOUS
10
0.1831279527559055
20
0.1570917322834646
11
0.183071220472441
21
0.1576677952755905
0
LINE
8
BLACK
6
CONTINUOUS
10
0.183071220472441
20
0.1576677952755905
11
0.183071220472441
21
0.1678383858267717
0
LINE
8
BLACK
6
CONTINUOUS
10
0.183071220472441
20
0.1678383858267717
11
0.170229094488189
21
0.1678383858267717
0
LINE
8
BLACK
6
CONTINUOUS
10
0.170229094488189
20
0.1678383858267717
11
0.170229094488189
21
0.1520435039370079
0
LINE
8
BLACK
6
CONTINUOUS
10
0.170229094488189
20
0.1520435039370079
11
0.1701723622047244
21
0.1514674409448819
0
LINE
8
BLACK
6
CONTINUOUS
10
0.1701723622047244
20
0.1514674409448819
11
0.1697314566929134
21
0.150403031496063
0
LINE
8
BLACK
6
CONTINUOUS
10
0.1697314566929134
20
0.150403031496063
11
0.168916811023622
21
0.1495883858267716
0
LINE
8
BLACK
6
CONTINUOUS
10
0.168916811023622
20
0.1495883858267716
11
0.1678524015748031
21
0.1491474803149606
0
LINE
8
BLACK
6
CONTINUOUS
10
0.1678524015748031
20
0.1491474803149606
11
0.1667002755905512
21
0.1491474803149606
0
LINE
8
BLACK
6
CONTINUOUS
10
0.1667002755905512
20
0.1491474803149606
11
0.1656358661417323
21
0.1495883858267716
0
LINE
8
BLACK
6
CONTINUOUS
10
0.1656358661417323
20
0.1495883858267716
11
0.1648212204724409
21
0.150403031496063
0
LINE
8
BLACK
6
CONTINUOUS
10
0.1648212204724409
20
0.150403031496063
11
0.1643803149606299
21
0.1514674409448819
0
LINE
8
BLACK
6
CONTINUOUS
10
0.1643803149606299
20
0.1514674409448819
11
0.1643235826771653
21
0.1520435039370079
0
LINE
8
BLACK
6
CONTINUOUS
10
0.1643235826771653
20
0.1520435039370079
11
0.1643235826771653
21
0.1707911417322835
0
LINE
8
BLACK
6
CONTINUOUS
10
0.1643235826771653
20
0.1707911417322835
11
0.1643803149606299
21
0.1713672047244094
0
LINE
8
BLACK
6
CONTINUOUS
10
0.1643803149606299
20
0.1713672047244094
11
0.1648212204724409
21
0.1724316141732283
0
LINE
8
BLACK
6
CONTINUOUS
10
0.1648212204724409
20
0.1724316141732283
11
0.1656358661417323
21
0.1732462598425197
0
LINE
8
BLACK
6
CONTINUOUS
10
0.1656358661417323
20
0.1732462598425197
11
0.1667002755905512
21
0.1736871653543307
0
LINE
8
BLACK
6
CONTINUOUS
10
0.1667002755905512
20
0.1736871653543307
11
0.1672763385826772
21
0.1737438976377953
0
LINE
8
BLACK
6
CONTINUOUS
10
0.1672763385826772
20
0.1737438976377953
11
0.2066464173228346
21
0.1737438976377953
0
LINE
8
BLACK
6
CONTINUOUS
10
0.2066464173228346
20
0.1737438976377953
11
0.2072224803149606
21
0.1736871653543307
0
LINE
8
BLACK
6
CONTINUOUS
10
0.1450186614173228
20
0.2448322834645669
11
0.1453079527559055
21
0.2448322834645669
0
LINE
8
BLACK
6
CONTINUOUS
10
0.1453079527559055
20
0.2448322834645669
11
0.145578031496063
21
0.2447204330708661
0
LINE
8
BLACK
6
CONTINUOUS
10
0.145578031496063
20
0.2447204330708661
11
0.1458646850393701
21
0.2446630708661417
0
LINE
8
BLACK
6
CONTINUOUS
10
0.1458646850393701
20
0.2446630708661417
11
0.1461050393700787
21
0.244502125984252
0
LINE
8
BLACK
6
CONTINUOUS
10
0.1461050393700787
20
0.244502125984252
11
0.1463723622047244
21
0.2443913779527559
0
LINE
8
BLACK
6
CONTINUOUS
10
0.1463723622047244
20
0.2443913779527559
11
0.1465790551181102
21
0.2441846850393701
0
LINE
8
BLACK
6
CONTINUOUS
10
0.1465790551181102
20
0.2441846850393701
11
0.146821968503937
21
0.2440220078740157
0
LINE
8
BLACK
6
CONTINUOUS
10
0.146821968503937
20
0.2440220078740157
11
0.1471849606299213
21
0.243578779527559
0
LINE
8
BLACK
6
CONTINUOUS
10
0.1471849606299213
20
0.243578779527559
11
0.1471870078740158
21
0.2435767322834645
0
LINE
8
BLACK
6
CONTINUOUS
10
0.1471870078740158
20
0.2435767322834645
11
0.1471873622047244
21
0.2435758661417323
0
LINE
8
BLACK
6
CONTINUOUS
10
0.1471873622047244
20
0.2435758661417323
11
0.1471887401574803
21
0.2435741732283465
0
LINE
8
BLACK
6
CONTINUOUS
10
0.1471887401574803
20
0.2435741732283465
11
0.150776062992126
21
0.2381931496062992
0
LINE
8
BLACK
6
CONTINUOUS
10
0.150776062992126
20
0.2381931496062992
11
0.1539800393700787
21
0.2349891732283464
0
LINE
8
BLACK
6
CONTINUOUS
10
0.1539800393700787
20
0.2349891732283464
11
0.1573009842519685
21
0.2333287007874016
0
LINE
8
BLACK
6
CONTINUOUS
10
0.1573009842519685
20
0.2333287007874016
11
0.1577908661417323
21
0.2330203543307087
0
LINE
8
BLACK
6
CONTINUOUS
10
0.1577908661417323
20
0.2330203543307087
11
0.1585457086614173
21
0.2321499606299212
0
LINE
8
BLACK
6
CONTINUOUS
10
0.1585457086614173
20
0.2321499606299212
11
0.1589100393700787
21
0.2310570078740157
0
LINE
8
BLACK
6
CONTINUOUS
10
0.1589100393700787
20
0.2310570078740157
11
0.1588283858267716
21
0.2299077952755905
0
LINE
8
BLACK
6
CONTINUOUS
10
0.1588283858267716
20
0.2299077952755905
11
0.1583131102362205
21
0.2288772834645669
0
LINE
8
BLACK
6
CONTINUOUS
10
0.1583131102362205
20
0.2288772834645669
11
0.1574427559055118
21
0.2281224409448819
0
LINE
8
BLACK
6
CONTINUOUS
10
0.1574427559055118
20
0.2281224409448819
11
0.1563497637795276
21
0.2277581102362205
0
LINE
8
BLACK
6
CONTINUOUS
10
0.1563497637795276
20
0.2277581102362205
11
0.1552005511811023
21
0.2278397637795276
0
LINE
8
BLACK
6
CONTINUOUS
10
0.1552005511811023
20
0.2278397637795276
11
0.1546599606299213
21
0.2280466535433071
0
LINE
8
BLACK
6
CONTINUOUS
10
0.1546599606299213
20
0.2280466535433071
11
0.1509104330708661
21
0.2299214173228346
0
LINE
8
BLACK
6
CONTINUOUS
10
0.1509104330708661
20
0.2299214173228346
11
0.1506625984251969
21
0.2300774409448819
0
LINE
8
BLACK
6
CONTINUOUS
10
0.1506625984251969
20
0.2300774409448819
11
0.1505904724409449
21
0.2301072834645669
0
LINE
8
BLACK
6
CONTINUOUS
10
0.1505904724409449
20
0.2301072834645669
11
0.1505092913385827
21
0.2301738976377953
0
LINE
8
BLACK
6
CONTINUOUS
10
0.1505092913385827
20
0.2301738976377953
11
0.1504205511811024
21
0.2302297637795276
0
LINE
8
BLACK
6
CONTINUOUS
10
0.1504205511811024
20
0.2302297637795276
11
0.1503694094488189
21
0.2302887007874016
0
LINE
8
BLACK
6
CONTINUOUS
10
0.1503694094488189
20
0.2302887007874016
11
0.150143031496063
21
0.2304745275590551
0
LINE
8
BLACK
6
CONTINUOUS
10
0.150143031496063
20
0.2304745275590551
11
0.1476846456692913
21
0.2329329133858268
0
LINE
8
BLACK
6
CONTINUOUS
10
0.1476846456692913
20
0.2329329133858268
11
0.1476846456692913
21
0.205518937007874
0
LINE
8
BLACK
6
CONTINUOUS
10
0.1476846456692913
20
0.205518937007874
11
0.1559804724409449
21
0.205518937007874
0
LINE
8
BLACK
6
CONTINUOUS
10
0.1559804724409449
20
0.205518937007874
11
0.1565565354330709
21
0.2054622047244094
0
LINE
8
BLACK
6
CONTINUOUS
10
0.1565565354330709
20
0.2054622047244094
11
0.1576209448818898
21
0.2050212992125984
0
LINE
8
BLACK
6
CONTINUOUS
10
0.1576209448818898
20
0.2050212992125984
11
0.1584355905511811
21
0.2042066535433071
0
LINE
8
BLACK
6
CONTINUOUS
10
0.1584355905511811
20
0.2042066535433071
11
0.1588764960629921
21
0.2031422440944882
0
LINE
8
BLACK
6
CONTINUOUS
10
0.1588764960629921
20
0.2031422440944882
11
0.1588764960629921
21
0.2019901181102362
0
LINE
8
BLACK
6
CONTINUOUS
10
0.1588764960629921
20
0.2019901181102362
11
0.1584355905511811
21
0.2009257086614173
0
LINE
8
BLACK
6
CONTINUOUS
10
0.1584355905511811
20
0.2009257086614173
11
0.1576209448818898
21
0.200111062992126
0
LINE
8
BLACK
6
CONTINUOUS
10
0.1576209448818898
20
0.200111062992126
11
0.1565565354330709
21
0.199670157480315
0
LINE
8
BLACK
6
CONTINUOUS
10
0.1565565354330709
20
0.199670157480315
11
0.1559804724409449
21
0.1996134251968504
0
LINE
8
BLACK
6
CONTINUOUS
10
0.1559804724409449
20
0.1996134251968504
11
0.1334833070866142
21
0.1996134251968504
0
LINE
8
BLACK
6
CONTINUOUS
10
0.1334833070866142
20
0.1996134251968504
11
0.1329072440944882
21
0.199670157480315
0
LINE
8
BLACK
6
CONTINUOUS
10
0.1329072440944882
20
0.199670157480315
11
0.1318428346456693
21
0.200111062992126
0
LINE
8
BLACK
6
CONTINUOUS
10
0.1318428346456693
20
0.200111062992126
11
0.1310281889763779
21
0.2009257086614173
0
LINE
8
BLACK
6
CONTINUOUS
10
0.1310281889763779
20
0.2009257086614173
11
0.1305872834645669
21
0.2019901181102362
0
LINE
8
BLACK
6
CONTINUOUS
10
0.1305872834645669
20
0.2019901181102362
11
0.1305872834645669
21
0.2031422440944882
0
LINE
8
BLACK
6
CONTINUOUS
10
0.1305872834645669
20
0.2031422440944882
11
0.1310281889763779
21
0.2042066535433071
0
LINE
8
BLACK
6
CONTINUOUS
10
0.1310281889763779
20
0.2042066535433071
11
0.1318428346456693
21
0.2050212992125984
0
LINE
8
BLACK
6
CONTINUOUS
10
0.1318428346456693
20
0.2050212992125984
11
0.1329072440944882
21
0.2054622047244094
0
LINE
8
BLACK
6
CONTINUOUS
10
0.1329072440944882
20
0.2054622047244094
11
0.1334833070866142
21
0.205518937007874
0
LINE
8
BLACK
6
CONTINUOUS
10
0.1334833070866142
20
0.205518937007874
11
0.1417791338582677
21
0.205518937007874
0
LINE
8
BLACK
6
CONTINUOUS
10
0.1417791338582677
20
0.205518937007874
11
0.1417791338582677
21
0.2419362598425197
0
LINE
8
BLACK
6
CONTINUOUS
10
0.1417791338582677
20
0.2419362598425197
11
0.1417793307086614
21
0.2419383464566929
0
LINE
8
BLACK
6
CONTINUOUS
10
0.1417793307086614
20
0.2419383464566929
11
0.1417791338582677
21
0.2419393700787401
0
LINE
8
BLACK
6
CONTINUOUS
10
0.1417791338582677
20
0.2419393700787401
11
0.1417797244094488
21
0.2419424015748032
0
LINE
8
BLACK
6
CONTINUOUS
10
0.1417797244094488
20
0.2419424015748032
11
0.1418358661417323
21
0.2425123228346457
0
LINE
8
BLACK
6
CONTINUOUS
10
0.1418358661417323
20
0.2425123228346457
11
0.1419477165354331
21
0.2427824409448819
0
LINE
8
BLACK
6
CONTINUOUS
10
0.1419477165354331
20
0.2427824409448819
11
0.1420050787401575
21
0.2430690551181102
0
LINE
8
BLACK
6
CONTINUOUS
10
0.1420050787401575
20
0.2430690551181102
11
0.1421660236220472
21
0.2433094488188976
0
LINE
8
BLACK
6
CONTINUOUS
10
0.1421660236220472
20
0.2433094488188976
11
0.1422767716535433
21
0.2435767322834645
0
LINE
8
BLACK
6
CONTINUOUS
10
0.1422767716535433
20
0.2435767322834645
11
0.1424834645669291
21
0.2437834645669291
0
LINE
8
BLACK
6
CONTINUOUS
10
0.1424834645669291
20
0.2437834645669291
11
0.1426461417322835
21
0.2440263385826772
0
LINE
8
BLACK
6
CONTINUOUS
10
0.1426461417322835
20
0.2440263385826772
11
0.1428868503937008
21
0.2441868503937008
0
LINE
8
BLACK
6
CONTINUOUS
10
0.1428868503937008
20
0.2441868503937008
11
0.1430914173228346
21
0.2443913779527559
0
LINE
8
BLACK
6
CONTINUOUS
10
0.1430914173228346
20
0.2443913779527559
11
0.1433614960629921
21
0.2445032677165354
0
LINE
8
BLACK
6
CONTINUOUS
10
0.1433614960629921
20
0.2445032677165354
11
0.1436047637795276
21
0.2446654330708661
0
LINE
8
BLACK
6
CONTINUOUS
10
0.1436047637795276
20
0.2446654330708661
11
0.1438885433070866
21
0.2447215748031496
0
LINE
8
BLACK
6
CONTINUOUS
10
0.1438885433070866
20
0.2447215748031496
11
0.1441558267716535
21
0.2448322834645669
0
LINE
8
BLACK
6
CONTINUOUS
10
0.1441558267716535
20
0.2448322834645669
11
0.1444482283464567
21
0.2448322834645669
0
LINE
8
BLACK
6
CONTINUOUS
10
0.1444482283464567
20
0.2448322834645669
11
0.144735
21
0.2448890157480315
0
LINE
8
BLACK
6
CONTINUOUS
10
0.144735
20
0.2448890157480315
11
0.1450186614173228
21
0.2448322834645669
0
LINE
8
BLACK
6
CONTINUOUS
10
0.1744938582677165
20
0.2443913779527559
11
0.1753085039370079
21
0.2435767322834645
0
LINE
8
BLACK
6
CONTINUOUS
10
0.1753085039370079
20
0.2435767322834645
11
0.1757494094488189
21
0.2425123228346457
0
LINE
8
BLACK
6
CONTINUOUS
10
0.1757494094488189
20
0.2425123228346457
11
0.1758061417322835
21
0.2419362598425197
0
LINE
8
BLACK
6
CONTINUOUS
10
0.1758061417322835
20
0.2419362598425197
11
0.1758061417322835
21
0.2261413779527559
0
LINE
8
BLACK
6
CONTINUOUS
10
0.1758061417322835
20
0.2261413779527559
11
0.1923977952755905
21
0.2261413779527559
0
LINE
8
BLACK
6
CONTINUOUS
10
0.1923977952755905
20
0.2261413779527559
11
0.1923977952755905
21
0.2419362598425197
0
LINE
8
BLACK
6
CONTINUOUS
10
0.1923977952755905
20
0.2419362598425197
11
0.1924545275590551
21
0.2425123228346457
0
LINE
8
BLACK
6
CONTINUOUS
10
0.1924545275590551
20
0.2425123228346457
11
0.1928954330708661
21
0.2435767322834645
0
LINE
8
BLACK
6
CONTINUOUS
10
0.1928954330708661
20
0.2435767322834645
11
0.1937100787401575
21
0.2443913779527559
0
LINE
8
BLACK
6
CONTINUOUS
10
0.1937100787401575
20
0.2443913779527559
11
0.1947744881889764
21
0.2448322834645669
0
LINE
8
BLACK
6
CONTINUOUS
10
0.1947744881889764
20
0.2448322834645669
11
0.1959266141732283
21
0.2448322834645669
0
LINE
8
BLACK
6
CONTINUOUS
10
0.1959266141732283
20
0.2448322834645669
11
0.1969910236220472
21
0.2443913779527559
0
LINE
8
BLACK
6
CONTINUOUS
10
0.1969910236220472
20
0.2443913779527559
11
0.1978056692913386
21
0.2435767322834645
0
LINE
8
BLACK
6
CONTINUOUS
10
0.1978056692913386
20
0.2435767322834645
11
0.1982465748031496
21
0.2425123228346457
0
LINE
8
BLACK
6
CONTINUOUS
10
0.1982465748031496
20
0.2425123228346457
11
0.1983033070866142
21
0.2419362598425197
0
LINE
8
BLACK
6
CONTINUOUS
10
0.1983033070866142
20
0.2419362598425197
11
0.1983033070866142
21
0.2025661811023622
0
LINE
8
BLACK
6
CONTINUOUS
10
0.1983033070866142
20
0.2025661811023622
11
0.1982465748031496
21
0.2019901181102362
0
LINE
8
BLACK
6
CONTINUOUS
10
0.1982465748031496
20
0.2019901181102362
11
0.1978056692913386
21
0.2009257086614173
0
LINE
8
BLACK
6
CONTINUOUS
10
0.1978056692913386
20
0.2009257086614173
11
0.1969910236220472
21
0.200111062992126
0
LINE
8
BLACK
6
CONTINUOUS
10
0.1969910236220472
20
0.200111062992126
11
0.1959266141732283
21
0.199670157480315
0
LINE
8
BLACK
6
CONTINUOUS
10
0.1959266141732283
20
0.199670157480315
11
0.1947744881889764
21
0.199670157480315
0
LINE
8
BLACK
6
CONTINUOUS
10
0.1947744881889764
20
0.199670157480315
11
0.1937100787401575
21
0.200111062992126
0
LINE
8
BLACK
6
CONTINUOUS
10
0.1937100787401575
20
0.200111062992126
11
0.1928954330708661
21
0.2009257086614173
0
LINE
8
BLACK
6
CONTINUOUS
10
0.1928954330708661
20
0.2009257086614173
11
0.1924545275590551
21
0.2019901181102362
0
LINE
8
BLACK
6
CONTINUOUS
10
0.1924545275590551
20
0.2019901181102362
11
0.1923977952755905
21
0.2025661811023622
0
LINE
8
BLACK
6
CONTINUOUS
10
0.1923977952755905
20
0.2025661811023622
11
0.1923977952755905
21
0.2202358661417323
0
LINE
8
BLACK
6
CONTINUOUS
10
0.1923977952755905
20
0.2202358661417323
11
0.1758061417322835
21
0.2202358661417323
0
LINE
8
BLACK
6
CONTINUOUS
10
0.1758061417322835
20
0.2202358661417323
11
0.1758061417322835
21
0.2025661811023622
0
LINE
8
BLACK
6
CONTINUOUS
10
0.1758061417322835
20
0.2025661811023622
11
0.1757494094488189
21
0.2019901181102362
0
LINE
8
BLACK
6
CONTINUOUS
10
0.1757494094488189
20
0.2019901181102362
11
0.1753085039370079
21
0.2009257086614173
0
LINE
8
BLACK
6
CONTINUOUS
10
0.1753085039370079
20
0.2009257086614173
11
0.1744938582677165
21
0.200111062992126
0
LINE
8
BLACK
6
CONTINUOUS
10
0.1744938582677165
20
0.200111062992126
11
0.1734294488188976
21
0.199670157480315
0
LINE
8
BLACK
6
CONTINUOUS
10
0.1734294488188976
20
0.199670157480315
11
0.1722773228346457
21
0.199670157480315
0
LINE
8
BLACK
6
CONTINUOUS
10
0.1722773228346457
20
0.199670157480315
11
0.1712129133858268
21
0.200111062992126
0
LINE
8
BLACK
6
CONTINUOUS
10
0.1712129133858268
20
0.200111062992126
11
0.1703982677165354
21
0.2009257086614173
0
LINE
8
BLACK
6
CONTINUOUS
10
0.1703982677165354
20
0.2009257086614173
11
0.1699573622047244
21
0.2019901181102362
0
LINE
8
BLACK
6
CONTINUOUS
10
0.1699573622047244
20
0.2019901181102362
11
0.1699006299212598
21
0.2025661811023622
0
LINE
8
BLACK
6
CONTINUOUS
10
0.1699006299212598
20
0.2025661811023622
11
0.1699006299212598
21
0.2419362598425197
0
LINE
8
BLACK
6
CONTINUOUS
10
0.1699006299212598
20
0.2419362598425197
11
0.1699573622047244
21
0.2425123228346457
0
LINE
8
BLACK
6
CONTINUOUS
10
0.1699573622047244
20
0.2425123228346457
11
0.1703982677165354
21
0.2435767322834645
0
LINE
8
BLACK
6
CONTINUOUS
10
0.1703982677165354
20
0.2435767322834645
11
0.1712129133858268
21
0.2443913779527559
0
LINE
8
BLACK
6
CONTINUOUS
10
0.1712129133858268
20
0.2443913779527559
11
0.1722773228346457
21
0.2448322834645669
0
LINE
8
BLACK
6
CONTINUOUS
10
0.1722773228346457
20
0.2448322834645669
11
0.1734294488188976
21
0.2448322834645669
0
LINE
8
BLACK
6
CONTINUOUS
10
0.1734294488188976
20
0.2448322834645669
11
0.1744938582677165
21
0.2443913779527559
0
CIRCLE
8
BLACK
10
-0.4724409448818898
20
0.
40
0.0068897637795276
0
CIRCLE
8
BLACK
10
0.
20
-0.4724409448818898
40
0.0068897637795276
0
CIRCLE
8
BLACK
10
0.4251968503937008
20
0.0039370078740157
40
0.0068897637795276
0
CIRCLE
8
BLACK
10
0.3251968503937008
20
0.1039370078740157
40
0.0068897637795276
0
CIRCLE
8
BLACK
10
0.3251968503937008
20
-0.0960629921259843
40
0.0068897637795276
0
CIRCLE
8
BLACK
10
0.5251968503937008
20
0.1039370078740157
40
0.0068897637795276
0
CIRCLE
8
BLACK
10
0.5251968503937008
20
-0.0960629921259843
40
0.0068897637795276
0
CIRCLE
8
BLACK
10
-0.1771653543307087
20
0.2204724409448819
40
0.0068897637795276
0
CIRCLE
8
BLACK
10
0.
20
0.4724409448818898
40
0.0068897637795276
0
CIRCLE
8
BLACK
10
0.1771653543307087
20
-0.2125984251968504
40
0.0068897637795276
0
CIRCLE
8
BLACK
10
-0.1771653543307087
20
-0.2125984251968504
40
0.0068897637795276
0
CIRCLE
8
BLACK
10
0.1771653543307087
20
0.2204724409448819
40
0.0068897637795276
  0
ENDSEC
  0
EOF
