  0
SECTION
  2
HEADER
  9
$ANGBASE
  50
0.0
  9
$ANGDIR
  70
1
  9
$MEASUREMENT
  70
0
  0
ENDSEC
  0
SECTION
  2
TABLES
  0
TABLE
  2
LTYPE
  70
4
  0
LTYPE
  5
40F
  2
CONTINUOUS
  70
0
  3
Solid line
  72
65
  73
0
  40
0.0
  0
LTYPE
  5
410
  2
DASHDOT
 70
0
  3
Dash Dot ____ _ ____ _
 72
65
 73
4
 40
2.0
 49
1.25
 49
-0.25
 49
0.25
 49
-0.25
  0
LTYPE
  5
411
  2
DASHED
 70
0
  3
Dashed __ __ __ __ __
 72
65
 73
2
 40
0.75
 49
0.5
 49
-0.25
  0
LTYPE
  5
43B
  2
DOTTED
 70
0
  3
Dotted .  .  .  .
 72
65
 73
2
 40
0.2
 49
0.0
 49
-0.2
  0
ENDTAB
  0
TABLE
  2
STYLE
  70
4
  0
STYLE
  2
KICAD
  70
0
  40
0
  41
1
  42
1
  50
0
  71
0
  3
isocp.shx
  0
STYLE
  2
KICADB
  70
0
  40
0
  41
1
  42
1
  50
0
  71
0
  3
isocp.shx
  0
STYLE
  2
KICADI
  70
0
  40
0
  41
1
  42
1
  50
15
  71
0
  3
isocp.shx
  0
STYLE
  2
KICADBI
  70
0
  40
0
  41
1
  42
1
  50
15
  71
0
  3
isocp.shx
  0
ENDTAB
  0
TABLE
  2
LAYER
  70
1
  0
LAYER
  2
BLACK
  70
0
  62
7
  6
CONTINUOUS
  0
ENDTAB
  0
ENDSEC
  0
SECTION
  2
ENTITIES
0
LINE
8
BLACK
6
CONTINUOUS
10
-0.1589067322834646
20
-0.1168834251968504
11
-0.1470544488188976
21
-0.1199265748031496
0
LINE
8
BLACK
6
CONTINUOUS
10
-0.1470544488188976
20
-0.1199265748031496
11
-0.1356770078740157
21
-0.1244312204724409
0
LINE
8
BLACK
6
CONTINUOUS
10
-0.1356770078740157
20
-0.1244312204724409
11
-0.1249538976377953
21
-0.1303262992125984
0
LINE
8
BLACK
6
CONTINUOUS
10
-0.1249538976377953
20
-0.1303262992125984
11
-0.1150541732283464
21
-0.1375188976377953
0
LINE
8
BLACK
6
CONTINUOUS
10
-0.1150541732283464
20
-0.1375188976377953
11
-0.1061339763779528
21
-0.1458955118110236
0
LINE
8
BLACK
6
CONTINUOUS
10
-0.1061339763779528
20
-0.1458955118110236
11
-0.0983339763779528
21
-0.155324094488189
0
LINE
8
BLACK
6
CONTINUOUS
10
-0.0983339763779528
20
-0.155324094488189
11
-0.0917772047244095
21
-0.165655905511811
0
LINE
8
BLACK
6
CONTINUOUS
10
-0.0917772047244095
20
-0.165655905511811
11
-0.0865670472440945
21
-0.176728031496063
0
LINE
8
BLACK
6
CONTINUOUS
10
-0.0865670472440945
20
-0.176728031496063
11
-0.0827857086614173
21
-0.1883658661417323
0
LINE
8
BLACK
6
CONTINUOUS
10
-0.0827857086614173
20
-0.1883658661417323
11
-0.0804927559055118
21
-0.2003858267716535
0
LINE
8
BLACK
6
CONTINUOUS
10
-0.0804927559055118
20
-0.2003858267716535
11
-0.0797244094488189
21
-0.2125984251968504
0
LINE
8
BLACK
6
CONTINUOUS
10
-0.0797244094488189
20
-0.2125984251968504
11
-0.0804927559055118
21
-0.2248110236220472
0
LINE
8
BLACK
6
CONTINUOUS
10
-0.0804927559055118
20
-0.2248110236220472
11
-0.0827857086614173
21
-0.2368309842519685
0
LINE
8
BLACK
6
CONTINUOUS
10
-0.0827857086614173
20
-0.2368309842519685
11
-0.0865670472440945
21
-0.2484688188976378
0
LINE
8
BLACK
6
CONTINUOUS
10
-0.0865670472440945
20
-0.2484688188976378
11
-0.0917772047244095
21
-0.2595409448818898
0
LINE
8
BLACK
6
CONTINUOUS
10
-0.0917772047244095
20
-0.2595409448818898
11
-0.0983339763779528
21
-0.2698727559055118
0
LINE
8
BLACK
6
CONTINUOUS
10
-0.0983339763779528
20
-0.2698727559055118
11
-0.1061339763779528
21
-0.2793013385826771
0
LINE
8
BLACK
6
CONTINUOUS
10
-0.1061339763779528
20
-0.2793013385826771
11
-0.1150541732283464
21
-0.2876779527559055
0
LINE
8
BLACK
6
CONTINUOUS
10
-0.1150541732283464
20
-0.2876779527559055
11
-0.1249538976377953
21
-0.2948705511811023
0
LINE
8
BLACK
6
CONTINUOUS
10
-0.1249538976377953
20
-0.2948705511811023
11
-0.1356770078740157
21
-0.3007656299212598
0
LINE
8
BLACK
6
CONTINUOUS
10
-0.1356770078740157
20
-0.3007656299212598
11
-0.1470544488188976
21
-0.3052702755905512
0
LINE
8
BLACK
6
CONTINUOUS
10
-0.1470544488188976
20
-0.3052702755905512
11
-0.1589067322834646
21
-0.3083134251968504
0
LINE
8
BLACK
6
CONTINUOUS
10
-0.1589067322834646
20
-0.3083134251968504
11
-0.171046968503937
21
-0.3098470866141732
0
LINE
8
BLACK
6
CONTINUOUS
10
-0.171046968503937
20
-0.3098470866141732
11
-0.1832837401574803
21
-0.3098470866141732
0
LINE
8
BLACK
6
CONTINUOUS
10
-0.1832837401574803
20
-0.3098470866141732
11
-0.1954239763779528
21
-0.3083134251968504
0
LINE
8
BLACK
6
CONTINUOUS
10
-0.1954239763779528
20
-0.3083134251968504
11
-0.2072762598425197
21
-0.3052702755905512
0
LINE
8
BLACK
6
CONTINUOUS
10
-0.2072762598425197
20
-0.3052702755905512
11
-0.2186537007874016
21
-0.3007656299212598
0
LINE
8
BLACK
6
CONTINUOUS
10
-0.2186537007874016
20
-0.3007656299212598
11
-0.229376811023622
21
-0.2948705511811023
0
LINE
8
BLACK
6
CONTINUOUS
10
-0.229376811023622
20
-0.2948705511811023
11
-0.2392765354330709
21
-0.2876779527559055
0
LINE
8
BLACK
6
CONTINUOUS
10
-0.2392765354330709
20
-0.2876779527559055
11
-0.2481967322834646
21
-0.2793013385826771
0
LINE
8
BLACK
6
CONTINUOUS
10
-0.2481967322834646
20
-0.2793013385826771
11
-0.2559967322834645
21
-0.2698727559055118
0
LINE
8
BLACK
6
CONTINUOUS
10
-0.2559967322834645
20
-0.2698727559055118
11
-0.2625535039370079
21
-0.2595409448818898
0
LINE
8
BLACK
6
CONTINUOUS
10
-0.2625535039370079
20
-0.2595409448818898
11
-0.2677636614173228
21
-0.2484688188976378
0
LINE
8
BLACK
6
CONTINUOUS
10
-0.2677636614173228
20
-0.2484688188976378
11
-0.271545
21
-0.2368309842519685
0
LINE
8
BLACK
6
CONTINUOUS
10
-0.271545
20
-0.2368309842519685
11
-0.2738379527559055
21
-0.2248110236220472
0
LINE
8
BLACK
6
CONTINUOUS
10
-0.2738379527559055
20
-0.2248110236220472
11
-0.2746062992125984
21
-0.2125984251968504
0
LINE
8
BLACK
6
CONTINUOUS
10
-0.2746062992125984
20
-0.2125984251968504
11
-0.2738379527559055
21
-0.2003858267716535
0
LINE
8
BLACK
6
CONTINUOUS
10
-0.2738379527559055
20
-0.2003858267716535
11
-0.271545
21
-0.1883658661417323
0
LINE
8
BLACK
6
CONTINUOUS
10
-0.271545
20
-0.1883658661417323
11
-0.2677636614173228
21
-0.176728031496063
0
LINE
8
BLACK
6
CONTINUOUS
10
-0.2677636614173228
20
-0.176728031496063
11
-0.2625535039370079
21
-0.165655905511811
0
LINE
8
BLACK
6
CONTINUOUS
10
-0.2625535039370079
20
-0.165655905511811
11
-0.2559967322834645
21
-0.155324094488189
0
LINE
8
BLACK
6
CONTINUOUS
10
-0.2559967322834645
20
-0.155324094488189
11
-0.2481967322834646
21
-0.1458955118110236
0
LINE
8
BLACK
6
CONTINUOUS
10
-0.2481967322834646
20
-0.1458955118110236
11
-0.2392765354330709
21
-0.1375188976377953
0
LINE
8
BLACK
6
CONTINUOUS
10
-0.2392765354330709
20
-0.1375188976377953
11
-0.229376811023622
21
-0.1303262992125984
0
LINE
8
BLACK
6
CONTINUOUS
10
-0.229376811023622
20
-0.1303262992125984
11
-0.2186537007874016
21
-0.1244312204724409
0
LINE
8
BLACK
6
CONTINUOUS
10
-0.2186537007874016
20
-0.1244312204724409
11
-0.2072762598425197
21
-0.1199265748031496
0
LINE
8
BLACK
6
CONTINUOUS
10
-0.2072762598425197
20
-0.1199265748031496
11
-0.1954239763779528
21
-0.1168834251968504
0
LINE
8
BLACK
6
CONTINUOUS
10
-0.1954239763779528
20
-0.1168834251968504
11
-0.1832837401574803
21
-0.1153497637795276
0
LINE
8
BLACK
6
CONTINUOUS
10
-0.1832837401574803
20
-0.1153497637795276
11
-0.171046968503937
21
-0.1153497637795276
0
LINE
8
BLACK
6
CONTINUOUS
10
-0.171046968503937
20
-0.1153497637795276
11
-0.1589067322834646
21
-0.1168834251968504
0
LINE
8
BLACK
6
CONTINUOUS
10
-0.2720722440944882
20
-0.2245879527559055
11
-0.2698212204724409
21
-0.2363883858267717
0
LINE
8
BLACK
6
CONTINUOUS
10
-0.2698212204724409
20
-0.2363883858267717
11
-0.2661088976377953
21
-0.2478136614173228
0
LINE
8
BLACK
6
CONTINUOUS
10
-0.2661088976377953
20
-0.2478136614173228
11
-0.260993937007874
21
-0.2586835826771653
0
LINE
8
BLACK
6
CONTINUOUS
10
-0.260993937007874
20
-0.2586835826771653
11
-0.2545568897637795
21
-0.2688266929133858
0
LINE
8
BLACK
6
CONTINUOUS
10
-0.2545568897637795
20
-0.2688266929133858
11
-0.2468993700787402
21
-0.278083031496063
0
LINE
8
BLACK
6
CONTINUOUS
10
-0.2468993700787402
20
-0.278083031496063
11
-0.238142125984252
21
-0.2863066535433071
0
LINE
8
BLACK
6
CONTINUOUS
10
-0.238142125984252
20
-0.2863066535433071
11
-0.2284231889763779
21
-0.293367874015748
0
LINE
8
BLACK
6
CONTINUOUS
10
-0.2284231889763779
20
-0.293367874015748
11
-0.217895905511811
21
-0.2991552755905512
0
LINE
8
BLACK
6
CONTINUOUS
10
-0.217895905511811
20
-0.2991552755905512
11
-0.2067262992125984
21
-0.3035776377952756
0
LINE
8
BLACK
6
CONTINUOUS
10
-0.2067262992125984
20
-0.3035776377952756
11
-0.1950904724409449
21
-0.3065652362204724
0
LINE
8
BLACK
6
CONTINUOUS
10
-0.1950904724409449
20
-0.3065652362204724
11
-0.183171968503937
21
-0.3080708661417323
0
LINE
8
BLACK
6
CONTINUOUS
10
-0.183171968503937
20
-0.3080708661417323
11
-0.1711587401574803
21
-0.3080708661417323
0
LINE
8
BLACK
6
CONTINUOUS
10
-0.1711587401574803
20
-0.3080708661417323
11
-0.1592402362204724
21
-0.3065652362204724
0
LINE
8
BLACK
6
CONTINUOUS
10
-0.1592402362204724
20
-0.3065652362204724
11
-0.1476044094488189
21
-0.3035776377952756
0
LINE
8
BLACK
6
CONTINUOUS
10
-0.1476044094488189
20
-0.3035776377952756
11
-0.1364348031496063
21
-0.2991552755905512
0
LINE
8
BLACK
6
CONTINUOUS
10
-0.1364348031496063
20
-0.2991552755905512
11
-0.1259075196850394
21
-0.293367874015748
0
LINE
8
BLACK
6
CONTINUOUS
10
-0.1259075196850394
20
-0.293367874015748
11
-0.1161885826771654
21
-0.2863066535433071
0
LINE
8
BLACK
6
CONTINUOUS
10
-0.1161885826771654
20
-0.2863066535433071
11
-0.1074313385826772
21
-0.278083031496063
0
LINE
8
BLACK
6
CONTINUOUS
10
-0.1074313385826772
20
-0.278083031496063
11
-0.0997738188976378
21
-0.2688266929133858
0
LINE
8
BLACK
6
CONTINUOUS
10
-0.0997738188976378
20
-0.2688266929133858
11
-0.0933367716535433
21
-0.2586835826771653
0
LINE
8
BLACK
6
CONTINUOUS
10
-0.0933367716535433
20
-0.2586835826771653
11
-0.088221811023622
21
-0.2478136614173228
0
LINE
8
BLACK
6
CONTINUOUS
10
-0.088221811023622
20
-0.2478136614173228
11
-0.0845094881889764
21
-0.2363883858267717
0
LINE
8
BLACK
6
CONTINUOUS
10
-0.0845094881889764
20
-0.2363883858267717
11
-0.0822584645669291
21
-0.2245879527559055
0
LINE
8
BLACK
6
CONTINUOUS
10
-0.0822584645669291
20
-0.2245879527559055
11
-0.0815041338582677
21
-0.2125984251968504
0
LINE
8
BLACK
6
CONTINUOUS
10
-0.0815041338582677
20
-0.2125984251968504
11
-0.0822584645669291
21
-0.2006088976377953
0
LINE
8
BLACK
6
CONTINUOUS
10
-0.0822584645669291
20
-0.2006088976377953
11
-0.0845094881889764
21
-0.1888084645669291
0
LINE
8
BLACK
6
CONTINUOUS
10
-0.0845094881889764
20
-0.1888084645669291
11
-0.088221811023622
21
-0.1773831889763779
0
LINE
8
BLACK
6
CONTINUOUS
10
-0.088221811023622
20
-0.1773831889763779
11
-0.0933367716535433
21
-0.1665132677165354
0
LINE
8
BLACK
6
CONTINUOUS
10
-0.0933367716535433
20
-0.1665132677165354
11
-0.0997738188976378
21
-0.156370157480315
0
LINE
8
BLACK
6
CONTINUOUS
10
-0.0997738188976378
20
-0.156370157480315
11
-0.1074313385826772
21
-0.1471138188976378
0
LINE
8
BLACK
6
CONTINUOUS
10
-0.1074313385826772
20
-0.1471138188976378
11
-0.1161885826771654
21
-0.1388901968503937
0
LINE
8
BLACK
6
CONTINUOUS
10
-0.1161885826771654
20
-0.1388901968503937
11
-0.1259075196850394
21
-0.1318289763779527
0
LINE
8
BLACK
6
CONTINUOUS
10
-0.1259075196850394
20
-0.1318289763779527
11
-0.1364348031496063
21
-0.1260415748031496
0
LINE
8
BLACK
6
CONTINUOUS
10
-0.1364348031496063
20
-0.1260415748031496
11
-0.1476044094488189
21
-0.1216192125984252
0
LINE
8
BLACK
6
CONTINUOUS
10
-0.1476044094488189
20
-0.1216192125984252
11
-0.1592402362204724
21
-0.1186316141732283
0
LINE
8
BLACK
6
CONTINUOUS
10
-0.1592402362204724
20
-0.1186316141732283
11
-0.1711587401574803
21
-0.1171259842519685
0
LINE
8
BLACK
6
CONTINUOUS
10
-0.1711587401574803
20
-0.1171259842519685
11
-0.183171968503937
21
-0.1171259842519685
0
LINE
8
BLACK
6
CONTINUOUS
10
-0.183171968503937
20
-0.1171259842519685
11
-0.1950904724409449
21
-0.1186316141732283
0
LINE
8
BLACK
6
CONTINUOUS
10
-0.1950904724409449
20
-0.1186316141732283
11
-0.2067262992125984
21
-0.1216192125984252
0
LINE
8
BLACK
6
CONTINUOUS
10
-0.2067262992125984
20
-0.1216192125984252
11
-0.217895905511811
21
-0.1260415748031496
0
LINE
8
BLACK
6
CONTINUOUS
10
-0.217895905511811
20
-0.1260415748031496
11
-0.2284231889763779
21
-0.1318289763779527
0
LINE
8
BLACK
6
CONTINUOUS
10
-0.2284231889763779
20
-0.1318289763779527
11
-0.238142125984252
21
-0.1388901968503937
0
LINE
8
BLACK
6
CONTINUOUS
10
-0.238142125984252
20
-0.1388901968503937
11
-0.2468993700787402
21
-0.1471138188976378
0
LINE
8
BLACK
6
CONTINUOUS
10
-0.2468993700787402
20
-0.1471138188976378
11
-0.2545568897637795
21
-0.156370157480315
0
LINE
8
BLACK
6
CONTINUOUS
10
-0.2545568897637795
20
-0.156370157480315
11
-0.260993937007874
21
-0.1665132677165354
0
LINE
8
BLACK
6
CONTINUOUS
10
-0.260993937007874
20
-0.1665132677165354
11
-0.2661088976377953
21
-0.1773831889763779
0
LINE
8
BLACK
6
CONTINUOUS
10
-0.2661088976377953
20
-0.1773831889763779
11
-0.2698212204724409
21
-0.1888084645669291
0
LINE
8
BLACK
6
CONTINUOUS
10
-0.2698212204724409
20
-0.1888084645669291
11
-0.2720722440944882
21
-0.2006088976377953
0
LINE
8
BLACK
6
CONTINUOUS
10
-0.2720722440944882
20
-0.2006088976377953
11
-0.2728265748031496
21
-0.2125984251968504
0
LINE
8
BLACK
6
CONTINUOUS
10
-0.2728265748031496
20
-0.2125984251968504
11
-0.2720722440944882
21
-0.2245879527559055
0
LINE
8
BLACK
6
CONTINUOUS
10
0.1645498818897638
20
0.1099644488188976
11
0.1650825590551181
21
0.1094317716535433
0
LINE
8
BLACK
6
CONTINUOUS
10
0.1650825590551181
20
0.1094317716535433
11
0.1651574803149606
21
0.1090551181102362
0
LINE
8
BLACK
6
CONTINUOUS
10
0.1651574803149606
20
0.1090551181102362
11
0.1651574803149606
21
-0.1011811023622047
0
LINE
8
BLACK
6
CONTINUOUS
10
0.1651574803149606
20
-0.1011811023622047
11
0.1650825590551181
21
-0.1015577559055118
0
LINE
8
BLACK
6
CONTINUOUS
10
0.1650825590551181
20
-0.1015577559055118
11
0.1645498818897638
21
-0.1020904330708661
0
LINE
8
BLACK
6
CONTINUOUS
10
0.1645498818897638
20
-0.1020904330708661
11
0.1641732283464567
21
-0.1021653543307087
0
LINE
8
BLACK
6
CONTINUOUS
10
0.1641732283464567
20
-0.1021653543307087
11
-0.0066929133858268
21
-0.1021653543307087
0
LINE
8
BLACK
6
CONTINUOUS
10
-0.0066929133858268
20
-0.1021653543307087
11
-0.0070695669291339
21
-0.1020904330708661
0
LINE
8
BLACK
6
CONTINUOUS
10
-0.0070695669291339
20
-0.1020904330708661
11
-0.0076022440944882
21
-0.1015577559055118
0
LINE
8
BLACK
6
CONTINUOUS
10
-0.0076022440944882
20
-0.1015577559055118
11
-0.0076771653543307
21
-0.1011811023622047
0
LINE
8
BLACK
6
CONTINUOUS
10
-0.0076771653543307
20
-0.1011811023622047
11
-0.0076771653543307
21
0.1090551181102362
0
LINE
8
BLACK
6
CONTINUOUS
10
-0.0076771653543307
20
0.1090551181102362
11
-0.0076022440944882
21
0.1094317716535433
0
LINE
8
BLACK
6
CONTINUOUS
10
-0.0076022440944882
20
0.1094317716535433
11
-0.0070695669291339
21
0.1099644488188976
0
LINE
8
BLACK
6
CONTINUOUS
10
-0.0070695669291339
20
0.1099644488188976
11
-0.0066929133858268
21
0.1100393700787402
0
LINE
8
BLACK
6
CONTINUOUS
10
-0.0066929133858268
20
0.1100393700787402
11
0.1641732283464567
21
0.1100393700787402
0
LINE
8
BLACK
6
CONTINUOUS
10
0.1641732283464567
20
0.1100393700787402
11
0.1645498818897638
21
0.1099644488188976
0
LINE
8
BLACK
6
CONTINUOUS
10
-0.0057086614173228
20
0.1080708661417323
11
-0.0057086614173228
21
-0.1001968503937008
0
LINE
8
BLACK
6
CONTINUOUS
10
-0.0057086614173228
20
-0.1001968503937008
11
0.1631889763779528
21
-0.1001968503937008
0
LINE
8
BLACK
6
CONTINUOUS
10
0.1631889763779528
20
-0.1001968503937008
11
0.1631889763779528
21
0.1080708661417323
0
LINE
8
BLACK
6
CONTINUOUS
10
0.1631889763779528
20
0.1080708661417323
11
-0.0057086614173228
21
0.1080708661417323
0
LINE
8
BLACK
6
CONTINUOUS
10
0.1954239763779528
20
0.3161874409448819
11
0.2072762598425197
21
0.3131442913385827
0
LINE
8
BLACK
6
CONTINUOUS
10
0.2072762598425197
20
0.3131442913385827
11
0.2186537007874016
21
0.3086396456692913
0
LINE
8
BLACK
6
CONTINUOUS
10
0.2186537007874016
20
0.3086396456692913
11
0.229376811023622
21
0.3027445669291339
0
LINE
8
BLACK
6
CONTINUOUS
10
0.229376811023622
20
0.3027445669291339
11
0.2392765354330709
21
0.295551968503937
0
LINE
8
BLACK
6
CONTINUOUS
10
0.2392765354330709
20
0.295551968503937
11
0.2481967322834646
21
0.2871753543307087
0
LINE
8
BLACK
6
CONTINUOUS
10
0.2481967322834646
20
0.2871753543307087
11
0.2559967322834645
21
0.2777467716535433
0
LINE
8
BLACK
6
CONTINUOUS
10
0.2559967322834645
20
0.2777467716535433
11
0.2625535039370079
21
0.2674149606299213
0
LINE
8
BLACK
6
CONTINUOUS
10
0.2625535039370079
20
0.2674149606299213
11
0.2677636614173228
21
0.2563428346456693
0
LINE
8
BLACK
6
CONTINUOUS
10
0.2677636614173228
20
0.2563428346456693
11
0.271545
21
0.244705
0
LINE
8
BLACK
6
CONTINUOUS
10
0.271545
20
0.244705
11
0.2738379527559055
21
0.2326850393700787
0
LINE
8
BLACK
6
CONTINUOUS
10
0.2738379527559055
20
0.2326850393700787
11
0.2746062992125984
21
0.2204724409448819
0
LINE
8
BLACK
6
CONTINUOUS
10
0.2746062992125984
20
0.2204724409448819
11
0.2738379527559055
21
0.208259842519685
0
LINE
8
BLACK
6
CONTINUOUS
10
0.2738379527559055
20
0.208259842519685
11
0.271545
21
0.1962398818897638
0
LINE
8
BLACK
6
CONTINUOUS
10
0.271545
20
0.1962398818897638
11
0.2677636614173228
21
0.1846020472440945
0
LINE
8
BLACK
6
CONTINUOUS
10
0.2677636614173228
20
0.1846020472440945
11
0.2625535039370079
21
0.1735299212598425
0
LINE
8
BLACK
6
CONTINUOUS
10
0.2625535039370079
20
0.1735299212598425
11
0.2559967322834645
21
0.1631981102362205
0
LINE
8
BLACK
6
CONTINUOUS
10
0.2559967322834645
20
0.1631981102362205
11
0.2481967322834646
21
0.1537695275590551
0
LINE
8
BLACK
6
CONTINUOUS
10
0.2481967322834646
20
0.1537695275590551
11
0.2392765354330709
21
0.1453929133858268
0
LINE
8
BLACK
6
CONTINUOUS
10
0.2392765354330709
20
0.1453929133858268
11
0.229376811023622
21
0.1382003149606299
0
LINE
8
BLACK
6
CONTINUOUS
10
0.229376811023622
20
0.1382003149606299
11
0.2186537007874016
21
0.1323052362204724
0
LINE
8
BLACK
6
CONTINUOUS
10
0.2186537007874016
20
0.1323052362204724
11
0.2072762598425197
21
0.1278005905511811
0
LINE
8
BLACK
6
CONTINUOUS
10
0.2072762598425197
20
0.1278005905511811
11
0.1954239763779528
21
0.1247574409448819
0
LINE
8
BLACK
6
CONTINUOUS
10
0.1954239763779528
20
0.1247574409448819
11
0.1832837401574803
21
0.1232237795275591
0
LINE
8
BLACK
6
CONTINUOUS
10
0.1832837401574803
20
0.1232237795275591
11
0.171046968503937
21
0.1232237795275591
0
LINE
8
BLACK
6
CONTINUOUS
10
0.171046968503937
20
0.1232237795275591
11
0.1589067322834646
21
0.1247574409448819
0
LINE
8
BLACK
6
CONTINUOUS
10
0.1589067322834646
20
0.1247574409448819
11
0.1470544488188976
21
0.1278005905511811
0
LINE
8
BLACK
6
CONTINUOUS
10
0.1470544488188976
20
0.1278005905511811
11
0.1356770078740157
21
0.1323052362204724
0
LINE
8
BLACK
6
CONTINUOUS
10
0.1356770078740157
20
0.1323052362204724
11
0.1249538976377953
21
0.1382003149606299
0
LINE
8
BLACK
6
CONTINUOUS
10
0.1249538976377953
20
0.1382003149606299
11
0.1150541732283464
21
0.1453929133858268
0
LINE
8
BLACK
6
CONTINUOUS
10
0.1150541732283464
20
0.1453929133858268
11
0.1061339763779528
21
0.1537695275590551
0
LINE
8
BLACK
6
CONTINUOUS
10
0.1061339763779528
20
0.1537695275590551
11
0.0983339763779528
21
0.1631981102362205
0
LINE
8
BLACK
6
CONTINUOUS
10
0.0983339763779528
20
0.1631981102362205
11
0.0917772047244095
21
0.1735299212598425
0
LINE
8
BLACK
6
CONTINUOUS
10
0.0917772047244095
20
0.1735299212598425
11
0.0865670472440945
21
0.1846020472440945
0
LINE
8
BLACK
6
CONTINUOUS
10
0.0865670472440945
20
0.1846020472440945
11
0.0827857086614173
21
0.1962398818897638
0
LINE
8
BLACK
6
CONTINUOUS
10
0.0827857086614173
20
0.1962398818897638
11
0.0804927559055118
21
0.208259842519685
0
LINE
8
BLACK
6
CONTINUOUS
10
0.0804927559055118
20
0.208259842519685
11
0.0797244094488189
21
0.2204724409448819
0
LINE
8
BLACK
6
CONTINUOUS
10
0.0797244094488189
20
0.2204724409448819
11
0.0804927559055118
21
0.2326850393700787
0
LINE
8
BLACK
6
CONTINUOUS
10
0.0804927559055118
20
0.2326850393700787
11
0.0827857086614173
21
0.244705
0
LINE
8
BLACK
6
CONTINUOUS
10
0.0827857086614173
20
0.244705
11
0.0865670472440945
21
0.2563428346456693
0
LINE
8
BLACK
6
CONTINUOUS
10
0.0865670472440945
20
0.2563428346456693
11
0.0917772047244095
21
0.2674149606299213
0
LINE
8
BLACK
6
CONTINUOUS
10
0.0917772047244095
20
0.2674149606299213
11
0.0983339763779528
21
0.2777467716535433
0
LINE
8
BLACK
6
CONTINUOUS
10
0.0983339763779528
20
0.2777467716535433
11
0.1061339763779528
21
0.2871753543307087
0
LINE
8
BLACK
6
CONTINUOUS
10
0.1061339763779528
20
0.2871753543307087
11
0.1150541732283464
21
0.295551968503937
0
LINE
8
BLACK
6
CONTINUOUS
10
0.1150541732283464
20
0.295551968503937
11
0.1249538976377953
21
0.3027445669291339
0
LINE
8
BLACK
6
CONTINUOUS
10
0.1249538976377953
20
0.3027445669291339
11
0.1356770078740157
21
0.3086396456692913
0
LINE
8
BLACK
6
CONTINUOUS
10
0.1356770078740157
20
0.3086396456692913
11
0.1470544488188976
21
0.3131442913385827
0
LINE
8
BLACK
6
CONTINUOUS
10
0.1470544488188976
20
0.3131442913385827
11
0.1589067322834646
21
0.3161874409448819
0
LINE
8
BLACK
6
CONTINUOUS
10
0.1589067322834646
20
0.3161874409448819
11
0.171046968503937
21
0.3177211023622047
0
LINE
8
BLACK
6
CONTINUOUS
10
0.171046968503937
20
0.3177211023622047
11
0.1832837401574803
21
0.3177211023622047
0
LINE
8
BLACK
6
CONTINUOUS
10
0.1832837401574803
20
0.3177211023622047
11
0.1954239763779528
21
0.3161874409448819
0
LINE
8
BLACK
6
CONTINUOUS
10
0.0822584645669291
20
0.2084829133858268
11
0.0845094881889764
21
0.1966824803149606
0
LINE
8
BLACK
6
CONTINUOUS
10
0.0845094881889764
20
0.1966824803149606
11
0.088221811023622
21
0.1852572047244095
0
LINE
8
BLACK
6
CONTINUOUS
10
0.088221811023622
20
0.1852572047244095
11
0.0933367716535433
21
0.1743872834645669
0
LINE
8
BLACK
6
CONTINUOUS
10
0.0933367716535433
20
0.1743872834645669
11
0.0997738188976378
21
0.1642441732283464
0
LINE
8
BLACK
6
CONTINUOUS
10
0.0997738188976378
20
0.1642441732283464
11
0.1074313385826772
21
0.1549878346456693
0
LINE
8
BLACK
6
CONTINUOUS
10
0.1074313385826772
20
0.1549878346456693
11
0.1161885826771654
21
0.1467642125984252
0
LINE
8
BLACK
6
CONTINUOUS
10
0.1161885826771654
20
0.1467642125984252
11
0.1259075196850394
21
0.1397029921259842
0
LINE
8
BLACK
6
CONTINUOUS
10
0.1259075196850394
20
0.1397029921259842
11
0.1364348031496063
21
0.1339155905511811
0
LINE
8
BLACK
6
CONTINUOUS
10
0.1364348031496063
20
0.1339155905511811
11
0.1476044094488189
21
0.1294932283464567
0
LINE
8
BLACK
6
CONTINUOUS
10
0.1476044094488189
20
0.1294932283464567
11
0.1592402362204724
21
0.1265056299212598
0
LINE
8
BLACK
6
CONTINUOUS
10
0.1592402362204724
20
0.1265056299212598
11
0.1711587401574803
21
0.125
0
LINE
8
BLACK
6
CONTINUOUS
10
0.1711587401574803
20
0.125
11
0.183171968503937
21
0.125
0
LINE
8
BLACK
6
CONTINUOUS
10
0.183171968503937
20
0.125
11
0.1950904724409449
21
0.1265056299212598
0
LINE
8
BLACK
6
CONTINUOUS
10
0.1950904724409449
20
0.1265056299212598
11
0.2067262992125984
21
0.1294932283464567
0
LINE
8
BLACK
6
CONTINUOUS
10
0.2067262992125984
20
0.1294932283464567
11
0.217895905511811
21
0.1339155905511811
0
LINE
8
BLACK
6
CONTINUOUS
10
0.217895905511811
20
0.1339155905511811
11
0.2284231889763779
21
0.1397029921259842
0
LINE
8
BLACK
6
CONTINUOUS
10
0.2284231889763779
20
0.1397029921259842
11
0.238142125984252
21
0.1467642125984252
0
LINE
8
BLACK
6
CONTINUOUS
10
0.238142125984252
20
0.1467642125984252
11
0.2468993700787402
21
0.1549878346456693
0
LINE
8
BLACK
6
CONTINUOUS
10
0.2468993700787402
20
0.1549878346456693
11
0.2545568897637795
21
0.1642441732283464
0
LINE
8
BLACK
6
CONTINUOUS
10
0.2545568897637795
20
0.1642441732283464
11
0.260993937007874
21
0.1743872834645669
0
LINE
8
BLACK
6
CONTINUOUS
10
0.260993937007874
20
0.1743872834645669
11
0.2661088976377953
21
0.1852572047244095
0
LINE
8
BLACK
6
CONTINUOUS
10
0.2661088976377953
20
0.1852572047244095
11
0.2698212204724409
21
0.1966824803149606
0
LINE
8
BLACK
6
CONTINUOUS
10
0.2698212204724409
20
0.1966824803149606
11
0.2720722440944882
21
0.2084829133858268
0
LINE
8
BLACK
6
CONTINUOUS
10
0.2720722440944882
20
0.2084829133858268
11
0.2728265748031496
21
0.2204724409448819
0
LINE
8
BLACK
6
CONTINUOUS
10
0.2728265748031496
20
0.2204724409448819
11
0.2720722440944882
21
0.232461968503937
0
LINE
8
BLACK
6
CONTINUOUS
10
0.2720722440944882
20
0.232461968503937
11
0.2698212204724409
21
0.2442624015748031
0
LINE
8
BLACK
6
CONTINUOUS
10
0.2698212204724409
20
0.2442624015748031
11
0.2661088976377953
21
0.2556876771653543
0
LINE
8
BLACK
6
CONTINUOUS
10
0.2661088976377953
20
0.2556876771653543
11
0.260993937007874
21
0.2665575984251968
0
LINE
8
BLACK
6
CONTINUOUS
10
0.260993937007874
20
0.2665575984251968
11
0.2545568897637795
21
0.2767007086614173
0
LINE
8
BLACK
6
CONTINUOUS
10
0.2545568897637795
20
0.2767007086614173
11
0.2468993700787402
21
0.2859570472440945
0
LINE
8
BLACK
6
CONTINUOUS
10
0.2468993700787402
20
0.2859570472440945
11
0.238142125984252
21
0.2941806692913386
0
LINE
8
BLACK
6
CONTINUOUS
10
0.238142125984252
20
0.2941806692913386
11
0.2284231889763779
21
0.3012418897637795
0
LINE
8
BLACK
6
CONTINUOUS
10
0.2284231889763779
20
0.3012418897637795
11
0.217895905511811
21
0.3070292913385826
0
LINE
8
BLACK
6
CONTINUOUS
10
0.217895905511811
20
0.3070292913385826
11
0.2067262992125984
21
0.3114516535433071
0
LINE
8
BLACK
6
CONTINUOUS
10
0.2067262992125984
20
0.3114516535433071
11
0.1950904724409449
21
0.3144392519685039
0
LINE
8
BLACK
6
CONTINUOUS
10
0.1950904724409449
20
0.3144392519685039
11
0.183171968503937
21
0.3159448818897638
0
LINE
8
BLACK
6
CONTINUOUS
10
0.183171968503937
20
0.3159448818897638
11
0.1711587401574803
21
0.3159448818897638
0
LINE
8
BLACK
6
CONTINUOUS
10
0.1711587401574803
20
0.3159448818897638
11
0.1592402362204724
21
0.3144392519685039
0
LINE
8
BLACK
6
CONTINUOUS
10
0.1592402362204724
20
0.3144392519685039
11
0.1476044094488189
21
0.3114516535433071
0
LINE
8
BLACK
6
CONTINUOUS
10
0.1476044094488189
20
0.3114516535433071
11
0.1364348031496063
21
0.3070292913385826
0
LINE
8
BLACK
6
CONTINUOUS
10
0.1364348031496063
20
0.3070292913385826
11
0.1259075196850394
21
0.3012418897637795
0
LINE
8
BLACK
6
CONTINUOUS
10
0.1259075196850394
20
0.3012418897637795
11
0.1161885826771654
21
0.2941806692913386
0
LINE
8
BLACK
6
CONTINUOUS
10
0.1161885826771654
20
0.2941806692913386
11
0.1074313385826772
21
0.2859570472440945
0
LINE
8
BLACK
6
CONTINUOUS
10
0.1074313385826772
20
0.2859570472440945
11
0.0997738188976378
21
0.2767007086614173
0
LINE
8
BLACK
6
CONTINUOUS
10
0.0997738188976378
20
0.2767007086614173
11
0.0933367716535433
21
0.2665575984251968
0
LINE
8
BLACK
6
CONTINUOUS
10
0.0933367716535433
20
0.2665575984251968
11
0.088221811023622
21
0.2556876771653543
0
LINE
8
BLACK
6
CONTINUOUS
10
0.088221811023622
20
0.2556876771653543
11
0.0845094881889764
21
0.2442624015748031
0
LINE
8
BLACK
6
CONTINUOUS
10
0.0845094881889764
20
0.2442624015748031
11
0.0822584645669291
21
0.232461968503937
0
LINE
8
BLACK
6
CONTINUOUS
10
0.0822584645669291
20
0.232461968503937
11
0.0815041338582677
21
0.2204724409448819
0
LINE
8
BLACK
6
CONTINUOUS
10
0.0815041338582677
20
0.2204724409448819
11
0.0822584645669291
21
0.2084829133858268
0
CIRCLE
8
BLACK
10
-0.4724409448818898
20
0.
40
0.0068897637795276
0
CIRCLE
8
BLACK
10
0.
20
-0.4724409448818898
40
0.0068897637795276
0
CIRCLE
8
BLACK
10
0.4251968503937008
20
0.0039370078740157
40
0.0068897637795276
0
CIRCLE
8
BLACK
10
0.3251968503937008
20
0.1039370078740157
40
0.0068897637795276
0
CIRCLE
8
BLACK
10
0.3251968503937008
20
-0.0960629921259843
40
0.0068897637795276
0
CIRCLE
8
BLACK
10
0.5251968503937008
20
0.1039370078740157
40
0.0068897637795276
0
CIRCLE
8
BLACK
10
0.5251968503937008
20
-0.0960629921259843
40
0.0068897637795276
0
CIRCLE
8
BLACK
10
-0.1771653543307087
20
0.2204724409448819
40
0.0068897637795276
0
CIRCLE
8
BLACK
10
0.
20
0.4724409448818898
40
0.0068897637795276
0
CIRCLE
8
BLACK
10
0.1771653543307087
20
-0.2125984251968504
40
0.0068897637795276
0
CIRCLE
8
BLACK
10
-0.1771653543307087
20
-0.2125984251968504
40
0.0068897637795276
0
CIRCLE
8
BLACK
10
0.1771653543307087
20
0.2204724409448819
40
0.0068897637795276
  0
ENDSEC
  0
EOF
