  0
SECTION
  2
HEADER
  9
$ANGBASE
  50
0.0
  9
$ANGDIR
  70
1
  9
$MEASUREMENT
  70
0
  0
ENDSEC
  0
SECTION
  2
TABLES
  0
TABLE
  2
LTYPE
  70
4
  0
LTYPE
  5
40F
  2
CONTINUOUS
  70
0
  3
Solid line
  72
65
  73
0
  40
0.0
  0
LTYPE
  5
410
  2
DASHDOT
 70
0
  3
Dash Dot ____ _ ____ _
 72
65
 73
4
 40
2.0
 49
1.25
 49
-0.25
 49
0.25
 49
-0.25
  0
LTYPE
  5
411
  2
DASHED
 70
0
  3
Dashed __ __ __ __ __
 72
65
 73
2
 40
0.75
 49
0.5
 49
-0.25
  0
LTYPE
  5
43B
  2
DOTTED
 70
0
  3
Dotted .  .  .  .
 72
65
 73
2
 40
0.2
 49
0.0
 49
-0.2
  0
ENDTAB
  0
TABLE
  2
STYLE
  70
4
  0
STYLE
  2
KICAD
  70
0
  40
0
  41
1
  42
1
  50
0
  71
0
  3
isocp.shx
  0
STYLE
  2
KICADB
  70
0
  40
0
  41
1
  42
1
  50
0
  71
0
  3
isocp.shx
  0
STYLE
  2
KICADI
  70
0
  40
0
  41
1
  42
1
  50
15
  71
0
  3
isocp.shx
  0
STYLE
  2
KICADBI
  70
0
  40
0
  41
1
  42
1
  50
15
  71
0
  3
isocp.shx
  0
ENDTAB
  0
TABLE
  2
LAYER
  70
1
  0
LAYER
  2
BLACK
  70
0
  62
7
  6
CONTINUOUS
  0
ENDTAB
  0
ENDSEC
  0
SECTION
  2
ENTITIES
0
LINE
8
BLACK
6
CONTINUOUS
10
0.002594842519685
20
-0.4017729921259842
11
0.0052958267716535
21
-0.4017729921259842
0
LINE
8
BLACK
6
CONTINUOUS
10
0.0052958267716535
20
-0.4017729921259842
11
0.007734842519685
21
-0.4021405905511811
0
LINE
8
BLACK
6
CONTINUOUS
10
0.007734842519685
20
-0.4021405905511811
11
0.0100837401574803
21
-0.4023086220472441
0
LINE
8
BLACK
6
CONTINUOUS
10
0.0100837401574803
20
-0.4023086220472441
11
0.0128683858267717
21
-0.4029143700787401
0
LINE
8
BLACK
6
CONTINUOUS
10
0.0128683858267717
20
-0.4029143700787401
11
0.0157691732283465
21
-0.4033516141732283
0
LINE
8
BLACK
6
CONTINUOUS
10
0.0157691732283465
20
-0.4033516141732283
11
0.0179006299212598
21
-0.4040090551181102
0
LINE
8
BLACK
6
CONTINUOUS
10
0.0179006299212598
20
-0.4040090551181102
11
0.0199615354330709
21
-0.4044574015748031
0
LINE
8
BLACK
6
CONTINUOUS
10
0.0199615354330709
20
-0.4044574015748031
11
0.0228655118110236
21
-0.4055405118110236
0
LINE
8
BLACK
6
CONTINUOUS
10
0.0228655118110236
20
-0.4055405118110236
11
0.0258902755905512
21
-0.4064735433070866
0
LINE
8
BLACK
6
CONTINUOUS
10
0.0258902755905512
20
-0.4064735433070866
11
0.0276875196850394
21
-0.4073390551181102
0
LINE
8
BLACK
6
CONTINUOUS
10
0.0276875196850394
20
-0.4073390551181102
11
0.0294336220472441
21
-0.4079903149606299
0
LINE
8
BLACK
6
CONTINUOUS
10
0.0294336220472441
20
-0.4079903149606299
11
0.0323747244094488
21
-0.4095962598425197
0
LINE
8
BLACK
6
CONTINUOUS
10
0.0323747244094488
20
-0.4095962598425197
11
0.0354330708661417
21
-0.411069094488189
0
LINE
8
BLACK
6
CONTINUOUS
10
0.0354330708661417
20
-0.411069094488189
11
0.0368854724409449
21
-0.4120593307086614
0
LINE
8
BLACK
6
CONTINUOUS
10
0.0368854724409449
20
-0.4120593307086614
11
0.0383062992125984
21
-0.412835157480315
0
LINE
8
BLACK
6
CONTINUOUS
10
0.0383062992125984
20
-0.412835157480315
11
0.0411936220472441
21
-0.4149965748031496
0
LINE
8
BLACK
6
CONTINUOUS
10
0.0411936220472441
20
-0.4149965748031496
11
0.0441842913385827
21
-0.4170355905511811
0
LINE
8
BLACK
6
CONTINUOUS
10
0.0441842913385827
20
-0.4170355905511811
11
0.0452986220472441
21
-0.4180695275590551
0
LINE
8
BLACK
6
CONTINUOUS
10
0.0452986220472441
20
-0.4180695275590551
11
0.046399094488189
21
-0.4188933464566929
0
LINE
8
BLACK
6
CONTINUOUS
10
0.046399094488189
20
-0.4188933464566929
11
0.049133937007874
21
-0.4216281889763779
0
LINE
8
BLACK
6
CONTINUOUS
10
0.049133937007874
20
-0.4216281889763779
11
0.0519485433070866
21
-0.4242397637795275
0
LINE
8
BLACK
6
CONTINUOUS
10
0.0519485433070866
20
-0.4242397637795275
11
0.0527479921259843
21
-0.4252422440944882
0
LINE
8
BLACK
6
CONTINUOUS
10
0.0527479921259843
20
-0.4252422440944882
11
0.0535475590551181
21
-0.426041811023622
0
LINE
8
BLACK
6
CONTINUOUS
10
0.0535475590551181
20
-0.426041811023622
11
0.0560272440944882
21
-0.4293542913385827
0
LINE
8
BLACK
6
CONTINUOUS
10
0.0560272440944882
20
-0.4293542913385827
11
0.0585523228346457
21
-0.4325206299212598
0
LINE
8
BLACK
6
CONTINUOUS
10
0.0585523228346457
20
-0.4325206299212598
11
0.0590741732283465
21
-0.4334244881889764
0
LINE
8
BLACK
6
CONTINUOUS
10
0.0590741732283465
20
-0.4334244881889764
11
0.0596057480314961
21
-0.4341346062992126
0
LINE
8
BLACK
6
CONTINUOUS
10
0.0596057480314961
20
-0.4341346062992126
11
0.0617265748031496
21
-0.4380186220472441
0
LINE
8
BLACK
6
CONTINUOUS
10
0.0617265748031496
20
-0.4380186220472441
11
0.0638481496062992
21
-0.4416933070866141
0
LINE
8
BLACK
6
CONTINUOUS
10
0.0638481496062992
20
-0.4416933070866141
11
0.064142125984252
21
-0.4424424015748031
0
LINE
8
BLACK
6
CONTINUOUS
10
0.064142125984252
20
-0.4424424015748031
11
0.0644505905511811
21
-0.4430072834645669
0
LINE
8
BLACK
6
CONTINUOUS
10
0.0644505905511811
20
-0.4430072834645669
11
0.0661105905511811
21
-0.4474579133858267
0
LINE
8
BLACK
6
CONTINUOUS
10
0.0661105905511811
20
-0.4474579133858267
11
0.0677177165354331
21
-0.4515527952755906
0
LINE
8
BLACK
6
CONTINUOUS
10
0.0677177165354331
20
-0.4515527952755906
11
0.0678435433070866
21
-0.4521041732283465
0
LINE
8
BLACK
6
CONTINUOUS
10
0.0678435433070866
20
-0.4521041732283465
11
0.0679835039370079
21
-0.4524793700787402
0
LINE
8
BLACK
6
CONTINUOUS
10
0.0679835039370079
20
-0.4524793700787402
11
0.0690869291338583
21
-0.457551811023622
0
LINE
8
BLACK
6
CONTINUOUS
10
0.0690869291338583
20
-0.457551811023622
11
0.0700745669291339
21
-0.4618788976377953
0
LINE
8
BLACK
6
CONTINUOUS
10
0.0700745669291339
20
-0.4618788976377953
11
0.0700988976377953
21
-0.4622037401574803
0
LINE
8
BLACK
6
CONTINUOUS
10
0.0700988976377953
20
-0.4622037401574803
11
0.0701322834645669
21
-0.4623571653543307
0
LINE
8
BLACK
6
CONTINUOUS
10
0.0701322834645669
20
-0.4623571653543307
11
0.0705899212598425
21
-0.4687557086614173
0
LINE
8
BLACK
6
CONTINUOUS
10
0.0705899212598425
20
-0.4687557086614173
11
0.0708661023622047
21
-0.4724409448818898
0
LINE
8
BLACK
6
CONTINUOUS
10
0.0708661023622047
20
-0.4724409448818898
11
0.0705898818897638
21
-0.4761264173228346
0
LINE
8
BLACK
6
CONTINUOUS
10
0.0705898818897638
20
-0.4761264173228346
11
0.0701322834645669
21
-0.4825246850393701
0
LINE
8
BLACK
6
CONTINUOUS
10
0.0701322834645669
20
-0.4825246850393701
11
0.0700988976377953
21
-0.482678031496063
0
LINE
8
BLACK
6
CONTINUOUS
10
0.0700988976377953
20
-0.482678031496063
11
0.0700745669291339
21
-0.4830029921259842
0
LINE
8
BLACK
6
CONTINUOUS
10
0.0700745669291339
20
-0.4830029921259842
11
0.0690867322834646
21
-0.4873308267716535
0
LINE
8
BLACK
6
CONTINUOUS
10
0.0690867322834646
20
-0.4873308267716535
11
0.0679835039370079
21
-0.4924024803149606
0
LINE
8
BLACK
6
CONTINUOUS
10
0.0679835039370079
20
-0.4924024803149606
11
0.0678435826771654
21
-0.4927775984251969
0
LINE
8
BLACK
6
CONTINUOUS
10
0.0678435826771654
20
-0.4927775984251969
11
0.0677177165354331
21
-0.493329094488189
0
LINE
8
BLACK
6
CONTINUOUS
10
0.0677177165354331
20
-0.493329094488189
11
0.0661102755905512
21
-0.49742468503937
0
LINE
8
BLACK
6
CONTINUOUS
10
0.0661102755905512
20
-0.49742468503937
11
0.0644505905511811
21
-0.5018745669291338
0
LINE
8
BLACK
6
CONTINUOUS
10
0.0644505905511811
20
-0.5018745669291338
11
0.0641422047244094
21
-0.5024392913385827
0
LINE
8
BLACK
6
CONTINUOUS
10
0.0641422047244094
20
-0.5024392913385827
11
0.0638481496062992
21
-0.5031885826771654
0
LINE
8
BLACK
6
CONTINUOUS
10
0.0638481496062992
20
-0.5031885826771654
11
0.0617261811023622
21
-0.5068638976377953
0
LINE
8
BLACK
6
CONTINUOUS
10
0.0617261811023622
20
-0.5068638976377953
11
0.0596057480314961
21
-0.5107472440944881
0
LINE
8
BLACK
6
CONTINUOUS
10
0.0596057480314961
20
-0.5107472440944881
11
0.0590742519685039
21
-0.5114572047244095
0
LINE
8
BLACK
6
CONTINUOUS
10
0.0590742519685039
20
-0.5114572047244095
11
0.0585523228346457
21
-0.5123612598425197
0
LINE
8
BLACK
6
CONTINUOUS
10
0.0585523228346457
20
-0.5123612598425197
11
0.0560267716535433
21
-0.5155281496062992
0
LINE
8
BLACK
6
CONTINUOUS
10
0.0560267716535433
20
-0.5155281496062992
11
0.0535475590551181
21
-0.5188400393700787
0
LINE
8
BLACK
6
CONTINUOUS
10
0.0535475590551181
20
-0.5188400393700787
11
0.0527481496062992
21
-0.5196394094488189
0
LINE
8
BLACK
6
CONTINUOUS
10
0.0527481496062992
20
-0.5196394094488189
11
0.0519485433070866
21
-0.520642125984252
0
LINE
8
BLACK
6
CONTINUOUS
10
0.0519485433070866
20
-0.520642125984252
11
0.0491333858267717
21
-0.5232541732283464
0
LINE
8
BLACK
6
CONTINUOUS
10
0.0491333858267717
20
-0.5232541732283464
11
0.046399094488189
21
-0.5259885039370079
0
LINE
8
BLACK
6
CONTINUOUS
10
0.046399094488189
20
-0.5259885039370079
11
0.0452988582677165
21
-0.5268120866141732
0
LINE
8
BLACK
6
CONTINUOUS
10
0.0452988582677165
20
-0.5268120866141732
11
0.0441842913385827
21
-0.5278462992125984
0
LINE
8
BLACK
6
CONTINUOUS
10
0.0441842913385827
20
-0.5278462992125984
11
0.041193031496063
21
-0.5298856692913386
0
LINE
8
BLACK
6
CONTINUOUS
10
0.041193031496063
20
-0.5298856692913386
11
0.0383062992125984
21
-0.5320466929133858
0
LINE
8
BLACK
6
CONTINUOUS
10
0.0383062992125984
20
-0.5320466929133858
11
0.0368857480314961
21
-0.5328223228346457
0
LINE
8
BLACK
6
CONTINUOUS
10
0.0368857480314961
20
-0.5328223228346457
11
0.0354330708661417
21
-0.5338127952755906
0
LINE
8
BLACK
6
CONTINUOUS
10
0.0354330708661417
20
-0.5338127952755906
11
0.0323741338582677
21
-0.5352858661417322
0
LINE
8
BLACK
6
CONTINUOUS
10
0.0323741338582677
20
-0.5352858661417322
11
0.0294336220472441
21
-0.5368915354330709
0
LINE
8
BLACK
6
CONTINUOUS
10
0.0294336220472441
20
-0.5368915354330709
11
0.0276879133858268
21
-0.5375426377952756
0
LINE
8
BLACK
6
CONTINUOUS
10
0.0276879133858268
20
-0.5375426377952756
11
0.0258902755905512
21
-0.5384083464566929
0
LINE
8
BLACK
6
CONTINUOUS
10
0.0258902755905512
20
-0.5384083464566929
11
0.0228649212598425
21
-0.5393415354330708
0
LINE
8
BLACK
6
CONTINUOUS
10
0.0228649212598425
20
-0.5393415354330708
11
0.0199615354330709
21
-0.5404244488188976
0
LINE
8
BLACK
6
CONTINUOUS
10
0.0199615354330709
20
-0.5404244488188976
11
0.017901062992126
21
-0.5408726377952756
0
LINE
8
BLACK
6
CONTINUOUS
10
0.017901062992126
20
-0.5408726377952756
11
0.0157691732283465
21
-0.5415302755905511
0
LINE
8
BLACK
6
CONTINUOUS
10
0.0157691732283465
20
-0.5415302755905511
11
0.0128677952755906
21
-0.5419675590551181
0
LINE
8
BLACK
6
CONTINUOUS
10
0.0128677952755906
20
-0.5419675590551181
11
0.0100837401574803
21
-0.5425732283464567
0
LINE
8
BLACK
6
CONTINUOUS
10
0.0100837401574803
20
-0.5425732283464567
11
0.0077353543307087
21
-0.5427411811023622
0
LINE
8
BLACK
6
CONTINUOUS
10
0.0077353543307087
20
-0.5427411811023622
11
0.0052958267716535
21
-0.5431088976377952
0
LINE
8
BLACK
6
CONTINUOUS
10
0.0052958267716535
20
-0.5431088976377952
11
0.0025942913385827
21
-0.5431088976377952
0
LINE
8
BLACK
6
CONTINUOUS
10
0.0025942913385827
20
-0.5431088976377952
11
0.
21
-0.5432944488188977
0
LINE
8
BLACK
6
CONTINUOUS
10
0.
20
-0.5432944488188977
11
-0.0025942913385827
21
-0.5431088976377952
0
LINE
8
BLACK
6
CONTINUOUS
10
-0.0025942913385827
20
-0.5431088976377952
11
-0.0052958267716535
21
-0.5431088976377952
0
LINE
8
BLACK
6
CONTINUOUS
10
-0.0052958267716535
20
-0.5431088976377952
11
-0.0077353543307087
21
-0.5427411811023622
0
LINE
8
BLACK
6
CONTINUOUS
10
-0.0077353543307087
20
-0.5427411811023622
11
-0.0100837795275591
21
-0.5425732283464567
0
LINE
8
BLACK
6
CONTINUOUS
10
-0.0100837795275591
20
-0.5425732283464567
11
-0.0128679527559055
21
-0.5419675590551181
0
LINE
8
BLACK
6
CONTINUOUS
10
-0.0128679527559055
20
-0.5419675590551181
11
-0.0157691732283465
21
-0.5415302755905511
0
LINE
8
BLACK
6
CONTINUOUS
10
-0.0157691732283465
20
-0.5415302755905511
11
-0.0179010236220472
21
-0.5408726771653544
0
LINE
8
BLACK
6
CONTINUOUS
10
-0.0179010236220472
20
-0.5408726771653544
11
-0.0199615748031496
21
-0.5404244488188976
0
LINE
8
BLACK
6
CONTINUOUS
10
-0.0199615748031496
20
-0.5404244488188976
11
-0.022865157480315
21
-0.5393414566929133
0
LINE
8
BLACK
6
CONTINUOUS
10
-0.022865157480315
20
-0.5393414566929133
11
-0.0258902755905512
21
-0.5384083464566929
0
LINE
8
BLACK
6
CONTINUOUS
10
-0.0258902755905512
20
-0.5384083464566929
11
-0.0276877559055118
21
-0.5375427165354331
0
LINE
8
BLACK
6
CONTINUOUS
10
-0.0276877559055118
20
-0.5375427165354331
11
-0.0294336614173228
21
-0.5368915354330709
0
LINE
8
BLACK
6
CONTINUOUS
10
-0.0294336614173228
20
-0.5368915354330709
11
-0.0323746850393701
21
-0.5352855905511811
0
LINE
8
BLACK
6
CONTINUOUS
10
-0.0323746850393701
20
-0.5352855905511811
11
-0.035433031496063
21
-0.5338127952755906
0
LINE
8
BLACK
6
CONTINUOUS
10
-0.035433031496063
20
-0.5338127952755906
11
-0.0368854724409449
21
-0.5328225196850394
0
LINE
8
BLACK
6
CONTINUOUS
10
-0.0368854724409449
20
-0.5328225196850394
11
-0.0383063385826772
21
-0.5320466929133858
0
LINE
8
BLACK
6
CONTINUOUS
10
-0.0383063385826772
20
-0.5320466929133858
11
-0.0411936614173228
21
-0.5298852755905512
0
LINE
8
BLACK
6
CONTINUOUS
10
-0.0411936614173228
20
-0.5298852755905512
11
-0.0441842913385827
21
-0.5278462992125984
0
LINE
8
BLACK
6
CONTINUOUS
10
-0.0441842913385827
20
-0.5278462992125984
11
-0.0452987401574803
21
-0.5268122440944881
0
LINE
8
BLACK
6
CONTINUOUS
10
-0.0452987401574803
20
-0.5268122440944881
11
-0.0463991338582677
21
-0.5259885039370079
0
LINE
8
BLACK
6
CONTINUOUS
10
-0.0463991338582677
20
-0.5259885039370079
11
-0.0491339763779528
21
-0.5232536614173228
0
LINE
8
BLACK
6
CONTINUOUS
10
-0.0491339763779528
20
-0.5232536614173228
11
-0.0519485433070866
21
-0.520642125984252
0
LINE
8
BLACK
6
CONTINUOUS
10
-0.0519485433070866
20
-0.520642125984252
11
-0.052748031496063
21
-0.5196396062992126
0
LINE
8
BLACK
6
CONTINUOUS
10
-0.052748031496063
20
-0.5196396062992126
11
-0.0535475984251969
21
-0.5188400393700787
0
LINE
8
BLACK
6
CONTINUOUS
10
-0.0535475984251969
20
-0.5188400393700787
11
-0.0560274409448819
21
-0.5155273622047244
0
LINE
8
BLACK
6
CONTINUOUS
10
-0.0560274409448819
20
-0.5155273622047244
11
-0.0585523228346457
21
-0.5123612598425197
0
LINE
8
BLACK
6
CONTINUOUS
10
-0.0585523228346457
20
-0.5123612598425197
11
-0.0590741732283465
21
-0.5114574015748031
0
LINE
8
BLACK
6
CONTINUOUS
10
-0.0590741732283465
20
-0.5114574015748031
11
-0.0596057874015748
21
-0.5107472440944881
0
LINE
8
BLACK
6
CONTINUOUS
10
-0.0596057874015748
20
-0.5107472440944881
11
-0.0617269291338583
21
-0.5068626377952756
0
LINE
8
BLACK
6
CONTINUOUS
10
-0.0617269291338583
20
-0.5068626377952756
11
-0.0638481496062992
21
-0.5031885826771654
0
LINE
8
BLACK
6
CONTINUOUS
10
-0.0638481496062992
20
-0.5031885826771654
11
-0.064142125984252
21
-0.5024395669291338
0
LINE
8
BLACK
6
CONTINUOUS
10
-0.064142125984252
20
-0.5024395669291338
11
-0.0644506299212598
21
-0.5018745669291338
0
LINE
8
BLACK
6
CONTINUOUS
10
-0.0644506299212598
20
-0.5018745669291338
11
-0.0661111417322835
21
-0.4974226377952756
0
LINE
8
BLACK
6
CONTINUOUS
10
-0.0661111417322835
20
-0.4974226377952756
11
-0.0677177165354331
21
-0.493329094488189
0
LINE
8
BLACK
6
CONTINUOUS
10
-0.0677177165354331
20
-0.493329094488189
11
-0.0678435433070866
21
-0.492777874015748
0
LINE
8
BLACK
6
CONTINUOUS
10
-0.0678435433070866
20
-0.492777874015748
11
-0.0679835433070866
21
-0.4924024803149606
0
LINE
8
BLACK
6
CONTINUOUS
10
-0.0679835433070866
20
-0.4924024803149606
11
-0.0690876377952756
21
-0.4873271653543307
0
LINE
8
BLACK
6
CONTINUOUS
10
-0.0690876377952756
20
-0.4873271653543307
11
-0.0700745669291339
21
-0.4830029921259842
0
LINE
8
BLACK
6
CONTINUOUS
10
-0.0700745669291339
20
-0.4830029921259842
11
-0.0700988976377953
21
-0.4826783070866142
0
LINE
8
BLACK
6
CONTINUOUS
10
-0.0700988976377953
20
-0.4826783070866142
11
-0.0701323228346457
21
-0.4825246850393701
0
LINE
8
BLACK
6
CONTINUOUS
10
-0.0701323228346457
20
-0.4825246850393701
11
-0.0705907874015748
21
-0.4761149212598425
0
LINE
8
BLACK
6
CONTINUOUS
10
-0.0705907874015748
20
-0.4761149212598425
11
-0.0708661023622047
21
-0.4724409448818898
0
LINE
8
BLACK
6
CONTINUOUS
10
-0.0708661023622047
20
-0.4724409448818898
11
-0.0705908267716535
21
-0.4687672440944882
0
LINE
8
BLACK
6
CONTINUOUS
10
-0.0705908267716535
20
-0.4687672440944882
11
-0.0701323228346457
21
-0.4623571653543307
0
LINE
8
BLACK
6
CONTINUOUS
10
-0.0701323228346457
20
-0.4623571653543307
11
-0.0700988976377953
21
-0.4622034645669291
0
LINE
8
BLACK
6
CONTINUOUS
10
-0.0700988976377953
20
-0.4622034645669291
11
-0.0700745669291339
21
-0.4618788976377953
0
LINE
8
BLACK
6
CONTINUOUS
10
-0.0700745669291339
20
-0.4618788976377953
11
-0.0690877952755905
21
-0.4575555118110236
0
LINE
8
BLACK
6
CONTINUOUS
10
-0.0690877952755905
20
-0.4575555118110236
11
-0.0679835433070866
21
-0.4524793700787402
0
LINE
8
BLACK
6
CONTINUOUS
10
-0.0679835433070866
20
-0.4524793700787402
11
-0.0678435433070866
21
-0.4521038976377952
0
LINE
8
BLACK
6
CONTINUOUS
10
-0.0678435433070866
20
-0.4521038976377952
11
-0.0677177165354331
21
-0.4515527952755906
0
LINE
8
BLACK
6
CONTINUOUS
10
-0.0677177165354331
20
-0.4515527952755906
11
-0.0661114173228346
21
-0.4474599606299213
0
LINE
8
BLACK
6
CONTINUOUS
10
-0.0661114173228346
20
-0.4474599606299213
11
-0.0644506299212598
21
-0.4430072834645669
0
LINE
8
BLACK
6
CONTINUOUS
10
-0.0644506299212598
20
-0.4430072834645669
11
-0.0641420866141732
21
-0.4424421653543307
0
LINE
8
BLACK
6
CONTINUOUS
10
-0.0641420866141732
20
-0.4424421653543307
11
-0.0638481496062992
21
-0.4416933070866141
0
LINE
8
BLACK
6
CONTINUOUS
10
-0.0638481496062992
20
-0.4416933070866141
11
-0.0617273228346457
21
-0.4380198818897638
0
LINE
8
BLACK
6
CONTINUOUS
10
-0.0617273228346457
20
-0.4380198818897638
11
-0.0596057874015748
21
-0.4341346062992126
0
LINE
8
BLACK
6
CONTINUOUS
10
-0.0596057874015748
20
-0.4341346062992126
11
-0.0590740551181102
21
-0.4334242519685039
0
LINE
8
BLACK
6
CONTINUOUS
10
-0.0590740551181102
20
-0.4334242519685039
11
-0.0585523228346457
21
-0.4325206299212598
0
LINE
8
BLACK
6
CONTINUOUS
10
-0.0585523228346457
20
-0.4325206299212598
11
-0.0560279527559055
21
-0.4293551181102362
0
LINE
8
BLACK
6
CONTINUOUS
10
-0.0560279527559055
20
-0.4293551181102362
11
-0.0535475984251969
21
-0.426041811023622
0
LINE
8
BLACK
6
CONTINUOUS
10
-0.0535475984251969
20
-0.426041811023622
11
-0.052747874015748
21
-0.4252420472440945
0
LINE
8
BLACK
6
CONTINUOUS
10
-0.052747874015748
20
-0.4252420472440945
11
-0.0519485433070866
21
-0.4242397637795275
0
LINE
8
BLACK
6
CONTINUOUS
10
-0.0519485433070866
20
-0.4242397637795275
11
-0.0491345275590551
21
-0.4216287007874016
0
LINE
8
BLACK
6
CONTINUOUS
10
-0.0491345275590551
20
-0.4216287007874016
11
-0.0463991338582677
21
-0.4188933464566929
0
LINE
8
BLACK
6
CONTINUOUS
10
-0.0463991338582677
20
-0.4188933464566929
11
-0.0452985039370079
21
-0.4180694094488189
0
LINE
8
BLACK
6
CONTINUOUS
10
-0.0452985039370079
20
-0.4180694094488189
11
-0.0441842913385827
21
-0.4170355905511811
0
LINE
8
BLACK
6
CONTINUOUS
10
-0.0441842913385827
20
-0.4170355905511811
11
-0.0411942519685039
21
-0.414996968503937
0
LINE
8
BLACK
6
CONTINUOUS
10
-0.0411942519685039
20
-0.414996968503937
11
-0.0383063385826772
21
-0.412835157480315
0
LINE
8
BLACK
6
CONTINUOUS
10
-0.0383063385826772
20
-0.412835157480315
11
-0.036885157480315
21
-0.4120590944881889
0
LINE
8
BLACK
6
CONTINUOUS
10
-0.036885157480315
20
-0.4120590944881889
11
-0.035433031496063
21
-0.411069094488189
0
LINE
8
BLACK
6
CONTINUOUS
10
-0.035433031496063
20
-0.411069094488189
11
-0.0323753149606299
21
-0.4095965354330708
0
LINE
8
BLACK
6
CONTINUOUS
10
-0.0323753149606299
20
-0.4095965354330708
11
-0.0294336614173228
21
-0.4079903149606299
0
LINE
8
BLACK
6
CONTINUOUS
10
-0.0294336614173228
20
-0.4079903149606299
11
-0.0276874015748031
21
-0.4073389763779527
0
LINE
8
BLACK
6
CONTINUOUS
10
-0.0276874015748031
20
-0.4073389763779527
11
-0.0258902755905512
21
-0.4064735433070866
0
LINE
8
BLACK
6
CONTINUOUS
10
-0.0258902755905512
20
-0.4064735433070866
11
-0.0228657874015748
21
-0.4055405905511811
0
LINE
8
BLACK
6
CONTINUOUS
10
-0.0228657874015748
20
-0.4055405905511811
11
-0.0199615748031496
21
-0.4044574015748031
0
LINE
8
BLACK
6
CONTINUOUS
10
-0.0199615748031496
20
-0.4044574015748031
11
-0.0179005905511811
21
-0.4040090551181102
0
LINE
8
BLACK
6
CONTINUOUS
10
-0.0179005905511811
20
-0.4040090551181102
11
-0.0157691732283465
21
-0.4033516141732283
0
LINE
8
BLACK
6
CONTINUOUS
10
-0.0157691732283465
20
-0.4033516141732283
11
-0.0128685433070866
21
-0.4029143700787401
0
LINE
8
BLACK
6
CONTINUOUS
10
-0.0128685433070866
20
-0.4029143700787401
11
-0.0100837795275591
21
-0.4023086220472441
0
LINE
8
BLACK
6
CONTINUOUS
10
-0.0100837795275591
20
-0.4023086220472441
11
-0.0077348818897638
21
-0.4021405905511811
0
LINE
8
BLACK
6
CONTINUOUS
10
-0.0077348818897638
20
-0.4021405905511811
11
-0.0052958267716535
21
-0.4017729921259842
0
LINE
8
BLACK
6
CONTINUOUS
10
-0.0052958267716535
20
-0.4017729921259842
11
-0.002594842519685
21
-0.4017729921259842
0
LINE
8
BLACK
6
CONTINUOUS
10
-0.002594842519685
20
-0.4017729921259842
11
0.
21
-0.4015874015748032
0
LINE
8
BLACK
6
CONTINUOUS
10
0.
20
-0.4015874015748032
11
0.002594842519685
21
-0.4017729921259842
0
LINE
8
BLACK
6
CONTINUOUS
10
-0.1613242125984252
20
-0.1441714173228346
11
-0.1528677952755906
21
-0.1464373622047244
0
LINE
8
BLACK
6
CONTINUOUS
10
-0.1528677952755906
20
-0.1464373622047244
11
-0.1447794881889764
21
-0.1497876377952756
0
LINE
8
BLACK
6
CONTINUOUS
10
-0.1447794881889764
20
-0.1497876377952756
11
-0.1371976377952756
21
-0.1541650393700787
0
LINE
8
BLACK
6
CONTINUOUS
10
-0.1371976377952756
20
-0.1541650393700787
11
-0.1302520472440945
21
-0.1594945669291339
0
LINE
8
BLACK
6
CONTINUOUS
10
-0.1302520472440945
20
-0.1594945669291339
11
-0.1240614960629921
21
-0.1656851181102362
0
LINE
8
BLACK
6
CONTINUOUS
10
-0.1240614960629921
20
-0.1656851181102362
11
-0.118731968503937
21
-0.1726307086614173
0
LINE
8
BLACK
6
CONTINUOUS
10
-0.118731968503937
20
-0.1726307086614173
11
-0.1143545669291339
21
-0.1802125590551181
0
LINE
8
BLACK
6
CONTINUOUS
10
-0.1143545669291339
20
-0.1802125590551181
11
-0.1110042913385827
21
-0.1883008661417323
0
LINE
8
BLACK
6
CONTINUOUS
10
-0.1110042913385827
20
-0.1883008661417323
11
-0.1087383464566929
21
-0.1967572834645669
0
LINE
8
BLACK
6
CONTINUOUS
10
-0.1087383464566929
20
-0.1967572834645669
11
-0.1075956692913386
21
-0.205437125984252
0
LINE
8
BLACK
6
CONTINUOUS
10
-0.1075956692913386
20
-0.205437125984252
11
-0.1075956692913386
21
-0.2141918897637795
0
LINE
8
BLACK
6
CONTINUOUS
10
-0.1075956692913386
20
-0.2141918897637795
11
-0.1087383464566929
21
-0.2228717322834646
0
LINE
8
BLACK
6
CONTINUOUS
10
-0.1087383464566929
20
-0.2228717322834646
11
-0.1110042913385827
21
-0.2313281889763779
0
LINE
8
BLACK
6
CONTINUOUS
10
-0.1110042913385827
20
-0.2313281889763779
11
-0.1143545669291339
21
-0.2394164960629921
0
LINE
8
BLACK
6
CONTINUOUS
10
-0.1143545669291339
20
-0.2394164960629921
11
-0.118731968503937
21
-0.2469983464566929
0
LINE
8
BLACK
6
CONTINUOUS
10
-0.118731968503937
20
-0.2469983464566929
11
-0.1240614960629921
21
-0.253943937007874
0
LINE
8
BLACK
6
CONTINUOUS
10
-0.1240614960629921
20
-0.253943937007874
11
-0.1270554330708661
21
-0.2571405511811024
0
LINE
8
BLACK
6
CONTINUOUS
10
-0.1270554330708661
20
-0.2571405511811024
11
-0.3219274015748032
21
-0.4520125196850394
0
LINE
8
BLACK
6
CONTINUOUS
10
-0.3219274015748032
20
-0.4520125196850394
11
-0.3251240157480315
21
-0.4550064566929134
0
LINE
8
BLACK
6
CONTINUOUS
10
-0.3251240157480315
20
-0.4550064566929134
11
-0.3320696062992126
21
-0.4603359842519685
0
LINE
8
BLACK
6
CONTINUOUS
10
-0.3320696062992126
20
-0.4603359842519685
11
-0.3396514566929134
21
-0.4647133858267716
0
LINE
8
BLACK
6
CONTINUOUS
10
-0.3396514566929134
20
-0.4647133858267716
11
-0.3477397637795275
21
-0.4680636614173228
0
LINE
8
BLACK
6
CONTINUOUS
10
-0.3477397637795275
20
-0.4680636614173228
11
-0.3561961811023622
21
-0.4703295669291339
0
LINE
8
BLACK
6
CONTINUOUS
10
-0.3561961811023622
20
-0.4703295669291339
11
-0.364876062992126
21
-0.4714722834645669
0
LINE
8
BLACK
6
CONTINUOUS
10
-0.364876062992126
20
-0.4714722834645669
11
-0.3736307874015748
21
-0.4714722834645669
0
LINE
8
BLACK
6
CONTINUOUS
10
-0.3736307874015748
20
-0.4714722834645669
11
-0.3823106692913386
21
-0.4703295669291339
0
LINE
8
BLACK
6
CONTINUOUS
10
-0.3823106692913386
20
-0.4703295669291339
11
-0.3907670866141732
21
-0.4680636614173228
0
LINE
8
BLACK
6
CONTINUOUS
10
-0.3907670866141732
20
-0.4680636614173228
11
-0.3988553937007874
21
-0.4647133858267716
0
LINE
8
BLACK
6
CONTINUOUS
10
-0.3988553937007874
20
-0.4647133858267716
11
-0.4064372440944882
21
-0.4603359842519685
0
LINE
8
BLACK
6
CONTINUOUS
10
-0.4064372440944882
20
-0.4603359842519685
11
-0.4133828346456693
21
-0.4550064566929134
0
LINE
8
BLACK
6
CONTINUOUS
10
-0.4133828346456693
20
-0.4550064566929134
11
-0.4195733858267716
21
-0.448815905511811
0
LINE
8
BLACK
6
CONTINUOUS
10
-0.4195733858267716
20
-0.448815905511811
11
-0.4249029133858268
21
-0.4418703149606299
0
LINE
8
BLACK
6
CONTINUOUS
10
-0.4249029133858268
20
-0.4418703149606299
11
-0.4292803149606299
21
-0.4342884645669291
0
LINE
8
BLACK
6
CONTINUOUS
10
-0.4292803149606299
20
-0.4342884645669291
11
-0.4326305905511811
21
-0.426200157480315
0
LINE
8
BLACK
6
CONTINUOUS
10
-0.4326305905511811
20
-0.426200157480315
11
-0.4348964960629921
21
-0.4177437401574803
0
LINE
8
BLACK
6
CONTINUOUS
10
-0.4348964960629921
20
-0.4177437401574803
11
-0.4360392125984252
21
-0.4090638582677165
0
LINE
8
BLACK
6
CONTINUOUS
10
-0.4360392125984252
20
-0.4090638582677165
11
-0.4360392125984252
21
-0.4003091338582677
0
LINE
8
BLACK
6
CONTINUOUS
10
-0.4360392125984252
20
-0.4003091338582677
11
-0.4348964960629921
21
-0.391629251968504
0
LINE
8
BLACK
6
CONTINUOUS
10
-0.4348964960629921
20
-0.391629251968504
11
-0.4326305905511811
21
-0.3831728346456693
0
LINE
8
BLACK
6
CONTINUOUS
10
-0.4326305905511811
20
-0.3831728346456693
11
-0.4292803149606299
21
-0.3750845275590551
0
LINE
8
BLACK
6
CONTINUOUS
10
-0.4292803149606299
20
-0.3750845275590551
11
-0.4249029133858268
21
-0.3675026771653543
0
LINE
8
BLACK
6
CONTINUOUS
10
-0.4249029133858268
20
-0.3675026771653543
11
-0.4195733858267716
21
-0.3605570866141732
0
LINE
8
BLACK
6
CONTINUOUS
10
-0.4195733858267716
20
-0.3605570866141732
11
-0.4165794488188976
21
-0.3573604724409449
0
LINE
8
BLACK
6
CONTINUOUS
10
-0.4165794488188976
20
-0.3573604724409449
11
-0.2217074803149606
21
-0.1624885039370079
0
LINE
8
BLACK
6
CONTINUOUS
10
-0.2217074803149606
20
-0.1624885039370079
11
-0.2185108661417323
21
-0.1594945669291339
0
LINE
8
BLACK
6
CONTINUOUS
10
-0.2185108661417323
20
-0.1594945669291339
11
-0.2115652755905512
21
-0.1541650393700787
0
LINE
8
BLACK
6
CONTINUOUS
10
-0.2115652755905512
20
-0.1541650393700787
11
-0.2039834251968504
21
-0.1497876377952756
0
LINE
8
BLACK
6
CONTINUOUS
10
-0.2039834251968504
20
-0.1497876377952756
11
-0.1958951181102362
21
-0.1464373622047244
0
LINE
8
BLACK
6
CONTINUOUS
10
-0.1958951181102362
20
-0.1464373622047244
11
-0.1874386614173228
21
-0.1441714173228346
0
LINE
8
BLACK
6
CONTINUOUS
10
-0.1874386614173228
20
-0.1441714173228346
11
-0.1787588188976378
21
-0.1430287401574803
0
LINE
8
BLACK
6
CONTINUOUS
10
-0.1787588188976378
20
-0.1430287401574803
11
-0.1700040551181102
21
-0.1430287401574803
0
LINE
8
BLACK
6
CONTINUOUS
10
-0.1700040551181102
20
-0.1430287401574803
11
-0.1613242125984252
21
-0.1441714173228346
0
LINE
8
BLACK
6
CONTINUOUS
10
0.1874387007874016
20
-0.1441714566929134
11
0.1958951181102362
21
-0.1464373622047244
0
LINE
8
BLACK
6
CONTINUOUS
10
0.1958951181102362
20
-0.1464373622047244
11
0.2039834251968504
21
-0.1497876377952756
0
LINE
8
BLACK
6
CONTINUOUS
10
0.2039834251968504
20
-0.1497876377952756
11
0.2115652755905512
21
-0.1541650393700787
0
LINE
8
BLACK
6
CONTINUOUS
10
0.2115652755905512
20
-0.1541650393700787
11
0.2185108661417323
21
-0.1594945669291339
0
LINE
8
BLACK
6
CONTINUOUS
10
0.2185108661417323
20
-0.1594945669291339
11
0.2217074803149606
21
-0.1624885039370079
0
LINE
8
BLACK
6
CONTINUOUS
10
0.2217074803149606
20
-0.1624885039370079
11
0.4165794488188976
21
-0.3573604724409449
0
LINE
8
BLACK
6
CONTINUOUS
10
0.4165794488188976
20
-0.3573604724409449
11
0.4195733858267716
21
-0.3605570866141732
0
LINE
8
BLACK
6
CONTINUOUS
10
0.4195733858267716
20
-0.3605570866141732
11
0.4249029133858268
21
-0.3675026771653543
0
LINE
8
BLACK
6
CONTINUOUS
10
0.4249029133858268
20
-0.3675026771653543
11
0.4292803149606299
21
-0.3750845275590551
0
LINE
8
BLACK
6
CONTINUOUS
10
0.4292803149606299
20
-0.3750845275590551
11
0.4326305905511811
21
-0.3831728346456693
0
LINE
8
BLACK
6
CONTINUOUS
10
0.4326305905511811
20
-0.3831728346456693
11
0.4348965354330708
21
-0.3916292913385827
0
LINE
8
BLACK
6
CONTINUOUS
10
0.4348965354330708
20
-0.3916292913385827
11
0.4360392125984252
21
-0.4003091338582677
0
LINE
8
BLACK
6
CONTINUOUS
10
0.4360392125984252
20
-0.4003091338582677
11
0.4360392125984252
21
-0.4090638976377953
0
LINE
8
BLACK
6
CONTINUOUS
10
0.4360392125984252
20
-0.4090638976377953
11
0.4348965354330708
21
-0.4177437401574803
0
LINE
8
BLACK
6
CONTINUOUS
10
0.4348965354330708
20
-0.4177437401574803
11
0.4326305905511811
21
-0.426200157480315
0
LINE
8
BLACK
6
CONTINUOUS
10
0.4326305905511811
20
-0.426200157480315
11
0.4292803149606299
21
-0.4342884645669291
0
LINE
8
BLACK
6
CONTINUOUS
10
0.4292803149606299
20
-0.4342884645669291
11
0.4249029133858268
21
-0.4418703149606299
0
LINE
8
BLACK
6
CONTINUOUS
10
0.4249029133858268
20
-0.4418703149606299
11
0.4195733858267716
21
-0.448815905511811
0
LINE
8
BLACK
6
CONTINUOUS
10
0.4195733858267716
20
-0.448815905511811
11
0.4133828346456693
21
-0.4550064566929134
0
LINE
8
BLACK
6
CONTINUOUS
10
0.4133828346456693
20
-0.4550064566929134
11
0.4064372440944882
21
-0.4603359842519685
0
LINE
8
BLACK
6
CONTINUOUS
10
0.4064372440944882
20
-0.4603359842519685
11
0.3988553937007874
21
-0.4647133858267716
0
LINE
8
BLACK
6
CONTINUOUS
10
0.3988553937007874
20
-0.4647133858267716
11
0.3907670866141732
21
-0.4680636614173228
0
LINE
8
BLACK
6
CONTINUOUS
10
0.3907670866141732
20
-0.4680636614173228
11
0.3823106692913386
21
-0.4703296062992126
0
LINE
8
BLACK
6
CONTINUOUS
10
0.3823106692913386
20
-0.4703296062992126
11
0.3736308267716535
21
-0.4714722834645669
0
LINE
8
BLACK
6
CONTINUOUS
10
0.3736308267716535
20
-0.4714722834645669
11
0.364876062992126
21
-0.4714722834645669
0
LINE
8
BLACK
6
CONTINUOUS
10
0.364876062992126
20
-0.4714722834645669
11
0.3561962204724409
21
-0.4703296062992126
0
LINE
8
BLACK
6
CONTINUOUS
10
0.3561962204724409
20
-0.4703296062992126
11
0.3477397637795275
21
-0.4680636614173228
0
LINE
8
BLACK
6
CONTINUOUS
10
0.3477397637795275
20
-0.4680636614173228
11
0.3396514566929134
21
-0.4647133858267716
0
LINE
8
BLACK
6
CONTINUOUS
10
0.3396514566929134
20
-0.4647133858267716
11
0.3320696062992126
21
-0.4603359842519685
0
LINE
8
BLACK
6
CONTINUOUS
10
0.3320696062992126
20
-0.4603359842519685
11
0.3251240157480315
21
-0.4550064566929134
0
LINE
8
BLACK
6
CONTINUOUS
10
0.3251240157480315
20
-0.4550064566929134
11
0.3219274015748032
21
-0.4520125196850394
0
LINE
8
BLACK
6
CONTINUOUS
10
0.3219274015748032
20
-0.4520125196850394
11
0.1270554330708661
21
-0.2571405511811024
0
LINE
8
BLACK
6
CONTINUOUS
10
0.1270554330708661
20
-0.2571405511811024
11
0.1240614960629921
21
-0.253943937007874
0
LINE
8
BLACK
6
CONTINUOUS
10
0.1240614960629921
20
-0.253943937007874
11
0.118731968503937
21
-0.2469983464566929
0
LINE
8
BLACK
6
CONTINUOUS
10
0.118731968503937
20
-0.2469983464566929
11
0.1143545669291339
21
-0.2394164960629921
0
LINE
8
BLACK
6
CONTINUOUS
10
0.1143545669291339
20
-0.2394164960629921
11
0.1110042913385827
21
-0.2313281889763779
0
LINE
8
BLACK
6
CONTINUOUS
10
0.1110042913385827
20
-0.2313281889763779
11
0.1087383858267717
21
-0.2228717716535433
0
LINE
8
BLACK
6
CONTINUOUS
10
0.1087383858267717
20
-0.2228717716535433
11
0.1075956692913386
21
-0.2141918897637795
0
LINE
8
BLACK
6
CONTINUOUS
10
0.1075956692913386
20
-0.2141918897637795
11
0.1075956692913386
21
-0.2054371653543307
0
LINE
8
BLACK
6
CONTINUOUS
10
0.1075956692913386
20
-0.2054371653543307
11
0.1087383858267717
21
-0.1967572834645669
0
LINE
8
BLACK
6
CONTINUOUS
10
0.1087383858267717
20
-0.1967572834645669
11
0.1110042913385827
21
-0.1883008661417323
0
LINE
8
BLACK
6
CONTINUOUS
10
0.1110042913385827
20
-0.1883008661417323
11
0.1143545669291339
21
-0.1802125590551181
0
LINE
8
BLACK
6
CONTINUOUS
10
0.1143545669291339
20
-0.1802125590551181
11
0.118731968503937
21
-0.1726307086614173
0
LINE
8
BLACK
6
CONTINUOUS
10
0.118731968503937
20
-0.1726307086614173
11
0.1240614960629921
21
-0.1656851181102362
0
LINE
8
BLACK
6
CONTINUOUS
10
0.1240614960629921
20
-0.1656851181102362
11
0.1302520472440945
21
-0.1594945669291339
0
LINE
8
BLACK
6
CONTINUOUS
10
0.1302520472440945
20
-0.1594945669291339
11
0.1371976377952756
21
-0.1541650393700787
0
LINE
8
BLACK
6
CONTINUOUS
10
0.1371976377952756
20
-0.1541650393700787
11
0.1447794881889764
21
-0.1497876377952756
0
LINE
8
BLACK
6
CONTINUOUS
10
0.1447794881889764
20
-0.1497876377952756
11
0.1528677952755906
21
-0.1464373622047244
0
LINE
8
BLACK
6
CONTINUOUS
10
0.1528677952755906
20
-0.1464373622047244
11
0.1613242125984252
21
-0.1441714566929134
0
LINE
8
BLACK
6
CONTINUOUS
10
0.1613242125984252
20
-0.1441714566929134
11
0.170004094488189
21
-0.1430287401574803
0
LINE
8
BLACK
6
CONTINUOUS
10
0.170004094488189
20
-0.1430287401574803
11
0.1787588188976378
21
-0.1430287401574803
0
LINE
8
BLACK
6
CONTINUOUS
10
0.1787588188976378
20
-0.1430287401574803
11
0.1874387007874016
21
-0.1441714566929134
0
LINE
8
BLACK
6
CONTINUOUS
10
0.3274252362204724
20
-0.0440926377952756
11
0.3295032283464567
21
-0.0440926377952756
0
LINE
8
BLACK
6
CONTINUOUS
10
0.3295032283464567
20
-0.0440926377952756
11
0.3317934251968504
21
-0.0444748031496063
0
LINE
8
BLACK
6
CONTINUOUS
10
0.3317934251968504
20
-0.0444748031496063
11
0.3342552755905512
21
-0.0446901968503937
0
LINE
8
BLACK
6
CONTINUOUS
10
0.3342552755905512
20
-0.0446901968503937
11
0.336188779527559
21
-0.0452082677165354
0
LINE
8
BLACK
6
CONTINUOUS
10
0.336188779527559
20
-0.0452082677165354
11
0.3379985433070866
21
-0.0455102755905512
0
LINE
8
BLACK
6
CONTINUOUS
10
0.3379985433070866
20
-0.0455102755905512
11
0.3404260236220472
21
-0.0463436220472441
0
LINE
8
BLACK
6
CONTINUOUS
10
0.3404260236220472
20
-0.0463436220472441
11
0.3430384251968504
21
-0.0470436220472441
0
LINE
8
BLACK
6
CONTINUOUS
10
0.3430384251968504
20
-0.0470436220472441
11
0.3446388188976378
21
-0.0477898818897638
0
LINE
8
BLACK
6
CONTINUOUS
10
0.3446388188976378
20
-0.0477898818897638
11
0.3461446456692913
21
-0.0483068503937008
0
LINE
8
BLACK
6
CONTINUOUS
10
0.3461446456692913
20
-0.0483068503937008
11
0.348618779527559
21
-0.0496457480314961
0
LINE
8
BLACK
6
CONTINUOUS
10
0.348618779527559
20
-0.0496457480314961
11
0.3512795275590551
21
-0.0508864960629921
0
LINE
8
BLACK
6
CONTINUOUS
10
0.3512795275590551
20
-0.0508864960629921
11
0.3525319291338583
21
-0.0517634251968504
0
LINE
8
BLACK
6
CONTINUOUS
10
0.3525319291338583
20
-0.0517634251968504
11
0.353719251968504
21
-0.0524059842519685
0
LINE
8
BLACK
6
CONTINUOUS
10
0.353719251968504
20
-0.0524059842519685
11
0.3561363385826772
21
-0.0542872834645669
0
LINE
8
BLACK
6
CONTINUOUS
10
0.3561363385826772
20
-0.0542872834645669
11
0.3587280708661417
21
-0.0561020472440945
0
LINE
8
BLACK
6
CONTINUOUS
10
0.3587280708661417
20
-0.0561020472440945
11
0.3596414960629921
21
-0.0570154724409449
0
LINE
8
BLACK
6
CONTINUOUS
10
0.3596414960629921
20
-0.0570154724409449
11
0.360516062992126
21
-0.0576961811023622
0
LINE
8
BLACK
6
CONTINUOUS
10
0.360516062992126
20
-0.0576961811023622
11
0.3627626377952756
21
-0.0601366141732283
0
LINE
8
BLACK
6
CONTINUOUS
10
0.3627626377952756
20
-0.0601366141732283
11
0.3651577952755906
21
-0.0625317716535433
0
LINE
8
BLACK
6
CONTINUOUS
10
0.3651577952755906
20
-0.0625317716535433
11
0.3657623622047244
21
-0.063395157480315
0
LINE
8
BLACK
6
CONTINUOUS
10
0.3657623622047244
20
-0.063395157480315
11
0.3663492519685039
21
-0.0640327165354331
0
LINE
8
BLACK
6
CONTINUOUS
10
0.3663492519685039
20
-0.0640327165354331
11
0.3683072834645669
21
-0.0670297244094488
0
LINE
8
BLACK
6
CONTINUOUS
10
0.3683072834645669
20
-0.0670297244094488
11
0.3703733464566929
21
-0.0699803543307087
0
LINE
8
BLACK
6
CONTINUOUS
10
0.3703733464566929
20
-0.0699803543307087
11
0.3707181889763779
21
-0.070719842519685
0
LINE
8
BLACK
6
CONTINUOUS
10
0.3707181889763779
20
-0.070719842519685
11
0.3710599606299212
21
-0.0712429921259843
0
LINE
8
BLACK
6
CONTINUOUS
10
0.3710599606299212
20
-0.0712429921259843
11
0.3726112992125984
21
-0.0747796456692913
0
LINE
8
BLACK
6
CONTINUOUS
10
0.3726112992125984
20
-0.0747796456692913
11
0.374216220472441
21
-0.0782214173228346
0
LINE
8
BLACK
6
CONTINUOUS
10
0.374216220472441
20
-0.0782214173228346
11
0.3743656692913386
21
-0.0787791732283465
0
LINE
8
BLACK
6
CONTINUOUS
10
0.3743656692913386
20
-0.0787791732283465
11
0.3745197637795276
21
-0.0791304724409449
0
LINE
8
BLACK
6
CONTINUOUS
10
0.3745197637795276
20
-0.0791304724409449
11
0.3755517322834646
21
-0.0832057086614173
0
LINE
8
BLACK
6
CONTINUOUS
10
0.3755517322834646
20
-0.0832057086614173
11
0.3765696456692914
21
-0.0870045669291339
0
LINE
8
BLACK
6
CONTINUOUS
10
0.3765696456692914
20
-0.0870045669291339
11
0.3765991338582677
21
-0.087341811023622
0
LINE
8
BLACK
6
CONTINUOUS
10
0.3765991338582677
20
-0.087341811023622
11
0.3766340551181102
21
-0.0874796456692913
0
LINE
8
BLACK
6
CONTINUOUS
10
0.3766340551181102
20
-0.0874796456692913
11
0.3770429527559055
21
-0.0924144881889764
0
LINE
8
BLACK
6
CONTINUOUS
10
0.3770429527559055
20
-0.0924144881889764
11
0.3773621653543307
21
-0.0960629921259843
0
LINE
8
BLACK
6
CONTINUOUS
10
0.3773621653543307
20
-0.0960629921259843
11
0.3770429133858267
21
-0.0997117322834646
0
LINE
8
BLACK
6
CONTINUOUS
10
0.3770429133858267
20
-0.0997117322834646
11
0.3766340551181102
21
-0.1046462992125984
0
LINE
8
BLACK
6
CONTINUOUS
10
0.3766340551181102
20
-0.1046462992125984
11
0.3765991338582677
21
-0.104784094488189
0
LINE
8
BLACK
6
CONTINUOUS
10
0.3765991338582677
20
-0.104784094488189
11
0.3765696456692914
21
-0.1051214173228346
0
LINE
8
BLACK
6
CONTINUOUS
10
0.3765696456692914
20
-0.1051214173228346
11
0.3755515748031496
21
-0.108920905511811
0
LINE
8
BLACK
6
CONTINUOUS
10
0.3755515748031496
20
-0.108920905511811
11
0.3745197637795276
21
-0.1129954724409449
0
LINE
8
BLACK
6
CONTINUOUS
10
0.3745197637795276
20
-0.1129954724409449
11
0.3743656692913386
21
-0.1133466929133858
0
LINE
8
BLACK
6
CONTINUOUS
10
0.3743656692913386
20
-0.1133466929133858
11
0.374216220472441
21
-0.1139045669291339
0
LINE
8
BLACK
6
CONTINUOUS
10
0.374216220472441
20
-0.1139045669291339
11
0.3726108661417323
21
-0.1173471653543307
0
LINE
8
BLACK
6
CONTINUOUS
10
0.3726108661417323
20
-0.1173471653543307
11
0.3710599606299212
21
-0.1208829527559055
0
LINE
8
BLACK
6
CONTINUOUS
10
0.3710599606299212
20
-0.1208829527559055
11
0.3707183070866142
21
-0.1214058661417323
0
LINE
8
BLACK
6
CONTINUOUS
10
0.3707183070866142
20
-0.1214058661417323
11
0.3703733464566929
21
-0.1221456692913386
0
LINE
8
BLACK
6
CONTINUOUS
10
0.3703733464566929
20
-0.1221456692913386
11
0.3683066535433071
21
-0.125097125984252
0
LINE
8
BLACK
6
CONTINUOUS
10
0.3683066535433071
20
-0.125097125984252
11
0.3663492519685039
21
-0.1280932283464567
0
LINE
8
BLACK
6
CONTINUOUS
10
0.3663492519685039
20
-0.1280932283464567
11
0.3657624803149606
21
-0.1287305905511811
0
LINE
8
BLACK
6
CONTINUOUS
10
0.3657624803149606
20
-0.1287305905511811
11
0.3651577952755906
21
-0.1295942125984252
0
LINE
8
BLACK
6
CONTINUOUS
10
0.3651577952755906
20
-0.1295942125984252
11
0.3627621653543307
21
-0.1319898031496063
0
LINE
8
BLACK
6
CONTINUOUS
10
0.3627621653543307
20
-0.1319898031496063
11
0.360516062992126
21
-0.1344297637795276
0
LINE
8
BLACK
6
CONTINUOUS
10
0.360516062992126
20
-0.1344297637795276
11
0.3596416535433071
21
-0.1351103149606299
0
LINE
8
BLACK
6
CONTINUOUS
10
0.3596416535433071
20
-0.1351103149606299
11
0.3587280708661417
21
-0.136023937007874
0
LINE
8
BLACK
6
CONTINUOUS
10
0.3587280708661417
20
-0.136023937007874
11
0.3561358267716535
21
-0.1378390157480315
0
LINE
8
BLACK
6
CONTINUOUS
10
0.3561358267716535
20
-0.1378390157480315
11
0.353719251968504
21
-0.1397199606299213
0
LINE
8
BLACK
6
CONTINUOUS
10
0.353719251968504
20
-0.1397199606299213
11
0.3525321653543307
21
-0.1403623228346457
0
LINE
8
BLACK
6
CONTINUOUS
10
0.3525321653543307
20
-0.1403623228346457
11
0.3512795275590551
21
-0.1412394881889764
0
LINE
8
BLACK
6
CONTINUOUS
10
0.3512795275590551
20
-0.1412394881889764
11
0.3486182677165354
21
-0.1424804330708661
0
LINE
8
BLACK
6
CONTINUOUS
10
0.3486182677165354
20
-0.1424804330708661
11
0.3461446456692913
21
-0.143819094488189
0
LINE
8
BLACK
6
CONTINUOUS
10
0.3461446456692913
20
-0.143819094488189
11
0.3446391338582677
21
-0.144335905511811
0
LINE
8
BLACK
6
CONTINUOUS
10
0.3446391338582677
20
-0.144335905511811
11
0.3430384251968504
21
-0.1450823622047244
0
LINE
8
BLACK
6
CONTINUOUS
10
0.3430384251968504
20
-0.1450823622047244
11
0.3404254724409449
21
-0.1457824803149606
0
LINE
8
BLACK
6
CONTINUOUS
10
0.3404254724409449
20
-0.1457824803149606
11
0.3379985433070866
21
-0.1466156692913386
0
LINE
8
BLACK
6
CONTINUOUS
10
0.3379985433070866
20
-0.1466156692913386
11
0.3361890551181102
21
-0.1469175984251969
0
LINE
8
BLACK
6
CONTINUOUS
10
0.3361890551181102
20
-0.1469175984251969
11
0.3342552755905512
21
-0.1474357874015748
0
LINE
8
BLACK
6
CONTINUOUS
10
0.3342552755905512
20
-0.1474357874015748
11
0.3317932677165354
21
-0.1476511811023622
0
LINE
8
BLACK
6
CONTINUOUS
10
0.3317932677165354
20
-0.1476511811023622
11
0.3295032283464567
21
-0.1480333464566929
0
LINE
8
BLACK
6
CONTINUOUS
10
0.3295032283464567
20
-0.1480333464566929
11
0.3274252362204724
21
-0.1480333464566929
0
LINE
8
BLACK
6
CONTINUOUS
10
0.3274252362204724
20
-0.1480333464566929
11
0.3251968503937008
21
-0.1482283070866142
0
LINE
8
BLACK
6
CONTINUOUS
10
0.3251968503937008
20
-0.1482283070866142
11
0.3229684645669291
21
-0.1480333464566929
0
LINE
8
BLACK
6
CONTINUOUS
10
0.3229684645669291
20
-0.1480333464566929
11
0.3208904724409449
21
-0.1480333464566929
0
LINE
8
BLACK
6
CONTINUOUS
10
0.3208904724409449
20
-0.1480333464566929
11
0.3186003543307087
21
-0.1476511811023622
0
LINE
8
BLACK
6
CONTINUOUS
10
0.3186003543307087
20
-0.1476511811023622
11
0.3161384251968504
21
-0.1474357874015748
0
LINE
8
BLACK
6
CONTINUOUS
10
0.3161384251968504
20
-0.1474357874015748
11
0.3142046456692913
21
-0.1469176377952756
0
LINE
8
BLACK
6
CONTINUOUS
10
0.3142046456692913
20
-0.1469176377952756
11
0.3123951181102362
21
-0.1466156692913386
0
LINE
8
BLACK
6
CONTINUOUS
10
0.3123951181102362
20
-0.1466156692913386
11
0.3099679921259842
21
-0.1457824409448819
0
LINE
8
BLACK
6
CONTINUOUS
10
0.3099679921259842
20
-0.1457824409448819
11
0.3073552755905511
21
-0.1450823622047244
0
LINE
8
BLACK
6
CONTINUOUS
10
0.3073552755905511
20
-0.1450823622047244
11
0.3057546456692913
21
-0.1443359842519685
0
LINE
8
BLACK
6
CONTINUOUS
10
0.3057546456692913
20
-0.1443359842519685
11
0.3042490157480315
21
-0.143819094488189
0
LINE
8
BLACK
6
CONTINUOUS
10
0.3042490157480315
20
-0.143819094488189
11
0.3017751181102362
21
-0.1424802755905512
0
LINE
8
BLACK
6
CONTINUOUS
10
0.3017751181102362
20
-0.1424802755905512
11
0.2991141732283464
21
-0.1412394881889764
0
LINE
8
BLACK
6
CONTINUOUS
10
0.2991141732283464
20
-0.1412394881889764
11
0.2978616141732283
21
-0.1403624409448819
0
LINE
8
BLACK
6
CONTINUOUS
10
0.2978616141732283
20
-0.1403624409448819
11
0.2966744094488189
21
-0.1397199606299213
0
LINE
8
BLACK
6
CONTINUOUS
10
0.2966744094488189
20
-0.1397199606299213
11
0.2942574409448819
21
-0.1378387401574803
0
LINE
8
BLACK
6
CONTINUOUS
10
0.2942574409448819
20
-0.1378387401574803
11
0.2916656299212598
21
-0.136023937007874
0
LINE
8
BLACK
6
CONTINUOUS
10
0.2916656299212598
20
-0.136023937007874
11
0.290752125984252
21
-0.1351104330708661
0
LINE
8
BLACK
6
CONTINUOUS
10
0.290752125984252
20
-0.1351104330708661
11
0.2898775984251968
21
-0.1344297637795276
0
LINE
8
BLACK
6
CONTINUOUS
10
0.2898775984251968
20
-0.1344297637795276
11
0.2876309842519685
21
-0.1319892913385827
0
LINE
8
BLACK
6
CONTINUOUS
10
0.2876309842519685
20
-0.1319892913385827
11
0.285235905511811
21
-0.1295942125984252
0
LINE
8
BLACK
6
CONTINUOUS
10
0.285235905511811
20
-0.1295942125984252
11
0.2846312992125984
21
-0.1287307874015748
0
LINE
8
BLACK
6
CONTINUOUS
10
0.2846312992125984
20
-0.1287307874015748
11
0.2840444094488189
21
-0.1280932283464567
0
LINE
8
BLACK
6
CONTINUOUS
10
0.2840444094488189
20
-0.1280932283464567
11
0.2820864173228346
21
-0.1250962992125984
0
LINE
8
BLACK
6
CONTINUOUS
10
0.2820864173228346
20
-0.1250962992125984
11
0.2800203543307087
21
-0.1221456692913386
0
LINE
8
BLACK
6
CONTINUOUS
10
0.2800203543307087
20
-0.1221456692913386
11
0.2796754724409449
21
-0.121406062992126
0
LINE
8
BLACK
6
CONTINUOUS
10
0.2796754724409449
20
-0.121406062992126
11
0.2793337007874016
21
-0.1208829527559055
0
LINE
8
BLACK
6
CONTINUOUS
10
0.2793337007874016
20
-0.1208829527559055
11
0.2777821259842519
21
-0.1173457480314961
0
LINE
8
BLACK
6
CONTINUOUS
10
0.2777821259842519
20
-0.1173457480314961
11
0.2761774803149606
21
-0.1139045669291339
0
LINE
8
BLACK
6
CONTINUOUS
10
0.2761774803149606
20
-0.1139045669291339
11
0.276028031496063
21
-0.1133469291338583
0
LINE
8
BLACK
6
CONTINUOUS
10
0.276028031496063
20
-0.1133469291338583
11
0.2758738976377953
21
-0.1129954724409449
0
LINE
8
BLACK
6
CONTINUOUS
10
0.2758738976377953
20
-0.1129954724409449
11
0.2748413779527559
21
-0.1089182283464567
0
LINE
8
BLACK
6
CONTINUOUS
10
0.2748413779527559
20
-0.1089182283464567
11
0.2738240551181103
21
-0.1051214173228346
0
LINE
8
BLACK
6
CONTINUOUS
10
0.2738240551181103
20
-0.1051214173228346
11
0.2737945275590551
21
-0.1047843307086614
0
LINE
8
BLACK
6
CONTINUOUS
10
0.2737945275590551
20
-0.1047843307086614
11
0.2737596062992126
21
-0.1046462992125984
0
LINE
8
BLACK
6
CONTINUOUS
10
0.2737596062992126
20
-0.1046462992125984
11
0.27335
21
-0.0997032283464567
0
LINE
8
BLACK
6
CONTINUOUS
10
0.27335
20
-0.0997032283464567
11
0.2730315354330708
21
-0.0960629921259843
0
LINE
8
BLACK
6
CONTINUOUS
10
0.2730315354330708
20
-0.0960629921259843
11
0.2733499606299212
21
-0.0924229921259842
0
LINE
8
BLACK
6
CONTINUOUS
10
0.2733499606299212
20
-0.0924229921259842
11
0.2737596062992126
21
-0.0874796456692913
0
LINE
8
BLACK
6
CONTINUOUS
10
0.2737596062992126
20
-0.0874796456692913
11
0.2737945669291338
21
-0.0873415748031496
0
LINE
8
BLACK
6
CONTINUOUS
10
0.2737945669291338
20
-0.0873415748031496
11
0.2738240551181103
21
-0.0870045669291339
0
LINE
8
BLACK
6
CONTINUOUS
10
0.2738240551181103
20
-0.0870045669291339
11
0.2748412204724409
21
-0.0832083858267716
0
LINE
8
BLACK
6
CONTINUOUS
10
0.2748412204724409
20
-0.0832083858267716
11
0.2758738976377953
21
-0.0791304724409449
0
LINE
8
BLACK
6
CONTINUOUS
10
0.2758738976377953
20
-0.0791304724409449
11
0.2760280708661417
21
-0.078778937007874
0
LINE
8
BLACK
6
CONTINUOUS
10
0.2760280708661417
20
-0.078778937007874
11
0.2761774803149606
21
-0.0782214173228346
0
LINE
8
BLACK
6
CONTINUOUS
10
0.2761774803149606
20
-0.0782214173228346
11
0.2777816929133858
21
-0.0747811023622047
0
LINE
8
BLACK
6
CONTINUOUS
10
0.2777816929133858
20
-0.0747811023622047
11
0.2793337007874016
21
-0.0712429921259843
0
LINE
8
BLACK
6
CONTINUOUS
10
0.2793337007874016
20
-0.0712429921259843
11
0.2796755905511811
21
-0.0707196456692913
0
LINE
8
BLACK
6
CONTINUOUS
10
0.2796755905511811
20
-0.0707196456692913
11
0.2800203543307087
21
-0.0699803543307087
0
LINE
8
BLACK
6
CONTINUOUS
10
0.2800203543307087
20
-0.0699803543307087
11
0.2820857874015748
21
-0.0670305511811024
0
LINE
8
BLACK
6
CONTINUOUS
10
0.2820857874015748
20
-0.0670305511811024
11
0.2840444094488189
21
-0.0640327165354331
0
LINE
8
BLACK
6
CONTINUOUS
10
0.2840444094488189
20
-0.0640327165354331
11
0.2846314566929134
21
-0.063395
0
LINE
8
BLACK
6
CONTINUOUS
10
0.2846314566929134
20
-0.063395
11
0.285235905511811
21
-0.0625317716535433
0
LINE
8
BLACK
6
CONTINUOUS
10
0.285235905511811
20
-0.0625317716535433
11
0.2876305511811024
21
-0.0601370866141732
0
LINE
8
BLACK
6
CONTINUOUS
10
0.2876305511811024
20
-0.0601370866141732
11
0.2898775984251968
21
-0.0576961811023622
0
LINE
8
BLACK
6
CONTINUOUS
10
0.2898775984251968
20
-0.0576961811023622
11
0.2907523228346456
21
-0.0570153149606299
0
LINE
8
BLACK
6
CONTINUOUS
10
0.2907523228346456
20
-0.0570153149606299
11
0.2916656299212598
21
-0.0561020472440945
0
LINE
8
BLACK
6
CONTINUOUS
10
0.2916656299212598
20
-0.0561020472440945
11
0.2942568110236221
21
-0.0542876377952756
0
LINE
8
BLACK
6
CONTINUOUS
10
0.2942568110236221
20
-0.0542876377952756
11
0.2966744094488189
21
-0.0524059842519685
0
LINE
8
BLACK
6
CONTINUOUS
10
0.2966744094488189
20
-0.0524059842519685
11
0.2978620078740157
21
-0.0517632677165354
0
LINE
8
BLACK
6
CONTINUOUS
10
0.2978620078740157
20
-0.0517632677165354
11
0.2991142125984252
21
-0.0508864960629921
0
LINE
8
BLACK
6
CONTINUOUS
10
0.2991142125984252
20
-0.0508864960629921
11
0.3017744488188976
21
-0.0496459842519685
0
LINE
8
BLACK
6
CONTINUOUS
10
0.3017744488188976
20
-0.0496459842519685
11
0.3042490157480315
21
-0.0483068503937008
0
LINE
8
BLACK
6
CONTINUOUS
10
0.3042490157480315
20
-0.0483068503937008
11
0.305755
21
-0.0477898031496063
0
LINE
8
BLACK
6
CONTINUOUS
10
0.305755
20
-0.0477898031496063
11
0.3073552755905511
21
-0.0470436220472441
0
LINE
8
BLACK
6
CONTINUOUS
10
0.3073552755905511
20
-0.0470436220472441
11
0.3099674803149606
21
-0.0463436614173228
0
LINE
8
BLACK
6
CONTINUOUS
10
0.3099674803149606
20
-0.0463436614173228
11
0.3123951181102362
21
-0.0455102755905512
0
LINE
8
BLACK
6
CONTINUOUS
10
0.3123951181102362
20
-0.0455102755905512
11
0.3142049606299213
21
-0.0452082283464567
0
LINE
8
BLACK
6
CONTINUOUS
10
0.3142049606299213
20
-0.0452082283464567
11
0.3161384251968504
21
-0.0446901968503937
0
LINE
8
BLACK
6
CONTINUOUS
10
0.3161384251968504
20
-0.0446901968503937
11
0.3186002362204725
21
-0.0444748031496063
0
LINE
8
BLACK
6
CONTINUOUS
10
0.3186002362204725
20
-0.0444748031496063
11
0.3208904724409449
21
-0.0440926377952756
0
LINE
8
BLACK
6
CONTINUOUS
10
0.3208904724409449
20
-0.0440926377952756
11
0.3229684645669291
21
-0.0440926377952756
0
LINE
8
BLACK
6
CONTINUOUS
10
0.3229684645669291
20
-0.0440926377952756
11
0.3251968503937008
21
-0.0438976771653543
0
LINE
8
BLACK
6
CONTINUOUS
10
0.3251968503937008
20
-0.0438976771653543
11
0.3274252362204724
21
-0.0440926377952756
0
LINE
8
BLACK
6
CONTINUOUS
10
0.5274252362204724
20
-0.0440926377952756
11
0.5295032283464567
21
-0.0440926377952756
0
LINE
8
BLACK
6
CONTINUOUS
10
0.5295032283464567
20
-0.0440926377952756
11
0.5317934251968504
21
-0.0444748031496063
0
LINE
8
BLACK
6
CONTINUOUS
10
0.5317934251968504
20
-0.0444748031496063
11
0.5342552755905512
21
-0.0446901968503937
0
LINE
8
BLACK
6
CONTINUOUS
10
0.5342552755905512
20
-0.0446901968503937
11
0.5361887795275591
21
-0.0452082677165354
0
LINE
8
BLACK
6
CONTINUOUS
10
0.5361887795275591
20
-0.0452082677165354
11
0.5379985433070866
21
-0.0455102755905512
0
LINE
8
BLACK
6
CONTINUOUS
10
0.5379985433070866
20
-0.0455102755905512
11
0.5404260236220473
21
-0.0463436220472441
0
LINE
8
BLACK
6
CONTINUOUS
10
0.5404260236220473
20
-0.0463436220472441
11
0.5430384251968504
21
-0.0470436220472441
0
LINE
8
BLACK
6
CONTINUOUS
10
0.5430384251968504
20
-0.0470436220472441
11
0.5446388188976378
21
-0.0477898818897638
0
LINE
8
BLACK
6
CONTINUOUS
10
0.5446388188976378
20
-0.0477898818897638
11
0.5461446456692913
21
-0.0483068503937008
0
LINE
8
BLACK
6
CONTINUOUS
10
0.5461446456692913
20
-0.0483068503937008
11
0.548618779527559
21
-0.0496457480314961
0
LINE
8
BLACK
6
CONTINUOUS
10
0.548618779527559
20
-0.0496457480314961
11
0.5512795275590551
21
-0.0508864960629921
0
LINE
8
BLACK
6
CONTINUOUS
10
0.5512795275590551
20
-0.0508864960629921
11
0.5525319291338583
21
-0.0517634251968504
0
LINE
8
BLACK
6
CONTINUOUS
10
0.5525319291338583
20
-0.0517634251968504
11
0.5537192519685039
21
-0.0524059842519685
0
LINE
8
BLACK
6
CONTINUOUS
10
0.5537192519685039
20
-0.0524059842519685
11
0.5561363385826772
21
-0.0542872834645669
0
LINE
8
BLACK
6
CONTINUOUS
10
0.5561363385826772
20
-0.0542872834645669
11
0.5587280708661417
21
-0.0561020472440945
0
LINE
8
BLACK
6
CONTINUOUS
10
0.5587280708661417
20
-0.0561020472440945
11
0.5596414960629921
21
-0.0570154724409449
0
LINE
8
BLACK
6
CONTINUOUS
10
0.5596414960629921
20
-0.0570154724409449
11
0.560516062992126
21
-0.0576961811023622
0
LINE
8
BLACK
6
CONTINUOUS
10
0.560516062992126
20
-0.0576961811023622
11
0.5627626377952756
21
-0.0601366141732283
0
LINE
8
BLACK
6
CONTINUOUS
10
0.5627626377952756
20
-0.0601366141732283
11
0.5651577952755905
21
-0.0625317716535433
0
LINE
8
BLACK
6
CONTINUOUS
10
0.5651577952755905
20
-0.0625317716535433
11
0.5657623622047244
21
-0.063395157480315
0
LINE
8
BLACK
6
CONTINUOUS
10
0.5657623622047244
20
-0.063395157480315
11
0.5663492519685039
21
-0.0640327165354331
0
LINE
8
BLACK
6
CONTINUOUS
10
0.5663492519685039
20
-0.0640327165354331
11
0.5683072834645669
21
-0.0670297244094488
0
LINE
8
BLACK
6
CONTINUOUS
10
0.5683072834645669
20
-0.0670297244094488
11
0.5703733464566929
21
-0.0699803543307087
0
LINE
8
BLACK
6
CONTINUOUS
10
0.5703733464566929
20
-0.0699803543307087
11
0.5707181889763779
21
-0.070719842519685
0
LINE
8
BLACK
6
CONTINUOUS
10
0.5707181889763779
20
-0.070719842519685
11
0.5710599606299213
21
-0.0712429921259843
0
LINE
8
BLACK
6
CONTINUOUS
10
0.5710599606299213
20
-0.0712429921259843
11
0.5726112992125985
21
-0.0747796456692913
0
LINE
8
BLACK
6
CONTINUOUS
10
0.5726112992125985
20
-0.0747796456692913
11
0.5742162204724409
21
-0.0782214173228346
0
LINE
8
BLACK
6
CONTINUOUS
10
0.5742162204724409
20
-0.0782214173228346
11
0.5743656692913386
21
-0.0787791732283465
0
LINE
8
BLACK
6
CONTINUOUS
10
0.5743656692913386
20
-0.0787791732283465
11
0.5745197637795275
21
-0.0791304724409449
0
LINE
8
BLACK
6
CONTINUOUS
10
0.5745197637795275
20
-0.0791304724409449
11
0.5755517322834646
21
-0.0832057086614173
0
LINE
8
BLACK
6
CONTINUOUS
10
0.5755517322834646
20
-0.0832057086614173
11
0.5765696456692914
21
-0.0870045669291339
0
LINE
8
BLACK
6
CONTINUOUS
10
0.5765696456692914
20
-0.0870045669291339
11
0.5765991338582677
21
-0.087341811023622
0
LINE
8
BLACK
6
CONTINUOUS
10
0.5765991338582677
20
-0.087341811023622
11
0.5766340551181103
21
-0.0874796456692913
0
LINE
8
BLACK
6
CONTINUOUS
10
0.5766340551181103
20
-0.0874796456692913
11
0.5770429527559054
21
-0.0924144881889764
0
LINE
8
BLACK
6
CONTINUOUS
10
0.5770429527559054
20
-0.0924144881889764
11
0.5773621653543307
21
-0.0960629921259843
0
LINE
8
BLACK
6
CONTINUOUS
10
0.5773621653543307
20
-0.0960629921259843
11
0.5770429133858268
21
-0.0997117322834646
0
LINE
8
BLACK
6
CONTINUOUS
10
0.5770429133858268
20
-0.0997117322834646
11
0.5766340551181103
21
-0.1046462992125984
0
LINE
8
BLACK
6
CONTINUOUS
10
0.5766340551181103
20
-0.1046462992125984
11
0.5765991338582677
21
-0.104784094488189
0
LINE
8
BLACK
6
CONTINUOUS
10
0.5765991338582677
20
-0.104784094488189
11
0.5765696456692914
21
-0.1051214173228346
0
LINE
8
BLACK
6
CONTINUOUS
10
0.5765696456692914
20
-0.1051214173228346
11
0.5755515748031496
21
-0.108920905511811
0
LINE
8
BLACK
6
CONTINUOUS
10
0.5755515748031496
20
-0.108920905511811
11
0.5745197637795275
21
-0.1129954724409449
0
LINE
8
BLACK
6
CONTINUOUS
10
0.5745197637795275
20
-0.1129954724409449
11
0.5743656692913386
21
-0.1133466929133858
0
LINE
8
BLACK
6
CONTINUOUS
10
0.5743656692913386
20
-0.1133466929133858
11
0.5742162204724409
21
-0.1139045669291339
0
LINE
8
BLACK
6
CONTINUOUS
10
0.5742162204724409
20
-0.1139045669291339
11
0.5726108661417323
21
-0.1173471653543307
0
LINE
8
BLACK
6
CONTINUOUS
10
0.5726108661417323
20
-0.1173471653543307
11
0.5710599606299213
21
-0.1208829527559055
0
LINE
8
BLACK
6
CONTINUOUS
10
0.5710599606299213
20
-0.1208829527559055
11
0.5707183070866142
21
-0.1214058661417323
0
LINE
8
BLACK
6
CONTINUOUS
10
0.5707183070866142
20
-0.1214058661417323
11
0.5703733464566929
21
-0.1221456692913386
0
LINE
8
BLACK
6
CONTINUOUS
10
0.5703733464566929
20
-0.1221456692913386
11
0.5683066535433071
21
-0.125097125984252
0
LINE
8
BLACK
6
CONTINUOUS
10
0.5683066535433071
20
-0.125097125984252
11
0.5663492519685039
21
-0.1280932283464567
0
LINE
8
BLACK
6
CONTINUOUS
10
0.5663492519685039
20
-0.1280932283464567
11
0.5657624803149606
21
-0.1287305905511811
0
LINE
8
BLACK
6
CONTINUOUS
10
0.5657624803149606
20
-0.1287305905511811
11
0.5651577952755905
21
-0.1295942125984252
0
LINE
8
BLACK
6
CONTINUOUS
10
0.5651577952755905
20
-0.1295942125984252
11
0.5627621653543307
21
-0.1319898031496063
0
LINE
8
BLACK
6
CONTINUOUS
10
0.5627621653543307
20
-0.1319898031496063
11
0.560516062992126
21
-0.1344297637795276
0
LINE
8
BLACK
6
CONTINUOUS
10
0.560516062992126
20
-0.1344297637795276
11
0.5596416535433071
21
-0.1351103149606299
0
LINE
8
BLACK
6
CONTINUOUS
10
0.5596416535433071
20
-0.1351103149606299
11
0.5587280708661417
21
-0.136023937007874
0
LINE
8
BLACK
6
CONTINUOUS
10
0.5587280708661417
20
-0.136023937007874
11
0.5561358267716535
21
-0.1378390157480315
0
LINE
8
BLACK
6
CONTINUOUS
10
0.5561358267716535
20
-0.1378390157480315
11
0.5537192519685039
21
-0.1397199606299213
0
LINE
8
BLACK
6
CONTINUOUS
10
0.5537192519685039
20
-0.1397199606299213
11
0.5525321653543307
21
-0.1403623228346457
0
LINE
8
BLACK
6
CONTINUOUS
10
0.5525321653543307
20
-0.1403623228346457
11
0.5512795275590551
21
-0.1412394881889764
0
LINE
8
BLACK
6
CONTINUOUS
10
0.5512795275590551
20
-0.1412394881889764
11
0.5486182677165354
21
-0.1424804330708661
0
LINE
8
BLACK
6
CONTINUOUS
10
0.5486182677165354
20
-0.1424804330708661
11
0.5461446456692913
21
-0.143819094488189
0
LINE
8
BLACK
6
CONTINUOUS
10
0.5461446456692913
20
-0.143819094488189
11
0.5446391338582677
21
-0.144335905511811
0
LINE
8
BLACK
6
CONTINUOUS
10
0.5446391338582677
20
-0.144335905511811
11
0.5430384251968504
21
-0.1450823622047244
0
LINE
8
BLACK
6
CONTINUOUS
10
0.5430384251968504
20
-0.1450823622047244
11
0.5404254724409449
21
-0.1457824803149606
0
LINE
8
BLACK
6
CONTINUOUS
10
0.5404254724409449
20
-0.1457824803149606
11
0.5379985433070866
21
-0.1466156692913386
0
LINE
8
BLACK
6
CONTINUOUS
10
0.5379985433070866
20
-0.1466156692913386
11
0.5361890551181102
21
-0.1469175984251969
0
LINE
8
BLACK
6
CONTINUOUS
10
0.5361890551181102
20
-0.1469175984251969
11
0.5342552755905512
21
-0.1474357874015748
0
LINE
8
BLACK
6
CONTINUOUS
10
0.5342552755905512
20
-0.1474357874015748
11
0.5317932677165355
21
-0.1476511811023622
0
LINE
8
BLACK
6
CONTINUOUS
10
0.5317932677165355
20
-0.1476511811023622
11
0.5295032283464567
21
-0.1480333464566929
0
LINE
8
BLACK
6
CONTINUOUS
10
0.5295032283464567
20
-0.1480333464566929
11
0.5274252362204724
21
-0.1480333464566929
0
LINE
8
BLACK
6
CONTINUOUS
10
0.5274252362204724
20
-0.1480333464566929
11
0.5251968503937008
21
-0.1482283070866142
0
LINE
8
BLACK
6
CONTINUOUS
10
0.5251968503937008
20
-0.1482283070866142
11
0.5229684645669291
21
-0.1480333464566929
0
LINE
8
BLACK
6
CONTINUOUS
10
0.5229684645669291
20
-0.1480333464566929
11
0.5208904724409449
21
-0.1480333464566929
0
LINE
8
BLACK
6
CONTINUOUS
10
0.5208904724409449
20
-0.1480333464566929
11
0.5186003543307086
21
-0.1476511811023622
0
LINE
8
BLACK
6
CONTINUOUS
10
0.5186003543307086
20
-0.1476511811023622
11
0.5161384251968504
21
-0.1474357874015748
0
LINE
8
BLACK
6
CONTINUOUS
10
0.5161384251968504
20
-0.1474357874015748
11
0.5142046456692914
21
-0.1469176377952756
0
LINE
8
BLACK
6
CONTINUOUS
10
0.5142046456692914
20
-0.1469176377952756
11
0.5123951181102362
21
-0.1466156692913386
0
LINE
8
BLACK
6
CONTINUOUS
10
0.5123951181102362
20
-0.1466156692913386
11
0.5099679921259842
21
-0.1457824409448819
0
LINE
8
BLACK
6
CONTINUOUS
10
0.5099679921259842
20
-0.1457824409448819
11
0.5073552755905512
21
-0.1450823622047244
0
LINE
8
BLACK
6
CONTINUOUS
10
0.5073552755905512
20
-0.1450823622047244
11
0.5057546456692913
21
-0.1443359842519685
0
LINE
8
BLACK
6
CONTINUOUS
10
0.5057546456692913
20
-0.1443359842519685
11
0.5042490157480315
21
-0.143819094488189
0
LINE
8
BLACK
6
CONTINUOUS
10
0.5042490157480315
20
-0.143819094488189
11
0.5017751181102362
21
-0.1424802755905512
0
LINE
8
BLACK
6
CONTINUOUS
10
0.5017751181102362
20
-0.1424802755905512
11
0.4991141732283464
21
-0.1412394881889764
0
LINE
8
BLACK
6
CONTINUOUS
10
0.4991141732283464
20
-0.1412394881889764
11
0.4978616141732283
21
-0.1403624409448819
0
LINE
8
BLACK
6
CONTINUOUS
10
0.4978616141732283
20
-0.1403624409448819
11
0.4966744094488189
21
-0.1397199606299213
0
LINE
8
BLACK
6
CONTINUOUS
10
0.4966744094488189
20
-0.1397199606299213
11
0.4942574409448819
21
-0.1378387401574803
0
LINE
8
BLACK
6
CONTINUOUS
10
0.4942574409448819
20
-0.1378387401574803
11
0.4916656299212598
21
-0.136023937007874
0
LINE
8
BLACK
6
CONTINUOUS
10
0.4916656299212598
20
-0.136023937007874
11
0.4907521259842519
21
-0.1351104330708661
0
LINE
8
BLACK
6
CONTINUOUS
10
0.4907521259842519
20
-0.1351104330708661
11
0.4898775984251968
21
-0.1344297637795276
0
LINE
8
BLACK
6
CONTINUOUS
10
0.4898775984251968
20
-0.1344297637795276
11
0.4876309842519685
21
-0.1319892913385827
0
LINE
8
BLACK
6
CONTINUOUS
10
0.4876309842519685
20
-0.1319892913385827
11
0.485235905511811
21
-0.1295942125984252
0
LINE
8
BLACK
6
CONTINUOUS
10
0.485235905511811
20
-0.1295942125984252
11
0.4846312992125984
21
-0.1287307874015748
0
LINE
8
BLACK
6
CONTINUOUS
10
0.4846312992125984
20
-0.1287307874015748
11
0.4840444094488189
21
-0.1280932283464567
0
LINE
8
BLACK
6
CONTINUOUS
10
0.4840444094488189
20
-0.1280932283464567
11
0.4820864173228346
21
-0.1250962992125984
0
LINE
8
BLACK
6
CONTINUOUS
10
0.4820864173228346
20
-0.1250962992125984
11
0.4800203543307087
21
-0.1221456692913386
0
LINE
8
BLACK
6
CONTINUOUS
10
0.4800203543307087
20
-0.1221456692913386
11
0.4796754724409449
21
-0.121406062992126
0
LINE
8
BLACK
6
CONTINUOUS
10
0.4796754724409449
20
-0.121406062992126
11
0.4793337007874016
21
-0.1208829527559055
0
LINE
8
BLACK
6
CONTINUOUS
10
0.4793337007874016
20
-0.1208829527559055
11
0.477782125984252
21
-0.1173457480314961
0
LINE
8
BLACK
6
CONTINUOUS
10
0.477782125984252
20
-0.1173457480314961
11
0.4761774803149606
21
-0.1139045669291339
0
LINE
8
BLACK
6
CONTINUOUS
10
0.4761774803149606
20
-0.1139045669291339
11
0.476028031496063
21
-0.1133469291338583
0
LINE
8
BLACK
6
CONTINUOUS
10
0.476028031496063
20
-0.1133469291338583
11
0.4758738976377953
21
-0.1129954724409449
0
LINE
8
BLACK
6
CONTINUOUS
10
0.4758738976377953
20
-0.1129954724409449
11
0.4748413779527559
21
-0.1089182283464567
0
LINE
8
BLACK
6
CONTINUOUS
10
0.4748413779527559
20
-0.1089182283464567
11
0.4738240551181102
21
-0.1051214173228346
0
LINE
8
BLACK
6
CONTINUOUS
10
0.4738240551181102
20
-0.1051214173228346
11
0.4737945275590551
21
-0.1047843307086614
0
LINE
8
BLACK
6
CONTINUOUS
10
0.4737945275590551
20
-0.1047843307086614
11
0.4737596062992126
21
-0.1046462992125984
0
LINE
8
BLACK
6
CONTINUOUS
10
0.4737596062992126
20
-0.1046462992125984
11
0.47335
21
-0.0997032283464567
0
LINE
8
BLACK
6
CONTINUOUS
10
0.47335
20
-0.0997032283464567
11
0.4730315354330709
21
-0.0960629921259843
0
LINE
8
BLACK
6
CONTINUOUS
10
0.4730315354330709
20
-0.0960629921259843
11
0.4733499606299212
21
-0.0924229921259842
0
LINE
8
BLACK
6
CONTINUOUS
10
0.4733499606299212
20
-0.0924229921259842
11
0.4737596062992126
21
-0.0874796456692913
0
LINE
8
BLACK
6
CONTINUOUS
10
0.4737596062992126
20
-0.0874796456692913
11
0.4737945669291339
21
-0.0873415748031496
0
LINE
8
BLACK
6
CONTINUOUS
10
0.4737945669291339
20
-0.0873415748031496
11
0.4738240551181102
21
-0.0870045669291339
0
LINE
8
BLACK
6
CONTINUOUS
10
0.4738240551181102
20
-0.0870045669291339
11
0.4748412204724409
21
-0.0832083858267716
0
LINE
8
BLACK
6
CONTINUOUS
10
0.4748412204724409
20
-0.0832083858267716
11
0.4758738976377953
21
-0.0791304724409449
0
LINE
8
BLACK
6
CONTINUOUS
10
0.4758738976377953
20
-0.0791304724409449
11
0.4760280708661417
21
-0.078778937007874
0
LINE
8
BLACK
6
CONTINUOUS
10
0.4760280708661417
20
-0.078778937007874
11
0.4761774803149606
21
-0.0782214173228346
0
LINE
8
BLACK
6
CONTINUOUS
10
0.4761774803149606
20
-0.0782214173228346
11
0.4777816929133858
21
-0.0747811023622047
0
LINE
8
BLACK
6
CONTINUOUS
10
0.4777816929133858
20
-0.0747811023622047
11
0.4793337007874016
21
-0.0712429921259843
0
LINE
8
BLACK
6
CONTINUOUS
10
0.4793337007874016
20
-0.0712429921259843
11
0.4796755905511811
21
-0.0707196456692913
0
LINE
8
BLACK
6
CONTINUOUS
10
0.4796755905511811
20
-0.0707196456692913
11
0.4800203543307087
21
-0.0699803543307087
0
LINE
8
BLACK
6
CONTINUOUS
10
0.4800203543307087
20
-0.0699803543307087
11
0.4820857874015748
21
-0.0670305511811024
0
LINE
8
BLACK
6
CONTINUOUS
10
0.4820857874015748
20
-0.0670305511811024
11
0.4840444094488189
21
-0.0640327165354331
0
LINE
8
BLACK
6
CONTINUOUS
10
0.4840444094488189
20
-0.0640327165354331
11
0.4846314566929134
21
-0.063395
0
LINE
8
BLACK
6
CONTINUOUS
10
0.4846314566929134
20
-0.063395
11
0.485235905511811
21
-0.0625317716535433
0
LINE
8
BLACK
6
CONTINUOUS
10
0.485235905511811
20
-0.0625317716535433
11
0.4876305511811024
21
-0.0601370866141732
0
LINE
8
BLACK
6
CONTINUOUS
10
0.4876305511811024
20
-0.0601370866141732
11
0.4898775984251968
21
-0.0576961811023622
0
LINE
8
BLACK
6
CONTINUOUS
10
0.4898775984251968
20
-0.0576961811023622
11
0.4907523228346456
21
-0.0570153149606299
0
LINE
8
BLACK
6
CONTINUOUS
10
0.4907523228346456
20
-0.0570153149606299
11
0.4916656299212598
21
-0.0561020472440945
0
LINE
8
BLACK
6
CONTINUOUS
10
0.4916656299212598
20
-0.0561020472440945
11
0.494256811023622
21
-0.0542876377952756
0
LINE
8
BLACK
6
CONTINUOUS
10
0.494256811023622
20
-0.0542876377952756
11
0.4966744094488189
21
-0.0524059842519685
0
LINE
8
BLACK
6
CONTINUOUS
10
0.4966744094488189
20
-0.0524059842519685
11
0.4978620078740157
21
-0.0517632677165354
0
LINE
8
BLACK
6
CONTINUOUS
10
0.4978620078740157
20
-0.0517632677165354
11
0.4991142125984252
21
-0.0508864960629921
0
LINE
8
BLACK
6
CONTINUOUS
10
0.4991142125984252
20
-0.0508864960629921
11
0.5017744488188977
21
-0.0496459842519685
0
LINE
8
BLACK
6
CONTINUOUS
10
0.5017744488188977
20
-0.0496459842519685
11
0.5042490157480315
21
-0.0483068503937008
0
LINE
8
BLACK
6
CONTINUOUS
10
0.5042490157480315
20
-0.0483068503937008
11
0.505755
21
-0.0477898031496063
0
LINE
8
BLACK
6
CONTINUOUS
10
0.505755
20
-0.0477898031496063
11
0.5073552755905512
21
-0.0470436220472441
0
LINE
8
BLACK
6
CONTINUOUS
10
0.5073552755905512
20
-0.0470436220472441
11
0.5099674803149606
21
-0.0463436614173228
0
LINE
8
BLACK
6
CONTINUOUS
10
0.5099674803149606
20
-0.0463436614173228
11
0.5123951181102362
21
-0.0455102755905512
0
LINE
8
BLACK
6
CONTINUOUS
10
0.5123951181102362
20
-0.0455102755905512
11
0.5142049606299213
21
-0.0452082283464567
0
LINE
8
BLACK
6
CONTINUOUS
10
0.5142049606299213
20
-0.0452082283464567
11
0.5161384251968504
21
-0.0446901968503937
0
LINE
8
BLACK
6
CONTINUOUS
10
0.5161384251968504
20
-0.0446901968503937
11
0.5186002362204725
21
-0.0444748031496063
0
LINE
8
BLACK
6
CONTINUOUS
10
0.5186002362204725
20
-0.0444748031496063
11
0.5208904724409449
21
-0.0440926377952756
0
LINE
8
BLACK
6
CONTINUOUS
10
0.5208904724409449
20
-0.0440926377952756
11
0.5229684645669291
21
-0.0440926377952756
0
LINE
8
BLACK
6
CONTINUOUS
10
0.5229684645669291
20
-0.0440926377952756
11
0.5251968503937008
21
-0.0438976771653543
0
LINE
8
BLACK
6
CONTINUOUS
10
0.5251968503937008
20
-0.0438976771653543
11
0.5274252362204724
21
-0.0440926377952756
0
LINE
8
BLACK
6
CONTINUOUS
10
0.0443321653543307
20
-0.0282752362204724
11
0.045619094488189
21
-0.0284446456692913
0
LINE
8
BLACK
6
CONTINUOUS
10
0.045619094488189
20
-0.0284446456692913
11
0.0459428346456693
21
-0.0285955905511811
0
LINE
8
BLACK
6
CONTINUOUS
10
0.0459428346456693
20
-0.0285955905511811
11
0.0467140157480315
21
-0.0287490157480315
0
LINE
8
BLACK
6
CONTINUOUS
10
0.0467140157480315
20
-0.0287490157480315
11
0.0477355905511811
21
-0.0294315748031496
0
LINE
8
BLACK
6
CONTINUOUS
10
0.0477355905511811
20
-0.0294315748031496
11
0.0481735433070866
21
-0.0296358267716535
0
LINE
8
BLACK
6
CONTINUOUS
10
0.0481735433070866
20
-0.0296358267716535
11
0.0484399212598425
21
-0.0299022047244094
0
LINE
8
BLACK
6
CONTINUOUS
10
0.0484399212598425
20
-0.0299022047244094
11
0.0492685433070866
21
-0.0304558661417323
0
LINE
8
BLACK
6
CONTINUOUS
10
0.0492685433070866
20
-0.0304558661417323
11
0.049822125984252
21
-0.0312844094488189
0
LINE
8
BLACK
6
CONTINUOUS
10
0.049822125984252
20
-0.0312844094488189
11
0.0517017322834646
21
-0.0331639763779528
0
LINE
8
BLACK
6
CONTINUOUS
10
0.0517017322834646
20
-0.0331639763779528
11
0.0557785826771654
21
-0.0331639763779528
0
LINE
8
BLACK
6
CONTINUOUS
10
0.0557785826771654
20
-0.0331639763779528
11
0.0576581889763779
21
-0.0312843307086614
0
LINE
8
BLACK
6
CONTINUOUS
10
0.0576581889763779
20
-0.0312843307086614
11
0.0582117716535433
21
-0.0304558661417323
0
LINE
8
BLACK
6
CONTINUOUS
10
0.0582117716535433
20
-0.0304558661417323
11
0.0590402362204724
21
-0.0299022834645669
0
LINE
8
BLACK
6
CONTINUOUS
10
0.0590402362204724
20
-0.0299022834645669
11
0.0593067322834646
21
-0.0296358267716535
0
LINE
8
BLACK
6
CONTINUOUS
10
0.0593067322834646
20
-0.0296358267716535
11
0.0597447637795276
21
-0.0294315354330709
0
LINE
8
BLACK
6
CONTINUOUS
10
0.0597447637795276
20
-0.0294315354330709
11
0.0607662992125984
21
-0.0287490157480315
0
LINE
8
BLACK
6
CONTINUOUS
10
0.0607662992125984
20
-0.0287490157480315
11
0.0615373228346457
21
-0.0285956299212598
0
LINE
8
BLACK
6
CONTINUOUS
10
0.0615373228346457
20
-0.0285956299212598
11
0.0618611811023622
21
-0.0284446456692913
0
LINE
8
BLACK
6
CONTINUOUS
10
0.0618611811023622
20
-0.0284446456692913
11
0.0631487007874016
21
-0.028275157480315
0
LINE
8
BLACK
6
CONTINUOUS
10
0.0631487007874016
20
-0.028275157480315
11
0.0637795669291339
21
-0.0281496850393701
0
LINE
8
BLACK
6
CONTINUOUS
10
0.0637795669291339
20
-0.0281496850393701
11
0.0641018897637795
21
-0.0281496456692913
0
LINE
8
BLACK
6
CONTINUOUS
10
0.0641018897637795
20
-0.0281496456692913
11
0.0641022047244094
21
-0.0281496456692913
0
LINE
8
BLACK
6
CONTINUOUS
10
0.0641022047244094
20
-0.0281496456692913
11
0.0933781102362205
21
-0.0281496456692913
0
LINE
8
BLACK
6
CONTINUOUS
10
0.0933781102362205
20
-0.0281496456692913
11
0.0937007874015748
21
-0.0281496456692913
0
LINE
8
BLACK
6
CONTINUOUS
10
0.0937007874015748
20
-0.0281496456692913
11
0.0943321653543307
21
-0.0282752362204724
0
LINE
8
BLACK
6
CONTINUOUS
10
0.0943321653543307
20
-0.0282752362204724
11
0.095619094488189
21
-0.0284446456692913
0
LINE
8
BLACK
6
CONTINUOUS
10
0.095619094488189
20
-0.0284446456692913
11
0.0959428346456693
21
-0.0285955905511811
0
LINE
8
BLACK
6
CONTINUOUS
10
0.0959428346456693
20
-0.0285955905511811
11
0.0967140157480315
21
-0.0287490157480315
0
LINE
8
BLACK
6
CONTINUOUS
10
0.0967140157480315
20
-0.0287490157480315
11
0.0977355905511811
21
-0.0294315748031496
0
LINE
8
BLACK
6
CONTINUOUS
10
0.0977355905511811
20
-0.0294315748031496
11
0.0981735433070866
21
-0.0296358267716535
0
LINE
8
BLACK
6
CONTINUOUS
10
0.0981735433070866
20
-0.0296358267716535
11
0.0984399212598425
21
-0.0299022047244094
0
LINE
8
BLACK
6
CONTINUOUS
10
0.0984399212598425
20
-0.0299022047244094
11
0.0992685433070866
21
-0.0304558661417323
0
LINE
8
BLACK
6
CONTINUOUS
10
0.0992685433070866
20
-0.0304558661417323
11
0.099822125984252
21
-0.0312844094488189
0
LINE
8
BLACK
6
CONTINUOUS
10
0.099822125984252
20
-0.0312844094488189
11
0.1017017322834646
21
-0.0331639763779528
0
LINE
8
BLACK
6
CONTINUOUS
10
0.1017017322834646
20
-0.0331639763779528
11
0.1057785826771653
21
-0.0331639763779528
0
LINE
8
BLACK
6
CONTINUOUS
10
0.1057785826771653
20
-0.0331639763779528
11
0.107658188976378
21
-0.0312843307086614
0
LINE
8
BLACK
6
CONTINUOUS
10
0.107658188976378
20
-0.0312843307086614
11
0.1082117716535433
21
-0.0304558661417323
0
LINE
8
BLACK
6
CONTINUOUS
10
0.1082117716535433
20
-0.0304558661417323
11
0.1090402362204724
21
-0.0299022834645669
0
LINE
8
BLACK
6
CONTINUOUS
10
0.1090402362204724
20
-0.0299022834645669
11
0.1093067322834646
21
-0.0296358267716535
0
LINE
8
BLACK
6
CONTINUOUS
10
0.1093067322834646
20
-0.0296358267716535
11
0.1097447637795276
21
-0.0294315354330709
0
LINE
8
BLACK
6
CONTINUOUS
10
0.1097447637795276
20
-0.0294315354330709
11
0.1107662992125984
21
-0.0287490157480315
0
LINE
8
BLACK
6
CONTINUOUS
10
0.1107662992125984
20
-0.0287490157480315
11
0.1115373228346457
21
-0.0285956299212598
0
LINE
8
BLACK
6
CONTINUOUS
10
0.1115373228346457
20
-0.0285956299212598
11
0.1118611811023622
21
-0.0284446456692913
0
LINE
8
BLACK
6
CONTINUOUS
10
0.1118611811023622
20
-0.0284446456692913
11
0.1131487007874016
21
-0.028275157480315
0
LINE
8
BLACK
6
CONTINUOUS
10
0.1131487007874016
20
-0.028275157480315
11
0.1137795669291339
21
-0.0281496850393701
0
LINE
8
BLACK
6
CONTINUOUS
10
0.1137795669291339
20
-0.0281496850393701
11
0.1141018897637795
21
-0.0281496456692913
0
LINE
8
BLACK
6
CONTINUOUS
10
0.1141018897637795
20
-0.0281496456692913
11
0.1141022047244094
21
-0.0281496456692913
0
LINE
8
BLACK
6
CONTINUOUS
10
0.1141022047244094
20
-0.0281496456692913
11
0.1433781102362205
21
-0.0281496456692913
0
LINE
8
BLACK
6
CONTINUOUS
10
0.1433781102362205
20
-0.0281496456692913
11
0.1437007874015748
21
-0.0281496456692913
0
LINE
8
BLACK
6
CONTINUOUS
10
0.1437007874015748
20
-0.0281496456692913
11
0.1443321653543307
21
-0.0282752362204724
0
LINE
8
BLACK
6
CONTINUOUS
10
0.1443321653543307
20
-0.0282752362204724
11
0.145619094488189
21
-0.0284446456692913
0
LINE
8
BLACK
6
CONTINUOUS
10
0.145619094488189
20
-0.0284446456692913
11
0.1459428346456693
21
-0.0285955905511811
0
LINE
8
BLACK
6
CONTINUOUS
10
0.1459428346456693
20
-0.0285955905511811
11
0.1467140157480315
21
-0.0287490157480315
0
LINE
8
BLACK
6
CONTINUOUS
10
0.1467140157480315
20
-0.0287490157480315
11
0.1477355905511811
21
-0.0294315748031496
0
LINE
8
BLACK
6
CONTINUOUS
10
0.1477355905511811
20
-0.0294315748031496
11
0.1481735433070866
21
-0.0296358267716535
0
LINE
8
BLACK
6
CONTINUOUS
10
0.1481735433070866
20
-0.0296358267716535
11
0.1484399212598425
21
-0.0299022047244094
0
LINE
8
BLACK
6
CONTINUOUS
10
0.1484399212598425
20
-0.0299022047244094
11
0.1492685433070866
21
-0.0304558661417323
0
LINE
8
BLACK
6
CONTINUOUS
10
0.1492685433070866
20
-0.0304558661417323
11
0.1498221653543307
21
-0.0312844488188976
0
LINE
8
BLACK
6
CONTINUOUS
10
0.1498221653543307
20
-0.0312844488188976
11
0.1500885433070866
21
-0.0315508267716535
0
LINE
8
BLACK
6
CONTINUOUS
10
0.1500885433070866
20
-0.0315508267716535
11
0.1502927165354331
21
-0.0319886614173228
0
LINE
8
BLACK
6
CONTINUOUS
10
0.1502927165354331
20
-0.0319886614173228
11
0.1509753937007874
21
-0.0330103937007874
0
LINE
8
BLACK
6
CONTINUOUS
10
0.1509753937007874
20
-0.0330103937007874
11
0.151128779527559
21
-0.0337815748031496
0
LINE
8
BLACK
6
CONTINUOUS
10
0.151128779527559
20
-0.0337815748031496
11
0.1512797244094488
21
-0.0341052755905512
0
LINE
8
BLACK
6
CONTINUOUS
10
0.1512797244094488
20
-0.0341052755905512
11
0.1514491732283464
21
-0.0353925590551181
0
LINE
8
BLACK
6
CONTINUOUS
10
0.1514491732283464
20
-0.0353925590551181
11
0.1515747244094488
21
-0.0360236614173228
0
LINE
8
BLACK
6
CONTINUOUS
10
0.1515747244094488
20
-0.0360236614173228
11
0.1515747244094488
21
-0.0363459842519685
0
LINE
8
BLACK
6
CONTINUOUS
10
0.1515747244094488
20
-0.0363459842519685
11
0.1515747637795276
21
-0.0363462992125984
0
LINE
8
BLACK
6
CONTINUOUS
10
0.1515747637795276
20
-0.0363462992125984
11
0.1515747637795276
21
-0.0640327165354331
0
LINE
8
BLACK
6
CONTINUOUS
10
0.1515747637795276
20
-0.0640327165354331
11
0.1515747637795276
21
-0.0911417322834646
0
LINE
8
BLACK
6
CONTINUOUS
10
0.1515747637795276
20
-0.0911417322834646
11
0.151449094488189
21
-0.0917733858267717
0
LINE
8
BLACK
6
CONTINUOUS
10
0.151449094488189
20
-0.0917733858267717
11
0.1512797244094488
21
-0.0930600393700787
0
LINE
8
BLACK
6
CONTINUOUS
10
0.1512797244094488
20
-0.0930600393700787
11
0.151128779527559
21
-0.0933836220472441
0
LINE
8
BLACK
6
CONTINUOUS
10
0.151128779527559
20
-0.0933836220472441
11
0.1509753937007874
21
-0.0941549606299213
0
LINE
8
BLACK
6
CONTINUOUS
10
0.1509753937007874
20
-0.0941549606299213
11
0.1502926377952756
21
-0.0951767322834646
0
LINE
8
BLACK
6
CONTINUOUS
10
0.1502926377952756
20
-0.0951767322834646
11
0.1500885433070866
21
-0.0956144881889764
0
LINE
8
BLACK
6
CONTINUOUS
10
0.1500885433070866
20
-0.0956144881889764
11
0.1498222440944882
21
-0.0958807480314961
0
LINE
8
BLACK
6
CONTINUOUS
10
0.1498222440944882
20
-0.0958807480314961
11
0.1492685433070866
21
-0.0967094881889764
0
LINE
8
BLACK
6
CONTINUOUS
10
0.1492685433070866
20
-0.0967094881889764
11
0.1484398031496063
21
-0.097263188976378
0
LINE
8
BLACK
6
CONTINUOUS
10
0.1484398031496063
20
-0.097263188976378
11
0.1481735433070866
21
-0.0975294881889764
0
LINE
8
BLACK
6
CONTINUOUS
10
0.1481735433070866
20
-0.0975294881889764
11
0.1477357874015748
21
-0.0977335826771654
0
LINE
8
BLACK
6
CONTINUOUS
10
0.1477357874015748
20
-0.0977335826771654
11
0.1467140157480315
21
-0.0984163385826772
0
LINE
8
BLACK
6
CONTINUOUS
10
0.1467140157480315
20
-0.0984163385826772
11
0.1459427559055118
21
-0.0985697244094488
0
LINE
8
BLACK
6
CONTINUOUS
10
0.1459427559055118
20
-0.0985697244094488
11
0.145619094488189
21
-0.0987206692913386
0
LINE
8
BLACK
6
CONTINUOUS
10
0.145619094488189
20
-0.0987206692913386
11
0.1443318503937008
21
-0.0988901181102362
0
LINE
8
BLACK
6
CONTINUOUS
10
0.1443318503937008
20
-0.0988901181102362
11
0.1437007480314961
21
-0.0990156692913386
0
LINE
8
BLACK
6
CONTINUOUS
10
0.1437007480314961
20
-0.0990156692913386
11
0.1433783858267716
21
-0.0990156692913386
0
LINE
8
BLACK
6
CONTINUOUS
10
0.1433783858267716
20
-0.0990156692913386
11
0.1433781102362205
21
-0.0990157086614173
0
LINE
8
BLACK
6
CONTINUOUS
10
0.1433781102362205
20
-0.0990157086614173
11
0.1141022047244094
21
-0.0990157086614173
0
LINE
8
BLACK
6
CONTINUOUS
10
0.1141022047244094
20
-0.0990157086614173
11
0.1141021653543307
21
-0.0990156692913386
0
LINE
8
BLACK
6
CONTINUOUS
10
0.1141021653543307
20
-0.0990156692913386
11
0.1137795275590551
21
-0.0990157086614173
0
LINE
8
BLACK
6
CONTINUOUS
10
0.1137795275590551
20
-0.0990157086614173
11
0.1131479133858268
21
-0.0988900393700787
0
LINE
8
BLACK
6
CONTINUOUS
10
0.1131479133858268
20
-0.0988900393700787
11
0.1118611811023622
21
-0.0987206692913386
0
LINE
8
BLACK
6
CONTINUOUS
10
0.1118611811023622
20
-0.0987206692913386
11
0.1115375196850394
21
-0.0985697244094488
0
LINE
8
BLACK
6
CONTINUOUS
10
0.1115375196850394
20
-0.0985697244094488
11
0.1107662992125984
21
-0.0984163385826772
0
LINE
8
BLACK
6
CONTINUOUS
10
0.1107662992125984
20
-0.0984163385826772
11
0.1097445669291339
21
-0.0977336614173228
0
LINE
8
BLACK
6
CONTINUOUS
10
0.1097445669291339
20
-0.0977336614173228
11
0.1093067322834646
21
-0.0975294881889764
0
LINE
8
BLACK
6
CONTINUOUS
10
0.1093067322834646
20
-0.0975294881889764
11
0.1090403543307087
21
-0.0972631102362205
0
LINE
8
BLACK
6
CONTINUOUS
10
0.1090403543307087
20
-0.0972631102362205
11
0.1082117716535433
21
-0.0967094881889764
0
LINE
8
BLACK
6
CONTINUOUS
10
0.1082117716535433
20
-0.0967094881889764
11
0.1076581496062992
21
-0.095880905511811
0
LINE
8
BLACK
6
CONTINUOUS
10
0.1076581496062992
20
-0.095880905511811
11
0.1057785826771653
21
-0.0940013779527559
0
LINE
8
BLACK
6
CONTINUOUS
10
0.1057785826771653
20
-0.0940013779527559
11
0.1017017322834646
21
-0.0940013779527559
0
LINE
8
BLACK
6
CONTINUOUS
10
0.1017017322834646
20
-0.0940013779527559
11
0.0998221653543307
21
-0.0958808661417323
0
LINE
8
BLACK
6
CONTINUOUS
10
0.0998221653543307
20
-0.0958808661417323
11
0.0992685433070866
21
-0.0967094881889764
0
LINE
8
BLACK
6
CONTINUOUS
10
0.0992685433070866
20
-0.0967094881889764
11
0.0984398031496063
21
-0.097263188976378
0
LINE
8
BLACK
6
CONTINUOUS
10
0.0984398031496063
20
-0.097263188976378
11
0.0981735433070866
21
-0.0975294881889764
0
LINE
8
BLACK
6
CONTINUOUS
10
0.0981735433070866
20
-0.0975294881889764
11
0.0977357874015748
21
-0.0977335826771654
0
LINE
8
BLACK
6
CONTINUOUS
10
0.0977357874015748
20
-0.0977335826771654
11
0.0967140157480315
21
-0.0984163385826772
0
LINE
8
BLACK
6
CONTINUOUS
10
0.0967140157480315
20
-0.0984163385826772
11
0.0959427559055118
21
-0.0985697244094488
0
LINE
8
BLACK
6
CONTINUOUS
10
0.0959427559055118
20
-0.0985697244094488
11
0.095619094488189
21
-0.0987206692913386
0
LINE
8
BLACK
6
CONTINUOUS
10
0.095619094488189
20
-0.0987206692913386
11
0.0943318503937008
21
-0.0988901181102362
0
LINE
8
BLACK
6
CONTINUOUS
10
0.0943318503937008
20
-0.0988901181102362
11
0.0937007480314961
21
-0.0990156692913386
0
LINE
8
BLACK
6
CONTINUOUS
10
0.0937007480314961
20
-0.0990156692913386
11
0.0933783858267716
21
-0.0990156692913386
0
LINE
8
BLACK
6
CONTINUOUS
10
0.0933783858267716
20
-0.0990156692913386
11
0.0933781102362205
21
-0.0990157086614173
0
LINE
8
BLACK
6
CONTINUOUS
10
0.0933781102362205
20
-0.0990157086614173
11
0.0641022047244094
21
-0.0990157086614173
0
LINE
8
BLACK
6
CONTINUOUS
10
0.0641022047244094
20
-0.0990157086614173
11
0.0641021653543307
21
-0.0990156692913386
0
LINE
8
BLACK
6
CONTINUOUS
10
0.0641021653543307
20
-0.0990156692913386
11
0.0637795275590551
21
-0.0990157086614173
0
LINE
8
BLACK
6
CONTINUOUS
10
0.0637795275590551
20
-0.0990157086614173
11
0.0631479133858268
21
-0.0988900393700787
0
LINE
8
BLACK
6
CONTINUOUS
10
0.0631479133858268
20
-0.0988900393700787
11
0.0618611811023622
21
-0.0987206692913386
0
LINE
8
BLACK
6
CONTINUOUS
10
0.0618611811023622
20
-0.0987206692913386
11
0.0615375196850394
21
-0.0985697244094488
0
LINE
8
BLACK
6
CONTINUOUS
10
0.0615375196850394
20
-0.0985697244094488
11
0.0607662992125984
21
-0.0984163385826772
0
LINE
8
BLACK
6
CONTINUOUS
10
0.0607662992125984
20
-0.0984163385826772
11
0.0597445669291339
21
-0.0977336614173228
0
LINE
8
BLACK
6
CONTINUOUS
10
0.0597445669291339
20
-0.0977336614173228
11
0.0593067322834646
21
-0.0975294881889764
0
LINE
8
BLACK
6
CONTINUOUS
10
0.0593067322834646
20
-0.0975294881889764
11
0.0590403543307087
21
-0.0972631102362205
0
LINE
8
BLACK
6
CONTINUOUS
10
0.0590403543307087
20
-0.0972631102362205
11
0.0582117716535433
21
-0.0967094881889764
0
LINE
8
BLACK
6
CONTINUOUS
10
0.0582117716535433
20
-0.0967094881889764
11
0.0576581496062992
21
-0.095880905511811
0
LINE
8
BLACK
6
CONTINUOUS
10
0.0576581496062992
20
-0.095880905511811
11
0.0557785826771654
21
-0.0940013779527559
0
LINE
8
BLACK
6
CONTINUOUS
10
0.0557785826771654
20
-0.0940013779527559
11
0.0517017322834646
21
-0.0940013779527559
0
LINE
8
BLACK
6
CONTINUOUS
10
0.0517017322834646
20
-0.0940013779527559
11
0.0498221653543307
21
-0.0958808661417323
0
LINE
8
BLACK
6
CONTINUOUS
10
0.0498221653543307
20
-0.0958808661417323
11
0.0492685433070866
21
-0.0967094881889764
0
LINE
8
BLACK
6
CONTINUOUS
10
0.0492685433070866
20
-0.0967094881889764
11
0.0484398031496063
21
-0.097263188976378
0
LINE
8
BLACK
6
CONTINUOUS
10
0.0484398031496063
20
-0.097263188976378
11
0.0481735433070866
21
-0.0975294881889764
0
LINE
8
BLACK
6
CONTINUOUS
10
0.0481735433070866
20
-0.0975294881889764
11
0.0477357874015748
21
-0.0977335826771654
0
LINE
8
BLACK
6
CONTINUOUS
10
0.0477357874015748
20
-0.0977335826771654
11
0.0467140157480315
21
-0.0984163385826772
0
LINE
8
BLACK
6
CONTINUOUS
10
0.0467140157480315
20
-0.0984163385826772
11
0.0459427559055118
21
-0.0985697244094488
0
LINE
8
BLACK
6
CONTINUOUS
10
0.0459427559055118
20
-0.0985697244094488
11
0.045619094488189
21
-0.0987206692913386
0
LINE
8
BLACK
6
CONTINUOUS
10
0.045619094488189
20
-0.0987206692913386
11
0.0443318503937008
21
-0.0988901181102362
0
LINE
8
BLACK
6
CONTINUOUS
10
0.0443318503937008
20
-0.0988901181102362
11
0.0437007480314961
21
-0.0990156692913386
0
LINE
8
BLACK
6
CONTINUOUS
10
0.0437007480314961
20
-0.0990156692913386
11
0.0433783858267716
21
-0.0990156692913386
0
LINE
8
BLACK
6
CONTINUOUS
10
0.0433783858267716
20
-0.0990156692913386
11
0.0433781102362205
21
-0.0990157086614173
0
LINE
8
BLACK
6
CONTINUOUS
10
0.0433781102362205
20
-0.0990157086614173
11
0.0141022047244094
21
-0.0990157086614173
0
LINE
8
BLACK
6
CONTINUOUS
10
0.0141022047244094
20
-0.0990157086614173
11
0.0141021653543307
21
-0.0990156692913386
0
LINE
8
BLACK
6
CONTINUOUS
10
0.0141021653543307
20
-0.0990156692913386
11
0.0137795275590551
21
-0.0990157086614173
0
LINE
8
BLACK
6
CONTINUOUS
10
0.0137795275590551
20
-0.0990157086614173
11
0.0131479133858268
21
-0.0988900393700787
0
LINE
8
BLACK
6
CONTINUOUS
10
0.0131479133858268
20
-0.0988900393700787
11
0.0118611811023622
21
-0.0987206692913386
0
LINE
8
BLACK
6
CONTINUOUS
10
0.0118611811023622
20
-0.0987206692913386
11
0.0115375196850394
21
-0.0985697244094488
0
LINE
8
BLACK
6
CONTINUOUS
10
0.0115375196850394
20
-0.0985697244094488
11
0.0107662992125984
21
-0.0984163385826772
0
LINE
8
BLACK
6
CONTINUOUS
10
0.0107662992125984
20
-0.0984163385826772
11
0.0097445669291339
21
-0.0977336614173228
0
LINE
8
BLACK
6
CONTINUOUS
10
0.0097445669291339
20
-0.0977336614173228
11
0.0093067322834646
21
-0.0975294881889764
0
LINE
8
BLACK
6
CONTINUOUS
10
0.0093067322834646
20
-0.0975294881889764
11
0.0090403543307087
21
-0.0972631102362205
0
LINE
8
BLACK
6
CONTINUOUS
10
0.0090403543307087
20
-0.0972631102362205
11
0.0082117716535433
21
-0.0967094881889764
0
LINE
8
BLACK
6
CONTINUOUS
10
0.0082117716535433
20
-0.0967094881889764
11
0.0076581102362205
21
-0.0958808661417323
0
LINE
8
BLACK
6
CONTINUOUS
10
0.0076581102362205
20
-0.0958808661417323
11
0.0073917322834646
21
-0.0956144881889764
0
LINE
8
BLACK
6
CONTINUOUS
10
0.0073917322834646
20
-0.0956144881889764
11
0.0071874803149606
21
-0.0951765354330709
0
LINE
8
BLACK
6
CONTINUOUS
10
0.0071874803149606
20
-0.0951765354330709
11
0.0065049212598425
21
-0.0941549606299213
0
LINE
8
BLACK
6
CONTINUOUS
10
0.0065049212598425
20
-0.0941549606299213
11
0.0063515354330709
21
-0.0933838188976378
0
LINE
8
BLACK
6
CONTINUOUS
10
0.0063515354330709
20
-0.0933838188976378
11
0.0062005511811024
21
-0.0930600393700787
0
LINE
8
BLACK
6
CONTINUOUS
10
0.0062005511811024
20
-0.0930600393700787
11
0.006031062992126
21
-0.0917725984251968
0
LINE
8
BLACK
6
CONTINUOUS
10
0.006031062992126
20
-0.0917725984251968
11
0.0059055905511811
21
-0.0911416929133858
0
LINE
8
BLACK
6
CONTINUOUS
10
0.0059055905511811
20
-0.0911416929133858
11
0.0059055511811024
21
-0.0908192913385827
0
LINE
8
BLACK
6
CONTINUOUS
10
0.0059055511811024
20
-0.0908192913385827
11
0.0059055511811024
21
-0.0908190157480315
0
LINE
8
BLACK
6
CONTINUOUS
10
0.0059055511811024
20
-0.0908190157480315
11
0.0059055511811024
21
-0.0363462992125984
0
LINE
8
BLACK
6
CONTINUOUS
10
0.0059055511811024
20
-0.0363462992125984
11
0.0059055511811024
21
-0.0363462598425197
0
LINE
8
BLACK
6
CONTINUOUS
10
0.0059055511811024
20
-0.0363462598425197
11
0.0059055511811024
21
-0.0360236220472441
0
LINE
8
BLACK
6
CONTINUOUS
10
0.0059055511811024
20
-0.0360236220472441
11
0.0060311023622047
21
-0.0353922440944882
0
LINE
8
BLACK
6
CONTINUOUS
10
0.0060311023622047
20
-0.0353922440944882
11
0.0062005511811024
21
-0.0341052755905512
0
LINE
8
BLACK
6
CONTINUOUS
10
0.0062005511811024
20
-0.0341052755905512
11
0.0063515354330709
21
-0.0337814566929134
0
LINE
8
BLACK
6
CONTINUOUS
10
0.0063515354330709
20
-0.0337814566929134
11
0.0065049212598425
21
-0.0330103937007874
0
LINE
8
BLACK
6
CONTINUOUS
10
0.0065049212598425
20
-0.0330103937007874
11
0.0071874409448819
21
-0.0319888582677165
0
LINE
8
BLACK
6
CONTINUOUS
10
0.0071874409448819
20
-0.0319888582677165
11
0.0073917322834646
21
-0.0315508267716535
0
LINE
8
BLACK
6
CONTINUOUS
10
0.0073917322834646
20
-0.0315508267716535
11
0.007658188976378
21
-0.0312843307086614
0
LINE
8
BLACK
6
CONTINUOUS
10
0.007658188976378
20
-0.0312843307086614
11
0.0082117716535433
21
-0.0304558661417323
0
LINE
8
BLACK
6
CONTINUOUS
10
0.0082117716535433
20
-0.0304558661417323
11
0.0090402362204724
21
-0.0299022834645669
0
LINE
8
BLACK
6
CONTINUOUS
10
0.0090402362204724
20
-0.0299022834645669
11
0.0093067322834646
21
-0.0296358267716535
0
LINE
8
BLACK
6
CONTINUOUS
10
0.0093067322834646
20
-0.0296358267716535
11
0.0097447637795276
21
-0.0294315354330709
0
LINE
8
BLACK
6
CONTINUOUS
10
0.0097447637795276
20
-0.0294315354330709
11
0.0107662992125984
21
-0.0287490157480315
0
LINE
8
BLACK
6
CONTINUOUS
10
0.0107662992125984
20
-0.0287490157480315
11
0.0115373228346457
21
-0.0285956299212598
0
LINE
8
BLACK
6
CONTINUOUS
10
0.0115373228346457
20
-0.0285956299212598
11
0.0118611811023622
21
-0.0284446456692913
0
LINE
8
BLACK
6
CONTINUOUS
10
0.0118611811023622
20
-0.0284446456692913
11
0.0131487007874016
21
-0.028275157480315
0
LINE
8
BLACK
6
CONTINUOUS
10
0.0131487007874016
20
-0.028275157480315
11
0.0137795669291339
21
-0.0281496850393701
0
LINE
8
BLACK
6
CONTINUOUS
10
0.0137795669291339
20
-0.0281496850393701
11
0.0141018897637795
21
-0.0281496456692913
0
LINE
8
BLACK
6
CONTINUOUS
10
0.0141018897637795
20
-0.0281496456692913
11
0.0141022047244094
21
-0.0281496456692913
0
LINE
8
BLACK
6
CONTINUOUS
10
0.0141022047244094
20
-0.0281496456692913
11
0.0433781102362205
21
-0.0281496456692913
0
LINE
8
BLACK
6
CONTINUOUS
10
0.0433781102362205
20
-0.0281496456692913
11
0.0437007874015748
21
-0.0281496456692913
0
LINE
8
BLACK
6
CONTINUOUS
10
0.0437007874015748
20
-0.0281496456692913
11
0.0443321653543307
21
-0.0282752362204724
0
LINE
8
BLACK
6
CONTINUOUS
10
-0.4698461023622047
20
0.0706679527559055
11
-0.4671451181102362
21
0.0706679527559055
0
LINE
8
BLACK
6
CONTINUOUS
10
-0.4671451181102362
20
0.0706679527559055
11
-0.4647061023622047
21
0.0703003543307087
0
LINE
8
BLACK
6
CONTINUOUS
10
-0.4647061023622047
20
0.0703003543307087
11
-0.4623572047244094
21
0.0701323228346457
0
LINE
8
BLACK
6
CONTINUOUS
10
-0.4623572047244094
20
0.0701323228346457
11
-0.4595725590551181
21
0.0695265748031496
0
LINE
8
BLACK
6
CONTINUOUS
10
-0.4595725590551181
20
0.0695265748031496
11
-0.4566717716535433
21
0.0690893307086614
0
LINE
8
BLACK
6
CONTINUOUS
10
-0.4566717716535433
20
0.0690893307086614
11
-0.4545403149606299
21
0.0684318897637795
0
LINE
8
BLACK
6
CONTINUOUS
10
-0.4545403149606299
20
0.0684318897637795
11
-0.4524794094488189
21
0.0679835433070866
0
LINE
8
BLACK
6
CONTINUOUS
10
-0.4524794094488189
20
0.0679835433070866
11
-0.4495754330708661
21
0.0669004330708661
0
LINE
8
BLACK
6
CONTINUOUS
10
-0.4495754330708661
20
0.0669004330708661
11
-0.4465506692913386
21
0.0659674015748031
0
LINE
8
BLACK
6
CONTINUOUS
10
-0.4465506692913386
20
0.0659674015748031
11
-0.4447534251968504
21
0.0651018897637795
0
LINE
8
BLACK
6
CONTINUOUS
10
-0.4447534251968504
20
0.0651018897637795
11
-0.4430073228346457
21
0.0644506299212598
0
LINE
8
BLACK
6
CONTINUOUS
10
-0.4430073228346457
20
0.0644506299212598
11
-0.4400662204724409
21
0.0628446850393701
0
LINE
8
BLACK
6
CONTINUOUS
10
-0.4400662204724409
20
0.0628446850393701
11
-0.437007874015748
21
0.0613718503937008
0
LINE
8
BLACK
6
CONTINUOUS
10
-0.437007874015748
20
0.0613718503937008
11
-0.4355554724409449
21
0.0603816141732283
0
LINE
8
BLACK
6
CONTINUOUS
10
-0.4355554724409449
20
0.0603816141732283
11
-0.4341346456692913
21
0.0596057874015748
0
LINE
8
BLACK
6
CONTINUOUS
10
-0.4341346456692913
20
0.0596057874015748
11
-0.4312473228346457
21
0.0574443700787402
0
LINE
8
BLACK
6
CONTINUOUS
10
-0.4312473228346457
20
0.0574443700787402
11
-0.4282566535433071
21
0.0554053543307087
0
LINE
8
BLACK
6
CONTINUOUS
10
-0.4282566535433071
20
0.0554053543307087
11
-0.4271423228346456
21
0.0543714173228346
0
LINE
8
BLACK
6
CONTINUOUS
10
-0.4271423228346456
20
0.0543714173228346
11
-0.4260418503937008
21
0.0535475984251969
0
LINE
8
BLACK
6
CONTINUOUS
10
-0.4260418503937008
20
0.0535475984251969
11
-0.4233070078740158
21
0.0508127559055118
0
LINE
8
BLACK
6
CONTINUOUS
10
-0.4233070078740158
20
0.0508127559055118
11
-0.4204924015748032
21
0.0482011811023622
0
LINE
8
BLACK
6
CONTINUOUS
10
-0.4204924015748032
20
0.0482011811023622
11
-0.4196929527559055
21
0.0471987007874016
0
LINE
8
BLACK
6
CONTINUOUS
10
-0.4196929527559055
20
0.0471987007874016
11
-0.4188933858267717
21
0.0463991338582677
0
LINE
8
BLACK
6
CONTINUOUS
10
-0.4188933858267717
20
0.0463991338582677
11
-0.4164137007874016
21
0.0430866535433071
0
LINE
8
BLACK
6
CONTINUOUS
10
-0.4164137007874016
20
0.0430866535433071
11
-0.4138886220472441
21
0.0399203149606299
0
LINE
8
BLACK
6
CONTINUOUS
10
-0.4138886220472441
20
0.0399203149606299
11
-0.4133667716535433
21
0.0390164566929134
0
LINE
8
BLACK
6
CONTINUOUS
10
-0.4133667716535433
20
0.0390164566929134
11
-0.4128351968503937
21
0.0383063385826772
0
LINE
8
BLACK
6
CONTINUOUS
10
-0.4128351968503937
20
0.0383063385826772
11
-0.4107143700787401
21
0.0344223228346457
0
LINE
8
BLACK
6
CONTINUOUS
10
-0.4107143700787401
20
0.0344223228346457
11
-0.4085927952755906
21
0.0307476377952756
0
LINE
8
BLACK
6
CONTINUOUS
10
-0.4085927952755906
20
0.0307476377952756
11
-0.4082988188976378
21
0.0299985433070866
0
LINE
8
BLACK
6
CONTINUOUS
10
-0.4082988188976378
20
0.0299985433070866
11
-0.4079903543307086
21
0.0294336614173228
0
LINE
8
BLACK
6
CONTINUOUS
10
-0.4079903543307086
20
0.0294336614173228
11
-0.4063303543307086
21
0.024983031496063
0
LINE
8
BLACK
6
CONTINUOUS
10
-0.4063303543307086
20
0.024983031496063
11
-0.4047232283464567
21
0.0208881496062992
0
LINE
8
BLACK
6
CONTINUOUS
10
-0.4047232283464567
20
0.0208881496062992
11
-0.4045974015748031
21
0.0203367716535433
0
LINE
8
BLACK
6
CONTINUOUS
10
-0.4045974015748031
20
0.0203367716535433
11
-0.4044574409448819
21
0.0199615748031496
0
LINE
8
BLACK
6
CONTINUOUS
10
-0.4044574409448819
20
0.0199615748031496
11
-0.4033540157480315
21
0.0148891338582677
0
LINE
8
BLACK
6
CONTINUOUS
10
-0.4033540157480315
20
0.0148891338582677
11
-0.4023663779527559
21
0.0105620472440945
0
LINE
8
BLACK
6
CONTINUOUS
10
-0.4023663779527559
20
0.0105620472440945
11
-0.4023420472440945
21
0.0102372047244094
0
LINE
8
BLACK
6
CONTINUOUS
10
-0.4023420472440945
20
0.0102372047244094
11
-0.4023086614173228
21
0.0100837795275591
0
LINE
8
BLACK
6
CONTINUOUS
10
-0.4023086614173228
20
0.0100837795275591
11
-0.4018510236220472
21
0.0036852362204724
0
LINE
8
BLACK
6
CONTINUOUS
10
-0.4018510236220472
20
0.0036852362204724
11
-0.401574842519685
21
0.
0
LINE
8
BLACK
6
CONTINUOUS
10
-0.401574842519685
20
0.
11
-0.401851062992126
21
-0.0036854724409449
0
LINE
8
BLACK
6
CONTINUOUS
10
-0.401851062992126
20
-0.0036854724409449
11
-0.4023086614173228
21
-0.0100837401574803
0
LINE
8
BLACK
6
CONTINUOUS
10
-0.4023086614173228
20
-0.0100837401574803
11
-0.4023420472440945
21
-0.0102370866141732
0
LINE
8
BLACK
6
CONTINUOUS
10
-0.4023420472440945
20
-0.0102370866141732
11
-0.4023663779527559
21
-0.0105620472440945
0
LINE
8
BLACK
6
CONTINUOUS
10
-0.4023663779527559
20
-0.0105620472440945
11
-0.4033542125984252
21
-0.0148898818897638
0
LINE
8
BLACK
6
CONTINUOUS
10
-0.4033542125984252
20
-0.0148898818897638
11
-0.4044574409448819
21
-0.0199615354330709
0
LINE
8
BLACK
6
CONTINUOUS
10
-0.4044574409448819
20
-0.0199615354330709
11
-0.4045973622047244
21
-0.0203366535433071
0
LINE
8
BLACK
6
CONTINUOUS
10
-0.4045973622047244
20
-0.0203366535433071
11
-0.4047232283464567
21
-0.0208881496062992
0
LINE
8
BLACK
6
CONTINUOUS
10
-0.4047232283464567
20
-0.0208881496062992
11
-0.4063306692913386
21
-0.0249837401574803
0
LINE
8
BLACK
6
CONTINUOUS
10
-0.4063306692913386
20
-0.0249837401574803
11
-0.4079903543307086
21
-0.0294336220472441
0
LINE
8
BLACK
6
CONTINUOUS
10
-0.4079903543307086
20
-0.0294336220472441
11
-0.4082987401574803
21
-0.0299983464566929
0
LINE
8
BLACK
6
CONTINUOUS
10
-0.4082987401574803
20
-0.0299983464566929
11
-0.4085927952755906
21
-0.0307476377952756
0
LINE
8
BLACK
6
CONTINUOUS
10
-0.4085927952755906
20
-0.0307476377952756
11
-0.4107147637795275
21
-0.0344229527559055
0
LINE
8
BLACK
6
CONTINUOUS
10
-0.4107147637795275
20
-0.0344229527559055
11
-0.4128351968503937
21
-0.0383062992125984
0
LINE
8
BLACK
6
CONTINUOUS
10
-0.4128351968503937
20
-0.0383062992125984
11
-0.4133666929133858
21
-0.0390162598425197
0
LINE
8
BLACK
6
CONTINUOUS
10
-0.4133666929133858
20
-0.0390162598425197
11
-0.4138886220472441
21
-0.0399203149606299
0
LINE
8
BLACK
6
CONTINUOUS
10
-0.4138886220472441
20
-0.0399203149606299
11
-0.4164141732283465
21
-0.0430872047244094
0
LINE
8
BLACK
6
CONTINUOUS
10
-0.4164141732283465
20
-0.0430872047244094
11
-0.4188933858267717
21
-0.046399094488189
0
LINE
8
BLACK
6
CONTINUOUS
10
-0.4188933858267717
20
-0.046399094488189
11
-0.4196927952755906
21
-0.0471984645669291
0
LINE
8
BLACK
6
CONTINUOUS
10
-0.4196927952755906
20
-0.0471984645669291
11
-0.4204924015748032
21
-0.0482011811023622
0
LINE
8
BLACK
6
CONTINUOUS
10
-0.4204924015748032
20
-0.0482011811023622
11
-0.4233075590551181
21
-0.0508132283464567
0
LINE
8
BLACK
6
CONTINUOUS
10
-0.4233075590551181
20
-0.0508132283464567
11
-0.4260418503937008
21
-0.0535475590551181
0
LINE
8
BLACK
6
CONTINUOUS
10
-0.4260418503937008
20
-0.0535475590551181
11
-0.4271420866141732
21
-0.0543711417322835
0
LINE
8
BLACK
6
CONTINUOUS
10
-0.4271420866141732
20
-0.0543711417322835
11
-0.4282566535433071
21
-0.0554053543307087
0
LINE
8
BLACK
6
CONTINUOUS
10
-0.4282566535433071
20
-0.0554053543307087
11
-0.4312479133858267
21
-0.0574447244094488
0
LINE
8
BLACK
6
CONTINUOUS
10
-0.4312479133858267
20
-0.0574447244094488
11
-0.4341346456692913
21
-0.0596057480314961
0
LINE
8
BLACK
6
CONTINUOUS
10
-0.4341346456692913
20
-0.0596057480314961
11
-0.4355551968503937
21
-0.0603813779527559
0
LINE
8
BLACK
6
CONTINUOUS
10
-0.4355551968503937
20
-0.0603813779527559
11
-0.437007874015748
21
-0.0613718503937008
0
LINE
8
BLACK
6
CONTINUOUS
10
-0.437007874015748
20
-0.0613718503937008
11
-0.4400668110236221
21
-0.0628449212598425
0
LINE
8
BLACK
6
CONTINUOUS
10
-0.4400668110236221
20
-0.0628449212598425
11
-0.4430073228346457
21
-0.0644505905511811
0
LINE
8
BLACK
6
CONTINUOUS
10
-0.4430073228346457
20
-0.0644505905511811
11
-0.444753031496063
21
-0.0651016929133858
0
LINE
8
BLACK
6
CONTINUOUS
10
-0.444753031496063
20
-0.0651016929133858
11
-0.4465506692913386
21
-0.0659674015748031
0
LINE
8
BLACK
6
CONTINUOUS
10
-0.4465506692913386
20
-0.0659674015748031
11
-0.4495760236220472
21
-0.0669005905511811
0
LINE
8
BLACK
6
CONTINUOUS
10
-0.4495760236220472
20
-0.0669005905511811
11
-0.4524794094488189
21
-0.0679835039370079
0
LINE
8
BLACK
6
CONTINUOUS
10
-0.4524794094488189
20
-0.0679835039370079
11
-0.4545398818897637
21
-0.0684316929133858
0
LINE
8
BLACK
6
CONTINUOUS
10
-0.4545398818897637
20
-0.0684316929133858
11
-0.4566717716535433
21
-0.0690893307086614
0
LINE
8
BLACK
6
CONTINUOUS
10
-0.4566717716535433
20
-0.0690893307086614
11
-0.4595731496062992
21
-0.0695266141732283
0
LINE
8
BLACK
6
CONTINUOUS
10
-0.4595731496062992
20
-0.0695266141732283
11
-0.4623572047244094
21
-0.0701322834645669
0
LINE
8
BLACK
6
CONTINUOUS
10
-0.4623572047244094
20
-0.0701322834645669
11
-0.4647055905511811
21
-0.0703002362204724
0
LINE
8
BLACK
6
CONTINUOUS
10
-0.4647055905511811
20
-0.0703002362204724
11
-0.4671451181102362
21
-0.0706679527559055
0
LINE
8
BLACK
6
CONTINUOUS
10
-0.4671451181102362
20
-0.0706679527559055
11
-0.4698466535433071
21
-0.0706679527559055
0
LINE
8
BLACK
6
CONTINUOUS
10
-0.4698466535433071
20
-0.0706679527559055
11
-0.4724409448818898
21
-0.0708535039370079
0
LINE
8
BLACK
6
CONTINUOUS
10
-0.4724409448818898
20
-0.0708535039370079
11
-0.4750352362204724
21
-0.0706679527559055
0
LINE
8
BLACK
6
CONTINUOUS
10
-0.4750352362204724
20
-0.0706679527559055
11
-0.4777367716535433
21
-0.0706679527559055
0
LINE
8
BLACK
6
CONTINUOUS
10
-0.4777367716535433
20
-0.0706679527559055
11
-0.4801762992125984
21
-0.0703002362204724
0
LINE
8
BLACK
6
CONTINUOUS
10
-0.4801762992125984
20
-0.0703002362204724
11
-0.4825247244094488
21
-0.0701322834645669
0
LINE
8
BLACK
6
CONTINUOUS
10
-0.4825247244094488
20
-0.0701322834645669
11
-0.4853088976377953
21
-0.0695266141732283
0
LINE
8
BLACK
6
CONTINUOUS
10
-0.4853088976377953
20
-0.0695266141732283
11
-0.4882101181102362
21
-0.0690893307086614
0
LINE
8
BLACK
6
CONTINUOUS
10
-0.4882101181102362
20
-0.0690893307086614
11
-0.490341968503937
21
-0.0684317322834646
0
LINE
8
BLACK
6
CONTINUOUS
10
-0.490341968503937
20
-0.0684317322834646
11
-0.4924025196850393
21
-0.0679835039370079
0
LINE
8
BLACK
6
CONTINUOUS
10
-0.4924025196850393
20
-0.0679835039370079
11
-0.4953061023622047
21
-0.0669005118110236
0
LINE
8
BLACK
6
CONTINUOUS
10
-0.4953061023622047
20
-0.0669005118110236
11
-0.4983312204724409
21
-0.0659674015748031
0
LINE
8
BLACK
6
CONTINUOUS
10
-0.4983312204724409
20
-0.0659674015748031
11
-0.5001287007874016
21
-0.0651017716535433
0
LINE
8
BLACK
6
CONTINUOUS
10
-0.5001287007874016
20
-0.0651017716535433
11
-0.5018746062992125
21
-0.0644505905511811
0
LINE
8
BLACK
6
CONTINUOUS
10
-0.5018746062992125
20
-0.0644505905511811
11
-0.5048156299212598
21
-0.0628446456692913
0
LINE
8
BLACK
6
CONTINUOUS
10
-0.5048156299212598
20
-0.0628446456692913
11
-0.5078739763779527
21
-0.0613718503937008
0
LINE
8
BLACK
6
CONTINUOUS
10
-0.5078739763779527
20
-0.0613718503937008
11
-0.5093264173228347
21
-0.0603815748031496
0
LINE
8
BLACK
6
CONTINUOUS
10
-0.5093264173228347
20
-0.0603815748031496
11
-0.5107472834645669
21
-0.0596057480314961
0
LINE
8
BLACK
6
CONTINUOUS
10
-0.5107472834645669
20
-0.0596057480314961
11
-0.5136346062992125
21
-0.0574443307086614
0
LINE
8
BLACK
6
CONTINUOUS
10
-0.5136346062992125
20
-0.0574443307086614
11
-0.5166252362204724
21
-0.0554053543307087
0
LINE
8
BLACK
6
CONTINUOUS
10
-0.5166252362204724
20
-0.0554053543307087
11
-0.5177396850393701
21
-0.0543712992125984
0
LINE
8
BLACK
6
CONTINUOUS
10
-0.5177396850393701
20
-0.0543712992125984
11
-0.5188400787401575
21
-0.0535475590551181
0
LINE
8
BLACK
6
CONTINUOUS
10
-0.5188400787401575
20
-0.0535475590551181
11
-0.5215749212598425
21
-0.0508127165354331
0
LINE
8
BLACK
6
CONTINUOUS
10
-0.5215749212598425
20
-0.0508127165354331
11
-0.5243894881889763
21
-0.0482011811023622
0
LINE
8
BLACK
6
CONTINUOUS
10
-0.5243894881889763
20
-0.0482011811023622
11
-0.5251889763779527
21
-0.0471986614173228
0
LINE
8
BLACK
6
CONTINUOUS
10
-0.5251889763779527
20
-0.0471986614173228
11
-0.5259885433070866
21
-0.046399094488189
0
LINE
8
BLACK
6
CONTINUOUS
10
-0.5259885433070866
20
-0.046399094488189
11
-0.5284683858267717
21
-0.0430864173228346
0
LINE
8
BLACK
6
CONTINUOUS
10
-0.5284683858267717
20
-0.0430864173228346
11
-0.5309932677165354
21
-0.0399203149606299
0
LINE
8
BLACK
6
CONTINUOUS
10
-0.5309932677165354
20
-0.0399203149606299
11
-0.5315151181102362
21
-0.0390164566929134
0
LINE
8
BLACK
6
CONTINUOUS
10
-0.5315151181102362
20
-0.0390164566929134
11
-0.5320467322834646
21
-0.0383062992125984
0
LINE
8
BLACK
6
CONTINUOUS
10
-0.5320467322834646
20
-0.0383062992125984
11
-0.5341678740157481
21
-0.0344216929133858
0
LINE
8
BLACK
6
CONTINUOUS
10
-0.5341678740157481
20
-0.0344216929133858
11
-0.536289094488189
21
-0.0307476377952756
0
LINE
8
BLACK
6
CONTINUOUS
10
-0.536289094488189
20
-0.0307476377952756
11
-0.5365830708661418
21
-0.0299986220472441
0
LINE
8
BLACK
6
CONTINUOUS
10
-0.5365830708661418
20
-0.0299986220472441
11
-0.5368915748031496
21
-0.0294336220472441
0
LINE
8
BLACK
6
CONTINUOUS
10
-0.5368915748031496
20
-0.0294336220472441
11
-0.5385520866141732
21
-0.0249816929133858
0
LINE
8
BLACK
6
CONTINUOUS
10
-0.5385520866141732
20
-0.0249816929133858
11
-0.5401586614173228
21
-0.0208881496062992
0
LINE
8
BLACK
6
CONTINUOUS
10
-0.5401586614173228
20
-0.0208881496062992
11
-0.5402844881889763
21
-0.0203369291338583
0
LINE
8
BLACK
6
CONTINUOUS
10
-0.5402844881889763
20
-0.0203369291338583
11
-0.5404244881889764
21
-0.0199615354330709
0
LINE
8
BLACK
6
CONTINUOUS
10
-0.5404244881889764
20
-0.0199615354330709
11
-0.5415285826771653
21
-0.0148862204724409
0
LINE
8
BLACK
6
CONTINUOUS
10
-0.5415285826771653
20
-0.0148862204724409
11
-0.5425155118110236
21
-0.0105620472440945
0
LINE
8
BLACK
6
CONTINUOUS
10
-0.5425155118110236
20
-0.0105620472440945
11
-0.542539842519685
21
-0.0102373622047244
0
LINE
8
BLACK
6
CONTINUOUS
10
-0.542539842519685
20
-0.0102373622047244
11
-0.5425732677165355
21
-0.0100837401574803
0
LINE
8
BLACK
6
CONTINUOUS
10
-0.5425732677165355
20
-0.0100837401574803
11
-0.5430317322834646
21
-0.0036739763779528
0
LINE
8
BLACK
6
CONTINUOUS
10
-0.5430317322834646
20
-0.0036739763779528
11
-0.5433070472440945
21
0.
0
LINE
8
BLACK
6
CONTINUOUS
10
-0.5433070472440945
20
0.
11
-0.5430317716535433
21
0.0036737007874016
0
LINE
8
BLACK
6
CONTINUOUS
10
-0.5430317716535433
20
0.0036737007874016
11
-0.5425732677165355
21
0.0100837795275591
0
LINE
8
BLACK
6
CONTINUOUS
10
-0.5425732677165355
20
0.0100837795275591
11
-0.542539842519685
21
0.0102374803149606
0
LINE
8
BLACK
6
CONTINUOUS
10
-0.542539842519685
20
0.0102374803149606
11
-0.5425155118110236
21
0.0105620472440945
0
LINE
8
BLACK
6
CONTINUOUS
10
-0.5425155118110236
20
0.0105620472440945
11
-0.5415287401574803
21
0.0148854330708661
0
LINE
8
BLACK
6
CONTINUOUS
10
-0.5415287401574803
20
0.0148854330708661
11
-0.5404244881889764
21
0.0199615748031496
0
LINE
8
BLACK
6
CONTINUOUS
10
-0.5404244881889764
20
0.0199615748031496
11
-0.5402844881889763
21
0.0203370472440945
0
LINE
8
BLACK
6
CONTINUOUS
10
-0.5402844881889763
20
0.0203370472440945
11
-0.5401586614173228
21
0.0208881496062992
0
LINE
8
BLACK
6
CONTINUOUS
10
-0.5401586614173228
20
0.0208881496062992
11
-0.5385523622047244
21
0.0249809842519685
0
LINE
8
BLACK
6
CONTINUOUS
10
-0.5385523622047244
20
0.0249809842519685
11
-0.5368915748031496
21
0.0294336614173228
0
LINE
8
BLACK
6
CONTINUOUS
10
-0.5368915748031496
20
0.0294336614173228
11
-0.536583031496063
21
0.0299987795275591
0
LINE
8
BLACK
6
CONTINUOUS
10
-0.536583031496063
20
0.0299987795275591
11
-0.536289094488189
21
0.0307476377952756
0
LINE
8
BLACK
6
CONTINUOUS
10
-0.536289094488189
20
0.0307476377952756
11
-0.5341682677165355
21
0.034421062992126
0
LINE
8
BLACK
6
CONTINUOUS
10
-0.5341682677165355
20
0.034421062992126
11
-0.5320467322834646
21
0.0383063385826772
0
LINE
8
BLACK
6
CONTINUOUS
10
-0.5320467322834646
20
0.0383063385826772
11
-0.531515
21
0.0390166929133858
0
LINE
8
BLACK
6
CONTINUOUS
10
-0.531515
20
0.0390166929133858
11
-0.5309932677165354
21
0.0399203149606299
0
LINE
8
BLACK
6
CONTINUOUS
10
-0.5309932677165354
20
0.0399203149606299
11
-0.5284688976377953
21
0.0430858267716535
0
LINE
8
BLACK
6
CONTINUOUS
10
-0.5284688976377953
20
0.0430858267716535
11
-0.5259885433070866
21
0.0463991338582677
0
LINE
8
BLACK
6
CONTINUOUS
10
-0.5259885433070866
20
0.0463991338582677
11
-0.5251888188976378
21
0.0471988976377953
0
LINE
8
BLACK
6
CONTINUOUS
10
-0.5251888188976378
20
0.0471988976377953
11
-0.5243894881889763
21
0.0482011811023622
0
LINE
8
BLACK
6
CONTINUOUS
10
-0.5243894881889763
20
0.0482011811023622
11
-0.5215754724409448
21
0.0508122440944882
0
LINE
8
BLACK
6
CONTINUOUS
10
-0.5215754724409448
20
0.0508122440944882
11
-0.5188400787401575
21
0.0535475984251969
0
LINE
8
BLACK
6
CONTINUOUS
10
-0.5188400787401575
20
0.0535475984251969
11
-0.5177394488188977
21
0.0543715354330709
0
LINE
8
BLACK
6
CONTINUOUS
10
-0.5177394488188977
20
0.0543715354330709
11
-0.5166252362204724
21
0.0554053543307087
0
LINE
8
BLACK
6
CONTINUOUS
10
-0.5166252362204724
20
0.0554053543307087
11
-0.5136351968503937
21
0.0574439763779528
0
LINE
8
BLACK
6
CONTINUOUS
10
-0.5136351968503937
20
0.0574439763779528
11
-0.5107472834645669
21
0.0596057874015748
0
LINE
8
BLACK
6
CONTINUOUS
10
-0.5107472834645669
20
0.0596057874015748
11
-0.5093261023622047
21
0.0603818503937008
0
LINE
8
BLACK
6
CONTINUOUS
10
-0.5093261023622047
20
0.0603818503937008
11
-0.5078739763779527
21
0.0613718503937008
0
LINE
8
BLACK
6
CONTINUOUS
10
-0.5078739763779527
20
0.0613718503937008
11
-0.5048162598425197
21
0.0628444094488189
0
LINE
8
BLACK
6
CONTINUOUS
10
-0.5048162598425197
20
0.0628444094488189
11
-0.5018746062992125
21
0.0644506299212598
0
LINE
8
BLACK
6
CONTINUOUS
10
-0.5018746062992125
20
0.0644506299212598
11
-0.5001283464566929
21
0.065101968503937
0
LINE
8
BLACK
6
CONTINUOUS
10
-0.5001283464566929
20
0.065101968503937
11
-0.4983312204724409
21
0.0659674015748031
0
LINE
8
BLACK
6
CONTINUOUS
10
-0.4983312204724409
20
0.0659674015748031
11
-0.4953067322834646
21
0.0669003543307087
0
LINE
8
BLACK
6
CONTINUOUS
10
-0.4953067322834646
20
0.0669003543307087
11
-0.4924025196850393
21
0.0679835433070866
0
LINE
8
BLACK
6
CONTINUOUS
10
-0.4924025196850393
20
0.0679835433070866
11
-0.4903415354330709
21
0.0684318897637795
0
LINE
8
BLACK
6
CONTINUOUS
10
-0.4903415354330709
20
0.0684318897637795
11
-0.4882101181102362
21
0.0690893307086614
0
LINE
8
BLACK
6
CONTINUOUS
10
-0.4882101181102362
20
0.0690893307086614
11
-0.4853094881889763
21
0.0695265748031496
0
LINE
8
BLACK
6
CONTINUOUS
10
-0.4853094881889763
20
0.0695265748031496
11
-0.4825247244094488
21
0.0701323228346457
0
LINE
8
BLACK
6
CONTINUOUS
10
-0.4825247244094488
20
0.0701323228346457
11
-0.4801758267716535
21
0.0703003543307087
0
LINE
8
BLACK
6
CONTINUOUS
10
-0.4801758267716535
20
0.0703003543307087
11
-0.4777367716535433
21
0.0706679527559055
0
LINE
8
BLACK
6
CONTINUOUS
10
-0.4777367716535433
20
0.0706679527559055
11
-0.4750357874015748
21
0.0706679527559055
0
LINE
8
BLACK
6
CONTINUOUS
10
-0.4750357874015748
20
0.0706679527559055
11
-0.4724409448818898
21
0.0708535433070866
0
LINE
8
BLACK
6
CONTINUOUS
10
-0.4724409448818898
20
0.0708535433070866
11
-0.4698461023622047
21
0.0706679527559055
0
LINE
8
BLACK
6
CONTINUOUS
10
0.4335716141732283
20
0.0514326377952756
11
0.4416918897637795
21
0.049256811023622
0
LINE
8
BLACK
6
CONTINUOUS
10
0.4416918897637795
20
0.049256811023622
11
0.4493110236220472
21
0.045703937007874
0
LINE
8
BLACK
6
CONTINUOUS
10
0.4493110236220472
20
0.045703937007874
11
0.4561974015748032
21
0.0408820472440945
0
LINE
8
BLACK
6
CONTINUOUS
10
0.4561974015748032
20
0.0408820472440945
11
0.4621418897637795
21
0.0349375590551181
0
LINE
8
BLACK
6
CONTINUOUS
10
0.4621418897637795
20
0.0349375590551181
11
0.466963779527559
21
0.0280511417322835
0
LINE
8
BLACK
6
CONTINUOUS
10
0.466963779527559
20
0.0280511417322835
11
0.4705166535433071
21
0.0204320472440945
0
LINE
8
BLACK
6
CONTINUOUS
10
0.4705166535433071
20
0.0204320472440945
11
0.4726924803149606
21
0.0123117716535433
0
LINE
8
BLACK
6
CONTINUOUS
10
0.4726924803149606
20
0.0123117716535433
11
0.4734251574803149
21
0.0039370078740157
0
LINE
8
BLACK
6
CONTINUOUS
10
0.4734251574803149
20
0.0039370078740157
11
0.4726924803149606
21
-0.0044377559055118
0
LINE
8
BLACK
6
CONTINUOUS
10
0.4726924803149606
20
-0.0044377559055118
11
0.4705166535433071
21
-0.012558031496063
0
LINE
8
BLACK
6
CONTINUOUS
10
0.4705166535433071
20
-0.012558031496063
11
0.466963779527559
21
-0.0201771653543307
0
LINE
8
BLACK
6
CONTINUOUS
10
0.466963779527559
20
-0.0201771653543307
11
0.4621418897637795
21
-0.0270635433070866
0
LINE
8
BLACK
6
CONTINUOUS
10
0.4621418897637795
20
-0.0270635433070866
11
0.4561974015748032
21
-0.033008031496063
0
LINE
8
BLACK
6
CONTINUOUS
10
0.4561974015748032
20
-0.033008031496063
11
0.4493110236220472
21
-0.0378299212598425
0
LINE
8
BLACK
6
CONTINUOUS
10
0.4493110236220472
20
-0.0378299212598425
11
0.4416918897637795
21
-0.0413827952755906
0
LINE
8
BLACK
6
CONTINUOUS
10
0.4416918897637795
20
-0.0413827952755906
11
0.4335716141732283
21
-0.0435586220472441
0
LINE
8
BLACK
6
CONTINUOUS
10
0.4335716141732283
20
-0.0435586220472441
11
0.4251968503937008
21
-0.0442912992125984
0
LINE
8
BLACK
6
CONTINUOUS
10
0.4251968503937008
20
-0.0442912992125984
11
0.4168220866141732
21
-0.0435586220472441
0
LINE
8
BLACK
6
CONTINUOUS
10
0.4168220866141732
20
-0.0435586220472441
11
0.408701811023622
21
-0.0413827952755906
0
LINE
8
BLACK
6
CONTINUOUS
10
0.408701811023622
20
-0.0413827952755906
11
0.4010826771653543
21
-0.0378299212598425
0
LINE
8
BLACK
6
CONTINUOUS
10
0.4010826771653543
20
-0.0378299212598425
11
0.3941962992125984
21
-0.033008031496063
0
LINE
8
BLACK
6
CONTINUOUS
10
0.3941962992125984
20
-0.033008031496063
11
0.3882518110236221
21
-0.0270635433070866
0
LINE
8
BLACK
6
CONTINUOUS
10
0.3882518110236221
20
-0.0270635433070866
11
0.3834299212598425
21
-0.0201771653543307
0
LINE
8
BLACK
6
CONTINUOUS
10
0.3834299212598425
20
-0.0201771653543307
11
0.3798770472440945
21
-0.012558031496063
0
LINE
8
BLACK
6
CONTINUOUS
10
0.3798770472440945
20
-0.012558031496063
11
0.3777012204724409
21
-0.0044377559055118
0
LINE
8
BLACK
6
CONTINUOUS
10
0.3777012204724409
20
-0.0044377559055118
11
0.3769685433070866
21
0.0039370078740157
0
LINE
8
BLACK
6
CONTINUOUS
10
0.3769685433070866
20
0.0039370078740157
11
0.3777012204724409
21
0.0123117716535433
0
LINE
8
BLACK
6
CONTINUOUS
10
0.3777012204724409
20
0.0123117716535433
11
0.3798770472440945
21
0.0204320472440945
0
LINE
8
BLACK
6
CONTINUOUS
10
0.3798770472440945
20
0.0204320472440945
11
0.3834299212598425
21
0.0280511417322835
0
LINE
8
BLACK
6
CONTINUOUS
10
0.3834299212598425
20
0.0280511417322835
11
0.3882518110236221
21
0.0349375590551181
0
LINE
8
BLACK
6
CONTINUOUS
10
0.3882518110236221
20
0.0349375590551181
11
0.3941962992125984
21
0.0408820472440945
0
LINE
8
BLACK
6
CONTINUOUS
10
0.3941962992125984
20
0.0408820472440945
11
0.401082716535433
21
0.045703937007874
0
LINE
8
BLACK
6
CONTINUOUS
10
0.401082716535433
20
0.045703937007874
11
0.408701811023622
21
0.049256811023622
0
LINE
8
BLACK
6
CONTINUOUS
10
0.408701811023622
20
0.049256811023622
11
0.4168220866141732
21
0.0514326377952756
0
LINE
8
BLACK
6
CONTINUOUS
10
0.4168220866141732
20
0.0514326377952756
11
0.4251968503937008
21
0.0521653149606299
0
LINE
8
BLACK
6
CONTINUOUS
10
0.4251968503937008
20
0.0521653149606299
11
0.4335716141732283
21
0.0514326377952756
0
LINE
8
BLACK
6
CONTINUOUS
10
0.0443321653543307
20
0.1067641338582677
11
0.045619094488189
21
0.1065947244094488
0
LINE
8
BLACK
6
CONTINUOUS
10
0.045619094488189
20
0.1065947244094488
11
0.0459428346456693
21
0.1064437795275591
0
LINE
8
BLACK
6
CONTINUOUS
10
0.0459428346456693
20
0.1064437795275591
11
0.0467140157480315
21
0.1062903543307087
0
LINE
8
BLACK
6
CONTINUOUS
10
0.0467140157480315
20
0.1062903543307087
11
0.0477355905511811
21
0.1056077952755906
0
LINE
8
BLACK
6
CONTINUOUS
10
0.0477355905511811
20
0.1056077952755906
11
0.0481735433070866
21
0.1054035433070866
0
LINE
8
BLACK
6
CONTINUOUS
10
0.0481735433070866
20
0.1054035433070866
11
0.0484399212598425
21
0.1051371653543307
0
LINE
8
BLACK
6
CONTINUOUS
10
0.0484399212598425
20
0.1051371653543307
11
0.0492685433070866
21
0.1045835039370079
0
LINE
8
BLACK
6
CONTINUOUS
10
0.0492685433070866
20
0.1045835039370079
11
0.0498221653543307
21
0.1037549212598425
0
LINE
8
BLACK
6
CONTINUOUS
10
0.0498221653543307
20
0.1037549212598425
11
0.0500885433070866
21
0.1034885433070866
0
LINE
8
BLACK
6
CONTINUOUS
10
0.0500885433070866
20
0.1034885433070866
11
0.0502927165354331
21
0.1030507086614173
0
LINE
8
BLACK
6
CONTINUOUS
10
0.0502927165354331
20
0.1030507086614173
11
0.0509753937007874
21
0.1020289763779528
0
LINE
8
BLACK
6
CONTINUOUS
10
0.0509753937007874
20
0.1020289763779528
11
0.0511287795275591
21
0.1012577952755905
0
LINE
8
BLACK
6
CONTINUOUS
10
0.0511287795275591
20
0.1012577952755905
11
0.0512797244094488
21
0.100934094488189
0
LINE
8
BLACK
6
CONTINUOUS
10
0.0512797244094488
20
0.100934094488189
11
0.0514491732283465
21
0.0996468110236221
0
LINE
8
BLACK
6
CONTINUOUS
10
0.0514491732283465
20
0.0996468110236221
11
0.0515747244094488
21
0.0990157086614173
0
LINE
8
BLACK
6
CONTINUOUS
10
0.0515747244094488
20
0.0990157086614173
11
0.0515747244094488
21
0.0986933858267716
0
LINE
8
BLACK
6
CONTINUOUS
10
0.0515747244094488
20
0.0986933858267716
11
0.0515747637795276
21
0.0986930708661417
0
LINE
8
BLACK
6
CONTINUOUS
10
0.0515747637795276
20
0.0986930708661417
11
0.0515747637795276
21
0.0708535433070866
0
LINE
8
BLACK
6
CONTINUOUS
10
0.0515747637795276
20
0.0708535433070866
11
0.0515747637795276
21
0.0438976377952756
0
LINE
8
BLACK
6
CONTINUOUS
10
0.0515747637795276
20
0.0438976377952756
11
0.051449094488189
21
0.0432659842519685
0
LINE
8
BLACK
6
CONTINUOUS
10
0.051449094488189
20
0.0432659842519685
11
0.0512797244094488
21
0.0419793307086614
0
LINE
8
BLACK
6
CONTINUOUS
10
0.0512797244094488
20
0.0419793307086614
11
0.0511287795275591
21
0.0416557480314961
0
LINE
8
BLACK
6
CONTINUOUS
10
0.0511287795275591
20
0.0416557480314961
11
0.0509753937007874
21
0.0408844094488189
0
LINE
8
BLACK
6
CONTINUOUS
10
0.0509753937007874
20
0.0408844094488189
11
0.0502926377952756
21
0.0398626377952756
0
LINE
8
BLACK
6
CONTINUOUS
10
0.0502926377952756
20
0.0398626377952756
11
0.0500885433070866
21
0.0394248818897638
0
LINE
8
BLACK
6
CONTINUOUS
10
0.0500885433070866
20
0.0394248818897638
11
0.0498222440944882
21
0.0391586220472441
0
LINE
8
BLACK
6
CONTINUOUS
10
0.0498222440944882
20
0.0391586220472441
11
0.0492685433070866
21
0.0383298818897638
0
LINE
8
BLACK
6
CONTINUOUS
10
0.0492685433070866
20
0.0383298818897638
11
0.0484398031496063
21
0.0377761811023622
0
LINE
8
BLACK
6
CONTINUOUS
10
0.0484398031496063
20
0.0377761811023622
11
0.0481735433070866
21
0.0375098818897638
0
LINE
8
BLACK
6
CONTINUOUS
10
0.0481735433070866
20
0.0375098818897638
11
0.0477357874015748
21
0.0373057874015748
0
LINE
8
BLACK
6
CONTINUOUS
10
0.0477357874015748
20
0.0373057874015748
11
0.0467140157480315
21
0.036623031496063
0
LINE
8
BLACK
6
CONTINUOUS
10
0.0467140157480315
20
0.036623031496063
11
0.0459427559055118
21
0.0364696456692913
0
LINE
8
BLACK
6
CONTINUOUS
10
0.0459427559055118
20
0.0364696456692913
11
0.045619094488189
21
0.0363187007874016
0
LINE
8
BLACK
6
CONTINUOUS
10
0.045619094488189
20
0.0363187007874016
11
0.0443318503937008
21
0.0361492519685039
0
LINE
8
BLACK
6
CONTINUOUS
10
0.0443318503937008
20
0.0361492519685039
11
0.0437007480314961
21
0.0360237007874016
0
LINE
8
BLACK
6
CONTINUOUS
10
0.0437007480314961
20
0.0360237007874016
11
0.0433783858267716
21
0.0360237007874016
0
LINE
8
BLACK
6
CONTINUOUS
10
0.0433783858267716
20
0.0360237007874016
11
0.0433781102362205
21
0.0360236614173228
0
LINE
8
BLACK
6
CONTINUOUS
10
0.0433781102362205
20
0.0360236614173228
11
0.0141022047244094
21
0.0360236614173228
0
LINE
8
BLACK
6
CONTINUOUS
10
0.0141022047244094
20
0.0360236614173228
11
0.0141021653543307
21
0.0360237007874016
0
LINE
8
BLACK
6
CONTINUOUS
10
0.0141021653543307
20
0.0360237007874016
11
0.0137795275590551
21
0.0360236614173228
0
LINE
8
BLACK
6
CONTINUOUS
10
0.0137795275590551
20
0.0360236614173228
11
0.0131479133858268
21
0.0361493307086614
0
LINE
8
BLACK
6
CONTINUOUS
10
0.0131479133858268
20
0.0361493307086614
11
0.0118611811023622
21
0.0363187007874016
0
LINE
8
BLACK
6
CONTINUOUS
10
0.0118611811023622
20
0.0363187007874016
11
0.0115375196850394
21
0.0364696456692913
0
LINE
8
BLACK
6
CONTINUOUS
10
0.0115375196850394
20
0.0364696456692913
11
0.0107662992125984
21
0.036623031496063
0
LINE
8
BLACK
6
CONTINUOUS
10
0.0107662992125984
20
0.036623031496063
11
0.0097445669291339
21
0.0373057086614173
0
LINE
8
BLACK
6
CONTINUOUS
10
0.0097445669291339
20
0.0373057086614173
11
0.0093067322834646
21
0.0375098818897638
0
LINE
8
BLACK
6
CONTINUOUS
10
0.0093067322834646
20
0.0375098818897638
11
0.0090403543307087
21
0.0377762598425197
0
LINE
8
BLACK
6
CONTINUOUS
10
0.0090403543307087
20
0.0377762598425197
11
0.0082117716535433
21
0.0383298818897638
0
LINE
8
BLACK
6
CONTINUOUS
10
0.0082117716535433
20
0.0383298818897638
11
0.0076581102362205
21
0.0391585039370079
0
LINE
8
BLACK
6
CONTINUOUS
10
0.0076581102362205
20
0.0391585039370079
11
0.0073917322834646
21
0.0394248818897638
0
LINE
8
BLACK
6
CONTINUOUS
10
0.0073917322834646
20
0.0394248818897638
11
0.0071874803149606
21
0.0398628346456693
0
LINE
8
BLACK
6
CONTINUOUS
10
0.0071874803149606
20
0.0398628346456693
11
0.0065049212598425
21
0.0408844094488189
0
LINE
8
BLACK
6
CONTINUOUS
10
0.0065049212598425
20
0.0408844094488189
11
0.0063515354330709
21
0.0416555511811024
0
LINE
8
BLACK
6
CONTINUOUS
10
0.0063515354330709
20
0.0416555511811024
11
0.0062005511811024
21
0.0419793307086614
0
LINE
8
BLACK
6
CONTINUOUS
10
0.0062005511811024
20
0.0419793307086614
11
0.006031062992126
21
0.0432667716535433
0
LINE
8
BLACK
6
CONTINUOUS
10
0.006031062992126
20
0.0432667716535433
11
0.0059055905511811
21
0.0438976771653543
0
LINE
8
BLACK
6
CONTINUOUS
10
0.0059055905511811
20
0.0438976771653543
11
0.0059055511811024
21
0.0442200787401575
0
LINE
8
BLACK
6
CONTINUOUS
10
0.0059055511811024
20
0.0442200787401575
11
0.0059055511811024
21
0.0442203543307087
0
LINE
8
BLACK
6
CONTINUOUS
10
0.0059055511811024
20
0.0442203543307087
11
0.0059055511811024
21
0.0986930708661417
0
LINE
8
BLACK
6
CONTINUOUS
10
0.0059055511811024
20
0.0986930708661417
11
0.0059055511811024
21
0.0986931102362205
0
LINE
8
BLACK
6
CONTINUOUS
10
0.0059055511811024
20
0.0986931102362205
11
0.0059055511811024
21
0.0990157480314961
0
LINE
8
BLACK
6
CONTINUOUS
10
0.0059055511811024
20
0.0990157480314961
11
0.0060311023622047
21
0.099647125984252
0
LINE
8
BLACK
6
CONTINUOUS
10
0.0060311023622047
20
0.099647125984252
11
0.0062005511811024
21
0.100934094488189
0
LINE
8
BLACK
6
CONTINUOUS
10
0.0062005511811024
20
0.100934094488189
11
0.0063515354330709
21
0.1012579133858268
0
LINE
8
BLACK
6
CONTINUOUS
10
0.0063515354330709
20
0.1012579133858268
11
0.0065049212598425
21
0.1020289763779528
0
LINE
8
BLACK
6
CONTINUOUS
10
0.0065049212598425
20
0.1020289763779528
11
0.0071874409448819
21
0.1030505118110236
0
LINE
8
BLACK
6
CONTINUOUS
10
0.0071874409448819
20
0.1030505118110236
11
0.0073917322834646
21
0.1034885433070866
0
LINE
8
BLACK
6
CONTINUOUS
10
0.0073917322834646
20
0.1034885433070866
11
0.007658188976378
21
0.1037550393700787
0
LINE
8
BLACK
6
CONTINUOUS
10
0.007658188976378
20
0.1037550393700787
11
0.0082117716535433
21
0.1045835039370079
0
LINE
8
BLACK
6
CONTINUOUS
10
0.0082117716535433
20
0.1045835039370079
11
0.0090402362204724
21
0.1051370866141732
0
LINE
8
BLACK
6
CONTINUOUS
10
0.0090402362204724
20
0.1051370866141732
11
0.0093067322834646
21
0.1054035433070866
0
LINE
8
BLACK
6
CONTINUOUS
10
0.0093067322834646
20
0.1054035433070866
11
0.0097447637795276
21
0.1056078346456693
0
LINE
8
BLACK
6
CONTINUOUS
10
0.0097447637795276
20
0.1056078346456693
11
0.0107662992125984
21
0.1062903543307087
0
LINE
8
BLACK
6
CONTINUOUS
10
0.0107662992125984
20
0.1062903543307087
11
0.0115373228346457
21
0.1064437401574803
0
LINE
8
BLACK
6
CONTINUOUS
10
0.0115373228346457
20
0.1064437401574803
11
0.0118611811023622
21
0.1065947244094488
0
LINE
8
BLACK
6
CONTINUOUS
10
0.0118611811023622
20
0.1065947244094488
11
0.0131487007874016
21
0.1067642125984252
0
LINE
8
BLACK
6
CONTINUOUS
10
0.0131487007874016
20
0.1067642125984252
11
0.0137795669291339
21
0.1068896850393701
0
LINE
8
BLACK
6
CONTINUOUS
10
0.0137795669291339
20
0.1068896850393701
11
0.0141018897637795
21
0.1068897244094488
0
LINE
8
BLACK
6
CONTINUOUS
10
0.0141018897637795
20
0.1068897244094488
11
0.0141022047244094
21
0.1068897244094488
0
LINE
8
BLACK
6
CONTINUOUS
10
0.0141022047244094
20
0.1068897244094488
11
0.0433781102362205
21
0.1068897244094488
0
LINE
8
BLACK
6
CONTINUOUS
10
0.0433781102362205
20
0.1068897244094488
11
0.0437007874015748
21
0.1068897244094488
0
LINE
8
BLACK
6
CONTINUOUS
10
0.0437007874015748
20
0.1068897244094488
11
0.0443321653543307
21
0.1067641338582677
0
LINE
8
BLACK
6
CONTINUOUS
10
0.1443321653543307
20
0.1067641338582677
11
0.145619094488189
21
0.1065947244094488
0
LINE
8
BLACK
6
CONTINUOUS
10
0.145619094488189
20
0.1065947244094488
11
0.1459428346456693
21
0.1064437795275591
0
LINE
8
BLACK
6
CONTINUOUS
10
0.1459428346456693
20
0.1064437795275591
11
0.1467140157480315
21
0.1062903543307087
0
LINE
8
BLACK
6
CONTINUOUS
10
0.1467140157480315
20
0.1062903543307087
11
0.1477355905511811
21
0.1056077952755906
0
LINE
8
BLACK
6
CONTINUOUS
10
0.1477355905511811
20
0.1056077952755906
11
0.1481735433070866
21
0.1054035433070866
0
LINE
8
BLACK
6
CONTINUOUS
10
0.1481735433070866
20
0.1054035433070866
11
0.1484399212598425
21
0.1051371653543307
0
LINE
8
BLACK
6
CONTINUOUS
10
0.1484399212598425
20
0.1051371653543307
11
0.1492685433070866
21
0.1045835039370079
0
LINE
8
BLACK
6
CONTINUOUS
10
0.1492685433070866
20
0.1045835039370079
11
0.1498221653543307
21
0.1037549212598425
0
LINE
8
BLACK
6
CONTINUOUS
10
0.1498221653543307
20
0.1037549212598425
11
0.1500885433070866
21
0.1034885433070866
0
LINE
8
BLACK
6
CONTINUOUS
10
0.1500885433070866
20
0.1034885433070866
11
0.1502927165354331
21
0.1030507086614173
0
LINE
8
BLACK
6
CONTINUOUS
10
0.1502927165354331
20
0.1030507086614173
11
0.1509753937007874
21
0.1020289763779528
0
LINE
8
BLACK
6
CONTINUOUS
10
0.1509753937007874
20
0.1020289763779528
11
0.151128779527559
21
0.1012577952755905
0
LINE
8
BLACK
6
CONTINUOUS
10
0.151128779527559
20
0.1012577952755905
11
0.1512797244094488
21
0.100934094488189
0
LINE
8
BLACK
6
CONTINUOUS
10
0.1512797244094488
20
0.100934094488189
11
0.1514491732283464
21
0.0996468110236221
0
LINE
8
BLACK
6
CONTINUOUS
10
0.1514491732283464
20
0.0996468110236221
11
0.1515747244094488
21
0.0990157086614173
0
LINE
8
BLACK
6
CONTINUOUS
10
0.1515747244094488
20
0.0990157086614173
11
0.1515747244094488
21
0.0986933858267716
0
LINE
8
BLACK
6
CONTINUOUS
10
0.1515747244094488
20
0.0986933858267716
11
0.1515747637795276
21
0.0986930708661417
0
LINE
8
BLACK
6
CONTINUOUS
10
0.1515747637795276
20
0.0986930708661417
11
0.1515747637795276
21
0.0708535433070866
0
LINE
8
BLACK
6
CONTINUOUS
10
0.1515747637795276
20
0.0708535433070866
11
0.1515747637795276
21
0.0438976377952756
0
LINE
8
BLACK
6
CONTINUOUS
10
0.1515747637795276
20
0.0438976377952756
11
0.151449094488189
21
0.0432659842519685
0
LINE
8
BLACK
6
CONTINUOUS
10
0.151449094488189
20
0.0432659842519685
11
0.1512797244094488
21
0.0419793307086614
0
LINE
8
BLACK
6
CONTINUOUS
10
0.1512797244094488
20
0.0419793307086614
11
0.151128779527559
21
0.0416557480314961
0
LINE
8
BLACK
6
CONTINUOUS
10
0.151128779527559
20
0.0416557480314961
11
0.1509753937007874
21
0.0408844094488189
0
LINE
8
BLACK
6
CONTINUOUS
10
0.1509753937007874
20
0.0408844094488189
11
0.1502926377952756
21
0.0398626377952756
0
LINE
8
BLACK
6
CONTINUOUS
10
0.1502926377952756
20
0.0398626377952756
11
0.1500885433070866
21
0.0394248818897638
0
LINE
8
BLACK
6
CONTINUOUS
10
0.1500885433070866
20
0.0394248818897638
11
0.1498222440944882
21
0.0391586220472441
0
LINE
8
BLACK
6
CONTINUOUS
10
0.1498222440944882
20
0.0391586220472441
11
0.1492685433070866
21
0.0383298818897638
0
LINE
8
BLACK
6
CONTINUOUS
10
0.1492685433070866
20
0.0383298818897638
11
0.1484398031496063
21
0.0377761811023622
0
LINE
8
BLACK
6
CONTINUOUS
10
0.1484398031496063
20
0.0377761811023622
11
0.1481735433070866
21
0.0375098818897638
0
LINE
8
BLACK
6
CONTINUOUS
10
0.1481735433070866
20
0.0375098818897638
11
0.1477357874015748
21
0.0373057874015748
0
LINE
8
BLACK
6
CONTINUOUS
10
0.1477357874015748
20
0.0373057874015748
11
0.1467140157480315
21
0.036623031496063
0
LINE
8
BLACK
6
CONTINUOUS
10
0.1467140157480315
20
0.036623031496063
11
0.1459427559055118
21
0.0364696456692913
0
LINE
8
BLACK
6
CONTINUOUS
10
0.1459427559055118
20
0.0364696456692913
11
0.145619094488189
21
0.0363187007874016
0
LINE
8
BLACK
6
CONTINUOUS
10
0.145619094488189
20
0.0363187007874016
11
0.1443318503937008
21
0.0361492519685039
0
LINE
8
BLACK
6
CONTINUOUS
10
0.1443318503937008
20
0.0361492519685039
11
0.1437007480314961
21
0.0360237007874016
0
LINE
8
BLACK
6
CONTINUOUS
10
0.1437007480314961
20
0.0360237007874016
11
0.1433783858267716
21
0.0360237007874016
0
LINE
8
BLACK
6
CONTINUOUS
10
0.1433783858267716
20
0.0360237007874016
11
0.1433781102362205
21
0.0360236614173228
0
LINE
8
BLACK
6
CONTINUOUS
10
0.1433781102362205
20
0.0360236614173228
11
0.1141022047244094
21
0.0360236614173228
0
LINE
8
BLACK
6
CONTINUOUS
10
0.1141022047244094
20
0.0360236614173228
11
0.1141021653543307
21
0.0360237007874016
0
LINE
8
BLACK
6
CONTINUOUS
10
0.1141021653543307
20
0.0360237007874016
11
0.1137795275590551
21
0.0360236614173228
0
LINE
8
BLACK
6
CONTINUOUS
10
0.1137795275590551
20
0.0360236614173228
11
0.1131479133858268
21
0.0361493307086614
0
LINE
8
BLACK
6
CONTINUOUS
10
0.1131479133858268
20
0.0361493307086614
11
0.1118611811023622
21
0.0363187007874016
0
LINE
8
BLACK
6
CONTINUOUS
10
0.1118611811023622
20
0.0363187007874016
11
0.1115375196850394
21
0.0364696456692913
0
LINE
8
BLACK
6
CONTINUOUS
10
0.1115375196850394
20
0.0364696456692913
11
0.1107662992125984
21
0.036623031496063
0
LINE
8
BLACK
6
CONTINUOUS
10
0.1107662992125984
20
0.036623031496063
11
0.1097445669291339
21
0.0373057086614173
0
LINE
8
BLACK
6
CONTINUOUS
10
0.1097445669291339
20
0.0373057086614173
11
0.1093067322834646
21
0.0375098818897638
0
LINE
8
BLACK
6
CONTINUOUS
10
0.1093067322834646
20
0.0375098818897638
11
0.1090403543307087
21
0.0377762598425197
0
LINE
8
BLACK
6
CONTINUOUS
10
0.1090403543307087
20
0.0377762598425197
11
0.1082117716535433
21
0.0383298818897638
0
LINE
8
BLACK
6
CONTINUOUS
10
0.1082117716535433
20
0.0383298818897638
11
0.1076581102362205
21
0.0391585039370079
0
LINE
8
BLACK
6
CONTINUOUS
10
0.1076581102362205
20
0.0391585039370079
11
0.1073917322834646
21
0.0394248818897638
0
LINE
8
BLACK
6
CONTINUOUS
10
0.1073917322834646
20
0.0394248818897638
11
0.1071874803149606
21
0.0398628346456693
0
LINE
8
BLACK
6
CONTINUOUS
10
0.1071874803149606
20
0.0398628346456693
11
0.1065049212598425
21
0.0408844094488189
0
LINE
8
BLACK
6
CONTINUOUS
10
0.1065049212598425
20
0.0408844094488189
11
0.1063515354330709
21
0.0416555511811024
0
LINE
8
BLACK
6
CONTINUOUS
10
0.1063515354330709
20
0.0416555511811024
11
0.1062005511811024
21
0.0419793307086614
0
LINE
8
BLACK
6
CONTINUOUS
10
0.1062005511811024
20
0.0419793307086614
11
0.106031062992126
21
0.0432667716535433
0
LINE
8
BLACK
6
CONTINUOUS
10
0.106031062992126
20
0.0432667716535433
11
0.1059055905511811
21
0.0438976771653543
0
LINE
8
BLACK
6
CONTINUOUS
10
0.1059055905511811
20
0.0438976771653543
11
0.1059055511811024
21
0.0442200787401575
0
LINE
8
BLACK
6
CONTINUOUS
10
0.1059055511811024
20
0.0442200787401575
11
0.1059055511811024
21
0.0442203543307087
0
LINE
8
BLACK
6
CONTINUOUS
10
0.1059055511811024
20
0.0442203543307087
11
0.1059055511811024
21
0.0986930708661417
0
LINE
8
BLACK
6
CONTINUOUS
10
0.1059055511811024
20
0.0986930708661417
11
0.1059055511811024
21
0.0986931102362205
0
LINE
8
BLACK
6
CONTINUOUS
10
0.1059055511811024
20
0.0986931102362205
11
0.1059055511811024
21
0.0990157480314961
0
LINE
8
BLACK
6
CONTINUOUS
10
0.1059055511811024
20
0.0990157480314961
11
0.1060311023622047
21
0.099647125984252
0
LINE
8
BLACK
6
CONTINUOUS
10
0.1060311023622047
20
0.099647125984252
11
0.1062005511811024
21
0.100934094488189
0
LINE
8
BLACK
6
CONTINUOUS
10
0.1062005511811024
20
0.100934094488189
11
0.1063515354330709
21
0.1012579133858268
0
LINE
8
BLACK
6
CONTINUOUS
10
0.1063515354330709
20
0.1012579133858268
11
0.1065049212598425
21
0.1020289763779528
0
LINE
8
BLACK
6
CONTINUOUS
10
0.1065049212598425
20
0.1020289763779528
11
0.1071874409448819
21
0.1030505118110236
0
LINE
8
BLACK
6
CONTINUOUS
10
0.1071874409448819
20
0.1030505118110236
11
0.1073917322834646
21
0.1034885433070866
0
LINE
8
BLACK
6
CONTINUOUS
10
0.1073917322834646
20
0.1034885433070866
11
0.107658188976378
21
0.1037550393700787
0
LINE
8
BLACK
6
CONTINUOUS
10
0.107658188976378
20
0.1037550393700787
11
0.1082117716535433
21
0.1045835039370079
0
LINE
8
BLACK
6
CONTINUOUS
10
0.1082117716535433
20
0.1045835039370079
11
0.1090402362204724
21
0.1051370866141732
0
LINE
8
BLACK
6
CONTINUOUS
10
0.1090402362204724
20
0.1051370866141732
11
0.1093067322834646
21
0.1054035433070866
0
LINE
8
BLACK
6
CONTINUOUS
10
0.1093067322834646
20
0.1054035433070866
11
0.1097447637795276
21
0.1056078346456693
0
LINE
8
BLACK
6
CONTINUOUS
10
0.1097447637795276
20
0.1056078346456693
11
0.1107662992125984
21
0.1062903543307087
0
LINE
8
BLACK
6
CONTINUOUS
10
0.1107662992125984
20
0.1062903543307087
11
0.1115373228346457
21
0.1064437401574803
0
LINE
8
BLACK
6
CONTINUOUS
10
0.1115373228346457
20
0.1064437401574803
11
0.1118611811023622
21
0.1065947244094488
0
LINE
8
BLACK
6
CONTINUOUS
10
0.1118611811023622
20
0.1065947244094488
11
0.1131487007874016
21
0.1067642125984252
0
LINE
8
BLACK
6
CONTINUOUS
10
0.1131487007874016
20
0.1067642125984252
11
0.1137795669291339
21
0.1068896850393701
0
LINE
8
BLACK
6
CONTINUOUS
10
0.1137795669291339
20
0.1068896850393701
11
0.1141018897637795
21
0.1068897244094488
0
LINE
8
BLACK
6
CONTINUOUS
10
0.1141018897637795
20
0.1068897244094488
11
0.1141022047244094
21
0.1068897244094488
0
LINE
8
BLACK
6
CONTINUOUS
10
0.1141022047244094
20
0.1068897244094488
11
0.1433781102362205
21
0.1068897244094488
0
LINE
8
BLACK
6
CONTINUOUS
10
0.1433781102362205
20
0.1068897244094488
11
0.1437007874015748
21
0.1068897244094488
0
LINE
8
BLACK
6
CONTINUOUS
10
0.1437007874015748
20
0.1068897244094488
11
0.1443321653543307
21
0.1067641338582677
0
LINE
8
BLACK
6
CONTINUOUS
10
0.3274252362204724
20
0.1559073622047244
11
0.3295032283464567
21
0.1559073622047244
0
LINE
8
BLACK
6
CONTINUOUS
10
0.3295032283464567
20
0.1559073622047244
11
0.3317934251968504
21
0.1555251968503937
0
LINE
8
BLACK
6
CONTINUOUS
10
0.3317934251968504
20
0.1555251968503937
11
0.3342552755905512
21
0.1553098031496063
0
LINE
8
BLACK
6
CONTINUOUS
10
0.3342552755905512
20
0.1553098031496063
11
0.336188779527559
21
0.1547917322834646
0
LINE
8
BLACK
6
CONTINUOUS
10
0.336188779527559
20
0.1547917322834646
11
0.3379985433070866
21
0.1544897244094488
0
LINE
8
BLACK
6
CONTINUOUS
10
0.3379985433070866
20
0.1544897244094488
11
0.3404260236220472
21
0.1536563779527559
0
LINE
8
BLACK
6
CONTINUOUS
10
0.3404260236220472
20
0.1536563779527559
11
0.3430384251968504
21
0.1529563779527559
0
LINE
8
BLACK
6
CONTINUOUS
10
0.3430384251968504
20
0.1529563779527559
11
0.3446388188976378
21
0.1522101181102362
0
LINE
8
BLACK
6
CONTINUOUS
10
0.3446388188976378
20
0.1522101181102362
11
0.3461446456692913
21
0.1516931496062992
0
LINE
8
BLACK
6
CONTINUOUS
10
0.3461446456692913
20
0.1516931496062992
11
0.348618779527559
21
0.1503542519685039
0
LINE
8
BLACK
6
CONTINUOUS
10
0.348618779527559
20
0.1503542519685039
11
0.3512795275590551
21
0.1491135039370079
0
LINE
8
BLACK
6
CONTINUOUS
10
0.3512795275590551
20
0.1491135039370079
11
0.3525319291338583
21
0.1482365748031496
0
LINE
8
BLACK
6
CONTINUOUS
10
0.3525319291338583
20
0.1482365748031496
11
0.353719251968504
21
0.1475940157480315
0
LINE
8
BLACK
6
CONTINUOUS
10
0.353719251968504
20
0.1475940157480315
11
0.3561363385826772
21
0.1457127165354331
0
LINE
8
BLACK
6
CONTINUOUS
10
0.3561363385826772
20
0.1457127165354331
11
0.3587280708661417
21
0.1438979527559055
0
LINE
8
BLACK
6
CONTINUOUS
10
0.3587280708661417
20
0.1438979527559055
11
0.3596414960629921
21
0.1429845275590551
0
LINE
8
BLACK
6
CONTINUOUS
10
0.3596414960629921
20
0.1429845275590551
11
0.360516062992126
21
0.1423038188976378
0
LINE
8
BLACK
6
CONTINUOUS
10
0.360516062992126
20
0.1423038188976378
11
0.3627626377952756
21
0.1398633858267717
0
LINE
8
BLACK
6
CONTINUOUS
10
0.3627626377952756
20
0.1398633858267717
11
0.3651577952755906
21
0.1374682283464567
0
LINE
8
BLACK
6
CONTINUOUS
10
0.3651577952755906
20
0.1374682283464567
11
0.3657623622047244
21
0.136604842519685
0
LINE
8
BLACK
6
CONTINUOUS
10
0.3657623622047244
20
0.136604842519685
11
0.3663492519685039
21
0.1359672834645669
0
LINE
8
BLACK
6
CONTINUOUS
10
0.3663492519685039
20
0.1359672834645669
11
0.3683072834645669
21
0.1329702755905512
0
LINE
8
BLACK
6
CONTINUOUS
10
0.3683072834645669
20
0.1329702755905512
11
0.3703733464566929
21
0.1300196456692913
0
LINE
8
BLACK
6
CONTINUOUS
10
0.3703733464566929
20
0.1300196456692913
11
0.3707181889763779
21
0.129280157480315
0
LINE
8
BLACK
6
CONTINUOUS
10
0.3707181889763779
20
0.129280157480315
11
0.3710599606299212
21
0.1287570078740158
0
LINE
8
BLACK
6
CONTINUOUS
10
0.3710599606299212
20
0.1287570078740158
11
0.3726112992125984
21
0.1252203543307087
0
LINE
8
BLACK
6
CONTINUOUS
10
0.3726112992125984
20
0.1252203543307087
11
0.374216220472441
21
0.1217785826771653
0
LINE
8
BLACK
6
CONTINUOUS
10
0.374216220472441
20
0.1217785826771653
11
0.3743656692913386
21
0.1212208267716535
0
LINE
8
BLACK
6
CONTINUOUS
10
0.3743656692913386
20
0.1212208267716535
11
0.3745197637795276
21
0.1208695275590551
0
LINE
8
BLACK
6
CONTINUOUS
10
0.3745197637795276
20
0.1208695275590551
11
0.3755517322834646
21
0.1167942913385827
0
LINE
8
BLACK
6
CONTINUOUS
10
0.3755517322834646
20
0.1167942913385827
11
0.3765696456692914
21
0.1129954330708661
0
LINE
8
BLACK
6
CONTINUOUS
10
0.3765696456692914
20
0.1129954330708661
11
0.3765991338582677
21
0.112658188976378
0
LINE
8
BLACK
6
CONTINUOUS
10
0.3765991338582677
20
0.112658188976378
11
0.3766340551181102
21
0.1125203543307087
0
LINE
8
BLACK
6
CONTINUOUS
10
0.3766340551181102
20
0.1125203543307087
11
0.3770429527559055
21
0.1075855118110236
0
LINE
8
BLACK
6
CONTINUOUS
10
0.3770429527559055
20
0.1075855118110236
11
0.3773621653543307
21
0.1039370078740157
0
LINE
8
BLACK
6
CONTINUOUS
10
0.3773621653543307
20
0.1039370078740157
11
0.3770429133858267
21
0.1002882677165354
0
LINE
8
BLACK
6
CONTINUOUS
10
0.3770429133858267
20
0.1002882677165354
11
0.3766340551181102
21
0.0953537007874016
0
LINE
8
BLACK
6
CONTINUOUS
10
0.3766340551181102
20
0.0953537007874016
11
0.3765991338582677
21
0.095215905511811
0
LINE
8
BLACK
6
CONTINUOUS
10
0.3765991338582677
20
0.095215905511811
11
0.3765696456692914
21
0.0948785826771654
0
LINE
8
BLACK
6
CONTINUOUS
10
0.3765696456692914
20
0.0948785826771654
11
0.3755515748031496
21
0.091079094488189
0
LINE
8
BLACK
6
CONTINUOUS
10
0.3755515748031496
20
0.091079094488189
11
0.3745197637795276
21
0.0870045275590551
0
LINE
8
BLACK
6
CONTINUOUS
10
0.3745197637795276
20
0.0870045275590551
11
0.3743656692913386
21
0.0866533070866142
0
LINE
8
BLACK
6
CONTINUOUS
10
0.3743656692913386
20
0.0866533070866142
11
0.374216220472441
21
0.0860954330708661
0
LINE
8
BLACK
6
CONTINUOUS
10
0.374216220472441
20
0.0860954330708661
11
0.3726108661417323
21
0.0826528346456693
0
LINE
8
BLACK
6
CONTINUOUS
10
0.3726108661417323
20
0.0826528346456693
11
0.3710599606299212
21
0.0791170472440945
0
LINE
8
BLACK
6
CONTINUOUS
10
0.3710599606299212
20
0.0791170472440945
11
0.3707183070866142
21
0.0785941338582677
0
LINE
8
BLACK
6
CONTINUOUS
10
0.3707183070866142
20
0.0785941338582677
11
0.3703733464566929
21
0.0778543307086614
0
LINE
8
BLACK
6
CONTINUOUS
10
0.3703733464566929
20
0.0778543307086614
11
0.3683066535433071
21
0.074902874015748
0
LINE
8
BLACK
6
CONTINUOUS
10
0.3683066535433071
20
0.074902874015748
11
0.3663492519685039
21
0.0719067716535433
0
LINE
8
BLACK
6
CONTINUOUS
10
0.3663492519685039
20
0.0719067716535433
11
0.3657624803149606
21
0.0712694094488189
0
LINE
8
BLACK
6
CONTINUOUS
10
0.3657624803149606
20
0.0712694094488189
11
0.3651577952755906
21
0.0704057874015748
0
LINE
8
BLACK
6
CONTINUOUS
10
0.3651577952755906
20
0.0704057874015748
11
0.3627621653543307
21
0.0680101968503937
0
LINE
8
BLACK
6
CONTINUOUS
10
0.3627621653543307
20
0.0680101968503937
11
0.360516062992126
21
0.0655702362204724
0
LINE
8
BLACK
6
CONTINUOUS
10
0.360516062992126
20
0.0655702362204724
11
0.3596416535433071
21
0.0648896850393701
0
LINE
8
BLACK
6
CONTINUOUS
10
0.3596416535433071
20
0.0648896850393701
11
0.3587280708661417
21
0.063976062992126
0
LINE
8
BLACK
6
CONTINUOUS
10
0.3587280708661417
20
0.063976062992126
11
0.3561358267716535
21
0.0621609842519685
0
LINE
8
BLACK
6
CONTINUOUS
10
0.3561358267716535
20
0.0621609842519685
11
0.353719251968504
21
0.0602800393700787
0
LINE
8
BLACK
6
CONTINUOUS
10
0.353719251968504
20
0.0602800393700787
11
0.3525321653543307
21
0.0596376771653543
0
LINE
8
BLACK
6
CONTINUOUS
10
0.3525321653543307
20
0.0596376771653543
11
0.3512795275590551
21
0.0587605118110236
0
LINE
8
BLACK
6
CONTINUOUS
10
0.3512795275590551
20
0.0587605118110236
11
0.3486182677165354
21
0.0575195669291339
0
LINE
8
BLACK
6
CONTINUOUS
10
0.3486182677165354
20
0.0575195669291339
11
0.3461446456692913
21
0.056180905511811
0
LINE
8
BLACK
6
CONTINUOUS
10
0.3461446456692913
20
0.056180905511811
11
0.3446391338582677
21
0.055664094488189
0
LINE
8
BLACK
6
CONTINUOUS
10
0.3446391338582677
20
0.055664094488189
11
0.3430384251968504
21
0.0549176377952756
0
LINE
8
BLACK
6
CONTINUOUS
10
0.3430384251968504
20
0.0549176377952756
11
0.3404254724409449
21
0.0542175196850394
0
LINE
8
BLACK
6
CONTINUOUS
10
0.3404254724409449
20
0.0542175196850394
11
0.3379985433070866
21
0.0533843307086614
0
LINE
8
BLACK
6
CONTINUOUS
10
0.3379985433070866
20
0.0533843307086614
11
0.3361890551181102
21
0.0530824015748032
0
LINE
8
BLACK
6
CONTINUOUS
10
0.3361890551181102
20
0.0530824015748032
11
0.3342552755905512
21
0.0525642125984252
0
LINE
8
BLACK
6
CONTINUOUS
10
0.3342552755905512
20
0.0525642125984252
11
0.3317932677165354
21
0.0523488188976378
0
LINE
8
BLACK
6
CONTINUOUS
10
0.3317932677165354
20
0.0523488188976378
11
0.3295032283464567
21
0.0519666535433071
0
LINE
8
BLACK
6
CONTINUOUS
10
0.3295032283464567
20
0.0519666535433071
11
0.3274252362204724
21
0.0519666535433071
0
LINE
8
BLACK
6
CONTINUOUS
10
0.3274252362204724
20
0.0519666535433071
11
0.3251968503937008
21
0.0517716929133858
0
LINE
8
BLACK
6
CONTINUOUS
10
0.3251968503937008
20
0.0517716929133858
11
0.3229684645669291
21
0.0519666535433071
0
LINE
8
BLACK
6
CONTINUOUS
10
0.3229684645669291
20
0.0519666535433071
11
0.3208904724409449
21
0.0519666535433071
0
LINE
8
BLACK
6
CONTINUOUS
10
0.3208904724409449
20
0.0519666535433071
11
0.3186003543307087
21
0.0523488188976378
0
LINE
8
BLACK
6
CONTINUOUS
10
0.3186003543307087
20
0.0523488188976378
11
0.3161384251968504
21
0.0525642125984252
0
LINE
8
BLACK
6
CONTINUOUS
10
0.3161384251968504
20
0.0525642125984252
11
0.3142046456692913
21
0.0530823622047244
0
LINE
8
BLACK
6
CONTINUOUS
10
0.3142046456692913
20
0.0530823622047244
11
0.3123951181102362
21
0.0533843307086614
0
LINE
8
BLACK
6
CONTINUOUS
10
0.3123951181102362
20
0.0533843307086614
11
0.3099679921259842
21
0.0542175590551181
0
LINE
8
BLACK
6
CONTINUOUS
10
0.3099679921259842
20
0.0542175590551181
11
0.3073552755905511
21
0.0549176377952756
0
LINE
8
BLACK
6
CONTINUOUS
10
0.3073552755905511
20
0.0549176377952756
11
0.3057546456692913
21
0.0556640157480315
0
LINE
8
BLACK
6
CONTINUOUS
10
0.3057546456692913
20
0.0556640157480315
11
0.3042490157480315
21
0.056180905511811
0
LINE
8
BLACK
6
CONTINUOUS
10
0.3042490157480315
20
0.056180905511811
11
0.3017751181102362
21
0.0575197244094488
0
LINE
8
BLACK
6
CONTINUOUS
10
0.3017751181102362
20
0.0575197244094488
11
0.2991141732283464
21
0.0587605118110236
0
LINE
8
BLACK
6
CONTINUOUS
10
0.2991141732283464
20
0.0587605118110236
11
0.2978616141732283
21
0.0596375590551181
0
LINE
8
BLACK
6
CONTINUOUS
10
0.2978616141732283
20
0.0596375590551181
11
0.2966744094488189
21
0.0602800393700787
0
LINE
8
BLACK
6
CONTINUOUS
10
0.2966744094488189
20
0.0602800393700787
11
0.2942574409448819
21
0.0621612598425197
0
LINE
8
BLACK
6
CONTINUOUS
10
0.2942574409448819
20
0.0621612598425197
11
0.2916656299212598
21
0.063976062992126
0
LINE
8
BLACK
6
CONTINUOUS
10
0.2916656299212598
20
0.063976062992126
11
0.290752125984252
21
0.0648895669291339
0
LINE
8
BLACK
6
CONTINUOUS
10
0.290752125984252
20
0.0648895669291339
11
0.2898775984251968
21
0.0655702362204724
0
LINE
8
BLACK
6
CONTINUOUS
10
0.2898775984251968
20
0.0655702362204724
11
0.2876309842519685
21
0.0680107086614173
0
LINE
8
BLACK
6
CONTINUOUS
10
0.2876309842519685
20
0.0680107086614173
11
0.285235905511811
21
0.0704057874015748
0
LINE
8
BLACK
6
CONTINUOUS
10
0.285235905511811
20
0.0704057874015748
11
0.2846312992125984
21
0.0712692125984252
0
LINE
8
BLACK
6
CONTINUOUS
10
0.2846312992125984
20
0.0712692125984252
11
0.2840444094488189
21
0.0719067716535433
0
LINE
8
BLACK
6
CONTINUOUS
10
0.2840444094488189
20
0.0719067716535433
11
0.2820864173228346
21
0.0749037007874016
0
LINE
8
BLACK
6
CONTINUOUS
10
0.2820864173228346
20
0.0749037007874016
11
0.2800203543307087
21
0.0778543307086614
0
LINE
8
BLACK
6
CONTINUOUS
10
0.2800203543307087
20
0.0778543307086614
11
0.2796754724409449
21
0.078593937007874
0
LINE
8
BLACK
6
CONTINUOUS
10
0.2796754724409449
20
0.078593937007874
11
0.2793337007874016
21
0.0791170472440945
0
LINE
8
BLACK
6
CONTINUOUS
10
0.2793337007874016
20
0.0791170472440945
11
0.2777821259842519
21
0.0826542519685039
0
LINE
8
BLACK
6
CONTINUOUS
10
0.2777821259842519
20
0.0826542519685039
11
0.2761774803149606
21
0.0860954330708661
0
LINE
8
BLACK
6
CONTINUOUS
10
0.2761774803149606
20
0.0860954330708661
11
0.276028031496063
21
0.0866530708661417
0
LINE
8
BLACK
6
CONTINUOUS
10
0.276028031496063
20
0.0866530708661417
11
0.2758738976377953
21
0.0870045275590551
0
LINE
8
BLACK
6
CONTINUOUS
10
0.2758738976377953
20
0.0870045275590551
11
0.2748413779527559
21
0.0910817716535433
0
LINE
8
BLACK
6
CONTINUOUS
10
0.2748413779527559
20
0.0910817716535433
11
0.2738240551181103
21
0.0948785826771654
0
LINE
8
BLACK
6
CONTINUOUS
10
0.2738240551181103
20
0.0948785826771654
11
0.2737945275590551
21
0.0952156692913386
0
LINE
8
BLACK
6
CONTINUOUS
10
0.2737945275590551
20
0.0952156692913386
11
0.2737596062992126
21
0.0953537007874016
0
LINE
8
BLACK
6
CONTINUOUS
10
0.2737596062992126
20
0.0953537007874016
11
0.27335
21
0.1002967716535433
0
LINE
8
BLACK
6
CONTINUOUS
10
0.27335
20
0.1002967716535433
11
0.2730315354330708
21
0.1039370078740157
0
LINE
8
BLACK
6
CONTINUOUS
10
0.2730315354330708
20
0.1039370078740157
11
0.2733499606299212
21
0.1075770078740158
0
LINE
8
BLACK
6
CONTINUOUS
10
0.2733499606299212
20
0.1075770078740158
11
0.2737596062992126
21
0.1125203543307087
0
LINE
8
BLACK
6
CONTINUOUS
10
0.2737596062992126
20
0.1125203543307087
11
0.2737945669291338
21
0.1126584251968504
0
LINE
8
BLACK
6
CONTINUOUS
10
0.2737945669291338
20
0.1126584251968504
11
0.2738240551181103
21
0.1129954330708661
0
LINE
8
BLACK
6
CONTINUOUS
10
0.2738240551181103
20
0.1129954330708661
11
0.2748412204724409
21
0.1167916141732284
0
LINE
8
BLACK
6
CONTINUOUS
10
0.2748412204724409
20
0.1167916141732284
11
0.2758738976377953
21
0.1208695275590551
0
LINE
8
BLACK
6
CONTINUOUS
10
0.2758738976377953
20
0.1208695275590551
11
0.2760280708661417
21
0.121221062992126
0
LINE
8
BLACK
6
CONTINUOUS
10
0.2760280708661417
20
0.121221062992126
11
0.2761774803149606
21
0.1217785826771653
0
LINE
8
BLACK
6
CONTINUOUS
10
0.2761774803149606
20
0.1217785826771653
11
0.2777816929133858
21
0.1252188976377953
0
LINE
8
BLACK
6
CONTINUOUS
10
0.2777816929133858
20
0.1252188976377953
11
0.2793337007874016
21
0.1287570078740158
0
LINE
8
BLACK
6
CONTINUOUS
10
0.2793337007874016
20
0.1287570078740158
11
0.2796755905511811
21
0.1292803543307087
0
LINE
8
BLACK
6
CONTINUOUS
10
0.2796755905511811
20
0.1292803543307087
11
0.2800203543307087
21
0.1300196456692913
0
LINE
8
BLACK
6
CONTINUOUS
10
0.2800203543307087
20
0.1300196456692913
11
0.2820857874015748
21
0.1329694488188976
0
LINE
8
BLACK
6
CONTINUOUS
10
0.2820857874015748
20
0.1329694488188976
11
0.2840444094488189
21
0.1359672834645669
0
LINE
8
BLACK
6
CONTINUOUS
10
0.2840444094488189
20
0.1359672834645669
11
0.2846314566929134
21
0.136605
0
LINE
8
BLACK
6
CONTINUOUS
10
0.2846314566929134
20
0.136605
11
0.285235905511811
21
0.1374682283464567
0
LINE
8
BLACK
6
CONTINUOUS
10
0.285235905511811
20
0.1374682283464567
11
0.2876305511811024
21
0.1398629133858268
0
LINE
8
BLACK
6
CONTINUOUS
10
0.2876305511811024
20
0.1398629133858268
11
0.2898775984251968
21
0.1423038188976378
0
LINE
8
BLACK
6
CONTINUOUS
10
0.2898775984251968
20
0.1423038188976378
11
0.2907523228346456
21
0.1429846850393701
0
LINE
8
BLACK
6
CONTINUOUS
10
0.2907523228346456
20
0.1429846850393701
11
0.2916656299212598
21
0.1438979527559055
0
LINE
8
BLACK
6
CONTINUOUS
10
0.2916656299212598
20
0.1438979527559055
11
0.2942568110236221
21
0.1457123622047244
0
LINE
8
BLACK
6
CONTINUOUS
10
0.2942568110236221
20
0.1457123622047244
11
0.2966744094488189
21
0.1475940157480315
0
LINE
8
BLACK
6
CONTINUOUS
10
0.2966744094488189
20
0.1475940157480315
11
0.2978620078740157
21
0.1482367322834646
0
LINE
8
BLACK
6
CONTINUOUS
10
0.2978620078740157
20
0.1482367322834646
11
0.2991142125984252
21
0.1491135039370079
0
LINE
8
BLACK
6
CONTINUOUS
10
0.2991142125984252
20
0.1491135039370079
11
0.3017744488188976
21
0.1503540157480315
0
LINE
8
BLACK
6
CONTINUOUS
10
0.3017744488188976
20
0.1503540157480315
11
0.3042490157480315
21
0.1516931496062992
0
LINE
8
BLACK
6
CONTINUOUS
10
0.3042490157480315
20
0.1516931496062992
11
0.305755
21
0.1522101968503937
0
LINE
8
BLACK
6
CONTINUOUS
10
0.305755
20
0.1522101968503937
11
0.3073552755905511
21
0.1529563779527559
0
LINE
8
BLACK
6
CONTINUOUS
10
0.3073552755905511
20
0.1529563779527559
11
0.3099674803149606
21
0.1536563385826772
0
LINE
8
BLACK
6
CONTINUOUS
10
0.3099674803149606
20
0.1536563385826772
11
0.3123951181102362
21
0.1544897244094488
0
LINE
8
BLACK
6
CONTINUOUS
10
0.3123951181102362
20
0.1544897244094488
11
0.3142049606299213
21
0.1547917716535433
0
LINE
8
BLACK
6
CONTINUOUS
10
0.3142049606299213
20
0.1547917716535433
11
0.3161384251968504
21
0.1553098031496063
0
LINE
8
BLACK
6
CONTINUOUS
10
0.3161384251968504
20
0.1553098031496063
11
0.3186002362204725
21
0.1555251968503937
0
LINE
8
BLACK
6
CONTINUOUS
10
0.3186002362204725
20
0.1555251968503937
11
0.3208904724409449
21
0.1559073622047244
0
LINE
8
BLACK
6
CONTINUOUS
10
0.3208904724409449
20
0.1559073622047244
11
0.3229684645669291
21
0.1559073622047244
0
LINE
8
BLACK
6
CONTINUOUS
10
0.3229684645669291
20
0.1559073622047244
11
0.3251968503937008
21
0.1561023228346457
0
LINE
8
BLACK
6
CONTINUOUS
10
0.3251968503937008
20
0.1561023228346457
11
0.3274252362204724
21
0.1559073622047244
0
LINE
8
BLACK
6
CONTINUOUS
10
0.5274252362204724
20
0.1559073622047244
11
0.5295032283464567
21
0.1559073622047244
0
LINE
8
BLACK
6
CONTINUOUS
10
0.5295032283464567
20
0.1559073622047244
11
0.5317934251968504
21
0.1555251968503937
0
LINE
8
BLACK
6
CONTINUOUS
10
0.5317934251968504
20
0.1555251968503937
11
0.5342552755905512
21
0.1553098031496063
0
LINE
8
BLACK
6
CONTINUOUS
10
0.5342552755905512
20
0.1553098031496063
11
0.5361887795275591
21
0.1547917322834646
0
LINE
8
BLACK
6
CONTINUOUS
10
0.5361887795275591
20
0.1547917322834646
11
0.5379985433070866
21
0.1544897244094488
0
LINE
8
BLACK
6
CONTINUOUS
10
0.5379985433070866
20
0.1544897244094488
11
0.5404260236220473
21
0.1536563779527559
0
LINE
8
BLACK
6
CONTINUOUS
10
0.5404260236220473
20
0.1536563779527559
11
0.5430384251968504
21
0.1529563779527559
0
LINE
8
BLACK
6
CONTINUOUS
10
0.5430384251968504
20
0.1529563779527559
11
0.5446388188976378
21
0.1522101181102362
0
LINE
8
BLACK
6
CONTINUOUS
10
0.5446388188976378
20
0.1522101181102362
11
0.5461446456692913
21
0.1516931496062992
0
LINE
8
BLACK
6
CONTINUOUS
10
0.5461446456692913
20
0.1516931496062992
11
0.548618779527559
21
0.1503542519685039
0
LINE
8
BLACK
6
CONTINUOUS
10
0.548618779527559
20
0.1503542519685039
11
0.5512795275590551
21
0.1491135039370079
0
LINE
8
BLACK
6
CONTINUOUS
10
0.5512795275590551
20
0.1491135039370079
11
0.5525319291338583
21
0.1482365748031496
0
LINE
8
BLACK
6
CONTINUOUS
10
0.5525319291338583
20
0.1482365748031496
11
0.5537192519685039
21
0.1475940157480315
0
LINE
8
BLACK
6
CONTINUOUS
10
0.5537192519685039
20
0.1475940157480315
11
0.5561363385826772
21
0.1457127165354331
0
LINE
8
BLACK
6
CONTINUOUS
10
0.5561363385826772
20
0.1457127165354331
11
0.5587280708661417
21
0.1438979527559055
0
LINE
8
BLACK
6
CONTINUOUS
10
0.5587280708661417
20
0.1438979527559055
11
0.5596414960629921
21
0.1429845275590551
0
LINE
8
BLACK
6
CONTINUOUS
10
0.5596414960629921
20
0.1429845275590551
11
0.560516062992126
21
0.1423038188976378
0
LINE
8
BLACK
6
CONTINUOUS
10
0.560516062992126
20
0.1423038188976378
11
0.5627626377952756
21
0.1398633858267717
0
LINE
8
BLACK
6
CONTINUOUS
10
0.5627626377952756
20
0.1398633858267717
11
0.5651577952755905
21
0.1374682283464567
0
LINE
8
BLACK
6
CONTINUOUS
10
0.5651577952755905
20
0.1374682283464567
11
0.5657623622047244
21
0.136604842519685
0
LINE
8
BLACK
6
CONTINUOUS
10
0.5657623622047244
20
0.136604842519685
11
0.5663492519685039
21
0.1359672834645669
0
LINE
8
BLACK
6
CONTINUOUS
10
0.5663492519685039
20
0.1359672834645669
11
0.5683072834645669
21
0.1329702755905512
0
LINE
8
BLACK
6
CONTINUOUS
10
0.5683072834645669
20
0.1329702755905512
11
0.5703733464566929
21
0.1300196456692913
0
LINE
8
BLACK
6
CONTINUOUS
10
0.5703733464566929
20
0.1300196456692913
11
0.5707181889763779
21
0.129280157480315
0
LINE
8
BLACK
6
CONTINUOUS
10
0.5707181889763779
20
0.129280157480315
11
0.5710599606299213
21
0.1287570078740158
0
LINE
8
BLACK
6
CONTINUOUS
10
0.5710599606299213
20
0.1287570078740158
11
0.5726112992125985
21
0.1252203543307087
0
LINE
8
BLACK
6
CONTINUOUS
10
0.5726112992125985
20
0.1252203543307087
11
0.5742162204724409
21
0.1217785826771653
0
LINE
8
BLACK
6
CONTINUOUS
10
0.5742162204724409
20
0.1217785826771653
11
0.5743656692913386
21
0.1212208267716535
0
LINE
8
BLACK
6
CONTINUOUS
10
0.5743656692913386
20
0.1212208267716535
11
0.5745197637795275
21
0.1208695275590551
0
LINE
8
BLACK
6
CONTINUOUS
10
0.5745197637795275
20
0.1208695275590551
11
0.5755517322834646
21
0.1167942913385827
0
LINE
8
BLACK
6
CONTINUOUS
10
0.5755517322834646
20
0.1167942913385827
11
0.5765696456692914
21
0.1129954330708661
0
LINE
8
BLACK
6
CONTINUOUS
10
0.5765696456692914
20
0.1129954330708661
11
0.5765991338582677
21
0.112658188976378
0
LINE
8
BLACK
6
CONTINUOUS
10
0.5765991338582677
20
0.112658188976378
11
0.5766340551181103
21
0.1125203543307087
0
LINE
8
BLACK
6
CONTINUOUS
10
0.5766340551181103
20
0.1125203543307087
11
0.5770429527559054
21
0.1075855118110236
0
LINE
8
BLACK
6
CONTINUOUS
10
0.5770429527559054
20
0.1075855118110236
11
0.5773621653543307
21
0.1039370078740157
0
LINE
8
BLACK
6
CONTINUOUS
10
0.5773621653543307
20
0.1039370078740157
11
0.5770429133858268
21
0.1002882677165354
0
LINE
8
BLACK
6
CONTINUOUS
10
0.5770429133858268
20
0.1002882677165354
11
0.5766340551181103
21
0.0953537007874016
0
LINE
8
BLACK
6
CONTINUOUS
10
0.5766340551181103
20
0.0953537007874016
11
0.5765991338582677
21
0.095215905511811
0
LINE
8
BLACK
6
CONTINUOUS
10
0.5765991338582677
20
0.095215905511811
11
0.5765696456692914
21
0.0948785826771654
0
LINE
8
BLACK
6
CONTINUOUS
10
0.5765696456692914
20
0.0948785826771654
11
0.5755515748031496
21
0.091079094488189
0
LINE
8
BLACK
6
CONTINUOUS
10
0.5755515748031496
20
0.091079094488189
11
0.5745197637795275
21
0.0870045275590551
0
LINE
8
BLACK
6
CONTINUOUS
10
0.5745197637795275
20
0.0870045275590551
11
0.5743656692913386
21
0.0866533070866142
0
LINE
8
BLACK
6
CONTINUOUS
10
0.5743656692913386
20
0.0866533070866142
11
0.5742162204724409
21
0.0860954330708661
0
LINE
8
BLACK
6
CONTINUOUS
10
0.5742162204724409
20
0.0860954330708661
11
0.5726108661417323
21
0.0826528346456693
0
LINE
8
BLACK
6
CONTINUOUS
10
0.5726108661417323
20
0.0826528346456693
11
0.5710599606299213
21
0.0791170472440945
0
LINE
8
BLACK
6
CONTINUOUS
10
0.5710599606299213
20
0.0791170472440945
11
0.5707183070866142
21
0.0785941338582677
0
LINE
8
BLACK
6
CONTINUOUS
10
0.5707183070866142
20
0.0785941338582677
11
0.5703733464566929
21
0.0778543307086614
0
LINE
8
BLACK
6
CONTINUOUS
10
0.5703733464566929
20
0.0778543307086614
11
0.5683066535433071
21
0.074902874015748
0
LINE
8
BLACK
6
CONTINUOUS
10
0.5683066535433071
20
0.074902874015748
11
0.5663492519685039
21
0.0719067716535433
0
LINE
8
BLACK
6
CONTINUOUS
10
0.5663492519685039
20
0.0719067716535433
11
0.5657624803149606
21
0.0712694094488189
0
LINE
8
BLACK
6
CONTINUOUS
10
0.5657624803149606
20
0.0712694094488189
11
0.5651577952755905
21
0.0704057874015748
0
LINE
8
BLACK
6
CONTINUOUS
10
0.5651577952755905
20
0.0704057874015748
11
0.5627621653543307
21
0.0680101968503937
0
LINE
8
BLACK
6
CONTINUOUS
10
0.5627621653543307
20
0.0680101968503937
11
0.560516062992126
21
0.0655702362204724
0
LINE
8
BLACK
6
CONTINUOUS
10
0.560516062992126
20
0.0655702362204724
11
0.5596416535433071
21
0.0648896850393701
0
LINE
8
BLACK
6
CONTINUOUS
10
0.5596416535433071
20
0.0648896850393701
11
0.5587280708661417
21
0.063976062992126
0
LINE
8
BLACK
6
CONTINUOUS
10
0.5587280708661417
20
0.063976062992126
11
0.5561358267716535
21
0.0621609842519685
0
LINE
8
BLACK
6
CONTINUOUS
10
0.5561358267716535
20
0.0621609842519685
11
0.5537192519685039
21
0.0602800393700787
0
LINE
8
BLACK
6
CONTINUOUS
10
0.5537192519685039
20
0.0602800393700787
11
0.5525321653543307
21
0.0596376771653543
0
LINE
8
BLACK
6
CONTINUOUS
10
0.5525321653543307
20
0.0596376771653543
11
0.5512795275590551
21
0.0587605118110236
0
LINE
8
BLACK
6
CONTINUOUS
10
0.5512795275590551
20
0.0587605118110236
11
0.5486182677165354
21
0.0575195669291339
0
LINE
8
BLACK
6
CONTINUOUS
10
0.5486182677165354
20
0.0575195669291339
11
0.5461446456692913
21
0.056180905511811
0
LINE
8
BLACK
6
CONTINUOUS
10
0.5461446456692913
20
0.056180905511811
11
0.5446391338582677
21
0.055664094488189
0
LINE
8
BLACK
6
CONTINUOUS
10
0.5446391338582677
20
0.055664094488189
11
0.5430384251968504
21
0.0549176377952756
0
LINE
8
BLACK
6
CONTINUOUS
10
0.5430384251968504
20
0.0549176377952756
11
0.5404254724409449
21
0.0542175196850394
0
LINE
8
BLACK
6
CONTINUOUS
10
0.5404254724409449
20
0.0542175196850394
11
0.5379985433070866
21
0.0533843307086614
0
LINE
8
BLACK
6
CONTINUOUS
10
0.5379985433070866
20
0.0533843307086614
11
0.5361890551181102
21
0.0530824015748032
0
LINE
8
BLACK
6
CONTINUOUS
10
0.5361890551181102
20
0.0530824015748032
11
0.5342552755905512
21
0.0525642125984252
0
LINE
8
BLACK
6
CONTINUOUS
10
0.5342552755905512
20
0.0525642125984252
11
0.5317932677165355
21
0.0523488188976378
0
LINE
8
BLACK
6
CONTINUOUS
10
0.5317932677165355
20
0.0523488188976378
11
0.5295032283464567
21
0.0519666535433071
0
LINE
8
BLACK
6
CONTINUOUS
10
0.5295032283464567
20
0.0519666535433071
11
0.5274252362204724
21
0.0519666535433071
0
LINE
8
BLACK
6
CONTINUOUS
10
0.5274252362204724
20
0.0519666535433071
11
0.5251968503937008
21
0.0517716929133858
0
LINE
8
BLACK
6
CONTINUOUS
10
0.5251968503937008
20
0.0517716929133858
11
0.5229684645669291
21
0.0519666535433071
0
LINE
8
BLACK
6
CONTINUOUS
10
0.5229684645669291
20
0.0519666535433071
11
0.5208904724409449
21
0.0519666535433071
0
LINE
8
BLACK
6
CONTINUOUS
10
0.5208904724409449
20
0.0519666535433071
11
0.5186003543307086
21
0.0523488188976378
0
LINE
8
BLACK
6
CONTINUOUS
10
0.5186003543307086
20
0.0523488188976378
11
0.5161384251968504
21
0.0525642125984252
0
LINE
8
BLACK
6
CONTINUOUS
10
0.5161384251968504
20
0.0525642125984252
11
0.5142046456692914
21
0.0530823622047244
0
LINE
8
BLACK
6
CONTINUOUS
10
0.5142046456692914
20
0.0530823622047244
11
0.5123951181102362
21
0.0533843307086614
0
LINE
8
BLACK
6
CONTINUOUS
10
0.5123951181102362
20
0.0533843307086614
11
0.5099679921259842
21
0.0542175590551181
0
LINE
8
BLACK
6
CONTINUOUS
10
0.5099679921259842
20
0.0542175590551181
11
0.5073552755905512
21
0.0549176377952756
0
LINE
8
BLACK
6
CONTINUOUS
10
0.5073552755905512
20
0.0549176377952756
11
0.5057546456692913
21
0.0556640157480315
0
LINE
8
BLACK
6
CONTINUOUS
10
0.5057546456692913
20
0.0556640157480315
11
0.5042490157480315
21
0.056180905511811
0
LINE
8
BLACK
6
CONTINUOUS
10
0.5042490157480315
20
0.056180905511811
11
0.5017751181102362
21
0.0575197244094488
0
LINE
8
BLACK
6
CONTINUOUS
10
0.5017751181102362
20
0.0575197244094488
11
0.4991141732283464
21
0.0587605118110236
0
LINE
8
BLACK
6
CONTINUOUS
10
0.4991141732283464
20
0.0587605118110236
11
0.4978616141732283
21
0.0596375590551181
0
LINE
8
BLACK
6
CONTINUOUS
10
0.4978616141732283
20
0.0596375590551181
11
0.4966744094488189
21
0.0602800393700787
0
LINE
8
BLACK
6
CONTINUOUS
10
0.4966744094488189
20
0.0602800393700787
11
0.4942574409448819
21
0.0621612598425197
0
LINE
8
BLACK
6
CONTINUOUS
10
0.4942574409448819
20
0.0621612598425197
11
0.4916656299212598
21
0.063976062992126
0
LINE
8
BLACK
6
CONTINUOUS
10
0.4916656299212598
20
0.063976062992126
11
0.4907521259842519
21
0.0648895669291339
0
LINE
8
BLACK
6
CONTINUOUS
10
0.4907521259842519
20
0.0648895669291339
11
0.4898775984251968
21
0.0655702362204724
0
LINE
8
BLACK
6
CONTINUOUS
10
0.4898775984251968
20
0.0655702362204724
11
0.4876309842519685
21
0.0680107086614173
0
LINE
8
BLACK
6
CONTINUOUS
10
0.4876309842519685
20
0.0680107086614173
11
0.485235905511811
21
0.0704057874015748
0
LINE
8
BLACK
6
CONTINUOUS
10
0.485235905511811
20
0.0704057874015748
11
0.4846312992125984
21
0.0712692125984252
0
LINE
8
BLACK
6
CONTINUOUS
10
0.4846312992125984
20
0.0712692125984252
11
0.4840444094488189
21
0.0719067716535433
0
LINE
8
BLACK
6
CONTINUOUS
10
0.4840444094488189
20
0.0719067716535433
11
0.4820864173228346
21
0.0749037007874016
0
LINE
8
BLACK
6
CONTINUOUS
10
0.4820864173228346
20
0.0749037007874016
11
0.4800203543307087
21
0.0778543307086614
0
LINE
8
BLACK
6
CONTINUOUS
10
0.4800203543307087
20
0.0778543307086614
11
0.4796754724409449
21
0.078593937007874
0
LINE
8
BLACK
6
CONTINUOUS
10
0.4796754724409449
20
0.078593937007874
11
0.4793337007874016
21
0.0791170472440945
0
LINE
8
BLACK
6
CONTINUOUS
10
0.4793337007874016
20
0.0791170472440945
11
0.477782125984252
21
0.0826542519685039
0
LINE
8
BLACK
6
CONTINUOUS
10
0.477782125984252
20
0.0826542519685039
11
0.4761774803149606
21
0.0860954330708661
0
LINE
8
BLACK
6
CONTINUOUS
10
0.4761774803149606
20
0.0860954330708661
11
0.476028031496063
21
0.0866530708661417
0
LINE
8
BLACK
6
CONTINUOUS
10
0.476028031496063
20
0.0866530708661417
11
0.4758738976377953
21
0.0870045275590551
0
LINE
8
BLACK
6
CONTINUOUS
10
0.4758738976377953
20
0.0870045275590551
11
0.4748413779527559
21
0.0910817716535433
0
LINE
8
BLACK
6
CONTINUOUS
10
0.4748413779527559
20
0.0910817716535433
11
0.4738240551181102
21
0.0948785826771654
0
LINE
8
BLACK
6
CONTINUOUS
10
0.4738240551181102
20
0.0948785826771654
11
0.4737945275590551
21
0.0952156692913386
0
LINE
8
BLACK
6
CONTINUOUS
10
0.4737945275590551
20
0.0952156692913386
11
0.4737596062992126
21
0.0953537007874016
0
LINE
8
BLACK
6
CONTINUOUS
10
0.4737596062992126
20
0.0953537007874016
11
0.47335
21
0.1002967716535433
0
LINE
8
BLACK
6
CONTINUOUS
10
0.47335
20
0.1002967716535433
11
0.4730315354330709
21
0.1039370078740157
0
LINE
8
BLACK
6
CONTINUOUS
10
0.4730315354330709
20
0.1039370078740157
11
0.4733499606299212
21
0.1075770078740158
0
LINE
8
BLACK
6
CONTINUOUS
10
0.4733499606299212
20
0.1075770078740158
11
0.4737596062992126
21
0.1125203543307087
0
LINE
8
BLACK
6
CONTINUOUS
10
0.4737596062992126
20
0.1125203543307087
11
0.4737945669291339
21
0.1126584251968504
0
LINE
8
BLACK
6
CONTINUOUS
10
0.4737945669291339
20
0.1126584251968504
11
0.4738240551181102
21
0.1129954330708661
0
LINE
8
BLACK
6
CONTINUOUS
10
0.4738240551181102
20
0.1129954330708661
11
0.4748412204724409
21
0.1167916141732284
0
LINE
8
BLACK
6
CONTINUOUS
10
0.4748412204724409
20
0.1167916141732284
11
0.4758738976377953
21
0.1208695275590551
0
LINE
8
BLACK
6
CONTINUOUS
10
0.4758738976377953
20
0.1208695275590551
11
0.4760280708661417
21
0.121221062992126
0
LINE
8
BLACK
6
CONTINUOUS
10
0.4760280708661417
20
0.121221062992126
11
0.4761774803149606
21
0.1217785826771653
0
LINE
8
BLACK
6
CONTINUOUS
10
0.4761774803149606
20
0.1217785826771653
11
0.4777816929133858
21
0.1252188976377953
0
LINE
8
BLACK
6
CONTINUOUS
10
0.4777816929133858
20
0.1252188976377953
11
0.4793337007874016
21
0.1287570078740158
0
LINE
8
BLACK
6
CONTINUOUS
10
0.4793337007874016
20
0.1287570078740158
11
0.4796755905511811
21
0.1292803543307087
0
LINE
8
BLACK
6
CONTINUOUS
10
0.4796755905511811
20
0.1292803543307087
11
0.4800203543307087
21
0.1300196456692913
0
LINE
8
BLACK
6
CONTINUOUS
10
0.4800203543307087
20
0.1300196456692913
11
0.4820857874015748
21
0.1329694488188976
0
LINE
8
BLACK
6
CONTINUOUS
10
0.4820857874015748
20
0.1329694488188976
11
0.4840444094488189
21
0.1359672834645669
0
LINE
8
BLACK
6
CONTINUOUS
10
0.4840444094488189
20
0.1359672834645669
11
0.4846314566929134
21
0.136605
0
LINE
8
BLACK
6
CONTINUOUS
10
0.4846314566929134
20
0.136605
11
0.485235905511811
21
0.1374682283464567
0
LINE
8
BLACK
6
CONTINUOUS
10
0.485235905511811
20
0.1374682283464567
11
0.4876305511811024
21
0.1398629133858268
0
LINE
8
BLACK
6
CONTINUOUS
10
0.4876305511811024
20
0.1398629133858268
11
0.4898775984251968
21
0.1423038188976378
0
LINE
8
BLACK
6
CONTINUOUS
10
0.4898775984251968
20
0.1423038188976378
11
0.4907523228346456
21
0.1429846850393701
0
LINE
8
BLACK
6
CONTINUOUS
10
0.4907523228346456
20
0.1429846850393701
11
0.4916656299212598
21
0.1438979527559055
0
LINE
8
BLACK
6
CONTINUOUS
10
0.4916656299212598
20
0.1438979527559055
11
0.494256811023622
21
0.1457123622047244
0
LINE
8
BLACK
6
CONTINUOUS
10
0.494256811023622
20
0.1457123622047244
11
0.4966744094488189
21
0.1475940157480315
0
LINE
8
BLACK
6
CONTINUOUS
10
0.4966744094488189
20
0.1475940157480315
11
0.4978620078740157
21
0.1482367322834646
0
LINE
8
BLACK
6
CONTINUOUS
10
0.4978620078740157
20
0.1482367322834646
11
0.4991142125984252
21
0.1491135039370079
0
LINE
8
BLACK
6
CONTINUOUS
10
0.4991142125984252
20
0.1491135039370079
11
0.5017744488188977
21
0.1503540157480315
0
LINE
8
BLACK
6
CONTINUOUS
10
0.5017744488188977
20
0.1503540157480315
11
0.5042490157480315
21
0.1516931496062992
0
LINE
8
BLACK
6
CONTINUOUS
10
0.5042490157480315
20
0.1516931496062992
11
0.505755
21
0.1522101968503937
0
LINE
8
BLACK
6
CONTINUOUS
10
0.505755
20
0.1522101968503937
11
0.5073552755905512
21
0.1529563779527559
0
LINE
8
BLACK
6
CONTINUOUS
10
0.5073552755905512
20
0.1529563779527559
11
0.5099674803149606
21
0.1536563385826772
0
LINE
8
BLACK
6
CONTINUOUS
10
0.5099674803149606
20
0.1536563385826772
11
0.5123951181102362
21
0.1544897244094488
0
LINE
8
BLACK
6
CONTINUOUS
10
0.5123951181102362
20
0.1544897244094488
11
0.5142049606299213
21
0.1547917716535433
0
LINE
8
BLACK
6
CONTINUOUS
10
0.5142049606299213
20
0.1547917716535433
11
0.5161384251968504
21
0.1553098031496063
0
LINE
8
BLACK
6
CONTINUOUS
10
0.5161384251968504
20
0.1553098031496063
11
0.5186002362204725
21
0.1555251968503937
0
LINE
8
BLACK
6
CONTINUOUS
10
0.5186002362204725
20
0.1555251968503937
11
0.5208904724409449
21
0.1559073622047244
0
LINE
8
BLACK
6
CONTINUOUS
10
0.5208904724409449
20
0.1559073622047244
11
0.5229684645669291
21
0.1559073622047244
0
LINE
8
BLACK
6
CONTINUOUS
10
0.5229684645669291
20
0.1559073622047244
11
0.5251968503937008
21
0.1561023228346457
0
LINE
8
BLACK
6
CONTINUOUS
10
0.5251968503937008
20
0.1561023228346457
11
0.5274252362204724
21
0.1559073622047244
0
LINE
8
BLACK
6
CONTINUOUS
10
-0.3561961811023622
20
0.4782035826771653
11
-0.3477397637795275
21
0.4759376771653543
0
LINE
8
BLACK
6
CONTINUOUS
10
-0.3477397637795275
20
0.4759376771653543
11
-0.3396514566929134
21
0.4725874015748031
0
LINE
8
BLACK
6
CONTINUOUS
10
-0.3396514566929134
20
0.4725874015748031
11
-0.3320696062992126
21
0.46821
0
LINE
8
BLACK
6
CONTINUOUS
10
-0.3320696062992126
20
0.46821
11
-0.3251240157480315
21
0.4628804724409449
0
LINE
8
BLACK
6
CONTINUOUS
10
-0.3251240157480315
20
0.4628804724409449
11
-0.3219274015748032
21
0.4598865354330708
0
LINE
8
BLACK
6
CONTINUOUS
10
-0.3219274015748032
20
0.4598865354330708
11
-0.1270554330708661
21
0.2650145669291338
0
LINE
8
BLACK
6
CONTINUOUS
10
-0.1270554330708661
20
0.2650145669291338
11
-0.1240614960629921
21
0.2618179527559055
0
LINE
8
BLACK
6
CONTINUOUS
10
-0.1240614960629921
20
0.2618179527559055
11
-0.118731968503937
21
0.2548723622047244
0
LINE
8
BLACK
6
CONTINUOUS
10
-0.118731968503937
20
0.2548723622047244
11
-0.1143545669291339
21
0.2472905118110236
0
LINE
8
BLACK
6
CONTINUOUS
10
-0.1143545669291339
20
0.2472905118110236
11
-0.1110042913385827
21
0.2392022047244095
0
LINE
8
BLACK
6
CONTINUOUS
10
-0.1110042913385827
20
0.2392022047244095
11
-0.1087383464566929
21
0.2307457480314961
0
LINE
8
BLACK
6
CONTINUOUS
10
-0.1087383464566929
20
0.2307457480314961
11
-0.1075956692913386
21
0.222065905511811
0
LINE
8
BLACK
6
CONTINUOUS
10
-0.1075956692913386
20
0.222065905511811
11
-0.1075956692913386
21
0.2133111417322835
0
LINE
8
BLACK
6
CONTINUOUS
10
-0.1075956692913386
20
0.2133111417322835
11
-0.1087383464566929
21
0.2046312992125984
0
LINE
8
BLACK
6
CONTINUOUS
10
-0.1087383464566929
20
0.2046312992125984
11
-0.1110042913385827
21
0.1961748818897638
0
LINE
8
BLACK
6
CONTINUOUS
10
-0.1110042913385827
20
0.1961748818897638
11
-0.1143545669291339
21
0.1880865748031496
0
LINE
8
BLACK
6
CONTINUOUS
10
-0.1143545669291339
20
0.1880865748031496
11
-0.118731968503937
21
0.1805047244094488
0
LINE
8
BLACK
6
CONTINUOUS
10
-0.118731968503937
20
0.1805047244094488
11
-0.1240614960629921
21
0.1735591338582677
0
LINE
8
BLACK
6
CONTINUOUS
10
-0.1240614960629921
20
0.1735591338582677
11
-0.1302520472440945
21
0.1673685826771653
0
LINE
8
BLACK
6
CONTINUOUS
10
-0.1302520472440945
20
0.1673685826771653
11
-0.1371976377952756
21
0.1620390551181102
0
LINE
8
BLACK
6
CONTINUOUS
10
-0.1371976377952756
20
0.1620390551181102
11
-0.1447794881889764
21
0.1576616535433071
0
LINE
8
BLACK
6
CONTINUOUS
10
-0.1447794881889764
20
0.1576616535433071
11
-0.1528677952755906
21
0.1543113779527559
0
LINE
8
BLACK
6
CONTINUOUS
10
-0.1528677952755906
20
0.1543113779527559
11
-0.1613242125984252
21
0.1520454330708661
0
LINE
8
BLACK
6
CONTINUOUS
10
-0.1613242125984252
20
0.1520454330708661
11
-0.1700040551181102
21
0.1509027559055118
0
LINE
8
BLACK
6
CONTINUOUS
10
-0.1700040551181102
20
0.1509027559055118
11
-0.1787588188976378
21
0.1509027559055118
0
LINE
8
BLACK
6
CONTINUOUS
10
-0.1787588188976378
20
0.1509027559055118
11
-0.1874386614173228
21
0.1520454330708661
0
LINE
8
BLACK
6
CONTINUOUS
10
-0.1874386614173228
20
0.1520454330708661
11
-0.1958951181102362
21
0.1543113779527559
0
LINE
8
BLACK
6
CONTINUOUS
10
-0.1958951181102362
20
0.1543113779527559
11
-0.2039834251968504
21
0.1576616535433071
0
LINE
8
BLACK
6
CONTINUOUS
10
-0.2039834251968504
20
0.1576616535433071
11
-0.2115652755905512
21
0.1620390551181102
0
LINE
8
BLACK
6
CONTINUOUS
10
-0.2115652755905512
20
0.1620390551181102
11
-0.2185108661417323
21
0.1673685826771653
0
LINE
8
BLACK
6
CONTINUOUS
10
-0.2185108661417323
20
0.1673685826771653
11
-0.2217074803149606
21
0.1703625196850394
0
LINE
8
BLACK
6
CONTINUOUS
10
-0.2217074803149606
20
0.1703625196850394
11
-0.4165794488188976
21
0.3652344881889764
0
LINE
8
BLACK
6
CONTINUOUS
10
-0.4165794488188976
20
0.3652344881889764
11
-0.4195733858267716
21
0.3684311023622047
0
LINE
8
BLACK
6
CONTINUOUS
10
-0.4195733858267716
20
0.3684311023622047
11
-0.4249029133858268
21
0.3753766929133858
0
LINE
8
BLACK
6
CONTINUOUS
10
-0.4249029133858268
20
0.3753766929133858
11
-0.4292803149606299
21
0.3829585433070866
0
LINE
8
BLACK
6
CONTINUOUS
10
-0.4292803149606299
20
0.3829585433070866
11
-0.4326305905511811
21
0.3910468503937008
0
LINE
8
BLACK
6
CONTINUOUS
10
-0.4326305905511811
20
0.3910468503937008
11
-0.4348964960629921
21
0.3995032677165354
0
LINE
8
BLACK
6
CONTINUOUS
10
-0.4348964960629921
20
0.3995032677165354
11
-0.4360392125984252
21
0.4081831496062992
0
LINE
8
BLACK
6
CONTINUOUS
10
-0.4360392125984252
20
0.4081831496062992
11
-0.4360392125984252
21
0.416937874015748
0
LINE
8
BLACK
6
CONTINUOUS
10
-0.4360392125984252
20
0.416937874015748
11
-0.4348964960629921
21
0.4256177559055118
0
LINE
8
BLACK
6
CONTINUOUS
10
-0.4348964960629921
20
0.4256177559055118
11
-0.4326305905511811
21
0.4340741732283465
0
LINE
8
BLACK
6
CONTINUOUS
10
-0.4326305905511811
20
0.4340741732283465
11
-0.4292803149606299
21
0.4421624803149606
0
LINE
8
BLACK
6
CONTINUOUS
10
-0.4292803149606299
20
0.4421624803149606
11
-0.4249029133858268
21
0.4497443307086614
0
LINE
8
BLACK
6
CONTINUOUS
10
-0.4249029133858268
20
0.4497443307086614
11
-0.4195733858267716
21
0.4566899212598425
0
LINE
8
BLACK
6
CONTINUOUS
10
-0.4195733858267716
20
0.4566899212598425
11
-0.4133828346456693
21
0.4628804724409449
0
LINE
8
BLACK
6
CONTINUOUS
10
-0.4133828346456693
20
0.4628804724409449
11
-0.4064372440944882
21
0.46821
0
LINE
8
BLACK
6
CONTINUOUS
10
-0.4064372440944882
20
0.46821
11
-0.3988553937007874
21
0.4725874015748031
0
LINE
8
BLACK
6
CONTINUOUS
10
-0.3988553937007874
20
0.4725874015748031
11
-0.3907670866141732
21
0.4759376771653543
0
LINE
8
BLACK
6
CONTINUOUS
10
-0.3907670866141732
20
0.4759376771653543
11
-0.3823106692913386
21
0.4782035826771653
0
LINE
8
BLACK
6
CONTINUOUS
10
-0.3823106692913386
20
0.4782035826771653
11
-0.3736307874015748
21
0.4793462992125984
0
LINE
8
BLACK
6
CONTINUOUS
10
-0.3736307874015748
20
0.4793462992125984
11
-0.364876062992126
21
0.4793462992125984
0
LINE
8
BLACK
6
CONTINUOUS
10
-0.364876062992126
20
0.4793462992125984
11
-0.3561961811023622
21
0.4782035826771653
0
LINE
8
BLACK
6
CONTINUOUS
10
0.3823106692913386
20
0.4782036220472441
11
0.3907670866141732
21
0.4759376771653543
0
LINE
8
BLACK
6
CONTINUOUS
10
0.3907670866141732
20
0.4759376771653543
11
0.3988553937007874
21
0.4725874015748031
0
LINE
8
BLACK
6
CONTINUOUS
10
0.3988553937007874
20
0.4725874015748031
11
0.4064372440944882
21
0.46821
0
LINE
8
BLACK
6
CONTINUOUS
10
0.4064372440944882
20
0.46821
11
0.4133828346456693
21
0.4628804724409449
0
LINE
8
BLACK
6
CONTINUOUS
10
0.4133828346456693
20
0.4628804724409449
11
0.4195733858267716
21
0.4566899212598425
0
LINE
8
BLACK
6
CONTINUOUS
10
0.4195733858267716
20
0.4566899212598425
11
0.4249029133858268
21
0.4497443307086614
0
LINE
8
BLACK
6
CONTINUOUS
10
0.4249029133858268
20
0.4497443307086614
11
0.4292803149606299
21
0.4421624803149606
0
LINE
8
BLACK
6
CONTINUOUS
10
0.4292803149606299
20
0.4421624803149606
11
0.4326305905511811
21
0.4340741732283465
0
LINE
8
BLACK
6
CONTINUOUS
10
0.4326305905511811
20
0.4340741732283465
11
0.4348965354330708
21
0.4256177559055118
0
LINE
8
BLACK
6
CONTINUOUS
10
0.4348965354330708
20
0.4256177559055118
11
0.4360392125984252
21
0.4169379133858268
0
LINE
8
BLACK
6
CONTINUOUS
10
0.4360392125984252
20
0.4169379133858268
11
0.4360392125984252
21
0.4081831496062992
0
LINE
8
BLACK
6
CONTINUOUS
10
0.4360392125984252
20
0.4081831496062992
11
0.4348965354330708
21
0.3995033070866142
0
LINE
8
BLACK
6
CONTINUOUS
10
0.4348965354330708
20
0.3995033070866142
11
0.4326305905511811
21
0.3910468503937008
0
LINE
8
BLACK
6
CONTINUOUS
10
0.4326305905511811
20
0.3910468503937008
11
0.4292803149606299
21
0.3829585433070866
0
LINE
8
BLACK
6
CONTINUOUS
10
0.4292803149606299
20
0.3829585433070866
11
0.4249029133858268
21
0.3753766929133858
0
LINE
8
BLACK
6
CONTINUOUS
10
0.4249029133858268
20
0.3753766929133858
11
0.4195733858267716
21
0.3684311023622047
0
LINE
8
BLACK
6
CONTINUOUS
10
0.4195733858267716
20
0.3684311023622047
11
0.4165794488188976
21
0.3652344881889764
0
LINE
8
BLACK
6
CONTINUOUS
10
0.4165794488188976
20
0.3652344881889764
11
0.2217074803149606
21
0.1703625196850394
0
LINE
8
BLACK
6
CONTINUOUS
10
0.2217074803149606
20
0.1703625196850394
11
0.2185108661417323
21
0.1673685826771653
0
LINE
8
BLACK
6
CONTINUOUS
10
0.2185108661417323
20
0.1673685826771653
11
0.2115652755905512
21
0.1620390551181102
0
LINE
8
BLACK
6
CONTINUOUS
10
0.2115652755905512
20
0.1620390551181102
11
0.2039834251968504
21
0.1576616535433071
0
LINE
8
BLACK
6
CONTINUOUS
10
0.2039834251968504
20
0.1576616535433071
11
0.1958951181102362
21
0.1543113779527559
0
LINE
8
BLACK
6
CONTINUOUS
10
0.1958951181102362
20
0.1543113779527559
11
0.1874387007874016
21
0.1520454724409449
0
LINE
8
BLACK
6
CONTINUOUS
10
0.1874387007874016
20
0.1520454724409449
11
0.1787588188976378
21
0.1509027559055118
0
LINE
8
BLACK
6
CONTINUOUS
10
0.1787588188976378
20
0.1509027559055118
11
0.170004094488189
21
0.1509027559055118
0
LINE
8
BLACK
6
CONTINUOUS
10
0.170004094488189
20
0.1509027559055118
11
0.1613242125984252
21
0.1520454724409449
0
LINE
8
BLACK
6
CONTINUOUS
10
0.1613242125984252
20
0.1520454724409449
11
0.1528677952755906
21
0.1543113779527559
0
LINE
8
BLACK
6
CONTINUOUS
10
0.1528677952755906
20
0.1543113779527559
11
0.1447794881889764
21
0.1576616535433071
0
LINE
8
BLACK
6
CONTINUOUS
10
0.1447794881889764
20
0.1576616535433071
11
0.1371976377952756
21
0.1620390551181102
0
LINE
8
BLACK
6
CONTINUOUS
10
0.1371976377952756
20
0.1620390551181102
11
0.1302520472440945
21
0.1673685826771653
0
LINE
8
BLACK
6
CONTINUOUS
10
0.1302520472440945
20
0.1673685826771653
11
0.1240614960629921
21
0.1735591338582677
0
LINE
8
BLACK
6
CONTINUOUS
10
0.1240614960629921
20
0.1735591338582677
11
0.118731968503937
21
0.1805047244094488
0
LINE
8
BLACK
6
CONTINUOUS
10
0.118731968503937
20
0.1805047244094488
11
0.1143545669291339
21
0.1880865748031496
0
LINE
8
BLACK
6
CONTINUOUS
10
0.1143545669291339
20
0.1880865748031496
11
0.1110042913385827
21
0.1961748818897638
0
LINE
8
BLACK
6
CONTINUOUS
10
0.1110042913385827
20
0.1961748818897638
11
0.1087383858267717
21
0.2046312992125984
0
LINE
8
BLACK
6
CONTINUOUS
10
0.1087383858267717
20
0.2046312992125984
11
0.1075956692913386
21
0.2133111811023622
0
LINE
8
BLACK
6
CONTINUOUS
10
0.1075956692913386
20
0.2133111811023622
11
0.1075956692913386
21
0.222065905511811
0
LINE
8
BLACK
6
CONTINUOUS
10
0.1075956692913386
20
0.222065905511811
11
0.1087383858267717
21
0.2307457874015748
0
LINE
8
BLACK
6
CONTINUOUS
10
0.1087383858267717
20
0.2307457874015748
11
0.1110042913385827
21
0.2392022047244095
0
LINE
8
BLACK
6
CONTINUOUS
10
0.1110042913385827
20
0.2392022047244095
11
0.1143545669291339
21
0.2472905118110236
0
LINE
8
BLACK
6
CONTINUOUS
10
0.1143545669291339
20
0.2472905118110236
11
0.118731968503937
21
0.2548723622047244
0
LINE
8
BLACK
6
CONTINUOUS
10
0.118731968503937
20
0.2548723622047244
11
0.1240614960629921
21
0.2618179527559055
0
LINE
8
BLACK
6
CONTINUOUS
10
0.1240614960629921
20
0.2618179527559055
11
0.1270554330708661
21
0.2650145669291338
0
LINE
8
BLACK
6
CONTINUOUS
10
0.1270554330708661
20
0.2650145669291338
11
0.3219274015748032
21
0.4598865354330708
0
LINE
8
BLACK
6
CONTINUOUS
10
0.3219274015748032
20
0.4598865354330708
11
0.3251240157480315
21
0.4628804724409449
0
LINE
8
BLACK
6
CONTINUOUS
10
0.3251240157480315
20
0.4628804724409449
11
0.3320696062992126
21
0.46821
0
LINE
8
BLACK
6
CONTINUOUS
10
0.3320696062992126
20
0.46821
11
0.3396514566929134
21
0.4725874015748031
0
LINE
8
BLACK
6
CONTINUOUS
10
0.3396514566929134
20
0.4725874015748031
11
0.3477397637795275
21
0.4759376771653543
0
LINE
8
BLACK
6
CONTINUOUS
10
0.3477397637795275
20
0.4759376771653543
11
0.3561962204724409
21
0.4782036220472441
0
LINE
8
BLACK
6
CONTINUOUS
10
0.3561962204724409
20
0.4782036220472441
11
0.364876062992126
21
0.4793462992125984
0
LINE
8
BLACK
6
CONTINUOUS
10
0.364876062992126
20
0.4793462992125984
11
0.3736308267716535
21
0.4793462992125984
0
LINE
8
BLACK
6
CONTINUOUS
10
0.3736308267716535
20
0.4793462992125984
11
0.3823106692913386
21
0.4782036220472441
0
LINE
8
BLACK
6
CONTINUOUS
10
0.002594842519685
20
0.5431088976377952
11
0.0052958267716535
21
0.5431088976377952
0
LINE
8
BLACK
6
CONTINUOUS
10
0.0052958267716535
20
0.5431088976377952
11
0.007734842519685
21
0.5427412992125984
0
LINE
8
BLACK
6
CONTINUOUS
10
0.007734842519685
20
0.5427412992125984
11
0.0100837401574803
21
0.5425732677165355
0
LINE
8
BLACK
6
CONTINUOUS
10
0.0100837401574803
20
0.5425732677165355
11
0.0128683858267717
21
0.5419675196850393
0
LINE
8
BLACK
6
CONTINUOUS
10
0.0128683858267717
20
0.5419675196850393
11
0.0157691732283465
21
0.5415302755905511
0
LINE
8
BLACK
6
CONTINUOUS
10
0.0157691732283465
20
0.5415302755905511
11
0.0179006299212598
21
0.5408728346456693
0
LINE
8
BLACK
6
CONTINUOUS
10
0.0179006299212598
20
0.5408728346456693
11
0.0199615354330709
21
0.5404244881889764
0
LINE
8
BLACK
6
CONTINUOUS
10
0.0199615354330709
20
0.5404244881889764
11
0.0228655118110236
21
0.5393413779527559
0
LINE
8
BLACK
6
CONTINUOUS
10
0.0228655118110236
20
0.5393413779527559
11
0.0258902755905512
21
0.5384083464566929
0
LINE
8
BLACK
6
CONTINUOUS
10
0.0258902755905512
20
0.5384083464566929
11
0.0276875196850394
21
0.5375428346456693
0
LINE
8
BLACK
6
CONTINUOUS
10
0.0276875196850394
20
0.5375428346456693
11
0.0294336220472441
21
0.5368915748031496
0
LINE
8
BLACK
6
CONTINUOUS
10
0.0294336220472441
20
0.5368915748031496
11
0.0323747244094488
21
0.5352856299212598
0
LINE
8
BLACK
6
CONTINUOUS
10
0.0323747244094488
20
0.5352856299212598
11
0.0354330708661417
21
0.5338127952755906
0
LINE
8
BLACK
6
CONTINUOUS
10
0.0354330708661417
20
0.5338127952755906
11
0.0368854724409449
21
0.5328225590551181
0
LINE
8
BLACK
6
CONTINUOUS
10
0.0368854724409449
20
0.5328225590551181
11
0.0383062992125984
21
0.5320467322834646
0
LINE
8
BLACK
6
CONTINUOUS
10
0.0383062992125984
20
0.5320467322834646
11
0.0411936220472441
21
0.52988531496063
0
LINE
8
BLACK
6
CONTINUOUS
10
0.0411936220472441
20
0.52988531496063
11
0.0441842913385827
21
0.5278462992125984
0
LINE
8
BLACK
6
CONTINUOUS
10
0.0441842913385827
20
0.5278462992125984
11
0.0452986220472441
21
0.5268123622047244
0
LINE
8
BLACK
6
CONTINUOUS
10
0.0452986220472441
20
0.5268123622047244
11
0.046399094488189
21
0.5259885433070866
0
LINE
8
BLACK
6
CONTINUOUS
10
0.046399094488189
20
0.5259885433070866
11
0.049133937007874
21
0.5232537007874015
0
LINE
8
BLACK
6
CONTINUOUS
10
0.049133937007874
20
0.5232537007874015
11
0.0519485433070866
21
0.520642125984252
0
LINE
8
BLACK
6
CONTINUOUS
10
0.0519485433070866
20
0.520642125984252
11
0.0527479921259843
21
0.5196396456692913
0
LINE
8
BLACK
6
CONTINUOUS
10
0.0527479921259843
20
0.5196396456692913
11
0.0535475590551181
21
0.5188400787401575
0
LINE
8
BLACK
6
CONTINUOUS
10
0.0535475590551181
20
0.5188400787401575
11
0.0560272440944882
21
0.5155275984251968
0
LINE
8
BLACK
6
CONTINUOUS
10
0.0560272440944882
20
0.5155275984251968
11
0.0585523228346457
21
0.5123612598425197
0
LINE
8
BLACK
6
CONTINUOUS
10
0.0585523228346457
20
0.5123612598425197
11
0.0590741732283465
21
0.5114574015748031
0
LINE
8
BLACK
6
CONTINUOUS
10
0.0590741732283465
20
0.5114574015748031
11
0.0596057480314961
21
0.5107472834645669
0
LINE
8
BLACK
6
CONTINUOUS
10
0.0596057480314961
20
0.5107472834645669
11
0.0617265748031496
21
0.5068632677165354
0
LINE
8
BLACK
6
CONTINUOUS
10
0.0617265748031496
20
0.5068632677165354
11
0.0638481496062992
21
0.5031885826771654
0
LINE
8
BLACK
6
CONTINUOUS
10
0.0638481496062992
20
0.5031885826771654
11
0.064142125984252
21
0.5024394881889763
0
LINE
8
BLACK
6
CONTINUOUS
10
0.064142125984252
20
0.5024394881889763
11
0.0644505905511811
21
0.5018746062992125
0
LINE
8
BLACK
6
CONTINUOUS
10
0.0644505905511811
20
0.5018746062992125
11
0.0661105905511811
21
0.4974239763779528
0
LINE
8
BLACK
6
CONTINUOUS
10
0.0661105905511811
20
0.4974239763779528
11
0.0677177165354331
21
0.493329094488189
0
LINE
8
BLACK
6
CONTINUOUS
10
0.0677177165354331
20
0.493329094488189
11
0.0678435433070866
21
0.4927777165354331
0
LINE
8
BLACK
6
CONTINUOUS
10
0.0678435433070866
20
0.4927777165354331
11
0.0679835039370079
21
0.4924025196850393
0
LINE
8
BLACK
6
CONTINUOUS
10
0.0679835039370079
20
0.4924025196850393
11
0.0690869291338583
21
0.4873300787401575
0
LINE
8
BLACK
6
CONTINUOUS
10
0.0690869291338583
20
0.4873300787401575
11
0.0700745669291339
21
0.4830029921259842
0
LINE
8
BLACK
6
CONTINUOUS
10
0.0700745669291339
20
0.4830029921259842
11
0.0700988976377953
21
0.4826781496062992
0
LINE
8
BLACK
6
CONTINUOUS
10
0.0700988976377953
20
0.4826781496062992
11
0.0701322834645669
21
0.4825247244094488
0
LINE
8
BLACK
6
CONTINUOUS
10
0.0701322834645669
20
0.4825247244094488
11
0.0705899212598425
21
0.4761261811023622
0
LINE
8
BLACK
6
CONTINUOUS
10
0.0705899212598425
20
0.4761261811023622
11
0.0708661023622047
21
0.4724409448818898
0
LINE
8
BLACK
6
CONTINUOUS
10
0.0708661023622047
20
0.4724409448818898
11
0.0705898818897638
21
0.4687554724409449
0
LINE
8
BLACK
6
CONTINUOUS
10
0.0705898818897638
20
0.4687554724409449
11
0.0701322834645669
21
0.4623572047244094
0
LINE
8
BLACK
6
CONTINUOUS
10
0.0701322834645669
20
0.4623572047244094
11
0.0700988976377953
21
0.4622038582677165
0
LINE
8
BLACK
6
CONTINUOUS
10
0.0700988976377953
20
0.4622038582677165
11
0.0700745669291339
21
0.4618788976377953
0
LINE
8
BLACK
6
CONTINUOUS
10
0.0700745669291339
20
0.4618788976377953
11
0.0690867322834646
21
0.457551062992126
0
LINE
8
BLACK
6
CONTINUOUS
10
0.0690867322834646
20
0.457551062992126
11
0.0679835039370079
21
0.4524794094488189
0
LINE
8
BLACK
6
CONTINUOUS
10
0.0679835039370079
20
0.4524794094488189
11
0.0678435826771654
21
0.4521042913385827
0
LINE
8
BLACK
6
CONTINUOUS
10
0.0678435826771654
20
0.4521042913385827
11
0.0677177165354331
21
0.4515527952755906
0
LINE
8
BLACK
6
CONTINUOUS
10
0.0677177165354331
20
0.4515527952755906
11
0.0661102755905512
21
0.4474572047244094
0
LINE
8
BLACK
6
CONTINUOUS
10
0.0661102755905512
20
0.4474572047244094
11
0.0644505905511811
21
0.4430073228346457
0
LINE
8
BLACK
6
CONTINUOUS
10
0.0644505905511811
20
0.4430073228346457
11
0.0641422047244094
21
0.4424425984251968
0
LINE
8
BLACK
6
CONTINUOUS
10
0.0641422047244094
20
0.4424425984251968
11
0.0638481496062992
21
0.4416933070866141
0
LINE
8
BLACK
6
CONTINUOUS
10
0.0638481496062992
20
0.4416933070866141
11
0.0617261811023622
21
0.4380179921259842
0
LINE
8
BLACK
6
CONTINUOUS
10
0.0617261811023622
20
0.4380179921259842
11
0.0596057480314961
21
0.4341346456692913
0
LINE
8
BLACK
6
CONTINUOUS
10
0.0596057480314961
20
0.4341346456692913
11
0.0590742519685039
21
0.4334246850393701
0
LINE
8
BLACK
6
CONTINUOUS
10
0.0590742519685039
20
0.4334246850393701
11
0.0585523228346457
21
0.4325206299212598
0
LINE
8
BLACK
6
CONTINUOUS
10
0.0585523228346457
20
0.4325206299212598
11
0.0560267716535433
21
0.4293537401574803
0
LINE
8
BLACK
6
CONTINUOUS
10
0.0560267716535433
20
0.4293537401574803
11
0.0535475590551181
21
0.4260418503937008
0
LINE
8
BLACK
6
CONTINUOUS
10
0.0535475590551181
20
0.4260418503937008
11
0.0527481496062992
21
0.4252424803149606
0
LINE
8
BLACK
6
CONTINUOUS
10
0.0527481496062992
20
0.4252424803149606
11
0.0519485433070866
21
0.4242397637795275
0
LINE
8
BLACK
6
CONTINUOUS
10
0.0519485433070866
20
0.4242397637795275
11
0.0491333858267717
21
0.4216277165354331
0
LINE
8
BLACK
6
CONTINUOUS
10
0.0491333858267717
20
0.4216277165354331
11
0.046399094488189
21
0.4188933858267717
0
LINE
8
BLACK
6
CONTINUOUS
10
0.046399094488189
20
0.4188933858267717
11
0.0452988582677165
21
0.4180698031496063
0
LINE
8
BLACK
6
CONTINUOUS
10
0.0452988582677165
20
0.4180698031496063
11
0.0441842913385827
21
0.4170355905511811
0
LINE
8
BLACK
6
CONTINUOUS
10
0.0441842913385827
20
0.4170355905511811
11
0.041193031496063
21
0.4149962204724409
0
LINE
8
BLACK
6
CONTINUOUS
10
0.041193031496063
20
0.4149962204724409
11
0.0383062992125984
21
0.4128351968503937
0
LINE
8
BLACK
6
CONTINUOUS
10
0.0383062992125984
20
0.4128351968503937
11
0.0368857480314961
21
0.4120595669291339
0
LINE
8
BLACK
6
CONTINUOUS
10
0.0368857480314961
20
0.4120595669291339
11
0.0354330708661417
21
0.411069094488189
0
LINE
8
BLACK
6
CONTINUOUS
10
0.0354330708661417
20
0.411069094488189
11
0.0323741338582677
21
0.4095960236220472
0
LINE
8
BLACK
6
CONTINUOUS
10
0.0323741338582677
20
0.4095960236220472
11
0.0294336220472441
21
0.4079903543307086
0
LINE
8
BLACK
6
CONTINUOUS
10
0.0294336220472441
20
0.4079903543307086
11
0.0276879133858268
21
0.4073392519685039
0
LINE
8
BLACK
6
CONTINUOUS
10
0.0276879133858268
20
0.4073392519685039
11
0.0258902755905512
21
0.4064735433070866
0
LINE
8
BLACK
6
CONTINUOUS
10
0.0258902755905512
20
0.4064735433070866
11
0.0228649212598425
21
0.4055403543307087
0
LINE
8
BLACK
6
CONTINUOUS
10
0.0228649212598425
20
0.4055403543307087
11
0.0199615354330709
21
0.4044574409448819
0
LINE
8
BLACK
6
CONTINUOUS
10
0.0199615354330709
20
0.4044574409448819
11
0.017901062992126
21
0.4040092519685039
0
LINE
8
BLACK
6
CONTINUOUS
10
0.017901062992126
20
0.4040092519685039
11
0.0157691732283465
21
0.4033516141732283
0
LINE
8
BLACK
6
CONTINUOUS
10
0.0157691732283465
20
0.4033516141732283
11
0.0128677952755906
21
0.4029143307086614
0
LINE
8
BLACK
6
CONTINUOUS
10
0.0128677952755906
20
0.4029143307086614
11
0.0100837401574803
21
0.4023086614173228
0
LINE
8
BLACK
6
CONTINUOUS
10
0.0100837401574803
20
0.4023086614173228
11
0.0077353543307087
21
0.4021407086614173
0
LINE
8
BLACK
6
CONTINUOUS
10
0.0077353543307087
20
0.4021407086614173
11
0.0052958267716535
21
0.4017729921259842
0
LINE
8
BLACK
6
CONTINUOUS
10
0.0052958267716535
20
0.4017729921259842
11
0.0025942913385827
21
0.4017729921259842
0
LINE
8
BLACK
6
CONTINUOUS
10
0.0025942913385827
20
0.4017729921259842
11
0.
21
0.4015874409448819
0
LINE
8
BLACK
6
CONTINUOUS
10
0.
20
0.4015874409448819
11
-0.0025942913385827
21
0.4017729921259842
0
LINE
8
BLACK
6
CONTINUOUS
10
-0.0025942913385827
20
0.4017729921259842
11
-0.0052958267716535
21
0.4017729921259842
0
LINE
8
BLACK
6
CONTINUOUS
10
-0.0052958267716535
20
0.4017729921259842
11
-0.0077353543307087
21
0.4021407086614173
0
LINE
8
BLACK
6
CONTINUOUS
10
-0.0077353543307087
20
0.4021407086614173
11
-0.0100837795275591
21
0.4023086614173228
0
LINE
8
BLACK
6
CONTINUOUS
10
-0.0100837795275591
20
0.4023086614173228
11
-0.0128679527559055
21
0.4029143307086614
0
LINE
8
BLACK
6
CONTINUOUS
10
-0.0128679527559055
20
0.4029143307086614
11
-0.0157691732283465
21
0.4033516141732283
0
LINE
8
BLACK
6
CONTINUOUS
10
-0.0157691732283465
20
0.4033516141732283
11
-0.0179010236220472
21
0.4040092125984252
0
LINE
8
BLACK
6
CONTINUOUS
10
-0.0179010236220472
20
0.4040092125984252
11
-0.0199615748031496
21
0.4044574409448819
0
LINE
8
BLACK
6
CONTINUOUS
10
-0.0199615748031496
20
0.4044574409448819
11
-0.022865157480315
21
0.4055404330708661
0
LINE
8
BLACK
6
CONTINUOUS
10
-0.022865157480315
20
0.4055404330708661
11
-0.0258902755905512
21
0.4064735433070866
0
LINE
8
BLACK
6
CONTINUOUS
10
-0.0258902755905512
20
0.4064735433070866
11
-0.0276877559055118
21
0.4073391732283465
0
LINE
8
BLACK
6
CONTINUOUS
10
-0.0276877559055118
20
0.4073391732283465
11
-0.0294336614173228
21
0.4079903543307086
0
LINE
8
BLACK
6
CONTINUOUS
10
-0.0294336614173228
20
0.4079903543307086
11
-0.0323746850393701
21
0.4095962992125984
0
LINE
8
BLACK
6
CONTINUOUS
10
-0.0323746850393701
20
0.4095962992125984
11
-0.035433031496063
21
0.411069094488189
0
LINE
8
BLACK
6
CONTINUOUS
10
-0.035433031496063
20
0.411069094488189
11
-0.0368854724409449
21
0.4120593700787402
0
LINE
8
BLACK
6
CONTINUOUS
10
-0.0368854724409449
20
0.4120593700787402
11
-0.0383063385826772
21
0.4128351968503937
0
LINE
8
BLACK
6
CONTINUOUS
10
-0.0383063385826772
20
0.4128351968503937
11
-0.0411936614173228
21
0.4149966141732284
0
LINE
8
BLACK
6
CONTINUOUS
10
-0.0411936614173228
20
0.4149966141732284
11
-0.0441842913385827
21
0.4170355905511811
0
LINE
8
BLACK
6
CONTINUOUS
10
-0.0441842913385827
20
0.4170355905511811
11
-0.0452987401574803
21
0.4180696456692913
0
LINE
8
BLACK
6
CONTINUOUS
10
-0.0452987401574803
20
0.4180696456692913
11
-0.0463991338582677
21
0.4188933858267717
0
LINE
8
BLACK
6
CONTINUOUS
10
-0.0463991338582677
20
0.4188933858267717
11
-0.0491339763779528
21
0.4216282283464567
0
LINE
8
BLACK
6
CONTINUOUS
10
-0.0491339763779528
20
0.4216282283464567
11
-0.0519485433070866
21
0.4242397637795275
0
LINE
8
BLACK
6
CONTINUOUS
10
-0.0519485433070866
20
0.4242397637795275
11
-0.052748031496063
21
0.4252422834645669
0
LINE
8
BLACK
6
CONTINUOUS
10
-0.052748031496063
20
0.4252422834645669
11
-0.0535475984251969
21
0.4260418503937008
0
LINE
8
BLACK
6
CONTINUOUS
10
-0.0535475984251969
20
0.4260418503937008
11
-0.0560274409448819
21
0.4293545275590551
0
LINE
8
BLACK
6
CONTINUOUS
10
-0.0560274409448819
20
0.4293545275590551
11
-0.0585523228346457
21
0.4325206299212598
0
LINE
8
BLACK
6
CONTINUOUS
10
-0.0585523228346457
20
0.4325206299212598
11
-0.0590741732283465
21
0.4334244881889764
0
LINE
8
BLACK
6
CONTINUOUS
10
-0.0590741732283465
20
0.4334244881889764
11
-0.0596057874015748
21
0.4341346456692913
0
LINE
8
BLACK
6
CONTINUOUS
10
-0.0596057874015748
20
0.4341346456692913
11
-0.0617269291338583
21
0.4380192519685039
0
LINE
8
BLACK
6
CONTINUOUS
10
-0.0617269291338583
20
0.4380192519685039
11
-0.0638481496062992
21
0.4416933070866141
0
LINE
8
BLACK
6
CONTINUOUS
10
-0.0638481496062992
20
0.4416933070866141
11
-0.064142125984252
21
0.4424423228346457
0
LINE
8
BLACK
6
CONTINUOUS
10
-0.064142125984252
20
0.4424423228346457
11
-0.0644506299212598
21
0.4430073228346457
0
LINE
8
BLACK
6
CONTINUOUS
10
-0.0644506299212598
20
0.4430073228346457
11
-0.0661111417322835
21
0.4474592519685039
0
LINE
8
BLACK
6
CONTINUOUS
10
-0.0661111417322835
20
0.4474592519685039
11
-0.0677177165354331
21
0.4515527952755906
0
LINE
8
BLACK
6
CONTINUOUS
10
-0.0677177165354331
20
0.4515527952755906
11
-0.0678435433070866
21
0.4521040157480315
0
LINE
8
BLACK
6
CONTINUOUS
10
-0.0678435433070866
20
0.4521040157480315
11
-0.0679835433070866
21
0.4524794094488189
0
LINE
8
BLACK
6
CONTINUOUS
10
-0.0679835433070866
20
0.4524794094488189
11
-0.0690876377952756
21
0.4575547244094488
0
LINE
8
BLACK
6
CONTINUOUS
10
-0.0690876377952756
20
0.4575547244094488
11
-0.0700745669291339
21
0.4618788976377953
0
LINE
8
BLACK
6
CONTINUOUS
10
-0.0700745669291339
20
0.4618788976377953
11
-0.0700988976377953
21
0.4622035826771653
0
LINE
8
BLACK
6
CONTINUOUS
10
-0.0700988976377953
20
0.4622035826771653
11
-0.0701323228346457
21
0.4623572047244094
0
LINE
8
BLACK
6
CONTINUOUS
10
-0.0701323228346457
20
0.4623572047244094
11
-0.0705907874015748
21
0.468766968503937
0
LINE
8
BLACK
6
CONTINUOUS
10
-0.0705907874015748
20
0.468766968503937
11
-0.0708661023622047
21
0.4724409448818898
0
LINE
8
BLACK
6
CONTINUOUS
10
-0.0708661023622047
20
0.4724409448818898
11
-0.0705908267716535
21
0.4761146456692913
0
LINE
8
BLACK
6
CONTINUOUS
10
-0.0705908267716535
20
0.4761146456692913
11
-0.0701323228346457
21
0.4825247244094488
0
LINE
8
BLACK
6
CONTINUOUS
10
-0.0701323228346457
20
0.4825247244094488
11
-0.0700988976377953
21
0.4826784251968504
0
LINE
8
BLACK
6
CONTINUOUS
10
-0.0700988976377953
20
0.4826784251968504
11
-0.0700745669291339
21
0.4830029921259842
0
LINE
8
BLACK
6
CONTINUOUS
10
-0.0700745669291339
20
0.4830029921259842
11
-0.0690877952755905
21
0.4873263779527559
0
LINE
8
BLACK
6
CONTINUOUS
10
-0.0690877952755905
20
0.4873263779527559
11
-0.0679835433070866
21
0.4924025196850393
0
LINE
8
BLACK
6
CONTINUOUS
10
-0.0679835433070866
20
0.4924025196850393
11
-0.0678435433070866
21
0.4927779921259842
0
LINE
8
BLACK
6
CONTINUOUS
10
-0.0678435433070866
20
0.4927779921259842
11
-0.0677177165354331
21
0.493329094488189
0
LINE
8
BLACK
6
CONTINUOUS
10
-0.0677177165354331
20
0.493329094488189
11
-0.0661114173228346
21
0.4974219291338582
0
LINE
8
BLACK
6
CONTINUOUS
10
-0.0661114173228346
20
0.4974219291338582
11
-0.0644506299212598
21
0.5018746062992125
0
LINE
8
BLACK
6
CONTINUOUS
10
-0.0644506299212598
20
0.5018746062992125
11
-0.0641420866141732
21
0.5024397244094488
0
LINE
8
BLACK
6
CONTINUOUS
10
-0.0641420866141732
20
0.5024397244094488
11
-0.0638481496062992
21
0.5031885826771654
0
LINE
8
BLACK
6
CONTINUOUS
10
-0.0638481496062992
20
0.5031885826771654
11
-0.0617273228346457
21
0.5068620078740157
0
LINE
8
BLACK
6
CONTINUOUS
10
-0.0617273228346457
20
0.5068620078740157
11
-0.0596057874015748
21
0.5107472834645669
0
LINE
8
BLACK
6
CONTINUOUS
10
-0.0596057874015748
20
0.5107472834645669
11
-0.0590740551181102
21
0.5114576377952755
0
LINE
8
BLACK
6
CONTINUOUS
10
-0.0590740551181102
20
0.5114576377952755
11
-0.0585523228346457
21
0.5123612598425197
0
LINE
8
BLACK
6
CONTINUOUS
10
-0.0585523228346457
20
0.5123612598425197
11
-0.0560279527559055
21
0.5155267716535433
0
LINE
8
BLACK
6
CONTINUOUS
10
-0.0560279527559055
20
0.5155267716535433
11
-0.0535475984251969
21
0.5188400787401575
0
LINE
8
BLACK
6
CONTINUOUS
10
-0.0535475984251969
20
0.5188400787401575
11
-0.052747874015748
21
0.519639842519685
0
LINE
8
BLACK
6
CONTINUOUS
10
-0.052747874015748
20
0.519639842519685
11
-0.0519485433070866
21
0.520642125984252
0
LINE
8
BLACK
6
CONTINUOUS
10
-0.0519485433070866
20
0.520642125984252
11
-0.0491345275590551
21
0.523253188976378
0
LINE
8
BLACK
6
CONTINUOUS
10
-0.0491345275590551
20
0.523253188976378
11
-0.0463991338582677
21
0.5259885433070866
0
LINE
8
BLACK
6
CONTINUOUS
10
-0.0463991338582677
20
0.5259885433070866
11
-0.0452985039370079
21
0.5268124803149606
0
LINE
8
BLACK
6
CONTINUOUS
10
-0.0452985039370079
20
0.5268124803149606
11
-0.0441842913385827
21
0.5278462992125984
0
LINE
8
BLACK
6
CONTINUOUS
10
-0.0441842913385827
20
0.5278462992125984
11
-0.0411942519685039
21
0.5298849212598425
0
LINE
8
BLACK
6
CONTINUOUS
10
-0.0411942519685039
20
0.5298849212598425
11
-0.0383063385826772
21
0.5320467322834646
0
LINE
8
BLACK
6
CONTINUOUS
10
-0.0383063385826772
20
0.5320467322834646
11
-0.036885157480315
21
0.5328227952755905
0
LINE
8
BLACK
6
CONTINUOUS
10
-0.036885157480315
20
0.5328227952755905
11
-0.035433031496063
21
0.5338127952755906
0
LINE
8
BLACK
6
CONTINUOUS
10
-0.035433031496063
20
0.5338127952755906
11
-0.0323753149606299
21
0.5352853543307087
0
LINE
8
BLACK
6
CONTINUOUS
10
-0.0323753149606299
20
0.5352853543307087
11
-0.0294336614173228
21
0.5368915748031496
0
LINE
8
BLACK
6
CONTINUOUS
10
-0.0294336614173228
20
0.5368915748031496
11
-0.0276874015748031
21
0.5375429133858267
0
LINE
8
BLACK
6
CONTINUOUS
10
-0.0276874015748031
20
0.5375429133858267
11
-0.0258902755905512
21
0.5384083464566929
0
LINE
8
BLACK
6
CONTINUOUS
10
-0.0258902755905512
20
0.5384083464566929
11
-0.0228657874015748
21
0.5393412992125984
0
LINE
8
BLACK
6
CONTINUOUS
10
-0.0228657874015748
20
0.5393412992125984
11
-0.0199615748031496
21
0.5404244881889764
0
LINE
8
BLACK
6
CONTINUOUS
10
-0.0199615748031496
20
0.5404244881889764
11
-0.0179005905511811
21
0.5408728346456693
0
LINE
8
BLACK
6
CONTINUOUS
10
-0.0179005905511811
20
0.5408728346456693
11
-0.0157691732283465
21
0.5415302755905511
0
LINE
8
BLACK
6
CONTINUOUS
10
-0.0157691732283465
20
0.5415302755905511
11
-0.0128685433070866
21
0.5419675196850393
0
LINE
8
BLACK
6
CONTINUOUS
10
-0.0128685433070866
20
0.5419675196850393
11
-0.0100837795275591
21
0.5425732677165355
0
LINE
8
BLACK
6
CONTINUOUS
10
-0.0100837795275591
20
0.5425732677165355
11
-0.0077348818897638
21
0.5427412992125984
0
LINE
8
BLACK
6
CONTINUOUS
10
-0.0077348818897638
20
0.5427412992125984
11
-0.0052958267716535
21
0.5431088976377952
0
LINE
8
BLACK
6
CONTINUOUS
10
-0.0052958267716535
20
0.5431088976377952
11
-0.002594842519685
21
0.5431088976377952
0
LINE
8
BLACK
6
CONTINUOUS
10
-0.002594842519685
20
0.5431088976377952
11
0.
21
0.5432944881889764
0
LINE
8
BLACK
6
CONTINUOUS
10
0.
20
0.5432944881889764
11
0.002594842519685
21
0.5431088976377952
  0
ENDSEC
  0
EOF
