  0
SECTION
  2
HEADER
  9
$ANGBASE
  50
0.0
  9
$ANGDIR
  70
1
  9
$MEASUREMENT
  70
0
  0
ENDSEC
  0
SECTION
  2
TABLES
  0
TABLE
  2
LTYPE
  70
4
  0
LTYPE
  5
40F
  2
CONTINUOUS
  70
0
  3
Solid line
  72
65
  73
0
  40
0.0
  0
LTYPE
  5
410
  2
DASHDOT
 70
0
  3
Dash Dot ____ _ ____ _
 72
65
 73
4
 40
2.0
 49
1.25
 49
-0.25
 49
0.25
 49
-0.25
  0
LTYPE
  5
411
  2
DASHED
 70
0
  3
Dashed __ __ __ __ __
 72
65
 73
2
 40
0.75
 49
0.5
 49
-0.25
  0
LTYPE
  5
43B
  2
DOTTED
 70
0
  3
Dotted .  .  .  .
 72
65
 73
2
 40
0.2
 49
0.0
 49
-0.2
  0
ENDTAB
  0
TABLE
  2
STYLE
  70
4
  0
STYLE
  2
KICAD
  70
0
  40
0
  41
1
  42
1
  50
0
  71
0
  3
isocp.shx
  0
STYLE
  2
KICADB
  70
0
  40
0
  41
1
  42
1
  50
0
  71
0
  3
isocp.shx
  0
STYLE
  2
KICADI
  70
0
  40
0
  41
1
  42
1
  50
15
  71
0
  3
isocp.shx
  0
STYLE
  2
KICADBI
  70
0
  40
0
  41
1
  42
1
  50
15
  71
0
  3
isocp.shx
  0
ENDTAB
  0
TABLE
  2
LAYER
  70
1
  0
LAYER
  2
BLACK
  70
0
  62
7
  6
CONTINUOUS
  0
ENDTAB
  0
ENDSEC
  0
SECTION
  2
ENTITIES
0
LINE
8
BLACK
6
CONTINUOUS
10
0.0080629133858268
20
-0.0076855511811024
11
0.015549842519685
21
-0.0107867322834646
0
LINE
8
BLACK
6
CONTINUOUS
10
0.015549842519685
20
-0.0107867322834646
11
0.0205309842519685
21
-0.014115
0
LINE
8
BLACK
6
CONTINUOUS
10
0.0205309842519685
20
-0.014115
11
0.0214185826771654
21
-0.0141785039370079
0
LINE
8
BLACK
6
CONTINUOUS
10
0.0214185826771654
20
-0.0141785039370079
11
0.0231927165354331
21
-0.0153187007874016
0
LINE
8
BLACK
6
CONTINUOUS
10
0.0231927165354331
20
-0.0153187007874016
11
0.054432874015748
21
-0.0465588582677165
0
LINE
8
BLACK
6
CONTINUOUS
10
0.054432874015748
20
-0.0465588582677165
11
0.0557724803149606
21
-0.0490120866141732
0
LINE
8
BLACK
6
CONTINUOUS
10
0.0557724803149606
20
-0.0490120866141732
11
0.0558858267716535
21
-0.0500665354330709
0
LINE
8
BLACK
6
CONTINUOUS
10
0.0558858267716535
20
-0.0500665354330709
11
0.0558858267716535
21
-0.0919192125984252
0
LINE
8
BLACK
6
CONTINUOUS
10
0.0558858267716535
20
-0.0919192125984252
11
0.0563438188976378
21
-0.0942216929133858
0
LINE
8
BLACK
6
CONTINUOUS
10
0.0563438188976378
20
-0.0942216929133858
11
0.0580885039370079
21
-0.0968327559055118
0
LINE
8
BLACK
6
CONTINUOUS
10
0.0580885039370079
20
-0.0968327559055118
11
0.0606995669291339
21
-0.0985774409448819
0
LINE
8
BLACK
6
CONTINUOUS
10
0.0606995669291339
20
-0.0985774409448819
11
0.0630020472440945
21
-0.0990354330708661
0
LINE
8
BLACK
6
CONTINUOUS
10
0.0630020472440945
20
-0.0990354330708661
11
0.0630020866141732
21
-0.0990354330708661
0
LINE
8
BLACK
6
CONTINUOUS
10
0.0630020866141732
20
-0.0990354330708661
11
0.0944782283464567
21
-0.0990354330708661
0
LINE
8
BLACK
6
CONTINUOUS
10
0.0944782283464567
20
-0.0990354330708661
11
0.0944782677165354
21
-0.0990354330708661
0
LINE
8
BLACK
6
CONTINUOUS
10
0.0944782677165354
20
-0.0990354330708661
11
0.0967807480314961
21
-0.0985774409448819
0
LINE
8
BLACK
6
CONTINUOUS
10
0.0967807480314961
20
-0.0985774409448819
11
0.0991929133858268
21
-0.0969656299212598
0
LINE
8
BLACK
6
CONTINUOUS
10
0.0991929133858268
20
-0.0969656299212598
11
0.1018603149606299
21
-0.0961303937007874
0
LINE
8
BLACK
6
CONTINUOUS
10
0.1018603149606299
20
-0.0961303937007874
11
0.1045558661417323
21
-0.096869842519685
0
LINE
8
BLACK
6
CONTINUOUS
10
0.1045558661417323
20
-0.096869842519685
11
0.1054565748031496
21
-0.0975825590551181
0
LINE
8
BLACK
6
CONTINUOUS
10
0.1054565748031496
20
-0.0975825590551181
11
0.1185395669291339
21
-0.1106655511811024
0
LINE
8
BLACK
6
CONTINUOUS
10
0.1185395669291339
20
-0.1106655511811024
11
0.1185888582677165
21
-0.1107558267716535
0
LINE
8
BLACK
6
CONTINUOUS
10
0.1185888582677165
20
-0.1107558267716535
11
0.1189946062992126
21
-0.1111235826771654
0
LINE
8
BLACK
6
CONTINUOUS
10
0.1189946062992126
20
-0.1111235826771654
11
0.1603438188976378
21
-0.1524727952755905
0
LINE
8
BLACK
6
CONTINUOUS
10
0.1603438188976378
20
-0.1524727952755905
11
0.1605953149606299
21
-0.1523911023622047
0
LINE
8
BLACK
6
CONTINUOUS
10
0.1605953149606299
20
-0.1523911023622047
11
0.169748031496063
21
-0.1509414566929134
0
LINE
8
BLACK
6
CONTINUOUS
10
0.169748031496063
20
-0.1509414566929134
11
0.1790148818897638
21
-0.1509414566929134
0
LINE
8
BLACK
6
CONTINUOUS
10
0.1790148818897638
20
-0.1509414566929134
11
0.1881675984251968
21
-0.1523911023622047
0
LINE
8
BLACK
6
CONTINUOUS
10
0.1881675984251968
20
-0.1523911023622047
11
0.1969808661417323
21
-0.1552547244094488
0
LINE
8
BLACK
6
CONTINUOUS
10
0.1969808661417323
20
-0.1552547244094488
11
0.2052376771653543
21
-0.1594617716535433
0
LINE
8
BLACK
6
CONTINUOUS
10
0.2052376771653543
20
-0.1594617716535433
11
0.2127346850393701
21
-0.1649086614173228
0
LINE
8
BLACK
6
CONTINUOUS
10
0.2127346850393701
20
-0.1649086614173228
11
0.2161397244094488
21
-0.1680562598425197
0
LINE
8
BLACK
6
CONTINUOUS
10
0.2161397244094488
20
-0.1680562598425197
11
0.4110116929133858
21
-0.3629282283464567
0
LINE
8
BLACK
6
CONTINUOUS
10
0.4110116929133858
20
-0.3629282283464567
11
0.4141592913385826
21
-0.3663332677165354
0
LINE
8
BLACK
6
CONTINUOUS
10
0.4141592913385826
20
-0.3663332677165354
11
0.4196061811023622
21
-0.3738302755905512
0
LINE
8
BLACK
6
CONTINUOUS
10
0.4196061811023622
20
-0.3738302755905512
11
0.4238132283464567
21
-0.3820870866141732
0
LINE
8
BLACK
6
CONTINUOUS
10
0.4238132283464567
20
-0.3820870866141732
11
0.4266768503937008
21
-0.3909003543307086
0
LINE
8
BLACK
6
CONTINUOUS
10
0.4266768503937008
20
-0.3909003543307086
11
0.4281264960629921
21
-0.4000530708661417
0
LINE
8
BLACK
6
CONTINUOUS
10
0.4281264960629921
20
-0.4000530708661417
11
0.4281264960629921
21
-0.4093199212598425
0
LINE
8
BLACK
6
CONTINUOUS
10
0.4281264960629921
20
-0.4093199212598425
11
0.4266768503937008
21
-0.4184726377952756
0
LINE
8
BLACK
6
CONTINUOUS
10
0.4266768503937008
20
-0.4184726377952756
11
0.4238132283464567
21
-0.427285905511811
0
LINE
8
BLACK
6
CONTINUOUS
10
0.4238132283464567
20
-0.427285905511811
11
0.4196061811023622
21
-0.4355427165354331
0
LINE
8
BLACK
6
CONTINUOUS
10
0.4196061811023622
20
-0.4355427165354331
11
0.4141592913385826
21
-0.4430397244094488
0
LINE
8
BLACK
6
CONTINUOUS
10
0.4141592913385826
20
-0.4430397244094488
11
0.4076066535433071
21
-0.4495923622047244
0
LINE
8
BLACK
6
CONTINUOUS
10
0.4076066535433071
20
-0.4495923622047244
11
0.4001096456692913
21
-0.4550392519685039
0
LINE
8
BLACK
6
CONTINUOUS
10
0.4001096456692913
20
-0.4550392519685039
11
0.3918528346456693
21
-0.4592462992125984
0
LINE
8
BLACK
6
CONTINUOUS
10
0.3918528346456693
20
-0.4592462992125984
11
0.3830395669291338
21
-0.4621099212598425
0
LINE
8
BLACK
6
CONTINUOUS
10
0.3830395669291338
20
-0.4621099212598425
11
0.3738868503937008
21
-0.4635595669291339
0
LINE
8
BLACK
6
CONTINUOUS
10
0.3738868503937008
20
-0.4635595669291339
11
0.36462
21
-0.4635595669291339
0
LINE
8
BLACK
6
CONTINUOUS
10
0.36462
20
-0.4635595669291339
11
0.3554672834645669
21
-0.4621099212598425
0
LINE
8
BLACK
6
CONTINUOUS
10
0.3554672834645669
20
-0.4621099212598425
11
0.3466540157480315
21
-0.4592462992125984
0
LINE
8
BLACK
6
CONTINUOUS
10
0.3466540157480315
20
-0.4592462992125984
11
0.3383972047244094
21
-0.4550392519685039
0
LINE
8
BLACK
6
CONTINUOUS
10
0.3383972047244094
20
-0.4550392519685039
11
0.3309001968503937
21
-0.4495923622047244
0
LINE
8
BLACK
6
CONTINUOUS
10
0.3309001968503937
20
-0.4495923622047244
11
0.3274951574803149
21
-0.4464447637795276
0
LINE
8
BLACK
6
CONTINUOUS
10
0.3274951574803149
20
-0.4464447637795276
11
0.132623188976378
21
-0.2515727952755906
0
LINE
8
BLACK
6
CONTINUOUS
10
0.132623188976378
20
-0.2515727952755906
11
0.1294755905511811
21
-0.2481677559055118
0
LINE
8
BLACK
6
CONTINUOUS
10
0.1294755905511811
20
-0.2481677559055118
11
0.1240287007874016
21
-0.240670748031496
0
LINE
8
BLACK
6
CONTINUOUS
10
0.1240287007874016
20
-0.240670748031496
11
0.1198216535433071
21
-0.232413937007874
0
LINE
8
BLACK
6
CONTINUOUS
10
0.1198216535433071
20
-0.232413937007874
11
0.1181177165354331
21
-0.227169842519685
0
LINE
8
BLACK
6
CONTINUOUS
10
0.1181177165354331
20
-0.227169842519685
11
0.0618511023622047
21
-0.1709032283464567
0
LINE
8
BLACK
6
CONTINUOUS
10
0.0618511023622047
20
-0.1709032283464567
11
0.0612585826771654
21
-0.1708608661417323
0
LINE
8
BLACK
6
CONTINUOUS
10
0.0612585826771654
20
-0.1708608661417323
11
0.0594844488188976
21
-0.1697206692913386
0
LINE
8
BLACK
6
CONTINUOUS
10
0.0594844488188976
20
-0.1697206692913386
11
-0.0042337795275591
21
-0.1060024409448819
0
LINE
8
BLACK
6
CONTINUOUS
10
-0.0042337795275591
20
-0.1060024409448819
11
-0.1160408267716535
21
-0.2178094488188976
0
LINE
8
BLACK
6
CONTINUOUS
10
-0.1160408267716535
20
-0.2178094488188976
11
-0.116958031496063
21
-0.2236006692913386
0
LINE
8
BLACK
6
CONTINUOUS
10
-0.116958031496063
20
-0.2236006692913386
11
-0.1198216535433071
21
-0.232413937007874
0
LINE
8
BLACK
6
CONTINUOUS
10
-0.1198216535433071
20
-0.232413937007874
11
-0.1240287007874016
21
-0.240670748031496
0
LINE
8
BLACK
6
CONTINUOUS
10
-0.1240287007874016
20
-0.240670748031496
11
-0.1294755905511811
21
-0.2481677559055118
0
LINE
8
BLACK
6
CONTINUOUS
10
-0.1294755905511811
20
-0.2481677559055118
11
-0.132623188976378
21
-0.2515727952755906
0
LINE
8
BLACK
6
CONTINUOUS
10
-0.132623188976378
20
-0.2515727952755906
11
-0.3274951574803149
21
-0.4464447637795276
0
LINE
8
BLACK
6
CONTINUOUS
10
-0.3274951574803149
20
-0.4464447637795276
11
-0.3309001968503937
21
-0.4495923622047244
0
LINE
8
BLACK
6
CONTINUOUS
10
-0.3309001968503937
20
-0.4495923622047244
11
-0.3383972047244094
21
-0.4550392519685039
0
LINE
8
BLACK
6
CONTINUOUS
10
-0.3383972047244094
20
-0.4550392519685039
11
-0.3466540157480315
21
-0.4592462992125984
0
LINE
8
BLACK
6
CONTINUOUS
10
-0.3466540157480315
20
-0.4592462992125984
11
-0.3554672834645669
21
-0.4621099212598425
0
LINE
8
BLACK
6
CONTINUOUS
10
-0.3554672834645669
20
-0.4621099212598425
11
-0.36462
21
-0.4635595669291339
0
LINE
8
BLACK
6
CONTINUOUS
10
-0.36462
20
-0.4635595669291339
11
-0.3738868503937008
21
-0.4635595669291339
0
LINE
8
BLACK
6
CONTINUOUS
10
-0.3738868503937008
20
-0.4635595669291339
11
-0.3830395669291338
21
-0.4621099212598425
0
LINE
8
BLACK
6
CONTINUOUS
10
-0.3830395669291338
20
-0.4621099212598425
11
-0.3918528346456693
21
-0.4592462992125984
0
LINE
8
BLACK
6
CONTINUOUS
10
-0.3918528346456693
20
-0.4592462992125984
11
-0.4001096456692913
21
-0.4550392519685039
0
LINE
8
BLACK
6
CONTINUOUS
10
-0.4001096456692913
20
-0.4550392519685039
11
-0.4076066535433071
21
-0.4495923622047244
0
LINE
8
BLACK
6
CONTINUOUS
10
-0.4076066535433071
20
-0.4495923622047244
11
-0.4141592913385826
21
-0.4430397244094488
0
LINE
8
BLACK
6
CONTINUOUS
10
-0.4141592913385826
20
-0.4430397244094488
11
-0.4196061811023622
21
-0.4355427165354331
0
LINE
8
BLACK
6
CONTINUOUS
10
-0.4196061811023622
20
-0.4355427165354331
11
-0.4238132283464567
21
-0.427285905511811
0
LINE
8
BLACK
6
CONTINUOUS
10
-0.4238132283464567
20
-0.427285905511811
11
-0.4266768503937008
21
-0.4184726377952756
0
LINE
8
BLACK
6
CONTINUOUS
10
-0.4266768503937008
20
-0.4184726377952756
11
-0.4281264960629921
21
-0.4093199212598425
0
LINE
8
BLACK
6
CONTINUOUS
10
-0.4281264960629921
20
-0.4093199212598425
11
-0.4281264960629921
21
-0.4000530708661417
0
LINE
8
BLACK
6
CONTINUOUS
10
-0.4281264960629921
20
-0.4000530708661417
11
-0.4266768503937008
21
-0.3909003543307086
0
LINE
8
BLACK
6
CONTINUOUS
10
-0.4266768503937008
20
-0.3909003543307086
11
-0.4238132283464567
21
-0.3820870866141732
0
LINE
8
BLACK
6
CONTINUOUS
10
-0.4238132283464567
20
-0.3820870866141732
11
-0.4196061811023622
21
-0.3738302755905512
0
LINE
8
BLACK
6
CONTINUOUS
10
-0.4196061811023622
20
-0.3738302755905512
11
-0.4141592913385826
21
-0.3663332677165354
0
LINE
8
BLACK
6
CONTINUOUS
10
-0.4141592913385826
20
-0.3663332677165354
11
-0.4110116929133858
21
-0.3629282283464567
0
LINE
8
BLACK
6
CONTINUOUS
10
-0.4110116929133858
20
-0.3629282283464567
11
-0.2161397244094488
21
-0.1680562598425197
0
LINE
8
BLACK
6
CONTINUOUS
10
-0.2161397244094488
20
-0.1680562598425197
11
-0.2127346850393701
21
-0.1649086614173228
0
LINE
8
BLACK
6
CONTINUOUS
10
-0.2127346850393701
20
-0.1649086614173228
11
-0.2052376771653543
21
-0.1594617716535433
0
LINE
8
BLACK
6
CONTINUOUS
10
-0.2052376771653543
20
-0.1594617716535433
11
-0.1969808661417323
21
-0.1552547244094488
0
LINE
8
BLACK
6
CONTINUOUS
10
-0.1969808661417323
20
-0.1552547244094488
11
-0.1881675984251968
21
-0.1523911023622047
0
LINE
8
BLACK
6
CONTINUOUS
10
-0.1881675984251968
20
-0.1523911023622047
11
-0.1790148818897638
21
-0.1509414566929134
0
LINE
8
BLACK
6
CONTINUOUS
10
-0.1790148818897638
20
-0.1509414566929134
11
-0.169748031496063
21
-0.1509414566929134
0
LINE
8
BLACK
6
CONTINUOUS
10
-0.169748031496063
20
-0.1509414566929134
11
-0.1665953149606299
21
-0.1514407874015748
0
LINE
8
BLACK
6
CONTINUOUS
10
-0.1665953149606299
20
-0.1514407874015748
11
-0.0331677952755906
21
-0.0180133070866142
0
LINE
8
BLACK
6
CONTINUOUS
10
-0.0331677952755906
20
-0.0180133070866142
11
-0.0301619291338583
21
-0.015288937007874
0
LINE
8
BLACK
6
CONTINUOUS
10
-0.0301619291338583
20
-0.015288937007874
11
-0.0234238582677165
21
-0.0107867322834646
0
LINE
8
BLACK
6
CONTINUOUS
10
-0.0234238582677165
20
-0.0107867322834646
11
-0.0159369291338583
21
-0.0076855511811024
0
LINE
8
BLACK
6
CONTINUOUS
10
-0.0159369291338583
20
-0.0076855511811024
11
-0.0079888976377953
21
-0.0061045669291339
0
LINE
8
BLACK
6
CONTINUOUS
10
-0.0079888976377953
20
-0.0061045669291339
11
0.0001148818897638
21
-0.0061045669291339
0
LINE
8
BLACK
6
CONTINUOUS
10
0.0001148818897638
20
-0.0061045669291339
11
0.0080629133858268
21
-0.0076855511811024
0
LINE
8
BLACK
6
CONTINUOUS
10
0.4330696062992126
20
0.0435159448818898
11
0.4406398031496063
21
0.0412195669291339
0
LINE
8
BLACK
6
CONTINUOUS
10
0.4406398031496063
20
0.0412195669291339
11
0.4476164960629921
21
0.0374903937007874
0
LINE
8
BLACK
6
CONTINUOUS
10
0.4476164960629921
20
0.0374903937007874
11
0.4537316535433071
21
0.032471811023622
0
LINE
8
BLACK
6
CONTINUOUS
10
0.4537316535433071
20
0.032471811023622
11
0.4587502362204725
21
0.0263566535433071
0
LINE
8
BLACK
6
CONTINUOUS
10
0.4587502362204725
20
0.0263566535433071
11
0.4624794094488189
21
0.0193799606299213
0
LINE
8
BLACK
6
CONTINUOUS
10
0.4624794094488189
20
0.0193799606299213
11
0.4647757874015748
21
0.0118097637795276
0
LINE
8
BLACK
6
CONTINUOUS
10
0.4647757874015748
20
0.0118097637795276
11
0.4655511811023622
21
0.0039370078740157
0
LINE
8
BLACK
6
CONTINUOUS
10
0.4655511811023622
20
0.0039370078740157
11
0.4647757874015748
21
-0.0039357480314961
0
LINE
8
BLACK
6
CONTINUOUS
10
0.4647757874015748
20
-0.0039357480314961
11
0.4624794094488189
21
-0.0115059448818898
0
LINE
8
BLACK
6
CONTINUOUS
10
0.4624794094488189
20
-0.0115059448818898
11
0.4587502362204725
21
-0.0184826377952756
0
LINE
8
BLACK
6
CONTINUOUS
10
0.4587502362204725
20
-0.0184826377952756
11
0.4537316535433071
21
-0.0245977952755905
0
LINE
8
BLACK
6
CONTINUOUS
10
0.4537316535433071
20
-0.0245977952755905
11
0.4476164960629921
21
-0.0296163779527559
0
LINE
8
BLACK
6
CONTINUOUS
10
0.4476164960629921
20
-0.0296163779527559
11
0.4406398031496063
21
-0.0333455511811024
0
LINE
8
BLACK
6
CONTINUOUS
10
0.4406398031496063
20
-0.0333455511811024
11
0.4330696062992126
21
-0.0356419291338583
0
LINE
8
BLACK
6
CONTINUOUS
10
0.4330696062992126
20
-0.0356419291338583
11
0.4251968503937008
21
-0.0364173228346457
0
LINE
8
BLACK
6
CONTINUOUS
10
0.4251968503937008
20
-0.0364173228346457
11
0.417324094488189
21
-0.0356419291338583
0
LINE
8
BLACK
6
CONTINUOUS
10
0.417324094488189
20
-0.0356419291338583
11
0.4097538976377952
21
-0.0333455511811024
0
LINE
8
BLACK
6
CONTINUOUS
10
0.4097538976377952
20
-0.0333455511811024
11
0.4027772047244094
21
-0.0296163779527559
0
LINE
8
BLACK
6
CONTINUOUS
10
0.4027772047244094
20
-0.0296163779527559
11
0.3966620472440945
21
-0.0245977952755905
0
LINE
8
BLACK
6
CONTINUOUS
10
0.3966620472440945
20
-0.0245977952755905
11
0.3916434645669291
21
-0.0184826377952756
0
LINE
8
BLACK
6
CONTINUOUS
10
0.3916434645669291
20
-0.0184826377952756
11
0.3879142913385827
21
-0.0115059448818898
0
LINE
8
BLACK
6
CONTINUOUS
10
0.3879142913385827
20
-0.0115059448818898
11
0.3856179133858267
21
-0.0039357480314961
0
LINE
8
BLACK
6
CONTINUOUS
10
0.3856179133858267
20
-0.0039357480314961
11
0.3848425196850394
21
0.0039370078740157
0
LINE
8
BLACK
6
CONTINUOUS
10
0.3848425196850394
20
0.0039370078740157
11
0.3856179133858267
21
0.0118097637795276
0
LINE
8
BLACK
6
CONTINUOUS
10
0.3856179133858267
20
0.0118097637795276
11
0.3879142913385827
21
0.0193799606299213
0
LINE
8
BLACK
6
CONTINUOUS
10
0.3879142913385827
20
0.0193799606299213
11
0.3916434645669291
21
0.0263566535433071
0
LINE
8
BLACK
6
CONTINUOUS
10
0.3916434645669291
20
0.0263566535433071
11
0.3966620472440945
21
0.032471811023622
0
LINE
8
BLACK
6
CONTINUOUS
10
0.3966620472440945
20
0.032471811023622
11
0.4027772047244094
21
0.0374903937007874
0
LINE
8
BLACK
6
CONTINUOUS
10
0.4027772047244094
20
0.0374903937007874
11
0.4097538976377952
21
0.0412195669291339
0
LINE
8
BLACK
6
CONTINUOUS
10
0.4097538976377952
20
0.0412195669291339
11
0.417324094488189
21
0.0435159448818898
0
LINE
8
BLACK
6
CONTINUOUS
10
0.417324094488189
20
0.0435159448818898
11
0.4251968503937008
21
0.0442913385826772
0
LINE
8
BLACK
6
CONTINUOUS
10
0.4251968503937008
20
0.0442913385826772
11
0.4330696062992126
21
0.0435159448818898
0
LINE
8
BLACK
6
CONTINUOUS
10
0.5857172440944882
20
0.1803148818897638
11
0.5875476771653543
21
0.1782024409448819
0
LINE
8
BLACK
6
CONTINUOUS
10
0.5875476771653543
20
0.1782024409448819
11
0.5878044488188976
21
0.1775066929133858
0
LINE
8
BLACK
6
CONTINUOUS
10
0.5878044488188976
20
0.1775066929133858
11
0.5940310236220472
21
0.1557458661417323
0
LINE
8
BLACK
6
CONTINUOUS
10
0.5940310236220472
20
0.1557458661417323
11
0.5945132283464567
21
0.1540606692913386
0
LINE
8
BLACK
6
CONTINUOUS
10
0.5945132283464567
20
0.1540606692913386
11
0.594576220472441
21
0.1538173622047244
0
LINE
8
BLACK
6
CONTINUOUS
10
0.594576220472441
20
0.1538173622047244
11
0.5997478346456693
21
0.1315312598425197
0
LINE
8
BLACK
6
CONTINUOUS
10
0.5997478346456693
20
0.1315312598425197
11
0.5998762204724409
21
0.1304099212598425
0
LINE
8
BLACK
6
CONTINUOUS
10
0.5998762204724409
20
0.1304099212598425
11
0.5998762204724409
21
-0.130409842519685
0
LINE
8
BLACK
6
CONTINUOUS
10
0.5998762204724409
20
-0.130409842519685
11
0.5997478346456693
21
-0.1315311811023622
0
LINE
8
BLACK
6
CONTINUOUS
10
0.5997478346456693
20
-0.1315311811023622
11
0.5945764173228346
21
-0.1538165748031496
0
LINE
8
BLACK
6
CONTINUOUS
10
0.5945764173228346
20
-0.1538165748031496
11
0.5945134251968504
21
-0.1540598818897638
0
LINE
8
BLACK
6
CONTINUOUS
10
0.5945134251968504
20
-0.1540598818897638
11
0.5900575984251968
21
-0.1696323622047244
0
LINE
8
BLACK
6
CONTINUOUS
10
0.5900575984251968
20
-0.1696323622047244
11
0.588562716535433
21
-0.1719941732283465
0
LINE
8
BLACK
6
CONTINUOUS
10
0.588562716535433
20
-0.1719941732283465
11
0.5860282283464566
21
-0.173172874015748
0
LINE
8
BLACK
6
CONTINUOUS
10
0.5860282283464566
20
-0.173172874015748
11
0.5852883464566929
21
-0.1732283464566929
0
LINE
8
BLACK
6
CONTINUOUS
10
0.5852883464566929
20
-0.1732283464566929
11
0.2932563779527559
21
-0.1732283464566929
0
LINE
8
BLACK
6
CONTINUOUS
10
0.2932563779527559
20
-0.1732283464566929
11
0.2905744488188977
21
-0.1724408661417323
0
LINE
8
BLACK
6
CONTINUOUS
10
0.2905744488188977
20
-0.1724408661417323
11
0.2899194881889764
21
-0.1719382677165354
0
LINE
8
BLACK
6
CONTINUOUS
10
0.2899194881889764
20
-0.1719382677165354
11
0.2564783464566929
21
-0.1415372440944882
0
LINE
8
BLACK
6
CONTINUOUS
10
0.2564783464566929
20
-0.1415372440944882
11
0.2064566929133858
21
-0.0960629921259843
0
LINE
8
BLACK
6
CONTINUOUS
10
0.2064566929133858
20
-0.0960629921259843
11
0.2047244094488189
21
-0.094488188976378
0
LINE
8
BLACK
6
CONTINUOUS
10
0.2047244094488189
20
-0.094488188976378
11
0.158503937007874
21
-0.094488188976378
0
LINE
8
BLACK
6
CONTINUOUS
10
0.158503937007874
20
-0.094488188976378
11
0.1558220078740157
21
-0.0937007086614173
0
LINE
8
BLACK
6
CONTINUOUS
10
0.1558220078740157
20
-0.0937007086614173
11
0.1539915748031496
21
-0.0915882677165354
0
LINE
8
BLACK
6
CONTINUOUS
10
0.1539915748031496
20
-0.0915882677165354
11
0.1535433070866142
21
-0.0895275590551181
0
LINE
8
BLACK
6
CONTINUOUS
10
0.1535433070866142
20
-0.0895275590551181
11
0.1535433070866142
21
-0.0734251968503937
0
LINE
8
BLACK
6
CONTINUOUS
10
0.1535433070866142
20
-0.0734251968503937
11
0.1437007874015748
21
-0.0734251968503937
0
LINE
8
BLACK
6
CONTINUOUS
10
0.1437007874015748
20
-0.0734251968503937
11
0.1437007874015748
21
-0.0911417322834646
0
LINE
8
BLACK
6
CONTINUOUS
10
0.1437007874015748
20
-0.0911417322834646
11
0.1137795275590551
21
-0.0911417322834646
0
LINE
8
BLACK
6
CONTINUOUS
10
0.1137795275590551
20
-0.0911417322834646
11
0.1137795275590551
21
-0.0360236220472441
0
LINE
8
BLACK
6
CONTINUOUS
10
0.1137795275590551
20
-0.0360236220472441
11
0.1188976377952756
21
-0.0360236220472441
0
LINE
8
BLACK
6
CONTINUOUS
10
0.1188976377952756
20
-0.0360236220472441
11
0.1188976377952756
21
-0.0261811023622047
0
LINE
8
BLACK
6
CONTINUOUS
10
0.1188976377952756
20
-0.0261811023622047
11
0.1128099606299213
21
-0.0261811023622047
0
LINE
8
BLACK
6
CONTINUOUS
10
0.1128099606299213
20
-0.0261811023622047
11
0.1099391732283465
21
-0.026752125984252
0
LINE
8
BLACK
6
CONTINUOUS
10
0.1099391732283465
20
-0.026752125984252
11
0.1065138188976378
21
-0.0290408661417323
0
LINE
8
BLACK
6
CONTINUOUS
10
0.1065138188976378
20
-0.0290408661417323
11
0.1038463779527559
21
-0.029876062992126
0
LINE
8
BLACK
6
CONTINUOUS
10
0.1038463779527559
20
-0.029876062992126
11
0.1011508267716535
21
-0.0291365354330709
0
LINE
8
BLACK
6
CONTINUOUS
10
0.1011508267716535
20
-0.0291365354330709
11
0.1010019291338583
21
-0.0290408661417323
0
LINE
8
BLACK
6
CONTINUOUS
10
0.1010019291338583
20
-0.0290408661417323
11
0.0975487795275591
21
-0.0267335826771654
0
LINE
8
BLACK
6
CONTINUOUS
10
0.0975487795275591
20
-0.0267335826771654
11
0.0946723228346457
21
-0.0261614173228346
0
LINE
8
BLACK
6
CONTINUOUS
10
0.0946723228346457
20
-0.0261614173228346
11
0.0946722047244094
21
-0.0261614173228346
0
LINE
8
BLACK
6
CONTINUOUS
10
0.0946722047244094
20
-0.0261614173228346
11
0.0679527559055118
21
-0.0261614173228346
0
LINE
8
BLACK
6
CONTINUOUS
10
0.0679527559055118
20
-0.0261614173228346
11
0.0652708267716535
21
-0.025373937007874
0
LINE
8
BLACK
6
CONTINUOUS
10
0.0652708267716535
20
-0.025373937007874
11
0.0634403937007874
21
-0.0232614960629921
0
LINE
8
BLACK
6
CONTINUOUS
10
0.0634403937007874
20
-0.0232614960629921
11
0.062992125984252
21
-0.0212007874015748
0
LINE
8
BLACK
6
CONTINUOUS
10
0.062992125984252
20
-0.0212007874015748
11
0.062992125984252
21
0.0039370078740157
0
LINE
8
BLACK
6
CONTINUOUS
10
0.062992125984252
20
0.0039370078740157
11
0.062992125984252
21
0.0475836614173228
0
LINE
8
BLACK
6
CONTINUOUS
10
0.062992125984252
20
0.0475836614173228
11
0.0637796062992126
21
0.0502655905511811
0
LINE
8
BLACK
6
CONTINUOUS
10
0.0637796062992126
20
0.0502655905511811
11
0.0644448818897638
21
0.0510911811023622
0
LINE
8
BLACK
6
CONTINUOUS
10
0.0644448818897638
20
0.0510911811023622
11
0.0882663779527559
21
0.0749126377952756
0
LINE
8
BLACK
6
CONTINUOUS
10
0.0882663779527559
20
0.0749126377952756
11
0.0882663779527559
21
0.0749126771653543
0
LINE
8
BLACK
6
CONTINUOUS
10
0.0882663779527559
20
0.0749126771653543
11
0.0939608661417323
21
0.0806072047244095
0
LINE
8
BLACK
6
CONTINUOUS
10
0.0939608661417323
20
0.0806072047244095
11
0.0964140157480315
21
0.0819467322834646
0
LINE
8
BLACK
6
CONTINUOUS
10
0.0964140157480315
20
0.0819467322834646
11
0.0992020078740157
21
0.0817473228346457
0
LINE
8
BLACK
6
CONTINUOUS
10
0.0992020078740157
20
0.0817473228346457
11
0.1014396456692913
21
0.0800722440944882
0
LINE
8
BLACK
6
CONTINUOUS
10
0.1014396456692913
20
0.0800722440944882
11
0.1024164566929134
21
0.0774533464566929
0
LINE
8
BLACK
6
CONTINUOUS
10
0.1024164566929134
20
0.0774533464566929
11
0.1023337795275591
21
0.0761317322834646
0
LINE
8
BLACK
6
CONTINUOUS
10
0.1023337795275591
20
0.0761317322834646
11
0.1019291338582677
21
0.0740975196850394
0
LINE
8
BLACK
6
CONTINUOUS
10
0.1019291338582677
20
0.0740975196850394
11
0.1019291338582677
21
0.0688161023622047
0
LINE
8
BLACK
6
CONTINUOUS
10
0.1019291338582677
20
0.0688161023622047
11
0.1029594881889764
21
0.0636362598425197
0
LINE
8
BLACK
6
CONTINUOUS
10
0.1029594881889764
20
0.0636362598425197
11
0.1029594881889764
21
0.0636362204724409
0
LINE
8
BLACK
6
CONTINUOUS
10
0.1029594881889764
20
0.0636362204724409
11
0.1035397244094488
21
0.0622354330708661
0
LINE
8
BLACK
6
CONTINUOUS
10
0.1035397244094488
20
0.0622354330708661
11
0.1039173228346457
21
0.0603370866141732
0
LINE
8
BLACK
6
CONTINUOUS
10
0.1039173228346457
20
0.0603370866141732
11
0.1039173228346457
21
0.0429261023622047
0
LINE
8
BLACK
6
CONTINUOUS
10
0.1039173228346457
20
0.0429261023622047
11
0.1044894881889764
21
0.0400496456692913
0
LINE
8
BLACK
6
CONTINUOUS
10
0.1044894881889764
20
0.0400496456692913
11
0.1044895275590551
21
0.0400496062992126
0
LINE
8
BLACK
6
CONTINUOUS
10
0.1044895275590551
20
0.0400496062992126
11
0.1066692519685039
21
0.0367873622047244
0
LINE
8
BLACK
6
CONTINUOUS
10
0.1066692519685039
20
0.0367873622047244
11
0.1099314960629921
21
0.0346076377952756
0
LINE
8
BLACK
6
CONTINUOUS
10
0.1099314960629921
20
0.0346076377952756
11
0.1128081102362205
21
0.0340354330708661
0
LINE
8
BLACK
6
CONTINUOUS
10
0.1128081102362205
20
0.0340354330708661
11
0.1446722047244094
21
0.0340354330708661
0
LINE
8
BLACK
6
CONTINUOUS
10
0.1446722047244094
20
0.0340354330708661
11
0.1475488188976378
21
0.0346076377952756
0
LINE
8
BLACK
6
CONTINUOUS
10
0.1475488188976378
20
0.0346076377952756
11
0.150811062992126
21
0.0367873622047244
0
LINE
8
BLACK
6
CONTINUOUS
10
0.150811062992126
20
0.0367873622047244
11
0.1529907874015748
21
0.0400496062992126
0
LINE
8
BLACK
6
CONTINUOUS
10
0.1529907874015748
20
0.0400496062992126
11
0.1531107874015748
21
0.040652874015748
0
LINE
8
BLACK
6
CONTINUOUS
10
0.1531107874015748
20
0.040652874015748
11
0.1544063779527559
21
0.0431296062992126
0
LINE
8
BLACK
6
CONTINUOUS
10
0.1544063779527559
20
0.0431296062992126
11
0.1568353543307087
21
0.0445127165354331
0
LINE
8
BLACK
6
CONTINUOUS
10
0.1568353543307087
20
0.0445127165354331
11
0.1579761023622047
21
0.0446456692913386
0
LINE
8
BLACK
6
CONTINUOUS
10
0.1579761023622047
20
0.0446456692913386
11
0.1582962204724409
21
0.0446456692913386
0
LINE
8
BLACK
6
CONTINUOUS
10
0.1582962204724409
20
0.0446456692913386
11
0.1609781496062992
21
0.043858188976378
0
LINE
8
BLACK
6
CONTINUOUS
10
0.1609781496062992
20
0.043858188976378
11
0.1618038976377953
21
0.0431927559055118
0
LINE
8
BLACK
6
CONTINUOUS
10
0.1618038976377953
20
0.0431927559055118
11
0.1718853543307086
21
0.0331112598425197
0
LINE
8
BLACK
6
CONTINUOUS
10
0.1718853543307086
20
0.0331112598425197
11
0.1762766141732283
21
0.0301771653543307
0
LINE
8
BLACK
6
CONTINUOUS
10
0.1762766141732283
20
0.0301771653543307
11
0.181155905511811
21
0.0281561023622047
0
LINE
8
BLACK
6
CONTINUOUS
10
0.181155905511811
20
0.0281561023622047
11
0.1863357480314961
21
0.0271257480314961
0
LINE
8
BLACK
6
CONTINUOUS
10
0.1863357480314961
20
0.0271257480314961
11
0.1916170472440945
21
0.0271257480314961
0
LINE
8
BLACK
6
CONTINUOUS
10
0.1916170472440945
20
0.0271257480314961
11
0.1967968897637795
21
0.0281561023622047
0
LINE
8
BLACK
6
CONTINUOUS
10
0.1967968897637795
20
0.0281561023622047
11
0.2016761811023622
21
0.0301771653543307
0
LINE
8
BLACK
6
CONTINUOUS
10
0.2016761811023622
20
0.0301771653543307
11
0.2060674015748031
21
0.0331112598425197
0
LINE
8
BLACK
6
CONTINUOUS
10
0.2060674015748031
20
0.0331112598425197
11
0.2098018897637795
21
0.0368457480314961
0
LINE
8
BLACK
6
CONTINUOUS
10
0.2098018897637795
20
0.0368457480314961
11
0.2127359842519685
21
0.041236968503937
0
LINE
8
BLACK
6
CONTINUOUS
10
0.2127359842519685
20
0.041236968503937
11
0.2147570472440945
21
0.0461162598425197
0
LINE
8
BLACK
6
CONTINUOUS
10
0.2147570472440945
20
0.0461162598425197
11
0.2157874015748031
21
0.0512961023622047
0
LINE
8
BLACK
6
CONTINUOUS
10
0.2157874015748031
20
0.0512961023622047
11
0.2157874015748031
21
0.0565774015748031
0
LINE
8
BLACK
6
CONTINUOUS
10
0.2157874015748031
20
0.0565774015748031
11
0.2147570472440945
21
0.0617572440944882
0
LINE
8
BLACK
6
CONTINUOUS
10
0.2147570472440945
20
0.0617572440944882
11
0.2127359842519685
21
0.0666365354330709
0
LINE
8
BLACK
6
CONTINUOUS
10
0.2127359842519685
20
0.0666365354330709
11
0.2098018897637795
21
0.0710277952755906
0
LINE
8
BLACK
6
CONTINUOUS
10
0.2098018897637795
20
0.0710277952755906
11
0.1885474803149606
21
0.0922821653543307
0
LINE
8
BLACK
6
CONTINUOUS
10
0.1885474803149606
20
0.0922821653543307
11
0.1870585826771654
21
0.0932770078740157
0
LINE
8
BLACK
6
CONTINUOUS
10
0.1870585826771654
20
0.0932770078740157
11
0.1852661811023622
21
0.0954217322834646
0
LINE
8
BLACK
6
CONTINUOUS
10
0.1852661811023622
20
0.0954217322834646
11
0.1849178346456693
21
0.0981950787401575
0
LINE
8
BLACK
6
CONTINUOUS
10
0.1849178346456693
20
0.0981950787401575
11
0.1861242125984252
21
0.1007164960629921
0
LINE
8
BLACK
6
CONTINUOUS
10
0.1861242125984252
20
0.1007164960629921
11
0.1885022047244095
21
0.1021854330708661
0
LINE
8
BLACK
6
CONTINUOUS
10
0.1885022047244095
20
0.1021854330708661
11
0.1898146062992126
21
0.1023622047244094
0
LINE
8
BLACK
6
CONTINUOUS
10
0.1898146062992126
20
0.1023622047244094
11
0.2047244094488189
21
0.1023622047244094
0
LINE
8
BLACK
6
CONTINUOUS
10
0.2047244094488189
20
0.1023622047244094
11
0.2064566929133858
21
0.1039370078740157
0
LINE
8
BLACK
6
CONTINUOUS
10
0.2064566929133858
20
0.1039370078740157
11
0.2899194881889764
21
0.1798123228346457
0
LINE
8
BLACK
6
CONTINUOUS
10
0.2899194881889764
20
0.1798123228346457
11
0.2924336614173229
21
0.1810336614173228
0
LINE
8
BLACK
6
CONTINUOUS
10
0.2924336614173229
20
0.1810336614173228
11
0.2932563779527559
21
0.1811023622047244
0
LINE
8
BLACK
6
CONTINUOUS
10
0.2932563779527559
20
0.1811023622047244
11
0.5830353149606299
21
0.1811023622047244
0
LINE
8
BLACK
6
CONTINUOUS
10
0.5830353149606299
20
0.1811023622047244
11
0.5857172440944882
21
0.1803148818897638
0
LINE
8
BLACK
6
CONTINUOUS
10
0.2944494094488189
20
-0.1407297637795276
11
0.2954870078740157
21
-0.1415373622047244
0
LINE
8
BLACK
6
CONTINUOUS
10
0.2954870078740157
20
-0.1415373622047244
11
0.2954870472440945
21
-0.1415374015748032
0
LINE
8
BLACK
6
CONTINUOUS
10
0.2954870472440945
20
-0.1415374015748032
11
0.3033770078740157
21
-0.1458071653543307
0
LINE
8
BLACK
6
CONTINUOUS
10
0.3033770078740157
20
-0.1458071653543307
11
0.3033770866141732
21
-0.1458072440944882
0
LINE
8
BLACK
6
CONTINUOUS
10
0.3033770866141732
20
-0.1458072440944882
11
0.3118622440944882
21
-0.1487201574803149
0
LINE
8
BLACK
6
CONTINUOUS
10
0.3118622440944882
20
-0.1487201574803149
11
0.3207113385826771
21
-0.1501968503937008
0
LINE
8
BLACK
6
CONTINUOUS
10
0.3207113385826771
20
-0.1501968503937008
11
0.3296823622047244
21
-0.1501968503937008
0
LINE
8
BLACK
6
CONTINUOUS
10
0.3296823622047244
20
-0.1501968503937008
11
0.3385314173228346
21
-0.1487201574803149
0
LINE
8
BLACK
6
CONTINUOUS
10
0.3385314173228346
20
-0.1487201574803149
11
0.3385314566929134
21
-0.1487201574803149
0
LINE
8
BLACK
6
CONTINUOUS
10
0.3385314566929134
20
-0.1487201574803149
11
0.3470165748031496
21
-0.1458072440944882
0
LINE
8
BLACK
6
CONTINUOUS
10
0.3470165748031496
20
-0.1458072440944882
11
0.3470166535433071
21
-0.1458071653543307
0
LINE
8
BLACK
6
CONTINUOUS
10
0.3470166535433071
20
-0.1458071653543307
11
0.3549066535433071
21
-0.1415373622047244
0
LINE
8
BLACK
6
CONTINUOUS
10
0.3549066535433071
20
-0.1415373622047244
11
0.354906811023622
21
-0.1415372440944882
0
LINE
8
BLACK
6
CONTINUOUS
10
0.354906811023622
20
-0.1415372440944882
11
0.3559442125984252
21
-0.1407297637795276
0
LINE
8
BLACK
6
CONTINUOUS
10
0.3559442125984252
20
-0.1407297637795276
11
0.3559442519685039
21
-0.1407297637795276
0
LINE
8
BLACK
6
CONTINUOUS
10
0.3559442519685039
20
-0.1407297637795276
11
0.3486362992125984
21
-0.1334218110236221
0
LINE
8
BLACK
6
CONTINUOUS
10
0.3486362992125984
20
-0.1334218110236221
11
0.3449392125984252
21
-0.1357109842519685
0
LINE
8
BLACK
6
CONTINUOUS
10
0.3449392125984252
20
-0.1357109842519685
11
0.3373177559055118
21
-0.1386635433070866
0
LINE
8
BLACK
6
CONTINUOUS
10
0.3373177559055118
20
-0.1386635433070866
11
0.3292835433070866
21
-0.1401653937007874
0
LINE
8
BLACK
6
CONTINUOUS
10
0.3292835433070866
20
-0.1401653937007874
11
0.321110157480315
21
-0.1401653937007874
0
LINE
8
BLACK
6
CONTINUOUS
10
0.321110157480315
20
-0.1401653937007874
11
0.3130759448818898
21
-0.1386635433070866
0
LINE
8
BLACK
6
CONTINUOUS
10
0.3130759448818898
20
-0.1386635433070866
11
0.3054544881889764
21
-0.1357109842519685
0
LINE
8
BLACK
6
CONTINUOUS
10
0.3054544881889764
20
-0.1357109842519685
11
0.3017573622047244
21
-0.1334217716535433
0
LINE
8
BLACK
6
CONTINUOUS
10
0.3017573622047244
20
-0.1334217716535433
11
0.2944494094488189
21
-0.1407297637795276
0
LINE
8
BLACK
6
CONTINUOUS
10
0.4944494094488189
20
-0.1407297637795276
11
0.4954870078740157
21
-0.1415373622047244
0
LINE
8
BLACK
6
CONTINUOUS
10
0.4954870078740157
20
-0.1415373622047244
11
0.4954870472440945
21
-0.1415374015748032
0
LINE
8
BLACK
6
CONTINUOUS
10
0.4954870472440945
20
-0.1415374015748032
11
0.5033770078740157
21
-0.1458071653543307
0
LINE
8
BLACK
6
CONTINUOUS
10
0.5033770078740157
20
-0.1458071653543307
11
0.5033770866141732
21
-0.1458072440944882
0
LINE
8
BLACK
6
CONTINUOUS
10
0.5033770866141732
20
-0.1458072440944882
11
0.5118622440944882
21
-0.1487201574803149
0
LINE
8
BLACK
6
CONTINUOUS
10
0.5118622440944882
20
-0.1487201574803149
11
0.5207113385826772
21
-0.1501968503937008
0
LINE
8
BLACK
6
CONTINUOUS
10
0.5207113385826772
20
-0.1501968503937008
11
0.5296823622047244
21
-0.1501968503937008
0
LINE
8
BLACK
6
CONTINUOUS
10
0.5296823622047244
20
-0.1501968503937008
11
0.5385314173228346
21
-0.1487201574803149
0
LINE
8
BLACK
6
CONTINUOUS
10
0.5385314173228346
20
-0.1487201574803149
11
0.5385314566929134
21
-0.1487201574803149
0
LINE
8
BLACK
6
CONTINUOUS
10
0.5385314566929134
20
-0.1487201574803149
11
0.5470165748031496
21
-0.1458072440944882
0
LINE
8
BLACK
6
CONTINUOUS
10
0.5470165748031496
20
-0.1458072440944882
11
0.5470166535433071
21
-0.1458071653543307
0
LINE
8
BLACK
6
CONTINUOUS
10
0.5470166535433071
20
-0.1458071653543307
11
0.554906653543307
21
-0.1415373622047244
0
LINE
8
BLACK
6
CONTINUOUS
10
0.554906653543307
20
-0.1415373622047244
11
0.554906811023622
21
-0.1415372440944882
0
LINE
8
BLACK
6
CONTINUOUS
10
0.554906811023622
20
-0.1415372440944882
11
0.5559442125984252
21
-0.1407297637795276
0
LINE
8
BLACK
6
CONTINUOUS
10
0.5559442125984252
20
-0.1407297637795276
11
0.5559442519685039
21
-0.1407297637795276
0
LINE
8
BLACK
6
CONTINUOUS
10
0.5559442519685039
20
-0.1407297637795276
11
0.5486362992125984
21
-0.1334218110236221
0
LINE
8
BLACK
6
CONTINUOUS
10
0.5486362992125984
20
-0.1334218110236221
11
0.5449392125984251
21
-0.1357109842519685
0
LINE
8
BLACK
6
CONTINUOUS
10
0.5449392125984251
20
-0.1357109842519685
11
0.5373177559055118
21
-0.1386635433070866
0
LINE
8
BLACK
6
CONTINUOUS
10
0.5373177559055118
20
-0.1386635433070866
11
0.5292835433070866
21
-0.1401653937007874
0
LINE
8
BLACK
6
CONTINUOUS
10
0.5292835433070866
20
-0.1401653937007874
11
0.521110157480315
21
-0.1401653937007874
0
LINE
8
BLACK
6
CONTINUOUS
10
0.521110157480315
20
-0.1401653937007874
11
0.5130759448818898
21
-0.1386635433070866
0
LINE
8
BLACK
6
CONTINUOUS
10
0.5130759448818898
20
-0.1386635433070866
11
0.5054544881889763
21
-0.1357109842519685
0
LINE
8
BLACK
6
CONTINUOUS
10
0.5054544881889763
20
-0.1357109842519685
11
0.5017573622047244
21
-0.1334217716535433
0
LINE
8
BLACK
6
CONTINUOUS
10
0.5017573622047244
20
-0.1334217716535433
11
0.4944494094488189
21
-0.1407297637795276
0
LINE
8
BLACK
6
CONTINUOUS
10
0.2805855905511811
20
-0.0653711811023622
11
0.2774245669291339
21
-0.0702094881889764
0
LINE
8
BLACK
6
CONTINUOUS
10
0.2774245669291339
20
-0.0702094881889764
11
0.2774242913385827
21
-0.0702100393700787
0
LINE
8
BLACK
6
CONTINUOUS
10
0.2774242913385827
20
-0.0702100393700787
11
0.2738207086614173
21
-0.0784253543307087
0
LINE
8
BLACK
6
CONTINUOUS
10
0.2738207086614173
20
-0.0784253543307087
11
0.2738206299212598
21
-0.0784255118110236
0
LINE
8
BLACK
6
CONTINUOUS
10
0.2738206299212598
20
-0.0784255118110236
11
0.2716183464566929
21
-0.0871220866141732
0
LINE
8
BLACK
6
CONTINUOUS
10
0.2716183464566929
20
-0.0871220866141732
11
0.2708774803149606
21
-0.0960629921259843
0
LINE
8
BLACK
6
CONTINUOUS
10
0.2708774803149606
20
-0.0960629921259843
11
0.2716183464566929
21
-0.1050038582677165
0
LINE
8
BLACK
6
CONTINUOUS
10
0.2716183464566929
20
-0.1050038582677165
11
0.2738206299212598
21
-0.1137004330708661
0
LINE
8
BLACK
6
CONTINUOUS
10
0.2738206299212598
20
-0.1137004330708661
11
0.2738207086614173
21
-0.1137005905511811
0
LINE
8
BLACK
6
CONTINUOUS
10
0.2738207086614173
20
-0.1137005905511811
11
0.2774243700787402
21
-0.1219161023622047
0
LINE
8
BLACK
6
CONTINUOUS
10
0.2774243700787402
20
-0.1219161023622047
11
0.2805855905511811
21
-0.1267547244094488
0
LINE
8
BLACK
6
CONTINUOUS
10
0.2805855905511811
20
-0.1267547244094488
11
0.2805856299212598
21
-0.1267547244094488
0
LINE
8
BLACK
6
CONTINUOUS
10
0.2805856299212598
20
-0.1267547244094488
11
0.2877208661417323
21
-0.1196194094488189
0
LINE
8
BLACK
6
CONTINUOUS
10
0.2877208661417323
20
-0.1196194094488189
11
0.2875396062992126
21
-0.1193793700787402
0
LINE
8
BLACK
6
CONTINUOUS
10
0.2875396062992126
20
-0.1193793700787402
11
0.2838964173228347
21
-0.112062874015748
0
LINE
8
BLACK
6
CONTINUOUS
10
0.2838964173228347
20
-0.112062874015748
11
0.2816596456692914
21
-0.1042014960629921
0
LINE
8
BLACK
6
CONTINUOUS
10
0.2816596456692914
20
-0.1042014960629921
11
0.2809055118110236
21
-0.0960629921259843
0
LINE
8
BLACK
6
CONTINUOUS
10
0.2809055118110236
20
-0.0960629921259843
11
0.2816596456692914
21
-0.0879244881889764
0
LINE
8
BLACK
6
CONTINUOUS
10
0.2816596456692914
20
-0.0879244881889764
11
0.2838964173228347
21
-0.0800631102362205
0
LINE
8
BLACK
6
CONTINUOUS
10
0.2838964173228347
20
-0.0800631102362205
11
0.2875396062992126
21
-0.0727466141732283
0
LINE
8
BLACK
6
CONTINUOUS
10
0.2875396062992126
20
-0.0727466141732283
11
0.2877209448818898
21
-0.0725064566929134
0
LINE
8
BLACK
6
CONTINUOUS
10
0.2877209448818898
20
-0.0725064566929134
11
0.2805856299212598
21
-0.0653711417322835
0
LINE
8
BLACK
6
CONTINUOUS
10
0.2805856299212598
20
-0.0653711417322835
11
0.2805855905511811
21
-0.0653711811023622
0
LINE
8
BLACK
6
CONTINUOUS
10
0.362672716535433
20
-0.0725064173228346
11
0.3628540944881889
21
-0.0727466141732283
0
LINE
8
BLACK
6
CONTINUOUS
10
0.3628540944881889
20
-0.0727466141732283
11
0.3664972834645669
21
-0.0800631102362205
0
LINE
8
BLACK
6
CONTINUOUS
10
0.3664972834645669
20
-0.0800631102362205
11
0.3687340551181102
21
-0.0879244881889764
0
LINE
8
BLACK
6
CONTINUOUS
10
0.3687340551181102
20
-0.0879244881889764
11
0.3694881889763779
21
-0.0960629921259843
0
LINE
8
BLACK
6
CONTINUOUS
10
0.3694881889763779
20
-0.0960629921259843
11
0.3687340551181102
21
-0.1042014960629921
0
LINE
8
BLACK
6
CONTINUOUS
10
0.3687340551181102
20
-0.1042014960629921
11
0.3664972834645669
21
-0.112062874015748
0
LINE
8
BLACK
6
CONTINUOUS
10
0.3664972834645669
20
-0.112062874015748
11
0.3628540944881889
21
-0.1193793700787402
0
LINE
8
BLACK
6
CONTINUOUS
10
0.3628540944881889
20
-0.1193793700787402
11
0.362672716535433
21
-0.1196194881889764
0
LINE
8
BLACK
6
CONTINUOUS
10
0.362672716535433
20
-0.1196194881889764
11
0.3698079527559055
21
-0.1267547244094488
0
LINE
8
BLACK
6
CONTINUOUS
10
0.3698079527559055
20
-0.1267547244094488
11
0.3698079921259843
21
-0.1267547244094488
0
LINE
8
BLACK
6
CONTINUOUS
10
0.3698079921259843
20
-0.1267547244094488
11
0.3729693307086614
21
-0.1219159842519685
0
LINE
8
BLACK
6
CONTINUOUS
10
0.3729693307086614
20
-0.1219159842519685
11
0.3765729527559055
21
-0.1137005905511811
0
LINE
8
BLACK
6
CONTINUOUS
10
0.3765729527559055
20
-0.1137005905511811
11
0.376573031496063
21
-0.1137004330708661
0
LINE
8
BLACK
6
CONTINUOUS
10
0.376573031496063
20
-0.1137004330708661
11
0.3787753149606299
21
-0.1050038582677165
0
LINE
8
BLACK
6
CONTINUOUS
10
0.3787753149606299
20
-0.1050038582677165
11
0.3795161811023622
21
-0.0960629921259843
0
LINE
8
BLACK
6
CONTINUOUS
10
0.3795161811023622
20
-0.0960629921259843
11
0.3787753149606299
21
-0.0871220866141732
0
LINE
8
BLACK
6
CONTINUOUS
10
0.3787753149606299
20
-0.0871220866141732
11
0.376573031496063
21
-0.0784255118110236
0
LINE
8
BLACK
6
CONTINUOUS
10
0.376573031496063
20
-0.0784255118110236
11
0.3765729527559055
21
-0.0784253543307087
0
LINE
8
BLACK
6
CONTINUOUS
10
0.3765729527559055
20
-0.0784253543307087
11
0.3729693307086614
21
-0.0702099606299213
0
LINE
8
BLACK
6
CONTINUOUS
10
0.3729693307086614
20
-0.0702099606299213
11
0.3698079921259843
21
-0.0653711811023622
0
LINE
8
BLACK
6
CONTINUOUS
10
0.3698079921259843
20
-0.0653711811023622
11
0.362672716535433
21
-0.0725064173228346
0
LINE
8
BLACK
6
CONTINUOUS
10
0.4805855905511811
20
-0.0653711811023622
11
0.4774245669291338
21
-0.0702094881889764
0
LINE
8
BLACK
6
CONTINUOUS
10
0.4774245669291338
20
-0.0702094881889764
11
0.4774242913385827
21
-0.0702100393700787
0
LINE
8
BLACK
6
CONTINUOUS
10
0.4774242913385827
20
-0.0702100393700787
11
0.4738207086614173
21
-0.0784253543307087
0
LINE
8
BLACK
6
CONTINUOUS
10
0.4738207086614173
20
-0.0784253543307087
11
0.4738206299212598
21
-0.0784255118110236
0
LINE
8
BLACK
6
CONTINUOUS
10
0.4738206299212598
20
-0.0784255118110236
11
0.4716183464566929
21
-0.0871220866141732
0
LINE
8
BLACK
6
CONTINUOUS
10
0.4716183464566929
20
-0.0871220866141732
11
0.4708774803149606
21
-0.0960629921259843
0
LINE
8
BLACK
6
CONTINUOUS
10
0.4708774803149606
20
-0.0960629921259843
11
0.4716183464566929
21
-0.1050038582677165
0
LINE
8
BLACK
6
CONTINUOUS
10
0.4716183464566929
20
-0.1050038582677165
11
0.4738206299212598
21
-0.1137004330708661
0
LINE
8
BLACK
6
CONTINUOUS
10
0.4738206299212598
20
-0.1137004330708661
11
0.4738207086614173
21
-0.1137005905511811
0
LINE
8
BLACK
6
CONTINUOUS
10
0.4738207086614173
20
-0.1137005905511811
11
0.4774243700787402
21
-0.1219161023622047
0
LINE
8
BLACK
6
CONTINUOUS
10
0.4774243700787402
20
-0.1219161023622047
11
0.4805855905511811
21
-0.1267547244094488
0
LINE
8
BLACK
6
CONTINUOUS
10
0.4805855905511811
20
-0.1267547244094488
11
0.4805856299212598
21
-0.1267547244094488
0
LINE
8
BLACK
6
CONTINUOUS
10
0.4805856299212598
20
-0.1267547244094488
11
0.4877208661417323
21
-0.1196194094488189
0
LINE
8
BLACK
6
CONTINUOUS
10
0.4877208661417323
20
-0.1196194094488189
11
0.4875396062992126
21
-0.1193793700787402
0
LINE
8
BLACK
6
CONTINUOUS
10
0.4875396062992126
20
-0.1193793700787402
11
0.4838964173228346
21
-0.112062874015748
0
LINE
8
BLACK
6
CONTINUOUS
10
0.4838964173228346
20
-0.112062874015748
11
0.4816596456692913
21
-0.1042014960629921
0
LINE
8
BLACK
6
CONTINUOUS
10
0.4816596456692913
20
-0.1042014960629921
11
0.4809055118110236
21
-0.0960629921259843
0
LINE
8
BLACK
6
CONTINUOUS
10
0.4809055118110236
20
-0.0960629921259843
11
0.4816596456692913
21
-0.0879244881889764
0
LINE
8
BLACK
6
CONTINUOUS
10
0.4816596456692913
20
-0.0879244881889764
11
0.4838964173228346
21
-0.0800631102362205
0
LINE
8
BLACK
6
CONTINUOUS
10
0.4838964173228346
20
-0.0800631102362205
11
0.4875396062992126
21
-0.0727466141732283
0
LINE
8
BLACK
6
CONTINUOUS
10
0.4875396062992126
20
-0.0727466141732283
11
0.4877209448818898
21
-0.0725064566929134
0
LINE
8
BLACK
6
CONTINUOUS
10
0.4877209448818898
20
-0.0725064566929134
11
0.4805856299212598
21
-0.0653711417322835
0
LINE
8
BLACK
6
CONTINUOUS
10
0.4805856299212598
20
-0.0653711417322835
11
0.4805855905511811
21
-0.0653711811023622
0
LINE
8
BLACK
6
CONTINUOUS
10
0.562672716535433
20
-0.0725064173228346
11
0.562854094488189
21
-0.0727466141732283
0
LINE
8
BLACK
6
CONTINUOUS
10
0.562854094488189
20
-0.0727466141732283
11
0.566497283464567
21
-0.0800631102362205
0
LINE
8
BLACK
6
CONTINUOUS
10
0.566497283464567
20
-0.0800631102362205
11
0.5687340551181103
21
-0.0879244881889764
0
LINE
8
BLACK
6
CONTINUOUS
10
0.5687340551181103
20
-0.0879244881889764
11
0.569488188976378
21
-0.0960629921259843
0
LINE
8
BLACK
6
CONTINUOUS
10
0.569488188976378
20
-0.0960629921259843
11
0.5687340551181103
21
-0.1042014960629921
0
LINE
8
BLACK
6
CONTINUOUS
10
0.5687340551181103
20
-0.1042014960629921
11
0.566497283464567
21
-0.112062874015748
0
LINE
8
BLACK
6
CONTINUOUS
10
0.566497283464567
20
-0.112062874015748
11
0.562854094488189
21
-0.1193793700787402
0
LINE
8
BLACK
6
CONTINUOUS
10
0.562854094488189
20
-0.1193793700787402
11
0.562672716535433
21
-0.1196194881889764
0
LINE
8
BLACK
6
CONTINUOUS
10
0.562672716535433
20
-0.1196194881889764
11
0.5698079527559055
21
-0.1267547244094488
0
LINE
8
BLACK
6
CONTINUOUS
10
0.5698079527559055
20
-0.1267547244094488
11
0.5698079921259842
21
-0.1267547244094488
0
LINE
8
BLACK
6
CONTINUOUS
10
0.5698079921259842
20
-0.1267547244094488
11
0.5729693307086614
21
-0.1219159842519685
0
LINE
8
BLACK
6
CONTINUOUS
10
0.5729693307086614
20
-0.1219159842519685
11
0.5765729527559055
21
-0.1137005905511811
0
LINE
8
BLACK
6
CONTINUOUS
10
0.5765729527559055
20
-0.1137005905511811
11
0.576573031496063
21
-0.1137004330708661
0
LINE
8
BLACK
6
CONTINUOUS
10
0.576573031496063
20
-0.1137004330708661
11
0.5787753149606299
21
-0.1050038582677165
0
LINE
8
BLACK
6
CONTINUOUS
10
0.5787753149606299
20
-0.1050038582677165
11
0.5795161811023621
21
-0.0960629921259843
0
LINE
8
BLACK
6
CONTINUOUS
10
0.5795161811023621
20
-0.0960629921259843
11
0.5787753149606299
21
-0.0871220866141732
0
LINE
8
BLACK
6
CONTINUOUS
10
0.5787753149606299
20
-0.0871220866141732
11
0.576573031496063
21
-0.0784255118110236
0
LINE
8
BLACK
6
CONTINUOUS
10
0.576573031496063
20
-0.0784255118110236
11
0.5765729527559055
21
-0.0784253543307087
0
LINE
8
BLACK
6
CONTINUOUS
10
0.5765729527559055
20
-0.0784253543307087
11
0.5729693307086614
21
-0.0702099606299213
0
LINE
8
BLACK
6
CONTINUOUS
10
0.5729693307086614
20
-0.0702099606299213
11
0.5698079921259842
21
-0.0653711811023622
0
LINE
8
BLACK
6
CONTINUOUS
10
0.5698079921259842
20
-0.0653711811023622
11
0.562672716535433
21
-0.0725064173228346
0
LINE
8
BLACK
6
CONTINUOUS
10
0.3118622440944882
20
-0.0434057874015748
11
0.3118622047244095
21
-0.0434057874015748
0
LINE
8
BLACK
6
CONTINUOUS
10
0.3118622047244095
20
-0.0434057874015748
11
0.3033770866141732
21
-0.0463187007874016
0
LINE
8
BLACK
6
CONTINUOUS
10
0.3033770866141732
20
-0.0463187007874016
11
0.3033770078740157
21
-0.0463187795275591
0
LINE
8
BLACK
6
CONTINUOUS
10
0.3033770078740157
20
-0.0463187795275591
11
0.2954868897637795
21
-0.0505886220472441
0
LINE
8
BLACK
6
CONTINUOUS
10
0.2954868897637795
20
-0.0505886220472441
11
0.2944494094488189
21
-0.0513961023622047
0
LINE
8
BLACK
6
CONTINUOUS
10
0.2944494094488189
20
-0.0513961023622047
11
0.2944493700787402
21
-0.0513961417322835
0
LINE
8
BLACK
6
CONTINUOUS
10
0.2944493700787402
20
-0.0513961417322835
11
0.3017573622047244
21
-0.0587041338582677
0
LINE
8
BLACK
6
CONTINUOUS
10
0.3017573622047244
20
-0.0587041338582677
11
0.3054544881889764
21
-0.056415
0
LINE
8
BLACK
6
CONTINUOUS
10
0.3054544881889764
20
-0.056415
11
0.3130759448818898
21
-0.0534624409448819
0
LINE
8
BLACK
6
CONTINUOUS
10
0.3130759448818898
20
-0.0534624409448819
11
0.321110157480315
21
-0.0519605905511811
0
LINE
8
BLACK
6
CONTINUOUS
10
0.321110157480315
20
-0.0519605905511811
11
0.3292835433070866
21
-0.0519605905511811
0
LINE
8
BLACK
6
CONTINUOUS
10
0.3292835433070866
20
-0.0519605905511811
11
0.3373177559055118
21
-0.0534624409448819
0
LINE
8
BLACK
6
CONTINUOUS
10
0.3373177559055118
20
-0.0534624409448819
11
0.3449392125984252
21
-0.056415
0
LINE
8
BLACK
6
CONTINUOUS
10
0.3449392125984252
20
-0.056415
11
0.3486362204724409
21
-0.058704094488189
0
LINE
8
BLACK
6
CONTINUOUS
10
0.3486362204724409
20
-0.058704094488189
11
0.3559442125984252
21
-0.0513961417322835
0
LINE
8
BLACK
6
CONTINUOUS
10
0.3559442125984252
20
-0.0513961417322835
11
0.3559442125984252
21
-0.0513961023622047
0
LINE
8
BLACK
6
CONTINUOUS
10
0.3559442125984252
20
-0.0513961023622047
11
0.3549069291338582
21
-0.0505887401574803
0
LINE
8
BLACK
6
CONTINUOUS
10
0.3549069291338582
20
-0.0505887401574803
11
0.3549066141732283
21
-0.0505885433070866
0
LINE
8
BLACK
6
CONTINUOUS
10
0.3549066141732283
20
-0.0505885433070866
11
0.3470166535433071
21
-0.0463187795275591
0
LINE
8
BLACK
6
CONTINUOUS
10
0.3470166535433071
20
-0.0463187795275591
11
0.3470165748031496
21
-0.0463187007874016
0
LINE
8
BLACK
6
CONTINUOUS
10
0.3470165748031496
20
-0.0463187007874016
11
0.3385314173228346
21
-0.0434057874015748
0
LINE
8
BLACK
6
CONTINUOUS
10
0.3385314173228346
20
-0.0434057874015748
11
0.3296823622047244
21
-0.0419291338582677
0
LINE
8
BLACK
6
CONTINUOUS
10
0.3296823622047244
20
-0.0419291338582677
11
0.3207113385826771
21
-0.0419291338582677
0
LINE
8
BLACK
6
CONTINUOUS
10
0.3207113385826771
20
-0.0419291338582677
11
0.3118622440944882
21
-0.0434057874015748
0
LINE
8
BLACK
6
CONTINUOUS
10
0.5118622440944882
20
-0.0434057874015748
11
0.5118622047244095
21
-0.0434057874015748
0
LINE
8
BLACK
6
CONTINUOUS
10
0.5118622047244095
20
-0.0434057874015748
11
0.5033770866141732
21
-0.0463187007874016
0
LINE
8
BLACK
6
CONTINUOUS
10
0.5033770866141732
20
-0.0463187007874016
11
0.5033770078740157
21
-0.0463187795275591
0
LINE
8
BLACK
6
CONTINUOUS
10
0.5033770078740157
20
-0.0463187795275591
11
0.4954868897637795
21
-0.0505886220472441
0
LINE
8
BLACK
6
CONTINUOUS
10
0.4954868897637795
20
-0.0505886220472441
11
0.4944494094488189
21
-0.0513961023622047
0
LINE
8
BLACK
6
CONTINUOUS
10
0.4944494094488189
20
-0.0513961023622047
11
0.4944493700787401
21
-0.0513961417322835
0
LINE
8
BLACK
6
CONTINUOUS
10
0.4944493700787401
20
-0.0513961417322835
11
0.5017573622047244
21
-0.0587041338582677
0
LINE
8
BLACK
6
CONTINUOUS
10
0.5017573622047244
20
-0.0587041338582677
11
0.5054544881889763
21
-0.056415
0
LINE
8
BLACK
6
CONTINUOUS
10
0.5054544881889763
20
-0.056415
11
0.5130759448818898
21
-0.0534624409448819
0
LINE
8
BLACK
6
CONTINUOUS
10
0.5130759448818898
20
-0.0534624409448819
11
0.521110157480315
21
-0.0519605905511811
0
LINE
8
BLACK
6
CONTINUOUS
10
0.521110157480315
20
-0.0519605905511811
11
0.5292835433070866
21
-0.0519605905511811
0
LINE
8
BLACK
6
CONTINUOUS
10
0.5292835433070866
20
-0.0519605905511811
11
0.5373177559055118
21
-0.0534624409448819
0
LINE
8
BLACK
6
CONTINUOUS
10
0.5373177559055118
20
-0.0534624409448819
11
0.5449392125984251
21
-0.056415
0
LINE
8
BLACK
6
CONTINUOUS
10
0.5449392125984251
20
-0.056415
11
0.548636220472441
21
-0.058704094488189
0
LINE
8
BLACK
6
CONTINUOUS
10
0.548636220472441
20
-0.058704094488189
11
0.5559442125984252
21
-0.0513961417322835
0
LINE
8
BLACK
6
CONTINUOUS
10
0.5559442125984252
20
-0.0513961417322835
11
0.5559442125984252
21
-0.0513961023622047
0
LINE
8
BLACK
6
CONTINUOUS
10
0.5559442125984252
20
-0.0513961023622047
11
0.5549069291338583
21
-0.0505887401574803
0
LINE
8
BLACK
6
CONTINUOUS
10
0.5549069291338583
20
-0.0505887401574803
11
0.5549066141732283
21
-0.0505885433070866
0
LINE
8
BLACK
6
CONTINUOUS
10
0.5549066141732283
20
-0.0505885433070866
11
0.5470166535433071
21
-0.0463187795275591
0
LINE
8
BLACK
6
CONTINUOUS
10
0.5470166535433071
20
-0.0463187795275591
11
0.5470165748031496
21
-0.0463187007874016
0
LINE
8
BLACK
6
CONTINUOUS
10
0.5470165748031496
20
-0.0463187007874016
11
0.5385314173228346
21
-0.0434057874015748
0
LINE
8
BLACK
6
CONTINUOUS
10
0.5385314173228346
20
-0.0434057874015748
11
0.5296823622047244
21
-0.0419291338582677
0
LINE
8
BLACK
6
CONTINUOUS
10
0.5296823622047244
20
-0.0419291338582677
11
0.5207113385826772
21
-0.0419291338582677
0
LINE
8
BLACK
6
CONTINUOUS
10
0.5207113385826772
20
-0.0419291338582677
11
0.5118622440944882
21
-0.0434057874015748
0
LINE
8
BLACK
6
CONTINUOUS
10
0.1385826771653543
20
-0.0360236220472441
11
0.1437007874015748
21
-0.0360236220472441
0
LINE
8
BLACK
6
CONTINUOUS
10
0.1437007874015748
20
-0.0360236220472441
11
0.1437007874015748
21
-0.053740157480315
0
LINE
8
BLACK
6
CONTINUOUS
10
0.1437007874015748
20
-0.053740157480315
11
0.1535433070866142
21
-0.053740157480315
0
LINE
8
BLACK
6
CONTINUOUS
10
0.1535433070866142
20
-0.053740157480315
11
0.1535433070866142
21
-0.0350542125984252
0
LINE
8
BLACK
6
CONTINUOUS
10
0.1535433070866142
20
-0.0350542125984252
11
0.1535432677165354
21
-0.0350540551181102
0
LINE
8
BLACK
6
CONTINUOUS
10
0.1535432677165354
20
-0.0350540551181102
11
0.1529722440944882
21
-0.0321832677165354
0
LINE
8
BLACK
6
CONTINUOUS
10
0.1529722440944882
20
-0.0321832677165354
11
0.1529722047244094
21
-0.0321832283464567
0
LINE
8
BLACK
6
CONTINUOUS
10
0.1529722047244094
20
-0.0321832283464567
11
0.1507968503937008
21
-0.0289275196850394
0
LINE
8
BLACK
6
CONTINUOUS
10
0.1507968503937008
20
-0.0289275196850394
11
0.1475411417322835
21
-0.0267521653543307
0
LINE
8
BLACK
6
CONTINUOUS
10
0.1475411417322835
20
-0.0267521653543307
11
0.1475411023622047
21
-0.026752125984252
0
LINE
8
BLACK
6
CONTINUOUS
10
0.1475411023622047
20
-0.026752125984252
11
0.1446703149606299
21
-0.0261811023622047
0
LINE
8
BLACK
6
CONTINUOUS
10
0.1446703149606299
20
-0.0261811023622047
11
0.1385826771653543
21
-0.0261811023622047
0
LINE
8
BLACK
6
CONTINUOUS
10
0.1385826771653543
20
-0.0261811023622047
11
0.1385826771653543
21
-0.0360236220472441
0
LINE
8
BLACK
6
CONTINUOUS
10
0.3755543307086614
20
-0.0048162992125984
11
0.3778285039370078
21
-0.0133036614173228
0
LINE
8
BLACK
6
CONTINUOUS
10
0.3778285039370078
20
-0.0133036614173228
11
0.3815419291338583
21
-0.0212671653543307
0
LINE
8
BLACK
6
CONTINUOUS
10
0.3815419291338583
20
-0.0212671653543307
11
0.386581811023622
21
-0.028464842519685
0
LINE
8
BLACK
6
CONTINUOUS
10
0.386581811023622
20
-0.028464842519685
11
0.392795
21
-0.034678031496063
0
LINE
8
BLACK
6
CONTINUOUS
10
0.392795
20
-0.034678031496063
11
0.3999926771653543
21
-0.0397179133858268
0
LINE
8
BLACK
6
CONTINUOUS
10
0.3999926771653543
20
-0.0397179133858268
11
0.4079561811023622
21
-0.0434313385826772
0
LINE
8
BLACK
6
CONTINUOUS
10
0.4079561811023622
20
-0.0434313385826772
11
0.4164435433070866
21
-0.0457055118110236
0
LINE
8
BLACK
6
CONTINUOUS
10
0.4164435433070866
20
-0.0457055118110236
11
0.4251968503937008
21
-0.0464713385826772
0
LINE
8
BLACK
6
CONTINUOUS
10
0.4251968503937008
20
-0.0464713385826772
11
0.433950157480315
21
-0.0457055118110236
0
LINE
8
BLACK
6
CONTINUOUS
10
0.433950157480315
20
-0.0457055118110236
11
0.4424375196850394
21
-0.0434313385826772
0
LINE
8
BLACK
6
CONTINUOUS
10
0.4424375196850394
20
-0.0434313385826772
11
0.4504010236220473
21
-0.0397179133858268
0
LINE
8
BLACK
6
CONTINUOUS
10
0.4504010236220473
20
-0.0397179133858268
11
0.4575987007874016
21
-0.034678031496063
0
LINE
8
BLACK
6
CONTINUOUS
10
0.4575987007874016
20
-0.034678031496063
11
0.4638118897637795
21
-0.028464842519685
0
LINE
8
BLACK
6
CONTINUOUS
10
0.4638118897637795
20
-0.028464842519685
11
0.4688517716535433
21
-0.0212671653543307
0
LINE
8
BLACK
6
CONTINUOUS
10
0.4688517716535433
20
-0.0212671653543307
11
0.4725651968503937
21
-0.0133036614173228
0
LINE
8
BLACK
6
CONTINUOUS
10
0.4725651968503937
20
-0.0133036614173228
11
0.4748393700787402
21
-0.0048162992125984
0
LINE
8
BLACK
6
CONTINUOUS
10
0.4748393700787402
20
-0.0048162992125984
11
0.4756051968503937
21
0.0039370078740157
0
LINE
8
BLACK
6
CONTINUOUS
10
0.4756051968503937
20
0.0039370078740157
11
0.4748393700787402
21
0.0126903149606299
0
LINE
8
BLACK
6
CONTINUOUS
10
0.4748393700787402
20
0.0126903149606299
11
0.4725651968503937
21
0.0211776771653543
0
LINE
8
BLACK
6
CONTINUOUS
10
0.4725651968503937
20
0.0211776771653543
11
0.4688517716535433
21
0.0291411811023622
0
LINE
8
BLACK
6
CONTINUOUS
10
0.4688517716535433
20
0.0291411811023622
11
0.4638118897637795
21
0.0363388582677165
0
LINE
8
BLACK
6
CONTINUOUS
10
0.4638118897637795
20
0.0363388582677165
11
0.4575987007874016
21
0.0425520472440945
0
LINE
8
BLACK
6
CONTINUOUS
10
0.4575987007874016
20
0.0425520472440945
11
0.4555244488188976
21
0.0440044488188976
0
LINE
8
BLACK
6
CONTINUOUS
10
0.4555244488188976
20
0.0440044488188976
11
0.4504010236220473
21
0.0475919291338583
0
LINE
8
BLACK
6
CONTINUOUS
10
0.4504010236220473
20
0.0475919291338583
11
0.4424376377952756
21
0.0513053149606299
0
LINE
8
BLACK
6
CONTINUOUS
10
0.4424376377952756
20
0.0513053149606299
11
0.4424374409448819
21
0.0513053937007874
0
LINE
8
BLACK
6
CONTINUOUS
10
0.4424374409448819
20
0.0513053937007874
11
0.4384984251968504
21
0.0523608661417323
0
LINE
8
BLACK
6
CONTINUOUS
10
0.4384984251968504
20
0.0523608661417323
11
0.433950157480315
21
0.0535795275590551
0
LINE
8
BLACK
6
CONTINUOUS
10
0.433950157480315
20
0.0535795275590551
11
0.4251968503937008
21
0.0543453543307087
0
LINE
8
BLACK
6
CONTINUOUS
10
0.4251968503937008
20
0.0543453543307087
11
0.4164435433070866
21
0.0535795275590551
0
LINE
8
BLACK
6
CONTINUOUS
10
0.4164435433070866
20
0.0535795275590551
11
0.4141694094488189
21
0.0529701968503937
0
LINE
8
BLACK
6
CONTINUOUS
10
0.4141694094488189
20
0.0529701968503937
11
0.407956220472441
21
0.0513053937007874
0
LINE
8
BLACK
6
CONTINUOUS
10
0.407956220472441
20
0.0513053937007874
11
0.4079560236220472
21
0.0513053149606299
0
LINE
8
BLACK
6
CONTINUOUS
10
0.4079560236220472
20
0.0513053149606299
11
0.3999926377952756
21
0.0475919291338583
0
LINE
8
BLACK
6
CONTINUOUS
10
0.3999926377952756
20
0.0475919291338583
11
0.3927951181102362
21
0.0425521653543307
0
LINE
8
BLACK
6
CONTINUOUS
10
0.3927951181102362
20
0.0425521653543307
11
0.3927948818897637
21
0.042551968503937
0
LINE
8
BLACK
6
CONTINUOUS
10
0.3927948818897637
20
0.042551968503937
11
0.3865818897637795
21
0.0363389763779528
0
LINE
8
BLACK
6
CONTINUOUS
10
0.3865818897637795
20
0.0363389763779528
11
0.3865816929133858
21
0.0363387401574803
0
LINE
8
BLACK
6
CONTINUOUS
10
0.3865816929133858
20
0.0363387401574803
11
0.3815419291338583
21
0.0291412204724409
0
LINE
8
BLACK
6
CONTINUOUS
10
0.3815419291338583
20
0.0291412204724409
11
0.3778285433070866
21
0.0211778346456693
0
LINE
8
BLACK
6
CONTINUOUS
10
0.3778285433070866
20
0.0211778346456693
11
0.3778284645669291
21
0.0211776377952756
0
LINE
8
BLACK
6
CONTINUOUS
10
0.3778284645669291
20
0.0211776377952756
11
0.3776688582677165
21
0.0205819291338583
0
LINE
8
BLACK
6
CONTINUOUS
10
0.3776688582677165
20
0.0205819291338583
11
0.3755543307086614
21
0.0126903149606299
0
LINE
8
BLACK
6
CONTINUOUS
10
0.3755543307086614
20
0.0126903149606299
11
0.3747885039370079
21
0.0039370078740157
0
LINE
8
BLACK
6
CONTINUOUS
10
0.3747885039370079
20
0.0039370078740157
11
0.3755543307086614
21
-0.0048162992125984
0
LINE
8
BLACK
6
CONTINUOUS
10
0.2944494094488189
20
0.0592702362204724
11
0.2954870078740157
21
0.0584626377952756
0
LINE
8
BLACK
6
CONTINUOUS
10
0.2954870078740157
20
0.0584626377952756
11
0.2954870472440945
21
0.0584625984251968
0
LINE
8
BLACK
6
CONTINUOUS
10
0.2954870472440945
20
0.0584625984251968
11
0.3033770078740157
21
0.0541928346456693
0
LINE
8
BLACK
6
CONTINUOUS
10
0.3033770078740157
20
0.0541928346456693
11
0.3033770866141732
21
0.0541927559055118
0
LINE
8
BLACK
6
CONTINUOUS
10
0.3033770866141732
20
0.0541927559055118
11
0.3118622440944882
21
0.051279842519685
0
LINE
8
BLACK
6
CONTINUOUS
10
0.3118622440944882
20
0.051279842519685
11
0.3207113385826771
21
0.0498031496062992
0
LINE
8
BLACK
6
CONTINUOUS
10
0.3207113385826771
20
0.0498031496062992
11
0.3296823622047244
21
0.0498031496062992
0
LINE
8
BLACK
6
CONTINUOUS
10
0.3296823622047244
20
0.0498031496062992
11
0.3385314173228346
21
0.051279842519685
0
LINE
8
BLACK
6
CONTINUOUS
10
0.3385314173228346
20
0.051279842519685
11
0.3385314566929134
21
0.051279842519685
0
LINE
8
BLACK
6
CONTINUOUS
10
0.3385314566929134
20
0.051279842519685
11
0.3470165748031496
21
0.0541927559055118
0
LINE
8
BLACK
6
CONTINUOUS
10
0.3470165748031496
20
0.0541927559055118
11
0.3470166535433071
21
0.0541928346456693
0
LINE
8
BLACK
6
CONTINUOUS
10
0.3470166535433071
20
0.0541928346456693
11
0.3549066535433071
21
0.0584626377952756
0
LINE
8
BLACK
6
CONTINUOUS
10
0.3549066535433071
20
0.0584626377952756
11
0.354906811023622
21
0.0584627559055118
0
LINE
8
BLACK
6
CONTINUOUS
10
0.354906811023622
20
0.0584627559055118
11
0.3559442125984252
21
0.0592702362204724
0
LINE
8
BLACK
6
CONTINUOUS
10
0.3559442125984252
20
0.0592702362204724
11
0.3559442519685039
21
0.0592702362204724
0
LINE
8
BLACK
6
CONTINUOUS
10
0.3559442519685039
20
0.0592702362204724
11
0.3486362992125984
21
0.0665781889763779
0
LINE
8
BLACK
6
CONTINUOUS
10
0.3486362992125984
20
0.0665781889763779
11
0.3449392125984252
21
0.0642890157480315
0
LINE
8
BLACK
6
CONTINUOUS
10
0.3449392125984252
20
0.0642890157480315
11
0.3373177559055118
21
0.0613364566929134
0
LINE
8
BLACK
6
CONTINUOUS
10
0.3373177559055118
20
0.0613364566929134
11
0.3292835433070866
21
0.0598346062992126
0
LINE
8
BLACK
6
CONTINUOUS
10
0.3292835433070866
20
0.0598346062992126
11
0.321110157480315
21
0.0598346062992126
0
LINE
8
BLACK
6
CONTINUOUS
10
0.321110157480315
20
0.0598346062992126
11
0.3130759448818898
21
0.0613364566929134
0
LINE
8
BLACK
6
CONTINUOUS
10
0.3130759448818898
20
0.0613364566929134
11
0.3054544881889764
21
0.0642890157480315
0
LINE
8
BLACK
6
CONTINUOUS
10
0.3054544881889764
20
0.0642890157480315
11
0.3017573622047244
21
0.0665782283464567
0
LINE
8
BLACK
6
CONTINUOUS
10
0.3017573622047244
20
0.0665782283464567
11
0.2944494094488189
21
0.0592702362204724
0
LINE
8
BLACK
6
CONTINUOUS
10
0.4944494094488189
20
0.0592702362204724
11
0.4954870078740157
21
0.0584626377952756
0
LINE
8
BLACK
6
CONTINUOUS
10
0.4954870078740157
20
0.0584626377952756
11
0.4954870472440945
21
0.0584625984251968
0
LINE
8
BLACK
6
CONTINUOUS
10
0.4954870472440945
20
0.0584625984251968
11
0.5033770078740157
21
0.0541928346456693
0
LINE
8
BLACK
6
CONTINUOUS
10
0.5033770078740157
20
0.0541928346456693
11
0.5033770866141732
21
0.0541927559055118
0
LINE
8
BLACK
6
CONTINUOUS
10
0.5033770866141732
20
0.0541927559055118
11
0.5118622440944882
21
0.051279842519685
0
LINE
8
BLACK
6
CONTINUOUS
10
0.5118622440944882
20
0.051279842519685
11
0.5207113385826772
21
0.0498031496062992
0
LINE
8
BLACK
6
CONTINUOUS
10
0.5207113385826772
20
0.0498031496062992
11
0.5296823622047244
21
0.0498031496062992
0
LINE
8
BLACK
6
CONTINUOUS
10
0.5296823622047244
20
0.0498031496062992
11
0.5385314173228346
21
0.051279842519685
0
LINE
8
BLACK
6
CONTINUOUS
10
0.5385314173228346
20
0.051279842519685
11
0.5385314566929134
21
0.051279842519685
0
LINE
8
BLACK
6
CONTINUOUS
10
0.5385314566929134
20
0.051279842519685
11
0.5470165748031496
21
0.0541927559055118
0
LINE
8
BLACK
6
CONTINUOUS
10
0.5470165748031496
20
0.0541927559055118
11
0.5470166535433071
21
0.0541928346456693
0
LINE
8
BLACK
6
CONTINUOUS
10
0.5470166535433071
20
0.0541928346456693
11
0.554906653543307
21
0.0584626377952756
0
LINE
8
BLACK
6
CONTINUOUS
10
0.554906653543307
20
0.0584626377952756
11
0.554906811023622
21
0.0584627559055118
0
LINE
8
BLACK
6
CONTINUOUS
10
0.554906811023622
20
0.0584627559055118
11
0.5559442125984252
21
0.0592702362204724
0
LINE
8
BLACK
6
CONTINUOUS
10
0.5559442125984252
20
0.0592702362204724
11
0.5559442519685039
21
0.0592702362204724
0
LINE
8
BLACK
6
CONTINUOUS
10
0.5559442519685039
20
0.0592702362204724
11
0.5486362992125984
21
0.0665781889763779
0
LINE
8
BLACK
6
CONTINUOUS
10
0.5486362992125984
20
0.0665781889763779
11
0.5449392125984251
21
0.0642890157480315
0
LINE
8
BLACK
6
CONTINUOUS
10
0.5449392125984251
20
0.0642890157480315
11
0.5373177559055118
21
0.0613364566929134
0
LINE
8
BLACK
6
CONTINUOUS
10
0.5373177559055118
20
0.0613364566929134
11
0.5292835433070866
21
0.0598346062992126
0
LINE
8
BLACK
6
CONTINUOUS
10
0.5292835433070866
20
0.0598346062992126
11
0.521110157480315
21
0.0598346062992126
0
LINE
8
BLACK
6
CONTINUOUS
10
0.521110157480315
20
0.0598346062992126
11
0.5130759448818898
21
0.0613364566929134
0
LINE
8
BLACK
6
CONTINUOUS
10
0.5130759448818898
20
0.0613364566929134
11
0.5054544881889763
21
0.0642890157480315
0
LINE
8
BLACK
6
CONTINUOUS
10
0.5054544881889763
20
0.0642890157480315
11
0.5017573622047244
21
0.0665782283464567
0
LINE
8
BLACK
6
CONTINUOUS
10
0.5017573622047244
20
0.0665782283464567
11
0.4944494094488189
21
0.0592702362204724
0
LINE
8
BLACK
6
CONTINUOUS
10
0.2805855905511811
20
0.1346288188976378
11
0.2774245669291339
21
0.1297905118110236
0
LINE
8
BLACK
6
CONTINUOUS
10
0.2774245669291339
20
0.1297905118110236
11
0.2774242913385827
21
0.1297899606299213
0
LINE
8
BLACK
6
CONTINUOUS
10
0.2774242913385827
20
0.1297899606299213
11
0.2738207086614173
21
0.1215746456692913
0
LINE
8
BLACK
6
CONTINUOUS
10
0.2738207086614173
20
0.1215746456692913
11
0.2738206299212598
21
0.1215744881889764
0
LINE
8
BLACK
6
CONTINUOUS
10
0.2738206299212598
20
0.1215744881889764
11
0.2716183464566929
21
0.1128779133858268
0
LINE
8
BLACK
6
CONTINUOUS
10
0.2716183464566929
20
0.1128779133858268
11
0.2708774803149606
21
0.1039370078740157
0
LINE
8
BLACK
6
CONTINUOUS
10
0.2708774803149606
20
0.1039370078740157
11
0.2716183464566929
21
0.0949961417322835
0
LINE
8
BLACK
6
CONTINUOUS
10
0.2716183464566929
20
0.0949961417322835
11
0.2738206299212598
21
0.0862995669291339
0
LINE
8
BLACK
6
CONTINUOUS
10
0.2738206299212598
20
0.0862995669291339
11
0.2738207086614173
21
0.0862994094488189
0
LINE
8
BLACK
6
CONTINUOUS
10
0.2738207086614173
20
0.0862994094488189
11
0.2774243700787402
21
0.0780838976377953
0
LINE
8
BLACK
6
CONTINUOUS
10
0.2774243700787402
20
0.0780838976377953
11
0.2805855905511811
21
0.0732452755905512
0
LINE
8
BLACK
6
CONTINUOUS
10
0.2805855905511811
20
0.0732452755905512
11
0.2805856299212598
21
0.0732452755905512
0
LINE
8
BLACK
6
CONTINUOUS
10
0.2805856299212598
20
0.0732452755905512
11
0.2877208661417323
21
0.0803805905511811
0
LINE
8
BLACK
6
CONTINUOUS
10
0.2877208661417323
20
0.0803805905511811
11
0.2875396062992126
21
0.0806206299212598
0
LINE
8
BLACK
6
CONTINUOUS
10
0.2875396062992126
20
0.0806206299212598
11
0.2838964173228347
21
0.087937125984252
0
LINE
8
BLACK
6
CONTINUOUS
10
0.2838964173228347
20
0.087937125984252
11
0.2816596456692914
21
0.0957985039370079
0
LINE
8
BLACK
6
CONTINUOUS
10
0.2816596456692914
20
0.0957985039370079
11
0.2809055118110236
21
0.1039370078740157
0
LINE
8
BLACK
6
CONTINUOUS
10
0.2809055118110236
20
0.1039370078740157
11
0.2816596456692914
21
0.1120755118110236
0
LINE
8
BLACK
6
CONTINUOUS
10
0.2816596456692914
20
0.1120755118110236
11
0.2838964173228347
21
0.1199368897637795
0
LINE
8
BLACK
6
CONTINUOUS
10
0.2838964173228347
20
0.1199368897637795
11
0.2875396062992126
21
0.1272533858267716
0
LINE
8
BLACK
6
CONTINUOUS
10
0.2875396062992126
20
0.1272533858267716
11
0.2877209448818898
21
0.1274935433070866
0
LINE
8
BLACK
6
CONTINUOUS
10
0.2877209448818898
20
0.1274935433070866
11
0.2805856299212598
21
0.1346288582677165
0
LINE
8
BLACK
6
CONTINUOUS
10
0.2805856299212598
20
0.1346288582677165
11
0.2805855905511811
21
0.1346288188976378
0
LINE
8
BLACK
6
CONTINUOUS
10
0.362672716535433
20
0.1274935826771653
11
0.3628540944881889
21
0.1272533858267716
0
LINE
8
BLACK
6
CONTINUOUS
10
0.3628540944881889
20
0.1272533858267716
11
0.3664972834645669
21
0.1199368897637795
0
LINE
8
BLACK
6
CONTINUOUS
10
0.3664972834645669
20
0.1199368897637795
11
0.3687340551181102
21
0.1120755118110236
0
LINE
8
BLACK
6
CONTINUOUS
10
0.3687340551181102
20
0.1120755118110236
11
0.3694881889763779
21
0.1039370078740157
0
LINE
8
BLACK
6
CONTINUOUS
10
0.3694881889763779
20
0.1039370078740157
11
0.3687340551181102
21
0.0957985039370079
0
LINE
8
BLACK
6
CONTINUOUS
10
0.3687340551181102
20
0.0957985039370079
11
0.3664972834645669
21
0.087937125984252
0
LINE
8
BLACK
6
CONTINUOUS
10
0.3664972834645669
20
0.087937125984252
11
0.3628540944881889
21
0.0806206299212598
0
LINE
8
BLACK
6
CONTINUOUS
10
0.3628540944881889
20
0.0806206299212598
11
0.362672716535433
21
0.0803805118110236
0
LINE
8
BLACK
6
CONTINUOUS
10
0.362672716535433
20
0.0803805118110236
11
0.3698079527559055
21
0.0732452755905512
0
LINE
8
BLACK
6
CONTINUOUS
10
0.3698079527559055
20
0.0732452755905512
11
0.3698079921259843
21
0.0732452755905512
0
LINE
8
BLACK
6
CONTINUOUS
10
0.3698079921259843
20
0.0732452755905512
11
0.3729693307086614
21
0.0780840157480315
0
LINE
8
BLACK
6
CONTINUOUS
10
0.3729693307086614
20
0.0780840157480315
11
0.3765729527559055
21
0.0862994094488189
0
LINE
8
BLACK
6
CONTINUOUS
10
0.3765729527559055
20
0.0862994094488189
11
0.376573031496063
21
0.0862995669291339
0
LINE
8
BLACK
6
CONTINUOUS
10
0.376573031496063
20
0.0862995669291339
11
0.3787753149606299
21
0.0949961417322835
0
LINE
8
BLACK
6
CONTINUOUS
10
0.3787753149606299
20
0.0949961417322835
11
0.3795161811023622
21
0.1039370078740157
0
LINE
8
BLACK
6
CONTINUOUS
10
0.3795161811023622
20
0.1039370078740157
11
0.3787753149606299
21
0.1128779133858268
0
LINE
8
BLACK
6
CONTINUOUS
10
0.3787753149606299
20
0.1128779133858268
11
0.376573031496063
21
0.1215744881889764
0
LINE
8
BLACK
6
CONTINUOUS
10
0.376573031496063
20
0.1215744881889764
11
0.3765729527559055
21
0.1215746456692913
0
LINE
8
BLACK
6
CONTINUOUS
10
0.3765729527559055
20
0.1215746456692913
11
0.3729693307086614
21
0.1297900393700787
0
LINE
8
BLACK
6
CONTINUOUS
10
0.3729693307086614
20
0.1297900393700787
11
0.3698079921259843
21
0.1346288188976378
0
LINE
8
BLACK
6
CONTINUOUS
10
0.3698079921259843
20
0.1346288188976378
11
0.362672716535433
21
0.1274935826771653
0
LINE
8
BLACK
6
CONTINUOUS
10
0.4805855905511811
20
0.1346288188976378
11
0.4774245669291338
21
0.1297905118110236
0
LINE
8
BLACK
6
CONTINUOUS
10
0.4774245669291338
20
0.1297905118110236
11
0.4774242913385827
21
0.1297899606299213
0
LINE
8
BLACK
6
CONTINUOUS
10
0.4774242913385827
20
0.1297899606299213
11
0.4738207086614173
21
0.1215746456692913
0
LINE
8
BLACK
6
CONTINUOUS
10
0.4738207086614173
20
0.1215746456692913
11
0.4738206299212598
21
0.1215744881889764
0
LINE
8
BLACK
6
CONTINUOUS
10
0.4738206299212598
20
0.1215744881889764
11
0.4716183464566929
21
0.1128779133858268
0
LINE
8
BLACK
6
CONTINUOUS
10
0.4716183464566929
20
0.1128779133858268
11
0.4708774803149606
21
0.1039370078740157
0
LINE
8
BLACK
6
CONTINUOUS
10
0.4708774803149606
20
0.1039370078740157
11
0.4716183464566929
21
0.0949961417322835
0
LINE
8
BLACK
6
CONTINUOUS
10
0.4716183464566929
20
0.0949961417322835
11
0.4738206299212598
21
0.0862995669291339
0
LINE
8
BLACK
6
CONTINUOUS
10
0.4738206299212598
20
0.0862995669291339
11
0.4738207086614173
21
0.0862994094488189
0
LINE
8
BLACK
6
CONTINUOUS
10
0.4738207086614173
20
0.0862994094488189
11
0.4774243700787402
21
0.0780838976377953
0
LINE
8
BLACK
6
CONTINUOUS
10
0.4774243700787402
20
0.0780838976377953
11
0.4805855905511811
21
0.0732452755905512
0
LINE
8
BLACK
6
CONTINUOUS
10
0.4805855905511811
20
0.0732452755905512
11
0.4805856299212598
21
0.0732452755905512
0
LINE
8
BLACK
6
CONTINUOUS
10
0.4805856299212598
20
0.0732452755905512
11
0.4877208661417323
21
0.0803805905511811
0
LINE
8
BLACK
6
CONTINUOUS
10
0.4877208661417323
20
0.0803805905511811
11
0.4875396062992126
21
0.0806206299212598
0
LINE
8
BLACK
6
CONTINUOUS
10
0.4875396062992126
20
0.0806206299212598
11
0.4838964173228346
21
0.087937125984252
0
LINE
8
BLACK
6
CONTINUOUS
10
0.4838964173228346
20
0.087937125984252
11
0.4816596456692913
21
0.0957985039370079
0
LINE
8
BLACK
6
CONTINUOUS
10
0.4816596456692913
20
0.0957985039370079
11
0.4809055118110236
21
0.1039370078740157
0
LINE
8
BLACK
6
CONTINUOUS
10
0.4809055118110236
20
0.1039370078740157
11
0.4816596456692913
21
0.1120755118110236
0
LINE
8
BLACK
6
CONTINUOUS
10
0.4816596456692913
20
0.1120755118110236
11
0.4838964173228346
21
0.1199368897637795
0
LINE
8
BLACK
6
CONTINUOUS
10
0.4838964173228346
20
0.1199368897637795
11
0.4875396062992126
21
0.1272533858267716
0
LINE
8
BLACK
6
CONTINUOUS
10
0.4875396062992126
20
0.1272533858267716
11
0.4877209448818898
21
0.1274935433070866
0
LINE
8
BLACK
6
CONTINUOUS
10
0.4877209448818898
20
0.1274935433070866
11
0.4805856299212598
21
0.1346288582677165
0
LINE
8
BLACK
6
CONTINUOUS
10
0.4805856299212598
20
0.1346288582677165
11
0.4805855905511811
21
0.1346288188976378
0
LINE
8
BLACK
6
CONTINUOUS
10
0.562672716535433
20
0.1274935826771653
11
0.562854094488189
21
0.1272533858267716
0
LINE
8
BLACK
6
CONTINUOUS
10
0.562854094488189
20
0.1272533858267716
11
0.566497283464567
21
0.1199368897637795
0
LINE
8
BLACK
6
CONTINUOUS
10
0.566497283464567
20
0.1199368897637795
11
0.5687340551181103
21
0.1120755118110236
0
LINE
8
BLACK
6
CONTINUOUS
10
0.5687340551181103
20
0.1120755118110236
11
0.569488188976378
21
0.1039370078740157
0
LINE
8
BLACK
6
CONTINUOUS
10
0.569488188976378
20
0.1039370078740157
11
0.5687340551181103
21
0.0957985039370079
0
LINE
8
BLACK
6
CONTINUOUS
10
0.5687340551181103
20
0.0957985039370079
11
0.566497283464567
21
0.087937125984252
0
LINE
8
BLACK
6
CONTINUOUS
10
0.566497283464567
20
0.087937125984252
11
0.562854094488189
21
0.0806206299212598
0
LINE
8
BLACK
6
CONTINUOUS
10
0.562854094488189
20
0.0806206299212598
11
0.562672716535433
21
0.0803805118110236
0
LINE
8
BLACK
6
CONTINUOUS
10
0.562672716535433
20
0.0803805118110236
11
0.5698079527559055
21
0.0732452755905512
0
LINE
8
BLACK
6
CONTINUOUS
10
0.5698079527559055
20
0.0732452755905512
11
0.5698079921259842
21
0.0732452755905512
0
LINE
8
BLACK
6
CONTINUOUS
10
0.5698079921259842
20
0.0732452755905512
11
0.5729693307086614
21
0.0780840157480315
0
LINE
8
BLACK
6
CONTINUOUS
10
0.5729693307086614
20
0.0780840157480315
11
0.5765729527559055
21
0.0862994094488189
0
LINE
8
BLACK
6
CONTINUOUS
10
0.5765729527559055
20
0.0862994094488189
11
0.576573031496063
21
0.0862995669291339
0
LINE
8
BLACK
6
CONTINUOUS
10
0.576573031496063
20
0.0862995669291339
11
0.5787753149606299
21
0.0949961417322835
0
LINE
8
BLACK
6
CONTINUOUS
10
0.5787753149606299
20
0.0949961417322835
11
0.5795161811023621
21
0.1039370078740157
0
LINE
8
BLACK
6
CONTINUOUS
10
0.5795161811023621
20
0.1039370078740157
11
0.5787753149606299
21
0.1128779133858268
0
LINE
8
BLACK
6
CONTINUOUS
10
0.5787753149606299
20
0.1128779133858268
11
0.576573031496063
21
0.1215744881889764
0
LINE
8
BLACK
6
CONTINUOUS
10
0.576573031496063
20
0.1215744881889764
11
0.5765729527559055
21
0.1215746456692913
0
LINE
8
BLACK
6
CONTINUOUS
10
0.5765729527559055
20
0.1215746456692913
11
0.5729693307086614
21
0.1297900393700787
0
LINE
8
BLACK
6
CONTINUOUS
10
0.5729693307086614
20
0.1297900393700787
11
0.5698079921259842
21
0.1346288188976378
0
LINE
8
BLACK
6
CONTINUOUS
10
0.5698079921259842
20
0.1346288188976378
11
0.562672716535433
21
0.1274935826771653
0
LINE
8
BLACK
6
CONTINUOUS
10
0.3118622440944882
20
0.1565942125984252
11
0.3118622047244095
21
0.1565942125984252
0
LINE
8
BLACK
6
CONTINUOUS
10
0.3118622047244095
20
0.1565942125984252
11
0.3033770866141732
21
0.1536812992125984
0
LINE
8
BLACK
6
CONTINUOUS
10
0.3033770866141732
20
0.1536812992125984
11
0.3033770078740157
21
0.153681220472441
0
LINE
8
BLACK
6
CONTINUOUS
10
0.3033770078740157
20
0.153681220472441
11
0.2954868897637795
21
0.1494113779527559
0
LINE
8
BLACK
6
CONTINUOUS
10
0.2954868897637795
20
0.1494113779527559
11
0.2944494094488189
21
0.1486038976377953
0
LINE
8
BLACK
6
CONTINUOUS
10
0.2944494094488189
20
0.1486038976377953
11
0.2944493700787402
21
0.1486038582677165
0
LINE
8
BLACK
6
CONTINUOUS
10
0.2944493700787402
20
0.1486038582677165
11
0.3017573622047244
21
0.1412958661417323
0
LINE
8
BLACK
6
CONTINUOUS
10
0.3017573622047244
20
0.1412958661417323
11
0.3054544881889764
21
0.143585
0
LINE
8
BLACK
6
CONTINUOUS
10
0.3054544881889764
20
0.143585
11
0.3130759448818898
21
0.1465375590551181
0
LINE
8
BLACK
6
CONTINUOUS
10
0.3130759448818898
20
0.1465375590551181
11
0.321110157480315
21
0.1480394094488189
0
LINE
8
BLACK
6
CONTINUOUS
10
0.321110157480315
20
0.1480394094488189
11
0.3292835433070866
21
0.1480394094488189
0
LINE
8
BLACK
6
CONTINUOUS
10
0.3292835433070866
20
0.1480394094488189
11
0.3373177559055118
21
0.1465375590551181
0
LINE
8
BLACK
6
CONTINUOUS
10
0.3373177559055118
20
0.1465375590551181
11
0.3449392125984252
21
0.143585
0
LINE
8
BLACK
6
CONTINUOUS
10
0.3449392125984252
20
0.143585
11
0.3486362204724409
21
0.141295905511811
0
LINE
8
BLACK
6
CONTINUOUS
10
0.3486362204724409
20
0.141295905511811
11
0.3559442125984252
21
0.1486038582677165
0
LINE
8
BLACK
6
CONTINUOUS
10
0.3559442125984252
20
0.1486038582677165
11
0.3559442125984252
21
0.1486038976377953
0
LINE
8
BLACK
6
CONTINUOUS
10
0.3559442125984252
20
0.1486038976377953
11
0.3549069291338582
21
0.1494112598425197
0
LINE
8
BLACK
6
CONTINUOUS
10
0.3549069291338582
20
0.1494112598425197
11
0.3549066141732283
21
0.1494114566929134
0
LINE
8
BLACK
6
CONTINUOUS
10
0.3549066141732283
20
0.1494114566929134
11
0.3470166535433071
21
0.153681220472441
0
LINE
8
BLACK
6
CONTINUOUS
10
0.3470166535433071
20
0.153681220472441
11
0.3470165748031496
21
0.1536812992125984
0
LINE
8
BLACK
6
CONTINUOUS
10
0.3470165748031496
20
0.1536812992125984
11
0.3385314173228346
21
0.1565942125984252
0
LINE
8
BLACK
6
CONTINUOUS
10
0.3385314173228346
20
0.1565942125984252
11
0.3296823622047244
21
0.1580708661417323
0
LINE
8
BLACK
6
CONTINUOUS
10
0.3296823622047244
20
0.1580708661417323
11
0.3207113385826771
21
0.1580708661417323
0
LINE
8
BLACK
6
CONTINUOUS
10
0.3207113385826771
20
0.1580708661417323
11
0.3118622440944882
21
0.1565942125984252
0
LINE
8
BLACK
6
CONTINUOUS
10
0.5118622440944882
20
0.1565942125984252
11
0.5118622047244095
21
0.1565942125984252
0
LINE
8
BLACK
6
CONTINUOUS
10
0.5118622047244095
20
0.1565942125984252
11
0.5033770866141732
21
0.1536812992125984
0
LINE
8
BLACK
6
CONTINUOUS
10
0.5033770866141732
20
0.1536812992125984
11
0.5033770078740157
21
0.153681220472441
0
LINE
8
BLACK
6
CONTINUOUS
10
0.5033770078740157
20
0.153681220472441
11
0.4954868897637795
21
0.1494113779527559
0
LINE
8
BLACK
6
CONTINUOUS
10
0.4954868897637795
20
0.1494113779527559
11
0.4944494094488189
21
0.1486038976377953
0
LINE
8
BLACK
6
CONTINUOUS
10
0.4944494094488189
20
0.1486038976377953
11
0.4944493700787401
21
0.1486038582677165
0
LINE
8
BLACK
6
CONTINUOUS
10
0.4944493700787401
20
0.1486038582677165
11
0.5017573622047244
21
0.1412958661417323
0
LINE
8
BLACK
6
CONTINUOUS
10
0.5017573622047244
20
0.1412958661417323
11
0.5054544881889763
21
0.143585
0
LINE
8
BLACK
6
CONTINUOUS
10
0.5054544881889763
20
0.143585
11
0.5130759448818898
21
0.1465375590551181
0
LINE
8
BLACK
6
CONTINUOUS
10
0.5130759448818898
20
0.1465375590551181
11
0.521110157480315
21
0.1480394094488189
0
LINE
8
BLACK
6
CONTINUOUS
10
0.521110157480315
20
0.1480394094488189
11
0.5292835433070866
21
0.1480394094488189
0
LINE
8
BLACK
6
CONTINUOUS
10
0.5292835433070866
20
0.1480394094488189
11
0.5373177559055118
21
0.1465375590551181
0
LINE
8
BLACK
6
CONTINUOUS
10
0.5373177559055118
20
0.1465375590551181
11
0.5449392125984251
21
0.143585
0
LINE
8
BLACK
6
CONTINUOUS
10
0.5449392125984251
20
0.143585
11
0.548636220472441
21
0.141295905511811
0
LINE
8
BLACK
6
CONTINUOUS
10
0.548636220472441
20
0.141295905511811
11
0.5559442125984252
21
0.1486038582677165
0
LINE
8
BLACK
6
CONTINUOUS
10
0.5559442125984252
20
0.1486038582677165
11
0.5559442125984252
21
0.1486038976377953
0
LINE
8
BLACK
6
CONTINUOUS
10
0.5559442125984252
20
0.1486038976377953
11
0.5549069291338583
21
0.1494112598425197
0
LINE
8
BLACK
6
CONTINUOUS
10
0.5549069291338583
20
0.1494112598425197
11
0.5549066141732283
21
0.1494114566929134
0
LINE
8
BLACK
6
CONTINUOUS
10
0.5549066141732283
20
0.1494114566929134
11
0.5470166535433071
21
0.153681220472441
0
LINE
8
BLACK
6
CONTINUOUS
10
0.5470166535433071
20
0.153681220472441
11
0.5470165748031496
21
0.1536812992125984
0
LINE
8
BLACK
6
CONTINUOUS
10
0.5470165748031496
20
0.1536812992125984
11
0.5385314173228346
21
0.1565942125984252
0
LINE
8
BLACK
6
CONTINUOUS
10
0.5385314173228346
20
0.1565942125984252
11
0.5296823622047244
21
0.1580708661417323
0
LINE
8
BLACK
6
CONTINUOUS
10
0.5296823622047244
20
0.1580708661417323
11
0.5207113385826772
21
0.1580708661417323
0
LINE
8
BLACK
6
CONTINUOUS
10
0.5207113385826772
20
0.1580708661417323
11
0.5118622440944882
21
0.1565942125984252
0
LINE
8
BLACK
6
CONTINUOUS
10
0.0937007874015748
20
-0.0911417322834646
11
0.0637795275590551
21
-0.0911417322834646
0
LINE
8
BLACK
6
CONTINUOUS
10
0.0637795275590551
20
-0.0911417322834646
11
0.0637795275590551
21
-0.0360236220472441
0
LINE
8
BLACK
6
CONTINUOUS
10
0.0637795275590551
20
-0.0360236220472441
11
0.0937007874015748
21
-0.0360236220472441
0
LINE
8
BLACK
6
CONTINUOUS
10
0.0937007874015748
20
-0.0360236220472441
11
0.0937007874015748
21
-0.0911417322834646
0
LINE
8
BLACK
6
CONTINUOUS
10
-0.3554672834645669
20
0.469983937007874
11
-0.3466540157480315
21
0.4671203149606299
0
LINE
8
BLACK
6
CONTINUOUS
10
-0.3466540157480315
20
0.4671203149606299
11
-0.3383972047244094
21
0.4629132677165354
0
LINE
8
BLACK
6
CONTINUOUS
10
-0.3383972047244094
20
0.4629132677165354
11
-0.3309001968503937
21
0.4574663779527559
0
LINE
8
BLACK
6
CONTINUOUS
10
-0.3309001968503937
20
0.4574663779527559
11
-0.3274951574803149
21
0.4543187795275591
0
LINE
8
BLACK
6
CONTINUOUS
10
-0.3274951574803149
20
0.4543187795275591
11
-0.132623188976378
21
0.259446811023622
0
LINE
8
BLACK
6
CONTINUOUS
10
-0.132623188976378
20
0.259446811023622
11
-0.1294755905511811
21
0.2560417716535433
0
LINE
8
BLACK
6
CONTINUOUS
10
-0.1294755905511811
20
0.2560417716535433
11
-0.1240287007874016
21
0.2485447637795276
0
LINE
8
BLACK
6
CONTINUOUS
10
-0.1240287007874016
20
0.2485447637795276
11
-0.1198216535433071
21
0.2402879527559055
0
LINE
8
BLACK
6
CONTINUOUS
10
-0.1198216535433071
20
0.2402879527559055
11
-0.116958031496063
21
0.2314746850393701
0
LINE
8
BLACK
6
CONTINUOUS
10
-0.116958031496063
20
0.2314746850393701
11
-0.1155083858267717
21
0.222321968503937
0
LINE
8
BLACK
6
CONTINUOUS
10
-0.1155083858267717
20
0.222321968503937
11
-0.1155083858267717
21
0.2172770472440945
0
LINE
8
BLACK
6
CONTINUOUS
10
-0.1155083858267717
20
0.2172770472440945
11
-0.0080350787401575
21
0.1098037401574803
0
LINE
8
BLACK
6
CONTINUOUS
10
-0.0080350787401575
20
0.1098037401574803
11
-0.0052659842519685
21
0.1109507086614173
0
LINE
8
BLACK
6
CONTINUOUS
10
-0.0052659842519685
20
0.1109507086614173
11
-0.003215
21
0.1140201968503937
0
LINE
8
BLACK
6
CONTINUOUS
10
-0.003215
20
0.1140201968503937
11
-0.0004906299212598
21
0.117026062992126
0
LINE
8
BLACK
6
CONTINUOUS
10
-0.0004906299212598
20
0.117026062992126
11
0.019981811023622
21
0.1374985039370079
0
LINE
8
BLACK
6
CONTINUOUS
10
0.019981811023622
20
0.1374985039370079
11
0.118401968503937
21
0.2359187007874016
0
LINE
8
BLACK
6
CONTINUOUS
10
0.118401968503937
20
0.2359187007874016
11
0.1198216535433071
21
0.2402879527559055
0
LINE
8
BLACK
6
CONTINUOUS
10
0.1198216535433071
20
0.2402879527559055
11
0.1240287007874016
21
0.2485447637795276
0
LINE
8
BLACK
6
CONTINUOUS
10
0.1240287007874016
20
0.2485447637795276
11
0.1294755905511811
21
0.2560417716535433
0
LINE
8
BLACK
6
CONTINUOUS
10
0.1294755905511811
20
0.2560417716535433
11
0.132623188976378
21
0.259446811023622
0
LINE
8
BLACK
6
CONTINUOUS
10
0.132623188976378
20
0.259446811023622
11
0.3274951574803149
21
0.4543187795275591
0
LINE
8
BLACK
6
CONTINUOUS
10
0.3274951574803149
20
0.4543187795275591
11
0.3309001968503937
21
0.4574663779527559
0
LINE
8
BLACK
6
CONTINUOUS
10
0.3309001968503937
20
0.4574663779527559
11
0.3383972047244094
21
0.4629132677165354
0
LINE
8
BLACK
6
CONTINUOUS
10
0.3383972047244094
20
0.4629132677165354
11
0.3466540157480315
21
0.4671203149606299
0
LINE
8
BLACK
6
CONTINUOUS
10
0.3466540157480315
20
0.4671203149606299
11
0.3554672834645669
21
0.469983937007874
0
LINE
8
BLACK
6
CONTINUOUS
10
0.3554672834645669
20
0.469983937007874
11
0.36462
21
0.4714335826771653
0
LINE
8
BLACK
6
CONTINUOUS
10
0.36462
20
0.4714335826771653
11
0.3738868503937008
21
0.4714335826771653
0
LINE
8
BLACK
6
CONTINUOUS
10
0.3738868503937008
20
0.4714335826771653
11
0.3830395669291338
21
0.469983937007874
0
LINE
8
BLACK
6
CONTINUOUS
10
0.3830395669291338
20
0.469983937007874
11
0.3918528346456693
21
0.4671203149606299
0
LINE
8
BLACK
6
CONTINUOUS
10
0.3918528346456693
20
0.4671203149606299
11
0.4001096456692913
21
0.4629132677165354
0
LINE
8
BLACK
6
CONTINUOUS
10
0.4001096456692913
20
0.4629132677165354
11
0.4076066535433071
21
0.4574663779527559
0
LINE
8
BLACK
6
CONTINUOUS
10
0.4076066535433071
20
0.4574663779527559
11
0.4141592913385826
21
0.4509137401574803
0
LINE
8
BLACK
6
CONTINUOUS
10
0.4141592913385826
20
0.4509137401574803
11
0.4196061811023622
21
0.4434167322834646
0
LINE
8
BLACK
6
CONTINUOUS
10
0.4196061811023622
20
0.4434167322834646
11
0.4238132283464567
21
0.4351599212598425
0
LINE
8
BLACK
6
CONTINUOUS
10
0.4238132283464567
20
0.4351599212598425
11
0.4266768503937008
21
0.4263466535433071
0
LINE
8
BLACK
6
CONTINUOUS
10
0.4266768503937008
20
0.4263466535433071
11
0.4281264960629921
21
0.417193937007874
0
LINE
8
BLACK
6
CONTINUOUS
10
0.4281264960629921
20
0.417193937007874
11
0.4281264960629921
21
0.4079270866141732
0
LINE
8
BLACK
6
CONTINUOUS
10
0.4281264960629921
20
0.4079270866141732
11
0.4266768503937008
21
0.3987743700787402
0
LINE
8
BLACK
6
CONTINUOUS
10
0.4266768503937008
20
0.3987743700787402
11
0.4238132283464567
21
0.3899611023622047
0
LINE
8
BLACK
6
CONTINUOUS
10
0.4238132283464567
20
0.3899611023622047
11
0.4196061811023622
21
0.3817042913385827
0
LINE
8
BLACK
6
CONTINUOUS
10
0.4196061811023622
20
0.3817042913385827
11
0.4141592913385826
21
0.3742072834645669
0
LINE
8
BLACK
6
CONTINUOUS
10
0.4141592913385826
20
0.3742072834645669
11
0.4110116929133858
21
0.3708022440944882
0
LINE
8
BLACK
6
CONTINUOUS
10
0.4110116929133858
20
0.3708022440944882
11
0.2161397244094488
21
0.1759302755905512
0
LINE
8
BLACK
6
CONTINUOUS
10
0.2161397244094488
20
0.1759302755905512
11
0.2127346850393701
21
0.1727826771653543
0
LINE
8
BLACK
6
CONTINUOUS
10
0.2127346850393701
20
0.1727826771653543
11
0.2052376771653543
21
0.1673357874015748
0
LINE
8
BLACK
6
CONTINUOUS
10
0.2052376771653543
20
0.1673357874015748
11
0.1969808661417323
21
0.1631287401574803
0
LINE
8
BLACK
6
CONTINUOUS
10
0.1969808661417323
20
0.1631287401574803
11
0.1881675984251968
21
0.1602651181102362
0
LINE
8
BLACK
6
CONTINUOUS
10
0.1881675984251968
20
0.1602651181102362
11
0.1790148818897638
21
0.1588154724409449
0
LINE
8
BLACK
6
CONTINUOUS
10
0.1790148818897638
20
0.1588154724409449
11
0.169748031496063
21
0.1588154724409449
0
LINE
8
BLACK
6
CONTINUOUS
10
0.169748031496063
20
0.1588154724409449
11
0.1605953149606299
21
0.1602651181102362
0
LINE
8
BLACK
6
CONTINUOUS
10
0.1605953149606299
20
0.1602651181102362
11
0.1598981102362205
21
0.1604916929133858
0
LINE
8
BLACK
6
CONTINUOUS
10
0.1598981102362205
20
0.1604916929133858
11
0.0784433858267717
21
0.0790369291338583
0
LINE
8
BLACK
6
CONTINUOUS
10
0.0784433858267717
20
0.0790369291338583
11
0.0579709448818898
21
0.0585644881889764
0
LINE
8
BLACK
6
CONTINUOUS
10
0.0579709448818898
20
0.0585644881889764
11
0.0549650787401575
21
0.0558401181102362
0
LINE
8
BLACK
6
CONTINUOUS
10
0.0549650787401575
20
0.0558401181102362
11
0.0482270078740157
21
0.0513379133858268
0
LINE
8
BLACK
6
CONTINUOUS
10
0.0482270078740157
20
0.0513379133858268
11
0.0437007874015748
21
0.0494631102362205
0
LINE
8
BLACK
6
CONTINUOUS
10
0.0437007874015748
20
0.0494631102362205
11
0.0437007874015748
21
0.0438976377952756
0
LINE
8
BLACK
6
CONTINUOUS
10
0.0437007874015748
20
0.0438976377952756
11
0.0376357086614173
21
0.0438976377952756
0
LINE
8
BLACK
6
CONTINUOUS
10
0.0376357086614173
20
0.0438976377952756
11
0.0361205511811024
21
0.042225905511811
0
LINE
8
BLACK
6
CONTINUOUS
10
0.0361205511811024
20
0.042225905511811
11
0.0186008661417323
21
0.0247062204724409
0
LINE
8
BLACK
6
CONTINUOUS
10
0.0186008661417323
20
0.0247062204724409
11
0.015595
21
0.0219818503937008
0
LINE
8
BLACK
6
CONTINUOUS
10
0.015595
20
0.0219818503937008
11
0.0088569291338583
21
0.0174796456692913
0
LINE
8
BLACK
6
CONTINUOUS
10
0.0088569291338583
20
0.0174796456692913
11
0.00137
21
0.0143784645669291
0
LINE
8
BLACK
6
CONTINUOUS
10
0.00137
20
0.0143784645669291
11
-0.006578031496063
21
0.0127974803149606
0
LINE
8
BLACK
6
CONTINUOUS
10
-0.006578031496063
20
0.0127974803149606
11
-0.014681811023622
21
0.0127974803149606
0
LINE
8
BLACK
6
CONTINUOUS
10
-0.014681811023622
20
0.0127974803149606
11
-0.0226298818897638
21
0.0143784645669291
0
LINE
8
BLACK
6
CONTINUOUS
10
-0.0226298818897638
20
0.0143784645669291
11
-0.030116811023622
21
0.0174796456692913
0
LINE
8
BLACK
6
CONTINUOUS
10
-0.030116811023622
20
0.0174796456692913
11
-0.036854842519685
21
0.0219818503937008
0
LINE
8
BLACK
6
CONTINUOUS
10
-0.036854842519685
20
0.0219818503937008
11
-0.0398607086614173
21
0.0247062204724409
0
LINE
8
BLACK
6
CONTINUOUS
10
-0.0398607086614173
20
0.0247062204724409
11
-0.1739699606299213
21
0.1588154724409449
0
LINE
8
BLACK
6
CONTINUOUS
10
-0.1739699606299213
20
0.1588154724409449
11
-0.1790148818897638
21
0.1588154724409449
0
LINE
8
BLACK
6
CONTINUOUS
10
-0.1790148818897638
20
0.1588154724409449
11
-0.1881675984251968
21
0.1602651181102362
0
LINE
8
BLACK
6
CONTINUOUS
10
-0.1881675984251968
20
0.1602651181102362
11
-0.1969808661417323
21
0.1631287401574803
0
LINE
8
BLACK
6
CONTINUOUS
10
-0.1969808661417323
20
0.1631287401574803
11
-0.2052376771653543
21
0.1673357874015748
0
LINE
8
BLACK
6
CONTINUOUS
10
-0.2052376771653543
20
0.1673357874015748
11
-0.2127346850393701
21
0.1727826771653543
0
LINE
8
BLACK
6
CONTINUOUS
10
-0.2127346850393701
20
0.1727826771653543
11
-0.2161397244094488
21
0.1759302755905512
0
LINE
8
BLACK
6
CONTINUOUS
10
-0.2161397244094488
20
0.1759302755905512
11
-0.4110116929133858
21
0.3708022440944882
0
LINE
8
BLACK
6
CONTINUOUS
10
-0.4110116929133858
20
0.3708022440944882
11
-0.4141592913385826
21
0.3742072834645669
0
LINE
8
BLACK
6
CONTINUOUS
10
-0.4141592913385826
20
0.3742072834645669
11
-0.4196061811023622
21
0.3817042913385827
0
LINE
8
BLACK
6
CONTINUOUS
10
-0.4196061811023622
20
0.3817042913385827
11
-0.4238132283464567
21
0.3899611023622047
0
LINE
8
BLACK
6
CONTINUOUS
10
-0.4238132283464567
20
0.3899611023622047
11
-0.4266768503937008
21
0.3987743700787402
0
LINE
8
BLACK
6
CONTINUOUS
10
-0.4266768503937008
20
0.3987743700787402
11
-0.4281264960629921
21
0.4079270866141732
0
LINE
8
BLACK
6
CONTINUOUS
10
-0.4281264960629921
20
0.4079270866141732
11
-0.4281264960629921
21
0.417193937007874
0
LINE
8
BLACK
6
CONTINUOUS
10
-0.4281264960629921
20
0.417193937007874
11
-0.4266768503937008
21
0.4263466535433071
0
LINE
8
BLACK
6
CONTINUOUS
10
-0.4266768503937008
20
0.4263466535433071
11
-0.4238132283464567
21
0.4351599212598425
0
LINE
8
BLACK
6
CONTINUOUS
10
-0.4238132283464567
20
0.4351599212598425
11
-0.4196061811023622
21
0.4434167322834646
0
LINE
8
BLACK
6
CONTINUOUS
10
-0.4196061811023622
20
0.4434167322834646
11
-0.4141592913385826
21
0.4509137401574803
0
LINE
8
BLACK
6
CONTINUOUS
10
-0.4141592913385826
20
0.4509137401574803
11
-0.4076066535433071
21
0.4574663779527559
0
LINE
8
BLACK
6
CONTINUOUS
10
-0.4076066535433071
20
0.4574663779527559
11
-0.4001096456692913
21
0.4629132677165354
0
LINE
8
BLACK
6
CONTINUOUS
10
-0.4001096456692913
20
0.4629132677165354
11
-0.3918528346456693
21
0.4671203149606299
0
LINE
8
BLACK
6
CONTINUOUS
10
-0.3918528346456693
20
0.4671203149606299
11
-0.3830395669291338
21
0.469983937007874
0
LINE
8
BLACK
6
CONTINUOUS
10
-0.3830395669291338
20
0.469983937007874
11
-0.3738868503937008
21
0.4714335826771653
0
LINE
8
BLACK
6
CONTINUOUS
10
-0.3738868503937008
20
0.4714335826771653
11
-0.36462
21
0.4714335826771653
0
LINE
8
BLACK
6
CONTINUOUS
10
-0.36462
20
0.4714335826771653
11
-0.3554672834645669
21
0.469983937007874
0
LINE
8
BLACK
6
CONTINUOUS
10
0.1437007874015748
20
0.0884055118110236
11
0.1714564566929134
21
0.0884055118110236
0
LINE
8
BLACK
6
CONTINUOUS
10
0.1714564566929134
20
0.0884055118110236
11
0.1736687401574803
21
0.0882605118110236
0
LINE
8
BLACK
6
CONTINUOUS
10
0.1736687401574803
20
0.0882605118110236
11
0.1779424803149606
21
0.0871153543307087
0
LINE
8
BLACK
6
CONTINUOUS
10
0.1779424803149606
20
0.0871153543307087
11
0.1817742519685039
21
0.0849031102362205
0
LINE
8
BLACK
6
CONTINUOUS
10
0.1817742519685039
20
0.0849031102362205
11
0.1817745275590551
21
0.0849028346456693
0
LINE
8
BLACK
6
CONTINUOUS
10
0.1817745275590551
20
0.0849028346456693
11
0.183441062992126
21
0.0834412992125984
0
LINE
8
BLACK
6
CONTINUOUS
10
0.183441062992126
20
0.0834412992125984
11
0.2009610236220472
21
0.0659213779527559
0
LINE
8
BLACK
6
CONTINUOUS
10
0.2009610236220472
20
0.0659213779527559
11
0.2024227952755905
21
0.0642545275590551
0
LINE
8
BLACK
6
CONTINUOUS
10
0.2024227952755905
20
0.0642545275590551
11
0.2046350393700787
21
0.0604227952755906
0
LINE
8
BLACK
6
CONTINUOUS
10
0.2046350393700787
20
0.0604227952755906
11
0.2057802362204724
21
0.0561490157480315
0
LINE
8
BLACK
6
CONTINUOUS
10
0.2057802362204724
20
0.0561490157480315
11
0.2057802362204724
21
0.0517244881889764
0
LINE
8
BLACK
6
CONTINUOUS
10
0.2057802362204724
20
0.0517244881889764
11
0.2046350393700787
21
0.0474507086614173
0
LINE
8
BLACK
6
CONTINUOUS
10
0.2046350393700787
20
0.0474507086614173
11
0.2024227952755905
21
0.0436189763779528
0
LINE
8
BLACK
6
CONTINUOUS
10
0.2024227952755905
20
0.0436189763779528
11
0.1992941732283464
21
0.0404903543307087
0
LINE
8
BLACK
6
CONTINUOUS
10
0.1992941732283464
20
0.0404903543307087
11
0.1954624409448819
21
0.0382781102362205
0
LINE
8
BLACK
6
CONTINUOUS
10
0.1954624409448819
20
0.0382781102362205
11
0.1911886614173228
21
0.0371329133858268
0
LINE
8
BLACK
6
CONTINUOUS
10
0.1911886614173228
20
0.0371329133858268
11
0.1867641338582677
21
0.0371329133858268
0
LINE
8
BLACK
6
CONTINUOUS
10
0.1867641338582677
20
0.0371329133858268
11
0.1824903543307086
21
0.0382781102362205
0
LINE
8
BLACK
6
CONTINUOUS
10
0.1824903543307086
20
0.0382781102362205
11
0.1786586220472441
21
0.0404903543307087
0
LINE
8
BLACK
6
CONTINUOUS
10
0.1786586220472441
20
0.0404903543307087
11
0.1769917716535433
21
0.041952125984252
0
LINE
8
BLACK
6
CONTINUOUS
10
0.1769917716535433
20
0.041952125984252
11
0.164436062992126
21
0.054507874015748
0
LINE
8
BLACK
6
CONTINUOUS
10
0.164436062992126
20
0.054507874015748
11
0.1437007874015748
21
0.054507874015748
0
LINE
8
BLACK
6
CONTINUOUS
10
0.1437007874015748
20
0.054507874015748
11
0.1437007874015748
21
0.0438976377952756
0
LINE
8
BLACK
6
CONTINUOUS
10
0.1437007874015748
20
0.0438976377952756
11
0.1137795275590551
21
0.0438976377952756
0
LINE
8
BLACK
6
CONTINUOUS
10
0.1137795275590551
20
0.0438976377952756
11
0.1137795275590551
21
0.0637616535433071
0
LINE
8
BLACK
6
CONTINUOUS
10
0.1137795275590551
20
0.0637616535433071
11
0.1130814960629921
21
0.0649706692913386
0
LINE
8
BLACK
6
CONTINUOUS
10
0.1130814960629921
20
0.0649706692913386
11
0.1119363385826772
21
0.0692444094488189
0
LINE
8
BLACK
6
CONTINUOUS
10
0.1119363385826772
20
0.0692444094488189
11
0.1119363385826772
21
0.0736689763779527
0
LINE
8
BLACK
6
CONTINUOUS
10
0.1119363385826772
20
0.0736689763779527
11
0.1130814960629921
21
0.0779427165354331
0
LINE
8
BLACK
6
CONTINUOUS
10
0.1130814960629921
20
0.0779427165354331
11
0.1137795275590551
21
0.0791517716535433
0
LINE
8
BLACK
6
CONTINUOUS
10
0.1137795275590551
20
0.0791517716535433
11
0.1137795275590551
21
0.0990157480314961
0
LINE
8
BLACK
6
CONTINUOUS
10
0.1137795275590551
20
0.0990157480314961
11
0.1437007874015748
21
0.0990157480314961
0
LINE
8
BLACK
6
CONTINUOUS
10
0.1437007874015748
20
0.0990157480314961
11
0.1437007874015748
21
0.0884055118110236
0
CIRCLE
8
BLACK
10
-0.4724409448818898
20
0.
40
0.0068897637795276
0
CIRCLE
8
BLACK
10
0.
20
-0.4724409448818898
40
0.0068897637795276
0
CIRCLE
8
BLACK
10
0.4251968503937008
20
0.0039370078740157
40
0.0068897637795276
0
CIRCLE
8
BLACK
10
0.3251968503937008
20
0.1039370078740157
40
0.0068897637795276
0
CIRCLE
8
BLACK
10
0.3251968503937008
20
-0.0960629921259843
40
0.0068897637795276
0
CIRCLE
8
BLACK
10
0.5251968503937008
20
0.1039370078740157
40
0.0068897637795276
0
CIRCLE
8
BLACK
10
0.5251968503937008
20
-0.0960629921259843
40
0.0068897637795276
0
CIRCLE
8
BLACK
10
-0.1771653543307087
20
0.2204724409448819
40
0.0068897637795276
0
CIRCLE
8
BLACK
10
0.
20
0.4724409448818898
40
0.0068897637795276
0
CIRCLE
8
BLACK
10
0.1771653543307087
20
-0.2125984251968504
40
0.0068897637795276
0
CIRCLE
8
BLACK
10
-0.1771653543307087
20
-0.2125984251968504
40
0.0068897637795276
0
CIRCLE
8
BLACK
10
0.1771653543307087
20
0.2204724409448819
40
0.0068897637795276
0
CIRCLE
8
BLACK
10
0.2384881889763779
20
-0.0926929133858268
40
0.0078740157480315
0
CIRCLE
8
BLACK
10
0.2519685039370079
20
-0.047244094488189
40
0.0078740157480315
0
CIRCLE
8
BLACK
10
0.424488188976378
20
0.1073070866141732
40
0.0078740157480315
0
CIRCLE
8
BLACK
10
0.1968503937007874
20
-0.047244094488189
40
0.0078740157480315
0
CIRCLE
8
BLACK
10
0.5184881889763779
20
0.0073070866141732
40
0.0078740157480315
0
CIRCLE
8
BLACK
10
0.426488188976378
20
-0.0986929133858268
40
0.0078740157480315
0
CIRCLE
8
BLACK
10
0.220488188976378
20
0.0893070866141732
40
0.0078740157480315
0
CIRCLE
8
BLACK
10
0.0590551181102362
20
0.1181102362204724
40
0.0078740157480315
0
CIRCLE
8
BLACK
10
-0.009511811023622
20
0.0493070866141732
40
0.0078740157480315
0
CIRCLE
8
BLACK
10
0.4032283464566929
20
0.4100472440944882
40
0.0078740157480315
0
CIRCLE
8
BLACK
10
-0.326251968503937
20
0.3300472440944882
40
0.0078740157480315
0
CIRCLE
8
BLACK
10
-0.2868818897637795
20
0.2906771653543307
40
0.0078740157480315
0
CIRCLE
8
BLACK
10
-0.2508818897637795
20
0.3286771653543307
40
0.0078740157480315
0
CIRCLE
8
BLACK
10
-0.290251968503937
20
0.3680472440944882
40
0.0078740157480315
0
CIRCLE
8
BLACK
10
-0.078740157480315
20
0.1181102362204724
40
0.0078740157480315
0
CIRCLE
8
BLACK
10
0.2851181102362205
20
0.2919370078740157
40
0.0078740157480315
0
CIRCLE
8
BLACK
10
0.209748031496063
20
0.2885669291338583
40
0.0078740157480315
0
CIRCLE
8
BLACK
10
-0.3296220472440945
20
0.4074173228346457
40
0.0078740157480315
0
CIRCLE
8
BLACK
10
-0.368992125984252
20
0.4467874015748031
40
0.0078740157480315
0
CIRCLE
8
BLACK
10
-0.4049921259842519
20
0.4087874015748031
40
0.0078740157480315
0
CIRCLE
8
BLACK
10
0.3244881889763779
20
0.3313070866141732
40
0.0078740157480315
0
CIRCLE
8
BLACK
10
0.3638582677165354
20
0.3706771653543307
40
0.0078740157480315
0
CIRCLE
8
BLACK
10
-0.211511811023622
20
0.2893070866141732
40
0.0078740157480315
0
CIRCLE
8
BLACK
10
0.3672283464566929
20
0.4460472440944882
40
0.0078740157480315
0
CIRCLE
8
BLACK
10
0.2491181102362205
20
0.3279370078740158
40
0.0078740157480315
0
CIRCLE
8
BLACK
10
0.3278582677165354
20
0.4066771653543307
40
0.0078740157480315
0
CIRCLE
8
BLACK
10
0.288488188976378
20
0.3673070866141732
40
0.0078740157480315
0
CIRCLE
8
BLACK
10
0.245748031496063
20
0.2525669291338583
40
0.0078740157480315
0
CIRCLE
8
BLACK
10
-0.247511811023622
20
0.2513070866141732
40
0.0078740157480315
0
CIRCLE
8
BLACK
10
-0.3656220472440945
20
0.3694173228346457
40
0.0078740157480315
0
CIRCLE
8
BLACK
10
-0.2441417322834646
20
-0.2433228346456693
40
0.0078740157480315
0
CIRCLE
8
BLACK
10
0.2803779527559055
20
-0.2825826771653543
40
0.0078740157480315
0
CIRCLE
8
BLACK
10
-0.3656220472440945
20
-0.4368031496062992
40
0.0078740157480315
0
CIRCLE
8
BLACK
10
0.3591181102362205
20
-0.3613228346456693
40
0.0078740157480315
0
CIRCLE
8
BLACK
10
-0.3228818897637795
20
-0.3220629921259843
40
0.0078740157480315
0
CIRCLE
8
BLACK
10
0.319748031496063
20
-0.3219527559055118
40
0.0078740157480315
0
CIRCLE
8
BLACK
10
-0.2835118110236221
20
-0.2826929133858267
40
0.0078740157480315
0
CIRCLE
8
BLACK
10
-0.362251968503937
20
-0.3614330708661417
40
0.0078740157480315
0
CIRCLE
8
BLACK
10
-0.078740157480315
20
-0.1181102362204724
40
0.0078740157480315
0
CIRCLE
8
BLACK
10
0.241007874015748
20
-0.2432125984251969
40
0.0078740157480315
0
CIRCLE
8
BLACK
10
0.287748031496063
20
-0.3599527559055118
40
0.0078740157480315
0
CIRCLE
8
BLACK
10
-0.326251968503937
20
-0.3974330708661417
40
0.0078740157480315
0
CIRCLE
8
BLACK
10
0.2483779527559055
20
-0.3205826771653543
40
0.0078740157480315
0
CIRCLE
8
BLACK
10
-0.005511811023622
20
-0.0866929133858268
40
0.0078740157480315
0
CIRCLE
8
BLACK
10
0.209007874015748
20
-0.2812125984251969
40
0.0078740157480315
0
CIRCLE
8
BLACK
10
0.3271181102362204
20
-0.3993228346456693
40
0.0078740157480315
0
CIRCLE
8
BLACK
10
0.3984881889763779
20
-0.4006929133858267
40
0.0078740157480315
0
CIRCLE
8
BLACK
10
-0.2868818897637795
20
-0.3580629921259842
40
0.0078740157480315
0
CIRCLE
8
BLACK
10
-0.2081417322834646
20
-0.2793228346456693
40
0.0078740157480315
0
CIRCLE
8
BLACK
10
-0.4016220472440945
20
-0.4008031496062992
40
0.0078740157480315
0
CIRCLE
8
BLACK
10
0.0731299212598425
20
-0.1237204724409449
40
0.0078740157480315
0
CIRCLE
8
BLACK
10
0.366488188976378
20
-0.4386929133858268
40
0.0078740157480315
0
CIRCLE
8
BLACK
10
-0.247511811023622
20
-0.3186929133858268
40
0.0078740157480315
0
CIRCLE
8
BLACK
10
0.1889763779527559
20
0.0539367716535433
40
0.0078740157480315
  0
ENDSEC
  0
EOF
