ISO-10303-21;
HEADER;
FILE_DESCRIPTION(('KiCad electronic assembly'),'2;1');
FILE_NAME('QFHBAL01.step','2024-11-07T21:27:21',('Pcbnew'),('Kicad'),
  'Open CASCADE STEP processor 7.6','KiCad to STEP converter','Unknown'
  );
FILE_SCHEMA(('AUTOMOTIVE_DESIGN { 1 0 10303 214 1 1 1 1 }'));
ENDSEC;
DATA;
#1 = APPLICATION_PROTOCOL_DEFINITION('international standard',
  'automotive_design',2000,#2);
#2 = APPLICATION_CONTEXT(
  'core data for automotive mechanical design processes');
#3 = SHAPE_DEFINITION_REPRESENTATION(#4,#10);
#4 = PRODUCT_DEFINITION_SHAPE('','',#5);
#5 = PRODUCT_DEFINITION('design','',#6,#9);
#6 = PRODUCT_DEFINITION_FORMATION('','',#7);
#7 = PRODUCT('QFHBAL01 1','QFHBAL01 1','',(#8));
#8 = PRODUCT_CONTEXT('',#2,'mechanical');
#9 = PRODUCT_DEFINITION_CONTEXT('part definition',#2,'design');
#10 = SHAPE_REPRESENTATION('',(#11,#15),#19);
#11 = AXIS2_PLACEMENT_3D('',#12,#13,#14);
#12 = CARTESIAN_POINT('',(0.,0.,0.));
#13 = DIRECTION('',(0.,0.,1.));
#14 = DIRECTION('',(1.,0.,-0.));
#15 = AXIS2_PLACEMENT_3D('',#16,#17,#18);
#16 = CARTESIAN_POINT('',(0.,0.,0.));
#17 = DIRECTION('',(0.,0.,1.));
#18 = DIRECTION('',(1.,0.,-0.));
#19 = ( GEOMETRIC_REPRESENTATION_CONTEXT(3) 
GLOBAL_UNCERTAINTY_ASSIGNED_CONTEXT((#23)) GLOBAL_UNIT_ASSIGNED_CONTEXT(
(#20,#21,#22)) REPRESENTATION_CONTEXT('Context #1',
  '3D Context with UNIT and UNCERTAINTY') );
#20 = ( LENGTH_UNIT() NAMED_UNIT(*) SI_UNIT(.MILLI.,.METRE.) );
#21 = ( NAMED_UNIT(*) PLANE_ANGLE_UNIT() SI_UNIT($,.RADIAN.) );
#22 = ( NAMED_UNIT(*) SI_UNIT($,.STERADIAN.) SOLID_ANGLE_UNIT() );
#23 = UNCERTAINTY_MEASURE_WITH_UNIT(LENGTH_MEASURE(1.E-07),#20,
  'distance_accuracy_value','confusion accuracy');
#24 = PRODUCT_RELATED_PRODUCT_CATEGORY('part',$,(#7));
#25 = SHAPE_DEFINITION_REPRESENTATION(#26,#32);
#26 = PRODUCT_DEFINITION_SHAPE('','',#27);
#27 = PRODUCT_DEFINITION('design','',#28,#31);
#28 = PRODUCT_DEFINITION_FORMATION('','',#29);
#29 = PRODUCT('QFHBAL01_PCB','QFHBAL01_PCB','',(#30));
#30 = PRODUCT_CONTEXT('',#2,'mechanical');
#31 = PRODUCT_DEFINITION_CONTEXT('part definition',#2,'design');
#32 = ADVANCED_BREP_SHAPE_REPRESENTATION('',(#11,#33),#554);
#33 = MANIFOLD_SOLID_BREP('',#34);
#34 = CLOSED_SHELL('',(#35,#68,#209,#350,#367,#384,#401,#418,#435,#452,
    #469,#486,#503,#520,#537));
#35 = ADVANCED_FACE('',(#36),#63,.T.);
#36 = FACE_BOUND('',#37,.F.);
#37 = EDGE_LOOP('',(#38,#48,#55,#56));
#38 = ORIENTED_EDGE('',*,*,#39,.T.);
#39 = EDGE_CURVE('',#40,#42,#44,.T.);
#40 = VERTEX_POINT('',#41);
#41 = CARTESIAN_POINT('',(166.,-90.,0.));
#42 = VERTEX_POINT('',#43);
#43 = CARTESIAN_POINT('',(166.,-90.,1.6));
#44 = LINE('',#45,#46);
#45 = CARTESIAN_POINT('',(166.,-90.,0.));
#46 = VECTOR('',#47,1.);
#47 = DIRECTION('',(0.,0.,1.));
#48 = ORIENTED_EDGE('',*,*,#49,.T.);
#49 = EDGE_CURVE('',#42,#42,#50,.T.);
#50 = CIRCLE('',#51,16.);
#51 = AXIS2_PLACEMENT_3D('',#52,#53,#54);
#52 = CARTESIAN_POINT('',(150.,-90.,1.6));
#53 = DIRECTION('',(0.,0.,1.));
#54 = DIRECTION('',(1.,0.,-0.));
#55 = ORIENTED_EDGE('',*,*,#39,.F.);
#56 = ORIENTED_EDGE('',*,*,#57,.F.);
#57 = EDGE_CURVE('',#40,#40,#58,.T.);
#58 = CIRCLE('',#59,16.);
#59 = AXIS2_PLACEMENT_3D('',#60,#61,#62);
#60 = CARTESIAN_POINT('',(150.,-90.,0.));
#61 = DIRECTION('',(0.,0.,1.));
#62 = DIRECTION('',(1.,0.,-0.));
#63 = CYLINDRICAL_SURFACE('',#64,16.);
#64 = AXIS2_PLACEMENT_3D('',#65,#66,#67);
#65 = CARTESIAN_POINT('',(150.,-90.,0.));
#66 = DIRECTION('',(-0.,-0.,-1.));
#67 = DIRECTION('',(1.,0.,-0.));
#68 = ADVANCED_FACE('',(#69,#72,#83,#94,#105,#116,#127,#138,#149,#160,
    #171,#182,#193),#204,.F.);
#69 = FACE_BOUND('',#70,.F.);
#70 = EDGE_LOOP('',(#71));
#71 = ORIENTED_EDGE('',*,*,#57,.T.);
#72 = FACE_BOUND('',#73,.F.);
#73 = EDGE_LOOP('',(#74));
#74 = ORIENTED_EDGE('',*,*,#75,.T.);
#75 = EDGE_CURVE('',#76,#76,#78,.T.);
#76 = VERTEX_POINT('',#77);
#77 = CARTESIAN_POINT('',(150.,-103.6,0.));
#78 = CIRCLE('',#79,1.6);
#79 = AXIS2_PLACEMENT_3D('',#80,#81,#82);
#80 = CARTESIAN_POINT('',(150.,-102.,0.));
#81 = DIRECTION('',(-0.,0.,-1.));
#82 = DIRECTION('',(-0.,-1.,0.));
#83 = FACE_BOUND('',#84,.F.);
#84 = EDGE_LOOP('',(#85));
#85 = ORIENTED_EDGE('',*,*,#86,.T.);
#86 = EDGE_CURVE('',#87,#87,#89,.T.);
#87 = VERTEX_POINT('',#88);
#88 = CARTESIAN_POINT('',(145.5,-96.5,0.));
#89 = CIRCLE('',#90,1.1);
#90 = AXIS2_PLACEMENT_3D('',#91,#92,#93);
#91 = CARTESIAN_POINT('',(145.5,-95.4,0.));
#92 = DIRECTION('',(-0.,0.,-1.));
#93 = DIRECTION('',(-0.,-1.,0.));
#94 = FACE_BOUND('',#95,.F.);
#95 = EDGE_LOOP('',(#96));
#96 = ORIENTED_EDGE('',*,*,#97,.T.);
#97 = EDGE_CURVE('',#98,#98,#100,.T.);
#98 = VERTEX_POINT('',#99);
#99 = CARTESIAN_POINT('',(154.5,-96.5,0.));
#100 = CIRCLE('',#101,1.1);
#101 = AXIS2_PLACEMENT_3D('',#102,#103,#104);
#102 = CARTESIAN_POINT('',(154.5,-95.4,0.));
#103 = DIRECTION('',(-0.,0.,-1.));
#104 = DIRECTION('',(-0.,-1.,0.));
#105 = FACE_BOUND('',#106,.F.);
#106 = EDGE_LOOP('',(#107));
#107 = ORIENTED_EDGE('',*,*,#108,.T.);
#108 = EDGE_CURVE('',#109,#109,#111,.T.);
#109 = VERTEX_POINT('',#110);
#110 = CARTESIAN_POINT('',(158.26,-93.29,0.));
#111 = CIRCLE('',#112,0.85);
#112 = AXIS2_PLACEMENT_3D('',#113,#114,#115);
#113 = CARTESIAN_POINT('',(158.26,-92.44,0.));
#114 = DIRECTION('',(-0.,0.,-1.));
#115 = DIRECTION('',(-0.,-1.,0.));
#116 = FACE_BOUND('',#117,.F.);
#117 = EDGE_LOOP('',(#118));
#118 = ORIENTED_EDGE('',*,*,#119,.T.);
#119 = EDGE_CURVE('',#120,#120,#122,.T.);
#120 = VERTEX_POINT('',#121);
#121 = CARTESIAN_POINT('',(163.34,-93.29,0.));
#122 = CIRCLE('',#123,0.85);
#123 = AXIS2_PLACEMENT_3D('',#124,#125,#126);
#124 = CARTESIAN_POINT('',(163.34,-92.44,0.));
#125 = DIRECTION('',(-0.,0.,-1.));
#126 = DIRECTION('',(-0.,-1.,0.));
#127 = FACE_BOUND('',#128,.F.);
#128 = EDGE_LOOP('',(#129));
#129 = ORIENTED_EDGE('',*,*,#130,.T.);
#130 = EDGE_CURVE('',#131,#131,#133,.T.);
#131 = VERTEX_POINT('',#132);
#132 = CARTESIAN_POINT('',(138.,-91.6,0.));
#133 = CIRCLE('',#134,1.6);
#134 = AXIS2_PLACEMENT_3D('',#135,#136,#137);
#135 = CARTESIAN_POINT('',(138.,-90.,0.));
#136 = DIRECTION('',(-0.,0.,-1.));
#137 = DIRECTION('',(-0.,-1.,0.));
#138 = FACE_BOUND('',#139,.F.);
#139 = EDGE_LOOP('',(#140));
#140 = ORIENTED_EDGE('',*,*,#141,.T.);
#141 = EDGE_CURVE('',#142,#142,#144,.T.);
#142 = VERTEX_POINT('',#143);
#143 = CARTESIAN_POINT('',(145.5,-85.5,0.));
#144 = CIRCLE('',#145,1.1);
#145 = AXIS2_PLACEMENT_3D('',#146,#147,#148);
#146 = CARTESIAN_POINT('',(145.5,-84.4,0.));
#147 = DIRECTION('',(-0.,0.,-1.));
#148 = DIRECTION('',(-0.,-1.,0.));
#149 = FACE_BOUND('',#150,.F.);
#150 = EDGE_LOOP('',(#151));
#151 = ORIENTED_EDGE('',*,*,#152,.T.);
#152 = EDGE_CURVE('',#153,#153,#155,.T.);
#153 = VERTEX_POINT('',#154);
#154 = CARTESIAN_POINT('',(150.,-79.6,0.));
#155 = CIRCLE('',#156,1.6);
#156 = AXIS2_PLACEMENT_3D('',#157,#158,#159);
#157 = CARTESIAN_POINT('',(150.,-78.,0.));
#158 = DIRECTION('',(-0.,0.,-1.));
#159 = DIRECTION('',(-0.,-1.,0.));
#160 = FACE_BOUND('',#161,.F.);
#161 = EDGE_LOOP('',(#162));
#162 = ORIENTED_EDGE('',*,*,#163,.T.);
#163 = EDGE_CURVE('',#164,#164,#166,.T.);
#164 = VERTEX_POINT('',#165);
#165 = CARTESIAN_POINT('',(154.5,-85.5,0.));
#166 = CIRCLE('',#167,1.1);
#167 = AXIS2_PLACEMENT_3D('',#168,#169,#170);
#168 = CARTESIAN_POINT('',(154.5,-84.4,0.));
#169 = DIRECTION('',(-0.,0.,-1.));
#170 = DIRECTION('',(-0.,-1.,0.));
#171 = FACE_BOUND('',#172,.F.);
#172 = EDGE_LOOP('',(#173));
#173 = ORIENTED_EDGE('',*,*,#174,.T.);
#174 = EDGE_CURVE('',#175,#175,#177,.T.);
#175 = VERTEX_POINT('',#176);
#176 = CARTESIAN_POINT('',(158.26,-88.21,0.));
#177 = CIRCLE('',#178,0.85);
#178 = AXIS2_PLACEMENT_3D('',#179,#180,#181);
#179 = CARTESIAN_POINT('',(158.26,-87.36,0.));
#180 = DIRECTION('',(-0.,0.,-1.));
#181 = DIRECTION('',(-0.,-1.,0.));
#182 = FACE_BOUND('',#183,.F.);
#183 = EDGE_LOOP('',(#184));
#184 = ORIENTED_EDGE('',*,*,#185,.T.);
#185 = EDGE_CURVE('',#186,#186,#188,.T.);
#186 = VERTEX_POINT('',#187);
#187 = CARTESIAN_POINT('',(160.8,-90.65,0.));
#188 = CIRCLE('',#189,0.75);
#189 = AXIS2_PLACEMENT_3D('',#190,#191,#192);
#190 = CARTESIAN_POINT('',(160.8,-89.9,0.));
#191 = DIRECTION('',(-0.,0.,-1.));
#192 = DIRECTION('',(-0.,-1.,0.));
#193 = FACE_BOUND('',#194,.F.);
#194 = EDGE_LOOP('',(#195));
#195 = ORIENTED_EDGE('',*,*,#196,.T.);
#196 = EDGE_CURVE('',#197,#197,#199,.T.);
#197 = VERTEX_POINT('',#198);
#198 = CARTESIAN_POINT('',(163.34,-88.21,0.));
#199 = CIRCLE('',#200,0.85);
#200 = AXIS2_PLACEMENT_3D('',#201,#202,#203);
#201 = CARTESIAN_POINT('',(163.34,-87.36,0.));
#202 = DIRECTION('',(-0.,0.,-1.));
#203 = DIRECTION('',(-0.,-1.,0.));
#204 = PLANE('',#205);
#205 = AXIS2_PLACEMENT_3D('',#206,#207,#208);
#206 = CARTESIAN_POINT('',(0.,0.,0.));
#207 = DIRECTION('',(0.,0.,1.));
#208 = DIRECTION('',(1.,0.,-0.));
#209 = ADVANCED_FACE('',(#210,#213,#224,#235,#246,#257,#268,#279,#290,
    #301,#312,#323,#334),#345,.T.);
#210 = FACE_BOUND('',#211,.T.);
#211 = EDGE_LOOP('',(#212));
#212 = ORIENTED_EDGE('',*,*,#49,.T.);
#213 = FACE_BOUND('',#214,.T.);
#214 = EDGE_LOOP('',(#215));
#215 = ORIENTED_EDGE('',*,*,#216,.T.);
#216 = EDGE_CURVE('',#217,#217,#219,.T.);
#217 = VERTEX_POINT('',#218);
#218 = CARTESIAN_POINT('',(150.,-103.6,1.6));
#219 = CIRCLE('',#220,1.6);
#220 = AXIS2_PLACEMENT_3D('',#221,#222,#223);
#221 = CARTESIAN_POINT('',(150.,-102.,1.6));
#222 = DIRECTION('',(-0.,0.,-1.));
#223 = DIRECTION('',(-0.,-1.,0.));
#224 = FACE_BOUND('',#225,.T.);
#225 = EDGE_LOOP('',(#226));
#226 = ORIENTED_EDGE('',*,*,#227,.T.);
#227 = EDGE_CURVE('',#228,#228,#230,.T.);
#228 = VERTEX_POINT('',#229);
#229 = CARTESIAN_POINT('',(145.5,-96.5,1.6));
#230 = CIRCLE('',#231,1.1);
#231 = AXIS2_PLACEMENT_3D('',#232,#233,#234);
#232 = CARTESIAN_POINT('',(145.5,-95.4,1.6));
#233 = DIRECTION('',(-0.,0.,-1.));
#234 = DIRECTION('',(-0.,-1.,0.));
#235 = FACE_BOUND('',#236,.T.);
#236 = EDGE_LOOP('',(#237));
#237 = ORIENTED_EDGE('',*,*,#238,.T.);
#238 = EDGE_CURVE('',#239,#239,#241,.T.);
#239 = VERTEX_POINT('',#240);
#240 = CARTESIAN_POINT('',(154.5,-96.5,1.6));
#241 = CIRCLE('',#242,1.1);
#242 = AXIS2_PLACEMENT_3D('',#243,#244,#245);
#243 = CARTESIAN_POINT('',(154.5,-95.4,1.6));
#244 = DIRECTION('',(-0.,0.,-1.));
#245 = DIRECTION('',(-0.,-1.,0.));
#246 = FACE_BOUND('',#247,.T.);
#247 = EDGE_LOOP('',(#248));
#248 = ORIENTED_EDGE('',*,*,#249,.T.);
#249 = EDGE_CURVE('',#250,#250,#252,.T.);
#250 = VERTEX_POINT('',#251);
#251 = CARTESIAN_POINT('',(158.26,-93.29,1.6));
#252 = CIRCLE('',#253,0.85);
#253 = AXIS2_PLACEMENT_3D('',#254,#255,#256);
#254 = CARTESIAN_POINT('',(158.26,-92.44,1.6));
#255 = DIRECTION('',(-0.,0.,-1.));
#256 = DIRECTION('',(-0.,-1.,0.));
#257 = FACE_BOUND('',#258,.T.);
#258 = EDGE_LOOP('',(#259));
#259 = ORIENTED_EDGE('',*,*,#260,.T.);
#260 = EDGE_CURVE('',#261,#261,#263,.T.);
#261 = VERTEX_POINT('',#262);
#262 = CARTESIAN_POINT('',(163.34,-93.29,1.6));
#263 = CIRCLE('',#264,0.85);
#264 = AXIS2_PLACEMENT_3D('',#265,#266,#267);
#265 = CARTESIAN_POINT('',(163.34,-92.44,1.6));
#266 = DIRECTION('',(-0.,0.,-1.));
#267 = DIRECTION('',(-0.,-1.,0.));
#268 = FACE_BOUND('',#269,.T.);
#269 = EDGE_LOOP('',(#270));
#270 = ORIENTED_EDGE('',*,*,#271,.T.);
#271 = EDGE_CURVE('',#272,#272,#274,.T.);
#272 = VERTEX_POINT('',#273);
#273 = CARTESIAN_POINT('',(138.,-91.6,1.6));
#274 = CIRCLE('',#275,1.6);
#275 = AXIS2_PLACEMENT_3D('',#276,#277,#278);
#276 = CARTESIAN_POINT('',(138.,-90.,1.6));
#277 = DIRECTION('',(-0.,0.,-1.));
#278 = DIRECTION('',(-0.,-1.,0.));
#279 = FACE_BOUND('',#280,.T.);
#280 = EDGE_LOOP('',(#281));
#281 = ORIENTED_EDGE('',*,*,#282,.T.);
#282 = EDGE_CURVE('',#283,#283,#285,.T.);
#283 = VERTEX_POINT('',#284);
#284 = CARTESIAN_POINT('',(145.5,-85.5,1.6));
#285 = CIRCLE('',#286,1.1);
#286 = AXIS2_PLACEMENT_3D('',#287,#288,#289);
#287 = CARTESIAN_POINT('',(145.5,-84.4,1.6));
#288 = DIRECTION('',(-0.,0.,-1.));
#289 = DIRECTION('',(-0.,-1.,0.));
#290 = FACE_BOUND('',#291,.T.);
#291 = EDGE_LOOP('',(#292));
#292 = ORIENTED_EDGE('',*,*,#293,.T.);
#293 = EDGE_CURVE('',#294,#294,#296,.T.);
#294 = VERTEX_POINT('',#295);
#295 = CARTESIAN_POINT('',(150.,-79.6,1.6));
#296 = CIRCLE('',#297,1.6);
#297 = AXIS2_PLACEMENT_3D('',#298,#299,#300);
#298 = CARTESIAN_POINT('',(150.,-78.,1.6));
#299 = DIRECTION('',(-0.,0.,-1.));
#300 = DIRECTION('',(-0.,-1.,0.));
#301 = FACE_BOUND('',#302,.T.);
#302 = EDGE_LOOP('',(#303));
#303 = ORIENTED_EDGE('',*,*,#304,.T.);
#304 = EDGE_CURVE('',#305,#305,#307,.T.);
#305 = VERTEX_POINT('',#306);
#306 = CARTESIAN_POINT('',(154.5,-85.5,1.6));
#307 = CIRCLE('',#308,1.1);
#308 = AXIS2_PLACEMENT_3D('',#309,#310,#311);
#309 = CARTESIAN_POINT('',(154.5,-84.4,1.6));
#310 = DIRECTION('',(-0.,0.,-1.));
#311 = DIRECTION('',(-0.,-1.,0.));
#312 = FACE_BOUND('',#313,.T.);
#313 = EDGE_LOOP('',(#314));
#314 = ORIENTED_EDGE('',*,*,#315,.T.);
#315 = EDGE_CURVE('',#316,#316,#318,.T.);
#316 = VERTEX_POINT('',#317);
#317 = CARTESIAN_POINT('',(158.26,-88.21,1.6));
#318 = CIRCLE('',#319,0.85);
#319 = AXIS2_PLACEMENT_3D('',#320,#321,#322);
#320 = CARTESIAN_POINT('',(158.26,-87.36,1.6));
#321 = DIRECTION('',(-0.,0.,-1.));
#322 = DIRECTION('',(-0.,-1.,0.));
#323 = FACE_BOUND('',#324,.T.);
#324 = EDGE_LOOP('',(#325));
#325 = ORIENTED_EDGE('',*,*,#326,.T.);
#326 = EDGE_CURVE('',#327,#327,#329,.T.);
#327 = VERTEX_POINT('',#328);
#328 = CARTESIAN_POINT('',(160.8,-90.65,1.6));
#329 = CIRCLE('',#330,0.75);
#330 = AXIS2_PLACEMENT_3D('',#331,#332,#333);
#331 = CARTESIAN_POINT('',(160.8,-89.9,1.6));
#332 = DIRECTION('',(-0.,0.,-1.));
#333 = DIRECTION('',(-0.,-1.,0.));
#334 = FACE_BOUND('',#335,.T.);
#335 = EDGE_LOOP('',(#336));
#336 = ORIENTED_EDGE('',*,*,#337,.T.);
#337 = EDGE_CURVE('',#338,#338,#340,.T.);
#338 = VERTEX_POINT('',#339);
#339 = CARTESIAN_POINT('',(163.34,-88.21,1.6));
#340 = CIRCLE('',#341,0.85);
#341 = AXIS2_PLACEMENT_3D('',#342,#343,#344);
#342 = CARTESIAN_POINT('',(163.34,-87.36,1.6));
#343 = DIRECTION('',(-0.,0.,-1.));
#344 = DIRECTION('',(-0.,-1.,0.));
#345 = PLANE('',#346);
#346 = AXIS2_PLACEMENT_3D('',#347,#348,#349);
#347 = CARTESIAN_POINT('',(0.,0.,1.6));
#348 = DIRECTION('',(0.,0.,1.));
#349 = DIRECTION('',(1.,0.,-0.));
#350 = ADVANCED_FACE('',(#351),#362,.F.);
#351 = FACE_BOUND('',#352,.T.);
#352 = EDGE_LOOP('',(#353,#354,#360,#361));
#353 = ORIENTED_EDGE('',*,*,#75,.T.);
#354 = ORIENTED_EDGE('',*,*,#355,.T.);
#355 = EDGE_CURVE('',#76,#217,#356,.T.);
#356 = LINE('',#357,#358);
#357 = CARTESIAN_POINT('',(150.,-103.6,-4.5E-02));
#358 = VECTOR('',#359,1.);
#359 = DIRECTION('',(0.,0.,1.));
#360 = ORIENTED_EDGE('',*,*,#216,.F.);
#361 = ORIENTED_EDGE('',*,*,#355,.F.);
#362 = CYLINDRICAL_SURFACE('',#363,1.6);
#363 = AXIS2_PLACEMENT_3D('',#364,#365,#366);
#364 = CARTESIAN_POINT('',(150.,-102.,-4.5E-02));
#365 = DIRECTION('',(-0.,-0.,-1.));
#366 = DIRECTION('',(-0.,-1.,0.));
#367 = ADVANCED_FACE('',(#368),#379,.F.);
#368 = FACE_BOUND('',#369,.T.);
#369 = EDGE_LOOP('',(#370,#371,#377,#378));
#370 = ORIENTED_EDGE('',*,*,#86,.T.);
#371 = ORIENTED_EDGE('',*,*,#372,.T.);
#372 = EDGE_CURVE('',#87,#228,#373,.T.);
#373 = LINE('',#374,#375);
#374 = CARTESIAN_POINT('',(145.5,-96.5,-4.5E-02));
#375 = VECTOR('',#376,1.);
#376 = DIRECTION('',(0.,0.,1.));
#377 = ORIENTED_EDGE('',*,*,#227,.F.);
#378 = ORIENTED_EDGE('',*,*,#372,.F.);
#379 = CYLINDRICAL_SURFACE('',#380,1.1);
#380 = AXIS2_PLACEMENT_3D('',#381,#382,#383);
#381 = CARTESIAN_POINT('',(145.5,-95.4,-4.5E-02));
#382 = DIRECTION('',(-0.,-0.,-1.));
#383 = DIRECTION('',(-0.,-1.,0.));
#384 = ADVANCED_FACE('',(#385),#396,.F.);
#385 = FACE_BOUND('',#386,.T.);
#386 = EDGE_LOOP('',(#387,#388,#394,#395));
#387 = ORIENTED_EDGE('',*,*,#97,.T.);
#388 = ORIENTED_EDGE('',*,*,#389,.T.);
#389 = EDGE_CURVE('',#98,#239,#390,.T.);
#390 = LINE('',#391,#392);
#391 = CARTESIAN_POINT('',(154.5,-96.5,-4.5E-02));
#392 = VECTOR('',#393,1.);
#393 = DIRECTION('',(0.,0.,1.));
#394 = ORIENTED_EDGE('',*,*,#238,.F.);
#395 = ORIENTED_EDGE('',*,*,#389,.F.);
#396 = CYLINDRICAL_SURFACE('',#397,1.1);
#397 = AXIS2_PLACEMENT_3D('',#398,#399,#400);
#398 = CARTESIAN_POINT('',(154.5,-95.4,-4.5E-02));
#399 = DIRECTION('',(-0.,-0.,-1.));
#400 = DIRECTION('',(-0.,-1.,0.));
#401 = ADVANCED_FACE('',(#402),#413,.F.);
#402 = FACE_BOUND('',#403,.T.);
#403 = EDGE_LOOP('',(#404,#405,#411,#412));
#404 = ORIENTED_EDGE('',*,*,#108,.T.);
#405 = ORIENTED_EDGE('',*,*,#406,.T.);
#406 = EDGE_CURVE('',#109,#250,#407,.T.);
#407 = LINE('',#408,#409);
#408 = CARTESIAN_POINT('',(158.26,-93.29,-4.5E-02));
#409 = VECTOR('',#410,1.);
#410 = DIRECTION('',(0.,0.,1.));
#411 = ORIENTED_EDGE('',*,*,#249,.F.);
#412 = ORIENTED_EDGE('',*,*,#406,.F.);
#413 = CYLINDRICAL_SURFACE('',#414,0.85);
#414 = AXIS2_PLACEMENT_3D('',#415,#416,#417);
#415 = CARTESIAN_POINT('',(158.26,-92.44,-4.5E-02));
#416 = DIRECTION('',(-0.,-0.,-1.));
#417 = DIRECTION('',(-0.,-1.,0.));
#418 = ADVANCED_FACE('',(#419),#430,.F.);
#419 = FACE_BOUND('',#420,.T.);
#420 = EDGE_LOOP('',(#421,#422,#428,#429));
#421 = ORIENTED_EDGE('',*,*,#119,.T.);
#422 = ORIENTED_EDGE('',*,*,#423,.T.);
#423 = EDGE_CURVE('',#120,#261,#424,.T.);
#424 = LINE('',#425,#426);
#425 = CARTESIAN_POINT('',(163.34,-93.29,-4.5E-02));
#426 = VECTOR('',#427,1.);
#427 = DIRECTION('',(0.,0.,1.));
#428 = ORIENTED_EDGE('',*,*,#260,.F.);
#429 = ORIENTED_EDGE('',*,*,#423,.F.);
#430 = CYLINDRICAL_SURFACE('',#431,0.85);
#431 = AXIS2_PLACEMENT_3D('',#432,#433,#434);
#432 = CARTESIAN_POINT('',(163.34,-92.44,-4.5E-02));
#433 = DIRECTION('',(-0.,-0.,-1.));
#434 = DIRECTION('',(-0.,-1.,0.));
#435 = ADVANCED_FACE('',(#436),#447,.F.);
#436 = FACE_BOUND('',#437,.T.);
#437 = EDGE_LOOP('',(#438,#439,#445,#446));
#438 = ORIENTED_EDGE('',*,*,#130,.T.);
#439 = ORIENTED_EDGE('',*,*,#440,.T.);
#440 = EDGE_CURVE('',#131,#272,#441,.T.);
#441 = LINE('',#442,#443);
#442 = CARTESIAN_POINT('',(138.,-91.6,-4.5E-02));
#443 = VECTOR('',#444,1.);
#444 = DIRECTION('',(0.,0.,1.));
#445 = ORIENTED_EDGE('',*,*,#271,.F.);
#446 = ORIENTED_EDGE('',*,*,#440,.F.);
#447 = CYLINDRICAL_SURFACE('',#448,1.6);
#448 = AXIS2_PLACEMENT_3D('',#449,#450,#451);
#449 = CARTESIAN_POINT('',(138.,-90.,-4.5E-02));
#450 = DIRECTION('',(-0.,-0.,-1.));
#451 = DIRECTION('',(-0.,-1.,0.));
#452 = ADVANCED_FACE('',(#453),#464,.F.);
#453 = FACE_BOUND('',#454,.T.);
#454 = EDGE_LOOP('',(#455,#456,#462,#463));
#455 = ORIENTED_EDGE('',*,*,#141,.T.);
#456 = ORIENTED_EDGE('',*,*,#457,.T.);
#457 = EDGE_CURVE('',#142,#283,#458,.T.);
#458 = LINE('',#459,#460);
#459 = CARTESIAN_POINT('',(145.5,-85.5,-4.5E-02));
#460 = VECTOR('',#461,1.);
#461 = DIRECTION('',(0.,0.,1.));
#462 = ORIENTED_EDGE('',*,*,#282,.F.);
#463 = ORIENTED_EDGE('',*,*,#457,.F.);
#464 = CYLINDRICAL_SURFACE('',#465,1.1);
#465 = AXIS2_PLACEMENT_3D('',#466,#467,#468);
#466 = CARTESIAN_POINT('',(145.5,-84.4,-4.5E-02));
#467 = DIRECTION('',(-0.,-0.,-1.));
#468 = DIRECTION('',(-0.,-1.,0.));
#469 = ADVANCED_FACE('',(#470),#481,.F.);
#470 = FACE_BOUND('',#471,.T.);
#471 = EDGE_LOOP('',(#472,#473,#479,#480));
#472 = ORIENTED_EDGE('',*,*,#152,.T.);
#473 = ORIENTED_EDGE('',*,*,#474,.T.);
#474 = EDGE_CURVE('',#153,#294,#475,.T.);
#475 = LINE('',#476,#477);
#476 = CARTESIAN_POINT('',(150.,-79.6,-4.5E-02));
#477 = VECTOR('',#478,1.);
#478 = DIRECTION('',(0.,0.,1.));
#479 = ORIENTED_EDGE('',*,*,#293,.F.);
#480 = ORIENTED_EDGE('',*,*,#474,.F.);
#481 = CYLINDRICAL_SURFACE('',#482,1.6);
#482 = AXIS2_PLACEMENT_3D('',#483,#484,#485);
#483 = CARTESIAN_POINT('',(150.,-78.,-4.5E-02));
#484 = DIRECTION('',(-0.,-0.,-1.));
#485 = DIRECTION('',(-0.,-1.,0.));
#486 = ADVANCED_FACE('',(#487),#498,.F.);
#487 = FACE_BOUND('',#488,.T.);
#488 = EDGE_LOOP('',(#489,#490,#496,#497));
#489 = ORIENTED_EDGE('',*,*,#163,.T.);
#490 = ORIENTED_EDGE('',*,*,#491,.T.);
#491 = EDGE_CURVE('',#164,#305,#492,.T.);
#492 = LINE('',#493,#494);
#493 = CARTESIAN_POINT('',(154.5,-85.5,-4.5E-02));
#494 = VECTOR('',#495,1.);
#495 = DIRECTION('',(0.,0.,1.));
#496 = ORIENTED_EDGE('',*,*,#304,.F.);
#497 = ORIENTED_EDGE('',*,*,#491,.F.);
#498 = CYLINDRICAL_SURFACE('',#499,1.1);
#499 = AXIS2_PLACEMENT_3D('',#500,#501,#502);
#500 = CARTESIAN_POINT('',(154.5,-84.4,-4.5E-02));
#501 = DIRECTION('',(-0.,-0.,-1.));
#502 = DIRECTION('',(-0.,-1.,0.));
#503 = ADVANCED_FACE('',(#504),#515,.F.);
#504 = FACE_BOUND('',#505,.T.);
#505 = EDGE_LOOP('',(#506,#507,#513,#514));
#506 = ORIENTED_EDGE('',*,*,#174,.T.);
#507 = ORIENTED_EDGE('',*,*,#508,.T.);
#508 = EDGE_CURVE('',#175,#316,#509,.T.);
#509 = LINE('',#510,#511);
#510 = CARTESIAN_POINT('',(158.26,-88.21,-4.5E-02));
#511 = VECTOR('',#512,1.);
#512 = DIRECTION('',(0.,0.,1.));
#513 = ORIENTED_EDGE('',*,*,#315,.F.);
#514 = ORIENTED_EDGE('',*,*,#508,.F.);
#515 = CYLINDRICAL_SURFACE('',#516,0.85);
#516 = AXIS2_PLACEMENT_3D('',#517,#518,#519);
#517 = CARTESIAN_POINT('',(158.26,-87.36,-4.5E-02));
#518 = DIRECTION('',(-0.,-0.,-1.));
#519 = DIRECTION('',(-0.,-1.,0.));
#520 = ADVANCED_FACE('',(#521),#532,.F.);
#521 = FACE_BOUND('',#522,.T.);
#522 = EDGE_LOOP('',(#523,#524,#530,#531));
#523 = ORIENTED_EDGE('',*,*,#185,.T.);
#524 = ORIENTED_EDGE('',*,*,#525,.T.);
#525 = EDGE_CURVE('',#186,#327,#526,.T.);
#526 = LINE('',#527,#528);
#527 = CARTESIAN_POINT('',(160.8,-90.65,-4.5E-02));
#528 = VECTOR('',#529,1.);
#529 = DIRECTION('',(0.,0.,1.));
#530 = ORIENTED_EDGE('',*,*,#326,.F.);
#531 = ORIENTED_EDGE('',*,*,#525,.F.);
#532 = CYLINDRICAL_SURFACE('',#533,0.75);
#533 = AXIS2_PLACEMENT_3D('',#534,#535,#536);
#534 = CARTESIAN_POINT('',(160.8,-89.9,-4.5E-02));
#535 = DIRECTION('',(-0.,-0.,-1.));
#536 = DIRECTION('',(-0.,-1.,0.));
#537 = ADVANCED_FACE('',(#538),#549,.F.);
#538 = FACE_BOUND('',#539,.T.);
#539 = EDGE_LOOP('',(#540,#541,#547,#548));
#540 = ORIENTED_EDGE('',*,*,#196,.T.);
#541 = ORIENTED_EDGE('',*,*,#542,.T.);
#542 = EDGE_CURVE('',#197,#338,#543,.T.);
#543 = LINE('',#544,#545);
#544 = CARTESIAN_POINT('',(163.34,-88.21,-4.5E-02));
#545 = VECTOR('',#546,1.);
#546 = DIRECTION('',(0.,0.,1.));
#547 = ORIENTED_EDGE('',*,*,#337,.F.);
#548 = ORIENTED_EDGE('',*,*,#542,.F.);
#549 = CYLINDRICAL_SURFACE('',#550,0.85);
#550 = AXIS2_PLACEMENT_3D('',#551,#552,#553);
#551 = CARTESIAN_POINT('',(163.34,-87.36,-4.5E-02));
#552 = DIRECTION('',(-0.,-0.,-1.));
#553 = DIRECTION('',(-0.,-1.,0.));
#554 = ( GEOMETRIC_REPRESENTATION_CONTEXT(3) 
GLOBAL_UNCERTAINTY_ASSIGNED_CONTEXT((#558)) GLOBAL_UNIT_ASSIGNED_CONTEXT
((#555,#556,#557)) REPRESENTATION_CONTEXT('Context #1',
  '3D Context with UNIT and UNCERTAINTY') );
#555 = ( LENGTH_UNIT() NAMED_UNIT(*) SI_UNIT(.MILLI.,.METRE.) );
#556 = ( NAMED_UNIT(*) PLANE_ANGLE_UNIT() SI_UNIT($,.RADIAN.) );
#557 = ( NAMED_UNIT(*) SI_UNIT($,.STERADIAN.) SOLID_ANGLE_UNIT() );
#558 = UNCERTAINTY_MEASURE_WITH_UNIT(LENGTH_MEASURE(1.E-07),#555,
  'distance_accuracy_value','confusion accuracy');
#559 = CONTEXT_DEPENDENT_SHAPE_REPRESENTATION(#560,#562);
#560 = ( REPRESENTATION_RELATIONSHIP('','',#32,#10) 
REPRESENTATION_RELATIONSHIP_WITH_TRANSFORMATION(#561) 
SHAPE_REPRESENTATION_RELATIONSHIP() );
#561 = ITEM_DEFINED_TRANSFORMATION('','',#11,#15);
#562 = PRODUCT_DEFINITION_SHAPE('Placement','Placement of an item',#563
  );
#563 = NEXT_ASSEMBLY_USAGE_OCCURRENCE('1','=>[0:1:1:2]','',#5,#27,$);
#564 = PRODUCT_RELATED_PRODUCT_CATEGORY('part',$,(#29));
#565 = MECHANICAL_DESIGN_GEOMETRIC_PRESENTATION_REPRESENTATION('',(#566)
  ,#554);
#566 = STYLED_ITEM('color',(#567),#33);
#567 = PRESENTATION_STYLE_ASSIGNMENT((#568));
#568 = SURFACE_STYLE_USAGE(.BOTH.,#569);
#569 = SURFACE_SIDE_STYLE('',(#570));
#570 = SURFACE_STYLE_FILL_AREA(#571);
#571 = FILL_AREA_STYLE('',(#572));
#572 = FILL_AREA_STYLE_COLOUR('',#573);
#573 = COLOUR_RGB('',0.313304153717,0.484529207832,0.410020903123);
ENDSEC;
END-ISO-10303-21;
