%TF.GenerationSoftware,KiCad,Pcbnew,8.0.6+1*%
%TF.CreationDate,2024-11-07T21:38:17+00:00*%
%TF.ProjectId,QFHBAL01,51464842-414c-4303-912e-6b696361645f,rev?*%
%TF.SameCoordinates,PX8f0d180PY55d4a80*%
%TF.FileFunction,Copper,L2,Bot*%
%TF.FilePolarity,Positive*%
%FSLAX46Y46*%
G04 Gerber Fmt 4.6, Leading zero omitted, Abs format (unit mm)*
G04 Created by KiCad (PCBNEW 8.0.6+1) date 2024-11-07 21:38:17*
%MOMM*%
%LPD*%
G01*
G04 APERTURE LIST*
G04 Aperture macros list*
%AMHorizOval*
0 Thick line with rounded ends*
0 $1 width*
0 $2 $3 position (X,Y) of the first rounded end (center of the circle)*
0 $4 $5 position (X,Y) of the second rounded end (center of the circle)*
0 Add line between two ends*
20,1,$1,$2,$3,$4,$5,0*
0 Add two circle primitives to create the rounded ends*
1,1,$1,$2,$3*
1,1,$1,$4,$5*%
G04 Aperture macros list end*
%TA.AperFunction,ComponentPad*%
%ADD10C,2.050000*%
%TD*%
%TA.AperFunction,ComponentPad*%
%ADD11C,2.250000*%
%TD*%
%TA.AperFunction,ComponentPad*%
%ADD12HorizOval,3.000000X-2.474874X2.474874X2.474874X-2.474874X0*%
%TD*%
%TA.AperFunction,SMDPad,CuDef*%
%ADD13R,0.760000X1.400000*%
%TD*%
%TA.AperFunction,ComponentPad*%
%ADD14HorizOval,3.000000X-2.474874X-2.474874X2.474874X2.474874X0*%
%TD*%
%TA.AperFunction,ComponentPad*%
%ADD15HorizOval,3.000000X2.474874X2.474874X-2.474874X-2.474874X0*%
%TD*%
%TA.AperFunction,ViaPad*%
%ADD16C,0.800000*%
%TD*%
%TA.AperFunction,Conductor*%
%ADD17C,2.100000*%
%TD*%
%TA.AperFunction,Conductor*%
%ADD18C,1.000000*%
%TD*%
%TA.AperFunction,Conductor*%
%ADD19C,0.861000*%
%TD*%
G04 APERTURE END LIST*
D10*
%TO.P,J1,1*%
%TO.N,/OUT*%
X10800000Y100000D03*
D11*
%TO.P,J1,2*%
%TO.N,GND*%
X8260000Y2640000D03*
X8260000Y-2440000D03*
X13340000Y2640000D03*
X13340000Y-2440000D03*
%TD*%
D12*
%TO.P,H5,1*%
%TO.N,/IN1*%
X-6904163Y8004163D03*
%TD*%
%TO.P,H6,1*%
%TO.N,/IN2*%
X6904163Y-7804163D03*
%TD*%
D13*
%TO.P,T2,1*%
%TO.N,/IN1*%
X730000Y1815000D03*
%TO.P,T2,2*%
%TO.N,/OUT*%
X3270000Y1815000D03*
%TO.P,T2,3*%
%TO.N,GND*%
X3270000Y-1615000D03*
%TO.P,T2,4*%
%TO.N,Net-(T2-Pad4)*%
X2000000Y-1615000D03*
%TO.P,T2,5*%
%TO.N,/IN2*%
X730000Y-1615000D03*
%TD*%
D14*
%TO.P,H2,1*%
%TO.N,/IN2*%
X-6904163Y-7804163D03*
%TD*%
D15*
%TO.P,H1,1*%
%TO.N,/IN1*%
X6904163Y8004163D03*
%TD*%
D16*
%TO.N,GND*%
X6057600Y-2354400D03*
X6400000Y-1200000D03*
X10782000Y2725600D03*
X5000000Y-1200000D03*
X13169600Y185600D03*
X10832800Y-2506800D03*
X5600400Y2268400D03*
%TO.N,/IN1*%
X1500000Y3000000D03*
X-241600Y1252400D03*
X10242000Y10415200D03*
X-8286800Y8383200D03*
X-7286800Y7383200D03*
X-6372400Y8348400D03*
X-7372400Y9348400D03*
X-2000000Y3000000D03*
X7242000Y7415200D03*
X5327600Y7329600D03*
X-8372400Y10348400D03*
X-9372400Y11348400D03*
X-10286800Y10383200D03*
X8242000Y8415200D03*
X9242000Y9415200D03*
X-5372400Y7348400D03*
X9327600Y11329600D03*
X6327600Y8329600D03*
X8327600Y10329600D03*
X7327600Y9329600D03*
X6242000Y6415200D03*
X-6286800Y6383200D03*
X-9286800Y9383200D03*
%TO.N,/IN2*%
X-6201200Y-6180400D03*
X7121600Y-7177600D03*
X-9286800Y-11094800D03*
X9121600Y-9177600D03*
X-8201200Y-8180400D03*
X8121600Y-8177600D03*
X-7201200Y-7180400D03*
X-9201200Y-9180400D03*
X-2000000Y-3000000D03*
X6121600Y-6177600D03*
X7308800Y-9142800D03*
X-8286800Y-10094800D03*
X6308800Y-8142800D03*
X-140000Y-2202000D03*
X5308800Y-7142800D03*
X8308800Y-10142800D03*
X10121600Y-10177600D03*
X-7286800Y-9094800D03*
X-5286800Y-7094800D03*
X-10201200Y-10180400D03*
X1857500Y-3142500D03*
X9308800Y-11142800D03*
X-6286800Y-8094800D03*
%TO.N,/OUT*%
X4800000Y1369994D03*
%TD*%
D17*
%TO.N,/IN1*%
X1250000Y2750000D02*
X730000Y2230000D01*
X-270000Y1370000D02*
X175000Y1815000D01*
X-4500000Y5600000D02*
X-270000Y1370000D01*
X4100000Y5600000D02*
X1250000Y2750000D01*
D18*
%TO.N,/IN2*%
X1105300Y-3142500D02*
X1857500Y-3142500D01*
D17*
X-4500000Y-5400000D02*
X-4300000Y-5400000D01*
D18*
X520400Y-1820400D02*
X520400Y-2557600D01*
D17*
X-4300000Y-5400000D02*
X-100000Y-1200000D01*
X2280001Y-3565001D02*
X4115000Y-5400000D01*
D18*
X-100000Y-1200000D02*
X520400Y-1820400D01*
X520400Y-2557600D02*
X1105300Y-3142500D01*
D19*
%TO.N,/OUT*%
X4354994Y1815000D02*
X4800000Y1369994D01*
X3270000Y1815000D02*
X4354994Y1815000D01*
%TD*%
%TA.AperFunction,Conductor*%
%TO.N,GND*%
G36*
X14877218Y4579998D02*
G01*
X14923711Y4526342D01*
X14930233Y4508670D01*
X15088388Y3955945D01*
X15100636Y3913141D01*
X15102236Y3906961D01*
X15233595Y3340894D01*
X15236856Y3312412D01*
X15236856Y-3312410D01*
X15233595Y-3340892D01*
X15102241Y-3906941D01*
X15100641Y-3913121D01*
X14987463Y-4308662D01*
X14949493Y-4368652D01*
X14885117Y-4398591D01*
X14866324Y-4400000D01*
X7448712Y-4400000D01*
X7380591Y-4379998D01*
X7363955Y-4367232D01*
X6514550Y-3595046D01*
X5244000Y-2440000D01*
X6880288Y-2440000D01*
X6899106Y-2667098D01*
X6955044Y-2887991D01*
X6955046Y-2887995D01*
X7046579Y-3096669D01*
X7126874Y-3219570D01*
X7126875Y-3219570D01*
X7505884Y-2840560D01*
X7506740Y-2842626D01*
X7599762Y-2981844D01*
X7718156Y-3100238D01*
X7857374Y-3193260D01*
X7859437Y-3194114D01*
X7479015Y-3574536D01*
X7505370Y-3595049D01*
X7505371Y-3595050D01*
X7705776Y-3703502D01*
X7705778Y-3703504D01*
X7921301Y-3777492D01*
X8146068Y-3815000D01*
X8373932Y-3815000D01*
X8598698Y-3777492D01*
X8598699Y-3777492D01*
X8814221Y-3703504D01*
X8814223Y-3703502D01*
X9014629Y-3595049D01*
X9014633Y-3595046D01*
X9040983Y-3574536D01*
X9040984Y-3574536D01*
X8660562Y-3194114D01*
X8662626Y-3193260D01*
X8801844Y-3100238D01*
X8920238Y-2981844D01*
X9013260Y-2842626D01*
X9014114Y-2840562D01*
X9393122Y-3219570D01*
X9393123Y-3219570D01*
X9473421Y-3096666D01*
X9564953Y-2887995D01*
X9564955Y-2887991D01*
X9620893Y-2667098D01*
X9639711Y-2440000D01*
X11960288Y-2440000D01*
X11979106Y-2667098D01*
X12035044Y-2887991D01*
X12035046Y-2887995D01*
X12126579Y-3096669D01*
X12206874Y-3219570D01*
X12206875Y-3219570D01*
X12585884Y-2840560D01*
X12586740Y-2842626D01*
X12679762Y-2981844D01*
X12798156Y-3100238D01*
X12937374Y-3193260D01*
X12939437Y-3194114D01*
X12559015Y-3574536D01*
X12585370Y-3595049D01*
X12585371Y-3595050D01*
X12785776Y-3703502D01*
X12785778Y-3703504D01*
X13001301Y-3777492D01*
X13226068Y-3815000D01*
X13453932Y-3815000D01*
X13678698Y-3777492D01*
X13678699Y-3777492D01*
X13894221Y-3703504D01*
X13894223Y-3703502D01*
X14094629Y-3595049D01*
X14094633Y-3595046D01*
X14120983Y-3574536D01*
X14120984Y-3574536D01*
X13740562Y-3194114D01*
X13742626Y-3193260D01*
X13881844Y-3100238D01*
X14000238Y-2981844D01*
X14093260Y-2842626D01*
X14094114Y-2840562D01*
X14473122Y-3219570D01*
X14473123Y-3219570D01*
X14553421Y-3096666D01*
X14644953Y-2887995D01*
X14644955Y-2887991D01*
X14700893Y-2667098D01*
X14719711Y-2440000D01*
X14700893Y-2212901D01*
X14644955Y-1992008D01*
X14644953Y-1992004D01*
X14553421Y-1783333D01*
X14473123Y-1660428D01*
X14094114Y-2039436D01*
X14093260Y-2037374D01*
X14000238Y-1898156D01*
X13881844Y-1779762D01*
X13742626Y-1686740D01*
X13740561Y-1685884D01*
X14120983Y-1305462D01*
X14120983Y-1305461D01*
X14094636Y-1284954D01*
X14094628Y-1284949D01*
X13894223Y-1176497D01*
X13894221Y-1176495D01*
X13678698Y-1102507D01*
X13453932Y-1065000D01*
X13226068Y-1065000D01*
X13001301Y-1102507D01*
X13001300Y-1102507D01*
X12785778Y-1176495D01*
X12785776Y-1176497D01*
X12585367Y-1284951D01*
X12559015Y-1305461D01*
X12559014Y-1305462D01*
X12939437Y-1685885D01*
X12937374Y-1686740D01*
X12798156Y-1779762D01*
X12679762Y-1898156D01*
X12586740Y-2037374D01*
X12585885Y-2039437D01*
X12206875Y-1660427D01*
X12206874Y-1660428D01*
X12126584Y-1783321D01*
X12126577Y-1783335D01*
X12035046Y-1992004D01*
X12035044Y-1992008D01*
X11979106Y-2212901D01*
X11960288Y-2440000D01*
X9639711Y-2440000D01*
X9620893Y-2212901D01*
X9564955Y-1992008D01*
X9564953Y-1992004D01*
X9473421Y-1783333D01*
X9393123Y-1660428D01*
X9014114Y-2039436D01*
X9013260Y-2037374D01*
X8920238Y-1898156D01*
X8801844Y-1779762D01*
X8662626Y-1686740D01*
X8660561Y-1685884D01*
X9040983Y-1305462D01*
X9040983Y-1305461D01*
X9014636Y-1284954D01*
X9014628Y-1284949D01*
X8814223Y-1176497D01*
X8814221Y-1176495D01*
X8598698Y-1102507D01*
X8373932Y-1065000D01*
X8146068Y-1065000D01*
X7921301Y-1102507D01*
X7921300Y-1102507D01*
X7705778Y-1176495D01*
X7705776Y-1176497D01*
X7505367Y-1284951D01*
X7479015Y-1305461D01*
X7479014Y-1305462D01*
X7859437Y-1685885D01*
X7857374Y-1686740D01*
X7718156Y-1779762D01*
X7599762Y-1898156D01*
X7506740Y-2037374D01*
X7505885Y-2039437D01*
X7126875Y-1660427D01*
X7126874Y-1660428D01*
X7046584Y-1783321D01*
X7046577Y-1783335D01*
X6955046Y-1992004D01*
X6955044Y-1992008D01*
X6899106Y-2212901D01*
X6880288Y-2440000D01*
X5244000Y-2440000D01*
X5200000Y-2400000D01*
X4026000Y-2400000D01*
X3957879Y-2379998D01*
X3911386Y-2326342D01*
X3900000Y-2274000D01*
X3900000Y-1865000D01*
X3146000Y-1865000D01*
X3077879Y-1844998D01*
X3031386Y-1791342D01*
X3020000Y-1739000D01*
X3020000Y-1365000D01*
X3520000Y-1365000D01*
X3900000Y-1365000D01*
X3900000Y-890377D01*
X3899999Y-890373D01*
X3885495Y-817455D01*
X3885494Y-817454D01*
X3830240Y-734759D01*
X3747545Y-679505D01*
X3747544Y-679504D01*
X3674626Y-665000D01*
X3520000Y-665000D01*
X3520000Y-1365000D01*
X3020000Y-1365000D01*
X3020000Y-665000D01*
X2865373Y-665000D01*
X2792455Y-679504D01*
X2705451Y-737638D01*
X2637698Y-758852D01*
X2569231Y-740068D01*
X2565449Y-737638D01*
X2477739Y-679033D01*
X2404677Y-664500D01*
X2404674Y-664500D01*
X1726000Y-664500D01*
X1657879Y-644498D01*
X1611386Y-590842D01*
X1600000Y-538500D01*
X1600000Y100000D01*
X9519628Y100000D01*
X9539080Y-122334D01*
X9596844Y-337913D01*
X9691165Y-540186D01*
X9819178Y-723007D01*
X9976993Y-880822D01*
X10159814Y-1008835D01*
X10362087Y-1103156D01*
X10577666Y-1160920D01*
X10800000Y-1180372D01*
X11022334Y-1160920D01*
X11237913Y-1103156D01*
X11440186Y-1008835D01*
X11623007Y-880822D01*
X11780822Y-723007D01*
X11908835Y-540186D01*
X12003156Y-337913D01*
X12060920Y-122334D01*
X12080372Y100000D01*
X12060920Y322334D01*
X12003156Y537913D01*
X11908835Y740186D01*
X11780822Y923007D01*
X11623007Y1080822D01*
X11570321Y1117713D01*
X11440186Y1208835D01*
X11237916Y1303155D01*
X11237911Y1303157D01*
X11137860Y1329966D01*
X11022334Y1360920D01*
X10800000Y1380372D01*
X10577666Y1360920D01*
X10519903Y1345443D01*
X10362088Y1303157D01*
X10362083Y1303155D01*
X10159813Y1208835D01*
X9976996Y1080825D01*
X9976990Y1080820D01*
X9819180Y923010D01*
X9819175Y923004D01*
X9691165Y740187D01*
X9596845Y537917D01*
X9596843Y537912D01*
X9592789Y522781D01*
X9539080Y322334D01*
X9519628Y100000D01*
X1600000Y100000D01*
X1600000Y1208625D01*
X1620002Y1276746D01*
X1636900Y1297716D01*
X2241966Y1902781D01*
X2241966Y1902782D01*
X2386606Y2047423D01*
X2448916Y2081447D01*
X2519731Y2076382D01*
X2576567Y2033835D01*
X2601378Y1967315D01*
X2599278Y1933746D01*
X2589000Y1882077D01*
X2589000Y1747929D01*
X2615171Y1616361D01*
X2615171Y1616360D01*
X2629909Y1580780D01*
X2639500Y1532562D01*
X2639500Y1090323D01*
X2654033Y1017261D01*
X2654034Y1017260D01*
X2709399Y934399D01*
X2792260Y879034D01*
X2865326Y864500D01*
X3674674Y864500D01*
X3747740Y879034D01*
X3830601Y934399D01*
X3885966Y1017260D01*
X3889014Y1032583D01*
X3921922Y1095492D01*
X3983618Y1130623D01*
X4012593Y1134000D01*
X4020724Y1134000D01*
X4088845Y1113998D01*
X4109819Y1097096D01*
X4365888Y841026D01*
X4477426Y766500D01*
X4601360Y715165D01*
X4732928Y688994D01*
X4867073Y688994D01*
X4998641Y715165D01*
X5122575Y766500D01*
X5234112Y841026D01*
X5328968Y935882D01*
X5403494Y1047419D01*
X5454829Y1171353D01*
X5481000Y1302921D01*
X5481000Y1437066D01*
X5454829Y1568634D01*
X5403494Y1692568D01*
X5328968Y1804106D01*
X4789106Y2343967D01*
X4751288Y2369236D01*
X4705761Y2423712D01*
X4696913Y2494155D01*
X4727555Y2558199D01*
X4787956Y2595510D01*
X4821291Y2600000D01*
X5200000Y2600000D01*
X5244000Y2640000D01*
X6880288Y2640000D01*
X6899106Y2412902D01*
X6955044Y2192009D01*
X6955046Y2192005D01*
X7046579Y1983331D01*
X7126874Y1860430D01*
X7126875Y1860430D01*
X7505884Y2239440D01*
X7506740Y2237374D01*
X7599762Y2098156D01*
X7718156Y1979762D01*
X7857374Y1886740D01*
X7859437Y1885886D01*
X7479015Y1505464D01*
X7505370Y1484951D01*
X7505371Y1484950D01*
X7705776Y1376498D01*
X7705778Y1376496D01*
X7921301Y1302508D01*
X8146068Y1265000D01*
X8373932Y1265000D01*
X8598698Y1302508D01*
X8598699Y1302508D01*
X8814221Y1376496D01*
X8814223Y1376498D01*
X9014629Y1484951D01*
X9014633Y1484954D01*
X9040983Y1505464D01*
X9040984Y1505464D01*
X8660562Y1885886D01*
X8662626Y1886740D01*
X8801844Y1979762D01*
X8920238Y2098156D01*
X9013260Y2237374D01*
X9014114Y2239438D01*
X9393122Y1860430D01*
X9393123Y1860430D01*
X9473421Y1983334D01*
X9564953Y2192005D01*
X9564955Y2192009D01*
X9620893Y2412902D01*
X9639711Y2640000D01*
X11960288Y2640000D01*
X11979106Y2412902D01*
X12035044Y2192009D01*
X12035046Y2192005D01*
X12126579Y1983331D01*
X12206874Y1860430D01*
X12206875Y1860430D01*
X12585884Y2239440D01*
X12586740Y2237374D01*
X12679762Y2098156D01*
X12798156Y1979762D01*
X12937374Y1886740D01*
X12939437Y1885886D01*
X12559015Y1505464D01*
X12585370Y1484951D01*
X12585371Y1484950D01*
X12785776Y1376498D01*
X12785778Y1376496D01*
X13001301Y1302508D01*
X13226068Y1265000D01*
X13453932Y1265000D01*
X13678698Y1302508D01*
X13678699Y1302508D01*
X13894221Y1376496D01*
X13894223Y1376498D01*
X14094629Y1484951D01*
X14094633Y1484954D01*
X14120983Y1505464D01*
X14120984Y1505464D01*
X13740562Y1885886D01*
X13742626Y1886740D01*
X13881844Y1979762D01*
X14000238Y2098156D01*
X14093260Y2237374D01*
X14094114Y2239438D01*
X14473122Y1860430D01*
X14473123Y1860430D01*
X14553421Y1983334D01*
X14644953Y2192005D01*
X14644955Y2192009D01*
X14700893Y2412902D01*
X14719711Y2640000D01*
X14700893Y2867099D01*
X14644955Y3087992D01*
X14644953Y3087996D01*
X14553421Y3296667D01*
X14473123Y3419572D01*
X14094114Y3040564D01*
X14093260Y3042626D01*
X14000238Y3181844D01*
X13881844Y3300238D01*
X13742626Y3393260D01*
X13740561Y3394116D01*
X14120983Y3774538D01*
X14120983Y3774539D01*
X14094636Y3795046D01*
X14094628Y3795051D01*
X13894223Y3903503D01*
X13894221Y3903505D01*
X13678698Y3977493D01*
X13453932Y4015000D01*
X13226068Y4015000D01*
X13001301Y3977493D01*
X13001300Y3977493D01*
X12785778Y3903505D01*
X12785776Y3903503D01*
X12585367Y3795049D01*
X12559015Y3774539D01*
X12559014Y3774538D01*
X12939437Y3394115D01*
X12937374Y3393260D01*
X12798156Y3300238D01*
X12679762Y3181844D01*
X12586740Y3042626D01*
X12585885Y3040563D01*
X12206875Y3419573D01*
X12206874Y3419572D01*
X12126584Y3296679D01*
X12126577Y3296665D01*
X12035046Y3087996D01*
X12035044Y3087992D01*
X11979106Y2867099D01*
X11960288Y2640000D01*
X9639711Y2640000D01*
X9620893Y2867099D01*
X9564955Y3087992D01*
X9564953Y3087996D01*
X9473421Y3296667D01*
X9393123Y3419572D01*
X9014114Y3040564D01*
X9013260Y3042626D01*
X8920238Y3181844D01*
X8801844Y3300238D01*
X8662626Y3393260D01*
X8660561Y3394116D01*
X9040983Y3774538D01*
X9040983Y3774539D01*
X9014636Y3795046D01*
X9014628Y3795051D01*
X8814223Y3903503D01*
X8814221Y3903505D01*
X8598698Y3977493D01*
X8373932Y4015000D01*
X8146068Y4015000D01*
X7921301Y3977493D01*
X7921300Y3977493D01*
X7705778Y3903505D01*
X7705776Y3903503D01*
X7505367Y3795049D01*
X7479015Y3774539D01*
X7479014Y3774538D01*
X7859437Y3394115D01*
X7857374Y3393260D01*
X7718156Y3300238D01*
X7599762Y3181844D01*
X7506740Y3042626D01*
X7505885Y3040563D01*
X7126875Y3419573D01*
X7126874Y3419572D01*
X7046584Y3296679D01*
X7046577Y3296665D01*
X6955046Y3087996D01*
X6955044Y3087992D01*
X6899106Y2867099D01*
X6880288Y2640000D01*
X5244000Y2640000D01*
X7363955Y4567233D01*
X7427815Y4598255D01*
X7448712Y4600000D01*
X14809097Y4600000D01*
X14877218Y4579998D01*
G37*
%TD.AperFunction*%
%TD*%
%TA.AperFunction,Conductor*%
%TO.N,/IN2*%
G36*
X544032Y-360134D02*
G01*
X589095Y-389095D01*
X1382595Y-1182595D01*
X1416621Y-1244907D01*
X1419500Y-1271690D01*
X1419500Y-2334748D01*
X1431133Y-2393231D01*
X1475448Y-2459552D01*
X1541769Y-2503867D01*
X1600252Y-2515500D01*
X1600253Y-2515500D01*
X2399747Y-2515500D01*
X2399748Y-2515500D01*
X2458231Y-2503867D01*
X2519500Y-2462927D01*
X2587252Y-2441712D01*
X2655719Y-2460494D01*
X2678597Y-2478597D01*
X3010905Y-2810905D01*
X3044931Y-2873217D01*
X3039866Y-2944032D01*
X3010905Y-2989095D01*
X1689095Y-4310905D01*
X1626783Y-4344931D01*
X1555968Y-4339866D01*
X1510905Y-4310905D01*
X-910905Y-1889095D01*
X-944931Y-1826783D01*
X-939866Y-1755968D01*
X-910905Y-1710905D01*
X410905Y-389095D01*
X473217Y-355069D01*
X544032Y-360134D01*
G37*
%TD.AperFunction*%
%TD*%
M02*
