%TF.GenerationSoftware,KiCad,Pcbnew,8.0.6+1*%
%TF.CreationDate,2024-11-07T21:38:17+00:00*%
%TF.ProjectId,QFHBAL01,51464842-414c-4303-912e-6b696361645f,rev?*%
%TF.SameCoordinates,PX8f0d180PY55d4a80*%
%TF.FileFunction,Legend,Bot*%
%TF.FilePolarity,Positive*%
%FSLAX46Y46*%
G04 Gerber Fmt 4.6, Leading zero omitted, Abs format (unit mm)*
G04 Created by KiCad (PCBNEW 8.0.6+1) date 2024-11-07 21:38:17*
%MOMM*%
%LPD*%
G01*
G04 APERTURE LIST*
%ADD10C,0.120000*%
%ADD11C,0.150000*%
%ADD12C,0.080000*%
G04 APERTURE END LIST*
D10*
X-8300000Y50000D02*
G75*
G02*
X-8300000Y-750000I0J-400000D01*
G01*
X-6900000Y50000D02*
G75*
G02*
X-6900000Y850000I0J400000D01*
G01*
X-6900000Y850000D02*
G75*
G02*
X-6900000Y1650000I0J400000D01*
G01*
X-8300000Y1650000D02*
G75*
G02*
X-8300000Y850000I0J-400000D01*
G01*
X-6900000Y1650000D02*
X-4200000Y1650000D01*
X-7700000Y1650000D02*
X-7700000Y-1550000D01*
X-7700000Y1650000D01*
X-4800000Y1950000D02*
G75*
G02*
X-4800000Y1350000I796400J-300000D01*
G01*
X-8300000Y-2597348D02*
X-6200000Y-4697348D01*
X-6900000Y-1550000D02*
G75*
G02*
X-6900000Y-750000I0J400000D01*
G01*
X-8350000Y1652652D02*
X-8350000Y2652652D01*
X-4052651Y-1550000D02*
X-4052651Y750000D01*
X-8500000Y1350000D02*
G75*
G02*
X-8700000Y1350000I-100000J0D01*
G01*
X-8700000Y1350000D02*
G75*
G02*
X-8500000Y1350000I100000J0D01*
G01*
X-6900000Y-750000D02*
G75*
G02*
X-6900000Y50000I0J400000D01*
G01*
X-7500000Y1650000D02*
X-7500000Y-1550000D01*
X-7500000Y1650000D01*
X-3800000Y1650000D02*
G75*
G02*
X-4200000Y1650000I-200000J0D01*
G01*
X-4200000Y1650000D02*
G75*
G02*
X-3800000Y1650000I200000J0D01*
G01*
X-8300000Y-2597348D02*
X-8300000Y-1597348D01*
X-8350000Y2652652D02*
X-6250000Y4752652D01*
X-8500000Y-1250000D02*
G75*
G02*
X-8700000Y-1250000I-100000J0D01*
G01*
X-8700000Y-1250000D02*
G75*
G02*
X-8500000Y-1250000I100000J0D01*
G01*
X-8300000Y850000D02*
G75*
G02*
X-8300000Y50000I0J-400000D01*
G01*
X-8300000Y-750000D02*
G75*
G02*
X-8300000Y-1550000I0J-400000D01*
G01*
X-8350000Y2652652D02*
X-10450000Y4752652D01*
X-6900000Y-1550000D02*
X-4052651Y-1550000D01*
X-8300000Y-2597348D02*
X-10400000Y-4697348D01*
D11*
X3348914Y-8492457D02*
X3444152Y-8444838D01*
X3444152Y-8444838D02*
X3539390Y-8349600D01*
X3539390Y-8349600D02*
X3682247Y-8206742D01*
X3682247Y-8206742D02*
X3777485Y-8159123D01*
X3777485Y-8159123D02*
X3872723Y-8159123D01*
X3825104Y-8397219D02*
X3920342Y-8349600D01*
X3920342Y-8349600D02*
X4015580Y-8254361D01*
X4015580Y-8254361D02*
X4063199Y-8063885D01*
X4063199Y-8063885D02*
X4063199Y-7730552D01*
X4063199Y-7730552D02*
X4015580Y-7540076D01*
X4015580Y-7540076D02*
X3920342Y-7444838D01*
X3920342Y-7444838D02*
X3825104Y-7397219D01*
X3825104Y-7397219D02*
X3634628Y-7397219D01*
X3634628Y-7397219D02*
X3539390Y-7444838D01*
X3539390Y-7444838D02*
X3444152Y-7540076D01*
X3444152Y-7540076D02*
X3396533Y-7730552D01*
X3396533Y-7730552D02*
X3396533Y-8063885D01*
X3396533Y-8063885D02*
X3444152Y-8254361D01*
X3444152Y-8254361D02*
X3539390Y-8349600D01*
X3539390Y-8349600D02*
X3634628Y-8397219D01*
X3634628Y-8397219D02*
X3825104Y-8397219D01*
X2634628Y-7873409D02*
X2967961Y-7873409D01*
X2967961Y-8397219D02*
X2967961Y-7397219D01*
X2967961Y-7397219D02*
X2491771Y-7397219D01*
X2110818Y-8397219D02*
X2110818Y-7397219D01*
X2110818Y-7873409D02*
X1539390Y-7873409D01*
X1539390Y-8397219D02*
X1539390Y-7397219D01*
X729866Y-7873409D02*
X587009Y-7921028D01*
X587009Y-7921028D02*
X539390Y-7968647D01*
X539390Y-7968647D02*
X491771Y-8063885D01*
X491771Y-8063885D02*
X491771Y-8206742D01*
X491771Y-8206742D02*
X539390Y-8301980D01*
X539390Y-8301980D02*
X587009Y-8349600D01*
X587009Y-8349600D02*
X682247Y-8397219D01*
X682247Y-8397219D02*
X1063199Y-8397219D01*
X1063199Y-8397219D02*
X1063199Y-7397219D01*
X1063199Y-7397219D02*
X729866Y-7397219D01*
X729866Y-7397219D02*
X634628Y-7444838D01*
X634628Y-7444838D02*
X587009Y-7492457D01*
X587009Y-7492457D02*
X539390Y-7587695D01*
X539390Y-7587695D02*
X539390Y-7682933D01*
X539390Y-7682933D02*
X587009Y-7778171D01*
X587009Y-7778171D02*
X634628Y-7825790D01*
X634628Y-7825790D02*
X729866Y-7873409D01*
X729866Y-7873409D02*
X1063199Y-7873409D01*
X110818Y-8111504D02*
X-365372Y-8111504D01*
X206056Y-8397219D02*
X-127277Y-7397219D01*
X-127277Y-7397219D02*
X-460610Y-8397219D01*
X-1270134Y-8397219D02*
X-793944Y-8397219D01*
X-793944Y-8397219D02*
X-793944Y-7397219D01*
X-1793944Y-7397219D02*
X-1889182Y-7397219D01*
X-1889182Y-7397219D02*
X-1984420Y-7444838D01*
X-1984420Y-7444838D02*
X-2032039Y-7492457D01*
X-2032039Y-7492457D02*
X-2079658Y-7587695D01*
X-2079658Y-7587695D02*
X-2127277Y-7778171D01*
X-2127277Y-7778171D02*
X-2127277Y-8016266D01*
X-2127277Y-8016266D02*
X-2079658Y-8206742D01*
X-2079658Y-8206742D02*
X-2032039Y-8301980D01*
X-2032039Y-8301980D02*
X-1984420Y-8349600D01*
X-1984420Y-8349600D02*
X-1889182Y-8397219D01*
X-1889182Y-8397219D02*
X-1793944Y-8397219D01*
X-1793944Y-8397219D02*
X-1698706Y-8349600D01*
X-1698706Y-8349600D02*
X-1651087Y-8301980D01*
X-1651087Y-8301980D02*
X-1603468Y-8206742D01*
X-1603468Y-8206742D02*
X-1555849Y-8016266D01*
X-1555849Y-8016266D02*
X-1555849Y-7778171D01*
X-1555849Y-7778171D02*
X-1603468Y-7587695D01*
X-1603468Y-7587695D02*
X-1651087Y-7492457D01*
X-1651087Y-7492457D02*
X-1698706Y-7444838D01*
X-1698706Y-7444838D02*
X-1793944Y-7397219D01*
X-3079658Y-8397219D02*
X-2508230Y-8397219D01*
X-2793944Y-8397219D02*
X-2793944Y-7397219D01*
X-2793944Y-7397219D02*
X-2698706Y-7540076D01*
X-2698706Y-7540076D02*
X-2603468Y-7635314D01*
X-2603468Y-7635314D02*
X-2508230Y-7682933D01*
X-3460611Y-8111504D02*
X-3936801Y-8111504D01*
X-3365373Y-8397219D02*
X-3698706Y-7397219D01*
X-3698706Y-7397219D02*
X-4032039Y-8397219D01*
X-8761826Y-6573693D02*
X-8829170Y-6708380D01*
X-8829170Y-6708380D02*
X-8997529Y-6876739D01*
X-8997529Y-6876739D02*
X-9098544Y-6910411D01*
X-9098544Y-6910411D02*
X-9165888Y-6910411D01*
X-9165888Y-6910411D02*
X-9266903Y-6876739D01*
X-9266903Y-6876739D02*
X-9334246Y-6809396D01*
X-9334246Y-6809396D02*
X-9367918Y-6708380D01*
X-9367918Y-6708380D02*
X-9367918Y-6641037D01*
X-9367918Y-6641037D02*
X-9334246Y-6540022D01*
X-9334246Y-6540022D02*
X-9233231Y-6371663D01*
X-9233231Y-6371663D02*
X-9199559Y-6270647D01*
X-9199559Y-6270647D02*
X-9199559Y-6203304D01*
X-9199559Y-6203304D02*
X-9233231Y-6102289D01*
X-9233231Y-6102289D02*
X-9300575Y-6034945D01*
X-9300575Y-6034945D02*
X-9401590Y-6001273D01*
X-9401590Y-6001273D02*
X-9468933Y-6001273D01*
X-9468933Y-6001273D02*
X-9569949Y-6034945D01*
X-9569949Y-6034945D02*
X-9738307Y-6203304D01*
X-9738307Y-6203304D02*
X-9805651Y-6337991D01*
X-9771979Y-7651189D02*
X-9435262Y-7314472D01*
X-9435262Y-7314472D02*
X-10142368Y-6607365D01*
X6833774Y10749107D02*
X6766430Y10614420D01*
X6766430Y10614420D02*
X6598071Y10446061D01*
X6598071Y10446061D02*
X6497056Y10412389D01*
X6497056Y10412389D02*
X6429712Y10412389D01*
X6429712Y10412389D02*
X6328697Y10446061D01*
X6328697Y10446061D02*
X6261354Y10513404D01*
X6261354Y10513404D02*
X6227682Y10614420D01*
X6227682Y10614420D02*
X6227682Y10681763D01*
X6227682Y10681763D02*
X6261354Y10782778D01*
X6261354Y10782778D02*
X6362369Y10951137D01*
X6362369Y10951137D02*
X6396041Y11052153D01*
X6396041Y11052153D02*
X6396041Y11119496D01*
X6396041Y11119496D02*
X6362369Y11220511D01*
X6362369Y11220511D02*
X6295025Y11287855D01*
X6295025Y11287855D02*
X6194010Y11321527D01*
X6194010Y11321527D02*
X6126667Y11321527D01*
X6126667Y11321527D02*
X6025651Y11287855D01*
X6025651Y11287855D02*
X5857293Y11119496D01*
X5857293Y11119496D02*
X5789949Y10984809D01*
X5823621Y9671611D02*
X6160338Y10008328D01*
X6160338Y10008328D02*
X5453232Y10715435D01*
D12*
X-9114637Y1745237D02*
X-9114637Y1611904D01*
X-8905113Y1554761D02*
X-8905113Y1745237D01*
X-8905113Y1745237D02*
X-9305113Y1745237D01*
X-9305113Y1745237D02*
X-9305113Y1554761D01*
X-9305113Y1440475D02*
X-9305113Y1211904D01*
X-8905113Y1326190D02*
X-9305113Y1326190D01*
X-8943208Y849999D02*
X-8924160Y869047D01*
X-8924160Y869047D02*
X-8905113Y926189D01*
X-8905113Y926189D02*
X-8905113Y964285D01*
X-8905113Y964285D02*
X-8924160Y1021428D01*
X-8924160Y1021428D02*
X-8962256Y1059523D01*
X-8962256Y1059523D02*
X-9000351Y1078570D01*
X-9000351Y1078570D02*
X-9076541Y1097618D01*
X-9076541Y1097618D02*
X-9133684Y1097618D01*
X-9133684Y1097618D02*
X-9209875Y1078570D01*
X-9209875Y1078570D02*
X-9247970Y1059523D01*
X-9247970Y1059523D02*
X-9286065Y1021428D01*
X-9286065Y1021428D02*
X-9305113Y964285D01*
X-9305113Y964285D02*
X-9305113Y926189D01*
X-9305113Y926189D02*
X-9286065Y869047D01*
X-9286065Y869047D02*
X-9267018Y849999D01*
X-8905113Y469047D02*
X-8905113Y697618D01*
X-8905113Y583332D02*
X-9305113Y583332D01*
X-9305113Y583332D02*
X-9247970Y621428D01*
X-9247970Y621428D02*
X-9209875Y659523D01*
X-9209875Y659523D02*
X-9190827Y697618D01*
X-9057494Y297618D02*
X-9057494Y-7144D01*
X-8905113Y-407143D02*
X-8905113Y-178572D01*
X-8905113Y-292858D02*
X-9305113Y-292858D01*
X-9305113Y-292858D02*
X-9247970Y-254762D01*
X-9247970Y-254762D02*
X-9209875Y-216667D01*
X-9209875Y-216667D02*
X-9190827Y-178572D01*
X-9057494Y-578572D02*
X-9057494Y-883334D01*
X-8905113Y-1283333D02*
X-8905113Y-1054762D01*
X-8905113Y-1169048D02*
X-9305113Y-1169048D01*
X-9305113Y-1169048D02*
X-9247970Y-1130952D01*
X-9247970Y-1130952D02*
X-9209875Y-1092857D01*
X-9209875Y-1092857D02*
X-9190827Y-1054762D01*
X-9305113Y-1416666D02*
X-9305113Y-1664285D01*
X-9305113Y-1664285D02*
X-9152732Y-1530952D01*
X-9152732Y-1530952D02*
X-9152732Y-1588095D01*
X-9152732Y-1588095D02*
X-9133684Y-1626190D01*
X-9133684Y-1626190D02*
X-9114637Y-1645238D01*
X-9114637Y-1645238D02*
X-9076541Y-1664285D01*
X-9076541Y-1664285D02*
X-8981303Y-1664285D01*
X-8981303Y-1664285D02*
X-8943208Y-1645238D01*
X-8943208Y-1645238D02*
X-8924160Y-1626190D01*
X-8924160Y-1626190D02*
X-8905113Y-1588095D01*
X-8905113Y-1588095D02*
X-8905113Y-1473809D01*
X-8905113Y-1473809D02*
X-8924160Y-1435714D01*
X-8924160Y-1435714D02*
X-8943208Y-1416666D01*
D11*
X-6541062Y10667851D02*
X-6204345Y10331134D01*
X-6204345Y10331134D02*
X-5497238Y11038240D01*
X-7113482Y11240271D02*
X-6776765Y10903554D01*
X-6776765Y10903554D02*
X-6069658Y11610660D01*
X9206938Y-7061349D02*
X9543655Y-7398066D01*
X9543655Y-7398066D02*
X10250762Y-6690960D01*
X8634518Y-6488929D02*
X8971235Y-6825646D01*
X8971235Y-6825646D02*
X9678342Y-6118540D01*
X-1650381Y896705D02*
X-1650381Y325277D01*
X-650381Y610991D02*
X-1650381Y610991D01*
X-1555143Y39562D02*
X-1602762Y-8057D01*
X-1602762Y-8057D02*
X-1650381Y-103295D01*
X-1650381Y-103295D02*
X-1650381Y-341390D01*
X-1650381Y-341390D02*
X-1602762Y-436628D01*
X-1602762Y-436628D02*
X-1555143Y-484247D01*
X-1555143Y-484247D02*
X-1459905Y-531866D01*
X-1459905Y-531866D02*
X-1364667Y-531866D01*
X-1364667Y-531866D02*
X-1221810Y-484247D01*
X-1221810Y-484247D02*
X-650381Y87181D01*
X-650381Y87181D02*
X-650381Y-531866D01*
D10*
%TO.C,T2*%
X-100000Y1700000D02*
X100000Y1700000D01*
X-100000Y-1500000D02*
X-100000Y1700000D01*
X100000Y1700000D02*
X100000Y2500000D01*
X100000Y-1500000D02*
X-100000Y-1500000D01*
X1400000Y1700000D02*
X2600000Y1700000D01*
X3900000Y1700000D02*
X4100000Y1700000D01*
X4100000Y1700000D02*
X4100000Y-1500000D01*
X4100000Y-1500000D02*
X3900000Y-1500000D01*
%TD*%
M02*
