%TF.GenerationSoftware,KiCad,Pcbnew,8.0.6+1*%
%TF.CreationDate,2024-11-07T21:38:17+00:00*%
%TF.ProjectId,QFHBAL01,51464842-414c-4303-912e-6b696361645f,rev?*%
%TF.SameCoordinates,PX8f0d180PY55d4a80*%
%TF.FileFunction,Legend,Top*%
%TF.FilePolarity,Positive*%
%FSLAX46Y46*%
G04 Gerber Fmt 4.6, Leading zero omitted, Abs format (unit mm)*
G04 Created by KiCad (PCBNEW 8.0.6+1) date 2024-11-07 21:38:17*
%MOMM*%
%LPD*%
G01*
G04 APERTURE LIST*
%ADD10C,0.120000*%
%ADD11C,0.150000*%
%ADD12C,0.080000*%
G04 APERTURE END LIST*
D10*
X-3200000Y-600000D02*
X-5200000Y-600000D01*
X-8400000Y1800000D02*
X-6300000Y3900000D01*
X-8400000Y800000D02*
X-8400000Y1800000D01*
X-3200000Y-600000D02*
X-3200000Y-100000D01*
X-6800000Y-600000D02*
G75*
G02*
X-6000000Y-600000I400000J0D01*
G01*
X-8400000Y-1600000D02*
X-6300000Y-3700000D01*
X-8400000Y-1600000D02*
X-8400000Y-600000D01*
X-8000000Y1100000D02*
G75*
G02*
X-8200000Y1100000I-100000J0D01*
G01*
X-8200000Y1100000D02*
G75*
G02*
X-8000000Y1100000I100000J0D01*
G01*
X-5200000Y800000D02*
X-3400000Y800000D01*
X-8400000Y-1600000D02*
X-10500000Y-3700000D01*
X-8400000Y-600000D02*
G75*
G02*
X-7600000Y-600000I400000J0D01*
G01*
X-6000000Y800000D02*
G75*
G02*
X-6800000Y800000I-400000J0D01*
G01*
X-3000000Y800000D02*
G75*
G02*
X-3400000Y800000I-200000J0D01*
G01*
X-3400000Y800000D02*
G75*
G02*
X-3000000Y800000I200000J0D01*
G01*
X-5200000Y800000D02*
G75*
G02*
X-6000000Y800000I-400000J0D01*
G01*
X-8400000Y200000D02*
X-5200000Y200000D01*
X-8400000Y200000D01*
X-8400000Y0D02*
X-5200000Y0D01*
X-8400000Y0D01*
X-8400000Y1800000D02*
X-10500000Y3900000D01*
X-6000000Y-600000D02*
G75*
G02*
X-5200000Y-600000I400000J0D01*
G01*
X-4000000Y1100000D02*
G75*
G02*
X-4000000Y500000I796400J-300000D01*
G01*
X-7600000Y-600000D02*
G75*
G02*
X-6800000Y-600000I400000J0D01*
G01*
X-6800000Y800000D02*
G75*
G02*
X-7600000Y800000I-400000J0D01*
G01*
X-5400000Y1100000D02*
G75*
G02*
X-5600000Y1100000I-100000J0D01*
G01*
X-5600000Y1100000D02*
G75*
G02*
X-5400000Y1100000I100000J0D01*
G01*
X-7600000Y800000D02*
G75*
G02*
X-8400000Y800000I-400000J0D01*
G01*
D11*
X-6675750Y10802539D02*
X-7012467Y11139256D01*
X-7012467Y11139256D02*
X-6305361Y11846363D01*
X-6103330Y10230119D02*
X-6440047Y10566836D01*
X-6440047Y10566836D02*
X-5732941Y11273943D01*
X5806493Y9874226D02*
X5941180Y9941570D01*
X5941180Y9941570D02*
X6109539Y10109929D01*
X6109539Y10109929D02*
X6143211Y10210944D01*
X6143211Y10210944D02*
X6143211Y10278288D01*
X6143211Y10278288D02*
X6109539Y10379303D01*
X6109539Y10379303D02*
X6042196Y10446646D01*
X6042196Y10446646D02*
X5941180Y10480318D01*
X5941180Y10480318D02*
X5873837Y10480318D01*
X5873837Y10480318D02*
X5772822Y10446646D01*
X5772822Y10446646D02*
X5604463Y10345631D01*
X5604463Y10345631D02*
X5503447Y10311959D01*
X5503447Y10311959D02*
X5436104Y10311959D01*
X5436104Y10311959D02*
X5335089Y10345631D01*
X5335089Y10345631D02*
X5267745Y10412975D01*
X5267745Y10412975D02*
X5234073Y10513990D01*
X5234073Y10513990D02*
X5234073Y10581333D01*
X5234073Y10581333D02*
X5267745Y10682349D01*
X5267745Y10682349D02*
X5436104Y10850707D01*
X5436104Y10850707D02*
X5570791Y10918051D01*
X6883989Y10884379D02*
X6547272Y10547662D01*
X6547272Y10547662D02*
X5840165Y11254768D01*
X-3285715Y8449943D02*
X-3380953Y8497562D01*
X-3380953Y8497562D02*
X-3476191Y8592800D01*
X-3476191Y8592800D02*
X-3619048Y8735658D01*
X-3619048Y8735658D02*
X-3714286Y8783277D01*
X-3714286Y8783277D02*
X-3809524Y8783277D01*
X-3761905Y8545181D02*
X-3857143Y8592800D01*
X-3857143Y8592800D02*
X-3952381Y8688039D01*
X-3952381Y8688039D02*
X-4000000Y8878515D01*
X-4000000Y8878515D02*
X-4000000Y9211848D01*
X-4000000Y9211848D02*
X-3952381Y9402324D01*
X-3952381Y9402324D02*
X-3857143Y9497562D01*
X-3857143Y9497562D02*
X-3761905Y9545181D01*
X-3761905Y9545181D02*
X-3571429Y9545181D01*
X-3571429Y9545181D02*
X-3476191Y9497562D01*
X-3476191Y9497562D02*
X-3380953Y9402324D01*
X-3380953Y9402324D02*
X-3333334Y9211848D01*
X-3333334Y9211848D02*
X-3333334Y8878515D01*
X-3333334Y8878515D02*
X-3380953Y8688039D01*
X-3380953Y8688039D02*
X-3476191Y8592800D01*
X-3476191Y8592800D02*
X-3571429Y8545181D01*
X-3571429Y8545181D02*
X-3761905Y8545181D01*
X-2571429Y9068991D02*
X-2904762Y9068991D01*
X-2904762Y8545181D02*
X-2904762Y9545181D01*
X-2904762Y9545181D02*
X-2428572Y9545181D01*
X-2047619Y8545181D02*
X-2047619Y9545181D01*
X-2047619Y9068991D02*
X-1476191Y9068991D01*
X-1476191Y8545181D02*
X-1476191Y9545181D01*
X-666667Y9068991D02*
X-523810Y9021372D01*
X-523810Y9021372D02*
X-476191Y8973753D01*
X-476191Y8973753D02*
X-428572Y8878515D01*
X-428572Y8878515D02*
X-428572Y8735658D01*
X-428572Y8735658D02*
X-476191Y8640420D01*
X-476191Y8640420D02*
X-523810Y8592800D01*
X-523810Y8592800D02*
X-619048Y8545181D01*
X-619048Y8545181D02*
X-1000000Y8545181D01*
X-1000000Y8545181D02*
X-1000000Y9545181D01*
X-1000000Y9545181D02*
X-666667Y9545181D01*
X-666667Y9545181D02*
X-571429Y9497562D01*
X-571429Y9497562D02*
X-523810Y9449943D01*
X-523810Y9449943D02*
X-476191Y9354705D01*
X-476191Y9354705D02*
X-476191Y9259467D01*
X-476191Y9259467D02*
X-523810Y9164229D01*
X-523810Y9164229D02*
X-571429Y9116610D01*
X-571429Y9116610D02*
X-666667Y9068991D01*
X-666667Y9068991D02*
X-1000000Y9068991D01*
X-47619Y8830896D02*
X428571Y8830896D01*
X-142857Y8545181D02*
X190476Y9545181D01*
X190476Y9545181D02*
X523809Y8545181D01*
X1333333Y8545181D02*
X857143Y8545181D01*
X857143Y8545181D02*
X857143Y9545181D01*
X1857143Y9545181D02*
X1952381Y9545181D01*
X1952381Y9545181D02*
X2047619Y9497562D01*
X2047619Y9497562D02*
X2095238Y9449943D01*
X2095238Y9449943D02*
X2142857Y9354705D01*
X2142857Y9354705D02*
X2190476Y9164229D01*
X2190476Y9164229D02*
X2190476Y8926134D01*
X2190476Y8926134D02*
X2142857Y8735658D01*
X2142857Y8735658D02*
X2095238Y8640420D01*
X2095238Y8640420D02*
X2047619Y8592800D01*
X2047619Y8592800D02*
X1952381Y8545181D01*
X1952381Y8545181D02*
X1857143Y8545181D01*
X1857143Y8545181D02*
X1761905Y8592800D01*
X1761905Y8592800D02*
X1714286Y8640420D01*
X1714286Y8640420D02*
X1666667Y8735658D01*
X1666667Y8735658D02*
X1619048Y8926134D01*
X1619048Y8926134D02*
X1619048Y9164229D01*
X1619048Y9164229D02*
X1666667Y9354705D01*
X1666667Y9354705D02*
X1714286Y9449943D01*
X1714286Y9449943D02*
X1761905Y9497562D01*
X1761905Y9497562D02*
X1857143Y9545181D01*
X3142857Y8545181D02*
X2571429Y8545181D01*
X2857143Y8545181D02*
X2857143Y9545181D01*
X2857143Y9545181D02*
X2761905Y9402324D01*
X2761905Y9402324D02*
X2666667Y9307086D01*
X2666667Y9307086D02*
X2571429Y9259467D01*
X3523810Y8830896D02*
X4000000Y8830896D01*
X3428572Y8545181D02*
X3761905Y9545181D01*
X3761905Y9545181D02*
X4095238Y8545181D01*
X9123050Y-6977461D02*
X8786333Y-6640744D01*
X8786333Y-6640744D02*
X9493439Y-5933637D01*
X9695470Y-7549881D02*
X9358753Y-7213164D01*
X9358753Y-7213164D02*
X10065859Y-6506057D01*
X-9738307Y-7499374D02*
X-9603620Y-7432030D01*
X-9603620Y-7432030D02*
X-9435261Y-7263671D01*
X-9435261Y-7263671D02*
X-9401589Y-7162656D01*
X-9401589Y-7162656D02*
X-9401589Y-7095312D01*
X-9401589Y-7095312D02*
X-9435261Y-6994297D01*
X-9435261Y-6994297D02*
X-9502604Y-6926954D01*
X-9502604Y-6926954D02*
X-9603620Y-6893282D01*
X-9603620Y-6893282D02*
X-9670963Y-6893282D01*
X-9670963Y-6893282D02*
X-9771978Y-6926954D01*
X-9771978Y-6926954D02*
X-9940337Y-7027969D01*
X-9940337Y-7027969D02*
X-10041353Y-7061641D01*
X-10041353Y-7061641D02*
X-10108696Y-7061641D01*
X-10108696Y-7061641D02*
X-10209711Y-7027969D01*
X-10209711Y-7027969D02*
X-10277055Y-6960625D01*
X-10277055Y-6960625D02*
X-10310727Y-6859610D01*
X-10310727Y-6859610D02*
X-10310727Y-6792267D01*
X-10310727Y-6792267D02*
X-10277055Y-6691251D01*
X-10277055Y-6691251D02*
X-10108696Y-6522893D01*
X-10108696Y-6522893D02*
X-9974009Y-6455549D01*
X-8660811Y-6489221D02*
X-8997528Y-6825938D01*
X-8997528Y-6825938D02*
X-9704635Y-6118832D01*
D12*
X-8195237Y-1121363D02*
X-8061904Y-1121363D01*
X-8004761Y-1330887D02*
X-8195237Y-1330887D01*
X-8195237Y-1330887D02*
X-8195237Y-930887D01*
X-8195237Y-930887D02*
X-8004761Y-930887D01*
X-7890475Y-930887D02*
X-7661904Y-930887D01*
X-7776190Y-1330887D02*
X-7776190Y-930887D01*
X-7299999Y-1292792D02*
X-7319047Y-1311840D01*
X-7319047Y-1311840D02*
X-7376189Y-1330887D01*
X-7376189Y-1330887D02*
X-7414285Y-1330887D01*
X-7414285Y-1330887D02*
X-7471428Y-1311840D01*
X-7471428Y-1311840D02*
X-7509523Y-1273744D01*
X-7509523Y-1273744D02*
X-7528570Y-1235649D01*
X-7528570Y-1235649D02*
X-7547618Y-1159459D01*
X-7547618Y-1159459D02*
X-7547618Y-1102316D01*
X-7547618Y-1102316D02*
X-7528570Y-1026125D01*
X-7528570Y-1026125D02*
X-7509523Y-988030D01*
X-7509523Y-988030D02*
X-7471428Y-949935D01*
X-7471428Y-949935D02*
X-7414285Y-930887D01*
X-7414285Y-930887D02*
X-7376189Y-930887D01*
X-7376189Y-930887D02*
X-7319047Y-949935D01*
X-7319047Y-949935D02*
X-7299999Y-968982D01*
X-6919047Y-1330887D02*
X-7147618Y-1330887D01*
X-7033332Y-1330887D02*
X-7033332Y-930887D01*
X-7033332Y-930887D02*
X-7071428Y-988030D01*
X-7071428Y-988030D02*
X-7109523Y-1026125D01*
X-7109523Y-1026125D02*
X-7147618Y-1045173D01*
X-6747618Y-1178506D02*
X-6442856Y-1178506D01*
X-6042857Y-1330887D02*
X-6271428Y-1330887D01*
X-6157142Y-1330887D02*
X-6157142Y-930887D01*
X-6157142Y-930887D02*
X-6195238Y-988030D01*
X-6195238Y-988030D02*
X-6233333Y-1026125D01*
X-6233333Y-1026125D02*
X-6271428Y-1045173D01*
X-5871428Y-1178506D02*
X-5566666Y-1178506D01*
X-5166667Y-1330887D02*
X-5395238Y-1330887D01*
X-5280952Y-1330887D02*
X-5280952Y-930887D01*
X-5280952Y-930887D02*
X-5319048Y-988030D01*
X-5319048Y-988030D02*
X-5357143Y-1026125D01*
X-5357143Y-1026125D02*
X-5395238Y-1045173D01*
X-5033334Y-930887D02*
X-4785715Y-930887D01*
X-4785715Y-930887D02*
X-4919048Y-1083268D01*
X-4919048Y-1083268D02*
X-4861905Y-1083268D01*
X-4861905Y-1083268D02*
X-4823810Y-1102316D01*
X-4823810Y-1102316D02*
X-4804762Y-1121363D01*
X-4804762Y-1121363D02*
X-4785715Y-1159459D01*
X-4785715Y-1159459D02*
X-4785715Y-1254697D01*
X-4785715Y-1254697D02*
X-4804762Y-1292792D01*
X-4804762Y-1292792D02*
X-4823810Y-1311840D01*
X-4823810Y-1311840D02*
X-4861905Y-1330887D01*
X-4861905Y-1330887D02*
X-4976191Y-1330887D01*
X-4976191Y-1330887D02*
X-5014286Y-1311840D01*
X-5014286Y-1311840D02*
X-5033334Y-1292792D01*
D11*
X-444705Y3575581D02*
X126723Y3575581D01*
X-158991Y2575581D02*
X-158991Y3575581D01*
X983866Y2575581D02*
X412438Y2575581D01*
X698152Y2575581D02*
X698152Y3575581D01*
X698152Y3575581D02*
X602914Y3432724D01*
X602914Y3432724D02*
X507676Y3337486D01*
X507676Y3337486D02*
X412438Y3289867D01*
D10*
%TO.C,T1*%
X0Y2200000D02*
X0Y2000000D01*
X0Y2000000D02*
X-800000Y2000000D01*
X0Y700000D02*
X0Y-500000D01*
X0Y-1800000D02*
X0Y-2000000D01*
X0Y-2000000D02*
X3200000Y-2000000D01*
X3200000Y2200000D02*
X0Y2200000D01*
X3200000Y2000000D02*
X3200000Y2200000D01*
X3200000Y-2000000D02*
X3200000Y-1800000D01*
%TO.C,J1*%
X7445000Y1550000D02*
X7445000Y-1350000D01*
X9350000Y3455000D02*
X12250000Y3455000D01*
X9350000Y-3255000D02*
X12250000Y-3255000D01*
X14155000Y1550000D02*
X14155000Y-1350000D01*
%TD*%
M02*
