M48
; DRILL file {KiCad 8.0.6+1} date 2024-11-07T21:38:17+0000
; FORMAT={3:3/ absolute / metric / suppress leading zeros}
; #@! TF.CreationDate,2024-11-07T21:38:17+00:00
; #@! TF.GenerationSoftware,Kicad,Pcbnew,8.0.6+1
; #@! TF.FileFunction,Plated,1,2,PTH
FMAT,2
METRIC,TZ
; #@! TA.AperFunction,Plated,PTH,ViaDrill
T1C0.400
; #@! TA.AperFunction,Plated,PTH,ComponentDrill
T2C1.500
; #@! TA.AperFunction,Plated,PTH,ComponentDrill
T3C1.700
; #@! TA.AperFunction,Plated,PTH,ComponentDrill
T4C2.200
%
G90
G05
T1
X-10287Y10383
X-10201Y-10180
X-9372Y11348
X-9287Y9383
X-9287Y-11095
X-9201Y-9180
X-8372Y10348
X-8287Y8383
X-8287Y-10095
X-8201Y-8180
X-7372Y9348
X-7287Y7383
X-7287Y-9095
X-7201Y-7180
X-6372Y8348
X-6287Y6383
X-6287Y-8095
X-6201Y-6180
X-5372Y7348
X-5287Y-7095
X-2000Y3000
X-2000Y-3000
X-242Y1252
X-140Y-2202
X1500Y3000
X1858Y-3143
X4800Y1370
X5000Y-1200
X5309Y-7143
X5328Y7330
X5600Y2268
X6058Y-2354
X6122Y-6178
X6242Y6415
X6309Y-8143
X6328Y8330
X6400Y-1200
X7122Y-7178
X7242Y7415
X7309Y-9143
X7328Y9330
X8122Y-8178
X8242Y8415
X8309Y-10143
X8328Y10330
X9122Y-9178
X9242Y9415
X9309Y-11143
X9328Y11330
X10122Y-10178
X10242Y10415
X10782Y2726
X10833Y-2507
X13170Y186
T2
X10800Y100
T3
X8260Y2640
X8260Y-2440
X13340Y2640
X13340Y-2440
T4
X-4500Y5600
X-4500Y-5400
X4500Y5600
X4500Y-5400
M30
